<?xml version="1.0" encoding="utf-8"?>
<!-- Generator: Adobe Illustrator 25.1.0, SVG Export Plug-In . SVG Version: 6.00 Build 0)  -->
<svg version="1.1" id="Layer_1" xmlns="http://www.w3.org/2000/svg" xmlns:xlink="http://www.w3.org/1999/xlink" x="0px" y="0px"
	 viewBox="0 0 2298.5 1657.5" style="enable-background:new 0 0 2298.5 1657.5;" xml:space="preserve">
<style type="text/css">
	.st0{display:none;}
	.st1{display:inline;fill:#FFFFFF;}
	.st2{display:inline;}
	.st3{opacity:0.75;fill-rule:evenodd;clip-rule:evenodd;fill:#F57F20;}
	.st4{opacity:0.75;}
	.st5{fill-rule:evenodd;clip-rule:evenodd;fill:#F57F20;}
</style>
<g id="Canvas_x5F_copy" class="st0">
	<path class="st1" d="M2044.3,1453.3c1,0.2,2.1,0.3,3.1,0.5c0.8-4.3,1.9-8.7,2.5-13c7.9-65.8,15.6-131.6,23.6-197.4
		c8.8-72.7,17.7-145.4,26.8-218.1c6.8-54.2,14.2-108.3,21.2-162.5c12.3-94.8,24.3-189.6,36.7-284.3c10.3-78.6,21.2-157.1,31.4-235.7
		c11.1-85.5,21.6-171.1,32.6-256.7c1.9-15.1,3.4-16.5-14.9-16.6c-59.7-0.3-119.3-0.8-179-0.8c-258,0-516-0.1-774,0.1
		c-279.3,0.3-558.7,1-838,1.5c-3.1,0-6.2,0.3-9.3,0.4c0,0.8-0.1,1.6-0.1,2.5c3.4,0.3,6.8,0.9,10.1,0.9c117.3,0.8,234.7,2,352,2
		c144.3,0.1,288.7-1,433-1.2c241.7-0.2,483.3-0.1,725-0.2c93.3,0,186.7-0.4,280-0.5c4.1,0,8.3,0.3,12.7,0.5
		c-0.3,3.4-0.5,5.4-0.8,7.3c-9.5,69.6-19.2,139.2-28.6,208.8c-10.4,76.9-20.6,153.8-30.8,230.7c-10.4,78.9-20.9,157.8-31.1,236.7
		c-9.7,74.6-19.3,149.3-28.8,223.9c-10.5,82.2-21.1,164.5-31,246.8c-8.4,70.4-15.9,141-23.7,211.5
		C2044.5,1444.8,2044.5,1449.1,2044.3,1453.3z M76.1,1532.6c14.3-5.3,28.2-10.6,42.3-15.5c140.9-49.7,286.3-78.7,434.8-92.2
		c56.4-5.1,113.1-6.7,169.7-8.4c52.6-1.6,105.3-1.8,158-1.7c106,0.2,212-3.7,317.9,3.4c69.8,4.7,139.7,9.2,209.3,15.8
		c55,5.2,109.9,12.7,164.5,20.9c55.7,8.3,110.4,21.5,165,35.2c69.2,17.4,137.3,38,204.3,62.6c31.6,11.6,62.8,24.1,94.3,36
		c4.8,1.8,9.5,4.7,16,2.9c-3.9-5.5-9.4-7-14.5-9c-64.7-25.8-129.7-50.5-196.5-70.4c-93.6-27.9-188.1-52.1-284.9-66.3
		c-42.8-6.3-85.8-12.2-128.8-17c-35.4-4-71-6.5-106.6-8.8c-60.5-4.1-121-9-181.6-10.8c-62.3-1.9-124.6-1.2-187-0.7
		c-98.3,0.8-196.6,1.8-295,3.7c-77.7,1.5-154.9,9.6-231.6,22.3c-70.7,11.7-140.7,26.6-209.6,46.6c-45.4,13.2-90.3,28-134.3,45.4
		c-3.5,1.4-6.8,3.5-10.1,5.2c2.7,7.6,2.7,7.6,7.8,10.5C78.5,1538.9,77.5,1536.2,76.1,1532.6z M1984.7,1142.5
		c0.1-0.7,0.1-1.4,0.2-2.1c-1.7-0.6-3.4-1.5-5.1-1.7c-8.6-0.6-17.3-1.3-25.9-1.4c-40.7-0.4-81.3-0.8-122-0.9
		c-258.7-0.8-517.4-2.5-776-2.1c-253.3,0.4-506.7,2.8-760,4.3c-21.3,0.1-42.7,0-64,0.1c-2.6,0-6.1-1.3-7.9,3.9c4,0,7.2,0,10.5,0
		c189.3-0.5,378.7-1.2,568-1.5c191-0.4,382-0.9,573-0.7c145.3,0.1,290.7,1.3,436,2.1c49,0.3,98,1.1,147,1.4
		C1967.2,1143.9,1976,1143,1984.7,1142.5z M79.4,1357.1c1.1,0.1,2.2,0.2,3.3,0.3c1.6-8.4,3.5-16.8,4.7-25.2
		c7.7-55.7,14.9-111.6,22.8-167.3c12.8-91,26-182,39-272.9c10.3-72.5,20.7-145,30.9-217.6c11.1-79.5,22.3-158.9,33-238.5
		c13.4-99,26.3-198.1,39.4-297.1c0.2-1.6-0.2-3.3-0.4-5c-2.4,2.5-3.3,5.2-3.7,8c-4.9,34.6-9.7,69.2-14.5,103.9
		c-8.3,59.7-16.5,119.4-24.8,179.1c-7,50.1-14.1,100.2-21.2,150.3c-9,63.6-18,127.3-27.1,190.9c-9.5,66.3-19.2,132.5-28.6,198.7
		c-9.1,63.6-18,127.3-26.9,190.9c-8.3,60-16.5,120.1-24.6,180.1C79.6,1342.8,79.7,1350,79.4,1357.1z M954.4,1078.6
		c1.8-2.6,2.7-3.3,2.8-4c34.5-304.4,69-608.8,103.5-913.2c0-0.4-0.8-0.8-2.4-2.3c-0.9,3.6-1.9,6.5-2.3,9.5
		c-6,46.6-12.2,93.1-17.7,139.7c-9.2,77-17.9,154.1-26.8,231.2c-9.8,84.7-19.9,169.3-29.3,254.1c-9.6,86.4-18.6,172.8-27.6,259.3
		C953.7,1060.7,954.4,1068.7,954.4,1078.6z M1450.6,141.3c-1.1-0.1-2.1-0.3-3.2-0.4c-1.1,6.1-2.5,12.2-3.4,18.4
		c-6.3,45.2-12.6,90.3-18.8,135.5c-8.4,62-16.7,124.1-25,186.1c-7.1,53.5-14.1,107-21.3,160.4c-7.5,55.8-15.3,111.5-22.9,167.2
		c-7.9,58.4-15.8,116.8-23.4,175.2c-2.2,17.2-3.6,34.4-5.2,51.7c-0.2,2.2,0.7,4.5,1,6.7c0.8,0,1.7,0,2.5,0.1
		c0.8-3.1,1.9-6.1,2.3-9.3C1372.4,735.7,1411.5,438.5,1450.6,141.3z M1750.4,1040.8c0.5,0.1,1,0.2,1.5,0.2c0.6-1.7,1.5-3.4,1.7-5.2
		c2-15.2,4.2-30.3,5.8-45.6c5.1-46,9.9-92,14.9-138c5.7-52,11.4-103.9,17.2-155.9c5.6-51,11.3-101.9,17-152.9
		c5.8-52.3,11.5-104.6,17.2-156.9c5.2-47.7,10.5-95.3,15.5-143c3.5-33.4,6.7-66.9,9.9-100.4c0.2-1.8-0.7-3.7-1.1-5.6
		c-2.1,3.4-2.9,6.6-3.3,9.8c-3.6,31.8-7.3,63.5-10.8,95.3c-7.6,68.2-15,136.4-22.6,204.5c-8.2,73.1-16.8,146.2-25,219.3
		c-5.8,51.6-11.2,103.3-16.8,154.9c-7,64.5-14.2,129.1-21,193.7C1749.7,1023.6,1750.4,1032.2,1750.4,1040.8z M553.7,953.7
		c2.3-2.5,3.3-3.1,3.4-3.8c28.8-270.8,57.6-541.7,86.3-812.6c0.1-1.1-0.5-2.2-0.8-3.3c-2,2.2-2.7,4.6-2.9,7
		c-4.3,39.4-8.5,78.8-12.9,118.2c-5.5,50-11.1,100-16.6,149.9c-4.9,44.7-9.9,89.4-14.8,134c-5.8,52.6-11.6,105.2-17.3,157.9
		c-5.8,53.6-11.5,107.3-17.1,160.9c-2.7,25.8-4.9,51.7-7.2,77.6C553.4,943.5,553.7,947.6,553.7,953.7z M954,584.9
		c-0.1-1.1-0.3-2.2-0.4-3.3c-8.2-0.3-16.4-0.8-24.6-0.8c-57.6,0.3-115.3,0.8-172.9,1c-48.6,0.1-97.3-0.2-145.9-0.2
		c-2.6,0-5.7-1-8.1,3.5c4.9,0.3,8.8,0.8,12.7,0.8c76.3,0.2,152.6,0.4,228.9,0.5c33,0,66-0.2,99-0.4
		C946.4,586.1,950.2,585.3,954,584.9z M1721.3,585.2c-0.1-1.1-0.3-2.1-0.4-3.2c-5.2-0.3-10.4-0.9-15.6-0.9
		c-86.5,0.3-173.1,0.6-259.6,1c-1.5,0-3.1,0.9-4.6,1.4c6.5,2,12.8,2.4,19.1,2.4c49.9,0.2,99.8,0.2,149.8,0.3c31.3,0,62.6,0.1,93.9,0
		C1709.6,586.2,1715.4,585.5,1721.3,585.2z M1095.3,1156.8c0,6.2,0,12.4,0,18.6c-0.4,50.3-0.9,100.5-1.3,150.8
		c-0.1,22.3,0,44.6,0.2,66.9c0,3.5-1,7.6,2.8,10.9C1100.1,1393,1099.9,1166.3,1095.3,1156.8z"/>
	<path class="st2" d="M2044.3,1453.3c0.2-4.2,0.2-8.5,0.7-12.7c7.8-70.5,15.3-141,23.7-211.5c9.9-82.3,20.5-164.5,31-246.8
		c9.5-74.7,19.1-149.3,28.8-223.9c10.3-78.9,20.7-157.8,31.1-236.7c10.2-76.9,20.4-153.8,30.8-230.7c9.4-69.6,19.1-139.2,28.6-208.8
		c0.3-2,0.4-3.9,0.8-7.3c-4.4-0.2-8.6-0.5-12.7-0.5c-93.3,0.2-186.7,0.5-280,0.5c-241.7,0.1-483.3,0-725,0.2
		c-144.3,0.1-288.7,1.3-433,1.2c-117.3-0.1-234.7-1.3-352-2c-3.4,0-6.8-0.6-10.1-0.9c0-0.8,0.1-1.6,0.1-2.5c3.1-0.2,6.2-0.4,9.3-0.4
		c279.3-0.5,558.7-1.2,838-1.5c258-0.3,516-0.2,774-0.1c59.7,0,119.3,0.5,179,0.8c18.3,0.1,16.8,1.6,14.9,16.6
		c-11,85.5-21.5,171.1-32.6,256.7c-10.2,78.6-21.1,157.1-31.4,235.7c-12.4,94.8-24.4,189.6-36.7,284.3
		c-7,54.2-14.4,108.3-21.2,162.5c-9.1,72.7-18,145.4-26.8,218.1c-8,65.8-15.7,131.6-23.6,197.4c-0.5,4.4-1.6,8.7-2.5,13
		C2046.4,1453.7,2045.3,1453.5,2044.3,1453.3z"/>
	<path class="st2" d="M76.1,1532.6c1.4,3.7,2.4,6.3,3.6,9.6c-5.1-2.9-5.1-2.9-7.8-10.5c3.2-1.7,6.5-3.8,10.1-5.2
		c44-17.4,88.9-32.2,134.3-45.4c68.9-20,138.8-34.9,209.6-46.6c76.7-12.7,153.9-20.8,231.6-22.3c98.3-1.9,196.6-3,295-3.7
		c62.3-0.5,124.7-1.2,187,0.7c60.6,1.9,121.1,6.8,181.6,10.8c35.6,2.4,71.2,4.9,106.6,8.8c43,4.8,85.9,10.7,128.8,17
		c96.8,14.1,191.3,38.4,284.9,66.3c66.8,19.9,131.9,44.6,196.5,70.4c5,2,10.6,3.5,14.5,9c-6.5,1.7-11.2-1.1-16-2.9
		c-31.4-11.9-62.7-24.5-94.3-36c-67-24.5-135.1-45.1-204.3-62.6c-54.6-13.8-109.4-26.9-165-35.2c-54.7-8.1-109.5-15.6-164.5-20.9
		c-69.6-6.6-139.5-11.1-209.3-15.8c-105.9-7.1-211.9-3.2-317.9-3.4c-52.7-0.1-105.3,0.1-158,1.7c-56.6,1.7-113.3,3.3-169.7,8.4
		c-148.5,13.5-293.9,42.5-434.8,92.2C104.4,1522,90.4,1527.3,76.1,1532.6z"/>
	<path class="st2" d="M1984.7,1142.5c-8.8,0.5-17.6,1.5-26.3,1.4c-49-0.3-98-1.1-147-1.4c-145.3-0.8-290.7-1.9-436-2.1
		c-191-0.2-382,0.3-573,0.7c-189.3,0.4-378.7,1-568,1.5c-3.2,0-6.5,0-10.5,0c1.9-5.2,5.4-3.9,7.9-3.9c21.3-0.1,42.7,0,64-0.1
		c253.3-1.5,506.7-4,760-4.3c258.7-0.4,517.4,1.3,776,2.1c40.7,0.1,81.3,0.5,122,0.9c8.7,0.1,17.3,0.8,25.9,1.4
		c1.7,0.1,3.4,1.1,5.1,1.7C1984.9,1141.1,1984.8,1141.8,1984.7,1142.5z"/>
	<path class="st2" d="M79.4,1357.1c0.4-7.1,0.3-14.3,1.2-21.3c8.1-60.1,16.3-120.1,24.6-180.1c8.9-63.7,17.8-127.3,26.9-190.9
		c9.4-66.3,19.1-132.5,28.6-198.7c9.1-63.6,18.1-127.3,27.1-190.9C194.9,525.1,202,475,209,424.9c8.3-59.7,16.5-119.4,24.8-179.1
		c4.8-34.6,9.7-69.3,14.5-103.9c0.4-2.8,1.3-5.4,3.7-8c0.1,1.7,0.6,3.4,0.4,5c-13.1,99-26,198.1-39.4,297.1
		c-10.7,79.5-21.9,159-33,238.5c-10.2,72.5-20.6,145.1-30.9,217.6c-13,91-26.2,181.9-39,272.9c-7.8,55.7-15.1,111.5-22.8,167.3
		c-1.2,8.5-3.1,16.8-4.7,25.2C81.6,1357.2,80.5,1357.2,79.4,1357.1z"/>
	<path class="st2" d="M954.4,1078.6c0-9.9-0.7-17.9,0.1-25.8c9-86.4,18-172.9,27.6-259.3c9.4-84.7,19.5-169.4,29.3-254.1
		c8.9-77.1,17.7-154.2,26.8-231.2c5.6-46.6,11.8-93.2,17.7-139.7c0.4-3,1.4-5.9,2.3-9.5c1.6,1.5,2.5,1.9,2.4,2.3
		c-34.4,304.4-68.9,608.8-103.5,913.2C957.2,1075.4,956.3,1076.1,954.4,1078.6z"/>
	<path class="st2" d="M1450.6,141.3c-39.1,297.2-78.2,594.4-117.4,891.6c-0.4,3.1-1.5,6.2-2.3,9.3c-0.8,0-1.7,0-2.5-0.1
		c-0.4-2.2-1.2-4.5-1-6.7c1.6-17.2,3-34.5,5.2-51.7c7.6-58.4,15.5-116.8,23.4-175.2c7.6-55.8,15.4-111.5,22.9-167.2
		c7.2-53.5,14.2-106.9,21.3-160.4c8.3-62,16.6-124.1,25-186.1c6.1-45.2,12.5-90.4,18.8-135.5c0.9-6.2,2.2-12.3,3.4-18.4
		C1448.5,141,1449.6,141.2,1450.6,141.3z"/>
	<path class="st2" d="M1750.4,1040.8c0-8.6-0.8-17.3,0.1-25.7c6.8-64.6,14-129.1,21-193.7c5.6-51.6,11-103.3,16.8-154.9
		c8.2-73.1,16.7-146.2,25-219.3c7.7-68.2,15.1-136.3,22.6-204.5c3.5-31.8,7.2-63.5,10.8-95.3c0.4-3.2,1.1-6.4,3.3-9.8
		c0.4,1.9,1.2,3.8,1.1,5.6c-3.2,33.5-6.4,67-9.9,100.4c-5,47.7-10.3,95.3-15.5,143c-5.7,52.3-11.4,104.6-17.2,156.9
		c-5.6,51-11.3,101.9-17,152.9c-5.8,52-11.5,103.9-17.2,155.9c-5,46-9.8,92-14.9,138c-1.7,15.2-3.8,30.4-5.8,45.6
		c-0.2,1.8-1.1,3.5-1.7,5.2C1751.5,1041,1750.9,1040.9,1750.4,1040.8z"/>
	<path class="st2" d="M553.7,953.7c0-6.1-0.3-10.2,0.1-14.2c2.3-25.9,4.5-51.8,7.2-77.6c5.6-53.7,11.3-107.3,17.1-160.9
		c5.7-52.6,11.5-105.3,17.3-157.9c4.9-44.7,9.8-89.4,14.8-134c5.5-50,11.1-99.9,16.6-149.9c4.3-39.4,8.6-78.8,12.9-118.2
		c0.3-2.4,0.9-4.7,2.9-7c0.3,1.1,0.9,2.3,0.8,3.3C614.7,408.2,586,679,557.1,949.9C557,950.6,556,951.2,553.7,953.7z"/>
	<path class="st2" d="M954,584.9c-3.8,0.4-7.6,1.1-11.4,1.1c-33,0.2-66,0.4-99,0.4c-76.3-0.1-152.6-0.3-228.9-0.5
		c-3.9,0-7.8-0.5-12.7-0.8c2.4-4.4,5.5-3.5,8.1-3.5c48.6,0,97.3,0.3,145.9,0.2c57.6-0.2,115.3-0.7,172.9-1c8.2,0,16.4,0.5,24.6,0.8
		C953.8,582.7,953.9,583.8,954,584.9z"/>
	<path class="st2" d="M1721.3,585.2c-5.8,0.3-11.7,1-17.5,1c-31.3,0.1-62.6,0-93.9,0c-49.9-0.1-99.8-0.2-149.8-0.3
		c-6.3,0-12.5-0.5-19.1-2.4c1.5-0.5,3-1.4,4.6-1.4c86.5-0.4,173.1-0.7,259.6-1c5.2,0,10.4,0.6,15.6,0.9
		C1721,583.1,1721.1,584.1,1721.3,585.2z"/>
	<path class="st2" d="M1095.3,1156.8c4.5,9.5,4.7,236.2,1.6,247.3c-3.7-3.3-2.7-7.4-2.8-10.9c-0.2-22.3-0.3-44.6-0.2-66.9
		c0.3-50.3,0.8-100.5,1.3-150.8C1095.4,1169.2,1095.3,1163,1095.3,1156.8z"/>
</g>
<path class="st3" d="M2053.1,1250.7c2.3-3.2,5,5.2,5.1,0c-3.6-2.3-2.7-18-0.9-24.3c-3-1.5-2.1,9.6-5.1,8.1c-0.5-9.3-3-12-2.6-24.3
	c3.2,0.2,2.4,3,5.1,0c0.7-7.1-2.6-14.8,0-18.9c5.1-1.7,5.8,10.5,10.2,10.8c0.6-8.2-0.9-9.8-0.9-16.2c-4.3,2.7-4.2-8.4-7.7-8.1
	c0.2-8.8-3.3-5.7-3.4-13.5c-2.4-0.5-3.6-4.9-6-5.4c-0.6-6.1-2.6-8.1-4.3-10.8c-0.3-4.6-5-9-6-2.7c2,4.3,3.8,10.4,5.1,13.5
	c-0.1,7.6,2.6,6.3,2.6,13.5c-1,0.3-2,0.8-1.7,5.4c1.6,2.6,2.8-8.1,3.4,0c-0.7,7.6-4.4,5.7-6,10.8c0-5.4,0-10.8,0-16.2
	c-2-7.2-2.3,7.2-4.3,0c-0.2-5.1,1-6,0.9-10.8c-2.8-0.4-3.8,12.1-6,5.4c-0.8-10.8,2.5-8.1,1.7-18.9c-2,0.1-2.5-4.7-5.1-2.7
	c0.7-8.6-1.9-4.4-3.4-8.1c-1.3-3.3-2-10.5-3.4-13.5c-1.3-2.7-3.4-2.6-5.1-5.4c-0.5-0.8-1-4.2-1.7-5.4c-1-1.8-1.8-3.1-3.4-2.7
	c-0.6-6.3-2.8-7.2-3.4-13.5c-1.3-0.5-3.1,1-3.4-2.7c-1.9-5.6,0.7-8.7-0.9-13.5c-2.6,0-5.1,0-7.7,0c-0.7-5.8-2.2-9.2-1.7-18.9
	c-2.6,0.9-3.5-0.7-4.3-2.7c-0.2-0.4-0.7,0.4-0.9,0c-0.2-0.4,0.2-5.2,0-5.4c-1.9-1.8-3.3,1.3-6,0c-0.4-3.4-0.1-8.2-0.9-10.8
	c-0.4-1.3-2.1,0.9-2.6,0c-0.6-1.1-0.8-10.4-1.7-10.8c-2.5,0.7-2.6-6.1-5.1-5.4c-0.8-4-2.1-9.1-2.6-10.8c-0.2-0.8-1.4,0.5-1.7,0
	c-0.1-0.2,0.1-2.4,0-2.7c-0.2-0.9-1.4,0.8-1.7,0c-0.6-1.6-0.2-6.5-0.9-8.1c-0.9-2.2-4.6,0.9-3.4-8.1c-1.1-0.8-2.4,1-3.4,0
	c-0.3-0.3-1.3-4.8-1.7-5.4c-1.5-2-2.8-0.7-4.3-5.4c0-3.6,0-7.2,0-10.8c-2.4-1.4-4.4-4-6.8-5.4c-0.3-8.9-2.5-11.9-3.4-18.9
	c-2.1,1.1-1.9-4.9-4.3-2.7c-0.6-6.9-2.2-6.4-3.4-8.1c-0.3-0.4-0.5-4.8-0.9-5.4c-1.4-2.4-2.3,0.2-3.4-2.7c-0.4-1.1,0.3-6.7,0-8.1
	c-0.4-1.8-2.9,1.5-2.6-2.7c0.2-4.7,1.5-6.2,3.4-5.4c1.9,0.4,1.8,6.8,1.7,13.5c3.6,1.6,5.6-1.9,8.5-2.7c2,8.1,3.3,17.5,6,24.3
	c1,2.6,3.1,0.5,4.3,2.7c1,1.9,1.6,8.5,2.6,10.8c0.6,1.3,2.1,2,2.6,2.7c0.5,0.7,1.1,4.8,2.6,2.7c0.2-13.3-4.5-16.6-6.8-21.6
	c-0.6-1.4-0.9-3.9-1.7-5.4c-0.8-1.6-1.6-1-2.6-2.7c-0.5-0.9-1.2-4.4-1.7-5.4c-1.1-2-2.5-0.5-2.6-5.4c-0.6,0-1.1,0-1.7,0
	c0.4-13-3.3-12.8-6-16.2c-1-3.5-1.4-8.1-2.6-10.8c-1-2.2-2.4-0.9-3.4-2.7c-0.2-0.4-0.7-4.7-0.9-5.4c-0.2-0.9-1.4,0.7-1.7,0
	c-2.5-5.8-3.9-21.3-7.7-18.9c-1-4.8-2.2-10.6-3.4-10.8c-1.2-0.2-1.4-5.2-2.6-5.4c-1.2-0.2-1.4-5.2-2.6-5.4c-1-0.2-0.4-1.7-0.9-2.7
	c-3.3-7.2-6.7-15.4-11.1-18.9c-0.2,7.9,1.9,8.3,1.7,16.2c0.5,3.8,2.3,0.7,3.4,2.7c0.3,0.5-0.2,4.8,0,5.4c0.2,0.4,0.7-0.4,0.9,0
	c0.7,1.8,2.6,0.8,2.6,8.1c-1.7,0.4-3.2-5.6-4.3-8.1c-0.8-1.8-2.1,0.1-1.7-5.4c-3.4,0.9-4.7-4.8-8.5-2.7c-1.3-5-3.6-6.7-4.3-13.5
	c-2-2.6-5.4-0.9-5.1-10.8c1.4,1,1.5-2.9,2.6-2.7c0.7,0.1,0.8,3,1.7,2.7c1.6-0.5,2.2-4.4,4.3,0c0.3,0.7,2.3,1.8,2.6,2.7
	c0.3,1,2,7.3,4.3,5.4c-2.7-15.9-8.8-20.7-11.9-35.1c-3.2,0.1-3.2-3.1-5.1-8.1c-2.4-6.3-3.1-7-2.6-16.2c-2.4,0.6-4.3-0.7-5.1-5.4
	c-2-15.2,1-21.6,3.4-29.7c-1-0.6-1.3-3-1.7-5.4c2.9-4.4,0.6-25,5.1-24.3c1.8,5.5-0.2,10.7-0.9,16.2c2.5,0.3,1.5,11.5,4.3,10.8
	c0.9-1.9-0.1-7.5,0-10.8c0-0.1,0.8,0.1,0.9,0c1.6-4-0.9-24.1-0.9-24.3c0-5.1,0.8-6,0.9-10.8c0.1-6.7-0.7-7.7-0.9-13.5
	c4.5,3.7,2.4-6.4,3.4-8.1c2.6,2,2.5-4.7,5.1-2.7c3-6.7,2.8-23.6,5.1-32.4c-1.8,0.5-0.4-9.6-0.9-13.5c1.7-2.7,3-6.7,4.3-10.8
	c-0.7-18.5,3.3-22,6.8-27c2,0.8,1.6,9.4,4.3,8.1c-1.3-18.4,2.2-33.4,6.8-24.3c0.6-10.2-4.5-1.9-3.4-13.5c1.5-2.4,2.2-7.5,5.1-5.4
	c-0.2-13.2,3.9-13,6-18.9c0.3-5.3-1.2-5.3-1.7-8.1c1.5-3.6,1.9-4.2,3.4-5.4c0.6-0.5,0.7-2.6,0.9-2.7c1.2-1.2,0.8,8,2.6,5.4
	c0.1-3.1-0.3-4.1-0.9-5.4c-0.6-1.4,0.9-3.2,0.9-2.7c0.1-3-1-12.8,1.7-10.8c0.2,5.1-1,6-0.9,10.8c1,0.4,2.4-0.5,2.6,2.7
	c-1,0.5-0.9,4.3-0.9,8.1c-0.1,4.3-2.2,2.1-1.7,8.1c0.2,2.6,0.7,2.5,1.7,2.7c1.8,0.3,0.7,11.4,3.4,8.1c-0.2-9.5,2.9-8.9,3.4-16.2
	c1.3-4.7,3.9-5.6,4.3-13.5c0.2-3.5-1.2-1.3-1.7-2.7c-0.3-0.7,0.3-4.6,0-5.4c-1.2-3.5-3-4.2-4.3-8.1c-0.5-1.5-0.4-6.5-0.9-8.1
	c-0.5-1.8-2.4,0.3-1.7-5.4c-0.2-3.9,0.6-5.7,0.9-8.1c0.3-2.7,0.3-7.5,0.9-10.8c0.4-2.1,2-3.5,2.6-5.4c1-3.4,0.4-11.6,2.6-8.1
	c2.1-1.5,3.9,4.4,4.3,5.4c0.3,0.7-0.2,4.4,0,5.4c0.5,2.6,1.3,2.9,1.7,5.4c0.2,1.4-0.1,3.9,0,5.4c0.4,5.5,2.5,5.4,1.7,13.5
	c-0.6,5.6-4.9,13.1-2.6,18.9c1-4.3,2.2-9.7,3.4-13.5c1.3-4.1,4-6.3,4.3-13.5c0-4.5-2.4-1.5-2.6-5.4c1.3-2.3,1.2-8.7,1.7-13.5
	c2.3-1.7,2.1-11.3,5.1-10.8c-0.7-9.3,1.6-11.4,0-16.2c-2.1-1.4-1.7,6.2-2.6,8.1c-0.6,1.3-1.2-3.3-1.7-2.7c-0.6,0.8-1.1,6.8-1.7,8.1
	c-1,2.2-2.3,0.9-3.4,2.7c1.1-16.8-1.9-3.7-3.4-10.8c2.5-13.6,6.3-23.2,10.2-32.4c2.9,4.9,5.2,0.9,6.8-5.4c-2.3,1.9-1.6-5.6-2.6-8.1
	c4.5-8.7,8.7,4.1,7.7,21.6c1.6,4.7,4.3,6.1,6,10.8c-0.1,3.2-1.5,6.1,0,8.1c1.2-5.2,2.3-10.9,2.6-18.9c-2.2-0.3-4.4-0.5-4.3-8.1
	c0-7.3,3.1-4.5,4.3-8.1c0.2-0.7-0.1-4.4,0-5.4c0.6-7.2,2.9-2.4,2.6-10.8c-1.5-9.7-5.4-11.7-5.1-27c4.6-0.3,6.9,6.9,6.8,21.6
	c3.1,0.9,2.6-9.8,3.4-16.2c-1.9,0.8-3.2-0.6-3.4-5.4c-1.6-6.6-3.2-13.3-2.6-27c3.8-2.4,3.8-16.9,9.4-13.5c0.3,3.7,1.2,5.2,0.9,10.8
	c-0.6,7.3,1.8,5.2,2.6,8.1c1.9-5.6-0.4-7.7,0-16.2c1.1,0.6,0.4-3.8,0.9-5.4c0.2-0.9,1.4,0.8,1.7,0c0.2-0.6-0.3-6.5-0.9-5.4
	c-0.2,2.1-0.7,3.1-1.7,2.7c0.1-12.7,0.2-15.4,0.9-21.6c2.7,1.3,3-4.9,6-2.7c-0.2-11.7,4.7-10,6-13.5c0.7-1.9,1.1-5.8,1.7-8.1
	c0.7-2.7,2.4-6.8,2.6-8.1c0.5-3.6-0.6-10.3,0.9-10.8c-0.1-8.6-1.9-11.9-1.7-21.6c2.7-1.3,3-10.3,6-10.8c-0.3-8.3,4.8-13.2,1.7-21.6
	c-1.2,8-5.4,6.2-8.5,8.1c0.8,12.5-1.1,16.3-1.7,24.3c0.1,4.3,2.2,2.1,1.7,8.1c-5.1-3.5-5.8,6.9-9.4,8.1c-1.4,9.1,3.6,11.5,0.9,16.2
	c-1-2.3-2.3-3.6-4.3-2.7c-0.8-4.8-2.4-6.9-1.7-16.2c-3.4,3.5-1.7-8.9-5.1-5.4c-1.7,5.1-0.4,12.8,0,18.9c1.6,7.6,3.7-5.3,4.3,2.7
	c-0.9,3.6-0.8,10-2.6,10.8c-1.2,3.4-0.4,13.2-2.6,13.5c-1.5-1.6-5,3.3-5.1-2.7c1.2-0.7,1-5.9,1.7-8.1c1.9,0.5,2.7-2.2,2.6-8.1
	c-2.8-0.2-3.3-7.7-6.8-5.4c-1.2,3.4-0.4,13.2-2.6,13.5c-2.9-4.3-3.6,11.5-5.1,2.7c1.3-3.9,3-6.8,3.4-13.5c-2-0.9-4-1.7-3.4-10.8
	c0.9,0,1-2.2,1.7-2.7c1.6,1.1,0.7,10.5,3.4,8.1c1.3-3.9,0.7-13.8,0.9-21.6c3.2-7.9,6.2-16.3,6.8-32.4c1.1-1.1,1.7-3.5,1.7-8.1
	c2.2-0.3,3.3-3.9,3.4-10.8c-2.7,0.9-7.8,12.2-9.4,0c2.4-10.3,6.6-15.1,6.8-32.4c3.9-4,6-15.7,8.5-24.3c2.7-9,6-17.6,7.7-29.7
	c-5.8-3.1-5.1,14.6-11.1,10.8c-1.3,3.2-1.3,10.2-2.6,13.5c-1.2,1.3-2.4,0.5-3.4,2.7c-0.3,0.6,0.2,4.6,0,5.4c-0.3,0.9-1.4-0.9-1.7,0
	c-1.2,3.4-2,8-3.4,8.1c-2-0.1-2.5,4.7-5.1,2.7c-0.8,5.7-2.6,8-2.6,16.2c1.3,0.5,3.1-1,3.4,2.7c0.7,10.3-1.8,10.5-3.4,13.5
	c1.2-17.1-4.2-5.6-5.1-10.8c0.9-7.6,0.9-11.2,0-18.9c-2.4-2.3-2,7.9-2.6,10.8c-0.7,3.4-2.6,6.1-2.6,10.8c-2.7-2.3-2.6,4.2-4.3,5.4
	c0.7,7.6-1.2,7-0.9,13.5c0.1,5.1,2.8,1.9,2.6,8.1c-1.1,3.7-2.9,4.5-4.3,8.1c-1.1,3.1-1.2,9.2-1.7,10.8c-0.3,0.9-1.4-0.9-1.7,0
	c-1.1,3.7-2.6,8.4-2.6,13.5c0.1,4.2,2.2,2.1,1.7,8.1c-1.8,8.8-4.6,14.3-9.4,13.5c-0.3-6.3,0.1-10.4,0.9-13.5c-1.3-0.3-3,0.4-2.6-5.4
	c-4.4,1.5-5.1,14.4-9.4,16.2c0.1,8.5-2.3,9-1.7,18.9c-3.6,10.3-8,17.8-10.2,32.4c-2.6-0.1-3.3,5.7-5.1,8.1c0,3.6,0,7.2,0,10.8
	c-2.2,6.9-6.2,15.8-7.7,21.6c-0.1,0.6,0.1,2.2,0,2.7c-0.2,0.9-1.4-0.9-1.7,0c-0.5,1.8,0.3,5.2-0.9,5.4c-1,0.2-0.4,1-0.9,2.7
	c-1.3,5.1-2.4,8.1-3.4,10.8c-0.3,0.7,0.3,4.6,0,5.4c-0.7,2.3-2.8,0.3-2.6,5.4c1.6,3.1,4.1,3.2,3.4,13.5c-1.2-0.1-1.9,1.3-2.6,2.7
	c-2.2-0.3-1.2-10.5-3.4-10.8c-1.9,8.3-4.2,15.5-6.8,21.6c0.3,6.3,1.3,10.1,0.9,18.9c-2.3-2-1.7,5.4-3.4,5.4
	c-3.1,19.8-9.2,30.3-11.1,54c-1.5,3.5-3.4,5.6-3.4,13.5c-0.3,6.5,1.6,5.9,0.9,13.5c-2,6.8-1.2,17.2-2.6,24.3
	c-0.7,3.9-3,6.9-4.3,10.8c-1.7,5.4-2.7,9.7-4.3,13.5c-1.1,2.7-3,5.6-4.3,8.1c-1.6,3.2-2.8,6.5-4.3,8.1c-2.3,0-4.5,0-6.8,0
	c-1.6,8.9-3.3,16.2-5.1,24.3c-1.8,8.3-4.4,15.4-5.1,27c-6.1,11.3-7.9,36.2-14.5,45.9c-2.2-5.7-3.2-14.9-6.8-16.2
	c-0.8-5.7-2.6-8-2.6-16.2c-1.9-2-4.4-2.4-6-5.4c0.3-6.3-0.1-10.4-0.9-13.5c-1.8-1.6-2.4-6.7-5.1-5.4c0.4-5.5-0.9-3.6-1.7-5.4
	c-4.2-9-7.5-17.1-10.2-27c-0.6-2-1.1-3.1-1.7-5.4c-0.5-2.2-0.7-4.9-1.7-5.4c-0.7,8-1.3-6.3-3.4-2.7c-1.7-5.3-4.2-18.6-6-18.9
	c-1-0.2-0.4-1.6-0.9-2.7c-1.1-2.4-1.9-6.4-3.4-5.4c0.4-7.7-2.4-9.5-3.4-13.5c-1.3-5-1.9-12-3.4-16.2c0-2.7,0.7-3.2,0.9-5.4
	c-1.4,0-2.8,0-4.3,0c-2.1-8.6-4.9-15-5.1-29.7c-6.6-17.6-12.2-38.6-19.6-54c-1-8-3.1-14.4-4.3-18.9c-0.2-0.9-1.4,0.7-1.7,0
	c-1.5-3.6-2.2-10.6-3.4-10.8c-2.2-0.4-4.3-10.9-6.8-8.1c-1.3-6.1-4-15.9-6-16.2c-0.9-0.1-0.5-2.2-0.9-2.7c-1.3-1.7-3.3-1.3-4.3-2.7
	c-0.3-0.5-0.5-4.8-0.9-5.4c-1.3-1.9-1.7,0.4-2.6-2.7c-0.6-2.1-2.7-1-3.4-2.7c0-5.4-2.3-3.4-1.7-10.8c-4.1,0.5-6.5-4.6-8.5-10.8
	c-1.7,0-3.4,0-5.1,0c-0.6-3.6-1.8-5-3.4-5.4c-0.2-7.6-2.8-7.4-3.4-13.5c-6.1,2.2-9.3-4.8-11.9-13.5c-2.8-1.6-4,1.8-6,2.7
	c-0.9-6.2-1.1-14.4-4.3-13.5c0.5,6.5,1.2,12.3,0.9,21.6c-4.2,2.2-0.3,19.1,0,24.3c3.2,3.3,6.2,7.5,6,21.6c-2.9,1.7-3.8-5.6-5.1-5.4
	c-0.4,0.1-0.4,3.8-1.7,2.7c0.2,0.2-0.8-2.5-0.9-2.7c-1.4-2.8-3.9-9.1-5.1-2.7c1.5,0.7,1.9,4.6,1.7,10.8c-3.2,3.9-7-4.3-11.1-5.4
	c-1.6,1.2-2.1,5.8-4.3,5.4c-3.1-6.1-5.1-3-10.2-5.4c-0.8,13.2,3.9,11.8,5.1,16.2c0.7,2.6,0.3,7.8,0.9,10.8c-1.4,0-2.8,0-4.3,0
	c0.7,13.3-1.1,12-3.4,16.2c-0.1,0.2,0.1,2.3,0,2.7c-0.3,1.2-2.8,2.6-3.4,2.7c-1.7,0.4-3.9-5.3-6-2.7c-1.3,5-4.4,4-4.3,13.5
	c3.2,1.6,6.4,3.2,6.8,13.5c-3.3,1.4-4.2-4.8-7.7-2.7c-0.6-5.3-2.3-7.2-4.3-8.1c-0.2,3-0.9,4.2-1.7,5.4c0.4,3.1,0.1,8.6,0.9,10.8
	c0.3,0.9,1.4-0.9,1.7,0c1.6,5.6,2.1,9.1,4.3,10.8c0.7,0.5,0.6,2.4,0.9,2.7c4,5,8,8.3,7.7,24.3c2.6-1.5,2.5,7.3,3.4,10.8
	c0.9,3.5,2.1,6,2.6,8.1c0.4,1.9,0.4,3.8,0.9,5.4c1.9,6.9,5,11.7,6.8,18.9c0.6,2.4,0.2,6,0.9,8.1c2.4,8.4,5.8,13.9,7.7,21.6
	c0.6,2.4,0.2,6,0.9,8.1c2.5,8.8,6.1,15.7,8.5,24.3c0.5,1.9,0.3,6.2,0.9,8.1c1.4,5.2,3.2,10,5.1,16.2c4.5,14.4,10.8,30.7,14.5,43.2
	c0.5,1.6,0.3,6.7,0.9,8.1c0.8,2.3,2.5,0.9,3.4,2.7c0.1,5.7,1.5,9.9,2.6,13.5c1,3.4,2.3,7.7,3.4,10.8c0.9,2.7,2.5,2.9,3.4,5.4
	c2.5,6.7,4.5,16.8,6.8,24.3c2.5,7.9,5.1,16.8,7.7,24.3c1,2.7,2.5,3,3.4,5.4c2.4,6.5,3.4,17.6,6.8,18.9c0-6.1-3.2-14.3-1.7-18.9
	c1.3-4.1,0.8-15.1,2.6-16.2c3.3,7.5,9,7.3,8.5,27c1.3,0.5,3.1-1,3.4,2.7c-1.1,6.7,2.5,11.2,0,13.5c-3.3-5.4-2.8-12.6-4.3-8.1
	c-1.5,4.8-2.5,8.6-5.1,8.1c-0.4,9.5,3.6,10.8,4.3,13.5c0.7,3.1,0.1,7.8,1.7,8.1c1,0.2,0.4,1.9,0.9,2.7c3,5.3,4.4,9.7,6.8,16.2
	c1.6,4.3,2.5,7.3,3.4,10.8c0.2,0.9,1.4-0.8,1.7,0c1.4,3.6,2.7,9.7,4.3,13.5c1.8,4.4,3.4,10.3,6,10.8c-0.2,7.3,2.4,10.6,3.4,10.8
	c1,0.2,0.4,1.6,0.9,2.7c4.7,10.4,9.2,23.1,12.8,32.4c1.7,4.3,3.3,11.1,4.3,13.5c0.8,1.9,1.9,0.5,2.6,2.7c1.2,3.9,2.1,8,1.7,13.5
	c-0.3,9-2.2,10.5-3.4,13.5c-0.3,0.7,0.2,4.4,0,5.4c-0.7,2.8-1.9,5.4-2.6,8.1c-0.6,2.8-0.9,3.3-1.7,5.4c-0.3,0.7,0.2,4.5,0,5.4
	c-1.1,4.4-3,6.4-4.3,10.8c-0.7,2.4-1.1,5.5-1.7,8.1c-2,8.5-4,14.5-6,21.6c-1.9,6.7-4.4,12.2-4.3,21.6c-1.5,3.1-2.5,5.7-3.4,8.1
	c-0.3,0.7,0.2,4.5,0,5.4c-1.1,4.6-3.1,9-4.3,13.5c-0.3,1.1,0.2,4.1,0,5.4c-0.1,0.7-1.5,1.9-1.7,2.7c-1.3,5-2.4,8.1-3.4,10.8
	c-0.3,0.7,0.2,4.5,0,5.4c-1,3.9-2.5,4.3-2.6,8.1c-0.1,5.9-1.5,8.1-2.6,10.8c-0.3,0.7,0.2,4.4,0,5.4c-0.9,3.9-2.9,5.9-3.4,8.1
	c-0.6,2.5-0.3,6-0.9,8.1c-1.1,4.1-3.3,7-3.4,10.8c-0.1,5.3-2.5,6.3-2.6,10.8c-0.1,4.7-3,11.5-3.4,13.5c-1.6,8.1-5.8,16.4-6,24.3
	c0,2.8-1.2,6-1.7,8.1c-1.1,4.7-4.2,12.8-4.3,16.2c-0.1,3.1-0.6,1.3-0.9,2.7c-1.3,7.2-2.2,11.3-3.4,16.2c-1.2,4.6-2.7,8.9-3.4,10.8
	c-0.3,0.7,0.2,4.4,0,5.4c-0.5,2-1.6,1.9-1.7,5.4c-0.1,3.1-0.6,1.3-0.9,2.7c-0.4,2.1-0.3,6-0.9,8.1c-1.5,6-6.7,15.6-6.8,21.6
	c-0.1,5-1.9,6.3-2.6,8.1c-0.7,1.7-0.3,8.5-0.9,10.8c-1.5-0.3-1.9,3-2.6,5.4c-0.7,2.5-0.9,3.3-1.7,5.4c-0.3,0.7,0.2,4.5,0,5.4
	c-0.6,2.5-1.9,5.6-2.6,8.1c-1.6,6-3.3,10.9-3.4,16.2c-0.1,3.1-0.6,1.3-0.9,2.7c-1,5.5-2,12-2.6,13.5c-0.3,0.6,0.1,4.4,0,5.4
	c-0.1,0.3-0.8-0.3-0.9,0c-0.3,0.7,0.2,4.4,0,5.4c-0.1,0.4-0.7-0.3-0.9,0c-0.3,0.7,0.2,4.4,0,5.4c-0.5,2.1-1.2,2.6-1.7,5.4
	c-0.6,3.6-1,6.4-1.7,10.8c-0.7,4.3-1.1,9.3-1.7,13.5c-0.9,5.8-1.7,8.7-2.6,10.8c-0.3,0.7,0.2,4.4,0,5.4c-0.3,1.5-1.4,3.6-1.7,5.4
	c-0.1,0.5,0,2.1,0,2.7c-0.1,3.1-0.5,1.2-0.9,2.7c-1.3,6.5-2.4,16.4-3.4,18.9c-0.2,0.6,0.1,4.4,0,5.4c0,0.3-0.8-0.3-0.9,0
	c-0.3,0.7,0.2,4.4,0,5.4c-0.1,0.4-0.7-0.3-0.9,0c-0.3,0.7,0.2,4.4,0,5.4c-0.3,1.5-1.4,3.7-1.7,5.4c-1.4,7.4-4.2,18.2-4.3,24.3
	c-0.1,3.1-0.5,1.2-0.9,2.7c-1.2,5.9-2.2,12.7-2.6,18.9c-1.9,2.5-3.3,9.9-4.3,13.5c-0.2,0.9-1.5-0.9-1.7,0c-0.3,1,0.2,4.1,0,5.4
	c-0.1,1-1.5,1.5-1.7,2.7c-0.6,3.7,0.3,9.1-0.9,10.8c2.9-2.1,3.7,2.5,4.3,8.1c-1.6,5.8-2.6,13.3-4.3,18.9c1.1-0.1,2.3,0.2,3.4,0
	c0.8-0.1,0.6-2.5,0.9-2.7c0.8-0.7,1.8,0.9,2.6,0c0.5-0.6,0.9-4.4,1.7-5.4c0.5-0.6,1.2,0.4,1.7,0c1.5-1.2,2.3-3.9,3.4-5.4
	c1.3-1.7,3-10.5,4.3-2.7c-0.8,10-3.7,13.4-5.1,21.6c3,0.3,7.4-3.7,6,10.8c3.9,2.4,4.8-4.5,7.7-5.4c0.7,3.1,1.1,7.2,0.9,13.5
	c-0.1,5.1-2.8,1.9-2.6,8.1c1.5,6.4,5.9-10.2,8.5,0c2.6,2.7,3.3-14.4,5.1-5.4c0.4,6.2-1.6,7.8-2.6,10.8c-1,3-1.4,9.4-3.4,8.1
	c-0.3-6.3,0.1-10.4,0.9-13.5c-1.6-0.6-1.8,3.4-2.6,5.4c-0.8,2.1-1.7,3.3-2.6,5.4c-2.6-0.1-4.3,2.5-5.1,8.1c5.4,3.5,9.1-0.6,15.3,2.7
	c3-7.2,4.9-15.7,8.5-21.6c2.8-4.5,5.3-6.8,6.8-10.8c3.6-9.4,6.5-21.2,11.1-24.3c2.4-14.8,5.7-26.8,7.7-43.2c1.3-1.4,2.1-4,3.4-5.4
	c-0.1-15.6,3.7-18.8,4.3-32.4c1.8-1.6,2.8-5.7,4.3-8.1c-0.7-7.6,1.2-7,0.9-13.5c2.9-2.2,3.7-8.9,5.1-13.5c1.5-4.9,3.3-7.6,3.4-13.5
	c0.1-5.4,2.3-7.9,3.4-10.8c0.7-5.2,0.1-12.8,0.9-18.9c0.2-1.6,2.1-5.8,2.6-8.1c1.4-6.3,1.3-9,2.6-10.8c0.9-1.3,1.7,5,2.6,0
	c0.3-6.3,1.3-10.1,0.9-18.9c1.9-6.5,3.4-14.4,6-18.9c-0.2-7.9,1.9-8.3,1.7-16.2c1.5-3.1,2.5-5.7,3.4-8.1c0.3-0.7-0.2-4.5,0-5.4
	c1.8-6.4,5-10.9,5.1-18.9c0-3,1.2-5.7,1.7-8.1c0.5-2.7,1.2-3.2,1.7-5.4c0.7-3,0.9-7.4,1.7-10.8c0.8-3.4,3.2-4.4,2.6-10.8
	c-2.5,7.4-3.8,18.6-7.7,21.6c-0.2-6.1,0.2-10.1,1.7-10.8c0.8-2.8,1.7-5.5,2.6-8.1c-0.3-13.4-2.3-21.4-1.7-37.8
	c2-0.8,1.6-9.4,4.3-8.1c-0.7,3.1-1.1,7.2-0.9,13.5c3.2-0.1,5.1-14.2,8.5-5.4c0-6.4,1.5-7.9,0.9-16.2c-1.4-6.4-7.5,2.2-7.7-8.1
	c1.5-3.5,1.1-12.9,3.4-13.5c-0.7-10.3,1.8-10.4,3.4-13.5c2.3,1.7,2.1,11.3,5.1,10.8c3.5,2.2,4.3-2.2,5.1-5.4c0.2-0.9,1.4,0.8,1.7,0
	c0.7-2.1,1-7.8,1.7-10.8c0.7-3.2,1.9-5.4,2.6-8.1c1.4-5.9,2-16.4,5.1-16.2c0.1,4.2-0.1,9.4,1.7,8.1c1.8-5.2,3.8-9.6,4.3-18.9
	c0.7-0.6,1.7-2.9,1.7-5.4c0.1-7.9,4.1-2.8,2.6-13.5c-0.1-3.1-1.3-2.9-2.6-2.7c0.4-8.5-2.3-7.1-2.6-13.5c-4,0.9-3.7,15.3-7.7,16.2
	c-0.3-8.3,0.2-14.2,0.9-16.2c0.7-2.5,1.1-5,1.7-8.1c1.1-5.3,2.3-11.2,4.3-10.8c-0.3,6.2,2.5,3,2.6,8.1c1.6,4.8-1,7.9,0.9,13.5
	c2.1,2.1,4.5-5.9,6.8-8.1c0.6-0.6,2,1.1,2.6,0c1.9-4.1,2.9-11.6,3.4-18.9c-1-0.4-2.4,0.5-2.6-2.7c1.1-4.6,1.8-10.6,4.3-10.8
	c1.2,6.2-2.2,10.1,0,10.8c0.7-3.1,1.1-7.2,0.9-13.5c4.2,2.4,3.2-11.3,6.8-10.8c2.9,8.2,6.1,15.6,9.4,24.3c1.4,3.9,2.8,9.7,4.3,13.5
	c0.8,2.2,1.7,3.4,2.6,5.4c1.1,2.6,1.6,5.6,2.6,8.1c1.6,4.2,3.5,6.8,5.1,10.8c1.7,4.3,4.6,16,6,16.2c1,0.2,0.4,1.6,0.9,2.7
	c1.9,4.6,3.7,7.4,5.1,10.8c0.1,0.2,1.6,11.1,2.6,2.7c-3.7-3.6-0.2-12.1,0-18.9c-2.1,0.5-2.7-4.1-3.4-8.1c-0.1-1.7,0.1-3.7,0-5.4
	c-0.2-2-0.8-2.1-0.9-2.7c-0.4-3.9-0.2-7.5-0.9-10.8c-0.2-1.1-1.4-1.6-1.7-2.7c-0.6-2,0.1-7.4-1.7-5.4c-1-4-0.7-12.1-3.4-10.8
	c-2.1-0.5-2.7,4.1-3.4,8.1c1-0.3,1.3,3.9,1.7,0c1.2,0.2,1-7.8,1.7-2.7c-0.3,8-0.5,16.4-2.6,18.9c-0.7-5-2.2-7.7-2.6-10.8
	c-0.3-2,0-5.4-0.9-5.4c-0.4,4.7-2.7-2.5-3.4-5.4c-1-4-1.5-9.4-1.7-13.5c-1.5,0.1-2.2-2.1-2.6-5.4c1.1-8.4-0.2-7.7,0-18.9
	c-0.7-1.7-2.1-3.1-2.6-5.4c-0.6-3-0.1-8.2-0.9-10.8c-1.2-4.2-3.1,2.7-2.6-5.4c0.8-4.7,2.7-6,5.1-5.4c1.2,2.7,1.7,7.2,2.6,10.8
	c2.8-1.6,4,1.8,6,2.7c-0.6,10.1,3.3,5.9,3.4,13.5c2.3,1.8,3.2,7.7,5.1,10.8c-0.2,5.1,1,6,0.9,10.8c2.6,0.4,3.3,9.4,5.1,13.5
	c1,2.2,2.4,0.9,3.4,2.7c0.2,0.4,0.7,4.7,0.9,5.4c0.2,0.9,1.4-0.7,1.7,0c1.3,2.9,1.3,7.9,2.6,8.1c1.2,0.2,1,6.3,1.7,8.1
	c2.7-1.3,4.3,8.8,5.1,10.8c1,2.4,2.5,0.2,2.6,5.4c0.1,3.1,0.3,1.3,0.9,2.7c1.7,4.6,3.5,7.7,4.3,13.5c1.4,0,2.8,0,4.3,0
	c-0.4,8.6,0.7,8.9,1.7,10.8c2.4,4.6,3.7,9.6,5.1,16.2c2-0.1,2.5,4.7,5.1,2.7c2.9,17,7.5,28.4,14.5,32.4c-0.3,6.5,1.6,5.9,0.9,13.5
	c4.1,3.2,5.7,14.3,10.2,16.2c1,6.8,3.4,9,3.4,18.9c1.3,4,3.6,4.8,4.3,10.8c2.3,14.2,5.8,24.8,7.7,40.5c4.8-3.5,4,10.7,7.7,10.8
	c1.2-1.5,2.1-4.2,2.6-8.1c3-0.7-2.1-10.1,0.9-10.8c0,4,0.7,0,0.9,0c1.1,0,1.1,1.8,1.7,2.7c0.9,1.4,3,1.6,2.6,8.1
	c4.5,1.9,7.4,8.8,6.8,27c-3,3.9-5.3,10.4-8.5,13.5c-2.9-1.5-3.8-9.6-7.7-8.1c-0.2,7.1,0.3,11.6,2.6,10.8c1.8,1.6,2.4,6.7,5.1,5.4
	c0.5,5.6,2.1,7.7,1.7,16.2c4.6,0.1,7.3-5.8,11.1-8.1c1.1-11,2.2-21.9,6-24.3c-0.3,9.1,3.7,4.5,5.1,8.1c1,6.9,2.1,13.2,3.4,18.9
	c3.2,2.3,4.1,12.2,8.5,10.8c1.9,14.7,8.8,13.4,11.1,27c2.6,0.3,2.4-8.5,6-5.4c2.4,2.3,3.5,8.7,6.8,8.1c1.1-11.4-2.2-22.6,0.9-24.3
	c1.9,2.5,2.4,5.1,4.3,5.4c0.8,0.1,0.6,2.4,0.9,2.7c1.9,1.9,5.4-0.3,6.8,5.4c1.5-0.8,3-4.1,4.3-5.4c1-1.1,2.4,1.2,3.4,0
	c0.5-0.7,0.7-5.8,1.7-5.4c0,0,0.8,5.2,0.9,5.4c1.7,5.4,3.5,5.1,6,5.4c-1.3-14.7-4.4-23.7-6-37.8c2.4-7.3,0.7-6.7,0-16.2
	c-1.9-3.9-4.1-6.8-7.7-5.4c1.1-12.6-2.8-9-1.7-21.6c5.9-3.4,6,11.7,8.5,18.9c3.2-2.9,2.4,6.7,5.1,5.4c2.2,1.1,2.6,8.1,5.1,8.1
	c1.8-0.8-1.3-7.3,1.7-8.1c0.9,0,1-2.2,1.7-2.7c3.3-1.3,5.4,0.8,6.8,5.4c-0.3-14.2-6.3-10.7-5.1-29.7c3.8-5.7,5.7,8.3,9.4,10.8
	C2059.1,1265.7,2052.1,1270.8,2053.1,1250.7z M1938.9,513.8c2.2-0.8,2.8,3.7,2.6,10.8c-0.9,0-1.7,0-2.6,0
	C1938.9,521,1938.9,517.4,1938.9,513.8z M1963.6,270.9c-0.2-5.9,0.7-8.6,2.6-8.1c1.3,3.9,1.7,10.9,5.1,8.1c0.2,9.5-2.9,8.9-3.4,16.2
	C1964.6,286.2,1969.5,267.6,1963.6,270.9z M1968.7,378.8c0.4-7.8,1.8-12.3,4.3-13.5c0.7,2.4,0.9,6.1,0.9,10.8
	C1971.7,378.8,1972,377,1968.7,378.8z M1975.5,297.9c-0.8,5.7,1.3,3.6,1.7,5.4c0.9,3.8-0.2,11.9,2.6,10.8c0,2.7,0,5.4,0,8.1
	c-3.2,2-2.9-7.1-4.3-10.8c-3.3,6.4-8-2.5-6.8-18.9C1970.7,297.5,1972.3,303.6,1975.5,297.9z M1978.9,176.4c1,0.4,1.5-0.6,1.7-2.7
	c1.9,0.4,1.8,6.8,1.7,13.5c-2.4,2.3-5,12.5-7.7,5.4C1975.3,184.7,1979.3,187.4,1978.9,176.4z M1967,184.5c1.9-7.4,3.6-15.6,6-21.6
	c1,0.4,0.7,4.9,0.9,8.1c-1,1.2-1.8,3.5-1.7,8.1c-4.2,2.9-5.3,15.7-9.4,18.9C1962.6,188.4,1964,183.9,1967,184.5z M1956.8,243.9
	c1.4,0,2.8,0,4.3,0c0,3.6,0,7.2,0,10.8c-1.5-0.3-1.8,3.3-3.4,2.7C1958,250.9,1956.1,251.5,1956.8,243.9z M1948.3,319.5
	c-0.6,5.3-2.3,7.2-4.3,8.1C1943.9,320,1946.1,319.8,1948.3,319.5z M1941.5,403.1c-0.1-10.9,2.3-13.7,3.4-21.6
	c0.4-2.4-0.2-5.4,0.9-5.4c0.1-3.2,1.6-2.3,2.6-2.7c2.3,24.8-5.3,40.4-10.2,51.3c-2.1,5.2-3.4,12.7-5.1,18.9
	c-2.6-6.7,0.9-16.8,2.6-18.9c0.6,0,1.1,0,1.7,0C1936.8,411.7,1938.7,406.1,1941.5,403.1z M1922.7,395c0.2-1.4,1.6-4.4,1.7-5.4
	c0.3-3.3-0.2-7.4,0-10.8c2.2-1.8,3.6-4.4,5.1-10.8c0.5-2.1,1.1-6.6,1.7-8.1c1.5-3.4,5.6-0.1,5.1-10.8c1,1.2,1.7,3.5,1.7,8.1
	c1.2,7.9-4.1,10.6-4.3,18.9c-0.1,4.3-2.4,5.6-4.3,10.8c-1.9,5.5-2.1,12.7-6,13.5c-0.4,4-1.3,6.8-1.7,10.8
	C1920.3,408.9,1921.9,401.5,1922.7,395z M1920.2,397.7c-0.4,7.8-1.8,12.3-4.3,13.5c-1.9-7,0.8-15.3,3.4-16.2
	C1919.1,397.3,1919.6,397.6,1920.2,397.7z M1910.8,338.4c1.1-1.8,1.6-5.8,1.7-10.8c2.2-1.1,2.6-8.1,5.1-8.1c0.6,10-3,6.7-4.3,10.8
	c1.1,8.4-1.3,7-2.6,10.8c-0.6,1.8-0.3,6.3-0.9,8.1c-0.7,2.3-2.8,0.2-2.6,5.4C1905.6,350.4,1908.3,337.8,1910.8,338.4z M1897.1,484.1
	c1.5,2,0.1,4.9,0,8.1C1895.6,490.2,1897,487.3,1897.1,484.1z M1896.3,527.3c-0.8,7.3-0.4,18.6-4.3,16.2
	C1891.3,531.4,1893.6,528.5,1896.3,527.3z M1888.6,551.6c2.1,1.1,1.9-4.9,4.3-2.7c1.1,8.2,0.6,10.5-0.9,16.2
	c0.1,6.9,1.2,10.5,3.4,10.8c0.1,4.8-1,5.7-0.9,10.8c-0.7,1.5-2.5,3.4-2.6,8.1c-0.1,4.2-2.1,6-3.4,10.8c-1.6,6-2.4,18.3-6,18.9
	c-0.4-8.5,2.6-6.1,1.7-16.2c2.8-0.9,3-10.2,5.1-13.5c-0.3-6.3-1.3-10.1-0.9-18.9c-2.6-2-1.6,7.4-4.3,5.4
	C1885.2,569.5,1886.9,560.6,1888.6,551.6z M1885.2,430.1c-0.3,7-2.5,8.1-2.6,16.2C1881.1,443.7,1883.1,429.9,1885.2,430.1z
	 M1880.1,557c-0.2,10.3-1.2,17.8-4.3,18.9C1876,565.6,1877.1,558.1,1880.1,557z M1710.5,697.4c-1,3.4-1.7,10.5-4.3,8.1
	c0.4-8.5-1.9-10.6,0-16.2c2.4,2.8,3.5,2.8,6,0C1712.6,694.8,1711.2,695.1,1710.5,697.4z M1662.8,1542.2c1.6-8.4,2.6-18.8,6.8-18.9
	C1669.8,1537.3,1666.3,1539.6,1662.8,1542.2z M1743.8,1302c-0.5-6,1.6-3.9,1.7-8.1c1,0.4,0.7,4.9,0.9,8.1
	C1745.5,1302,1744.6,1302,1743.8,1302z M1743.8,1277.7c0.1-11.3,4.7-8.4,6-2.7C1750.1,1281.7,1744.4,1283,1743.8,1277.7z
	 M1794.9,1102.2c1,0.4,0.7,4.9,0.9,8.1c-0.9,0-1.7,0-2.6,0C1793.5,1106.8,1794.7,1106.1,1794.9,1102.2z M1762.5,829.6
	c0.3-5.5-1-5.8-1.7-8.1c-0.6-1.8-0.9-4.5-1.7-5.4c-3.3-2.3-3.7,4.5-5.1,8.1c-1.7,3-1.2-4.7-1.7-5.4c-1.5-2.3-3.9,2.4-5.1-2.7
	c-0.7-7.2,1.6-4.8,1.7-10.8c0-2.8,2.3-2.7,1.7-8.1c5.7-4.3,7,10.6,10.2,18.9c0.6,1.6,1.9,1.5,2.6,2.7c0.5,0.8-0.1,2.5,0.9,2.7
	c1.2,0.2,1.7,6.4,3.4,8.1C1767.9,841,1764.5,827.8,1762.5,829.6z M1767.6,724.4c2.7-1.3,2.2,7.3,4.3,8.1
	C1771.5,741.9,1766.8,735,1767.6,724.4z M1770.2,843.1c0.2-2.7,2.7-1.1,3.4,0c0.2,0.4,1.8,5.7,2.6,8.1c0.7,2.2,1.8,3.2,1.7,8.1
	C1773.7,858.9,1772.3,850.1,1770.2,843.1z M1792.3,794.5c-3.6,2.1-4.7-6.1-6.8-10.8c-0.8-1.8-2.1,0.1-1.7-5.4
	c-1,0.4-1.5-0.6-1.7-2.7c-1.4,0.2-3.2-1.3-3.4,2.7c-1.2-2.4-2.7-4-2.6-10.8c-0.8-3.7-2.3-5.4-3.4-8.1c0.9-3.6,0.8-10,1.7-13.5
	c3.8-4.1,5.2,6.3,7.7,10.8c0.5,1,2,1.2,2.6,2.7c1.7,4,3.8,15.2,6,21.6c0.3,0.8,1.5-0.9,1.7,0c0.4,1.7-0.3,6,0.9,5.4
	C1792.7,788.6,1792.3,790.8,1792.3,794.5z M1812.8,1018.6c-0.2,1.6-0.4,6.2-0.9,8.1c-0.2,0.9-1.5-0.8-1.7,0
	c-0.7,2.2,0.6,10.8-1.7,8.1c-1.1-4.1-1.2-1.4-1.7-10.8c-0.3-5.2,0.2-10.9,0-16.2c1.1-4.8,4.9-8.4,6.8-2.7c0,1.8,0,3.6,0,5.4
	C1814.3,1015.2,1813,1017,1812.8,1018.6z M1854.5,1088.8c-2,4.4-5.2-5.6-5.1-16.2C1853.1,1071.6,1853.9,1080,1854.5,1088.8z
	 M1934.6,970c1,4.1,2.5,6.6,2.6,13.5c-3-1.3-4.7-6.8-6.8-10.8C1930.7,969.6,1934.1,963.4,1934.6,970z M1925.3,899.8
	c0.4,8.4-1.8,8.6-4.3,8.1C1920.3,897.7,1923.8,895.2,1925.3,899.8z M1909.1,867.4c4.5-1.9,7,5.9,9.4,13.5c1.3,4.2,3.6,6.8,2.6,13.5
	c-2.1-2.3-4.6-3.5-7.7-2.7c-0.7-3.1-1.1-7.2-0.9-13.5c-2.7-1.6-2.6,5.1-4.3,0C1908.9,875.8,1909.1,872.1,1909.1,867.4z
	 M1888.6,853.9c0.2,4.4-0.8,4.6-0.9,8.1c-2-1.7-4-3.6-4.3-10.8C1884.5,854.3,1886.5,854.3,1888.6,853.9z M1875.8,797.2
	c2.1-5.2,7.4-3.3,8.5,2.7c0,2.7,0,5.4,0,8.1c-1.6,2.2-3.1,4.5-5.1,5.4C1879.9,802.3,1875.2,808.4,1875.8,797.2z M1859.7,662.3
	c1.3-1.4,2.1-4,3.4-5.4c2.4-0.5,1.1-12.8,4.3-10.8c0.3,3-0.5,7.9,0,10.8c0.1,0.9,1.6,2.1,1.7,2.7c0.2,2.3-0.5,12.1,0,13.5
	c0,0.1,0.9-0.1,0.9,0c0,1.8-0.5,9.8-0.9,10.8c-0.1,0.3-0.8-0.4-0.9,0c-1.5,8.2-4,21.4-7.7,24.3c-0.7-2.4-0.9-6.1-0.9-10.8
	c-2.3,0-4.9,1-6-2.7C1854.1,678.7,1859.3,678.2,1859.7,662.3z M1840.1,956.5c3.5-3.1,3.3,5.7,6,5.4
	C1845.6,974.2,1839.8,963.5,1840.1,956.5z M1887.8,1051c-1.9-0.4-1.8-6.8-1.7-13.5C1889,1035.6,1889.1,1046.9,1887.8,1051z
	 M1942.3,1172.4c-2.5-1-5.2-1.6-6-8.1c-3.1,4.6-3.1,18.9-7.7,18.9c-0.9-0.7-0.3-6.3-0.9-8.1c-0.9-2.9,0.2-2.2,0-8.1
	c-0.3-6.9-1.4-14.6-0.9-24.3c-2.1-6.1-4.8-9.9-6-18.9c-3-1.4-4.5-7.2-7.7-8.1c-0.3-6.4-3-5-2.6-13.5c-2.8,0.8-3.9-11.1-6-16.2
	c-0.5-1.2-2.1-1.2-2.6-2.7c-0.7-2.1-0.2-5.5-0.9-8.1c-0.8-3.2-3.9-5.4-4.3-13.5c-1.8-3.2-4.6-3.3-5.1-10.8
	c-2.1-6.3,1.3-7.2,1.7-13.5c-0.7-4-2.1-5.8-4.3-5.4c-0.7-5.8-2.1-9.6-5.1-8.1c-1,0.4-0.7,4.9-0.9,8.1c-1.5-5-2.2,2.2-5.1,0
	c-1.2-13.5,2.9-10.5,3.4-18.9c-1.2-5.1-2.3,2.9-4.3,2.7c-2.6-0.2-4.9-3.6-6-10.8c-0.5-6,1.6-3.8,1.7-8.1c-1.6-9.4-7.7-4.3-11.1-8.1
	c-2.4-10.4-4.2-22.6-8.5-27c0.6-8.3-2.3-5.2-1.7-13.5c-5.6-0.2-7.8-11.2-11.1-18.9c0.1-11.1,0.2-22.1-0.9-29.7
	c3.3,0.2,5.8,3.3,5.1,16.2c3.9-2.5,4.1,6.8,7.7,5.4c1,6.6,4,7.2,4.3,16.2c1.8-1.5,1.8,3.8,2.6,5.4c0.3,0.7,1.5-0.9,1.7,0
	c0.2,0.9,0.6,4.8,0.9,5.4c0.3,0.7,1.5-0.9,1.7,0c0.2,0.9,0.6,4.8,0.9,5.4c0.6,1.4,1.8,1,2.6,2.7c1.4,3.3,2.6,9.7,4.3,13.5
	c1.5,3.4,3.3,6.6,5.1,8.1c0,3.6,0,7.2,0,10.8c1.3,4,3.7,4.3,6,5.4c0.2,3.6,1.6,4.2,1.7,8.1c0,2.8,2.4,5.7,3.4,8.1
	c2,4.5,2.9,10.6,6.8,10.8c-0.4,9.3,0.3,15.1,0.9,21.6c-0.8,2.1-1.9,2.9-3.4,2.7c1.2,12,2.3-4.2,6,0c-0.1,3.1,0.2,4.8,0.9,5.4
	c0-2.6,1-2.1,1.7-2.7c-0.7,2.4-0.9,6.1-0.9,10.8c1.2-0.6,0.3-8.1,1.7-8.1c3.3-3.5,3.2,7.5,4.3,10.8c0.8,2.2,2.7,0.2,2.6,5.4
	c2.7,0.4,3.7,6.1,6.8,5.4c0.9,3.4,1.7,10.5,3.4,10.8c-0.1,0,2.4,2.3,2.6,2.7c0.5,1.4,0.3,6.5,0.9,8.1c0.7,2.1,1.8,0.8,2.6,2.7
	c0.9,2.1,2.7,9.5,4.3,13.5c2.2,5.5,4.5,8.7,6,16.2c3.5-3.1,3.3,5.7,6,5.4c-0.5,13.1,3.4,12.6,4.3,21.6
	C1944.6,1161.6,1943.5,1167.2,1942.3,1172.4z M1950,1226.4c-3.5-0.6-5.5-6-6-16.2C1947.4,1211,1950.1,1214.2,1950,1226.4
	c2.4-6.7,4.3,4.2,7.7,2.7C1958.1,1244.5,1948.6,1243.7,1950,1226.4z M1966.2,1229.1c-1-1.2-1.8-3.4-1.7-8.1
	c-3.5,2.1-4.4-4.1-7.7-2.7c-1.4-11.9-4.5-18-7.7-24.3c-0.7-10.4,2.1-9.6,2.6-16.2c-3.8-3.2-1.9,12-6,8.1c-3-6.4,3.1-12.9,0-18.9
	c1.7-6.8,6.4-0.8,6.8,5.4c1-2.3,2.3-3.6,4.3-2.7c0,14.3,4.2,15.4,6.8,21.6c0.7,7.6-1.2,7-0.9,13.5c0,8,4,3.5,5.1,8.1
	C1967.6,1219.2,1966.8,1224.1,1966.2,1229.1z M1967.9,1056.4c-0.1-6.7,1.3-8.4,1.7-13.5c1.1,0.9,1.3,4.7,2.6,5.4
	C1971.3,1053,1970.5,1057.6,1967.9,1056.4z M1985.8,1083.4c1.6,1.1,3.7,1,3.4,8.1c2.3,0.8,4,3.5,5.1,8.1c-0.7,2.4-0.9,6.1-0.9,10.8
	c-4.1,1.3-7.1-1.1-7.7-10.8c-1.9,0.8-3.2-0.7-3.4-5.4C1982.2,1086.5,1984.8,1087.4,1985.8,1083.4z M1975.5,1069.9
	c0.3,0.8,0,3.7,0.9,2.7C1973.3,1085.7,1972,1059.5,1975.5,1069.9z M2008.8,1326.3c-0.2,3.2-0.7,9.9,0.9,13.5
	c-1.4,8.2-5.9,6.6-8.5,10.8c1.2-17.3-2.4-19.3-2.6-32.4c3.2-9.3,5.1,15.5,8.5,5.4c2.5-1.5-1.3-4.2-0.9-8.1c-0.7,0.5-0.8-1.1-0.9-2.7
	c-1.4,0-2.8,0-4.3,0c-0.3-6.6-2.3-6.2-3.4-8.1c-0.4-0.7-1.4-5.1-1.7-5.4c-0.7-0.7-1.9,1.1-2.6,0c-0.9-1.6-0.8-6.7-2.6-8.1
	c-2.4-1.9-4-9.4-6-16.2c-0.6-2.2-1-5.9-1.7-8.1c-0.7-2.2-2.3-1.7-2.6-5.4c-0.9,1.8-0.9,6.2-2.6,5.4c-3,0.5-2.8-9.1-5.1-10.8
	c1.1-13.2,0.2-17.9,0.9-29.7c6.5,1.1,8.4,16.5,14.5,18.9c3.2,10.7,5.4,24.2,11.1,27c1.4,5,2.6,11.9,4.3,16.2c0.3,0.8,1.5-0.9,1.7,0
	c0.7,2.8,1.6,4.1,2.6,8.1c0.6,2.3,2,5.4,3.4,8.1C2012.6,1314.6,2009.2,1319.5,2008.8,1326.3z M2019,1275c0.2-6.3,2.3-6.2,3.4-2.7
	C2021.7,1280.2,2021.1,1275.3,2019,1275z M2030.1,1261.5c-2.4,0.5-4.7,0.3-4.3-8.1c1.1-3.5,3.1-3.5,4.3,0
	C2030.1,1256.1,2030.1,1258.8,2030.1,1261.5z M2042,1250.7c-0.7,7.6,1.2,7,0.9,13.5c-2.8-2-5.4-4.5-5.1-16.2
	C2039.8,1246.9,2039.6,1252.9,2042,1250.7z M2040.3,1299.3c-3,0.5-2.7-9.5-4.3-13.5c-2-2.6-4.2-4.7-3.4-16.2c3.2-1.9,4.4,4.6,6,8.1
	c1.5,3.5,2.7,7.9,4.3,10.8C2043.6,1297.2,2041.5,1296.9,2040.3,1299.3z M2048,1183.2c1.3-3.3,6-1.1,5.1,10.8
	c-2.4-2.2-2.2,3.8-4.3,2.7C2049.5,1189.1,2047.6,1189.7,2048,1183.2z M2048,1242.6c2.7-2.4,1.8,7,3.4,8.1
	C2050.1,1258.8,2047.5,1248.7,2048,1242.6z"/>
<g class="st4">
	<path class="st5" d="M738.5,219.5c-5.6,0.7-12.2,1.4-15.5,3.2c-0.4,0.2-1-0.2-1.4-0.3c-1.3-0.1-1.7,2.6-2,2.7
		c-5.2,1.3-6.5-2.1-9.2,1.3c-3.2,4.1-6.9,2.3-8.9,7.6c11.3-3.5,23.3-4.4,34.4-8.9C737.2,224.8,738.1,223,738.5,219.5z"/>
	<path class="st5" d="M685.8,246.6c-5.5,1.7-10.6,4.5-14.3,12.8C676.6,256.5,681.8,253.7,685.8,246.6z"/>
	<path class="st5" d="M249.3,1131.2c-3.8,8.3,4.7,10,4.3,0.8C252.1,1131.8,250.7,1131.5,249.3,1131.2z"/>
	<path class="st5" d="M325.2,177c-3.5-5.4-8.2,18.7-2.9,15C323.3,186.9,324.3,181.9,325.2,177z"/>
	<path class="st5" d="M711.5,1481.3c3-9.4,7.7-12.1,11.2-19.6c-3.1-1.6-5.6-4.3-5.4-10.4c2.9-11.3,11.3-23.8,13.2-37.8
		c0.4-3.1-0.5-3.7-0.3-6.3c0.2-2.4,1.9-6.8,1.7-9c-0.3-4.7-3.9-4.6-4-10.1c1.4-4.2,2.7-4.7,1.7-9c-4.5-3.1-10.4-14.2-8.8-23.5
		c0.7-4,3.1-2.2,4-5.4c-7.5-2.4-5.9-17.2-12.3-21c0.5-5.8-1.6-8.1,0-15.5c-3.8-2.3-4.3-7.2-5.4-10.4c-0.3-0.9,1.5-5.1,1.2-6
		c-0.2-0.6-3.8-3.8-3.7-3.8c-2.8-0.9-2.8-12.5-6.8-10.6c-0.6-13.2-3.8-22.9-11.1-27c0.6-3.8-1-4.5-1.7-6.5c-0.6-1.8-1-4.8-1.7-6.5
		c-0.9-2.2-2.7-1.5-3.7-3.8c-0.8-2-0.2-7.7-1.1-9.5c-1.2-2.5-5.2-1.8-6.6-4.4c-0.5-0.9-1.2-5.1-1.7-6.5c-1.7-4.7-3.5-7.9-5.4-10.4
		c-1.3-1.7-1.6-3.3-3.7-3.8c0.4-7.1-3.2-8.9-2.8-16.1c-3.7,0.6-2.1-6.1-6.6-4.4c1.4-11.2-3.4-15.1-5.1-19.6
		c-0.8-2.2-0.2-7.4-1.1-9.5c-1.2-2.8-3.7-1.8-5.1-4.1c-0.2-0.2,0.7-2.6,0.6-3c-0.2-1.1-2.5,0.3-2.9-0.6c-0.5-1.2,0.3-5-0.3-6.3
		c-0.5-1.1-2.3,0.3-2.9-0.6c-0.3-0.4,0-5.5-0.3-6.3c-0.8-2.3-3.1-4.3-2.6-9.8c-4.9-0.8-6.7-8.6-9.1-14.2c-1-2.3-1.6-7.6-2.6-9.8
		c-0.2-0.4-1.2-0.2-1.4-0.3c-1.6-0.5-0.3-2-0.9-3.3c-2.1-4.5-3.4-7.7-5.4-10.4c-3.3-4.4-3.3-8.8-4.8-13.4c-1.1-3.4-3.5-4.3-4.6-7.1
		c-1.4-3.8-0.6-9.2-2.6-9.8c-4.2-1.3-5.3-25.5-8.3-26.4c-1.6-0.5-0.3-2-0.9-3.3c-2.2-4.7-5.1-16.3-7.1-16.9
		c-2.6-0.8-2.1-7.2-2.6-9.8c-0.2-1.1-2.5,0.3-2.9-0.6c-0.8-2.1-0.4-7.2-1.1-9.5c-1.2-3.6-3.4-3.7-4.6-7.1c-0.8-2.3-0.3-7.1-1.1-9.5
		c-1.1-3.3-3.5-4.2-4.6-7.1c-1-2.8-1.5-7.3-2.6-9.8c-1.1-2.5-1.1-3.4-1.7-6.5c-0.2-1.1-2.5,0.4-2.9-0.6c-4-11.6-4.4-33.3-12.2-36.5
		c0.1-4.6-0.7-8-0.5-12.5c-3.5-1.1-3.3-9.1-4.8-13.4c-0.7-1.9-2.9,0.2-2.3-3.5c0.6-3.5-3.4-8.4-4-10.1c-1.6-4.9-2.7-11.5-4.3-16.4
		c-1.6-5-2.9-12.1-6.3-13.6c2-11.2-3.4-13.2-5.1-19.6c-1.7-6.1-3.6-13.5-3.1-22.3c1.7-5.6,4.5-6.9,5.8-14.4
		c3.9-0.6,7.7-6.1,10.9-10.3c0.6-0.8,0.7-4.8,1.2-6c1.8-4.2,7.5-3.8,8.9-7.6c0.4-8.5,5.5-13.5,5.8-14.4c0.7-2.3-0.9-4.9-0.3-6.3
		c0.9-2,4.2-3.6,5.4-5.2c4.4-5.8,7-11.5,9.2-16.9c1.3-3.2,2.3-4.3,3.2-8.7c4.7-2.9,8-11,12.1-16.3c3.9-5.1,9.6-6.3,12.1-16.3
		c3,0.3,6.5-4.4,8.9-7.6c2.5-3.4,4.7-10.4,7.2-14.1c2.6-3.9,6.3-2.4,7.5-7.9c2.1-9.5,8.2-6.9,10.9-10.3c0.8-4,1.5-8,2.3-12
		c5.6,0.2,10.1-16.3,13.5-16c1.7,0.1,0.9-1.1,2-2.7c3.4-5.1,6.2-11.3,8.6-13.9c2.1-0.6,3.6-3.7,6.3-1.9
		c3.9-12.8,10.4-15.8,17.8-15.2c0.9-5.2,2.1-9.3,3.7-11.7c6,1.2,11-10,16.3-15.5c1.7-1.7,3.4-0.6,4.9-2.2c1.6-1.7,2.1-4.1,4-5.4
		c1.9-1.2,3.9,2,5.7,1.1c0.3-0.1,2.1-5.2,2.6-5.7c4-4.2,7,0.6,10.6-1.1c0.6-0.3,2.9-4.6,4-5.4c2-1.4,3.3-0.8,4.9-2.2
		c1.9-1.6,2.4-3.7,4-5.4c1.6-1.8,3.1-0.4,4.9-2.2c2.5-2.4,5-7.7,8-10.9c2.8-2.9,5.6-5.8,8.9-7.6c2.6-9.8,10.7-25.5,12.1-31.8
		c0.6-2.8,1.7-1.8,2-2.7c1.5-4.4,1.9-12.4,3.5-18c0.1-0.2,1.4-0.8,2-2.7c1.2-3.8,2.3-6.1,3.2-8.7c2.9-8.9,1.3-12.2,2-18.2
		c1.3-11,3-22.1,6.4-32.9c-1.1-6.7-2.2-15.5-1.7-22.1c1.1-14.2,8.2-40.4,10.4-53.9c0.4-2.3-0.9-3.1-0.8-3.3c0.3-2.5,2.6-5.7,2.6-5.7
		c0.8-5.2,0.8-10.7,1.5-15.2c2.2-13.8,5.2-27.9,6.1-39.2c-9.1,1.9-3.1-9.6,0-15.5c-7.7,3.2-13.2,4.1-18.6-3.6
		c2.9-5,10.1-19.8,8.1-26.4c-2.1,5.7-5.4,7.2-8.9,7.6c0.6-4.4,2.7-11.2,0.9-12.3c0.9,0.6-2.9,14.6-6,8.2c1.8-15.5,6.2-21.4,8.4-35.6
		c2.2,1.3,4.6-3.3,2.6-5.7c-8.1,15.7-15.8,33.1-25,44.9c-5.7,4.1-12.9,2.5-18.1,8.9c1.7,0.7,3.2,1.6,1.7,6.5
		c-3.7,3.5-7.1,8.5-10.9,10.3c-5,2.4-9.9-1.3-14.9,0.2c-0.1,0-0.4,2.8-0.6,3c-0.5,0.8-2.2-1-2.9-0.6c-0.2,0.1-0.4,2.7-0.6,3
		c-0.5,0.7-2.3-0.8-2.9-0.6c-5.5,2.7-10.3,5.2-14.6,6.5c-1.3,0.4-1.4,2.4-2,2.7c-4.6,2.8-10.8,2.9-13.2,6.8
		c-0.6,0.9-2.2-1.2-2.9-0.6c-1.4,1.4-2.3,4-4,5.4c-4.1,3.3-7.5,5.5-8.9,7.6c-0.5,0.9-2.2-1.1-2.9-0.6c-1,0.8-2.9,4.4-4,5.4
		c-2.8,2.6-7.3,5.5-8.9,7.6c-2.5,3.3-4.1,8.2-6.6,11.1c-2.5,2.9-6.2,4.8-8.9,7.6c-1.9,2-5.2,13.3-6.9,4.9c1.9-5.8,5.2-7.1,8-10.9
		c5.9-7.8,11.1-15.3,16.1-21.7c2.5-3.3,9.6-8.3,6.6-11.1c-1.8,2.1-5.9,8-7.5,7.9c-2-0.2-9.1,10.3-9.5,10.6c-1.3,1.2-2.3,1-3.4,2.4
		c-2.4,3-5.6,14.1-8.6,13.9c-4-0.3-7.3,12.4-8.6,13.9c-1.8,1.9-3.3-0.6-4.9,2.2c-1.1,1.9-0.8,6.8-1.7,9c-4.6-0.2-8.2,5-9.5,10.6
		c-1.5,6.7-7.7,9.7-8.6,13.9c-1.7,7.6-10.4,13.5-12.1,16.3c-0.7,1.2-0.6,4.6-1.2,6c-0.4,1-2.9,1.2-3.4,2.4c-1,2.2-0.7,6.7-1.7,9
		c-0.4,1-2.8,1.3-3.4,2.4c-2,3.9-3.4,8.2-5.2,11.4c-1.8,3.3-4.2,4.8-6,8.2c-0.7,1.3-0.5,4.5-1.2,6c-0.4,1-2.9,1.3-3.4,2.4
		c-0.6,1.3-3.1,8.3-3.2,8.7c-1.2,5.5-4.5,6.4-6,8.2c-0.6,0.7-0.6,5-1.2,6c-0.2,0.4-1.2-0.6-1.4-0.3c-0.6,0.7-0.6,5-1.2,6
		c-0.7,1.2-2.8,0.8-3.4,2.4c-1.6,4.3-1.4,10.5-2.9,15c-1.9,0-2.7,3.4-4,5.4c-0.6,0.9-2.3-1.4-2.9-0.6c-2.4,3.5-3.1,13-4.3,14.7
		c-0.4,0.5-2.6-1.2-2.9-0.6c-1.6,4.3-1.4,10.5-2.9,15c-3.5,0.3-5,8.6-8,10.9c-1.4,4.6-1.4,10.5-2.9,15c-0.3,1-3.4,4.2-4,5.4
		c-1.5,3.1-1.9,6.2-3.2,8.7c-1.5,2.9-2.7,3.2-4,5.4c-0.7,1.2-0.6,4.6-1.2,6c-0.4,1-2.9,1.3-3.4,2.4c-0.6,1.3-0.7,4.5-1.2,6
		c-0.8,2.6-1.5,1.6-2,2.7c-2.7,6.2-4.9,11-7.2,14.1c-1.7,2.3-3.4,4.2-5.4,5.2c-1.1,4.4-1.6,11.1-3.7,11.7c-4.3,1-7.4,6.3-11.8,7
		c-2-15.5-6-27.3-6.8-41.7c-0.3-5.1-0.7-9.8-0.5-12.5c0.3-4.1,0.9-6.6,0.3-9.3c-0.7-3-0.7-5.9-1.1-9.5c-0.6-5.9-1.4-6.6-2.6-9.8
		c-0.3-0.9,1.3-4.9,1.2-6c-0.6-3.7-2.2-5.8-2.6-9.8c-0.3-4.2,1.2-8.1,0.9-12.3c-0.1-0.8-2-2.8-2.3-3.5c-0.3-0.9,1.3-4.9,1.2-6
		c-0.5-2.7-2.5-4.3-3.1-6.8c-0.7-2.7-0.3-7.1-1.1-9.5c-0.4-1.1-2.3,0.2-2.9-0.6c-0.4-0.5,0.1-5.4-0.3-6.3c-1-2.4-2.9-3.3-3.1-6.8
		c-0.7-4.2,0.7-11.3,0-15.5c-6.6-6.6-12-14.7-12-30.3c-5.8-0.3-4.6-10.5-6.3-13.6c-1.3-2.3-4.1-2.6-5.1-4.1c-0.1-0.2,0.7-2.6,0.6-3
		c-0.2-0.9-2.4,0.1-2.9-0.6c-0.1-0.2,0.6-2.6,0.6-3c-0.2-1.1-2.5,0.4-2.9-0.6c-0.8-2.4-1.3-8.8-2-12.8c-1.6-9.3-3.5-13.7-1.1-25.1
		c-1.9-7-6.7-10.1-4.5-22.6c-4.4-0.7-4.3-7.4-6.9-10.6c1.7-8.7-0.9-7.9-0.5-12.5c0.6-7.8,0.3-8.1-0.6-12.5c-0.3-1.6-0.6-1.1-0.8-3.3
		c-0.8-7.9-2-3-4.6-7.1c-0.7-1.1,1.9-9.2-1.7-6.5c0.1,10.7-5.2,12.6-5.8,14.4c-4.2,13.1-5,32.1-11.8,38.1c2.4-16.5,0-26.6,2.4-43
		c-2.5-0.3-3.2-3-3.1-6.8c0.5-8.8,0.2-16.5,0.3-24.8c-4.6-5.5-2.9,13.3-7.5,7.9c-1.4-18.2,4.8-30.5,0.4-40.3c1,2.3-3.8,8.9-4.6,8.4
		c-0.9-0.5,0.5-9.5-1.1-9.5c-3,4.1-3.7,17-8.6,13.9c0.2-12.8,4.5-31.2,3.8-42.7c-5.7,4.1-4.5-2.8-9.4-4.9c-1.9,10.2-3.6,21-7.5,23.4
		c1.7-11.1,6.3-26.3,4.9-33.2c-4.5-3.2-4.2,11.8-8.9,7.6c2.1-5.8-1.1-4.4-1.7-6.5c-0.6-2.2,1.8-8.3-1.7-6.5
		c-4,14.2-9.5,22.6-12.4,41.1c-2.2,3.9-3.2,5.2-5.2,11.4c-1.1,3.3-1.3,8.7-3.2,8.7c-1.4,8.5,0.2,13-1.2,21.5c-2,2.9-5.5-0.1-6,8.2
		c1.4,1.8,2.6,3.8,3.1,6.8c-2.9,6.1,0.3,10.3,0,15.5c-0.2,2.7-1.3,6.2-1.7,9c-0.6,4.3,0,6.4-0.3,9.3c-1.5,14.8-4.7,27.4-6.7,42.2
		c-0.4,3.1,0.5,3.7,0.3,6.3c-0.5,6-2.1,8.8-0.9,12.3c0.3,0.7-1.1,4.9-1.2,6c-0.2,14.3-2.2,31.8-2.9,46c-1.2,23.5-1.6,47.4-1.3,68.1
		c0.1,5-0.3,10,0,15.5c0.1,2.5-0.7,6.7-0.3,9.3c0.2,1.1,2.6-0.4,2.9,0.6c0.3,1.1-1.3,4.7-1.2,6c0,0.4,1.3-0.1,1.4,0.3
		c0.3,0.8-1.2,4.8-1.2,6c0.1,1.8,1.6,4.5,1.7,6.5c0.2,3.4-0.5,6.5-0.3,9.3c0.2,2.9,1.6,4.4,1.7,6.5c0.2,2.4-1.7,6.5-1.7,9
		c0,1.2,1.5,4.6,1.7,6.5c0.6,7.8,1.2,17.1,1.7,22.1c0.3,2.7,1.5,4.4,1.7,6.5c0.4,5.6-1.1,13.4-0.6,18.5c0.2,1.5,1.4,4.7,1.7,6.5
		c0.9,4.8,1.7,9.8,2,12.8c0.7,6.4,1,10.6-0.6,18.5c2.6,5.4,4.3,11.9,5.1,19.6c0.3,4.3,0.1,8.9,0.5,12.5c0.5,4.2,2.1,6.7,2.6,9.8
		c0.7,4.4,2.4,10.6,2,12.8c-0.6,3.4,0.7,1.6,0.9,3.3c0.9,13.6,3.8,20.9,5.7,32.1c-0.5,5.8,1.6,8.1,0,15.5c5,13.8,8.7,34,13.1,55.3
		c0.8,4,2.4,7.9,3.4,13.1c0.8,4.4,0.4,11.2,1.4,15.8c0.2,1.1,2.6-0.5,2.9,0.6c0.3,1.1-1.4,4.8-1.2,6c2,9.5,5.4,10.9,4.5,22.6
		c-0.2,3.2-2.4,4.3-3.2,8.7c-0.7,3.8,1,4.5-0.3,9.3c-4.4,2.4-7.1,10.9-11.5,13.3c1.8,10.3-4.8,10.3-5.8,14.4c-0.8,3.4-1.2,1.2-2,2.7
		c-2.5,4.7-3.4,11.3-6.3,17.4c-0.8,1.7-2.9,3.1-4,5.4c-3.1,6.2-4.8,10.2-7.2,14.1c-4.5,7.5-8.2,15.8-12.6,19.3
		c-2,13.1-5.8,19.4-10.3,22.8c-2.8,0.2-0.1,5.1-2.6,5.7c-3.1-1.6-5.6-0.6-7.7,1.6c-4.6,12.9,3.3,8.8,0.8,18.8c-3.5-0.9-5,6.8-8,10.9
		c-2.8,3.8-6.9,6.2-9.5,10.6c-1,1.7-0.9,6.9-1.7,9c-0.6,1.6-4.5,4-5.4,5.2c-0.6,0.7-0.6,5-1.2,6c-1.1,1.9-2.7,3-4,5.4
		c-1.8,3.4-4.8,7.8-6.6,11.1c-2.5,4.6-3,11.1-6.6,11.1c-1,5-1.9,10-2.9,15c-11.2,9-19.3,30.2-29.3,44c-0.5,3-1.2,6-1.7,9
		c-0.3,2,0.8,3.5,0.9,3.3c-0.7,4.6-5.1,9.3-2.3,12c4.3-7.9,9.2-13.4,12.4-25.6c3.3-1.6,5.4-6.7,8-10.9c2.3-3.7,5.9-7.9,6.6-11.2
		c0.8-3.5,1.1-1.1,2-2.7c1.5-2.6,1.6-5.7,3.2-8.7c0.4-0.8,2.9-1.8,3.4-2.4c0.6-0.7,0.6-5,1.2-6c2.8-4.6,6.6-5.6,9.5-10.6
		c1.8-3.2,2-8.4,3.7-11.7c1.3-2.3,4.2-2.7,5.4-5.2c1.9-3.5,2-8.1,3.7-11.7c1.2-2.4,4.3-2.1,4.6-8.4c5.4,3.5,5.5-13.8,10.9-10.3
		c3.5-5.5,0.6-3.8,2.3-12c6.9-1.3,11-13.6,16.1-21.7c-1.5-0.9-1.6-3.8-1.7-6.5c4.1,3.4,5.3-3.9,8.3-4.6c1.9-10,6-11.7,9.2-16.9
		c3.5-9.1-0.8-7.7-0.5-12.5c6.7-4.6,6.4-17.3,10.6-16.6c0.1,0-1.3,8,0.3,6.3c1.7-1.9,1.8-16,6.6-11.1c2.1-8.6,6.5-15.4,9.8-19.9
		c1.1-1.5,3-4.2,4-5.4c1.3-1.5,2.6-4.3,4.9-2.2c-2.2,9.1-8.4,19.2-10.3,22.8c-1.7,3.2-2.2,3.3-4,5.4c-0.6,0.6-0.7,5-1.2,6
		c-0.2,0.4-1.2-0.5-1.4-0.3c-0.6,0.7-2.7,7.7-3.2,8.7c-6.6,12.4-10.9,29-18.4,33.7c-0.7,9.4-4.2,8.3-4.9,17.7
		c-5.9,5.5-10.6,17.5-14.6,22c-0.6,0.7-0.7,4.9-1.2,6c-0.2,0.4-1.2-0.6-1.4-0.3c-0.6,0.6-0.7,4.9-1.2,6c-0.2,0.4-1.2-0.5-1.4-0.3
		c-0.6,0.7-2.7,7.7-3.2,8.7c-3.2,6.1-3.7,7.9-6.6,11.1c-0.6,0.7-0.7,4.9-1.2,6c-0.2,0.4-1.2-0.6-1.4-0.3c-0.5,0.6-0.7,5-1.2,6
		c-2.8,6.9-7.3,7.3-7.8,17.1c-1,2.1-3.8,0.5-4.9,2.2c-2.9,4.7-2.7,10.8-4.3,14.7c-0.4,1-2.9,1.2-3.4,2.4c-3.4,7.3-5.7,13.4-8.3,20.1
		c4.3,2.3,4.7-5,6-8.1c0.3-0.6,3-1.8,3.4-2.5c3.2-4.2,5.2-10,9.5-10.6c0.6-3,1.2-6,1.7-9c4,3.1,4.3-7.7,8.3-4.6c0.8-4,1.5-8,2.3-12
		c4.3,0.8,6.4-6.8,10.3-7.3c4.2-11.7,8.1-24.4,14.4-28.3c1-5,1.9-10,2.9-15c1.9,0,2.7-3.4,4-5.4c0.6-0.9,2.2,1.3,2.9,0.6
		c1.7-2,3.3-11.7,6-8.2c-1.5,9.7-8.5,15.8-9.8,19.8c-2.3,7.3-3.6,9.6-6.6,11.1c-0.9,4.1-0.6,6.7-0.3,9.3c-3.7,1.4-5.8,9.2-9.5,10.6
		c-1.9,6.5-3.8,12-6.3,17.4c-0.7,1.5-3.2,3.7-4,5.4c-0.7,1.4-0.5,4.5-1.2,6c-0.4,1-2.9,1.3-3.4,2.4c-2.8,5.5-5.4,11.4-7.8,17.1
		c-0.6,1.3-1.1-0.1-2,2.7c-1.1,3.3-2.6,6.6-3.2,8.7c-0.7,2.9,0.6,3.8,0.3,6.3c2.2,8.7,4.7-8.3,8.9-7.6c2.4,0.5,4.8,0.9,7.2,1.4
		c2.2-7.4,3.6-6.6,6-8.2c0.5-0.3,2-5.1,2.6-5.7c1.3-1.6,2.6,1.3,3.4-2.4c0.8-3.8,6.4-6.4,7.5-7.9c1.6-2.4,1.7-5.5,3.2-8.7
		c0.7-1.5,3.1-3.8,4-5.4c2.2-4.2,5-10,7.2-14.1c0.9-1.7,3.1-3.4,4-5.4c1.5-3.2,1.8-6.2,3.2-8.7c2.1-4,6.6-6.4,7.2-14.1
		c8.4,1.1,10.3-23,19.8-17.9c-2.9,13.6-17,29.8-11.8,38.1c3-6.4,6-10.9,8.6-13.9c0.6-0.7,0.6-5,1.2-6c2-3.7,3.9-3.8,6-8.2
		c2.4-4.7,2.2-7.7,5.2-11.4c5.9-2.1,0.9,10.6,3.4,13.1c4.1-12.1,10.3-19.7,15.8-28c5.3-8,10.9-19,17.5-21.5
		c-1.4,12.1-6.1,11.3-7.5,23.4c8.6,7,10.5-11.9,18-8.9c2.3,4.5,3.4,10.5,4.8,13.4c1.1,2.3,0.9,4.2,1.7,6.5
		c4.9,14.5,10.3,27,14.5,40.1c1.8,5.7,5.4,22.5,7.4,23.2c1.6,0.5,0.3,2,0.9,3.3c2.3,4.8,3.1,5.2,4,10.1c0.2,1.1,2.5-0.4,2.9,0.6
		c0.7,1.8-0.7,9.7,0.5,12.5c1.3,3,4.2,1.1,5.1,4.1c1.2,3.7,0.1,12.2,2,12.8c1.9,0.6,3.8,5.4,4.6,7.1c0.5,1-0.2,5.1,0.3,6.3
		c0.9,2.2,2.9,1.8,3.7,3.8c1.7,4.6,1.2,12.4,3.4,13.1c2.8,0.9,1.6,9.4,4,10.1c2.8,0.9,1.6,9.4,4,10.1c2.8,0.9,1.6,9.4,4,10.1
		c1.6,0.5,0.3,2.2,0.9,3.3c0.9,1.6,2.9,1.7,3.7,3.8c1.3,3.4,0.6,9.5,2,12.8c1.2,2.8,3.8,1.7,5.1,4.1c0.3,0.5,0.1,5.4,0.3,6.3
		c0.2,1.1,2.5-0.3,2.9,0.6c0.8,2,0.4,7.3,1.1,9.5c1.4,4.3,4.9,8.3,5.4,10.4c0.8,2.9,1.9,4.3,3.1,6.8c1.2,2.5,2,4.4,3.1,6.8
		c1.2,2.5,1.1,3.4,1.7,6.5c0.5,2.5,4.3,1.9,5.1,4.1c-0.4,7.2,3.2,8.9,2.8,16.1c2.7,0.6,4.2,4.6,6,7.4c1.2,1.8,2.5,1.7,3.7,3.8
		c0.6,1.1,1,5.3,1.7,6.5c0.8,1.5,1.5,2.1,2.3,3.5c0.9,1.8,1,5.2,1.7,6.5c1.8,3.3,5.7,4.2,7.4,7.6c0.2,0.3-0.7,2.5-0.6,3
		c0.2,1,2.5-0.3,2.9,0.6c0.7,1.6,0.9,4.6,1.7,6.5c0.9,2.2,1,4.6,1.7,6.5c1.4,3.6,3.8,5.4,4.6,7.1c1,2.3,2,2.4,3.7,3.8
		c1.2,0.9,0.4,2.5,0.9,3.3c1.2,1.8,2.4,1.7,3.7,3.8c1.2,1.8,0.9,5.1,1.7,6.5c1.6,2.6,4.5,4.7,6,7.4c0.6,1.1,1,5.3,1.7,6.5
		c1.2,2,2.8,2.3,3.7,3.8c2.9,4.7,4.2,8.6,6.8,10.6c3.8,3,5.9,10,7.7,13.9c1,2.2,2,2.4,3.7,3.8c1,0.8,0.5,2.8,0.9,3.3
		c3.3,4,5.2,4,7.4,7.6c0.6,1.1,1,5.3,1.7,6.5c1.2,2,2.8,2.1,3.7,3.8c2.2,4.1,5.5,10.1,8.3,10.9c1.6,0.5,0.3,2,0.8,3.3
		c1.4,2.9,4.8,7,6,7.4c1.5,0.5,0.3,2.5,0.9,3.3c1,1.4,3.3-0.6,4.3,0.8c0.4,0.7-0.3,5.5,0.3,6.3c1.5,2.1,5,2.4,6.6,4.4
		c1,1.3,1.5,2,2.3,3.6c2.7,5.2,4.9,8.2,8.3,10.9c3,2.4,5.4,7.5,8.3,10.9c2.2,2.6,3.3,6.1,4.6,7.1c1.7,1.3,2.6,2.9,3.7,3.8
		c1.7,1.3,2.6,2.9,3.7,3.8c1.7,1.3,2.6,2.9,3.7,3.8c1.8,1.5,2.7,1.6,3.7,3.8c1.9,4.1,3.8,1.8,6.6,4.4c0.5,0.4,1.1,5.9,1.7,6.5
		c2.6,2.7,6.4,2,9.4,4.9c0.4,0.4-0.2,2.4,0.9,3.3c1.8,1.5,2.7,1.6,3.7,3.8c1.9,4.1,5.4,4.6,9.4,4.9c3.1,3.2,4,9.3,8.3,10.9
		c6.3-6.4,5.5-19.7,7.8-32.7c2.4,0.7,4.6,0.2,6.3-1.9C713,1494.1,708.3,1493.1,711.5,1481.3z M207.5,1132.4
		c-1.7,0.2,0.1-10.2,4.6-8.4C211.2,1124.7,208.2,1132.4,207.5,1132.4z M480.5,595.1c-1-0.2-1.9-0.4-2.9-0.6c0.4-2,0.8-4,1.2-6
		c1,0.2,1.9,0.4,2.9,0.6C481.2,591.1,480.9,593.1,480.5,595.1z M563.4,465.2c-0.6,1.3-3,1.4-3.4,2.4c-0.7,1.6-0.5,4.5-1.2,6
		c-0.6,1.2-3,1.4-3.4,2.4c-2.1,4.8-1.8,8.1-3.7,11.7c-0.7,1.3-1.6,2-2,2.7c-3,6-6.3,13.7-9.8,19.8c-3.2,5.8-6.7,13.4-10,13.6
		c-5,17.3-12.7,24.2-17.3,43.3c-5.6,3-8.9,14.4-14.1,19c-1.3,9.2-3.7,14.4-6.9,20.4c-1.3,2.5-6.8,19.1-12.1,16.3
		c-1.3-20.5,11.3-28.6,17.5-37c2.2-6.2,3.6-11.4,6.3-17.4c0.9-1.9,3.2-3.8,4-5.4c0.5-1,0.6-5.3,1.2-6c0.3-0.3,1.2,0.7,1.4,0.3
		c4.1-8.3,8.3-17.4,12.4-25.6c0.7-1.5,1.1,0.2,2-2.7c0.4-1.3,0.6-5,1.2-6c1.3-2.1,2,0.6,3.4-2.4c2.1-4.5,3.7-10.3,5.8-14.4
		c1.2-2.4,2.6-2.2,4-5.4c0.4-1,0.6-5.4,1.2-6c0.3-0.3,1.2,0.7,1.4,0.3c0.6-1.2,3.7-4.5,4-5.4c0.8-2.2,0.8-7.2,1.7-9
		c1.4-2.6,4.7-2.2,6-8.2c1.2-5.7,8.1-9.3,10.6-16.6C566.8,456.9,565.1,461.3,563.4,465.2z"/>
	<path class="st5" d="M238.1,1119.7c-4,5.7-8.5,14.1-11.2,19.6c-2.9,5.9-5.2,9-7.2,14.1c-1.1,2.8-2.6,4.7-1.2,6
		c3.1-4.4,7-12.5,9.2-16.8c0.4-0.7,1.3-1.4,2-2.7c1-2,1.6-3.8,2.6-5.7C234.4,1130.1,240.9,1124.3,238.1,1119.7z"/>
</g>
</svg>
