<?xml version="1.0" encoding="utf-8"?>
<!-- Generator: Adobe Illustrator 25.1.0, SVG Export Plug-In . SVG Version: 6.00 Build 0)  -->
<svg version="1.1" id="Layer_1" xmlns="http://www.w3.org/2000/svg" xmlns:xlink="http://www.w3.org/1999/xlink" x="0px" y="0px"
	 viewBox="0 0 1204.3 645.1" style="enable-background:new 0 0 1204.3 645.1;" xml:space="preserve">
<style type="text/css">
	.st0{fill:#666666;}
	.st1{fill:#00C1D4;}
	.st2{fill:#005E73;}
	.st3{fill:#707070;}
	.st4{fill:#787878;}
	.st5{fill:#696969;}
	.st6{fill:#636363;}
	.st7{fill:#848484;}
	.st8{fill:#767676;}
	.st9{fill:#717172;}
	.st10{fill:#797A7A;}
	.st11{fill:#828282;}
	.st12{fill:#FBFBFB;}
	.st13{fill:#FAFAFA;}
	.st14{fill:#717171;}
	.st15{fill:#F7F7F7;}
	.st16{fill:#737373;}
	.st17{fill:#F6F6F6;}
	.st18{fill:#626363;}
	.st19{fill:#F4F5F4;}
	.st20{fill:#7A7A7A;}
	.st21{fill:#F9F9F9;}
	.st22{fill:#F3F3F3;}
	.st23{fill:#757575;}
	.st24{fill:#797979;}
	.st25{fill:#FDFCFC;}
	.st26{fill:#6F6C6D;}
	.st27{fill:#737071;}
	.st28{fill:#F8F8F8;}
	.st29{fill:#656263;}
	.st30{fill:#706D6E;}
	.st31{fill:#DEDDDD;}
	.st32{fill:#908E8E;}
	.st33{fill:#8B8989;}
	.st34{fill:#767374;}
	.st35{fill:#625F60;}
	.st36{fill:#CECDCD;}
	.st37{fill:#9F9D9E;}
	.st38{fill:#8B898A;}
	.st39{fill:#838181;}
	.st40{fill:#636060;}
	.st41{fill:#FEFEFE;}
	.st42{fill:#F7F6F6;}
	.st43{fill:#E6E5E5;}
	.st44{fill:#939091;}
	.st45{fill:#F2F2F2;}
	.st46{fill:#F0F0F0;}
	.st47{fill:#686566;}
	.st48{fill:#A5A3A3;}
	.st49{fill:#FBFBFA;}
	.st50{fill:#898788;}
	.st51{fill:#D9E1CD;}
	.st52{fill:#D7E6C4;}
	.st53{fill:#6A6565;}
	.st54{fill:#696665;}
	.st55{fill:#696563;}
	.st56{fill:#636A6B;}
	.st57{fill:#636566;}
	.st58{fill:#60605F;}
	.st59{fill:#FFFFFF;}
	.st60{enable-background:new    ;}
</style>
<path class="st0" d="M949,340.8c-2.8-6.8-7.4-8.4-15.1-8.7c-51.9-1.7-103.8-5-155.7-1.8c-26.4,1.6-52.7,3.9-79.1,5.6
	c-7.9,0.5-11.2,2.9-11.5,11.9c-1.6,64.7,1.1,129,11.1,193c1.6,10.2-0.8,14.6-11.8,14.8c-60.9,1.6-121.6,4.6-182.7-0.2
	c-52.1-4.1-104.6-3.3-156.9,0.6c-33.1,2.5-66.1,5.2-99.1,7.7c-3.9,0.3-9.6,1.4-10.5-3.3c-1-5.6,5.2-5.1,8.7-5.6
	c57.9-9.3,115.6-19.1,174.5-20.9c87-2.6,173.6,8.7,260.5,5.7c5.1-0.2,9.5,1.5,8-7.1c-10.3-59.8-12.8-120.2-11.8-180.8
	c0.2-10.8-3-12-13-11.1c-49.9,4.7-99.9,8.4-149.9,12.3c-6.1,0.5-12.4,1-20.8-4.8c16.3-2,29.8-3.3,43.1-5.4
	c42.5-6.8,85.3-10.3,128-14.8c8.6-0.9,11.7-3.7,9.8-12.5c-8.7-42-7.9-84.6-7.8-127.2c0-10.1-1.7-20.2-2.7-30.6
	c7.7,0.3,9.2,5.7,11.1,10.6c3,7.7,3,15.8,2.8,23.9c-1.2,41.3,1.2,82.4,7.8,123.2c1.1,6.7,2.4,9,9.8,8.1
	c74.1-9.7,148.3-9.5,222.6-3.2c12,1,24.5,3.5,36.6-1.1c3.9-0.4,4.2,2.5,4.8,5.2c0,5.7-3.3,10.2-5.9,14.9
	C952.7,340.8,951.3,342.2,949,340.8z"/>
<path class="st0" d="M786.5,284.2c-7-9.2-6-16.8-4.1-23.9c12.6-47.2,29.3-92.9,68.5-125.1C879.2,112,911.4,96,949,92.3
	c69.9-7,128.2,15.3,176.2,66.1c7.1,7.5,15.9,13.3,22.5,21.1c48.1,56.5,67.3,120.5,50.8,194.3c-10.2,45.8-28.1,87.5-64,118.4
	c-28.7,24.7-60.2,44.3-99.6,51.6c-27.9,5.2-53,4.6-79.9-3.2c-20.1-5.8-40.8-8.9-60.3-17.4c-18.5-8-35.9-16-44.8-35.7
	c-2.6-5.8-8.5-9.2-14.4-11.7c-27.3-11.5-38.3-36.7-49.2-60.9c-5.9-13.2-7-28.6-10.7-42.9c-2-7.7-1.5-14.7,3-22.5
	c11.2,15.2,12.1,33.1,16.9,49.6c8.3,28.5,19.9,54.4,48.8,68.1c8.8,4.2,14.8,11.6,18.9,20.3c4.8,10.4,13.5,15.5,23.2,21
	c32.6,18.3,70.2,20.6,104.4,33.6c1.2,0.5,2.7,0.7,4,0.5c30.3-4.9,61.9-5.6,89-22.3c11.7-7.2,22.9-15.4,35.5-21.9
	c-28.6-37.4-56.6-74-91.7-104.5c-1.4-1.2-3-2.3-3.8-3.8c-2.3-4.4-9.5-8.5-4.4-13.7c5-5,9.4,1.3,13.6,4.2
	c37.4,26,63.7,62.7,92.2,97.1c5.3,6.4,7.4,8.1,14.2,1c31.9-33.3,44.6-74.4,52.3-118.4c6.8-38.5-0.2-73.9-13.3-110.3
	c-20-55.7-59.1-95.1-107.6-122.2c-67.6-37.5-138.6-37.5-206.3,4.9c-15.7,9.8-28.5,23.9-38.1,39.4
	C805.7,205.4,787.9,240.4,786.5,284.2z"/>
<path class="st0" d="M193.1,131c10.9-0.6,21.8-1.6,32.6-1.8c71.7-1,143.3-3.9,214.5-13.5c58.5-7.9,116.9-5.9,175.4-0.1
	c9.8,1,19.7,0.3,29.5,0.6c6.5,0.2,13.8,0.8,13.5,9.4c-0.3,7.7-7.2,7.6-13.2,8.2c-32.3,3-64.4,0-96.6-2.6c-50.3-4.1-100,5.9-150,7.3
	c-62.6,1.8-125.3,7.3-187.9,0c-6.1-0.7-12.1-2.4-18.1-3.6C192.9,133.6,193,132.3,193.1,131z"/>
<path class="st0" d="M419.6,355c6.2-25.6-9.9-37.9-28-50.8c-63.5-45.1-120.3-98.8-183.4-144.4c-4.3-3.1-7.9-7.1-11.3-11.5
	c17.7,4.1,31.2,15.6,45.2,25.9c57.3,42.3,110.8,89.3,166.2,133.8c4.5,3.6,8.5,8.4,13.6,10.7"/>
<path class="st0" d="M231.2,547.9c-19.5-139.9-30.3-281.1-56.7-420.2c-0.6-3,0-6.4,6.6-8.3C205.2,261.6,227.7,403.5,231.2,547.9z"/>
<path class="st0" d="M243.3,538.7c4.9-6.5,9.4-13.3,14.8-19.3c44.7-49.4,88.5-99.7,136.9-145.6c1.3-1.2,2.5-2.5,3.9-3.7
	c3.8-3.4,9.1-10.4,12.6-6.9c4.8,4.8-3.1,8.4-6.4,11.9c-37.5,40.8-78.3,78.6-114,121.2c-13.7,16.3-32.4,27.3-45.2,44.7
	C245.1,540.3,244.2,539.5,243.3,538.7z"/>
<path class="st0" d="M1011,287.3c-0.6-18.3,5.8-33.5,11.8-48.2c9.8-23.8,23-46.2,30-71.3c0.7-2.5,2-5,3.6-7.1
	c3-3.9,6.1-11.2,11.6-7.6c4.1,2.7-2.8,7.1-4,11c-12.2,37.7-33.8,71.7-44.8,109.9C1018,278.3,1018.2,283.8,1011,287.3z"/>
<path class="st0" d="M949,340.8c1-0.9,2.1-1.9,3.1-2.8c7.2-2.4,10.7,2.7,13.9,7.4c3.3,4.8,5.6,10.2,8.9,15
	c9.2,13.5,24.6,15.9,36.6,4.7c11.3-10.5,14.8-24.1,11.2-39.2c-3.5-14.6-13.1-22.8-27.6-25.6c-16.3-3.2-26.2,2.4-31.8,18.2
	c-1,2.9-1.3,6.3-5.6,6.4c-0.8-1.9-1.7-3.8-2.5-5.7c6.1-26.2,36-37,58.8-21.2c14.9,10.3,22.4,30.4,18.1,48.6
	c-4.1,17.8-18.7,31.7-35.5,34.1c-12.4,1.8-21.5-2.7-28.2-13.4C962.6,357.9,959.6,346.5,949,340.8z"/>
<path class="st1" d="M1140.2,420.7c-15.6,1-7.7-12.3-9.9-18.6c-3.2-9.4,4.1-11.8,12.4-11.9c14.5-0.3,17.9,2.3,17,21.1
	C1159.3,422.1,1148.3,419.8,1140.2,420.7z"/>
<path class="st2" d="M379.6,456.4c8.7,11.5,24.5,10.8,33.4-0.4c6,10.8,5.6,22.2,5.7,33.5c0,1.3-1.7,3.8-2.7,3.8
	c-10.5,0.7-21.2-0.4-31.5,3.2c-1.9,0.7-2.6-2.1-2.7-3.8C381.3,481.3,377,470,379.6,456.4z"/>
<path class="st3" d="M548.4,490.2c1.2-11.3-2.1-20.7-3.3-30.4c-0.9-7,0-10.5,8.2-7.8c8.8,2.9,17.4,0.7,25.9-4.2c0.6,3,1,4.6,1.3,6.3
	c1.4,9.2,6.6,19.7,2.4,27.3c-4.4,8.1-16.1,2.8-24.5,4.6C555.5,486.7,552.8,488.3,548.4,490.2z"/>
<path class="st4" d="M539.9,262.9c10.4-2.9,21.5,3.8,31.2-3.7c1.3-1,3,1.1,3.3,3c0.2,0.9,0.2,1.8,0.3,2.7
	c6.7,32.1,5.8,33.3-25.6,35.3c-5.8,0.4-6.4-3.1-6.7-7.6C541.9,282.6,544.1,272.5,539.9,262.9z"/>
<path class="st5" d="M431.1,456.1c11.5,9.6,22.2,1,33.7,1.4c0.4,2.9,0.6,6,1.2,9c1.4,7.3,6.7,18.4,2.3,21.1
	c-7.1,4.2-17.8,2.5-26.9,3c-3.5,0.2-5.8-1.5-6.3-5.4C433.8,476,430.4,467.1,431.1,456.1z"/>
<path class="st6" d="M549,241c-1.8-9-3.4-17.6-5.2-26.3c-0.6-2.7-0.5-7.5,1.1-7c10.1,2.7,19.1-4,28.8-2.3c1.4,0.3,2.7,2,3.7,3.3
	c0.5,0.6,0.4,1.7,0.5,2.6c1.1,8.3,2.4,17.9,0.8,24.8c-2.6,10.9-13.8,1-21,2.7C555,239.4,552.2,240.2,549,241z"/>
<path class="st0" d="M637.9,280.5c0,18.4-5.8,23.2-24.6,21c-2.6-0.3-4.8-1.2-4.1-3.8c2.6-9.5-3.4-17.2-5-25.8
	c-1.4-7.4-1.3-12.8,8.8-10c2.1,0.6,4.4,0,6.7,0.1C637.9,262.5,637.9,262.6,637.9,280.5z"/>
<path class="st7" d="M1104.1,379.5c-6.1-4.1-15.2,3.8-17.6-6.4c-1.5-6.3-6.1-17.3-1.6-18.6c8.6-2.4,19.6-3.6,28.3,0.6
	c6.3,3.1,5.7,12.1,5.3,18.1C1117.7,384,1107.9,374.8,1104.1,379.5z"/>
<path class="st2" d="M510.1,266.9c-3,4.9,4.5,12.6-1.3,14.2c-8.2,2.3-17.6,0.6-26.5,0.2c-2.8-0.1-2.7-3.1-2.8-5.3
	c-0.2-3.1-0.7-6.3-0.5-9.4c0.5-6.9-7.9-15.3-1.2-19.8c7.2-4.8,17.7-1,26,0.8C514.2,249.8,506.7,260.6,510.1,266.9z"/>
<path class="st8" d="M486.4,479.9c1.5-12-4.5-21.6-2.2-33.4c7.8,5.9,15.6,3.7,23.2,2.2c16.3-3.2,10.9,10.1,12.8,17.2
	c2.6,9.3-3.6,8.2-10.1,7.9C502.7,473.3,495.3,475.2,486.4,479.9z"/>
<path class="st9" d="M1074.9,337.9c-14.6-0.1-20.9-6.2-18.3-22.1c2.1-13,14.2-4.1,21.3-5.4c14.8-2.6,10.9,10.8,12,18.3
	C1091.8,342.2,1080.9,336.9,1074.9,337.9z"/>
<path class="st10" d="M1124.2,312.5c-3.9,5.4-8.2,3.2-12,3.6c-3.6,0.4-7.5-0.1-6.5,5.6c0.7,4.2,1.4,7.4,6.9,8
	c12.7,1.3,15.8-1.4,14.4-13.5c-0.3-3-1.9-6.1,1.9-11.1c4.5,8.5,4.8,16.5,3.3,24.2c-1.5,7.4-9.3,5-13.5,4.5c-5.3-0.6-13,7.9-16.3-3.6
	C1096.8,310.8,1100.8,307.3,1124.2,312.5z"/>
<path class="st11" d="M1090.2,394.6c8.5-5.3,20.9-10.1,25.3-3.3c3.8,5.8,7.8,19.6,1.7,26.2c-4.3,4.7-16.7,5.6-23.7,3.1
	c-7.8-2.8-3.2-12.7-2.8-20.3c2.6,10,5.5,18.9,18.6,15.4c7.1-1.9,4-7,3.7-10.8c-0.3-4.4,1.3-10.7-6.8-10.3
	C1100.8,394.8,1095.5,394.6,1090.2,394.6z"/>
<g>
	<path class="st2" d="M1156.8,376.3c-2.5,0.8-5,2-7.5,2.3c-5.2,0.6-13,3.3-15-0.4c-3.2-5.7-2.9-13.6-3.5-20.6
		c-0.2-2.5,1.9-3.4,4.7-3.2c3.9,0.4,7.9,0.5,11.9,0.3c13-0.4,17.6,8,11.7,21.5c-4.7-6-7.3-15.2-18.2-11.5
		C1141,376.1,1156.1,366.1,1156.8,376.3z"/>
	<path class="st1" d="M1156.8,376.3c-2.8-3.1-6.5-2.1-10-2.3c-3.6-0.2-9.8,3.7-9-4.6c0.3-2.9-3.9-8.1,2.1-8.5
		c5.5-0.4,12.8-4.2,16.3,4c1.5,3.6,1.9,7.6,2.8,11.4l-1.1,0.3L1156.8,376.3z"/>
</g>
<g>
	<path class="st1" d="M1160.6,308c0.7-0.6,1.4-0.6,2.2-0.1c3.5,4.5,3.2,10.1,4.1,15.2c0.8,4.6,2.1,10.5-6,10.2
		c-5.8-0.2-11.9,2.2-12.8-8.2C1146.8,310.5,1145.6,310.6,1160.6,308z"/>
	<path class="st2" d="M1160.6,308c-10.1,2.1-13.9,7-11,18c2,7.6,6.5,5.7,10.9,5.7c6,0,5.6-4,4.8-8.3c-0.9-5.2-1.7-10.4-2.5-15.5
		c8.7,6.8,6.8,17.1,5.5,25.1c-0.9,5.4-10.2,1.5-15.6,2.7c-4.1,0.9-5.5-1.5-5.7-5.2c-0.1-1.8-0.2-3.6-0.6-5.3
		C1142.9,307.5,1142.9,307.5,1160.6,308z"/>
</g>
<path class="st12" d="M957.7,324.8c3.2-10.6,3.3-22.3,17.6-26.6c15.3-4.6,30.4-2.5,41.4,9.4c11.2,12.2,13.8,26.7,8.5,42.2
	c-1.9,5.3-5.1,10.5-8.7,14.9c-13.5,16.7-35.3,14.5-45.8-4.2c-4.8-8.6-6.9-19.7-18.7-22.6C950.8,332.2,958.1,330.1,957.7,324.8z"/>
<path class="st1" d="M396.4,470.2c11-2.6,15.5,0.7,15.4,11.2c-0.2,14.7-12.1,7.7-17.6,8.6c-12.1,2.1-7.2-10.3-8-15.4
	C384.8,465.1,394.2,472.4,396.4,470.2z"/>
<path class="st13" d="M566.9,479.7c-18.1,4.2-13-9.2-15.6-16c-1.5-3.9-0.3-5.6,5.3-5.5c19.8,0.5,22.1,1.5,22.3,14.8
	C579.1,485.2,569.5,478.3,566.9,479.7z"/>
<path class="st12" d="M564.8,291.6c-18.1,3.8-15.8-8.2-16.5-17.4c-1-12.6,8.6-5.4,12.9-5.9c8.6-1,14.9,8.8,13.4,20.3
	C573.5,296.6,566.6,290.4,564.8,291.6z"/>
<g>
	<path class="st14" d="M637.7,458.1c-3.7,17.7-19.7,6.8-27.7,13c-1.7,1.3-13.4-29-10-34.5c5.6-9.1,18.2-6.3,26-5
		C640.8,433.9,631.9,449.8,637.7,458.1z"/>
	<path class="st15" d="M619.4,464.1c-15.3,2.7-10.3-9.5-11.7-16.6c-2.5-12.3,7.6-10.1,13.7-10.1c13-0.1,7.7,11.5,9.5,17.9
		C633.6,465.3,625.6,464.3,619.4,464.1z"/>
</g>
<g>
	<path class="st16" d="M392.7,271c-2.8-13.3-4.7-24.6-7.6-35.7c-1.3-5.2,0.6-6.5,4.9-6.8c0.4,0,0.9,0,1.3,0
		c29.7-1.1,24-4.8,25.4,22.2c0.1,2.2-0.5,4.7,0.3,6.6c4.4,10.8-2.2,8.5-8.2,7.2C397.7,262.1,397.7,262.1,392.7,271z"/>
	<path class="st17" d="M411.6,247.1c-2.8,3.6,4.3,11.1-4.8,12.3c-8,1-15.9-9.1-15.7-19.9c0.1-9.2,7.8-5.1,11.9-5.8
		C415.4,231.4,409.3,241.8,411.6,247.1z"/>
</g>
<g>
	<path class="st18" d="M599,527.1c5.1-13.1,1.7-22.9-1.5-33c-1.3-4.2-0.7-10.1,6.9-5.8c1.1,0.6,2.4,1,3.7,1.2
		c7.6,1.3,17.6-4.4,22.5,3.1c3.8,5.7,2,14.9,4.3,21.9c2.3,7-0.7,7.8-6.1,7.8C619.7,522.4,610.4,521,599,527.1z"/>
	<path class="st19" d="M603.4,494c22.5-1.1,22.5-1.1,26.5,22.4c-7.3,0.3-17,4.2-21-1.5C605.7,510.3,606.1,501.5,603.4,494z"/>
</g>
<g>
	<path class="st20" d="M298.2,164.9c5,2.4,13.2-6,16.2,2c3.7,9.7,4.4,20.6,6.1,31c0.3,1.7-2,3.5-3.7,2.8c-8.2-2.8-16.2-3.9-24.4,0.1
		c-1.6,0.8-2.9-1.4-3.4-3.2c-3.2-9.8-2-20.2-3.3-30.2C284.7,161.6,293.2,164.8,298.2,164.9z"/>
	<path class="st21" d="M305.1,192.6c-18.3,3.8-13.5-11-13.5-17.8c0-9.3,10.2-4,14.4-3.8c10.2,0.6,6.6,11.1,7.9,17.2
		C315.8,198.2,307.3,191,305.1,192.6z"/>
</g>
<path class="st17" d="M451.9,485.5c-14.9,3.1-12.5-7.4-12.9-13.1c-0.8-11.1,9.5-6.5,14.6-7.6c12.2-2.5,9.4,9.3,9.7,14.4
	C463.9,488.2,454.6,484.3,451.9,485.5z"/>
<g>
	<path class="st2" d="M610.8,246.9c0.1-12.2-1.3-21.3-3.9-30.4c-2.3-8.1,0.9-12.6,9.7-13.5c27.8-2.8,25-10.4,29.4,23.8
		c1.7,13.3-3.2,15.9-14.6,14.7C624.8,240.8,618,241.1,610.8,246.9z"/>
	<path class="st1" d="M640.8,225.9c1.8,9.2-2.2,13.1-13.1,12.4c-12.6-0.8-17.4-6-16-23.3c0.9-10.8,11.4-7.6,17.9-8.4
		C638.5,205.3,640.6,209.6,640.8,225.9z"/>
</g>
<path class="st22" d="M574.3,224.3c-3.4,3.4,4.7,10.9-6.4,11.3c-12.3,0.4-18.5-4.6-17.7-16.1c0.7-10.7,11.5-7.9,17.5-8.5
	C578.9,210,570.3,220.3,574.3,224.3z"/>
<g>
	<path class="st2" d="M508.8,490c4.6,2.7,12.1-5.1,16.1,1.3c4.3,6.8,3.3,15.5,4,23.4c0.3,2.9-0.4,5.2-4.2,5.1
		c-2.2,0-4.4,0.4-6.5,0.9c-21.9,4.4-27.2,0-28.5-22.4c-0.4-7,1.2-10.1,8.7-8.4C501.4,490.6,504.6,490,508.8,490z"/>
	<path class="st1" d="M506.7,496.5c12.8-3.6,18.1,0.9,18.3,10.7c0.2,11-9,8.5-15.4,9.7c-12.3,2.4-12.9-7.1-13.5-14.7
		C495.1,490.9,504.8,497.6,506.7,496.5z"/>
</g>
<path class="st21" d="M634.1,281.9c2.1,9.3-0.8,13.1-10,13.4c-17,0.5-9.8-14-13.4-21.3c-3.1-6.2,4.2-6.1,8.4-6.2
	C629.5,267.5,638,269.1,634.1,281.9z"/>
<path class="st21" d="M1104,372.3c-8.8,2-13.2-0.2-13.4-7.9c-0.3-9.8,7.7-4.9,11.7-5.9c6.9-1.6,11.3,2.1,11,9.5
	C1113,376.9,1105.9,371.3,1104,372.3z"/>
<path class="st1" d="M505.1,266.5c0.9,6.6,0.6,12-10.3,12.1c-19.7,0.3-7-16.5-13.2-23.2c-1.9-2.1-0.4-5.4,4.4-5.4
	C502.9,250.3,505.1,251.8,505.1,266.5z"/>
<path class="st22" d="M516.1,462.5c-2.4,11.6-13.4,5.7-20,8.2c-6.3,2.5-6.1-5.5-6.1-9c0.1-11.7,10.1-6.1,15.8-7.8
	C511.7,452.4,516.5,454.1,516.1,462.5z"/>
<path class="st21" d="M1076.1,332.6c-9.3,2.1-13.2,0-13.7-9.3c-0.7-12.5,8.9-7.5,13.8-8.5c9.9-2.1,8.4,7.4,9.4,12.5
	C1087.5,337.9,1078.3,330.8,1076.1,332.6z"/>
<g>
	<path class="st23" d="M1060,350.9c16.4-5.6,15.5,6.1,15.6,14.1c0.1,14.8-12.8,6.8-18.8,8c-11.9,2.3-7.9-10.1-8.9-15.8
		C1045.6,344,1058.1,354.8,1060,350.9z"/>
	<path class="st17" d="M1062.6,368.3c-7.5,1.9-9-1.2-9.5-6.7c-0.6-7.5,4.7-5.8,8.8-6.5c6.4-1.1,9.3,2.7,9.7,8
		C1072.4,372.2,1064.2,366,1062.6,368.3z"/>
</g>
<circle class="st0" cx="973.1" cy="319.1" r="3.5"/>
<g>
	<g>
		<g>
			<path class="st24" d="M968.4,351.6c0.5,0.8,1,1.3,1.9,1.4c0.5,0.1,2,0.3,3.4,0.2c1.4-0.1,2.7-0.5,2.7-0.5s1.3-0.3,2.5-1.1
				c1.3-0.7,2.4-1.8,2.7-2.3c0.6-0.8,0.6-1.5,0.4-2.4c-0.9,0.4-1.4,0.5-1.9,1.1c-0.3,0.3-1.2,1.2-2.2,1.8c-1,0.6-2.1,0.9-2.1,0.9
				s-1,0.3-2.2,0.4s-2.5-0.1-3-0.1C969.8,351,969.3,351.2,968.4,351.6z"/>
		</g>
	</g>
</g>
<g>
	<path class="st25" d="M433.6,379.7c-22.5-6.3-30.2-11-30.2-11s-2.2-23.6-0.8-38.9c-0.1-0.9,7,1.6,14.6,4.2
		c7.6,2.6,15.6,5.5,17.4,5.4c3.1,0.4,6.2,1.2,9.2,2c3,0.9,6,1.9,9,2.8c1.3,1.1,1.8,2.4,1.8,3.8c0.1,1.3-0.3,2.7-0.6,4.1
		c-0.3,1.4-0.6,2.8-0.6,4.1s0.1,2.7,0.5,4.1c0,3.7-0.1,7.4-0.1,11.1s-0.1,7.4,0,11.1c0,1.3-0.2,2.1-0.7,2.4s-1.3,0.2-2.6-0.2
		c-2.8-1-5.6-1.9-8.4-2.7S436.4,380.6,433.6,379.7z"/>
	<path class="st26" d="M429.5,338.9c-1.9-1.7-4.4-1.8-6.6-2.2c0,5.7,0,11.2,0,16.8c-0.3,0.5-0.6,0.5-1,0c-0.4-3.6-1.5-7.2-1.1-10.7
		c0.7-5.7-2.1-8.2-6.9-9.6c-3.6-1.1-7.1-2.2-11.2-3.5c1.1,13.1-1.2,25.7,0.6,39c-3.4-2-2.3-4.5-2.3-6.4c-0.5-11.2,1.1-22.4-0.9-33.5
		c-0.2-1.1-0.1-1.9,1-2.2c6.1-1.4,11.1-5.7,17.4-6.4c-2.1,5.4-7.7,5.1-11.2,7.5c4.3,1.3,9.2,3.2,14.1,4.7c7.3,3.7,13.1,0.4,18.9-4.2
		c-2.3,0.2-4.4,0.5-6.3,1.3c-2.1,0.9-4.2,1.7-6.3,2.6c-1.9,0.8-3.7,2.1-5.9,0.8c0.7-5.2,4.8-5.2,7.7-6.1c-3.4-1.3-8.3-2.1-11.1-6.5
		c-0.9-1-1.7-2-2.6-3c-2.8-3-5.6-6.1-3.9-10.5c1.7-4.2,4.9-7.1,9.8-7.2c0.3,0.5,0.3,1,0.1,1.5c-0.5,0.6-1.1,1-1.7,1.5
		c-6.4,4.5-6.7,6.7-1.2,13.4c1.2-2.5,0.8-6.2,4.2-6.6c3.1-0.4,5.4,1.5,7.1,4c0.1,0.5,0,1.1-0.3,1.5c-1.4,1.5-4.3-1.3-4.8,1.3
		c-0.5,2.5,1.9,3.9,3.8,5.1c3.2,2.1,6.5,1.7,9.8,0.5c0.4-0.3,0.8-0.6,1.3-0.8c1.6-0.6,1.5-3.4,3.8-3.1c0.7,0.3,1.6,0.9,2.1,0.4
		c5.9-6,12.5-11.6,13.7-21.4c-6.4,2.6-8.2,9.1-13,12.3c-0.6,0-1-0.3-1.3-0.8c0.2-7.1,5.7-10.5,10.2-14.7c1.2-1.1,2.8-1.9,4.3-2.7
		c4.2,1.6,3.3,5,2.9,8.2c-0.4,3.3-2.3,6-4,9.4c4-0.6,7-3.7,10.8-3.3c0.5-0.2,1-0.3,1.6-0.1c0.4,3.1-2.4,2.9-4,3.6
		c-5,2.3-10.3,3.8-13.8,8.5c-0.8,0,0.4,1.2,0,0.5c1.7-0.9,3.2-1.1,4.4,0.7c0.1,1.6-1,2.5-1.9,3.5c-1,1-2,1.9-3.2,2.5
		c-2,1.1-4.1-0.4-6,0.3c-0.4,0.1-0.7,0.3-1.1,0.4c0.3,0.1,0.5-0.1,0.8-0.1c3.9-0.4,3.7,1.9,3,4.6c-4.6,0.9-8.4,3.3-12.3,6.5
		c5.4,2.7,11.3,2.7,16.8,4.2c0.4,0.4,0.8,0.8,1,1.4c0.2,0.9,0.1,1.7-0.4,2.5c-0.4,0.4-0.9,0.7-1.5,0.8c-6.4-0.7-12.4-3.1-18.7-4.3
		C432.6,340.3,431.1,339.7,429.5,338.9z"/>
	<path class="st27" d="M471.6,305.6c-0.6-0.1-1.3-0.3-1.9-0.4c3.5-2.1,4.8-1,4.7,2.9c-0.1,9.1,0,9.1,9.4,10.9c3.4,0.6,5.4,1.6,4.9,6
		c-0.9,8,1.7,16.1,0.7,23.9c-0.8,6.8,0.1,13.9-2.2,20.5c-0.9-0.3-1.6-0.8-2-1.7c-1.4-12.3-0.4-24.7-0.6-37c0-1.8,1-3.9-1.3-5.1
		c-0.5-0.2-0.9-0.6-1.2-1c-2.8-4.3-8.1-3.7-12-5.8c-0.9-0.4-1.9-0.3-2.8-0.5c-1.6-0.3-3.9,0-4-2.1c0-1.8,2.2-1.8,3.6-2
		C472.5,313.4,470.1,308.5,471.6,305.6z"/>
	<path class="st28" d="M459.9,290.9c0.8,1.9-1,2.2-1.9,2.8c-5.8,3.6-9.8,8.6-12.3,14.9c0.1,0.8,0.1,1.5-0.1,2.3
		c-0.6,2-0.9,4.9-3.2,4.7c-2.5-0.3-1.8-3.3-1.9-5.2c-0.4-7.3,0.8-13.9,6.6-19.2c3.2-2.9,6.5-4.4,10.8-3
		C458.9,288.7,459.5,289.7,459.9,290.9z"/>
	<path class="st29" d="M469.2,381.2c-1.9,3.5-4.2,5.9-8.6,3.6c-0.4-0.2-1.6,0.3-1.8,0.8c-1.5,4.5-4.9,2.2-7.2,1.6
		c-6.9-1.8-13.7-4.1-20.5-6.2c-0.7-0.8-0.7-1.6-0.1-2.4l0,0c1.2-0.6,2.4-0.3,3.6-0.1c4.2,1,8.4,2.2,12.5,3.7c4.1,1.6,5.5,0,5.4-4.1
		c-0.1-6,0-12.1-0.1-18.1c0.3-2.4-0.5-5.1,2.1-6.8c2.8,1.5,2,4.2,2.1,6.6c0.3,5.7-0.1,11.4,0.7,17.2c0.6,4.3,2.3,4.1,5.2,2.2
		c2.1-0.8,4.4-2.3,6.1,0.6C468.9,380.3,469.1,380.7,469.2,381.2z"/>
	<path class="st30" d="M485.8,368.2c0.5,0.4,1,0.8,1.5,1.2c-0.9,0.8-1.8,1.5-2.6,2.3c-2.3,3.6-7,4.4-9.9,8.6
		c2.5-1.5,4.2-2.9,6.2-3.8c1.3-0.6,3.2-1.7,4,0.2c0.8,1.9-1.2,2.4-2.5,3.1c-0.7,0.4-1.4,0.6-2,1.1c-0.2,0-0.4,0-0.5,0.1
		c-6.6,4-6.6,4-10.7,0.1l-0.2-0.2c-0.6-1.6,1.3-3.4-0.4-5c1.4-5,1-10.1,1.1-15.2c0.1-4.9,0.3-9.8,2.5-14.3c1.7-0.5,2.1,0.8,2.6,1.9
		c1.2,5.7-1.1,11.3-0.8,16.9c0.1,2-0.4,4.1,0.3,6.2C478.3,371.2,481.2,366.8,485.8,368.2z"/>
	<path class="st31" d="M480.4,381c1.5-1.4,2.9-2.7,5.5-5.1c-5.5,2.1-9,5-12.8,7.4c-0.4-4.6,2.8-7.6,11.5-11.5
		c1.7-0.3,3.5-0.6,5.2-0.9c1,2,3.3-0.2,4.5,1.3c0.7,0.3,1.5,0.6,2.2,0.9c-0.3,3.2-2.7,4-5.2,4.6c0,0.3-0.2,0.5-0.5,0.5
		c-1.1,1.3-2.2,2.8-4.3,1.8C484.4,380.3,482.4,380.6,480.4,381z"/>
	<path class="st32" d="M433.6,379.7c-0.9-0.4-1.7-0.8-2.6-1.1c0.6-13.3,0.3-26.5-1.5-39.7c1.7-0.2,3.6-1,5.1,0.6
		c-1,10.9,1.4,21.7,0.5,32.6C434.9,374.7,435.5,377.5,433.6,379.7z"/>
	<path class="st33" d="M457.7,288.1c-13.3,1.2-18.8,10.8-15.5,26.6c2.2-1.5,1-4.9,3.4-6.2c0.3,0.1,0.5,0.2,0.5,0.5
		c1.2,3.6,0.8,6.7-2.7,8.9c-2.2-0.1,0.9,4.8-3,3.1c-0.7-1-0.2-1.9,0.4-2.7c-3.3-10.7-2.8-20.7,6.1-28.6
		C450,287.2,453.6,284.9,457.7,288.1z"/>
	<path class="st34" d="M441,318.4c0.7,1-0.3,1.8-0.4,2.7c-0.2,0.6-0.3,1.2-0.5,1.7c-4.1-1.7-8.2-3.5-10.2-7.9c0-0.5,0.1-1,0.1-1.5
		c1.2-0.9,2.5,0.1,4,0.2c-1.3-7-5.4-11.3-12-13.2c0-0.3,0-0.6,0-0.9c4.3-2.8,7.1,0.2,9.8,2.8c3.2,3.2,4.3,7.6,6.2,11.5
		C438.8,315.5,438.9,317.7,441,318.4z"/>
	<path class="st35" d="M425.2,378.8c-6.5-0.6-12.1-4.2-18.3-5.9c-1.2-0.3-1.4-1.1-1.2-2.1c0.3-1.3,0.5-1.1,1.7-0.5
		c0.1,0.1,0.2,0.1,0.3,0.2c5.9,3.3,12.4,4.9,18.8,7.1C426.8,378.7,426.5,379.2,425.2,378.8z"/>
	<path class="st36" d="M487.3,385.6c5.1-5,11.8-6.9,18.8-7.8C499.9,380.4,493.6,383,487.3,385.6z"/>
	<path class="st37" d="M491.3,377.6c1.7-1.5,3.5-3.1,5.2-4.6c3.6-0.7,6.7-3.4,10.9-2.7C501.8,372.4,497.7,377.4,491.3,377.6z"/>
	<path class="st38" d="M494.3,372.1c-1.5-0.2-4.5,4.6-4.5-1.3c4.3-1.7,8.6-3.4,12.9-5.1C500.5,368.9,496.6,369.4,494.3,372.1z"/>
	<path class="st39" d="M486.5,379.9c1.4-0.6,2.9-1.2,4.3-1.8c-0.2,3.4-4.1,2.8-5.4,5c-0.8,1.3-4.7,0.5-2.5,3.9
		c0.5,0.8-1.3,0.8-2.1,1c-0.9,0.2-2,0.2-2.3-0.9c-0.1-0.5,0.3-1.5,0.8-1.9C481.7,383.4,484.1,381.7,486.5,379.9z"/>
	<path class="st40" d="M422,353.5c0.3,0,0.6,0,1,0c0,7.2,0,14.3,0,21.5c-0.3,0-0.6,0-1,0C422,367.8,422,360.7,422,353.5z"/>
	<path class="st32" d="M425.2,378.8c0.4-0.4,0.9-0.9,1.3-1.3c1.5,0.3,3,0.7,4.5,1c0,0.8,0.1,1.6,0.1,2.4
		C429,380.6,426.9,380.3,425.2,378.8z"/>
	<path class="st12" d="M464.3,379.9c-2.3,1.3-4.6,2.6-7.1,4c-2.5-10.1-1.8-20.2-2.2-30.2c-1.9-3-0.2-6.2-0.6-9.3c0-0.6,0-1.3,0-1.9
		c0.7-1.3,1.5-2.7,2.8-3.5c1.9-1.2,4-2.8,6.3-1.8c2.5,1.1,1.2,3.7,1.3,5.6c0.3,9.3-0.6,18.5,1,27.8
		C466.3,373.6,466.4,377,464.3,379.9z"/>
	<path class="st41" d="M421.9,300.4c4-1.5,6.6,0.8,8.7,3.5c2.9,3.7,4.7,7.9,6.5,13.3c-3-1.5-5-2.6-7.1-3.7c-2.3-1.6-5-4.5-7.4-3.2
		c-3,1.6-1.4,5.4-0.8,9.3c-4.6-2.8-8-5.8-8.2-10.5C413.4,304,417.6,301.9,421.9,300.4z"/>
	<path class="st42" d="M443.5,318c1.4-2.8,2.2-5.8,2.7-8.9c3.8-5.6,7.3-11.5,14.2-15c0.8,3.9,0.2,7.2-1.4,10.5
		c-2.9,5.9-7.9,10.2-12,15.1C444.1,323,444,319.9,443.5,318z"/>
	<path class="st28" d="M454,340.7c-7,0.8-13.4-2.1-21.5-3.7c6.5-2.8,9.6-9.4,17-7.6c0.3,0,0.5,0.1,0.8,0.1c2.7,2.2,6,3.1,9.3,4
		c1.9,1.6,3.4,3.4-0.2,4.7C457.5,339,456.3,341,454,340.7z"/>
	<path class="st28" d="M471.6,317.8c3.5,1.2,6.9,2.6,10.4,3.5c2.1,0.6,2,1.2,0.7,2.4c-5.7,7-7.5,7.3-17.4,3.3
		c-3.4-1.7-7.5-2.3-10.1-5.6c-0.1-1.6,1-2,2.3-2.3C461.9,315.2,466.9,318,471.6,317.8z"/>
	<path class="st41" d="M421.9,332.9c-1.3,0-2.7,0.2-3.9-0.2c-4.3-1.4-8.6-3-13.1-4.7c4.1-4,10.3-3.6,13.8-7.9l-0.1,0.1
		c4.2,2.2,8.3,4.6,13.2,6C428.6,329.1,423.5,328.6,421.9,332.9L421.9,332.9z"/>
	<path class="st43" d="M471.6,317.8c-4.7,0.3-9.5,0.2-14.1,1.3c-2.8-2.9-4.8,1.5-7.5,0.7c3.6-7.4,10.4-10.2,17.6-12.7
		c1.4-0.5,3.1,0,4.1-1.6c1.8,2.6,1.3,5.7,0.7,8.2c-1,4.3-5.3,0.8-7.7,2.5C466.7,317.5,469.6,315.9,471.6,317.8z"/>
	<path class="st44" d="M454,340.7c1.5-1,2.9-2.4,4.6-3c3.9-1.5,0.6-2.4-0.1-3.6c0.2-0.9,0.7-1.4,1.6-1.6c3.9,2.2,7.4-2.6,11.3-0.7
		c0.1,0.6,0,1.2-0.3,1.7c-3.4,3-4.3,6.8-4.1,11.2c0.4,10.9-0.6,21.9,1.4,32.7c4.4,0.6,0.5,2.4,0.5,3.6c-1.7,0.4-2.3-3.6-4.6-1.2
		c-0.5-14-2-27.9-0.7-42.2c-3.9,0.8-6.3,3.2-9.3,4.7C454.2,341.9,454.1,341.3,454,340.7z"/>
	<path class="st45" d="M429.8,315c3.1,3,7.5,4.4,10.2,7.9c-10.5,2.7-17.2-1-16.9-9.4c0-0.3,0.3-0.6,0.5-1
		C426.2,312.2,427.6,314.6,429.8,315z"/>
	<path class="st41" d="M421.8,333c3.9-1.6,7.9-3.3,11.8-4.9c3-1.3,6-2.1,9.4-0.9C433.8,336.1,428.9,337.4,421.8,333
		C421.9,332.9,421.8,333,421.8,333z"/>
	<path class="st46" d="M449.5,329.4c-0.5-2.6-1.3-4.8-5.5-2.9c2.9-3.8,6.1-2.7,8.9-2.9c1.5-0.5,3-0.6,4.5-0.1
		c1.9,0.6,4.7,0.6,4.8,3.2c0,2.7-2.2,4.2-4.8,4.9C454.3,332.4,451.8,331,449.5,329.4L449.5,329.4z"/>
	<path class="st47" d="M449.4,329.4c7.8,2,7.8,2,12.1-3.1c-2.5-2.2-5.9-1.1-8.6-2.7c0.8-0.8,1.5-1.5,2.3-2.3c3.8,0.8,7,2.8,10.3,4.6
		c0.3,0.3,0.4,0.6,0.4,0.9s-0.1,0.5-0.1,0.5c-1.9,2-4.3,3.5-6,5.6c-0.4,0.4-0.8,0.8-1.2,1.1C454.3,334.9,451.5,332.7,449.4,329.4z"
		/>
	<path class="st48" d="M454.4,344.3c1.5,3,0.8,6.2,0.6,9.3c-1.6,2.1,0,4.6-1.1,6.8c-2.2-5.3-0.1-10.8-1-16.1
		C453.4,344.3,453.9,344.3,454.4,344.3z"/>
	<path class="st49" d="M485.8,368.2c-4.3,2-8.5,4-13,6.2c-0.9-8.6,0.7-16.9,1-25.2c-0.3-4.6-0.2-9.2,0.4-13.9
		c0.7-5.6,3.3-8.9,8.5-10.4c1.8,0.4,2.6-1.3,3.7-1.8C485.4,338.1,487.4,353.2,485.8,368.2z"/>
	<path class="st50" d="M482.7,325c-7.4,3.2-6.7,10.3-7.8,16.5c-0.5,2.6,0.1,5.3-1.2,7.8c-0.4-0.9-0.8-1.7-1.2-2.6
		c-2.5-2.4-0.6-5.2-0.6-7.9c0-2.2,0.1-4.4-0.4-6.6c-0.2-0.3-0.4-0.5-0.6-0.7c-1.8-1.4-4.6-1.7-5.4-4.3c0-0.4,0-0.8,0-1.2
		c6.3,4.1,11.9,1.6,17.2-2.2C482.7,324.2,482.7,324.6,482.7,325z"/>
	<path class="st13" d="M471.5,332.2c3.6-0.4,2.3,2.3,2.2,3.8c-0.2,3.6-0.8,7.1-1.2,10.7c-1,7.9-1.7,15.8-1.6,23.7
		c0,2.6,0.3,5.4-2.5,7c-3.6-1.7-2.5-5.3-2.6-7.9c-0.5-10.2-0.1-20.5-0.4-30.8C465.3,334.2,469.8,334.6,471.5,332.2z"/>
	<path class="st42" d="M465.5,327.1c1.5,1.8,4.9,1.3,5.4,4.3c-3.7,0.5-6.7,6-11.1,1.5C460.2,329.6,461.1,328.8,465.5,327.1z"/>
</g>
<path class="st0" d="M366.5,170c3.5-3,6.4-5.5,9.4-8.1c-0.8-1.2-3.3,0.2-2.9-2c0.2-1.4,1.7-1.2,2.8-1.4c5.9-1.2,7.5,0.7,5.5,6.7
	c-0.3,0.9-0.3,2.3-1.7,2.1c-1.8-0.2-1.1-1.5-1-2.6c0-0.3-0.1-0.7-0.3-1.4c-2.9,2.5-5.5,5.1-8.4,7.1c-1.9,1.3-4.1,4.6-6.6,0.3
	c-0.5-0.8-1.4,0.1-1.9,0.5c-1.7,1.4-3.4,2.9-5.1,4.4c-0.7,0.6-1.4,1.3-2.2,0.4c-0.6-0.7-0.3-1.4,0.2-2c2.8-2.9,5.8-5.5,9.4-7.4
	C366.4,165.2,366.4,167.5,366.5,170z"/>
<g>
	<path class="st0" d="M887.2,191.8c-5.7-0.8-9.5-4.8-13.3-9c-0.4-0.5-0.5-1.1,0-1.7c0.7-0.8,1.4-0.3,1.9,0.2
		c1.8,1.7,3.5,3.5,5.5,5.1c5.9,4.7,9.7,3.7,12.7-3.3c0.6-1.3,0.5-4.1,2.5-3.3c2.1,0.9,0.3,3.1-0.3,4.5
		C894.6,188.1,892.5,191.6,887.2,191.8z"/>
	<path class="st0" d="M881.3,169.7c-0.5,1.5-1.9,2.6-3.3,3c-1.2,0.3-1.6-1.1-1.4-2c0.2-1.4,0.4-3.1,2.4-3.1
		C880.2,167.6,881,168.4,881.3,169.7z"/>
	<path class="st0" d="M890,167.1c1.2,0.3,2.1,1,2,2.3c-0.1,1.4-0.9,2.4-2.3,2.4c-1.4-0.1-1.5-1.4-1.6-2.5
		C888.1,168,888.6,167.1,890,167.1z"/>
</g>
<g>
	<path class="st0" d="M879.6,439.2c-0.3,0.4-0.5,1-0.9,1.2c-0.6,0.3-1.1-0.1-1.6-0.5c-1.2-1.3-2.2-2.7-3.6-3.7
		c-4.9-3.5-11.1-2.6-15.4,2.1c-0.7,0.8-1.3,2.7-2.8,1.3c-1.3-1.2,0.3-2.2,1-3.1c5.7-6.8,17-6.4,22.1,0.8
		C878.8,437.8,879.2,438.5,879.6,439.2z"/>
	<path class="st0" d="M875.4,422.6c0,1.2-0.2,2.3-1.5,2.2c-1.7-0.1-2.1-1.4-2.2-2.9c-0.1-1.2,0.4-2,1.7-1.8
		C874.8,420.2,875.3,421.3,875.4,422.6z"/>
	<path class="st0" d="M862.9,421.6c-0.2,1.3-1.3,2.1-2.4,2.6c-0.8,0.4-1.5-0.4-1.4-1.2c0-1.3,0.8-2.3,2.2-2.6
		C862.1,420.3,862.6,420.8,862.9,421.6z"/>
</g>
<g>
	<path class="st0" d="M409.4,407.2c0,1.8-0.4,3.5-1.2,5c-3.2,6.3-7.9,11.4-13.6,15.6c-0.6,0.4-1.3,0.7-2,0.9
		c-3.6,1.3-7.3,1.2-10.2-1.4c-2.8-2.6-3.1-6.5-1.8-9.7c3.5-8.9,9.8-15.2,19.1-18C405.1,397.9,409.4,401.5,409.4,407.2z"/>
	<path class="st51" d="M399.5,420c-1.9-5.2-5.5-8.3-10.3-10.6c3.2-3.6,6.7-6.1,11-7.4c4.1-1.2,6.9,1.6,6.4,6.1
		C406,412.9,402.7,416.1,399.5,420z"/>
</g>
<g>
	<path class="st0" d="M263.7,396.9c-0.1-1.7-0.3-3.3-0.5-6.1c-0.3,3.2-0.5,5.3-0.7,7.3c-0.1,1-0.5,2.4-1.6,2.1
		c-3.1-0.9-6.4-0.2-9.5-1c-1.7-4-1.3-8,0.1-12.1c3.9-1.7,8-1.4,12-0.8C265.6,389.3,265.7,394.8,263.7,396.9z"/>
	<path class="st0" d="M292.7,393.9c-4.7-0.4-9.2-0.8-13.8-0.3c-0.9,0.1-2.1,0.6-2.7-0.6c-0.5-1,0.9-1.5,0.9-2.1
		c0.6-4.6,4.8-5.4,7.5-7.8c0.2-0.2,0.9-0.5,1-0.4c2.3,2.7,6.9,2.3,8.4,6.1c0.2,0.6,0.4,1.2,0.6,1.7c0.4,1.1,2.7,1.2,1.8,2.8
		C295.6,394.8,293.9,393.6,292.7,393.9z"/>
	<path class="st0" d="M250.2,399.2c-1,1.2-2.2,1.6-3.6,0.5c-0.2-0.1-0.2-0.5-0.4-0.6c-1.1-0.6-3,1.9-3.4-0.5
		c-0.5-3.5-0.3-7.2-0.4-10.8c0-0.2,0.2-0.4,0.3-0.7c0.7-2.4,2,3.2,3.4-0.3c0.8-2,3.1-0.1,4,1.7C252.1,392.1,251,395.6,250.2,399.2z"
		/>
	<path class="st0" d="M279.3,402.1c0.5-2.1,1.3-4.5,0.2-7c-0.3-0.7,0.9-2,1.6-1.2c2.4,2.6,4.9,1.1,7.5,0.8c1.2-0.1,3.2-0.6,3.3,1.3
		c0.1,1.8-1.8,1.2-2.9,1.3c-3.7,0.3-6.4,1.8-7.2,5.7c-0.2,0.9-0.4,1.9-1.5,1.7C279.1,404.6,279.3,403.4,279.3,402.1z"/>
	<path class="st0" d="M263.7,396.9c1.5-3.5,0.3-7-0.1-10.5c1.3-1.6,2.2-1,2.3,0.7c0.3,4.2,0.4,8.4,0.5,12.6c0,0.7-0.4,1.2-1,1.4
		c-0.7,0.2-1.1-0.4-1.4-0.9C263.5,399.1,263.5,398,263.7,396.9z"/>
	<path class="st17" d="M250.2,399.2c-0.4-3.6,1.3-7.2,0.1-10.7c0.4-0.4,0.8-0.9,1.3-1.3c0,4,0,8-0.1,12.1
		C251.1,399.2,250.6,399.2,250.2,399.2z"/>
	<path class="st52" d="M291.9,390.8c-3.4,0-6.5,0-9.6,0c-0.7,0-1.6,0.2-1.7-0.8c-0.1-0.8,0.4-1.4,1-1.9
		C284.3,385.8,289.7,387,291.9,390.8z"/>
</g>
<g>
	<path class="st53" d="M1079.8,206.3c2.5-0.3,5-0.7,7.4,0.2c1.8,0.7,3.1-2.9,4.6-0.9c1.3,1.7-2.2,2.4-1.9,4.3
		c0.5,2.9-0.3,5.6-3.1,6.5c-3.4,1-7.1,1.5-10.6-0.1c-2.2-1-3.7-7.4-2.4-9.5c0.5-0.8,1.1-0.8,1.9-0.7
		C1077.1,206.2,1078.4,206.2,1079.8,206.3z"/>
	<path class="st54" d="M1082.6,192.3c1.4-0.3,3.1,0.6,4.9-0.2c1.2-0.6,1.8,0.3,1.6,1.6c-0.1,0.7-0.5,1.4-0.5,2.1
		c0.2,2.4,1.2,5.4-1.3,6.8c-3.1,1.8-6.8,1.6-10.2,0.4c-3.8-1.3-3.1-4.7-2.9-7.6c0.2-2.7,2.2-2.9,4.4-2.9
		C1079.9,192.4,1081.1,192.3,1082.6,192.3z"/>
	<path class="st55" d="M1081.9,178.7c2,0.6,4.4,0.5,5.3-2.9c0.2-0.6,0.9-0.9,1.6-0.6c0.9,0.4,1,1.1,0.6,1.8
		c-1.9,2.9-1.8,6.1-1.7,9.3c0.1,1.9-0.9,3-2.8,3.3c-1.1,0.1-2.2,0.4-3.3,0.4c-7.6,0.3-9.3-1.9-7.5-9.2c0.4-1.8,1.9-2.2,3.3-2.4
		C1078.6,178.3,1079.9,178.6,1081.9,178.7z"/>
	<path class="st56" d="M1110.8,202c-4.4-0.1-8.7-0.2-13,0.7c-0.9,0.2-2.2,0.5-2.4-0.8c-0.2-1.3,1.1-1.6,2-1.7
		c7.6-1.7,15.4-0.9,23.1-0.9c0.9,0,1.8,0.3,1.7,1.5c-0.1,1.1-1.1,1.2-2,1.2C1117,202,1113.9,202,1110.8,202z"/>
	<path class="st57" d="M1108.2,186.4c4.2,0,8.5,0,12.7,0c1.1,0,2.6,0,2.4,1.6c-0.1,1.4-1.5,0.9-2.4,0.9c-7.2,0-14.5-0.1-21.7-0.2
		c-1,0-2,0-3-0.1c-0.9-0.1-1.9-0.2-1.9-1.4c0.1-1.4,1.2-1.3,2.2-1.2c3.9,0,7.7,0,11.6,0C1108.2,186.1,1108.2,186.2,1108.2,186.4z"/>
	<path class="st58" d="M1105.9,214.2c4.2-0.2,8.5-0.1,12.7,0.6c0.9,0.2,2.3,0.1,2.1,1.5c-0.2,1.4-1.5,1-2.4,0.9
		c-6.9-0.9-13.9-1.1-20.9-0.4c-1.1,0.1-2.6,0.4-2.6-1.2c0-1.5,1.5-1.4,2.6-1.4C1100.2,214.2,1103.1,214.2,1105.9,214.2z"/>
	<path class="st59" d="M1082.1,214.3c-1.3,0.6-2.6,0.4-3.8,0.2c-2.1-0.4-2-2.2-2-3.8c-0.1-1.9,1.3-1.7,2.5-1.8
		c1.9,0,3.7-0.1,5.6-0.1c0.6,0,1.4,0,1.4,0.8c0,0.4-0.4,0.9-0.7,1.3c-0.4,0.4-0.7,1.1-1.5,0.5c-0.9-0.6-1.6-2.6-2.8-0.9
		C1079.8,211.8,1081.9,212.7,1082.1,214.3z"/>
	<path class="st59" d="M1077.4,195.2c1.5,1.9,1.8,4,3.6,5.5C1076.4,200.6,1075.9,199.9,1077.4,195.2z"/>
	<path class="st59" d="M1084.6,195.6c-0.5,1.1-1.1,2.2-2.2,2.4c-1.3,0.2-1.4-1.1-1.6-2c-0.2-1.3,0.9-1.3,1.7-1.3
		C1083.4,194.8,1084.4,194.5,1084.6,195.6z"/>
	<path class="st59" d="M1085.9,186c-3.4,1.9-6.2,1.6-8.6,0.9c-1.6-0.4-0.6-2.6-0.8-4c-0.1-0.7-0.2-1.6,0.9-1.7
		c1.5-0.2,1.8,1.1,2.3,2C1080.9,185.2,1082.8,185.8,1085.9,186z"/>
</g>
<g class="st60">
	<path class="st0" d="M239,301.1h0.8c5.2,0,8.6,1.9,10,5.7l0.1,1.5v0.5c0,3.7-2.3,7.2-6.8,10.3c-1.1,0.3-1.6,0.7-1.6,1.1
		c1.3,4.9,1.9,8.9,1.9,12v0.6c0,1.3-0.5,1.9-1.6,1.9c-0.8-0.1-1.2-0.5-1.2-1.2v-1.2c0-3.7-0.7-7.7-2-12c-2.6-0.2-4-0.9-4.3-2.1v-0.3
		c0-0.6,0.4-1,1.3-1.3l2.1,0.7v-0.1c-1.1-4.7-1.6-7.9-1.6-9.6c0-0.9,0.5-1.4,1.6-1.4c1,0,1.5,1.7,1.5,5.1l1.4,5.7
		c2.3-0.8,4.1-2.3,5.4-4.5c0.7-1.3,1-2.4,1-3.4v-0.6c0-2.6-2.2-4.1-6.7-4.5h-2c-4.4,0.5-6.6,1.5-6.6,3.1v0.3c0,0.5,0.3,1.2,0.8,2.3
		c0,0.7-0.6,1.2-1.7,1.3c-1.3-0.6-1.9-1.9-1.9-3.7C229,303.7,232.3,301.7,239,301.1z"/>
	<path class="st0" d="M258.3,313.7c2,0,3.2,1.4,3.6,4.2v0.4c0,3.1-1.6,6-4.8,8.5c1.9,1.8,5.1,2.7,9.7,2.7c0.7,0.2,1.1,0.7,1.1,1.5
		c0,0.9-0.6,1.3-1.7,1.3c-3.1,0-6.4-0.8-9.9-2.4v1.4c0,3.3-0.7,4.9-2.1,4.9c-1,0-1.5-1.9-1.5-5.7v-3.7l-0.1-1.3l0.3-1.5l-0.3-4.6
		v-0.2c0-0.9,0.4-1.5,1.3-1.8C255.2,314.9,256.6,313.7,258.3,313.7z M255.9,324.2c0.9,0,2-1.7,3.1-5v-2.1l-0.6-0.6H258
		C256.6,317.5,255.9,320.1,255.9,324.2z"/>
	<path class="st0" d="M277.1,314.5c2.4,0,4.2,1.8,5.4,5.3l0.2,1c0,3.4-1.6,6.9-4.8,10.5c-1.3,1.2-2.6,1.8-3.9,1.8
		c-1.9,0-3.3-1.1-4.1-3.3c-0.3-1-0.4-1.9-0.4-2.7v-0.6c0-5.1,1.8-8.9,5.5-11.5C275.7,314.7,276.4,314.5,277.1,314.5z M272.3,327
		c0,2.2,0.6,3.3,1.7,3.3c2.3,0,4.3-3,5.8-9v-0.9c-0.5-2-1.6-3-3-3c-0.6,0-0.9,0.4-0.9,1.2c0,0.5-0.6,1-1.9,1.3
		C272.9,321.8,272.3,324.1,272.3,327z"/>
	<path class="st0" d="M296.1,306.3c0.5,0,1,0.5,1.5,1.5l-2.1,13.3v3.7c0,3.9,0.6,5.9,1.8,5.9c0.8,0.4,1.2,0.9,1.2,1.5
		c0,0.7-0.6,1.2-1.9,1.3c-1.4,0-2.5-1.3-3.3-3.9h-0.5c-1.2,2.6-2.6,3.9-4.3,3.9c-2,0-3.2-1.5-3.6-4.5c0-3.5,2.3-7.2,7-11.1
		c0.9,0,1.4-1.3,1.4-3.9C294,308.9,294.9,306.3,296.1,306.3z M287.7,328.7v1.3l0.8,0.8h0.3c1,0,2.2-3.1,3.6-9.3h-0.3
		C289.2,324.4,287.7,326.8,287.7,328.7z"/>
	<path class="st0" d="M302.1,318.2l0.9-0.5c0.8,0,1.3,0.5,1.7,1.4c-0.5,2.4-0.8,4.8-0.8,7.3c0,1.2,0.4,2.6,1.1,4.1h0.3
		c0.9,0,2-3.7,3.3-11c0.4-0.4,0.9-0.6,1.3-0.6c1,0,1.5,1.8,1.5,5.3c0.4,3.9,0.9,5.8,1.4,5.8l0.7-0.3c0.9,0.4,1.4,0.8,1.4,1.5
		c-0.6,1.2-1.4,1.8-2.4,1.8c-1.2,0-2.3-1.2-3.3-3.5c-1.3,2.7-2.6,4-3.9,4c-2,0-3.3-2-4.1-6.1l-0.1-1.5v-0.5
		C301.1,322.9,301.4,320.5,302.1,318.2z"/>
	<path class="st0" d="M320.8,316.3l2-0.3c0.8,0,1.2,0.5,1.3,1.5c0,0.9-1,1.4-3.1,1.7c-1.3,1-2,2.3-2,3.9v1.6
		c0.6,3.5,1.7,5.3,3.3,5.3h0.5c0.9,0,2.2-0.8,4-2.5h0.3c0.6,0,1.2,0.4,1.5,1.3c-0.4,1.4-1.9,2.6-4.3,3.7c-0.4,0.2-1,0.3-1.7,0.3
		c-3.3,0-5.4-2.6-6.4-7.8v-1C316.2,320.3,317.7,317.7,320.8,316.3z"/>
	<path class="st0" d="M336.7,303.5c0.9,0.2,1.3,0.6,1.3,1.3l-0.3,2.1v0.6c0,1.4,0.2,2.9,0.5,4.5h0.1c3.7-1.1,6-1.7,6.9-1.7
		c0.9,0.3,1.4,0.7,1.4,1.4c0,1.1-1.1,1.6-3.3,1.6l-5,1.8c0,4.3,0.5,10.2,1.4,17.6c-0.2,0.9-0.7,1.3-1.4,1.3h-0.1
		c-1.1,0-1.7-1.4-1.7-4.3c-0.4-2.1-0.8-6.8-1.1-14h-0.9c-3-0.2-4.5-0.9-4.5-2.1c0-0.4,0.3-0.8,1-1.3h0.5l2.2,0.6h1.5l-0.4-6
		C334.9,304.6,335.5,303.5,336.7,303.5z"/>
	<path class="st0" d="M370.6,298.3l0.8-0.2c1.2,0,2.4,1.2,3.6,3.6l0.4,2.6c0,2-1,6.4-3.1,13.3v0.1c0.1,1.8,1.5,5.3,4.2,10.5l0.1,0.1
		l0.5,0.3c1-2.4,1.5-4.7,1.5-7V319c0-2.2-1-3.7-2.9-4.5l-0.3-1c0-0.5,0.4-1,1.2-1.4c1.4,0,2.8,1.3,4.2,3.9c0.4,1.3,0.6,2.8,0.8,4.5
		c0,2.6-0.8,6.2-2.4,10.8c0,0.3,0.9,1,2.7,2.1l0.1,0.5c-0.3,1-0.8,1.5-1.6,1.5c-0.3,0-1.2-0.5-2.7-1.4c-2.3,2.7-4.6,4.1-6.8,4.1
		c-1.7,0-3-1.1-3.9-3.3c-0.3-0.7-0.4-1.7-0.4-3v-0.3c0-3,0.8-7.5,2.5-13.7v-0.1c-1.2-5.7-1.8-9.8-1.8-12.3
		C367.6,300.7,368.7,298.3,370.6,298.3z M370.8,323.2L370.8,323.2c-1,2.7-1.5,5.4-1.5,8.1v1.2c0,1.3,0.4,2.2,1.1,2.7h0.7
		c1.8,0,3.2-1.1,4.4-3.3c-1.9-2.7-3.4-5.6-4.5-8.6L370.8,323.2z M371,301.1c-0.6,0.8-0.9,2.2-0.9,4.2s0.2,4.1,0.6,6.4h0.1
		c1-2,1.5-4.2,1.5-6.6v-1.8C372.1,301.9,371.7,301.1,371,301.1z"/>
</g>
<g class="st60">
	<path class="st0" d="M244.7,340.2h0.5c0.9,0,1.4,0.5,1.5,1.6c0,0.9-1.3,1.4-3.8,1.4c-4.1,1.5-6.8,3.8-8.2,6.7l-0.3,1.4v0.3
		c0,1.4,0.9,2.1,2.8,2.1l5.3-0.3c3.6,0,6,1.7,7.2,5.2l0.3,1.7c0,3.3-2.7,6.4-8.1,9.1c-1.6,0.4-3,0.8-4.2,0.9c-3.3,0-5.6-1.8-6.9-5.5
		c-0.4-1.2-0.6-2.5-0.6-3.8c0-0.4,0.3-0.8,0.9-1.2h0.6c1,0,1.5,1.3,1.5,3.8c0.8,2.5,2.1,3.7,3.9,3.7h1.3c2.6,0,5.2-1.5,7.7-4.5
		c0.7-1,1-2,1-3.1c0-1.6-1.2-2.7-3.7-3.3h-0.2l-6.3,0.1c-3.5-0.4-5.2-1.9-5.2-4.3l-0.2-0.6c0-3.3,2.5-6.5,7.4-9.6
		C241,340.8,242.9,340.2,244.7,340.2z"/>
	<path class="st0" d="M256.3,351.4c1.3,0,3.4,2.3,6.5,6.7l0.1,0.8c0,0.9-2.2,1.6-6.6,2.1l-0.1,0.1v0.2c0.7,2.9,1.4,4.3,2.1,4.3h0.6
		c1,0,2.6-1.1,4.7-3.3h0.3c0.6,0,1.1,0.5,1.5,1.4c0,0.8-1.3,2.1-4,4c-0.7,0.4-1.6,0.7-2.5,0.9c-2.6,0-4.4-2.4-5.4-7.3
		c-1.5-0.2-2.2-0.8-2.2-1.8c0-0.7,0.5-1.2,1.6-1.4v0.2l0.5-0.2v-1.2C253.1,353.2,254.2,351.4,256.3,351.4z M256.6,354.8h-0.4
		l-0.2,1.8v1.5h0.2c1.8-0.1,2.7-0.3,2.7-0.6C258,356.3,257.2,355.4,256.6,354.8z"/>
	<path class="st0" d="M273.4,349.7c2,0,3.2,1.4,3.6,4.2v0.4c0,3.1-1.6,6-4.8,8.5c1.9,1.8,5.1,2.7,9.7,2.7c0.7,0.2,1.1,0.7,1.1,1.5
		c0,0.9-0.6,1.3-1.7,1.3c-3.1,0-6.4-0.8-9.9-2.4v1.4c0,3.3-0.7,4.9-2.1,4.9c-1,0-1.5-1.9-1.5-5.7v-3.7l-0.1-1.3l0.3-1.5l-0.3-4.6
		v-0.2c0-0.9,0.4-1.5,1.3-1.8C270.3,350.9,271.7,349.7,273.4,349.7z M271,360.2c0.9,0,2-1.7,3.1-5v-2.1l-0.6-0.6h-0.4
		C271.7,353.5,271,356.1,271,360.2z"/>
	<path class="st0" d="M285.3,352.4c0.7,0,1.5,1.8,2.4,5.3c1.2,2.8,1.9,4.3,2.1,4.5c0.2,0,0.8-1.6,1.8-4.8c1-3.2,2-4.8,2.9-4.8
		c0.9,0.3,1.3,0.8,1.3,1.5c-2.7,6.8-4,11.4-4,13.6l-0.9,0.9H290c-1.2-0.8-3.1-5.2-5.9-13.2l-0.4-1.8
		C283.9,352.8,284.4,352.4,285.3,352.4z"/>
	<path class="st0" d="M298.4,343.6c1.2,0.3,1.8,0.8,1.8,1.6c-0.3,0.9-0.8,1.3-1.5,1.3c-1.2-0.2-1.8-0.8-1.8-1.8
		C297.2,344,297.7,343.6,298.4,343.6z M300.2,350.3c0.5,0,0.9,0.5,1.3,1.4l-0.4,3.4v2.3c0,2.6,0.4,6.1,1.3,10.3
		c-0.3,0.6-0.9,0.9-1.6,0.9c-1.3,0-2.2-3.8-2.6-11.5v-1.7C298.2,352,298.8,350.3,300.2,350.3z"/>
	<path class="st0" d="M309.7,352.3l2-0.3c0.8,0,1.2,0.5,1.3,1.5c0,0.9-1,1.4-3.1,1.7c-1.3,1-2,2.3-2,3.9v1.6
		c0.6,3.5,1.7,5.3,3.3,5.3h0.5c0.9,0,2.2-0.8,4-2.5h0.3c0.6,0,1.2,0.4,1.5,1.3c-0.4,1.4-1.9,2.6-4.3,3.7c-0.4,0.2-1,0.3-1.7,0.3
		c-3.3,0-5.4-2.6-6.4-7.8v-1C305.1,356.3,306.7,353.7,309.7,352.3z"/>
	<path class="st0" d="M324.3,351.4c1.3,0,3.4,2.3,6.5,6.7l0.1,0.8c0,0.9-2.2,1.6-6.6,2.1l-0.1,0.1v0.2c0.7,2.9,1.4,4.3,2.1,4.3h0.6
		c1,0,2.6-1.1,4.7-3.3h0.3c0.6,0,1.1,0.5,1.5,1.4c0,0.8-1.3,2.1-4,4c-0.7,0.4-1.6,0.7-2.5,0.9c-2.6,0-4.4-2.4-5.4-7.3
		c-1.5-0.2-2.2-0.8-2.2-1.8c0-0.7,0.5-1.2,1.6-1.4v0.2l0.5-0.2v-1.2C321.2,353.2,322.2,351.4,324.3,351.4z M324.6,354.8h-0.4
		l-0.2,1.8v1.5h0.2c1.8-0.1,2.7-0.3,2.7-0.6C326,356.3,325.2,355.4,324.6,354.8z"/>
	<path class="st0" d="M344.7,349.2c0.9,0,1.5,1.5,1.8,4.4c-0.3,0.8-0.8,1.2-1.6,1.2c-0.5-0.1-1-0.7-1.5-1.8l-0.9-0.3
		c-1.5,0-2.9,1-4.1,3v0.4c0,0.5,2.3,1.3,6.8,2.4c1.9,1.1,2.8,2.5,2.8,4.1c0,2.6-2.1,4.9-6.3,6.7l-1.8,0.3c-2.7-0.3-4-1.6-4-4v-0.1
		c0-0.8,0.5-1.2,1.5-1.3c0.8,0,1.3,0.8,1.5,2.4l0.4,0.3h0.8c1.8,0,3.5-1.2,5.1-3.7v-0.6c0-1-2.1-1.9-6.3-2.7
		c-2.2-0.9-3.3-2.1-3.3-3.7c0-2.1,1.7-4,5.2-5.9C342.4,349.9,343.7,349.6,344.7,349.2z"/>
</g>
<g class="st60">
	<path class="st0" d="M411.1,145.7c0.5,0,1,0.4,1.5,1.4c0,0.8-1.1,1.5-3.4,2.1c-2.8,1.8-4.9,4.8-6.3,8.9c-1.4,4.2-1.9,8.2-1.7,12.2
		c0.4,6.4,2.7,10.3,6.9,11.9l1.6,0.2c3.4-0.2,5.7-3.3,6.7-9.4l0.1-2c-0.2-2.6-1.1-4.6-3-6.3h-0.3c-0.6,0.8-1.8,3.6-3.5,8.3l-1,0.8
		c-0.9,0.1-1.4-0.5-1.6-1.5c2.6-7.4,4.5-11.1,5.5-11.1h0.3c4,2,6.2,5.3,6.4,9.7c0.3,5-1.5,9.3-5.4,12.8c-0.6,0.6-2,1.1-4,1.5
		c-3.9,0.2-7.2-2.4-10.1-7.8c-0.8-2.4-1.3-4.5-1.4-6.5v-0.7c-0.4-6.8,1.4-13.4,5.4-19.7C406.4,147.4,408.9,145.9,411.1,145.7z"/>
	<path class="st0" d="M429.9,162.1c1.4-0.1,2.1,0.4,2.2,1.6l-0.4,0.9l0.2,8.8c0.2,4,1.2,6.4,2.8,7.2l0.1,0.7c0,0.9-0.4,1.4-1.2,1.5
		h-0.3c-2.5-1.5-3.8-3.9-4-7.3H429c-1.1,3.7-2.5,5.5-4.3,5.6c-1.7-0.4-2.6-1.6-2.8-3.6c-0.3-4.5,1.3-9.1,4.6-13.8
		C427.7,162.8,428.8,162.2,429.9,162.1z M424.9,175.5l-0.1,1.4l0.1,0.9h0.5c2-6.1,3-9.8,2.9-11.1h-0.2
		C426.3,168.8,425.2,171.8,424.9,175.5z"/>
	<path class="st0" d="M435.1,155.3c1.2,0.2,1.9,0.7,1.9,1.5c-0.3,0.9-0.8,1.4-1.5,1.4c-1.2-0.2-1.8-0.7-1.9-1.7
		C434,155.8,434.4,155.4,435.1,155.3z M437.3,161.9c0.5,0,1,0.4,1.4,1.3l-0.2,3.4l0.1,2.3c0.2,2.6,0.8,6,2,10.2
		c-0.3,0.6-0.8,1-1.6,1c-1.3,0.1-2.4-3.7-3.3-11.3l-0.1-1.7C435.4,163.8,436,162,437.3,161.9z"/>
	<path class="st0" d="M448.3,163.4c2.7,0.1,4.2,1.3,4.3,3.7l0.1,0.6l0.4,7.5c0.1,0.9,0.6,2,1.7,3.4v0.1c-0.2,0.9-0.6,1.4-1.3,1.5
		c-2-0.7-3.1-2.4-3.3-5.1v-0.6l-0.1-0.1l0.1-0.2v-0.1l-0.3-6.6c-0.1-0.9-0.5-1.4-1.3-1.3H448c-1.6,0.7-2.1,4.3-1.8,10.6
		c0.1,2.2-0.4,3.3-1.5,3.4c-0.9,0.1-1.3-0.5-1.4-1.5l-0.3-4.8c-0.4-6.2,0-9.3,1.1-9.4l0.5-0.2l1,0.1
		C446.5,163.8,447.4,163.5,448.3,163.4z"/>
	<path class="st0" d="M479,152.8c2.2-0.1,3.5,1.4,4.1,4.5c0.2,2.6-0.4,4.3-1.5,5h-0.3c-0.9,0-1.4-0.3-1.4-0.9v-3.6l-0.1-1.8
		l-0.3-0.3H479c-1,0.1-2,3-3.1,8.7l-0.1,3.6l0.1,1.1c0.2,3.3,1.8,5.2,4.8,5.6l2-0.1c3.3-0.2,7.2-2.6,11.7-7.1h0.2
		c0.9-0.1,1.4,0.5,1.6,1.5c-0.6,2-1.4,3-2.4,3c-4.4,3.5-8.4,5.4-12,5.6s-6.3-1.6-8.1-5.5l-0.6-3.4v-0.6c-0.3-5,0.8-9.6,3.4-13.9
		C477.1,153.3,478,152.9,479,152.8z"/>
	<path class="st0" d="M503.5,157.4c2-0.1,3.3,1.2,3.8,4v0.4c0.2,3.1-1.2,6-4.3,8.8c2,1.7,5.3,2.4,9.9,2.1c0.7,0.2,1.1,0.7,1.1,1.4
		c0.1,0.9-0.5,1.3-1.6,1.4c-3.1,0.2-6.5-0.4-10-1.8l0.1,1.4c0.2,3.3-0.4,5-1.8,5.1c-1,0.1-1.6-1.8-1.8-5.6l-0.2-3.7l-0.2-1.3
		l0.2-1.6l-0.6-4.6v-0.2c-0.1-0.9,0.4-1.5,1.2-1.9C500.5,158.8,501.9,157.5,503.5,157.4z M501.8,168c0.9-0.1,1.9-1.8,2.8-5.2
		l-0.1-2.1l-0.6-0.6h-0.4C502.1,161.2,501.5,163.8,501.8,168z"/>
	<path class="st0" d="M519.1,158.1c1.3,0,3.6,2.1,6.9,6.3l0.1,0.8c0.1,0.9-2.1,1.7-6.4,2.5l-0.1,0.2v0.2c0.8,2.8,1.6,4.2,2.4,4.2
		h0.6c1-0.1,2.5-1.3,4.5-3.6h0.3c0.6,0,1.2,0.4,1.6,1.3c0,0.8-1.2,2.2-3.8,4.2c-0.7,0.5-1.5,0.8-2.5,1.1c-2.6,0.2-4.5-2.2-5.8-7
		c-1.5-0.1-2.3-0.7-2.3-1.7c0-0.7,0.5-1.2,1.5-1.5v0.2l0.5-0.2l-0.1-1.2C516.1,160.1,517,158.2,519.1,158.1z M519.6,161.5h-0.4
		l-0.1,1.8l0.1,1.5h0.2c1.8-0.2,2.7-0.4,2.6-0.7C521.1,162.9,520.3,162,519.6,161.5z"/>
	<path class="st0" d="M538.8,155.6c1.4-0.1,2.1,0.4,2.2,1.6l-0.4,0.9l0.2,8.8c0.2,4,1.2,6.4,2.8,7.2l0.1,0.7c0,0.9-0.4,1.4-1.2,1.5
		h-0.3c-2.5-1.5-3.8-3.9-4-7.3h-0.3c-1.1,3.7-2.5,5.5-4.3,5.6c-1.7-0.4-2.6-1.6-2.8-3.6c-0.3-4.5,1.3-9.1,4.6-13.8
		C536.6,156.3,537.7,155.7,538.8,155.6z M533.8,169l-0.1,1.4l0.1,0.9h0.5c2-6.1,3-9.8,2.9-11.1H537
		C535.2,162.3,534.1,165.3,533.8,169z"/>
	<path class="st0" d="M548.8,144.4c0.9,0.1,1.4,0.6,1.4,1.3l-0.2,2.1v0.6c0.1,1.4,0.3,2.9,0.7,4.4h0.1c3.6-1.3,5.9-2,6.8-2.1
		c0.9,0.2,1.4,0.6,1.5,1.3c0.1,1.1-1,1.7-3.2,1.8l-4.9,2.1c0.3,4.3,1.1,10.1,2.4,17.5c-0.1,0.9-0.6,1.3-1.3,1.4H552
		c-1.1,0.1-1.8-1.3-1.9-4.2c-0.5-2.1-1.2-6.7-1.9-13.9l-0.9,0.1c-3,0-4.6-0.6-4.6-1.8c0-0.4,0.3-0.8,0.9-1.4h0.5l2.2,0.4l1.5-0.1
		l-0.8-6C547.1,145.7,547.6,144.5,548.8,144.4z"/>
	<path class="st0" d="M568.5,154.3c2.4-0.1,4.3,1.5,5.7,4.9l0.3,1c0.2,3.4-1.2,7-4.2,10.8c-1.2,1.3-2.5,1.9-3.8,2
		c-1.9,0.1-3.3-0.9-4.3-3.1c-0.3-1-0.5-1.9-0.6-2.7v-0.6c-0.3-5,1.3-9,4.8-11.8C567.1,154.5,567.7,154.3,568.5,154.3z M564.5,167
		c0.1,2.2,0.8,3.2,1.9,3.2c2.3-0.1,4.1-3.2,5.3-9.3l-0.1-0.9c-0.7-1.9-1.7-2.9-3.2-2.8c-0.6,0-0.8,0.5-0.8,1.2c0,0.5-0.6,1-1.8,1.4
		C564.7,161.8,564.3,164.2,564.5,167z"/>
	<path class="st0" d="M582.5,152.6c2-0.1,3.3,1.2,3.8,4v0.4c0.2,3.1-1.2,6-4.3,8.8c2,1.7,5.3,2.4,9.9,2.2c0.7,0.2,1.1,0.7,1.1,1.4
		c0.1,0.9-0.5,1.3-1.6,1.4c-3.1,0.2-6.5-0.4-10-1.8l0.1,1.4c0.2,3.3-0.4,5-1.8,5.1c-1,0.1-1.6-1.8-1.8-5.6l-0.2-3.7l-0.2-1.3
		l0.2-1.6l-0.6-4.6v-0.2c-0.1-0.9,0.4-1.5,1.2-1.9C579.4,154.1,580.8,152.7,582.5,152.6z M580.7,163.3c0.9-0.1,1.9-1.8,2.8-5.2
		l-0.1-2.1l-0.6-0.6h-0.4C581,156.5,580.4,159.1,580.7,163.3z"/>
	<path class="st0" d="M603.2,150.9c0.9-0.1,1.5,1.4,2,4.3c-0.3,0.8-0.8,1.2-1.5,1.3c-0.5-0.1-1.1-0.6-1.6-1.7l-0.9-0.2
		c-1.5,0.1-2.8,1.2-3.9,3.2v0.4c0,0.5,2.3,1.1,6.9,2c2,1,3,2.3,3.1,3.9c0.2,2.6-1.8,5-5.9,7.1l-1.8,0.4c-2.7-0.1-4.1-1.4-4.3-3.8
		v-0.1c0-0.8,0.4-1.2,1.4-1.4c0.8,0,1.3,0.7,1.7,2.3l0.4,0.3h0.8c1.8-0.1,3.4-1.5,4.9-4v-0.6c-0.1-1-2.2-1.7-6.4-2.3
		c-2.3-0.8-3.4-1.9-3.5-3.5c-0.1-2.1,1.5-4.1,4.9-6.2C600.9,151.7,602.2,151.3,603.2,150.9z"/>
</g>
<g class="st60">
	<path class="st0" d="M427.3,387.5l0.8-0.1c5.2-0.5,8.7,1.1,10.5,4.8l0.3,1.5v0.5c0.3,3.7-1.6,7.3-5.8,10.9
		c-1.1,0.4-1.6,0.8-1.5,1.2c1.7,4.8,2.7,8.7,3,11.8l0.1,0.6c0.1,1.3-0.4,2-1.4,2c-0.8,0-1.2-0.4-1.3-1.1l-0.1-1.2
		c-0.3-3.7-1.3-7.6-3-11.8c-2.6,0-4.1-0.6-4.5-1.7v-0.3c0-0.6,0.4-1.1,1.2-1.5l2.2,0.5v-0.1c-1.5-4.6-2.3-7.8-2.5-9.4
		c-0.1-0.9,0.4-1.4,1.5-1.5c1-0.1,1.6,1.6,1.9,4.9l1.9,5.6c2.2-1,3.9-2.6,5-5c0.6-1.3,0.8-2.5,0.7-3.5l-0.1-0.6
		c-0.2-2.6-2.6-3.9-7.1-3.9l-2,0.2c-4.3,0.9-6.4,2.1-6.3,3.7v0.3c0,0.5,0.4,1.2,1,2.2c0.1,0.7-0.5,1.2-1.6,1.5
		c-1.3-0.5-2.1-1.7-2.2-3.6C417.6,391,420.7,388.7,427.3,387.5z"/>
	<path class="st0" d="M450.3,398.6c1.4-0.1,2.2,0.4,2.2,1.5l-0.4,0.9l0.5,8.8c0.3,4,1.4,6.3,3,7.2l0.2,0.7c0,0.9-0.4,1.4-1.2,1.5
		h-0.3c-2.5-1.4-3.9-3.8-4.2-7.1h-0.3c-1,3.7-2.4,5.6-4.2,5.8c-1.7-0.3-2.7-1.5-2.9-3.6c-0.4-4.5,1-9.1,4.2-13.9
		C448.2,399.2,449.3,398.7,450.3,398.6z M445.7,412.1l-0.1,1.4l0.1,0.9h0.5c1.9-6.2,2.8-9.9,2.6-11.2h-0.2
		C446.9,405.3,446,408.3,445.7,412.1z"/>
	<path class="st0" d="M455.4,391.6c1.2,0.1,1.9,0.6,2,1.5c-0.2,0.9-0.7,1.4-1.4,1.5c-1.2-0.1-1.8-0.7-1.9-1.6
		C454.2,392.1,454.7,391.7,455.4,391.6z M457.8,398.2c0.5,0,1,0.4,1.4,1.3l-0.1,3.4l0.2,2.2c0.2,2.6,1,6,2.2,10.2
		c-0.3,0.6-0.8,1-1.5,1c-1.3,0.1-2.5-3.6-3.6-11.3l-0.1-1.7C455.9,400,456.4,398.3,457.8,398.2z"/>
	<path class="st0" d="M468.8,399.3c2.7,0,4.2,1.2,4.4,3.6l0.2,0.6l0.6,7.5c0.1,0.9,0.7,2,1.8,3.4v0.1c-0.2,0.9-0.6,1.4-1.3,1.5
		c-2-0.7-3.2-2.3-3.4-5l-0.1-0.6l-0.2-0.1l0.1-0.2V410l-0.4-6.6c-0.1-0.9-0.5-1.4-1.3-1.3h-0.6c-1.5,0.8-2,4.3-1.5,10.7
		c0.2,2.2-0.3,3.3-1.4,3.4c-0.9,0.1-1.4-0.4-1.5-1.5l-0.4-4.8c-0.5-6.2-0.3-9.3,0.8-9.4l0.5-0.2l1,0.1
		C467,399.8,467.8,399.4,468.8,399.3z"/>
	<path class="st0" d="M501.1,385.3h0.2c3.9,0.4,6,2.1,6.3,5.1l0.1,0.9c0.3,3.3-1.6,6.9-5.5,10.6v0.2c7.5,5.6,12.5,8.3,15.2,8
		c0.5,0.3,0.8,0.7,0.8,1.2c0.1,0.7-0.4,1.2-1.5,1.5c-2.6,0.2-7.9-2.5-15.7-8.3l-2.2-0.9h-0.1c1.2,3.5,1.9,6.2,2.1,8.2
		c0.1,0.8-0.4,1.5-1.4,1.9c-1.5,0.1-2.7-3.4-3.7-10.5c-1.3-3.2-2-5.8-2.2-7.8V395c-0.3-2.9,0.3-4.4,1.5-4.5l0.9,0.4h0.3
		C497.3,387.3,499,385.5,501.1,385.3z M498.3,398.4v1.8c3-0.3,5.1-2.9,6.5-8l-0.2-1.8c-0.1-1.4-1.2-2.2-3.1-2.3h-0.3
		C499.3,388.4,498.3,391.8,498.3,398.4z"/>
	<path class="st0" d="M522.9,393.5c1.3-0.1,3.6,2,7,6.1l0.2,0.8c0.1,0.9-2,1.8-6.4,2.6l-0.1,0.2v0.2c0.9,2.8,1.7,4.2,2.5,4.1h0.6
		c1-0.1,2.5-1.3,4.4-3.7h0.3c0.6-0.1,1.2,0.4,1.6,1.3c0.1,0.8-1.2,2.2-3.7,4.3c-0.7,0.5-1.5,0.9-2.5,1.1c-2.6,0.2-4.6-2-6-6.8
		c-1.5-0.1-2.3-0.6-2.4-1.6c-0.1-0.7,0.4-1.2,1.5-1.5v0.2l0.5-0.2l-0.1-1.2C520,395.6,520.9,393.7,522.9,393.5z M523.5,397h-0.4v1.8
		l0.1,1.5h0.2c1.8-0.2,2.7-0.5,2.6-0.8C525.1,398.3,524.2,397.4,523.5,397z"/>
	<path class="st0" d="M535.6,383.2c0.9,0.2,1.4,0.7,1.5,1.4l2.1,18.2l0.5,5.9c0.1,1.1-0.3,1.7-1.2,1.7l-0.6,0.1
		c-0.6-0.3-0.9-0.8-1-1.3l-0.5-5.5l-2.1-18.9C534.2,383.9,534.6,383.4,535.6,383.2z"/>
	<path class="st0" d="M541.6,384.1c1.2,0.1,1.9,0.6,2,1.5c-0.2,0.9-0.7,1.4-1.4,1.5c-1.2-0.1-1.8-0.7-1.9-1.6
		C540.4,384.6,540.9,384.2,541.6,384.1z M544,390.7c0.5,0,1,0.4,1.4,1.3l-0.1,3.4l0.2,2.2c0.2,2.6,1,6,2.2,10.2
		c-0.3,0.6-0.8,1-1.5,1c-1.3,0.1-2.5-3.6-3.6-11.2l-0.1-1.7C542.1,392.5,542.6,390.8,544,390.7z"/>
	<path class="st0" d="M553,390.9c1.3-0.1,3.6,2,7,6.1l0.2,0.8c0.1,0.9-2,1.8-6.4,2.6l-0.1,0.2v0.2c0.9,2.8,1.7,4.2,2.5,4.1h0.6
		c1-0.1,2.5-1.3,4.4-3.7h0.3c0.6-0.1,1.2,0.4,1.6,1.3c0.1,0.8-1.2,2.2-3.7,4.3c-0.7,0.5-1.5,0.9-2.5,1.1c-2.6,0.2-4.6-2-6-6.8
		c-1.5-0.1-2.3-0.6-2.4-1.6c-0.1-0.7,0.4-1.2,1.5-1.5v0.2l0.5-0.2l-0.1-1.2C550.1,393,550.9,391.1,553,390.9z M553.6,394.3h-0.4v1.8
		l0.1,1.5h0.2c1.8-0.2,2.7-0.5,2.6-0.8C555.1,395.7,554.3,394.8,553.6,394.3z"/>
	<path class="st0" d="M564.6,391c0.7-0.1,1.7,1.6,2.8,5.1c1.5,2.7,2.3,4.1,2.4,4.3c0.2,0,0.6-1.7,1.4-4.9c0.7-3.3,1.6-5,2.5-5
		c0.9,0.2,1.4,0.7,1.4,1.4c-2.1,7.1-3,11.7-2.8,13.9l-0.8,1l-0.9,0.1c-1.2-0.7-3.5-4.9-7-12.6l-0.6-1.7
		C563.2,391.5,563.7,391.1,564.6,391z"/>
	<path class="st0" d="M581.2,388.5c1.3-0.1,3.6,2,7,6.1l0.2,0.8c0.1,0.9-2,1.8-6.4,2.6l-0.1,0.2v0.2c0.9,2.8,1.7,4.2,2.5,4.1h0.6
		c1-0.1,2.5-1.3,4.4-3.7h0.3c0.6-0.1,1.2,0.4,1.6,1.3c0.1,0.8-1.2,2.2-3.7,4.3c-0.7,0.5-1.5,0.9-2.5,1.1c-2.6,0.2-4.6-2-6-6.8
		c-1.5-0.1-2.3-0.6-2.4-1.6c-0.1-0.7,0.4-1.2,1.5-1.5v0.2l0.5-0.2l-0.1-1.2C578.3,390.6,579.1,388.6,581.2,388.5z M581.8,391.9h-0.4
		v1.8l0.1,1.5h0.2c1.8-0.2,2.7-0.5,2.6-0.8C583.3,393.2,582.5,392.4,581.8,391.9z"/>
	<path class="st0" d="M598.1,385.3c2-0.2,3.3,1.1,4,3.9v0.4c0.3,3.1-1.1,6.1-4,8.9c2,1.7,5.3,2.3,9.9,1.9c0.7,0.2,1.1,0.6,1.2,1.4
		c0.1,0.9-0.4,1.3-1.6,1.4c-3.1,0.3-6.5-0.2-10.1-1.5l0.1,1.4c0.3,3.3-0.3,5-1.7,5.1c-1,0.1-1.6-1.8-2-5.6l-0.3-3.7l-0.3-1.3
		l0.2-1.6l-0.7-4.6v-0.2c-0.1-0.9,0.3-1.5,1.2-1.9C595.1,386.8,596.5,385.5,598.1,385.3z M596.7,396c0.9-0.1,1.8-1.8,2.7-5.2
		l-0.2-2.1l-0.6-0.6h-0.4C596.8,389.2,596.3,391.8,596.7,396z"/>
	<path class="st0" d="M618.8,383c0.9-0.1,1.6,1.3,2.1,4.2c-0.2,0.8-0.7,1.3-1.5,1.3c-0.5-0.1-1.1-0.6-1.7-1.6l-0.9-0.2
		c-1.5,0.1-2.8,1.2-3.8,3.3v0.4c0,0.5,2.4,1.1,7,1.8c2,1,3,2.2,3.2,3.8c0.2,2.6-1.7,5-5.7,7.2l-1.7,0.4c-2.7-0.1-4.2-1.3-4.4-3.7
		v-0.1c-0.1-0.8,0.4-1.3,1.4-1.5c0.8-0.1,1.3,0.7,1.7,2.3l0.4,0.3l0.8-0.1c1.8-0.2,3.4-1.5,4.7-4.2l-0.1-0.6c-0.1-1-2.2-1.7-6.5-2.1
		c-2.3-0.7-3.5-1.8-3.6-3.4c-0.2-2.1,1.4-4.2,4.7-6.3C616.6,383.9,617.8,383.5,618.8,383z"/>
</g>
<g class="st60">
	<path class="st0" d="M935.4,154.2c0.5,0,1,0.5,1.4,1.5c0,0.8-1.2,1.4-3.5,1.9c-2.9,1.6-5.2,4.5-6.8,8.5c-1.6,4.1-2.4,8.1-2.4,12
		c0,6.4,2,10.5,6.1,12.3l1.5,0.3c3.4,0,5.9-3,7.3-9l0.2-2c0-2.6-0.9-4.7-2.6-6.4h-0.3c-0.7,0.8-2,3.5-4,8.1l-1.1,0.7
		c-0.9,0-1.4-0.5-1.5-1.6c3-7.2,5.1-10.8,6.2-10.8h0.3c3.9,2.3,5.9,5.6,5.9,10c0,5-2,9.2-6.1,12.5c-0.7,0.6-2,1-4.1,1.3
		c-3.9,0-7.1-2.8-9.6-8.4c-0.7-2.4-1-4.6-1-6.6v-0.7c0-6.8,2.2-13.3,6.6-19.4C930.6,155.6,933.1,154.2,935.4,154.2z"/>
	<path class="st0" d="M953.1,171.7c1.4,0,2.1,0.6,2.1,1.7l-0.4,0.9l-0.3,8.8c0,4,0.8,6.4,2.4,7.4l0.1,0.7c-0.1,0.9-0.5,1.4-1.3,1.4
		h-0.3c-2.4-1.6-3.6-4.1-3.6-7.5h-0.3c-1.3,3.6-2.8,5.4-4.7,5.4c-1.7-0.5-2.5-1.7-2.5-3.8c0-4.5,1.8-9,5.4-13.5
		C950.9,172.2,952.1,171.7,953.1,171.7z M947.3,184.8l-0.2,1.3v0.9h0.5c2.4-6,3.6-9.6,3.6-10.9H951
		C949.1,178.2,947.9,181.1,947.3,184.8z"/>
	<path class="st0" d="M958.7,165.2c1.2,0.3,1.8,0.8,1.8,1.6c-0.3,0.9-0.8,1.3-1.5,1.3c-1.2-0.2-1.8-0.8-1.8-1.8
		C957.6,165.6,958.1,165.2,958.7,165.2z M960.6,172c0.5,0,0.9,0.5,1.3,1.4l-0.4,3.4v2.2c0,2.6,0.4,6.1,1.3,10.3
		c-0.3,0.6-0.9,0.9-1.6,0.9c-1.3,0-2.2-3.8-2.6-11.5V177C958.5,173.7,959.2,172,960.6,172z"/>
	<path class="st0" d="M971.4,174.1c2.7,0.2,4.1,1.6,4.1,4l0.1,0.6l-0.1,7.5c0,0.9,0.5,2,1.5,3.5v0.1c-0.3,0.9-0.7,1.4-1.4,1.4
		c-2-0.8-3-2.6-3-5.3v-0.6l-0.1-0.1l0.1-0.2v-0.1l0.1-6.6c0-0.9-0.4-1.4-1.2-1.4h-0.6c-1.6,0.6-2.4,4.1-2.4,10.5
		c0,2.2-0.6,3.3-1.7,3.3c-0.9,0-1.3-0.5-1.3-1.6v-4.8c0-6.2,0.5-9.3,1.6-9.3l0.5-0.1l1,0.1C969.6,174.4,970.5,174.1,971.4,174.1z"/>
	<path class="st0" d="M988.1,170.8c0.9,0,1.5,1.5,1.8,4.4c-0.3,0.8-0.8,1.2-1.6,1.2c-0.5-0.1-1-0.7-1.5-1.8l-0.9-0.3
		c-1.5,0-2.9,1-4.1,3v0.4c0,0.5,2.3,1.3,6.8,2.4c1.9,1.1,2.8,2.5,2.8,4.1c0,2.6-2.1,4.9-6.3,6.7l-1.8,0.3c-2.7-0.3-4-1.6-4-4V187
		c0-0.8,0.5-1.2,1.5-1.3c0.8,0,1.3,0.8,1.5,2.4l0.4,0.3h0.8c1.8,0,3.5-1.2,5.1-3.7V184c0-1-2.1-1.9-6.3-2.7
		c-2.2-0.9-3.3-2.1-3.3-3.7c0-2.1,1.7-4,5.2-5.9C985.8,171.5,987.1,171.2,988.1,170.8z"/>
</g>
<g class="st60">
	<path class="st0" d="M906.3,406.4h0.8c5.2,0,8.6,1.9,10,5.7l0.1,1.5v0.5c0,3.7-2.3,7.2-6.8,10.3c-1.1,0.3-1.6,0.7-1.6,1.1
		c1.3,4.9,1.9,8.9,1.9,12v0.6c0,1.3-0.5,1.9-1.6,1.9c-0.8-0.1-1.2-0.5-1.2-1.2v-1.2c0-3.7-0.7-7.7-2-12c-2.6-0.2-4-0.9-4.3-2.1v-0.3
		c0-0.6,0.4-1,1.3-1.3l2.1,0.7v-0.1c-1.1-4.7-1.6-7.9-1.6-9.6c0-0.9,0.5-1.4,1.6-1.4c1,0,1.5,1.7,1.5,5.1l1.4,5.7
		c2.3-0.8,4.1-2.3,5.4-4.5c0.7-1.3,1-2.4,1-3.4v-0.6c0-2.6-2.2-4.1-6.7-4.5h-2c-4.4,0.5-6.6,1.5-6.6,3.1v0.3c0,0.5,0.3,1.2,0.8,2.3
		c0,0.7-0.6,1.2-1.7,1.3c-1.3-0.6-1.9-1.9-1.9-3.7C896.3,409,899.6,406.9,906.3,406.4z"/>
	<path class="st0" d="M928.2,419.4c1.4,0,2.1,0.6,2.1,1.7l-0.4,0.9l-0.3,8.8c0,4,0.8,6.4,2.4,7.4l0.1,0.7c-0.1,0.9-0.5,1.4-1.3,1.4
		h-0.3c-2.4-1.6-3.6-4.1-3.6-7.5h-0.3c-1.3,3.6-2.8,5.4-4.7,5.4c-1.7-0.5-2.5-1.7-2.5-3.8c0-4.5,1.8-9,5.4-13.5
		C926,419.9,927.2,419.4,928.2,419.4z M922.4,432.4l-0.2,1.3v0.9h0.5c2.4-6,3.6-9.6,3.6-10.9h-0.2
		C924.3,425.8,923,428.7,922.4,432.4z"/>
	<path class="st0" d="M933.8,412.9c1.2,0.3,1.8,0.8,1.8,1.6c-0.3,0.9-0.8,1.3-1.5,1.3c-1.2-0.2-1.8-0.8-1.8-1.8
		C932.7,413.3,933.2,412.9,933.8,412.9z M935.7,419.6c0.5,0,0.9,0.5,1.3,1.4l-0.4,3.4v2.3c0,2.6,0.4,6.1,1.3,10.3
		c-0.3,0.6-0.9,0.9-1.6,0.9c-1.3,0-2.2-3.8-2.6-11.5v-1.7C933.6,421.3,934.3,419.6,935.7,419.6z"/>
	<path class="st0" d="M946.6,421.7c2.7,0.2,4.1,1.6,4.1,4l0.1,0.6l-0.1,7.5c0,0.9,0.5,2,1.5,3.5v0.1c-0.3,0.9-0.7,1.4-1.4,1.4
		c-2-0.8-3-2.6-3-5.3v-0.6l-0.1-0.1l0.1-0.2v-0.1l0.1-6.6c0-0.9-0.4-1.4-1.2-1.4h-0.6c-1.6,0.6-2.4,4.1-2.4,10.5
		c0,2.2-0.6,3.3-1.7,3.3c-0.9,0-1.3-0.5-1.3-1.6v-4.8c0-6.2,0.5-9.3,1.6-9.3l0.5-0.1l1,0.1C944.7,422,945.6,421.7,946.6,421.7z"/>
	<path class="st0" d="M963.3,418.5c0.9,0,1.5,1.5,1.8,4.4c-0.3,0.8-0.8,1.2-1.6,1.2c-0.5-0.1-1-0.7-1.5-1.8l-0.9-0.3
		c-1.5,0-2.9,1-4.1,3v0.4c0,0.5,2.3,1.3,6.8,2.4c1.9,1.1,2.8,2.5,2.8,4.1c0,2.6-2.1,4.9-6.3,6.7l-1.8,0.3c-2.7-0.3-4-1.6-4-4v-0.1
		c0-0.8,0.5-1.2,1.5-1.3c0.8,0,1.3,0.8,1.5,2.4l0.4,0.3h0.8c1.8,0,3.5-1.2,5.1-3.7v-0.6c0-1-2.1-1.9-6.3-2.7
		c-2.2-0.9-3.3-2.1-3.3-3.7c0-2.1,1.7-4,5.2-5.9C960.9,419.2,962.2,418.9,963.3,418.5z"/>
</g>
<g class="st60">
	<path class="st0" d="M1043.2,234.8c2.2,0,3.4,1.6,3.8,4.7c0,2.6-0.6,4.2-1.8,4.9h-0.3c-0.9-0.1-1.4-0.4-1.4-1l0.2-3.6V238l-0.3-0.3
		h-0.5c-1,0-2.2,2.8-3.6,8.5l-0.3,3.6v1.1c0,3.3,1.5,5.3,4.5,5.9h2c3.3,0,7.4-2.1,12.1-6.4h0.2c0.9,0,1.4,0.5,1.5,1.6
		c-0.7,1.9-1.6,2.9-2.6,2.9c-4.6,3.3-8.7,4.9-12.3,4.9s-6.2-2-7.7-6l-0.4-3.4v-0.6c0-5,1.4-9.5,4.2-13.7
		C1041.3,235.2,1042.2,234.8,1043.2,234.8z"/>
	<path class="st0" d="M1063,245.3l0.9-0.5c0.8,0,1.3,0.5,1.7,1.4c-0.5,2.4-0.8,4.8-0.8,7.3c0,1.2,0.4,2.6,1.1,4.1h0.3
		c0.9,0,2-3.7,3.3-11c0.4-0.4,0.9-0.6,1.3-0.6c1,0,1.5,1.8,1.5,5.3c0.4,3.9,0.9,5.8,1.4,5.8l0.7-0.3c0.9,0.4,1.4,0.8,1.4,1.5
		c-0.6,1.2-1.4,1.8-2.4,1.8c-1.2,0-2.3-1.2-3.3-3.5c-1.3,2.7-2.6,4-3.9,4c-2,0-3.3-2-4.1-6.1l-0.1-1.5v-0.5
		C1062,250,1062.3,247.6,1063,245.3z"/>
	<path class="st0" d="M1086.5,240.3c0.9,0,1.5,1.5,1.8,4.4c-0.3,0.8-0.8,1.2-1.6,1.2c-0.5-0.1-1-0.7-1.5-1.8l-0.9-0.3
		c-1.5,0-2.9,1-4.1,3v0.4c0,0.5,2.3,1.3,6.8,2.4c1.9,1.1,2.8,2.5,2.8,4.1c0,2.6-2.1,4.9-6.3,6.7l-1.8,0.3c-2.7-0.3-4-1.6-4-4v-0.1
		c0-0.8,0.5-1.2,1.5-1.3c0.8,0,1.3,0.8,1.5,2.4l0.4,0.3h0.8c1.8,0,3.5-1.2,5.1-3.7v-0.6c0-1-2.1-1.9-6.3-2.7
		c-2.2-0.9-3.3-2.1-3.3-3.7c0-2.1,1.7-4,5.2-5.9C1084.1,241,1085.4,240.7,1086.5,240.3z"/>
	<path class="st0" d="M1097.2,230.6c0.9,0.2,1.3,0.6,1.3,1.3l-0.2,2.1v0.6c0,1.4,0.2,2.9,0.5,4.5h0.1c3.7-1.1,6-1.7,6.9-1.7
		c0.9,0.3,1.4,0.7,1.4,1.4c0,1.1-1.1,1.6-3.3,1.6l-5,1.8c0,4.3,0.5,10.2,1.4,17.6c-0.2,0.9-0.7,1.3-1.4,1.3h-0.1
		c-1.1,0-1.7-1.4-1.7-4.3c-0.4-2.1-0.8-6.8-1.1-14h-0.9c-3-0.2-4.5-0.9-4.5-2.1c0-0.4,0.3-0.8,1-1.3h0.5l2.2,0.6h1.5l-0.4-6
		C1095.4,231.7,1096,230.6,1097.2,230.6z"/>
	<path class="st0" d="M1116.3,241.6c2.4,0,4.2,1.8,5.4,5.3l0.2,1c0,3.4-1.6,6.9-4.8,10.5c-1.3,1.2-2.6,1.8-3.9,1.8
		c-1.9,0-3.3-1.1-4.1-3.3c-0.3-1-0.4-1.9-0.4-2.7v-0.6c0-5.1,1.8-8.9,5.5-11.5C1114.8,241.8,1115.5,241.6,1116.3,241.6z
		 M1111.5,254.1c0,2.2,0.6,3.3,1.7,3.3c2.3,0,4.3-3,5.8-9v-0.9c-0.5-2-1.6-3-3-3c-0.6,0-0.9,0.4-0.9,1.2c0,0.5-0.6,1-1.9,1.3
		C1112,248.9,1111.5,251.3,1111.5,254.1z"/>
	<path class="st0" d="M1124.7,242.9c0.2-0.8,0.7-1.2,1.5-1.2c0.8,0,1.3,0.8,1.6,2.4h0.2l2.2-0.5c1,0,2,1,3,2.9h0.2
		c1.4-2.2,2.8-3.3,4.3-3.3c3.1,0.6,4.7,2.6,4.7,6.1l0.1,1.7l-0.4,9.7v0.9c0,0.8-0.5,1.3-1.5,1.4c-1,0-1.5-1.2-1.5-3.5l0.6-8.7
		c0-3.2-0.8-4.8-2.3-4.8c-0.9,0-1.9,2.1-3.1,6.3c-0.6,4.8-1.1,7.2-1.5,7.2c-0.5,0-0.8,0.1-0.8,0.3c-1-0.1-1.5-0.6-1.5-1.5l0.6-5.8
		c-0.1-4-0.5-6-1.2-6h-0.1c-0.8,0.6-1.2,1.8-1.2,3.6v2.5l-0.2,7.3c-0.2,0.8-0.7,1.2-1.5,1.2c-0.7,0-1.1-0.6-1.3-1.7l-0.2-5.7
		l0.3-4.7C1125.5,246.8,1125.2,244.7,1124.7,242.9z"/>
	<path class="st0" d="M1149.5,242.5c1.3,0,3.4,2.3,6.5,6.7l0.1,0.8c0,0.9-2.2,1.6-6.6,2.1l-0.1,0.1v0.2c0.7,2.9,1.4,4.3,2.1,4.3h0.6
		c1,0,2.6-1.1,4.7-3.3h0.3c0.6,0,1.1,0.5,1.5,1.4c0,0.8-1.3,2.1-4,4c-0.7,0.4-1.6,0.7-2.5,0.9c-2.6,0-4.4-2.4-5.4-7.3
		c-1.5-0.2-2.2-0.8-2.2-1.8c0-0.7,0.5-1.2,1.6-1.4v0.2l0.5-0.2V248C1146.4,244.3,1147.4,242.5,1149.5,242.5z M1149.8,245.9h-0.5
		l-0.2,1.8v1.5h0.2c1.8-0.1,2.7-0.3,2.7-0.6C1151.2,247.4,1150.4,246.5,1149.8,245.9z"/>
	<path class="st0" d="M1166.6,240.8c2,0,3.2,1.4,3.6,4.2v0.4c0,3.1-1.6,6-4.8,8.5c1.9,1.8,5.1,2.7,9.7,2.7c0.7,0.2,1.1,0.7,1.1,1.5
		c0,0.9-0.6,1.3-1.7,1.3c-3.1,0-6.4-0.8-9.9-2.4v1.4c0,3.3-0.7,4.9-2.1,4.9c-1,0-1.5-1.9-1.5-5.7V254l-0.1-1.3l0.3-1.5l-0.3-4.6
		v-0.2c0-0.9,0.4-1.5,1.3-1.8C1163.5,242.1,1165,240.8,1166.6,240.8z M1164.2,251.3c0.9,0,2-1.7,3.1-5v-2.1l-0.6-0.6h-0.4
		C1164.9,244.6,1164.2,247.2,1164.2,251.3z"/>
</g>
<g class="st60">
	<path class="st0" d="M1089.1,270.1h0.8c1,0.2,1.5,0.7,1.5,1.5c0,0.2-0.3,0.7-0.9,1.4v2.4c0,2.3,0.5,9.3,1.6,21c0,4.5-1.3,6.7-4,6.7
		c-2.2,0-5.5-3.1-9.9-9.4c-1.4,0-2.3-0.5-2.7-1.5l-0.3-1.2c0.3-1.2,0.8-1.8,1.6-1.8c1.8,0.7,4.4,3.6,7.8,8.5
		c1.7,1.7,2.8,2.5,3.5,2.5h0.3c0.5-0.2,0.7-1,0.7-2.3v-3l-1.5-18l-0.1-3.1C1087.5,271.4,1088,270.1,1089.1,270.1z"/>
	<path class="st0" d="M1102.4,282.6c2.4,0,4.2,1.8,5.4,5.3l0.2,1c0,3.4-1.6,6.9-4.8,10.5c-1.3,1.2-2.6,1.8-3.9,1.8
		c-1.9,0-3.3-1.1-4.1-3.3c-0.3-1-0.4-1.9-0.4-2.7v-0.6c0-5.1,1.8-8.9,5.5-11.5C1100.9,282.8,1101.6,282.6,1102.4,282.6z
		 M1097.6,295.1c0,2.2,0.6,3.3,1.7,3.3c2.3,0,4.3-3,5.8-9v-0.9c-0.5-2-1.6-3-3-3c-0.6,0-0.9,0.4-0.9,1.2c0,0.5-0.6,1-1.9,1.3
		C1098.1,289.9,1097.6,292.3,1097.6,295.1z"/>
	<path class="st0" d="M1110.4,277.9c1.7,0,2.7,3.3,3.2,9.8l0.3,1.5c1.5-3,2.7-4.5,3.6-4.5c0-0.1,0.3-0.2,1-0.3h0.2
		c2.1,0,3.5,1.6,4,4.9v0.1c0,2.8-1.4,5.9-4.2,9.3c-1.2,1.3-2.5,1.9-3.9,1.9c-1.6-0.4-2.4-1.2-2.4-2.4l-2.4-17.2l-0.7-1.8
		C1109.1,278.7,1109.6,278.3,1110.4,277.9z M1115.4,297.4L1115.4,297.4c1.8-0.7,3.2-3,4.5-6.9v-1.8c-0.3-1-0.7-1.5-1.1-1.5h-0.4
		C1117,288.1,1116,291.5,1115.4,297.4z"/>
	<path class="st0" d="M1134.8,281.3c0.9,0,1.5,1.5,1.8,4.4c-0.3,0.8-0.8,1.2-1.6,1.2c-0.5-0.1-1-0.7-1.5-1.8l-0.9-0.3
		c-1.5,0-2.9,1-4.1,3v0.4c0,0.5,2.3,1.3,6.8,2.4c1.9,1.1,2.8,2.5,2.8,4.1c0,2.6-2.1,4.9-6.3,6.7l-1.8,0.3c-2.7-0.3-4-1.6-4-4v-0.1
		c0-0.8,0.5-1.2,1.5-1.3c0.8,0,1.3,0.8,1.5,2.4l0.4,0.3h0.8c1.8,0,3.5-1.2,5.1-3.7v-0.6c0-1-2.1-1.9-6.3-2.7
		c-2.2-0.9-3.3-2.1-3.3-3.7c0-2.1,1.7-4,5.2-5.9C1132.5,282,1133.8,281.7,1134.8,281.3z"/>
</g>
</svg>
