<?xml version="1.0" encoding="utf-8"?>
<!-- Generator: Adobe Illustrator 25.1.0, SVG Export Plug-In . SVG Version: 6.00 Build 0)  -->
<svg version="1.1" id="Layer_1" xmlns="http://www.w3.org/2000/svg" xmlns:xlink="http://www.w3.org/1999/xlink" x="0px" y="0px"
	 viewBox="0 0 4839.7 2809.3" style="enable-background:new 0 0 4839.7 2809.3;" xml:space="preserve">
<style type="text/css">
	.st0{fill:#030303;}
	.st1{fill:#020202;}
	.st2{fill:#2D51A3;}
	.st3{fill:#8E4399;}
	.st4{fill:#08753D;}
	.st5{fill:#090909;}
	.st6{fill:#EE3D27;}
	.st7{fill:#13763F;}
	.st8{fill:#90459A;}
	.st9{fill:#3053A5;}
	.st10{fill:#177740;}
	.st11{fill:#3255A5;}
	.st12{fill:#2E51A4;}
	.st13{fill:#91469B;}
	.st14{fill:#934A9D;}
	.st15{fill:#0F763E;}
	.st16{fill:#9853A1;}
	.st17{fill:#EE432B;}
	.st18{fill:#9851A0;}
	.st19{fill:#2E52A4;}
	.st20{fill:#2F52A4;}
	.st21{fill:#070707;}
	.st22{fill:#0F1010;}
	.st23{fill:#191919;}
	.st24{fill:#0E0E0E;}
	.st25{fill:#040404;}
	.st26{fill:#8F439A;}
	.st27{fill:#0A0B0B;}
	.st28{fill:#EE3D28;}
	.st29{fill:#167740;}
	.st30{fill:#8F449A;}
	.st31{fill:#0D0D0D;}
	.st32{fill:#197841;}
	.st33{fill:#92489C;}
	.st34{fill:#EE402A;}
	.st35{fill:#207943;}
	.st36{fill:#297D48;}
	.st37{fill:#247B45;}
	.st38{fill:#EE462F;}
	.st39{fill:#3C8452;}
	.st40{fill:#2B7D48;}
	.st41{fill:#267B45;}
	.st42{fill:#EF4932;}
	.st43{fill:#EF4730;}
	.st44{fill:#91479B;}
	.st45{fill:#EF4735;}
	.st46{fill:#F0553F;}
	.st47{fill:#060606;}
	.st48{fill:#0F0F0F;}
	.st49{fill:#101111;}
	.st50{fill:#101010;}
	.st51{fill:#181919;}
	.st52{fill:#141414;}
	.st53{fill:#161616;}
	.st54{fill:#151616;}
	.st55{fill:#0B0B0B;}
	.st56{fill:#0B0C0C;}
	.st57{fill:#1A7841;}
	.st58{fill:#010101;}
</style>
<path class="st0" d="M3267.9,897.5c-63.3-1.1-126.6-0.7-189.8-3.9c-42.5-2.1-84.8-7.1-127.1-11.2c-34.3-3.3-68.7-3.9-103.1-3.6
	c-43.8,0.3-87.3-4.6-131.1-5.4c-2.5,0-5.5,0.3-7.1-2.4c-0.9-1.5,0.1-2.7,1.3-3.7c2.6-2.3,4.8-2.7,7.4,0.2c0.7,0.8,2.7,0.6,4.1,0.5
	c28.6-1.4,57,3.4,85.6,3.8c20.4,0.3,40.8,1.3,61.2,0.9c48.5-1,96.6,4.9,144.7,9.4c37.8,3.5,75.6,6.6,113.5,6.6
	c61.8,0,123.7,3.3,185.5,1.5c52.7-1.6,105.4-3.9,158.1-8.1c34.3-2.8,68.4-6.6,102.7-9.4c1.7-0.1,3.4-0.5,5.1-0.9
	c3-0.7,6.8-2.7,7.6,2.3c0.6,4.1-2.8,5.3-6.2,5.7c-18.3,1.8-36.5,3.7-54.8,5.2c-48.8,4-97.6,8-146.5,9.9
	C3342,896.5,3305,898.6,3267.9,897.5z"/>
<path class="st1" d="M2715.7,220.1c-8.4,19.6-5.7,40.6-6.3,60.9c-1.5,54.7-0.7,109.5-2.4,164.2c-3,98.1,0.2,196.3-2,294.4
	c-0.9,40.7-5.7,81.3-4.8,122.2c0,1.7-0.2,3.5-0.8,5.1c-0.9,2.6-1.1,6.4-5.2,5.7c-3.5-0.6-2.9-4-2.8-6.5c0.6-22.7,0.4-45.5,2.4-68.1
	c3.3-37.8,3.9-75.6,4.3-113.4c0.7-70.5-0.6-141,0.8-211.5c1.6-78.3,1.2-156.7,7-234.8c0.5-6.5-2-16.9,10-18.1L2715.7,220.1z"/>
<path class="st2" d="M3269,601.8c0.6,5.2-3.9,6.1-7,7.6c-14.2,6.6-28.5,13.1-43,19.1c-71.2,29.4-139.7,64.8-209.9,96.2
	c-35.5,15.9-72.3,29.1-107.6,45.4c-34.3,15.9-70.1,28.5-103.2,46.6c-27.6,15.1-56.3,27.8-83.6,43.3c-1.4,0.8-2.8,2.3-4.7,1.1
	c-1.7-2.5,0.7-2.9,2-3.7c12-7.7,25.2-13.3,37.7-20.1c79.8-43.3,164.1-76.8,247.2-113c60.2-26.2,118.9-55.7,178.5-83.2
	c23.5-10.8,47.6-20.3,71.3-30.4c6.7-2.8,13.1-6.1,18.8-10.8C3267.5,598.9,3268.3,600.2,3269,601.8z"/>
<path class="st3" d="M2992.3,415.9c-8.3,2.8-14.5,5.1-20.7,6.9c-2.7,0.8-7.4,1.3-7.6-1.8c-0.3-5.2,4.2-1.2,6.4-1.9
	c9.1-3.1,18.2-6,27-9.8c7.8-3.4,10.5-0.9,10.4,7c-0.1,8.7,0.2,17.5,0.3,26.2c0,1.8,1.3,4.7-1.8,4.7c-2.3,0.1-3-2.3-3-4.5
	c0-8.7,0-17.5-0.1-26.2c0-1,0.4-2.4-1.8-3.3c-9.9,14.6-20.1,29.2-31.1,43.1c-39.7,50-73.4,104.1-106.9,158.2
	c-41.7,67.3-85.2,133.4-130.1,198.6c-8.3,12.1-15.5,25-23.8,38.4c-3.1-4.8-0.1-7,1.3-9.4c25-43.4,54.9-83.6,81.8-125.8
	c31.6-49.5,63.5-98.9,93.7-149.3c24.5-40.7,52.6-78.9,81.5-116.5C2976,440,2984.3,429.3,2992.3,415.9z"/>
<path class="st4" d="M3102.2,858.9c-3.1-7.9-10.1-12.4-9.5-21.8c8.1,7.7,12.6,16.8,19.9,23.7c2.2,2.1-1.3,7.7-5,9.8
	c-5.1,2.8-10.4,5.1-15.7,7.6c-1.4,0.6-3,2.8-4.3,0.3c-0.9-1.8,0.4-3.5,1.9-4.4c5-2.7,10.2-5.2,15.1-9.1c-3-0.1-5.9-0.4-8.9-0.4
	c-108.7,0-217.5,0-326.2,0.2c-11.5,0-23.2-2.3-34.7,0.7c-2,0.5-3.7-0.7-4-2.4c-0.3-2.1,1.8-2.8,3.5-3.1c2.3-0.3,4.6-0.6,6.9-0.5
	c74.6,2.5,149.2-1.7,223.8-0.6C3010.5,859.4,3056,858.9,3102.2,858.9z"/>
<path class="st5" d="M2715.9,220.3c-4-8.6-5-8.9-10-1.3c-7.9,11.8-15.4,23.9-23.1,35.9c-0.5,0.7-0.9,1.5-1.5,2.2
	c-2.2,2.9-4.6,7.9-8.6,4.8c-4-3.1,0.1-9.6,1.9-10.5c8.5-4,10.5-12.5,15.3-19c5.1-7,9.5-14.6,14.8-21.5c4.2-5.5,9.7-5.9,13.9-0.3
	c11.6,15.2,22.7,30.8,32.4,47.3c0.4,0.6,0,1.6,0,3.5c-6.6-1.7-10.5-6.3-14-10.9c-7.4-9.9-14.3-20.2-21.4-30.4
	C2715.7,220.1,2715.9,220.3,2715.9,220.3z"/>
<path class="st5" d="M3616.3,880.6c0.2,4.1-2.1,7.1-4.6,10c-8.8,10-20.9,15.5-31.1,23.5c-1.7,1.3-3.8,1.7-5.5-0.2
	c-1.9-2.1-0.4-3.9,0.8-5.4c3.4-4,8.2-6.4,12.6-9.2c6.1-4,12.2-7.8,17.3-13c4.3-4.5,4.7-7.9-1.2-11.7c-9.3-5.9-18.2-12.4-27.1-18.8
	c-2.3-1.7-4.5-3.7-6.5-5.8c-1.1-1.1-0.8-2.7,0.3-3.9c1.2-1.3,2.5-1.3,3.8-0.3c12.8,9,25.6,18,38.3,27
	C3616.2,874.7,3616.2,877.7,3616.3,880.6z"/>
<path class="st6" d="M2964.4,595.3c-4.5,5.2-5,10.3-6.4,14.9c-0.7,2.4-1.7,4.7-4.3,4.7c-3.1,0-4.4-2.4-4.9-5.1
	c-0.7-3.9-1.4-7.9-2.2-12.5c-6.9,8.4-4,18.3-6,27.1c-0.5,2.3,1.1,6.4-2.4,6.5c-4.2,0.1-3.3-4.1-3.1-6.7c0.5-9,0.5-18.1,5.2-26.2
	c1.9-3.2,3-7.8,7.6-7.3c5.1,0.5,4.3,5.3,5,8.9c0.3,1.4,0.8,2.7,1.5,5.1c2.6-5.4,4.7-9.9,7-14.3c1.1-2,2.4-4.3,5.3-3.5
	c2.7,0.7,3.1,3,3.5,5.4c1.4,9.5,1.4,19.1,1.3,28.7c0,2.9-1,5.8-4,5.6c-2.5-0.1-3-3-3-5.5C2964.4,613,2964.4,604.9,2964.4,595.3z"/>
<path class="st7" d="M3175,828.3c-3.4,6.3-3.9,14.4-13.2,11.9c-6.4-1.7-17.1-15.4-16.4-21.1c0.2-1.3,1-3,2.1-3.5
	c2.3-1,2.6,1.3,3.4,2.8c1.4,2.5,2.6,5.2,4.3,7.5c7.6,10.2,9.6,10,14.4-1.3c2.4-5.7,5.5-5.4,9-1.4c4.7,5.2,9.8,8.9,17.3,8.3
	c5.5-0.4,8.2-3.8,10.3-8.1c0.4-0.9,0.5-2.5,0-3.3c-0.8-1.2-6.4,2.2-3.1-3.1c1.7-2.6,4.2-4.2,7.4-3.1c3,1,3.4,3.7,3.5,6.4
	c0.2,8.3-7.7,16.9-16,17.8C3188.8,839.2,3181.5,835.9,3175,828.3z"/>
<path class="st8" d="M3027.3,328.3c4-5.9,7.9-11.8,11.9-17.7c1.5-2.2,3.1-4.3,5.6-5.4c2-0.9,4.2-1,5.2,1.4c0.7,1.8,1.4,4.4-1.5,4.9
	c-3.1,0.5-4,3-5.7,4.9c-5.6,6.1-7,12-0.3,18.4c3.8,3.6,4,9.5,8.7,13.5c-6.3-0.7-6.3-0.7-17.8-15.7c-3.3,3-5.1,6.8-6.3,11
	c-0.5,1.7-1.7,3.1-3.9,2.8c-2.3-0.3-2.3-2.1-2.6-3.9c-1.2-10.1-2.2-20.2-1.2-30.4c0.2-2.2-0.2-5.3,2.9-5.4c3.1-0.1,3.2,3,3.3,5.2
	c0.2,5.4,0.1,10.8,0.1,16.1C3026.2,328.1,3026.8,328.2,3027.3,328.3z"/>
<path class="st9" d="M3446,554.5c-0.6-0.6-1.2-1.1-1.9-1.7c1.1-1.3,3.3-2.6,3.2-3.8c-0.4-10.9,6.9-14,15.5-15.1
	c7-0.9,14.7,5.7,17.5,14.5c1.1,3.4,3.4,8.9,0.1,10.3c-4,1.7-5.6-3.8-7.2-7c-2-4-4-7.8-8.3-9.8c-6.6-3.1-12-0.2-11.7,6.7
	C3453.8,555.1,3450.6,555.2,3446,554.5z"/>
<path class="st10" d="M3283.5,826.2c-0.2,2.2,0.6,5.3-2.4,5.7c-2.4,0.3-2.6-2.4-3.5-4.3c-4.2-8.9-6.1-9.1-12.3-1.8
	c-3.5,4.1-5.9,0.9-8.5-1.4c-5.4-4.7-8.2-3.8-10.1,3.1c-0.6,2.3-0.5,5.2-3.9,3.8c-2.6-1-4-3.2-2.9-6.4c2.6-7.3,11.1-11.3,17.5-7.1
	c3.4,2.2,4.8,2.2,7.6-0.6c3.3-3.3,8.1-3.7,12.2-1.7C3281.2,817.6,3283.6,821.4,3283.5,826.2z"/>
<path class="st6" d="M2922.5,668.9c0.5-8.5,4.6-13.1,10.9-12.3c5,0.6,9,2.3,8.5,8.6c-0.6,7.4-6.3,14.3-11.9,13.6
	C2923.9,678.1,2921.9,674.1,2922.5,668.9z"/>
<path class="st11" d="M3269,601.8c-1.2-0.6-2.4-1.2-3.6-1.9c-5.4-2.4-10.6-5-16.9-2.9c-3.1,1-6.1-1.9-6.1-4.6c0-3.6,3.6-2.7,6.1-2.2
	c5.4,1,10.8,2,16.1,3.5c13.6,3.7,15.3,6.2,13.2,20.3c-0.8,5.3-2,10.6-3.2,16.5c-5-3.1-3.8-7.3-3-11c1-4.9,1.3-9.8,1.1-14.7
	C3272.7,602.6,3272.7,599.6,3269,601.8z"/>
<path class="st12" d="M3289.2,594.2c-4.3-0.4-8.3-1.2-8.2-7.3c0.1-7,4.8-11.3,13.2-11.6c4.5-0.2,7,1.5,6.9,6.5
	C3300.9,588.8,3296,594.1,3289.2,594.2z"/>
<path class="st13" d="M3022.4,392.4c-0.1,6.9-7.1,13.8-12.5,13.5c-3.5-0.2-6.3-1.4-6.4-5.5c-0.1-4.5,7.6-13.7,11.6-13.6
	C3019.3,387,3022.2,388.8,3022.4,392.4z"/>
<path class="st14" d="M3093.5,344.7c-2.4-3.7-2-8-3.5-11.7c-1-2.5-0.4-7.3-5.2-6.3c-3.8,0.8-6.8,2.9-7.1,7.6
	c-0.2,2.7,2.7,7.6-2.3,7.4c-3.7-0.2-3.3-5.5-3.6-8.8c-0.3-3.6,10.4-12.4,15-12.4c6.3,0.1,8.1,5.2,8.9,10
	C3096.7,335.2,3097,340.2,3093.5,344.7z"/>
<path class="st15" d="M3129.7,859.8c-1.5,3.6,1.3,11.1-6,11.5c-7.2,0.3-7.1-6.2-6.9-11.5c0.2-4.5-0.1-10,6.6-10
	C3129.3,849.9,3130,854.4,3129.7,859.8z"/>
<path class="st16" d="M3067.9,337.1c-0.4,2.6-0.5,6.6-2.9,5.4c-5.1-2.7-3.9-8.9-5.3-13.7c-0.6-2.2,0.7-5.8,3.2-4.7
	C3068.7,326.5,3065,333.4,3067.9,337.1z"/>
<path class="st17" d="M2908.6,688.6c-4.4-1.3-8.8-2.7-13.2-4.1c-1.5-0.5-3-0.8-3.8,0.8c-0.8,1.6,0.6,2.5,1.8,3.5
	c3,2.5,7.8,1.9,10.1,5.8h0c-1.2,0.7-2.7,1.2-3.7,2.2c-18.6,19.9-40.2,36.3-61.5,52.9c-37.1,29-72,60.6-110.5,87.9
	c-1.6,1.1-5.1,3.6-3.7,5.9c1.9,3.3,4.5,0.4,6.5-1.1c1.9-1.4,3.7-2.8,5.5-4.3c56.2-47.5,116.5-90.1,170.8-139.9c0,0,0,0,0,0
	c0,0,0,0,0,0c0.6,0.7,1.3,1.4,1.9,2.1c0,0,0,0,0,0c-1.9,3.2-3.7,6.5-5.7,9.6c-2.1,3.4-4.7,6.6-5.4,10.7c-0.3,1.7-0.2,3.6,2.1,4
	c2.1,0.4,5.2-0.1,5.1-2c-0.8-8.9,6.8-13.5,9.6-20.5C2917.7,694.4,2916.3,690.7,2908.6,688.6z"/>
<path class="st18" d="M3060.7,310.2c0.3-0.3,0.8-0.9,1.3-1.4c0.7,0.8,1.8,1.5,2.1,2.4c0.3,1.1-0.3,2.3-1.8,2
	C3061,312.8,3060.7,311.7,3060.7,310.2z"/>
<path class="st19" d="M3444.2,552.8c-3.6-0.6-7.4-0.6-10.9-2.6c1.2-1.9,2.6-3.5,3.3-5.3c1.3-3.5,1.8-7.3-2.6-8.8
	c-4.2-1.5-8.9-2-11.1,3.4c-0.9,2.4-1.5,5.1-1.3,7.6c0.5,5.6-2.7,6.3-7,6c-3.9-0.3-8.9,0.8-8.8-5.5c0-3-1.5-6.6,2.1-8.7
	c0.8-0.5,2.8-0.3,3.2,0.3c2.6,3.7-2.5,5-2.7,8.3c5.5,0.2,7.9-2.6,8.4-7.7c0.3-3.5-1.2-5.6-4.6-6.2c-4.7-0.8-8.9-0.1-10.6,5.1
	c-1.1,3.3-1.6,6.7-2.5,10.9c-3-4-3.2-7.4-3.5-10.9c-0.2-2.7,1.3-7.1-2.4-7.5c-4.6-0.5-2.8,4.8-4.2,7.3c-1,2-0.9,4.6-1.7,6.7
	c-1.1,2.7-0.7,7.6-4.9,6.9c-3.2-0.5-2.5-4.7-2.6-7.6c0-2.3,0.1-4.7,0-7c-0.1-1.4-0.1-3.1-1.9-3.4c-1.8-0.3-2.7,1.1-2.9,2.5
	c-0.8,5.4-1.8,11.1,0.2,16.3c2.4,6.2,9.6,7.6,12.8,2c2.4-4.2,4.2-2.1,7.2-1.9c6.9,0.4,11.1,8.5,18.3,6.4c9.5-2.7,19.3-1.4,28.8-3.2
	c1.3-0.2,2.5-1.2,3.8-1.9C3446.3,552.9,3446.1,552,3444.2,552.8z M3429.7,545.6c-1.5-0.2-1.3-1.5-1.3-2.4c-0.1-1.1,0.2-2.3,1.6-2.5
	c1.2-0.2,2.2,0.2,2.1,1.7C3431.9,543.9,3431.3,545.1,3429.7,545.6z"/>
<path class="st20" d="M3362.7,528.1c-6.6-4.6-11.6-2.5-13.1,5.4c-1.4,7.3-1,14.4,4.3,20.6c-12.1,1.2-18.3-2.4-20.1-11
	c-2.5-11.9,2.4-23.7,11.3-26.7c3.1-1,7.3-2.5,9.5,0.9c0.9,1.4-0.1,4.1,3,3.4c0.9-0.2,1.6-1.6,2.1-2.7c1.1-2.3-0.1-4-1.9-5.1
	c-5.1-3.1-10.4-3.3-15.8-0.8c-11.6,5.4-15.1,15.3-14.9,27.3c0.1,11.3,7.9,20.1,18.5,22c6.8,1.2,12.1-3.7,18.6-3.2
	c-0.9-4.5,2.6-7.6,3.7-11.5C3369.9,539.4,3369.6,532.9,3362.7,528.1z M3359.6,550.7c-5.7-5.1-4.9-11.1-4.7-16.8
	c0.2-5.3,3.2-4,5.6-1.7C3366.6,538.3,3363.5,544.3,3359.6,550.7z"/>
<path class="st10" d="M3348.6,824c-4.5-15-14.4-15.3-28-6.7c-3.2,2-4.1,4.7-9.4,1.8c-3.7-2-9.6-3.5-14.8-4.2c-5.9-0.4-7.3,4-8.6,8.2
	c-1.2,3.9-2.6,8.2,1.5,11.2c4.1,3,8.3,1.8,11.9-1.4c1.5-1.3,3.1-2.8,4.1-4.4c1.8-2.9,3-4.2,6.2-1c2.7,2.7,5.9,2.8,9-0.6
	c9.4-10.4,12.9-10.2,21.8,0.8c1.5,1.8,2.9,4.3,5.6,2.7C3350.5,828.7,3349.3,826.3,3348.6,824z M3302.5,822.9c-1.1,3-3.7,5-6.8,6.1
	c-2.8-0.4-2-2.5-1.9-4c0.1-3.3,1.6-5.6,5.4-4.8C3300.8,820.5,3303.4,820.4,3302.5,822.9z"/>
<path class="st8" d="M3132.4,361.9c-2.2-11.4-7.7-21.8-8.7-33.6c-0.4-5.2-5.7-9.3-12.3-7.7c-5.2,1.3-9.7,9.9-8.4,15.8
	c1.5,6.6,7,6.1,11.1,4.6c4.6-1.7,5.5,0,6.5,3.5c0.9,3.3,2.3,6.6,3.3,9.9c1.2,4.1,4.1,9,0.9,12.4c-3.7,3.9-9.6,3.5-14.8,2.1
	c-1-0.3-1.8-1.5-4.1,0.2c3.5,9.5,10.6,7,17.3,5.7C3130.1,373.3,3134,369.6,3132.4,361.9z M3110.4,336.2c-2.8-0.8-2.3-3.1-1.7-4.9
	c0.7-2.4,1.5-5,4.6-5.5c0.2,2.9,2.7,4.6,3.8,6.8C3115.2,335.4,3113.3,337,3110.4,336.2z"/>
<path class="st6" d="M3018.2,602.5c-6.8-0.9-12.5,2.4-16.2,8.5c-0.7,1.2-1.3,3.2-3,2.2c-1.8-1-2.6-3-2.8-5.2
	c-0.5-5.2-4.2-7.5-8.7-8.1c-4.7-0.6-5.9,3.9-7.9,7c-1.6,2.6-1.5,5.6-1.5,8.5c0,3.1-0.5,6.5,3.5,8c4.1,1.5,6.9-0.3,8.5-3.7
	c1.6-3.4,2.7-3.8,6.2-1.7c4.6,2.7,12.4-1.3,14.3-6.4c0.7-1.9,1.1-4.1,3.5-4.6c2.9-0.5,3.9,1.9,5.2,3.8c2.3,3.5,3,8.1,7.5,11.5
	C3027.4,612.1,3023.8,603.2,3018.2,602.5z M2990.7,609.1c-1.1,3.7-1.9,8.4-6.1,9.6c-2.5,0.7-1.7-2.8-2.1-4.7c0.8-3.7,1-8.3,5.3-9.7
	C2990.1,603.5,2991.4,606.9,2990.7,609.1z"/>
<g>
	<path class="st21" d="M3110,46.7c2.1-8.1,2.2-14.8,2.8-21.5c0.3-3.3,0.4-7.5,4.7-8.5c3.7-0.8,5.7,2.2,7.7,4.7
		c5.1,6.4,10.1,12.8,15.2,19.1c1.2,1.5,2.3,3.9,4.6,3.5c2.5-0.5,2.1-3.1,2.5-5c1.8-9.7,3.4-19.4,5.5-29.1c0.8-3.6,2-7.5,6.9-7.9
		c2.9-0.2,5.2,0.8,6.4,3.5c0.4,1,0.7,2.5,0.2,3.3c-1.2,1.8-1.6-0.5-2.4-0.8c-4.6-1.9-3.2,2.6-3.5,3.9c-2.3,10.2-3.7,20.6-6.4,30.7
		c-3.1,11.6-9.3,12.9-18,4.3c-3.1-3.1-5.7-6.6-8.4-10c-2.5-3.1-4.9-6.4-7.9-10.4c-2.6,6.5-1.6,12.6-2.5,18.4
		c-0.5,3.5-0.3,8.1-4.8,9.5c-4.7,1.4-7.8-1.8-10.2-5.1C3093.4,37,3088,23,3084.4,8.3c-0.7-2.9-2-7.5,2-8.2c4.1-0.7,3.1,3.8,4,6.8
		C3094.6,20.7,3100.7,33.7,3110,46.7z"/>
	<path class="st21" d="M3129.5,150.9c7.6-13.6,9.4-28.5,10.8-43.5c0.1-1.2,0.1-2.3,0.2-3.5c0.2-2.8-0.4-6.9,3.4-6.7
		c3.3,0.2,3.3,4.3,3.4,7.1c0.6,10.2,0,20.3-2.8,30.2c-1.9,6.7-4.4,13.1-7.3,19.5c-1.6,3.4-2.5,7.2-7.3,7.6c-5.2,0.4-7-3.5-9-7
		c-6-10.6-11.8-21.2-17.4-32c-2-3.9-6.4-6.4-6.3-11.6c0-2.5-2-5.6,1.4-6.7c3-1,4.5,2,5.8,4.2c6.8,11.8,13.5,23.7,20.2,35.5
		C3126,146.2,3126.6,149.2,3129.5,150.9z"/>
	<path class="st21" d="M3224.6,28.3c5-4.7,10-3.6,14.8,0.2c0.7,0.6,1.2,2.1,0.9,3c-0.4,1.5-1.8,1-2.8,0.6c-3.2-1.3-6-1.9-8.5,1.4
		c-3.3,4.3-4,13.4-0.5,15c6.2,2.8,9.8-1.1,12.6-5.9c2.9-5.1,4.7-10.2,3.1-16.5c-1.5-5.8-1.9-12.1-0.6-18.2c0.5-2.2,1.6-3.9,4.1-3.6
		c1.8,0.2,3.3,1.6,3.2,3.5c-0.1,16.8,7.8,31.9,10.6,49.8c-6.6-4.3-7.8-11-12.6-15.6c-1.4,2.4-2.6,4.9-4.2,7.1
		c-4.9,7-12.1,9.4-18.9,6.4c-6.3-2.8-8.6-9.2-6.1-18c0.7-2.5,2-4.8,3-7.2C3222.9,29.2,3223.5,28.5,3224.6,28.3z"/>
	<path class="st22" d="M3204.4,136.3c-6.1-3.1-11.1-6.9-14.8-0.1c-2.7,5.1-3.9,10.6,1.1,15.1c5,4.4,11.2,3.4,18.7-3.3
		c-1.4,7.3-2.9,13.1-11.3,13.4c-9.8,0.3-17.8-5.2-18.9-13.2c-1.1-8.5,5-20.3,11.9-21.2C3196.6,126.3,3202.2,127.5,3204.4,136.3z"/>
	<path class="st23" d="M3224.6,28.3c-0.6,0.6-1.3,1.3-1.9,1.9c-3.6-2.6-7.5-2.2-11.6-1.7c-6.9,0.9-8.8,4.5-7,10.7
		c0.3,1.1,1,2.3,0.9,3.3c-0.4,2.6,0.5,6.4-3.5,6.8c-3.1,0.3-4.5-2.3-5-5c-1.3-6.9-2.3-13.9,3.7-19.2
		C3206.4,19.7,3213.8,20.9,3224.6,28.3z"/>
	<g>
		<path d="M3316.3,145.5c-6.2-7.4-16.2-9.9-22.8-17.2c-2.4-2.7-7.8,1.2-10.7,0.1c-12.5-4.8-18.3,1.4-22,12.2c-2.8-2.2-4-5.8-7.9-5
			c-0.7-5.5-4.5-6.9-9.1-5.5c-7.4,2.2-15.7,1.9-21.5,7.8c-2.3-5.3-4.8-10.2-4.6-15.7c0.1-1.9-0.9-3.6-2.8-3.8
			c-1.5-0.2-2.8,1.2-2.8,2.8c-0.3,9.2,0.6,18.8-11.2,22.7c2.7,2.4,4,1.8,5.2,0.9c6.1-4.4,9.4-2.4,11.9,4.3c1.6,4.3,3.1,9.6,9.1,10.8
			c-1.7-18.7-1.7-18.7,5.4-19.5c-2.3,8.2-1.3,15.3,7.3,18.9c8.4,3.6,14.1,0.8,20.9-9.5c0.8,1.9,1.6,3.7,2.3,5.6
			c0.8,2.3,1.6,4.9,4.6,4.1c2.9-0.7,2.9-3.6,2.2-5.8c-1.2-3.8-0.6-7.5,0-11.2c1.4-8.5,9-11.5,15.8-6.3c4,3.1,8.9,4.1,13.3,6.2
			c3.3,1.6,7.8,1.8,9.6,6.3c-5.6,1-10.8,2-16.7,3.1c8.2,5,16.7,5.5,22.7,1.9C3317.8,151.5,3318.6,148.3,3316.3,145.5z M3253.5,145.8
			c-1.2,3.2-1.1,7.2-6.2,6.9c-3.3-0.2-6.9-0.7-7.4-4.5c-0.6-4-0.3-8.5,4.4-10.3c2.7-1.1,5.6-1.4,8.4-1.9c0-0.1,0-0.2,0.1-0.3
			c0,0,0.2,0.2,0.2,0.2c-0.1,0-0.2,0-0.3,0.1C3252,139.2,3254.9,142.2,3253.5,145.8z"/>
	</g>
	<path d="M3165,153.5c2.8-4,7.3-6.2,9.2-10.7c2.5-6.1,3-11.8-2.7-16.5c-4.5-3.7-9.4-4.8-14.4-1.2c-6.4,4.6-8.8,20.4-4.3,27.3
		c5.7,8.8,15.6,11.1,25.1,5.8C3174.1,155.6,3169.1,156.9,3165,153.5z M3161.4,148.4c-5.5-0.3-2.6-5.2-3.6-7.9
		c0.2-2.1,0.1-4.2,0.7-6.1c0.7-2.4,1.6-5,5-4.9c3.4,0.1,5.3,2.3,6.4,5C3171,137.5,3164.5,148.6,3161.4,148.4z"/>
	<path class="st24" d="M3174.4,23.2c-5.3-0.4-9.1,5.9-9.2,15.4c-0.1,8.9,6.3,15.9,14.8,16c7,0.1,9.9-3.9,10-14.1
		C3190,32.6,3182,23.7,3174.4,23.2z M3179.8,47.4c-6.1-0.3-7.6-5.3-7.1-10.7c0.2-2.6,0.1-7.7,3-6.6c3.4,1.3,10.6,2.1,7.1,11.5
		C3182.3,42.1,3185.1,47.7,3179.8,47.4z"/>
</g>
<path class="st7" d="M3230.6,816.1c-6.8-0.5-13.5,6.9-13.8,15c-0.2,6.4,3.3,8.9,9.1,9c6.1,0.1,10.1-5.2,10.2-13.5
	C3236.2,820.4,3234.1,816.4,3230.6,816.1z M3229.8,825.7c-0.9,2.6,0.3,7.1-4.3,7.8c-2.5,0.4-3.1-2.2-2.9-4.3c0.2-3.3,1-6.4,4.8-7.2
	C3229.7,821.6,3230.3,823.1,3229.8,825.7z"/>
<path class="st25" d="M3847.8,892.8c1.5-2.6,4-2.3,6.4-2.5c27-1.9,54-1.9,81-2.5c166.9-3.6,333.8-4.8,500.7-5.6
	c51.6-0.2,103.3-2.1,154.9,1.1c35.4,2.2,70.7,3.6,106.2,3.2c33.9-0.3,67.8-2,101.6-5.3c2.5-0.2,5,0.4,7.4-2c2.9-3,6.3-1.9,7.7,1.9
	c1.4,3.9-1.7,5.4-4.8,5.9c-5.9,1.1-11.8,2.4-17.7,2.7c-63.3,3.8-126.5,5.7-189.8,1c-59.9-4.4-120-2.7-180.1-1.6
	c-17.1,0.3-34.2,0.6-51.3,0.7c-98.8,0.3-197.6-0.4-296.3,1.2c-63.9,1.1-127.9,1.2-191.8,2.8c-8.4,0.2-16.7,1.2-25.1,1.5
	C3853.5,895.5,3850,896.1,3847.8,892.8z"/>
<path class="st0" d="M3870.6,238.1c3.7,3,2.9,6.9,2.9,10.3c-0.4,38.4,2.3,76.8-1.4,115.1c-3.4,35.5-8.3,70.8-11.7,106.3
	c-3.9,41.8-8.1,83.5-11.9,125.3c-4.8,52.2-1.4,104.4-3.7,156.5c-1.8,40.8-0.6,81.6-1.8,122.4c-0.1,4.4,2,11.8-4,11.9
	c-6.2,0.1-4.2-7.4-4.2-11.7c-0.4-68.4,3.8-136.8,3-205.2c-0.6-50.8,5.6-101.1,10.4-151.5c3.9-41.2,7.6-82.4,13.6-123.3
	c7.1-48.4,3.6-97,6.6-145.5c0.2-3,0.3-6,0.6-8.9C3869,239.5,3869.7,239.1,3870.6,238.1z"/>
<path class="st26" d="M4240.7,377c1.9,8.1,5.3,10.7,11.5,8.8c6.3-1.9,8.2-6,7.5-12.3c-1.3-11.5-6.5-21.6-10.9-32.9
	c-2.4,3.1-3.9,5.5-6,7.4c-5.5,5-15.4,3.1-17-3.8c-2.2-9.9-1.1-19.7,5.4-28.2c2.4-3.1,5.7-3.5,8.9-2.1c4,1.7,2,5.2,1.3,7.8
	c-0.6,2.5-2,4.9-4.2,0.5c-0.7-1.4-1.6-1.1-2.6,1c-2.5,5-2.5,10.4-2.4,15.8c0,2.1,0.5,4.3,3,5c2.7,0.7,4.5-0.6,6-2.8
	c2.6-3.6,2.4-8,3.3-12c0.4-1.8,0.6-3.8,2.8-4c1.6-0.2,2.9,0.9,3.4,2.4c5.8,15.6,14.9,29.9,16.7,47.1c1.4,13.3-11.2,21.2-23.5,17.8
	C4237.8,390.8,4237.3,385.1,4240.7,377z"/>
<path class="st27" d="M3902.4,261.8c-19.4-4.4-20.9-24-31.4-37.1c-6.4,11.5-12.3,22.5-18.6,33.3c-2.7,4.6-6.2,8.8-9.5,13
	c-1.4,1.8-3.9,2.3-5.7,1c-2.1-1.5-1.5-3.9,0.1-5.5c13.3-12.2,19.2-29,28-44.1c3.6-6.1,8.6-6.1,12.9-0.3c3.7,5,6.7,10.6,9.6,16.1
	C3892.1,246.3,3897.2,253.9,3902.4,261.8z"/>
<path class="st28" d="M4124.8,531.7c-7-13-2.3-25.8-6.6-37.2c-4.9,3.4-2,12.4-8.3,13.6c-7.2,1.4-6.1-7.6-10.7-10.9
	c-3.7,3.2-3.8,7.6-3.8,12c0,7.2,0.1,14.4,0,21.6c0,2-0.5,4.4-3.4,4.5c-2.3,0-3.1-2-3.1-3.7c-0.5-11.1-0.9-22.2,1-33.2
	c0.8-4.5,5.8-5.4,9.5-6.7c3.6-1.2,5.3,1.8,6.7,4.5c1,1.8,1.8,3.8,2.8,5.8c3.5-2.9,3.1-7.7,5.6-10.9c1.6-2,3.1-3.7,5.9-3.2
	c2.5,0.4,3.4,2.4,3.8,4.5C4126.7,504.8,4130.7,517,4124.8,531.7z"/>
<path class="st29" d="M4201.1,660.1c-0.4,0.4-0.6,0.5-0.7,0.7c-2.4,4.4-0.6,11.9-7.9,12.6c-7.8,0.8-11.4-5.3-15.1-10.8
	c-0.5-0.7-1-1.5-1.3-2.3c-1.9-4.8-7.8-11.9-3.3-14.2c5.4-2.7,4.3,7,7.7,10.2c1.5,1.4,2.3,3.5,3.5,5.2c2.2,2.9,4.4,6.8,8.3,6
	c3.2-0.7,2.4-5,3-7.8c0.6-2.6,0.7-5.7,3.9-6.5c3-0.8,4.9,1.4,6.8,3.5c2.2,2.5,4.4,4.9,6.6,7.4c3.7,4,8.7,7.4,13.3,4
	c4.6-3.3,4-9.6,2.2-14.9c-0.5-1.4-3.5-2.2-1-4c1.6-1.1,3.6-0.5,4.8,1.1c4.8,6.2,3.7,13,1.2,19.5c-2.4,6.2-7.8,6.8-13.5,5.4
	C4210.9,673.2,4206.5,666,4201.1,660.1z"/>
<path class="st30" d="M4146.1,315.4c3.7-3,7.4-6,11.2-8.9c1.3-1,3.3-2.1,4.7-0.1c1,1.4,0,2.7-0.9,4c-3.7,5.5-12.4,9-8.1,18
	c2.9,6.1,4,13,9.2,18.2c-7.9,0.1-7.9,0.1-15.1-14.2c-3.1,2.4-3.4,6.1-4.2,9.5c-0.5,2.1-0.5,4.4-3.4,4.1c-2.4-0.2-2.4-2.3-2.4-4.1
	c0-13.2,0.1-26.3,0.2-39.5c0-2.1,0.2-4.7,3-4.5c3,0.2,2.2,3,2.3,5c0.2,3.6,0.2,7.2,0.3,10.8C4144.5,313.1,4141.8,320.6,4146.1,315.4
	z"/>
<path class="st31" d="M4813,926.4c-2-8.3,0.7-13,4.5-17.2c19.4-21.4,11.2-32-6.8-43.7c-3.5-2.3-6.9-4.6-10.3-7.1
	c-1.7-1.3-3.1-3.3-1.4-5.3c1.4-1.7,3.2-0.7,4.8,0.3c7.8,4.9,16,9.3,22.6,15.9c10.2,10.3,11.7,22.8,3.6,34.7
	C4825.2,911.2,4819.7,917.8,4813,926.4z"/>
<path class="st32" d="M4375,609.5c0.9-5.6,1.8-10.1,5-13.9c2.9-3.4,5.7-7,8.8-10.2c13.8-13.9,13.7-14.8-2.6-24.4
	c-5.6-3.3-11.2-6.9-16.7-10.4c-1.4-0.9-2.3-2.4-1.5-3.8c0.8-1.4,2.6-1.3,4-0.4c9.6,5.4,19.6,10.3,28.6,16.6c5.8,4,4.8,10.7,0.6,15.9
	c-5.6,7-11.5,13.7-17.6,20.2C4380.9,602.3,4381.2,607.9,4375,609.5z"/>
<path class="st33" d="M4217.4,342.9c-5.3-3-5.3-7.7-6.3-11.8c-0.9-3.6-1.7-7.3-6.8-6.4c-4.4,0.7-7.1,2.9-7.1,7.7c0,0.3,0,0.6,0,0.9
	c-0.9,3.6,2.7,9.7-1.9,10.3c-5.6,0.8-5.1-6.2-6.5-10.1c-2.1-5.6-4.9-11.5-0.8-17.7c4.6,2.2,2.2,6.3,3.9,9.6
	c6.2-4.6,12.6-11.8,20.8-6C4220.6,325,4219,333.8,4217.4,342.9z"/>
<path class="st34" d="M3930.6,598.6c2.5,10.3-4.3,19.5-3.9,30.7c4.7-2.4,1.8-12.1,8.9-8.1c6.3,3.6,0.8,8.8-0.8,13.8
	c10,1.8,19.4,0.4,30.4-3.3c-4.7,6.6-10.1,7.5-15.5,7.8c-7.4,0.4-14.9-0.1-22.3,0.3c-4.3,0.2-3.8-2.5-4.3-5.1
	C3920.7,621.7,3926.9,610.5,3930.6,598.6z"/>
<path class="st19" d="M4432.3,571.9c-4.7-0.2-9.2-0.6-8.8-7.2c0.3-4.8,8.2-15.1,12-14.8c5.6,0.3,8.5,3.4,8.4,9.3
	C4443.8,567.2,4439.6,571.9,4432.3,571.9z"/>
<path class="st35" d="M4167.7,661.7c-3.9,3-7.5,3.8-11,4.1c-7.2,0.5-12.5,2.5-11.5,12.1c-2.3-8.4-6.5-12.9-15.1-11.2
	c-1.5,0.3-3.3-0.7-3.3-2.3c0-2.1,1.9-3,3.7-2.8c6.4,0.4,11.5-0.2,11.3-8.7c-0.1-2.7,2.6-3,4.8-2.2c2.3,0.8,1.9,2.1,1,4.2
	c-2.5,5.8,0.6,6.6,5.6,6C4157.8,660.3,4162.5,658.4,4167.7,661.7z"/>
<path class="st30" d="M4131.7,384.5c-0.2,6.6-3.6,11.5-10,11.4c-3.7-0.1-9.7,1.2-11.7-3.6c-1.6-3.6,9.7-15.6,14-15.5
	C4128.9,376.9,4131.8,379.2,4131.7,384.5z"/>
<path class="st36" d="M4017.8,616.9c-7.6,7.4-46.8,13.8-57.5,9.8C3979.4,623.1,3998.7,620.4,4017.8,616.9z"/>
<path class="st37" d="M4257.8,585.9c-18.3,1.1-34.2,3.6-49.7,8C4217.4,583.3,4244.3,578.8,4257.8,585.9z"/>
<path class="st38" d="M4106.7,404.7c-4.6,15.5-17.5,25-27,37C4084.7,426.6,4098.7,417.7,4106.7,404.7z"/>
<path class="st39" d="M4091.4,611.1c-13.6,1.8-26.9,6.6-41,4c-0.1-0.9-0.2-1.8-0.3-2.7c13.6-1.6,27.2-3.1,40.8-4.7
	C4091.1,608.8,4091.2,610,4091.4,611.1z"/>
<path class="st40" d="M4329.5,575.9c-5,4-11.1,2-16.3,3.4c-5.7,1.5-11.6,2.3-17.4,3.7c-1.7,0.4-3.5,1.9-4.3-0.7
	c-0.6-2,1.2-3,2.9-3.9C4302,574.4,4319.9,573,4329.5,575.9z"/>
<path class="st41" d="M4345.2,577.3c7.4-8.7,30.8-12.7,38.8-6.8C4370.8,572.8,4358.7,574.9,4345.2,577.3z"/>
<path class="st40" d="M4171.4,597.4c-14,4.3-28,8.3-42.8,6.6C4142.8,600.6,4156.6,595.6,4171.4,597.4z"/>
<path class="st34" d="M4079.1,516.7c-8,1-15.2,3.1-22.7,2.7c-2-0.1-4.6,0.2-4.6-2.8c0-2,1.9-2.7,3.9-3c5-0.7,10-1.7,15-2.5
	C4074.4,510.6,4077.8,511.1,4079.1,516.7z"/>
<path class="st42" d="M3955,598.3c3.8-14.4,15.9-21.8,24.6-32.1C3974.4,579.3,3962.7,587.2,3955,598.3z"/>
<path class="st43" d="M3997,547.3c3.3-14,14.8-22,23.5-32.1C4015.2,527.8,4004.6,536.5,3997,547.3z"/>
<path class="st44" d="M4180.7,335.3c-0.5,2.2,1.3,6.2-1.9,6.6c-4,0.5-3.4-3.8-4-6.5c-0.3-1.4-0.9-2.9-0.8-4.3
	c0.1-3.4-3.8-8.8,1.6-9.6c4.1-0.6,4.2,5.4,4.8,9.1C4180.6,332.1,4180.6,333.6,4180.7,335.3z"/>
<path class="st45" d="M4061.6,467.2c-5.8,6.7-11.6,13.4-17.3,20.3c-1.1,1.3-1.4,3.9-3.6,2.6c-2.1-1.2-0.8-3.1,0.5-4.5
	c6-6.9,12-13.9,18-20.8C4061.4,464.4,4062.2,465.2,4061.6,467.2z"/>
<path class="st30" d="M4175.6,311.7c-3.8-2.3-7.3-2.5-7.5-6.6c0-0.5,1.3-1.6,1.8-1.5C4173.3,304.4,4174.9,306.7,4175.6,311.7z"/>
<path class="st46" d="M4061.6,467.2c-0.8-0.8-1.5-1.6-2.3-2.4c1.4-1.7,2.6-5.3,5-3.2C4066.2,463.3,4063.1,465.6,4061.6,467.2z"/>
<path class="st19" d="M4601.1,516.4c-3.3-3.9-7.2-4.8-12.1-3c-6.3,2.4-11.9,7.1-14.8,11.9c-3.6,6-6.7,5.2-11.4,3.8
	c5.8-12.4,4.5-15.9-5.5-16.1c-8.7-0.2-8.4,5.8-8.6,11.6c-0.1,1.6,2.3,3.4,0.1,4.6c-1.1,0.6-3.1,0.4-4.3-0.1
	c-3.2-1.4-0.3-3.5-0.2-5.3c0.2-4,2.3-8.5-2.3-11.4c-2.2-1.4-4.7-1.6-6.7,0c-3.7,3-3.4,7.4-3.3,11.6c0,0.9,0.3,1.8,0.7,2.6
	c2.5,5.3-0.8,5.5-4.5,5.4c-9.1-0.3-10.9-7.1-12.4-14c-0.5-2.2-0.9-4.4-3.6-4.3c-2.6,0.1-3.4,2.4-3.6,4.4c-0.4,4.2-0.2,8.4-0.4,12.6
	c-0.2,2.5-0.1,6.1-3.1,6.6c-3.1,0.5-4.4-2.8-5.2-5.3c-1.6-4.8-2.5-9.9-2.4-15c0-1.8-1.1-3.5-3.4-3.2c-2,0.3-1.8,2.2-1.9,3.6
	c-0.1,5.1-0.2,10.2,1.7,15.1c2,5.1,3.7,10.5,10.7,10.2c7.6-0.4,5.9-6.9,7.1-11.5c0.2-0.7,0.5-1.4,1.2-3.1c3.7,8.1,10.4,11.3,17.3,9
	c7-2.3,13.6-1.8,20.6-2c3.5-0.1,6.7-1,10.3,0.3c6.5,2.4,12.9-1.6,19.4-1.7c2.9-0.1,0.7-6,2.5-8.8c2-3.1,4.3-5.7,8.4-6
	c4.3-0.2,5.2,3.3,7,6c3.2,5.1,3.4,12,9.9,16.5C4609.1,531.3,4607,523.3,4601.1,516.4z M4538.5,525.5c-1.4-4.3-2.2-6.9,0.8-10
	C4541.7,518.7,4541.2,521.3,4538.5,525.5z M4562.2,520.3c-0.6,2.7-2.2,5.3-5.1,5.4c-2.3,0.1-2.1-2.4-2.2-4.1c-0.3-3,1-4.5,3.9-4.2
	C4560.9,517.4,4562.8,517.7,4562.2,520.3z"/>
<path class="st15" d="M4360.1,649.1c-6-2.5-21.2,1.7-22.9,7.3c-1.4,4.7-3.6,5.5-7.6,5.2c-4.7-0.3-6.7-2.6-7.1-7.4
	c-0.3-3.8-3.2-6.4-6.9-7.4c-6.4-1.8-10,3.1-15,5.5c-3.5,1.7-9.9-4.1-14.7,1.1c-0.4,0.4-0.8,0.9-1.1,1.4c-1.8,3-2.9,1.8-4.3-0.4
	c-2.2-3.6-5.4-4.8-9.2-2.4c-3.5,2.2-7.5,4.3-6.5,9.6c0.3,1.8-1.4,4.7,1.7,5.2c3,0.5,2.9-2.4,3.3-4.3c0.7-2.6,0.6-6,3.9-6.3
	c3.4-0.3,3.5,3.5,4.9,5.6c0.5,0.7,0.5,1.7,0.9,2.5c0.8,1.7,2,3.2,4.1,2.8c1.6-0.3,2.1-1.9,2.4-3.4c0.6-3.1,0-7.3,4.5-7.7
	c4.6-0.5,5.8,3.6,7,6.9c2.5,6.7,8.4,9.3,13.6,6.7c6.9-3.5,13-3.9,19.6-1.2c5-2.4,12.2,0,13.9-7.1c1.1-4.2,3.1-6.1,7.1-6.8
	c4.3-0.7,6.9,1.5,8.7,4.8c1.8,3.4,3.2,7,4.8,10.6c0.5,1.1,1.1,2.2,2.5,2.2c1.6,0,1.6-1.3,1.9-2.4
	C4371.8,662.6,4366.7,651.8,4360.1,649.1z M4310.2,664.6c-3.8-0.2-6-1.4-5.3-5c0.8-4.3,2.4-8.1,7.9-8c3.3,0.1,4.7,1.5,4.5,5
	C4317.1,662,4314.4,664.2,4310.2,664.6z"/>
<path class="st20" d="M4481.9,531.5c2.3-4.1,1.8-8.9,0.7-13.2c-1.1-4.4-4.4-7.1-9.2-7.1c-5.1,0-5.9,3.6-7,7.7
	c-1.6,6.3,0.9,12,2.3,18c-15,0.7-19.4-4.4-16.8-18.1c1.2-6.5,4.3-11.8,8.7-16.5c7.2-7.7,12.4-7.3,18.6,2c2.5-5.5,0.4-8.9-3-11
	c-4.2-2.6-9.1-2.7-13.6,0.1c-10.7,7-16.4,16.7-17.8,29.6c-1.8,16.5,11.8,23.1,22.1,20.9c5.1-1.1,9.5-0.1,16.1,1.7
	C4478.4,540,4479.4,535.9,4481.9,531.5z M4475.4,531.9c-4.4-3.1-3.1-7.5-3.5-11.4c-0.2-1.9-0.7-4.6,2.4-4.6c2.3,0,3.6,2.1,3.8,4.3
	C4478.4,524.3,4478.4,528.4,4475.4,531.9z"/>
<path class="st6" d="M4185,505c-5.5-3.3-21.1,1.2-25.6,7.2c-1.7,2.4-3.1,5.8-6.8,4.2c-3.5-1.5-3.3-4.6-2-7.6
	c0.9-2.3,2.3-4.6-0.4-6.4c-2.5-1.7-5.3-1.1-7.7,0.1c-6.4,3.3-9.1,9.2-10.3,16c-0.6,3.3-0.8,6.7,3.2,8.5c3.5,1.5,7.1,0.8,8.8-2.1
	c2.3-4,5.1-1.9,8-2.5c6.1-1.2,14.6,2.1,17.2-7.8c0.9-3.3,4.3-4.6,8-4.7c4-0.1,6.1,2,7.3,5.4c1.7,4.7,3.5,9.4,5.4,14.6
	C4194.8,520.1,4192.5,509.4,4185,505z M4139.4,522.8c-3.4-6.6-0.2-10.5,4.6-15.7C4145.3,514,4143.7,518.3,4139.4,522.8z"/>
<g>
	<path class="st47" d="M4272.1,72.4c5.7-19.1,10.5-36.7,18.8-53c4.9-9.5,8.1-10.8,17.8-7c-5.3,1.3-7.2,4.8-9,8.7
		c-7.4,15.7-12.9,32-18.2,48.5c-3.9,12.4-10.7,14.1-19,4.1c-13.8-16.4-20.5-36.2-24-57.1c-0.4-2.6-1.3-7,3-7.2
		c4.2-0.2,2.8,4.1,3.5,6.8C4250.3,36.1,4257.9,54.7,4272.1,72.4z"/>
	<path class="st47" d="M4275.9,182.5c0.6,3.1-1,5.1-3.3,6.7c-10.1,6.6-21.2,7.1-31.7,2.4c-9.6-4.3-13.8-13-14-24.1
		c-0.3-23.1,19.1-38.3,34.5-43.1c4.2-1.3,8.3-0.6,12.3,0.7c2.4,0.8,4.6,1.9,4.2,4.9c-0.3,2.7-1.4,5.2-3.5,7c-1.7,1.4-3.4-0.1-3-1.3
		c3-8.3-4-4.8-6.2-4.7c-17.1,1.3-33.1,24.8-28.4,41.3c2.7,9.8,18,16.6,31,13.7c2.9-0.6,5.5-2.1,8.3-3.2L4275.9,182.5z"/>
	<path class="st5" d="M4379.1,185.2c-1.2-5.8,2-8.8,3-12.3c0.8-2.7,2.2-6.4-1.6-7.6c-3.2-1-5.7,1.5-6.8,4.5
		c-2.3,5.8-1.6,11.8-0.6,17.7c1.2,7.3,2.9,14.6,4.2,21.9c0.5,2.5-0.3,5-2.9,5.8c-2.9,0.8-4.9-1.7-5.3-3.7
		c-2.6-13.9-7.9-27.7-2.6-42.1c0.3-0.8,0.4-1.8,0.7-2.6c2.9-6.2,7.6-9.9,14.5-10.4c4.1-0.3,7.1,1.8,8.1,5.7
		c1.6,6.2,1.7,12.5-3.9,17.2C4383.8,180.8,4381.9,182.6,4379.1,185.2z"/>
	<path class="st24" d="M4489.3,161.8c13.1-8.2,24.1-2.6,24.9,11.7c0.1,2.3,0.6,5.1-2.4,6.1c-2.7,0.8-4.5-0.8-5.7-3.1
		c-1-1.8-1.8-3.8-3-5.5c-1.6-2.1-1.6-6.8-5.8-5.3c-3.3,1.2-6.3,3.5-6.5,7.7c-0.1,1.8,0,3.6-0.3,5.4c-0.4,1.7-1.1,3.7-3.2,3.8
		c-2.2,0.2-3.1-1.9-3.4-3.5c-2.3-13.5-4.5-27.1-6.7-40.6c-0.2-1.4,0.2-2.5,1.6-2.7c1.9-0.3,2.4,1.2,2.9,2.6
		C4484.1,146.1,4486.6,153.7,4489.3,161.8z"/>
	<path class="st48" d="M4333,171.7c0.8-1.5,1.6-3,2.4-4.5c5-8.4,10.8-8.9,16.9-1.5c3.8,4.6,5.4,8.2,8,18.9c-7.2-0.2-8.8-6.3-12-10.6
		c-1.7-2.3-2.4-6.3-5.9-5.9c-2.9,0.3-3.4,3.9-4.5,6.2c-1.5,3.1-1.3,8-5.7,8.1c-4.8,0.1-5.2-5-7.1-8.3c-1.3-2.2-1.5-5.9-5-5.3
		c-4,0.7-1.8,4.3-2.3,6.7c-0.6,2.6,2.1,6.8-2.5,7.2c-4.1,0.3-3.8-4.2-4.2-6.8c-1-5.5-0.7-10.9,5.8-13.4c6.4-2.5,10.3,0.6,13.3,5.8
		C4330.9,169.7,4331.3,171.2,4333,171.7z"/>
	<path class="st49" d="M4576.6,183.2c-6.5-3.3-7.6-9.3-10-14.2c-1.6-3.3-2.7-6.6-7.4-5.9c-4.2,0.6-5.1,3.4-5.4,7
		c-0.2,2.7-0.7,6.2-4.2,5.6c-4.1-0.7-3.4-4.7-2.7-7.4c1.8-7,5.9-12.3,13.7-13.4c7.2-1,10.9,3.7,13.9,9.1
		C4577.6,169.7,4579.2,175.9,4576.6,183.2z"/>
	<path class="st50" d="M4441.3,173c-3.7-2.7-8.2-4.5-11.2-8.4c-2.1-2.7-2.1-6.1,0.4-8c2.9-2.3,5.3,0.4,6.1,3c2,6,8,6.5,12.1,9.5
		c2.7,1.9,6.2,3.5,5.5,7.3c-0.6,3.4-4.6,3.3-7.1,4.6c-0.3,0.1-0.6,0.2-0.9,0.2c-4.8,0.7-11.3,5.1-13.8-0.3
		C4430.4,176.5,4439.1,176.9,4441.3,173z"/>
	<path class="st51" d="M4471.1,38.3c-8.2,1.4-15.9,0.8-22.4,5.3c-7.7,5.3-1.3,13.4-3.4,19.8c-4.1,0-5.8-2.9-8.1-4.5
		c-2.4-1.7-5.3-4,0.2-5.8c0.7-0.2,0.9-2,1.1-3C4441.7,34.5,4456.7,28.6,4471.1,38.3z"/>
	<path class="st49" d="M4420.8,44.4c-2.7,2.1-0.3,3,0.8,4.7c3,4.7,2.7,9.9-1.4,13.4c-3.6,3-13-1.1-14-5.8
		c-1.3-5.6-1.1-10.9,6.9-11.1c1.7-0.1,3.4-1,5.1-1.5l0,0v0c1.8-8.2-5.1-6.2-7.6-5c-8.5,4-18.4,4.7-26,10.7c-0.6,0.9-0.5,1.7,0.3,2.4
		c4.7-1.3,9.2-3.9,14.4-3.8c-0.8,12.3,3.4,19.3,12.6,21.3c6,1.3,12.1,2.3,15.6-4.7C4431.1,57.4,4428.5,49.5,4420.8,44.4z"/>
	<path class="st52" d="M4384.5,49.8c0.1,0.8,0.2,1.6,0.3,2.4c0.9,5.1,1.9,10.3,2.8,15.4c-10.5-10.9-16.2-23.6-15.6-38.7
		c0.1-1.8,0.8-4.3,2.6-3.9c3.3,0.7,4.6,4,4.1,7C4377.7,39,4379.2,45,4384.5,49.8z"/>
	<path class="st53" d="M4473.7,176.2c-0.5,2.2,0.3,5.9-3.1,6.3c-3,0.4-4.1-2.9-5.1-5.3c-2.2-5.1-1.6-11.2-5.5-15.8
		c-1.5-1.8,0.4-3.1,1.9-4.1c2.3-1.5,4.1-0.4,5.4,1.3C4471.3,163.7,4472.9,169.7,4473.7,176.2z"/>
	<path class="st5" d="M4543,159.8c-5.8-0.5-4.6,4.3-5.2,7.3c-0.9,4-1.6,7.6-7,7c-5.2-0.7-4.5-5-3.3-7.4c1.5-2.9-1.1-11,7.2-7.5
		c3.9,1.6,2.6-3.1,4.5-3.9v0c-2.5-6.5-7.1-6.8-12-3.4c-5.2,3.6-7.3,9.1-7.7,15.5c-0.3,5.2-0.9,10.3,4.6,13.4
		c4.7,2.6,9.6,3.4,14.4,0.6C4545.2,177.5,4546.5,170.5,4543,159.8z"/>
	<path class="st47" d="M4503.6,146.1c-2.1-0.9-3.4-1.1-3.5-1.6c-0.9-3.4-5.8-4.8-4.7-9c0.2-0.6,2.5-1.4,3-1
		C4501.9,136.9,4503.6,140.5,4503.6,146.1z"/>
	<path class="st47" d="M4453.3,136.2c1.6,0.7,3,1.8,2.8,3.8c-0.2,1.4-1.6,1.9-2.6,1.7c-1.8-0.4-3.1-1.7-2.8-3.8
		C4450.9,136.6,4451.9,136.1,4453.3,136.2z"/>
	<path class="st54" d="M4372.6,62.9c-2.6-1.9-3.5,1.4-4.2,3.5c0,0,0,0,0,0c0,0,0,0,0,0c-7,3.3-13,1.6-17.3-4.4
		c-4.1-5.8-2.9-12.2,0.7-17.6c4.3-6.4,8.6-2,12.7,1c1,0.7,2.2,1.2,3.2,0c1-1.1,0.4-2.4-0.5-3.1c-5.1-3.7-10.5-7.4-17.1-3.9
		c-8.1,4.3-10.9,19.3-5.4,26.9c6.3,8.9,16.3,9.8,25.3,2.3C4372.2,66.8,4374.3,64.2,4372.6,62.9z"/>
	<g>
		<path class="st55" d="M4276.2,182.8c0-0.1,0-0.1,0-0.2c-0.1,0-0.2-0.1-0.3-0.1C4275.9,182.5,4276.2,182.8,4276.2,182.8z"/>
		<path class="st55" d="M4304.5,168.2c-2.7-10.8-11.2-6.9-17.5-6.7c-7.7,0.2-9.5,6.9-10.5,13.3c-0.4,2.6-0.3,5.2-0.3,7.8
			c1.5,0.4,1.8,1.9,2.7,3c5.1,6.2,11.7,8.4,19,5.2C4303.9,188.2,4306.6,176.4,4304.5,168.2z M4297.2,173c-1,3.4,1,9.4-5.3,9.4
			c-4.2,0-7.2-2.6-6.6-7.6c0.5-3.8,0.5-8.2,6.1-7.6C4294.6,167.5,4298.6,168.4,4297.2,173z"/>
	</g>
	<path class="st56" d="M4409.8,159.6c-9-0.5-13.8,4.4-14.1,14.5c-0.3,8.3,5.3,14,13.8,14.3c7.7,0.3,11.2-3.7,11.7-13.4
		C4421.7,166.3,4417,160.1,4409.8,159.6z M4410,179.2c-4.5-0.2-6.3-2.8-5.8-7.1c0.3-2.4-1.3-5.9,3.3-5.8c4.7,0,5.9,3.1,6,7.2
		C4412.9,175.7,4414.5,179.4,4410,179.2z"/>
	<path class="st54" d="M4331.9,64.2c-2.3,0.1-4.6,0.2-6.9,0.3c0.3,0.2,0.7,0.4,1,0.6c-0.4-0.1-0.8-0.2-1-0.6
		c-2.1-0.7-5.3,0.2-5.2-3.6c0,0,0,0,0,0c2.9-2.7,4.9-6,6.6-9.5c3-5.6,6.1-11.3,1-17.2c-3.6-4.2-8.8-4.3-13.1-2.1
		c-8,4-10.5,11.6-10.7,20.1c-0.2,7.7,4.7,12.5,10.9,14.7c4.8,1.6,10.5,0.5,15.8,0.6c1.4,0.3,3,0.5,3.5-1.3
		C4334.2,64.8,4333.2,64.2,4331.9,64.2z M4311.2,55.4c-0.8-1.7-0.7-4.1-0.5-6.1c0.5-6.1,1.6-13,9.2-12.6c8.6,0.5,4.4,7.9,4.9,12.6
		c-4.5,1.5-6.9,4.5-7.3,9.3C4313.5,61.4,4312.3,57.8,4311.2,55.4z"/>
</g>
<path class="st57" d="M4250.4,648.6c-6.4,0-11.3,6.1-11.6,14.2c-0.3,7.3,4,10.3,10.5,10.4c9.1,0.1,8.9-6.9,9.4-12.1
	C4258.6,651,4256.9,648.6,4250.4,648.6z M4249,666.9c-3.9,0.4-4.2-2.3-4-5.3c0.2-3.8,1.1-7.6,5.3-8.3c3.9-0.6,2.2,3.2,3,5
	C4251.8,661.4,4254.7,666.3,4249,666.9z"/>
<g>
	<path class="st58" d="M73.3,2039c1.8,0,3,1.6,3.8,4.7c0,1.8-3.1,4.3-9.5,7.5c-7.8,6.8-13.6,18.5-17.4,35.1v2.7
		c8.7-4.3,14.9-6.9,18.8-7.8c1.2,0,2.6,1,4.4,3.1v2.9c0,1.1-4.4,3.3-13.2,6.6c-6.6,3.6-9.9,5.7-9.9,6.2v1.3
		c0,5.6,3.6,10.5,10.8,14.5l5.1,0.9c3.3,0,8.2-2,14.7-6.2h1.8c2.1,1,3.1,2.5,3.1,4.4v0.9c-6.2,6.5-13,9.8-20.5,9.8
		c-10.7,0-18.5-7.2-23.4-21.6l-9.5,2c-4.6-0.7-6.9-2.2-6.9-4.5c0-2.3,1.4-3.9,4-5l3.5,0.6c5.2-1.5,7.8-2.6,7.8-3.3
		c0-17,6.5-32.7,19.4-47.2C66.6,2041.5,71,2039,73.3,2039z"/>
	<path class="st58" d="M95.2,2073c0.7-2.5,2.3-3.8,4.8-3.8c2.5,0,4.1,2.5,5,7.5h0.6l6.9-1.5c3.2,0,6.3,3,9.3,9h0.6
		c4.4-6.9,8.9-10.3,13.5-10.3c9.8,1.8,14.7,8.2,14.7,19.2l0.3,5.2l-1.4,30.3v2.8c0,2.5-1.6,3.9-4.6,4.4c-3.1,0-4.6-3.7-4.6-11
		l1.8-27.2c0-10-2.4-15-7-15c-2.7,0-6,6.6-9.7,19.7c-1.9,15-3.5,22.5-4.6,22.5c-1.7,0-2.6,0.4-2.6,1c-3.1-0.4-4.6-2-4.6-4.8l2-18.2
		c-0.3-12.5-1.6-18.8-3.8-18.8h-0.5c-2.5,1.9-3.8,5.7-3.8,11.2v8l-0.6,23c-0.7,2.5-2.2,3.8-4.6,3.8c-2.1,0-3.4-1.8-4-5.2l-0.6-17.7
		l0.9-14.5C97.8,2085.2,96.7,2078.6,95.2,2073z"/>
	<path class="st58" d="M160.3,2054.3c5.2,0,8.6,10.2,10.1,30.6l0.9,4.6c4.6-9.4,8.3-14.1,11.2-14.1c0-0.4,1-0.7,3.1-0.9h0.6
		c6.6,0,10.8,5.2,12.6,15.5v0.5c0,8.8-4.4,18.5-13.2,29.1c-3.7,4-7.8,6-12.1,6c-5-1.1-7.5-3.6-7.5-7.5l-7.5-53.8l-2.2-5.5
		C156.3,2056.8,157.6,2055.4,160.3,2054.3z M175.9,2115.2h0.5c5.2-2.1,9.8-9.2,13.6-21.5v-5.7c-0.9-3.1-2.1-4.6-3.5-4.6h-1.2
		C181,2086,177.8,2096.6,175.9,2115.2z"/>
	<path class="st58" d="M219.9,2071.7c4,0.1,10.7,7.1,20.2,21l0.3,2.5c0,2.8-6.9,5-20.5,6.5l-0.5,0.5v0.6c2.1,9,4.3,13.5,6.6,13.5
		h1.8c3.2,0,8-3.5,14.6-10.3h0.9c2,0,3.5,1.5,4.6,4.3c0,2.4-4.2,6.6-12.6,12.5c-2.2,1.3-4.9,2.2-7.9,2.8c-8.1,0-13.8-7.6-17-22.8
		c-4.6-0.7-6.9-2.6-6.9-5.7c0-2.2,1.7-3.6,5.1-4.3v0.6l1.5-0.6v-3.8C210.1,2077.4,213.4,2071.7,219.9,2071.7z M220.8,2082.5h-1.4
		l-0.6,5.5v4.7h0.6c5.6-0.2,8.4-0.8,8.4-1.8C225.2,2087,222.9,2084.2,220.8,2082.5z"/>
	<path class="st58" d="M288.8,2043.2c1.7,0,3.2,1.6,4.6,4.8l-6.6,41.7v11.7c0,12.2,1.9,18.3,5.7,18.3c2.5,1.2,3.8,2.8,3.8,4.8
		c0,2.3-2,3.6-6,4c-4.4,0-7.9-4-10.4-12.1h-1.5c-3.7,8.1-8.2,12.1-13.5,12.1c-6.2,0-10-4.7-11.3-14.1c0-10.9,7.3-22.4,21.9-34.7
		c2.9,0,4.4-4,4.4-12.1C282.2,2051.3,285.1,2043.2,288.8,2043.2z M262.6,2113.2v4l2.4,2.4h0.9c3.2,0,6.9-9.6,11.2-29h-0.9
		C267.1,2099.8,262.6,2107.3,262.6,2113.2z"/>
	<path class="st58" d="M336.8,2043.2c1.7,0,3.2,1.6,4.6,4.8l-6.6,41.7v11.7c0,12.2,1.9,18.3,5.7,18.3c2.5,1.2,3.8,2.8,3.8,4.8
		c0,2.3-2,3.6-6,4c-4.4,0-7.9-4-10.4-12.1h-1.5c-3.7,8.1-8.2,12.1-13.5,12.1c-6.2,0-10-4.7-11.2-14.1c0-10.9,7.3-22.4,21.9-34.7
		c2.9,0,4.4-4,4.4-12.1C330.2,2051.3,333.1,2043.2,336.8,2043.2z M310.6,2113.2v4l2.4,2.4h0.9c3.2,0,6.9-9.6,11.2-29h-0.9
		C315.1,2099.8,310.6,2107.3,310.6,2113.2z"/>
	<path class="st58" d="M351.4,2047.4c3.8,0.8,5.7,2.5,5.7,5.1c-1,2.8-2.6,4.2-4.8,4.2c-3.7-0.7-5.5-2.5-5.5-5.5
		C347.7,2048.6,349.3,2047.4,351.4,2047.4z M357.1,2068.4c1.6,0,2.9,1.5,4,4.3l-1.4,10.7v7c0,8.2,1.4,19,4.2,32.2
		c-1,1.9-2.7,2.8-5.1,2.8c-4.1,0-6.8-12-8.1-36v-5.2C350.8,2073.7,352.9,2068.4,357.1,2068.4z"/>
	<path class="st58" d="M391.1,2075c8.5,0.7,12.8,4.9,12.8,12.5l0.3,2l-0.3,23.4c0,2.7,1.5,6.4,4.6,11v0.3c-0.8,2.9-2.2,4.4-4.4,4.4
		c-6.2-2.6-9.3-8.1-9.3-16.5v-2l-0.5-0.3l0.5-0.6v-0.3l0.4-20.7c0-2.9-1.3-4.3-3.8-4.3h-1.8c-5,2-7.5,13-7.5,32.8
		c0,6.9-1.8,10.4-5.2,10.4c-2.7,0-4.1-1.7-4.2-5.1v-15c0-19.4,1.7-29.1,5.1-29.1l1.5-0.5l3.1,0.5
		C385.3,2075.9,388.1,2075,391.1,2075z"/>
	<path class="st58" d="M437.3,2067.9c4.6,0,6.9,2.2,6.9,6.6c0.6,0,0.9,0.8,0.9,2.2h0.6l-0.6,4.4l0.6,30.3l-0.9,24
		c9,0,15,6.6,18.1,19.8c0,2.7-1.9,4.2-5.5,4.7c-1.7,0-3.6-3.8-5.7-11.2c-2-2.9-4.3-4.4-6.9-4.4h-0.6c-3.2,21.3-6,32-8.4,32
		c-2.9,5.3-7.1,8-12.6,8c-8.1-1.9-12.1-6-12.1-12.2v-0.9c0-9.4,6.7-19.6,20.1-30.6l4.6-2.8l0.6-16.2v-3.8h-0.6
		c-3.4,4.3-6.7,6.5-9.8,6.5h-0.9c-6.9,0-10.9-5.3-11.9-15.9v-3.3c0-12.8,4.7-23.9,14.1-33.3C430.3,2069.2,433.6,2067.9,437.3,2067.9
		z M419.9,2171.4c0.4,2.5,1.8,3.8,4.2,3.8c4.8,0,8.2-8.5,10.4-25.7h-0.9C424.5,2157.4,419.9,2164.7,419.9,2171.4z M422.3,2103v7.2
		c0.4,3.3,1.1,5,2.2,5h1.5c2.8,0,6.2-10.3,10.4-30.9v-7.5C430.4,2076.8,425.7,2085.5,422.3,2103z"/>
	<path class="st58" d="M483.8,2064.8c2.7,0,4.5,4.6,5.5,13.7c-1,2.5-2.7,3.8-4.9,3.8c-1.6-0.3-3.2-2.1-4.8-5.5l-2.7-0.9
		c-4.7,0-9,3.1-12.8,9.3v1.4c0,1.5,7,4,21.1,7.5c5.9,3.5,8.9,7.8,8.9,12.8c0,8.2-6.6,15.2-19.8,21l-5.5,0.9
		c-8.4-0.9-12.6-5.1-12.6-12.6v-0.5c0-2.4,1.5-3.8,4.6-4.2c2.4,0,4,2.5,4.8,7.5l1.2,0.9h2.6c5.7,0,11-3.9,15.9-11.7v-2
		c0-3-6.6-5.8-19.6-8.4c-6.9-2.8-10.4-6.7-10.4-11.7c0-6.5,5.4-12.6,16.4-18.3C476.5,2067,480.5,2066.1,483.8,2064.8z"/>
	<path class="st58" d="M569.8,2071.7c4,0.1,10.7,7.1,20.2,21l0.3,2.5c0,2.8-6.9,5-20.5,6.5l-0.5,0.5v0.6c2.1,9,4.3,13.5,6.6,13.5
		h1.8c3.2,0,8-3.5,14.6-10.3h0.9c2,0,3.5,1.5,4.6,4.3c0,2.4-4.2,6.6-12.6,12.5c-2.2,1.3-4.9,2.2-7.9,2.8c-8.1,0-13.8-7.6-17-22.8
		c-4.6-0.7-6.9-2.6-6.9-5.7c0-2.2,1.7-3.6,5.1-4.3v0.6l1.5-0.6v-3.8C560,2077.4,563.3,2071.7,569.8,2071.7z M570.7,2082.5h-1.4
		l-0.6,5.5v4.7h0.6c5.6-0.2,8.4-0.8,8.4-1.8C575.1,2087,572.8,2084.2,570.7,2082.5z"/>
	<path class="st58" d="M623,2075c8.5,0.7,12.8,4.9,12.8,12.5l0.3,2l-0.3,23.4c0,2.7,1.5,6.4,4.6,11v0.3c-0.8,2.9-2.2,4.4-4.4,4.4
		c-6.2-2.6-9.3-8.1-9.3-16.5v-2l-0.5-0.3l0.5-0.6v-0.3l0.4-20.7c0-2.9-1.3-4.3-3.8-4.3h-1.8c-5,2-7.5,13-7.5,32.8
		c0,6.9-1.8,10.4-5.2,10.4c-2.7,0-4.1-1.7-4.2-5.1v-15c0-19.4,1.7-29.1,5.1-29.1l1.5-0.5l3.1,0.5C617.2,2075.9,620,2075,623,2075z"
		/>
	<path class="st58" d="M673.1,2067.6c4.4,0,6.6,1.8,6.6,5.2l-1.4,2.8l-0.9,27.5c0,12.4,2.5,20.1,7.5,23.1l0.3,2.2
		c-0.3,2.9-1.6,4.4-4,4.4h-0.9c-7.5-5.1-11.2-12.9-11.2-23.4H668c-4,11.2-8.8,16.8-14.5,16.8c-5.3-1.5-8-5.4-8-11.8
		c0-14.1,5.6-28.1,17-42.2C666.3,2069.2,669.8,2067.6,673.1,2067.6z M655,2108.4l-0.6,4.2v2.8h1.5c7.5-18.7,11.2-30.1,11.2-34.2
		h-0.6C660.7,2087.8,656.9,2096.8,655,2108.4z"/>
	<path class="st58" d="M690.1,2054.3c5.2,0,8.6,10.2,10.1,30.6l0.9,4.6c4.6-9.4,8.3-14.1,11.2-14.1c0-0.4,1-0.7,3.1-0.9h0.6
		c6.6,0,10.8,5.2,12.6,15.5v0.5c0,8.8-4.4,18.5-13.2,29.1c-3.7,4-7.8,6-12.1,6c-5-1.1-7.5-3.6-7.5-7.5l-7.5-53.8l-2.2-5.5
		C686,2056.8,687.4,2055.4,690.1,2054.3z M705.7,2115.2h0.5c5.2-2.1,9.8-9.2,13.6-21.5v-5.7c-0.9-3.1-2.1-4.6-3.5-4.6h-1.2
		C710.7,2086,707.6,2096.6,705.7,2115.2z"/>
	<path class="st58" d="M744.7,2042.9c2.8,1,4.2,2.5,4.2,4.6l1.5,57.2v18.5c0,3.4-1.5,5.1-4.4,5.1h-2c-1.8-1.2-2.7-2.6-2.7-4.2v-17.4
		l-1.4-59.4C740,2044.7,741.6,2043.3,744.7,2042.9z"/>
	<path class="st58" d="M774.7,2071.7c4,0.1,10.7,7.1,20.2,21l0.3,2.5c0,2.8-6.9,5-20.5,6.5l-0.5,0.5v0.6c2.1,9,4.3,13.5,6.6,13.5
		h1.8c3.2,0,8-3.5,14.6-10.3h0.9c2,0,3.5,1.5,4.6,4.3c0,2.4-4.2,6.6-12.6,12.5c-2.2,1.3-4.9,2.2-7.9,2.8c-8.1,0-13.8-7.6-17-22.8
		c-4.6-0.7-6.9-2.6-6.9-5.7c0-2.2,1.7-3.6,5.1-4.3v0.6l1.5-0.6v-3.8C764.9,2077.4,768.2,2071.7,774.7,2071.7z M775.6,2082.5h-1.4
		l-0.6,5.5v4.7h0.6c5.6-0.2,8.4-0.8,8.4-1.8C780,2087,777.7,2084.2,775.6,2082.5z"/>
	<path class="st58" d="M895.1,2064.8c2.7,0,4.5,4.6,5.5,13.7c-1,2.5-2.7,3.8-4.9,3.8c-1.6-0.3-3.2-2.1-4.8-5.5l-2.7-0.9
		c-4.7,0-9,3.1-12.8,9.3v1.4c0,1.5,7,4,21.1,7.5c5.9,3.5,8.9,7.8,8.9,12.8c0,8.2-6.6,15.2-19.8,21l-5.5,0.9
		c-8.4-0.9-12.6-5.1-12.6-12.6v-0.5c0-2.4,1.5-3.8,4.6-4.2c2.4,0,4,2.5,4.8,7.5l1.2,0.9h2.6c5.7,0,11-3.9,15.9-11.7v-2
		c0-3-6.6-5.8-19.6-8.4c-6.9-2.8-10.4-6.7-10.4-11.7c0-6.5,5.4-12.6,16.4-18.3C887.8,2067,891.8,2066.1,895.1,2064.8z"/>
	<path class="st58" d="M912.8,2047.4c3.8,0.8,5.7,2.5,5.7,5.1c-1,2.8-2.6,4.2-4.8,4.2c-3.7-0.7-5.5-2.5-5.5-5.5
		C909.2,2048.6,910.7,2047.4,912.8,2047.4z M918.5,2068.4c1.6,0,2.9,1.5,4,4.3l-1.4,10.7v7c0,8.2,1.4,19,4.2,32.2
		c-1,1.9-2.7,2.8-5.1,2.8c-4.1,0-6.8-12-8.1-36v-5.2C912.2,2073.7,914.3,2068.4,918.5,2068.4z"/>
	<path class="st58" d="M935.5,2073c0.7-2.5,2.3-3.8,4.8-3.8c2.5,0,4.1,2.5,5,7.5h0.6l6.9-1.5c3.2,0,6.3,3,9.3,9h0.6
		c4.4-6.9,8.9-10.3,13.5-10.3c9.8,1.8,14.7,8.2,14.7,19.2l0.3,5.2l-1.4,30.3v2.8c0,2.5-1.6,3.9-4.6,4.4c-3.1,0-4.6-3.7-4.6-11
		l1.8-27.2c0-10-2.4-15-7-15c-2.7,0-6,6.6-9.8,19.7c-1.9,15-3.5,22.5-4.6,22.5c-1.7,0-2.6,0.4-2.6,1c-3.1-0.4-4.6-2-4.6-4.8l2-18.2
		c-0.3-12.5-1.6-18.8-3.8-18.8h-0.5c-2.5,1.9-3.8,5.7-3.8,11.2v8l-0.6,23c-0.7,2.5-2.2,3.8-4.6,3.8c-2.1,0-3.4-1.8-4-5.2l-0.6-17.7
		l0.9-14.5C938,2085.2,937,2078.6,935.5,2073z"/>
	<path class="st58" d="M1001.2,2047.4c3.8,0.8,5.7,2.5,5.7,5.1c-1,2.8-2.6,4.2-4.8,4.2c-3.7-0.7-5.5-2.5-5.5-5.5
		C997.5,2048.6,999.1,2047.4,1001.2,2047.4z M1006.9,2068.4c1.6,0,2.9,1.5,4,4.3l-1.4,10.7v7c0,8.2,1.4,19,4.2,32.2
		c-1,1.9-2.7,2.8-5.1,2.8c-4.1,0-6.8-12-8.1-36v-5.2C1000.6,2073.7,1002.7,2068.4,1006.9,2068.4z"/>
	<path class="st58" d="M1030,2042.9c2.8,1,4.2,2.5,4.2,4.6l1.5,57.2v18.5c0,3.4-1.5,5.1-4.4,5.1h-2c-1.8-1.2-2.7-2.6-2.7-4.2v-17.4
		l-1.4-59.4C1025.3,2044.7,1026.9,2043.3,1030,2042.9z"/>
	<path class="st58" d="M1074.5,2067.6c4.4,0,6.6,1.8,6.6,5.2l-1.4,2.8l-0.9,27.5c0,12.4,2.5,20.1,7.5,23.1l0.3,2.2
		c-0.3,2.9-1.6,4.4-4,4.4h-0.9c-7.5-5.1-11.2-12.9-11.2-23.4h-1.1c-4,11.2-8.8,16.8-14.5,16.8c-5.3-1.5-8-5.4-8-11.8
		c0-14.1,5.6-28.1,17-42.2C1067.7,2069.2,1071.2,2067.6,1074.5,2067.6z M1056.4,2108.4l-0.6,4.2v2.8h1.5
		c7.5-18.7,11.2-30.1,11.2-34.2h-0.6C1062.1,2087.8,1058.3,2096.8,1056.4,2108.4z"/>
	<path class="st58" d="M1110.1,2066.4c6.3,0,10.1,4.4,11.2,13.2v1.3c0,9.7-5,18.6-15,26.7c5.8,5.7,15.9,8.5,30.5,8.5
		c2.2,0.7,3.3,2.2,3.3,4.7c0,2.7-1.8,4-5.2,4c-9.8,0-20.1-2.5-30.9-7.5v4.3c0,10.3-2.2,15.5-6.6,15.5c-3.1,0-4.6-6-4.6-17.8v-11.7
		l-0.5-4.2l1.1-4.8l-1.1-14.4v-0.6c0-2.7,1.4-4.5,4.2-5.5C1100.3,2070.3,1104.9,2066.4,1110.1,2066.4z M1102.6,2099.3
		c2.9,0,6.1-5.2,9.8-15.6v-6.5l-1.8-2h-1.4C1104.8,2078.3,1102.6,2086.3,1102.6,2099.3z"/>
	<path class="st58" d="M1146.8,2047.4c3.8,0.8,5.7,2.5,5.7,5.1c-1,2.8-2.6,4.2-4.8,4.2c-3.7-0.7-5.5-2.5-5.5-5.5
		C1143.2,2048.6,1144.7,2047.4,1146.8,2047.4z M1152.5,2068.4c1.6,0,2.9,1.5,4,4.3l-1.4,10.7v7c0,8.2,1.4,19,4.2,32.2
		c-1,1.9-2.7,2.8-5.1,2.8c-4.1,0-6.8-12-8.1-36v-5.2C1146.2,2073.7,1148.3,2068.4,1152.5,2068.4z"/>
	<path class="st58" d="M1184.8,2034.5c2.8,0.6,4.2,2,4.2,4.2l-0.9,6.6v2c0,4.4,0.5,9.1,1.5,14h0.3c11.6-3.5,18.8-5.2,21.6-5.2
		c2.9,0.8,4.4,2.2,4.4,4.3c0,3.4-3.5,5.1-10.4,5.1l-15.6,5.5c0,13.5,1.4,31.9,4.4,55c-0.6,2.7-2.1,4-4.4,4h-0.3
		c-3.5,0-5.2-4.5-5.2-13.5c-1.3-6.7-2.4-21.2-3.3-43.6h-2.7c-9.4-0.6-14.1-2.8-14.1-6.6c0-1.1,1-2.4,3.1-4h1.5l6.9,1.8h4.8
		l-1.4-18.8C1179.2,2038.1,1181.1,2034.5,1184.8,2034.5z"/>
	<path class="st58" d="M1225.1,2080.5c3.5,0,5.9,7.7,7.2,23.1c1.7,7.1,2.9,10.6,3.8,10.6h0.9c2.5-6.3,3.8-12.5,3.8-18.8l-0.9-10.3
		c1.1-2.7,2.6-4,4.6-4c3.7,0,5.5,6.6,5.5,19.6c2.2,13.6,3.3,26.2,3.3,38v7c0,21.5-6.1,36-18.3,43.5l-3.3,0.6
		c-5.7,0-11-5.3-15.9-15.9l-1.4-9v-0.5c0-6.6,1.9-9.9,5.5-9.9l3.8,2.4l-0.4,9.5c0,4.6,2.3,9.2,7,14h2c5.5,0,9.5-10.5,12.1-31.5
		l0.3-8.7c-0.1-10.1-0.5-16.5-1.2-19.3c-4,3.5-7.2,5.2-9.5,5.2c-5.1,0-9.7-13.7-13.6-41l-0.5-0.3
		C1220,2082.6,1221.7,2081.1,1225.1,2080.5z"/>
	<path class="st58" d="M1331.9,2074.7l6.1-0.9c2.5,0,3.9,1.6,4.2,4.7c0,2.7-3.3,4.5-9.8,5.2c-4.1,3.2-6.1,7.3-6.1,12.3v5
		c2,11,5.4,16.5,10.2,16.5h1.5c2.8,0,7-2.6,12.6-8h0.9c2,0,3.6,1.4,4.8,4.2c-1.4,4.3-5.9,8.2-13.5,11.7c-1.4,0.6-3.1,0.9-5.2,0.9
		c-10.3,0-17-8.1-20.1-24.3v-3.3C1317.5,2087,1322.3,2079,1331.9,2074.7z"/>
	<path class="st58" d="M1391.9,2067.6c4.4,0,6.6,1.8,6.6,5.2l-1.4,2.8l-0.9,27.5c0,12.4,2.5,20.1,7.5,23.1l0.3,2.2
		c-0.3,2.9-1.6,4.4-4,4.4h-0.9c-7.5-5.1-11.2-12.9-11.2-23.4h-1.1c-4,11.2-8.8,16.8-14.5,16.8c-5.3-1.5-8-5.4-8-11.8
		c0-14.1,5.6-28.1,17-42.2C1385.1,2069.2,1388.6,2067.6,1391.9,2067.6z M1373.8,2108.4l-0.6,4.2v2.8h1.5
		c7.5-18.7,11.2-30.1,11.2-34.2h-0.6C1379.5,2087.8,1375.7,2096.8,1373.8,2108.4z"/>
	<path class="st58" d="M1416.2,2042.9c2.8,1,4.2,2.5,4.2,4.6l1.5,57.2v18.5c0,3.4-1.5,5.1-4.4,5.1h-2c-1.8-1.2-2.7-2.6-2.7-4.2
		v-17.4l-1.4-59.4C1411.6,2044.7,1413.1,2043.3,1416.2,2042.9z"/>
	<path class="st58" d="M1448,2074.7l6.1-0.9c2.5,0,3.9,1.6,4.2,4.7c0,2.7-3.3,4.5-9.8,5.2c-4.1,3.2-6.1,7.3-6.1,12.3v5
		c2,11,5.4,16.5,10.2,16.5h1.5c2.8,0,7-2.6,12.6-8h0.9c2,0,3.6,1.4,4.8,4.2c-1.4,4.3-5.9,8.2-13.5,11.7c-1.4,0.6-3.1,0.9-5.2,0.9
		c-10.3,0-17-8.1-20.1-24.3v-3.3C1433.6,2087,1438.4,2079,1448,2074.7z"/>
	<path class="st58" d="M1486,2080.4l2.7-1.5c2.4,0,4.1,1.5,5.2,4.3c-1.6,7.4-2.4,15-2.4,22.8c0,3.9,1.1,8.2,3.5,12.8h0.9
		c2.9,0,6.3-11.4,10.4-34.3c1.4-1.2,2.7-1.8,4-1.8c3.1,0,4.6,5.5,4.6,16.5c1.3,12.1,2.7,18.1,4.4,18.1l2.2-0.9
		c2.9,1.1,4.4,2.7,4.4,4.6c-1.8,3.8-4.3,5.7-7.5,5.7c-3.6,0-7-3.6-10.4-10.8c-4,8.4-8.1,12.6-12.1,12.6c-6.1,0-10.4-6.3-12.8-19
		l-0.5-4.8v-1.5C1482.7,2095.2,1483.8,2087.6,1486,2080.4z"/>
	<path class="st58" d="M1537.6,2042.9c2.8,1,4.2,2.5,4.2,4.6l1.5,57.2v18.5c0,3.4-1.5,5.1-4.4,5.1h-2c-1.8-1.2-2.7-2.6-2.7-4.2
		v-17.4l-1.4-59.4C1532.9,2044.7,1534.5,2043.3,1537.6,2042.9z"/>
	<path class="st58" d="M1582.1,2067.6c4.4,0,6.6,1.8,6.6,5.2l-1.4,2.8l-0.9,27.5c0,12.4,2.5,20.1,7.5,23.1l0.3,2.2
		c-0.3,2.9-1.6,4.4-4,4.4h-0.9c-7.5-5.1-11.2-12.9-11.2-23.4h-1.1c-4,11.2-8.8,16.8-14.5,16.8c-5.3-1.5-8-5.4-8-11.8
		c0-14.1,5.6-28.1,17-42.2C1575.3,2069.2,1578.8,2067.6,1582.1,2067.6z M1564,2108.4l-0.6,4.2v2.8h1.5c7.5-18.7,11.2-30.1,11.2-34.2
		h-0.6C1569.7,2087.8,1565.9,2096.8,1564,2108.4z"/>
	<path class="st58" d="M1615.6,2034.5c2.8,0.6,4.2,2,4.2,4.2l-0.9,6.6v2c0,4.4,0.5,9.1,1.5,14h0.3c11.6-3.5,18.8-5.2,21.6-5.2
		c2.9,0.8,4.4,2.2,4.4,4.3c0,3.4-3.5,5.1-10.4,5.1l-15.6,5.5c0,13.5,1.4,31.9,4.4,55c-0.6,2.7-2.1,4-4.4,4h-0.3
		c-3.5,0-5.2-4.5-5.2-13.5c-1.3-6.7-2.4-21.2-3.3-43.6h-2.7c-9.4-0.6-14.1-2.8-14.1-6.6c0-1.1,1-2.4,3.1-4h1.5l6.9,1.8h4.8
		l-1.4-18.8C1610,2038.1,1611.9,2034.5,1615.6,2034.5z"/>
	<path class="st58" d="M1652.9,2047.4c3.8,0.8,5.7,2.5,5.7,5.1c-1,2.8-2.6,4.2-4.8,4.2c-3.7-0.7-5.5-2.5-5.5-5.5
		C1649.3,2048.6,1650.8,2047.4,1652.9,2047.4z M1658.6,2068.4c1.6,0,2.9,1.5,4,4.3l-1.4,10.7v7c0,8.2,1.4,19,4.2,32.2
		c-1,1.9-2.7,2.8-5.1,2.8c-4.1,0-6.8-12-8.1-36v-5.2C1652.3,2073.7,1654.4,2068.4,1658.6,2068.4z"/>
	<path class="st58" d="M1697.2,2069c7.4,0,13,5.5,16.8,16.5l0.6,3.2c0,10.7-5,21.7-15,32.8c-4,3.7-8.1,5.5-12.1,5.5
		c-6,0-10.3-3.5-12.8-10.3c-0.9-3.2-1.4-6-1.4-8.4v-1.8c0-15.8,5.7-27.8,17.2-36C1692.6,2069.5,1694.8,2069,1697.2,2069z
		 M1682.2,2108c0,6.8,1.7,10.2,5.2,10.2c7.3,0,13.4-9.3,18.1-28v-2.9c-1.7-6.2-4.9-9.3-9.5-9.3c-1.8,0-2.7,1.3-2.7,3.8
		c0,1.7-2,3.1-6,4C1683.9,2091.7,1682.2,2099.1,1682.2,2108z"/>
	<path class="st58" d="M1740.7,2075c8.5,0.7,12.8,4.9,12.8,12.5l0.3,2l-0.3,23.4c0,2.7,1.5,6.4,4.6,11v0.3c-0.8,2.9-2.2,4.4-4.4,4.4
		c-6.2-2.6-9.3-8.1-9.3-16.5v-2l-0.5-0.3l0.5-0.6v-0.3l0.4-20.7c0-2.9-1.3-4.3-3.8-4.3h-1.8c-5,2-7.5,13-7.5,32.8
		c0,6.9-1.8,10.4-5.2,10.4c-2.7,0-4.1-1.7-4.2-5.1v-15c0-19.4,1.7-29.1,5.1-29.1l1.5-0.5l3.1,0.5
		C1734.8,2075.9,1737.7,2075,1740.7,2075z"/>
	<path class="st58" d="M1792.9,2064.8c2.7,0,4.5,4.6,5.5,13.7c-1,2.5-2.7,3.8-4.9,3.8c-1.6-0.3-3.2-2.1-4.8-5.5l-2.7-0.9
		c-4.7,0-9,3.1-12.8,9.3v1.4c0,1.5,7,4,21.1,7.5c5.9,3.5,8.9,7.8,8.9,12.8c0,8.2-6.6,15.2-19.8,21l-5.5,0.9
		c-8.4-0.9-12.6-5.1-12.6-12.6v-0.5c0-2.4,1.5-3.8,4.6-4.2c2.4,0,4,2.5,4.8,7.5l1.2,0.9h2.6c5.7,0,11-3.9,15.9-11.7v-2
		c0-3-6.6-5.8-19.6-8.4c-6.9-2.8-10.4-6.7-10.4-11.7c0-6.5,5.4-12.6,16.4-18.3C1785.5,2067,1789.6,2066.1,1792.9,2064.8z"/>
</g>
</svg>
