<?xml version="1.0" encoding="utf-8"?>
<!-- Generator: Adobe Illustrator 25.1.0, SVG Export Plug-In . SVG Version: 6.00 Build 0)  -->
<svg version="1.1" id="Layer_1" xmlns="http://www.w3.org/2000/svg" xmlns:xlink="http://www.w3.org/1999/xlink" x="0px" y="0px"
	 viewBox="0 0 4839.7 2809.3" style="enable-background:new 0 0 4839.7 2809.3;" xml:space="preserve">
<style type="text/css">
	.st0{fill:none;}
	.st1{fill:#FFFFFF;}
	.st2{fill:#010101;}
	.st3{fill:none;stroke:#010101;stroke-width:1.5;stroke-linecap:round;stroke-miterlimit:10;}
	.st4{fill:none;stroke:#010101;stroke-width:1.5;stroke-linecap:round;stroke-linejoin:round;stroke-miterlimit:10;}
</style>
<g id="vGqCsH_1_">
	<g>
		<path class="st0" d="M15.8,1217.9c1,0.3,1.8,0.5,2.5,0.8c29.9,10.4,59.9,20.7,89.8,31.1c26.2,9.1,52.3,18.2,78.4,27.3
			c31.8,11,63.6,22.1,95.4,33.1c5.5,1.9,7.8,0.8,9.6-4.7c4.3-12.8,8.5-25.7,12.8-38.5c11.7-34.3,24.4-68.2,37.9-101.8
			c13-32.4,26.9-64.4,41.5-96.1c14.4-31.3,29.7-62.1,45.6-92.6c4.3-8.2,8.5-16.3,12.7-24.5c1.7-3.3,0.6-6.4-2.6-7.6
			c-20.4-7.9-40.7-15.9-61.1-23.7c-35.4-13.5-71-26.3-107.1-37.6c-31-9.7-62.2-18.7-93.4-27.9c-3.6-1.1-5.3-0.3-7,3.1
			c-2.9,5.8-5.7,11.7-8.6,17.6c-13.9,28.5-27.7,56.9-41.7,85.4c-13.6,27.7-27.2,55.4-40.8,83c-16,32.6-31.9,65.1-48,97.7
			c-7.1,14.4-14.4,28.7-21.5,43.2c-2.7,5.5-4.9,11.2-7.4,16.7c-0.5,1-1,2.1-1.7,3c-2.4,3.2-1.2,7.6,2.6,8.9c2.3,0.8,4.6,1.7,7,2.5
			c-0.8,2.6-1.5,5-2.3,7.4c-0.3,0.9-0.3,2-0.9,2.6c-0.9,1.2-0.5,1.9,0.5,2.5c1.4,0.8,2.9,1.5,4.4,2.3c1.4,0.6,3.4,0.9,3.9,1.9
			c0.5,1-0.5,2.8-0.9,4.2c-0.6,2.2,0.6,4.9,2.6,5.6c27.6,9.7,55.2,19.6,82.9,29c39,13.3,78.2,26.1,117.3,39.2
			c27.5,9.3,55,18.7,82.5,28.1c5.3,1.8,10.6,3.9,15.9,5.6c4.2,1.3,8.7,0.8,9.1-4.8c0.2-2.4,1-4.8,1.7-7.2
			c6.1-21.6,12.2-43.2,18.4-64.8c8.1-28,16.1-56,24.7-83.8c6.8-22,14.3-43.8,21.8-65.5c8.6-24.6,17.4-49.2,26.5-73.7
			c8.3-22.5,17.1-44.8,25.6-67.2c0.3-0.7-0.1-1.6-0.1-2.4c-0.6,0.5-1.3,0.9-1.9,1.4c-0.4,0.4-0.5,0.9-0.8,1.4
			c-5.3,11.9-10.9,23.7-15.7,35.9c-12.8,32.3-25.3,64.7-37.6,97.3c-13,34.5-24.8,69.5-36,104.6c-11.3,35.6-21.8,71.4-30.6,107.6
			c-1,4.3-2.3,8.6-3.4,13c-100.4-30.9-198.9-66.4-299.3-96c0.6-2.2,1.2-4.3,1.7-6.4c5.8,2,11.3,4,16.9,5.9
			c29.2,10,58.5,20,87.8,29.9c31.9,10.9,63.7,21.7,95.6,32.6c21.2,7.2,42.4,14.3,63.6,21.5c7.9,2.7,15.7,5.3,23.6,7.9
			c3.5,1.1,5.9-1,5.2-4.6c-0.2-1.2-1.1-2.3-1.8-3.7c3.5-0.3,4.7-2.8,5.6-5.9c1.6-6,3.3-11.9,5.1-17.8c7.3-24.2,14.6-48.4,22.1-72.5
			c10.9-34.8,22.7-69.2,35.4-103.3c6.8-18.5,13.8-36.9,21-55.3c8-20.1,16.3-40.1,24.6-60.1c6.9-16.8,14-33.4,21-50.2
			c0.4-1,1.6-2.3,0.1-3.1c-1.7-0.8-2,1.1-2.4,2.1c-7.9,16.4-16.2,32.6-23.6,49.2c-12,26.7-23.8,53.5-35,80.5
			c-17.6,42.8-33.9,86.1-48.3,130c-10.7,32.6-20.5,65.4-30.7,98.1c-0.7,2.3-1.3,4.6,0.7,7c-98.3-32.1-196.2-64-294.2-95.9
			C14.1,1223.7,14.9,1220.9,15.8,1217.9z M131.2,899.2c0.2-0.2,0.7-0.5,0.9-0.9c0.5-0.7,0.8-1.6,1.3-2.4c7.7-14.3,15.4-28.7,23-43
			c0.5-0.9,1.8-1.9,0.6-3.3c-0.8,0.8-1.7,1.4-2.2,2.3c-6.2,11-12.2,22.1-18.3,33.1c-2.1,3.8-4.3,7.7-6.4,11.5
			C129.2,898.1,129.6,899.2,131.2,899.2z M360,1283.5c-0.3-0.1-0.6-0.2-0.8-0.2c-0.3,0.6-0.6,1.1-0.8,1.7
			c-4.7,15.4-9.4,30.8-14,46.3c-0.2,0.6-0.4,1.2-0.3,1.8c0,0.6,0.4,1.2,0.6,1.8c0.6-0.4,1.4-0.7,1.6-1.3c0.6-1.2,0.9-2.6,1.2-3.9
			c4.1-14.5,8.1-29.1,12.1-43.6C359.8,1285.3,359.9,1284.4,360,1283.5z M368.4,1304.4c-0.3-0.3-0.6-1.1-1.1-1.2
			c-0.5-0.1-1.2,0.5-1.5,1c-0.4,0.7-0.5,1.6-0.6,2.4c-1.1,4.9-2.3,9.7-3.3,14.6c-0.2,0.8,0.5,1.7,0.7,2.5c0.6-0.6,1.5-1.2,1.8-1.9
			c0.6-1.6,0.8-3.3,1.2-5C366.5,1312.8,367.4,1308.8,368.4,1304.4z M123.2,880.5c0.2,0.3,0.3,1.1,0.5,1.1c0.4,0,1.1-0.2,1.3-0.6
			c0.6-0.9,1.1-1.9,1.4-2.9c1.1-3.1,2.1-6.2,3.2-9.4c0.8-2.3,1.7-4.7,2.4-7c0.1-0.5-0.2-1.1-0.3-1.6c-0.5,0.3-1.1,0.6-1.5,0.9
			c-0.2,0.1-0.2,0.5-0.3,0.7c-1.8,4.7-3.5,9.4-5.2,14.1C124.1,877.2,123.7,878.8,123.2,880.5z"/>
		<path d="M15.8,1217.9c-0.9,3.1-1.7,5.8-2.5,8.7c98,31.9,195.9,63.8,294.2,95.9c-2-2.4-1.4-4.7-0.7-7c10.2-32.7,20-65.6,30.7-98.1
			c14.4-44,30.6-87.3,48.3-130c11.2-27.1,23-53.8,35-80.5c7.4-16.6,15.7-32.8,23.6-49.2c0.5-1,0.8-2.9,2.4-2.1
			c1.5,0.7,0.3,2.1-0.1,3.1c-7,16.7-14.1,33.4-21,50.2c-8.3,20-16.6,40-24.6,60.1c-7.3,18.3-14.2,36.8-21,55.3
			c-12.6,34.1-24.5,68.6-35.4,103.3c-7.5,24.1-14.8,48.3-22.1,72.5c-1.8,5.9-3.5,11.9-5.1,17.8c-0.8,3.1-2,5.6-5.6,5.9
			c0.7,1.3,1.5,2.4,1.8,3.7c0.7,3.6-1.7,5.8-5.2,4.6c-7.9-2.6-15.8-5.3-23.6-7.9c-21.2-7.2-42.4-14.3-63.6-21.5
			c-31.9-10.8-63.7-21.7-95.6-32.6c-29.3-10-58.5-19.9-87.8-29.9c-5.6-1.9-11.1-3.9-16.9-5.9c-0.6,2.2-1.1,4.2-1.7,6.4
			c100.3,29.7,198.9,65.2,299.3,96c1.2-4.4,2.4-8.7,3.4-13c8.8-36.3,19.3-72.1,30.6-107.6c11.2-35.2,23-70.1,36-104.6
			c12.2-32.5,24.8-64.9,37.6-97.3c4.8-12.1,10.4-23.9,15.7-35.9c0.2-0.5,0.4-1.1,0.8-1.4c0.5-0.6,1.2-1,1.9-1.4
			c0,0.8,0.4,1.7,0.1,2.4c-8.5,22.4-17.3,44.7-25.6,67.2c-9.1,24.5-17.9,49-26.5,73.7c-7.6,21.7-15,43.5-21.8,65.5
			c-8.6,27.8-16.6,55.8-24.7,83.8c-6.3,21.6-12.3,43.2-18.4,64.8c-0.7,2.4-1.5,4.8-1.7,7.2c-0.4,5.6-4.9,6.1-9.1,4.8
			c-5.4-1.6-10.6-3.8-15.9-5.6c-27.5-9.4-55-18.8-82.5-28.1c-39.1-13.1-78.2-26-117.3-39.2c-27.7-9.4-55.3-19.3-82.9-29
			c-2-0.7-3.2-3.3-2.6-5.6c0.4-1.4,1.4-3.2,0.9-4.2c-0.5-1-2.6-1.3-3.9-1.9c-1.5-0.7-3-1.4-4.4-2.3c-1-0.6-1.4-1.3-0.5-2.5
			c0.5-0.7,0.6-1.7,0.9-2.6c0.7-2.4,1.5-4.8,2.3-7.4c-2.4-0.9-4.7-1.7-7-2.5c-3.8-1.4-5-5.7-2.6-8.9c0.7-0.9,1.2-2,1.7-3
			c2.5-5.6,4.8-11.3,7.4-16.7c7.1-14.4,14.4-28.7,21.5-43.2c16-32.5,32-65.1,48-97.7c13.6-27.7,27.3-55.3,40.8-83
			c13.9-28.4,27.8-56.9,41.7-85.4c2.9-5.9,5.7-11.7,8.6-17.6c1.7-3.4,3.4-4.2,7-3.1c31.1,9.3,62.4,18.2,93.4,27.9
			c36.1,11.3,71.8,24.1,107.1,37.6c20.4,7.8,40.8,15.8,61.1,23.7c3.2,1.3,4.3,4.3,2.6,7.6c-4.2,8.2-8.5,16.3-12.7,24.5
			c-15.9,30.5-31.2,61.4-45.6,92.6c-14.6,31.7-28.5,63.7-41.5,96.1c-13.5,33.6-26.2,67.5-37.9,101.8c-4.4,12.8-8.6,25.7-12.8,38.5
			c-1.8,5.5-4.1,6.7-9.6,4.7c-31.8-11-63.6-22.1-95.4-33.1c-26.2-9.1-52.3-18.2-78.4-27.3c-29.9-10.4-59.8-20.7-89.8-31.1
			C17.5,1218.4,16.7,1218.2,15.8,1217.9z M430.4,951.5c-0.6-0.3-1-0.5-1.4-0.7c-29.4-12.5-59.2-24-89.3-34.8
			c-38.7-13.9-77.6-26.8-117-38.5c-14.2-4.2-28.5-8.2-42.7-12.4c-1.3-0.4-2-0.2-2.6,1c-9.8,19.4-19.7,38.7-29.5,58.1
			c-12.8,25.4-25.5,50.8-38.3,76.3c-14.9,29.7-29.9,59.3-44.8,88.9c-13.4,26.6-26.7,53.3-40.1,79.9c-2.8,5.5-5.8,10.8-8.6,16.3
			c-1.7,3.4-3.2,6.9-4.8,10.2c-1.1,2.3-2.5,4.5-3.8,7.1c91.7,32,183.2,63.9,274.9,95.9C321.5,1178.6,370.6,1062.8,430.4,951.5z"/>
		<path d="M131.2,899.2c-1.6,0-2-1.1-1.2-2.6c2.1-3.8,4.3-7.7,6.4-11.5c6.1-11,12.2-22.1,18.3-33.1c0.5-0.9,1.5-1.5,2.2-2.3
			c1.3,1.3-0.1,2.3-0.6,3.3c-7.6,14.4-15.3,28.7-23,43c-0.4,0.8-0.8,1.6-1.3,2.4C131.8,898.8,131.4,899,131.2,899.2z"/>
		<path d="M360,1283.5c-0.1,0.9-0.2,1.8-0.4,2.6c-4,14.5-8.1,29.1-12.1,43.6c-0.4,1.3-0.7,2.7-1.2,3.9c-0.3,0.6-1.1,0.9-1.6,1.3
			c-0.2-0.6-0.5-1.2-0.6-1.8c0-0.6,0.2-1.2,0.3-1.8c4.7-15.4,9.3-30.9,14-46.3c0.2-0.6,0.5-1.2,0.8-1.7
			C359.5,1283.4,359.7,1283.5,360,1283.5z"/>
		<path d="M368.4,1304.4c-1,4.4-1.9,8.4-2.8,12.4c-0.4,1.7-0.6,3.4-1.2,5c-0.3,0.8-1.2,1.3-1.8,1.9c-0.3-0.8-0.9-1.8-0.7-2.5
			c1-4.9,2.2-9.8,3.3-14.6c0.2-0.8,0.3-1.7,0.6-2.4c0.3-0.5,1-1,1.5-1C367.7,1303.3,368.1,1304.1,368.4,1304.4z"/>
		<path d="M123.2,880.5c0.5-1.7,0.9-3.2,1.4-4.7c1.7-4.7,3.5-9.4,5.2-14.1c0.1-0.3,0.1-0.6,0.3-0.7c0.5-0.4,1-0.6,1.5-0.9
			c0.1,0.5,0.5,1.1,0.3,1.6c-0.7,2.4-1.6,4.7-2.4,7c-1.1,3.1-2.1,6.3-3.2,9.4c-0.4,1-0.9,2-1.4,2.9c-0.2,0.4-0.9,0.6-1.3,0.6
			C123.5,881.5,123.3,880.8,123.2,880.5z"/>
		<path class="st0" d="M430.4,951.5c-59.9,111.4-108.9,227.2-148.1,347.4c-91.7-32-183.2-63.9-274.9-95.9c1.4-2.5,2.7-4.8,3.8-7.1
			c1.7-3.4,3.1-6.9,4.8-10.2c2.8-5.5,5.8-10.8,8.6-16.3c13.4-26.6,26.7-53.3,40.1-79.9c14.9-29.7,29.8-59.3,44.8-88.9
			c12.8-25.4,25.5-50.9,38.3-76.3c9.8-19.4,19.7-38.7,29.5-58.1c0.6-1.3,1.3-1.4,2.6-1c14.2,4.2,28.5,8.2,42.7,12.4
			c39.4,11.7,78.4,24.6,117,38.5c30.1,10.8,59.9,22.3,89.3,34.8C429.4,950.9,429.8,951.2,430.4,951.5z M365.3,1011.6
			c0-1.9-1.2-2.6-2.8-3.1c-8.7-2.8-17.4-5.6-26.1-8.4c-48.7-15.9-97.4-31.9-146.6-46.2c-3.4-1-6.8-2-10.3-3c-0.5-0.1-1,0.3-1.6,0.4
			c0.3,0.5,0.5,1.1,0.9,1.5c0.2,0.3,0.7,0.3,1.1,0.5c13.9,4.9,27.8,10,41.8,14.6c38.9,12.9,77.9,25.6,116.9,38.3
			c7.6,2.5,15.2,4.9,22.7,7.4C363.9,1014.5,365.3,1013.7,365.3,1011.6z M345.7,1048.3c0-2-1.3-2.6-3-3.1
			c-34.1-9.2-68.3-18.5-102.4-27.6c-25.3-6.7-50.7-13.1-76-19.7c-3.1-0.8-6.3-1.6-9.4-2.3c-0.4-0.1-0.9,0.2-1.4,0.4
			c0.3,0.4,0.6,0.8,1,1.1c0.3,0.2,0.6,0.2,1,0.3c15.9,4.7,31.8,9.6,47.8,14.1c40.5,11.6,81.1,23.1,121.7,34.6
			c5.7,1.6,11.4,3.2,17.1,4.7C344.4,1051.6,345.7,1050.6,345.7,1048.3z M312.8,1107.9c2.1-0.1,3-0.9,3.3-2.3c0.3-1.5-0.7-2.3-2-2.7
			c-4.5-1.4-9-2.9-13.6-4.2c-20.4-6-40.7-12-61.1-17.8c-28.9-8.2-57.9-16.2-86.9-24.4c-0.4-0.1-0.8-0.3-1.2-0.2
			c-0.5,0.1-1.1,0.4-1.2,0.8c-0.1,0.4,0.1,1.1,0.4,1.4c0.4,0.4,1.1,0.5,1.7,0.7c17.7,5.5,35.4,11.2,53.1,16.6
			c32.6,10,65.3,19.8,98,29.7C306.6,1106.4,309.9,1107.2,312.8,1107.9z M283.6,1160.9c0.8-0.7,1.9-1.2,2.1-1.9
			c0.2-0.8-0.3-2.3-1-2.7c-2.3-1.3-4.7-2.6-7.2-3.4c-11.6-3.8-23.3-7.5-34.9-11.3c-34.3-11.1-68.6-22.3-102.9-33.4
			c-0.6-0.2-1.2-0.4-1.8-0.4c-0.3,0-0.9,0.3-0.9,0.6c-0.1,0.4,0.1,0.9,0.3,1.2c0.3,0.3,0.8,0.4,1.3,0.6
			c17.8,6.4,35.7,12.9,53.5,19.2c27,9.6,54,19.1,81.1,28.5C276.4,1159.1,279.9,1159.9,283.6,1160.9z M332.6,949.1
			c0.5-0.7,1.5-1.4,1.8-2.3c0.6-1.8-0.5-3.2-2.7-3.9c-8.2-2.6-16.4-5.2-24.6-7.7c-18.4-5.6-36.8-11.6-55.6-15.8
			c-0.7-0.1-1.5,0.3-2.2,0.5c0.5,0.5,0.9,1.3,1.5,1.6c5.7,2.3,11.3,4.7,17.1,6.6c20.8,6.9,41.7,13.7,62.6,20.5
			C331,948.7,331.5,948.8,332.6,949.1z M262.3,1204.5c0.5-0.5,1.4-0.9,1.5-1.5c0.1-0.8-0.2-1.8-0.8-2.5c-0.4-0.5-1.3-0.7-2-0.9
			c-16.9-5.7-33.9-11.3-50.8-16.9c-0.8-0.3-1.8,0.1-2.8,0.2c0.7,0.6,1.2,1.6,2,1.9c15.4,5.9,30.9,11.8,46.4,17.6
			C257.9,1203.1,259.9,1203.7,262.3,1204.5z"/>
		<path d="M365.3,1011.6c0,2.1-1.4,2.8-3.8,2.1c-7.6-2.4-15.2-4.9-22.7-7.4c-39-12.8-77.9-25.5-116.9-38.3
			c-14-4.6-27.9-9.7-41.8-14.6c-0.4-0.1-0.9-0.2-1.1-0.5c-0.4-0.4-0.6-1-0.9-1.5c0.5-0.2,1.1-0.6,1.6-0.4c3.4,0.9,6.9,2,10.3,3
			c49.2,14.3,97.9,30.3,146.6,46.2c8.7,2.8,17.4,5.6,26.1,8.4C364.1,1009.1,365.4,1009.8,365.3,1011.6z"/>
		<path d="M345.7,1048.3c0.1,2.3-1.3,3.3-3.7,2.6c-5.7-1.5-11.4-3.1-17.1-4.7c-40.6-11.5-81.1-23-121.7-34.6
			c-16-4.6-31.9-9.4-47.8-14.1c-0.3-0.1-0.7-0.1-1-0.3c-0.4-0.3-0.7-0.7-1-1.1c0.5-0.1,1-0.5,1.4-0.4c3.1,0.7,6.3,1.5,9.4,2.3
			c25.3,6.5,50.7,13,76,19.7c34.2,9.1,68.3,18.4,102.4,27.6C344.3,1045.7,345.7,1046.3,345.7,1048.3z"/>
		<path d="M312.8,1107.9c-2.8-0.7-6.2-1.5-9.4-2.5c-32.7-9.9-65.3-19.7-98-29.7c-17.7-5.4-35.4-11-53.1-16.6
			c-0.6-0.2-1.3-0.3-1.7-0.7c-0.3-0.3-0.5-1-0.4-1.4c0.1-0.4,0.8-0.7,1.2-0.8c0.4-0.1,0.8,0.1,1.2,0.2c29,8.1,57.9,16.1,86.9,24.4
			c20.4,5.8,40.7,11.9,61.1,17.8c4.5,1.3,9.1,2.8,13.6,4.2c1.3,0.4,2.3,1.2,2,2.7C315.8,1107.1,314.8,1107.8,312.8,1107.9z"/>
		<path d="M283.6,1160.9c-3.7-1-7.1-1.8-10.4-3c-27-9.5-54.1-19-81.1-28.5c-17.9-6.3-35.7-12.8-53.5-19.2c-0.5-0.2-1-0.3-1.3-0.6
			c-0.3-0.3-0.4-0.8-0.3-1.2c0.1-0.3,0.6-0.6,0.9-0.6c0.6,0,1.2,0.2,1.8,0.4c34.3,11.1,68.6,22.3,102.9,33.4
			c11.6,3.8,23.3,7.4,34.9,11.3c2.5,0.8,4.9,2.1,7.2,3.4c0.7,0.4,1.1,1.9,1,2.7C285.5,1159.8,284.3,1160.3,283.6,1160.9z"/>
		<path d="M332.6,949.1c-1.1-0.3-1.6-0.4-2.1-0.5c-20.9-6.8-41.8-13.6-62.6-20.5c-5.8-1.9-11.4-4.3-17.1-6.6c-0.6-0.2-1-1-1.5-1.6
			c0.7-0.2,1.6-0.7,2.2-0.5c18.9,4.2,37.2,10.1,55.6,15.8c8.2,2.5,16.4,5.1,24.6,7.7c2.2,0.7,3.2,2.1,2.7,3.9
			C334.1,947.7,333.1,948.4,332.6,949.1z"/>
		<path d="M262.3,1204.5c-2.4-0.8-4.4-1.4-6.4-2.2c-15.5-5.8-31-11.7-46.4-17.6c-0.8-0.3-1.4-1.3-2-1.9c0.9-0.1,1.9-0.4,2.8-0.2
			c16.9,5.6,33.9,11.3,50.8,16.9c0.7,0.2,1.6,0.4,2,0.9c0.5,0.7,0.8,1.7,0.8,2.5C263.7,1203.6,262.8,1204.1,262.3,1204.5z"/>
	</g>
</g>
<g>
	<path d="M1222.9,1258.8c54.9-1.1,109.8-2.6,164.8-3.2c48.4-0.5,96.7,0.5,145.1,0.1c44-0.4,88-1.3,132-3c45.5-1.7,91-4.7,136.6-6.9
		c28.1-1.3,56.3-1.8,84.4-3.3c25.3-1.3,50.6-3.8,75.9-4.9c8.4-0.4,10.2-5.2,10.5-11.1c0.8-19.4,1.6-38.8,1.2-58.2
		c-0.6-30.1-2.1-60.2-3.2-90.3c0-1.3,0.5-2.6,2.5-3.9c8.3,53,9,106.3,6.6,160.8c5.1,0,11.3,0,17.4,0c0.2,1.3,0.4,2.7,0.6,4
		c-6.8,1-13.5,2.6-20.4,3c-57,3.3-113.9,7-170.9,9.2c-85.2,3.3-170.3,6.4-255.5,7.9c-72.9,1.3-145.8-0.2-218.8,0.4
		c-30.5,0.3-60.9,2.9-91.4,4.3c-5.9,0.3-11.7,0-17.6,0C1222.7,1262.2,1222.8,1260.5,1222.9,1258.8z"/>
	<path d="M1820.9,1087c-154.6,6.9-309.2,8.4-463.9,7.7c-39.6-0.2-79.2,1-118.9,1.7c-3,0.1-5.9,1.7-10.6,3.1c-0.3-0.4-2.1-3-5.7-8
		c39.1-0.7,75.8-1.8,112.5-2c118.2-0.8,236.4,0.1,354.5-2.6c74-1.7,148-8.6,221.9-13.1c18-1.1,35.9-2.1,53.9-3.1
		c0.2,1.4,0.4,2.8,0.6,4.2c-6.8,1-13.6,2.5-20.4,3c-38.8,2.7-77.5,5.2-116.3,7.9c-2.7,0.2-5.4,1-8.1,1.5L1820.9,1087z"/>
	<path d="M1276.7,1197.4c-9.9-0.6-18.3-4.1-23.5-10c-4.1-4.6-6.1-10.4-5.7-16.8c0.7-10.9,10-19.7,20.8-19.7c1.7,0,3.4,0.2,5,0.6
		c0.9,0.2,1.7,0.4,2.6,0.7c5.4,1.3,10.9,2.7,15.7,5.6c6.6,4,10.4,9.9,10.5,16.3c0.1,6.5-3.6,12.7-10.2,17c-3.1,2-6.6,3.3-10,4.5
		c-1.5,0.6-3.1,1.1-4.5,1.7l-0.3,0.1L1276.7,1197.4z M1267.9,1156.7c-6.2,0-12.6,6-13.2,12.4c-0.5,5.7,0.8,10.6,4,14.1
		c3.6,4,9.4,6.1,16.8,6.1c0.3,0,0.7,0,1,0c0.3,0,0.7,0,1,0c0.4,0,0.7,0,1.1,0c7.1-0.5,14.7-6.6,16.3-13c1.8-7.1-2.7-10.2-9.1-13.7
		c-4.5-2.5-10.1-4.4-16-5.6C1269.1,1156.8,1268.5,1156.7,1267.9,1156.7z"/>
	<path d="M1276.8,1196c-17.2-1-28.7-11.2-27.8-25.3c0.7-12,12.4-20.8,24.1-17.8c6.1,1.6,12.6,2.9,17.9,6.1
		c13.1,7.9,13,22.5,0.2,30.9C1286.8,1192.6,1281.6,1194,1276.8,1196z M1275.5,1190.7c1.1,0,2.1,0.1,3.2,0
		c7.8-0.6,15.8-7.1,17.6-14.1c2.2-8.6-4.1-12.2-9.8-15.3c-5-2.7-10.8-4.6-16.4-5.8c-7.5-1.5-16,5.7-16.7,13.4
		C1252,1182.2,1260.6,1190.7,1275.5,1190.7z"/>
	<path d="M1710.7,1195.6c-13,0-21.8-6.7-23-17.4c-0.8-6.9,1.1-13.4,5.2-18.5c4.3-5.4,10.9-8.8,18.5-9.6c0.2,0,0.6-0.2,1-0.4
		c0.3-0.1,0.5-0.3,0.8-0.4l1-0.4l0.1,0.1c1.6-0.5,3.2-0.7,4.9-0.7c8,0,15.4,5.7,18.5,14.2c2.5,6.8,1.7,14.3-2.2,20.5
		c-4.3,6.9-11.6,11.4-20,12.3C1713.8,1195.5,1712.2,1195.6,1710.7,1195.6z M1713.2,1156.2c-10.4,0-18.3,7.5-18.7,17.9
		c-0.2,4.2,1,7.7,3.4,10.3c2.6,2.8,6.7,4.4,11.7,4.5c0.2,0,0.5,0,0.7,0c11.8,0,21.2-7.5,21.4-17.1c0.2-9.1-4.8-15.8-14-18.6
		c0,0.1,1.4,1.8,1.4,1.8l-2,0.6c-0.4,0.1-0.7,0.2-0.9,0.3c-0.5,0.2-0.9,0.3-1.5,0.3l-0.2,0
		C1714.1,1156.2,1713.6,1156.2,1713.2,1156.2z"/>
	<path d="M1713.6,1150.7c8.8-3.6,19,1.9,22.7,12.2c5.1,14.2-5.1,29.2-21.1,31c-14.6,1.7-24.9-4.6-26.1-15.9
		c-1.5-13.8,8-25.1,22.5-26.6c0.8-0.1,1.5-0.6,2.2-0.9c0.9,1.2,1.9,2.3,3,3.7c-1.1,0.3-1.6,0.6-2,0.6c-11.8-0.8-21.1,7.5-21.6,19.2
		c-0.4,9.7,5.9,16,16.4,16.3c12.8,0.4,23.4-7.9,23.6-18.5C1733.3,1160.6,1726.1,1152.8,1713.6,1150.7z"/>
	<path d="M1405.3,1202.9c-5.8,0-11-2-14.7-5.5c-6.5-6.2-7.2-21.3-1.5-30.9c4.3-7.3,9.3-10.7,15.5-10.7c1.7,0,3.5,0.2,5.4,0.7
		l3.3-0.5c1-0.2,1.9-0.2,2.9-0.2c6.2,0,10.6,3.5,13.2,10.4c4.2,11.1,0.1,25.7-8.9,32C1416,1201.2,1410.6,1202.9,1405.3,1202.9z
		 M1411.2,1159.6c-13.9,3.1-20.5,11.9-19.3,25.6c0.6,6.3,5,10,12.4,10.6c0.5,0,1,0,1.4,0c8.1,0,14.8-4.9,16.7-12.1
		c2.8-11.1,0.4-17.9-8.9-24.6L1411.2,1159.6z"/>
	<path d="M1410.9,1158.2c-14.7,3.3-21.7,13.1-20.4,27.1c0.6,7,5.6,11.3,13.7,11.8c9.4,0.6,17.4-4.7,19.6-13.1
		c3.1-12,0.2-19.4-10.2-26.7c7-1.1,11.8,2,14.5,9.3c4,10.4,0.1,24.4-8.4,30.3c-9,6.3-21.3,6-28.1-0.6c-5.9-5.7-6.6-20.2-1.3-29.2
		C1395.5,1158.4,1401.6,1155.3,1410.9,1158.2z"/>
	<path d="M1207.2,1096.4c0.6,7.3,1.2,11.2,1.3,15.2c0.1,44.3,0.1,88.6,0.4,132.9c0,3.5,3.8,7.1,3.5,10.4c-0.4,4.6-3.1,9-5.2,14.7
		C1200.3,1261,1200.8,1113.6,1207.2,1096.4z"/>
	<path d="M1367.6,1100.2c8.3,17.6,4.6,142.3-4.3,153.7C1364.8,1200.9,1366.2,1150.5,1367.6,1100.2z"/>
	<path d="M1515.1,1252.5c3.3-50.8,6.6-101.6,10-153.7c1.3,2.4,4.1,5.3,4.1,8.1c-0.3,21.3-0.8,42.7-2,64c-1.4,24.4-3.8,48.8-5.8,73.3
		c-0.2,3-1,6-1.5,8.9C1518.2,1252.9,1516.7,1252.7,1515.1,1252.5z"/>
	<path d="M1820.6,1087.3c1.4,3.9,4.1,7.9,4,11.8c-1.2,45.1-2.9,90.3-4.5,135.4c0,1.3-1.2,2.6-3.6,7.3c-1.6-5.9-3.1-8.7-2.9-11.4
		c2-47.1,4.1-94.1,6.3-141.2c0-0.7,0.7-1.4,1-2.1C1820.9,1087,1820.6,1087.3,1820.6,1087.3z"/>
	<path d="M1315.5,1198.2l-0.5-4.4l16.9-1.5v-27.9l-10.5,5.7l-2.4-4.2l18.1-12.9l0.5,1.9c3.1,10.9,2.2,21.2,1.3,31.3
		c-0.2,2-0.3,4-0.5,6l17.3,0.8l-0.2,5.2H1315.5z"/>
	<path d="M1333.3,1162c-4.1,2.2-7.7,4.2-11.4,6.2c-0.4-0.6-0.7-1.3-1.1-1.9c4.8-3.4,9.5-6.8,15.4-11c3.7,13.2,1.5,25.4,0.6,38.2
		c5.9,0.3,11.6,0.5,17.3,0.8c0,0.8,0,1.6-0.1,2.4c-12.5,0-24.9,0-37.4,0c-0.1-0.6-0.1-1.1-0.2-1.7c5.4-0.5,10.7-1,16.8-1.5
		C1333.3,1183.1,1333.3,1172.7,1333.3,1162z"/>
	<path d="M1683.1,1095.9c-2.4,50.7-4.8,101.5-7.2,152.2c-2.1-0.1-4.3-0.2-6.4-0.3c2.7-50.8,5.5-101.6,8.2-152.3
		C1679.4,1095.7,1681.2,1095.8,1683.1,1095.9z"/>
	<path class="st0" d="M1275.5,1190.7c-14.8,0-23.4-8.5-22.2-21.8c0.7-7.7,9.2-15,16.7-13.4c5.6,1.1,11.4,3,16.4,5.8
		c5.7,3.1,12,6.7,9.8,15.3c-1.8,7-9.8,13.5-17.6,14.1C1277.6,1190.8,1276.5,1190.7,1275.5,1190.7z"/>
	<path d="M1762.5,1180.1c1.3-0.7,2.6-1.7,4-2.2c6.4-2.3,12.9-4.2,19.8-4.5c1.8-0.1,3.6,0,5.4,0.3c3.8,0.6,6.7,2.6,7.5,6.5
		c0.9,4.3,0.5,8.6-3.5,11.2c-2.6,1.7-5.9,3-9,3.4c-9,1.1-17.7,0-25.2-5.7c-9.7-7.3-11-20.2-2.7-29.1c6.3-6.8,14-10.6,23.5-8.8
		c5.5,1,9.3,4.5,11.9,9.3c1,1.8,0.5,3.6-1.2,4.4c-1.8,0.8-3.3,0.5-4.2-1.3c-3.5-6.3-10.4-8.7-18-4.5c-5.9,3.2-10.3,7.8-10.5,15
		c-0.1,2.1,1,4.3,1.5,6.4C1762.1,1180.4,1762.3,1180.2,1762.5,1180.1z M1768,1184.8c6.6,3.4,13.5,4.6,20.7,2.5
		c1.4-0.4,2.5-2.4,3.5-3.8c0.3-0.4-0.4-2-1-2.2c-1.5-0.6-3.2-1-4.8-1C1779.9,1180.1,1774,1182.5,1768,1184.8z"/>
	<path d="M1477.4,1179.9c-3.8,1.8-7.4,3.7-11.1,5.1c-3.9,1.5-8.1,1.8-12.2,0.4c-5.3-1.8-8.4-6.7-8.5-13.3c-0.1-8,4-13.6,11-16.8
		c8.4-3.9,16.8-3.8,24.3,2.3c2,1.6,3.3,4,4.8,6.1c0.2,0.3,0.3,0.9,0.2,1.3c-0.8,6.3-1.4,12.6-2.6,18.8
		c-2.6,12.8-10.6,19.3-23.7,19.8c-1.5,0.1-3,0.1-4.5,0c-1.8-0.1-2.9-1.3-2.9-3c-0.1-1.8,1-3,2.9-3.2c3-0.3,6.1-0.5,9-1.1
		c6.3-1.2,10.5-4.8,12-11.1C1476.6,1183.3,1477,1181.5,1477.4,1179.9z M1466.8,1157.7c-5.3,0.3-10,3-13.6,7.6
		c-2.8,3.6-2.9,7.5-0.7,11c1.9,3.1,5.6,4.5,9.9,3.8c5.9-1,10.8-3.9,14.5-8.6c1.3-1.7,2-4,2.7-6.1c0.2-0.6-0.2-1.7-0.6-2.2
		C1476,1159.6,1472.1,1157.8,1466.8,1157.7z"/>
	<g>
		<path class="st0" d="M1643,1181.2c0.2-0.9,0.3-1.7,0.5-2.4c1.5-5.7,3-11.4,4.5-17c0.6-2.3-0.1-3.4-2.3-4.2
			c-4.4-1.6-8.9-1.9-13.5-1.2c-5.7,0.9-11.3,2.1-17,3c-2.1,0.4-4.2,0.4-6.4,0.7c-1.5,0.2-2.3,1.1-2.2,2.6c0.1,1.5,1,2.2,2.4,2.1
			c1.4,0,2.8-0.1,4.1-0.3c6.1-1,12.1-2.2,18.2-3.1c3.5-0.5,7.1-0.4,10.4,0.8c-1.7,6.7-3.3,13.1-5,19.6c-0.1,0.4-0.8,0.8-1.4,0.9
			c-5.8,1-11.6,1.3-17.3-0.5c-1.6-0.5-2.8,0.6-2.9,2.3c0,1.5,0.8,2.2,2.1,2.6c3.7,1.1,7.6,1.5,11.5,1.3c2.4-0.1,4.8-0.4,7.3-0.5
			c0,0.5,0,0.9,0,1.3c0.2,4,0.9,7.9,3.4,11.2c1.3,1.7,2.4,2.1,3.8,1.3c1.5-0.9,1.6-2.2,1-4.2c-0.9-2.7-1.7-5.4-1.9-8.2
			c-0.3-3.1-0.6-2.6,2.6-3.1c3.9-0.6,7.8-1,11.7-1.5c1.9-0.2,2.9-1.2,2.8-2.8c-0.1-1.5-1-2.3-2.8-2.3c-1.5,0-3,0.1-4.5,0.3
			C1649.1,1180.2,1646.2,1180.7,1643,1181.2z"/>
		<path d="M1643,1181.2c3.2-0.5,6.1-1,9.1-1.4c1.5-0.2,3-0.3,4.5-0.3c1.8,0,2.8,0.8,2.8,2.3c0.1,1.7-0.9,2.6-2.8,2.8
			c-3.9,0.5-7.8,0.9-11.7,1.5c-3.2,0.5-2.9,0-2.6,3.1c0.3,2.8,1.1,5.5,1.9,8.2c0.6,2,0.5,3.3-1,4.2c-1.4,0.8-2.5,0.4-3.8-1.3
			c-2.5-3.3-3.2-7.2-3.4-11.2c0-0.4,0-0.8,0-1.3c-2.5,0.2-4.9,0.4-7.3,0.5c-3.9,0.2-7.7-0.2-11.5-1.3c-1.3-0.4-2.1-1.1-2.1-2.6
			c0-1.7,1.2-2.8,2.9-2.3c5.7,1.7,11.5,1.5,17.3,0.5c0.5-0.1,1.2-0.5,1.4-0.9c1.7-6.5,3.3-12.9,5-19.6c-3.3-1.2-6.9-1.3-10.4-0.8
			c-6.1,0.9-12.2,2.1-18.2,3.1c-1.4,0.2-2.8,0.2-4.1,0.3c-1.4,0-2.3-0.7-2.4-2.1c-0.1-1.5,0.7-2.4,2.2-2.6c2.1-0.3,4.3-0.3,6.4-0.7
			c5.7-1,11.3-2.1,17-3c4.6-0.7,9.1-0.4,13.5,1.2c2.3,0.8,2.9,1.9,2.3,4.2c-1.5,5.7-3,11.4-4.5,17
			C1643.3,1179.5,1643.2,1180.3,1643,1181.2z"/>
	</g>
	<path d="M1575.1,1204c-9.9-0.6-18.3-4.1-23.5-10c-4.1-4.6-6.1-10.4-5.7-16.8c0.7-10.9,10-19.7,20.8-19.7c1.7,0,3.4,0.2,5,0.6
		c0.9,0.2,1.7,0.4,2.6,0.7c5.4,1.3,10.9,2.7,15.7,5.6c6.6,4,10.4,9.9,10.5,16.3c0.1,6.5-3.6,12.7-10.2,17c-3.1,2-6.6,3.3-10,4.5
		c-1.5,0.6-3.1,1.1-4.5,1.7l-0.3,0.1L1575.1,1204z M1566.3,1163.3c-6.2,0-12.6,6-13.2,12.4c-0.5,5.7,0.8,10.6,4,14.1
		c3.6,4,9.4,6.1,16.8,6.1c0.3,0,0.7,0,1,0c0.3,0,0.7,0,1,0c0.4,0,0.7,0,1.1,0c7.1-0.5,14.7-6.6,16.3-13c1.8-7.1-2.7-10.2-9.1-13.7
		c-4.5-2.5-10.1-4.4-16-5.6C1567.5,1163.4,1566.9,1163.3,1566.3,1163.3z"/>
	<path d="M1575.1,1202.6c-17.2-1-28.7-11.2-27.8-25.3c0.7-12,12.4-20.8,24.1-17.8c6.1,1.6,12.6,2.9,17.9,6.1
		c13.1,7.9,13,22.5,0.2,30.9C1585.2,1199.2,1579.9,1200.6,1575.1,1202.6z M1573.8,1197.3c1.1,0,2.1,0.1,3.2,0
		c7.8-0.6,15.8-7.1,17.6-14.1c2.2-8.6-4.1-12.2-9.8-15.3c-5-2.7-10.8-4.6-16.4-5.8c-7.5-1.5-16,5.7-16.7,13.4
		C1550.4,1188.8,1559,1197.3,1573.8,1197.3z"/>
	<circle cx="1300.1" cy="1196.3" r="4.9"/>
	<circle cx="1435.6" cy="1199.2" r="4.9"/>
	<circle cx="1601.9" cy="1201" r="4.9"/>
	<circle cx="1739.1" cy="1193.6" r="4.9"/>
	<circle cx="1887.9" cy="1180.8" r="4.9"/>
</g>
<g id="_x34_u7J0V_1_">
	<g>
		<path class="st1" d="M972.2,1157.5c4.6,10.7,17.4,9,21.8,2.2c3.7-5.7,2.4-13.4-3.1-17.4c-5.9-4.3-13.6-3.1-18.3,2.7
			c-1,1.3-2.5,2.8-3.9,2.9c-7.1,0.6-14.3,0.7-21.4,1.1c-29.9,1.5-59.9,3-89.8,4.5c-19.3,0.9-38.5,1.9-58.3,2.8c0-4.5,0-8.8,0-13.6
			c10.5-0.6,20.9-1.6,31.4-1.6c27.3,0,54.6,0.4,82,0.8c4.3,0.1,7.6-1,10.4-4.5c10.8-13.7,21.9-27.3,32.7-41c1.6-2.1,2.8-3.3,5.9-3.1
			c6.1,0.5,10.8-3.9,11.7-10c0.9-6-5.9-13.6-11.3-12.5c-6.4,1.3-11.3,8.4-10.5,15c0.2,1.6,0,3.7-0.9,4.8
			c-10.3,13.5-20.8,26.8-31.1,40.3c-1.9,2.5-3.8,3.6-7,3.6c-33,0.3-66,0.7-98.9,1.2c-4.9,0.1-9.8,0.8-15.2,1.3c0-5.9,0-11.2,0-16.8
			c1.3-0.1,2.1-0.2,2.9-0.3c17-0.3,34-0.4,51-0.9c2.5-0.1,5.7-1.3,7.3-3.1c4.8-5.5,9.1-11.4,13.5-17.3c1.9-2.6,3.8-4.3,7.5-4.6
			c8.6-0.6,14.3-8.5,12.4-15.9c-1.7-6.6-9.1-11.4-15.2-10.1c-9.2,2-14,7.8-10.7,16.3c2.7,6.7-0.2,10.5-3,15.1c-2,3.3-3.8,6.7-6,9.8
			c-1,1.3-2.9,2.7-4.5,2.8c-11,0.7-22,1.2-32.9,1.5c-7.6,0.2-15.1,0-23.8,0c-0.3-24.3-0.7-49-1-73.8c0-3.5,0.2-7-0.3-10.4
			c-1.7-13.2-11.8-22.4-24.5-22.7c-13-0.3-22.9,8.1-25.3,21.5c-0.2,0.9-0.4,1.9-0.6,3.1c-15.3-3.4-28.8-0.7-39.4,11
			c-10.7,11.8-13.2,25.3-6.4,40.2c-20,8.6-25.2,25-23.9,45.1c-10.7-3.4-19.5-0.5-26.7,7c-8.9,9.2-12.9,20.5-12.8,33.2
			c0.1,12.9,7.8,24.7,18.5,28.3c4,1.4,8.4,1.5,12.8,2.3c-2.8,8.9-0.5,17,5.2,24.1c5.8,7.2,14,9.5,23,9.9
			c-13.4,31.2,10.7,65.5,40.5,54.8c0.2,0.3,0.4,0.5,0.5,0.8c4.7,15.4,14.3,23.3,29.2,24.2c14.6,0.8,27.5-7.2,32.7-21.4
			c2.4-6.5,4.2-13.6,4.2-20.4c0.1-21.1-0.8-42.3-1.2-63.4c-0.1-2.9,0-5.8,0-8.8c16.6,0,32.3-0.1,47.9,0.1c1.6,0,3.8,1.1,4.8,2.3
			c4.2,5.2,8.2,10.5,11.8,16.1c1.3,1.9,2.1,4.7,1.9,7c-0.5,9.2,9,16.5,17.6,13.2c6.9-2.7,10.4-10.4,7.7-17.2
			c-2.9-7.4-10.9-10.1-19.1-6.6c-5.6-5.9-11.7-11.5-16.6-17.9c-3.2-4.2-6.7-4.6-11.1-4.4c-14.9,1-29.8,1.8-45.2,2.7
			c0-3.2,0-6.7,0-10.2c3.1,0,6.1,0.1,9.1,0c25.5-0.7,51-1.4,76.4-1.9c1.7,0,3.7,0.5,4.9,1.6c9.9,7.8,19.8,15.8,29.5,23.9
			c1.4,1.1,2.5,3.4,2.6,5.2c0.3,6.4,4,11.7,9.7,12.9c5.6,1.2,10.9-1.4,13.8-6.7c3.1-5.8,1.9-12-3-16.2c-4.8-4.2-9.3-4.2-15-0.2
			c-10.6-7.5-21.2-15-31.8-22.6c-0.8-0.6-1.9-1.2-2.1-2c-1.1-3.6-3.9-3.6-6.8-3.4c-18.5,0.9-36.9,1.7-55.4,2.6
			c-10.6,0.5-21.2,0.9-32.5,1.4c-0.3-4.7-0.5-9.3-0.8-14.1C857.3,1161.6,914.5,1159.6,972.2,1157.5z"/>
		<path d="M972.2,1157.5c-57.7,2-115,4.1-172.9,6.1c0.3,4.9,0.5,9.4,0.8,14.1c11.3-0.5,21.9-0.9,32.5-1.4
			c18.5-0.8,36.9-1.7,55.4-2.6c3-0.1,5.7-0.2,6.8,3.4c0.2,0.8,1.4,1.4,2.1,2c10.6,7.5,21.2,15,31.8,22.6c5.7-4,10.2-4,15,0.2
			c5,4.3,6.1,10.5,3,16.2c-2.8,5.3-8.2,7.9-13.8,6.7c-5.7-1.2-9.4-6.5-9.7-12.9c-0.1-1.8-1.2-4-2.6-5.2c-9.7-8.1-19.6-16-29.5-23.9
			c-1.3-1-3.3-1.6-4.9-1.6c-25.5,0.6-51,1.3-76.4,1.9c-3,0.1-6,0-9.1,0c0,3.5,0,7,0,10.2c15.4-0.9,30.3-1.7,45.2-2.7
			c4.5-0.3,7.9,0.1,11.1,4.4c4.9,6.4,11,12,16.6,17.9c8.2-3.5,16.1-0.7,19.1,6.6c2.7,6.7-0.8,14.5-7.7,17.2
			c-8.6,3.3-18.1-4-17.6-13.2c0.1-2.3-0.7-5.1-1.9-7c-3.7-5.6-7.7-10.9-11.8-16.1c-1-1.3-3.2-2.3-4.8-2.3
			c-15.6-0.2-31.3-0.1-47.9-0.1c0,3-0.1,5.9,0,8.8c0.5,21.1,1.3,42.3,1.2,63.4c0,6.8-1.9,13.9-4.2,20.4
			c-5.2,14.2-18.1,22.2-32.7,21.4c-15-0.8-24.6-8.8-29.2-24.2c-0.1-0.3-0.3-0.6-0.5-0.8c-29.8,10.7-53.9-23.6-40.5-54.8
			c-9-0.4-17.2-2.6-23-9.9c-5.7-7.2-8-15.2-5.2-24.1c-4.4-0.8-8.8-0.9-12.8-2.3c-10.7-3.6-18.4-15.5-18.5-28.3
			c-0.1-12.7,3.9-24,12.8-33.2c7.2-7.5,16-10.4,26.7-7c-1.3-20.1,3.9-36.4,23.9-45.1c-6.8-14.9-4.3-28.4,6.4-40.2
			c10.6-11.7,24.2-14.5,39.4-11c0.3-1.2,0.5-2.1,0.6-3.1c2.5-13.4,12.3-21.8,25.3-21.5c12.7,0.3,22.8,9.5,24.5,22.7
			c0.5,3.4,0.2,7,0.3,10.4c0.3,24.8,0.7,49.5,1,73.8c8.6,0,16.2,0.2,23.8,0c11-0.3,22-0.8,32.9-1.5c1.6-0.1,3.5-1.5,4.5-2.8
			c2.3-3.1,4.1-6.5,6-9.8c2.8-4.7,5.7-8.4,3-15.1c-3.4-8.5,1.4-14.3,10.7-16.3c6.2-1.3,13.5,3.5,15.2,10.1c2,7.4-3.8,15.3-12.4,15.9
			c-3.7,0.3-5.6,2-7.5,4.6c-4.3,5.9-8.6,11.8-13.5,17.3c-1.6,1.8-4.8,3-7.3,3.1c-17,0.5-34,0.7-51,0.9c-0.8,0-1.6,0.1-2.9,0.3
			c0,5.6,0,11,0,16.8c5.4-0.5,10.3-1.2,15.2-1.3c33-0.5,66-0.9,98.9-1.2c3.2,0,5.1-1.1,7-3.6c10.3-13.5,20.8-26.8,31.1-40.3
			c0.9-1.2,1.1-3.3,0.9-4.8c-0.8-6.6,4.1-13.7,10.5-15c5.4-1.1,12.2,6.4,11.3,12.5c-1,6.1-5.6,10.5-11.7,10c-3.1-0.2-4.3,1-5.9,3.1
			c-10.8,13.7-21.9,27.3-32.7,41c-2.8,3.5-6.1,4.6-10.4,4.5c-27.3-0.4-54.6-0.8-82-0.8c-10.4,0-20.9,1-31.4,1.6c0,4.8,0,9,0,13.6
			c19.7-0.9,39-1.8,58.3-2.8c29.9-1.5,59.9-3,89.8-4.5c7.1-0.4,14.3-0.5,21.4-1.1c1.4-0.1,2.9-1.7,3.9-2.9c4.7-5.8,12.4-7,18.3-2.7
			c5.5,4,6.8,11.7,3.1,17.4C989.6,1166.5,976.8,1168.2,972.2,1157.5z M791.9,1042.3c0.3-0.1,0.6-0.1,0.9-0.2c-1.1-6-1.4-12.2-3.3-18
			c-2.8-8.6-12.5-14.1-20.9-13c-9.4,1.2-16.8,8.2-17.9,17.5c-0.7,6,0.3,11.8,5.8,15.5c5,3.4,9.4,2,13.1-2.5c0.5-0.5,3-0.4,3.3,0.2
			c0.6,1.1,0.9,3,0.3,4c-2.3,3.8-5.8,5.8-10.4,5.9c-6.9,0.1-13.4-4.8-16.4-11.9c-0.6-1.5-2-3.2-3.4-3.6c-20.5-6-40.3,7.8-42.3,29.1
			c-1.2,12.9,9.4,22.1,20.2,21.6c2.3-0.1,4.4-1.5,6.7-1.7c1.8-0.2,3.6,0.5,5.5,0.9c-0.9,1.8-1.3,4.3-2.7,5.1
			c-2.5,1.4-5.8,2.7-8.4,2.3c-5.6-1-11-3.2-16.6-4.7c-2.2-0.6-4.9-1.4-6.7-0.7c-8.9,3.8-13.9,11-16.1,20.3
			c-2.3,9.9-0.4,19.5,1.8,29.1c0.6,2.6,0.7,5.6-2.6,5.8c-1.4,0.1-4.1-2.5-4.3-4c-0.5-6.3-4.8-7.4-9.4-6.7c-4.3,0.7-9,2-12.3,4.6
			c-9.9,7.9-14,19.1-13,31.5c1.4,17.7,14,25.1,30.2,18.5c1.7-0.7,4-0.1,6-0.1c-0.9,2.2-1.2,5.7-2.7,6.4c-6.1,2.6-5.2,7.3-4.7,12
			c1,8.8,4.9,15.6,13.6,18.7c7.5,2.7,14.5,2.5,20.3-4.4c1.8-2.1,4.9-6.2,8.2-2.7c3.4,3.7-1.1,5.7-3.4,7.9c-16,15.3-16.2,38.2-0.3,52
			c5,4.3,10.6,6.8,17.4,5.8c4.7-0.6,8-2.1,9-7.8c0.8-4.6,3.1-9.2,5.8-13c5.7-7.9,13.9-11.2,23.6-10.1c1.6,0.2,2.9,2.4,4.4,3.6
			c-1.4,1.4-2.7,2.9-4.2,4.1c-0.5,0.4-1.6,0.1-2.4,0.2c-15.8,1.2-24.9,18.5-16.9,32.2c9.2,15.7,32.1,16,41.4,0.3
			c5.9-9.9,7.4-21,7.3-32.3c-0.1-24.7-0.5-49.3-1.1-74c-0.2-8.6-1.6-17.1-1.8-25.7c-0.2-7.2,1-14.5,0.9-21.7
			C793.1,1106.6,792.4,1074.5,791.9,1042.3z M887.6,1080.7c-0.1-4.2-4.5-8.3-9.1-8.3c-2.8,0-6.1,4.7-6.2,8.9c0,1.7,6.1,7.1,8,7.2
			C883.8,1088.6,887.6,1084.4,887.6,1080.7z M982.2,1160.1c4.8,0.1,8.1-2.8,8.2-6.8c0.1-3.6-2.9-6.7-6.4-6.7c-3.6,0-8.1,4.2-7.8,7.6
			C976.6,1158,979.1,1159.8,982.2,1160.1z M873.4,1224.4c-0.1,3.6,3.2,7.3,6.8,7.3c3.2,0.1,6.6-3.4,6.8-6.9c0.2-3.3-3.1-6.8-6.5-6.9
			C876.9,1217.8,873.5,1220.9,873.4,1224.4z M937.1,1206.6c-4.4,0.3-7.4,1.8-8,6c-0.4,3.1,3,6.4,6.3,6.4c3.5,0,6.5-3.2,6.3-6.9
			C941.5,1208.8,940,1206.7,937.1,1206.6z M967.7,1085.5c0-3.9-4.1-8.7-7.5-7.9c-1.9,0.5-4.7,4.3-4.2,5.8c0.7,2.4,3.4,5.2,5.9,6
			C964.4,1090.2,967.4,1088.5,967.7,1085.5z"/>
		<path class="st1" d="M791.9,1042.3c0.5,32.1,1.2,64.3,1.6,96.4c0.1,7.2-1.1,14.5-0.9,21.7c0.2,8.6,1.6,17.1,1.8,25.7
			c0.6,24.6,0.9,49.3,1.1,74c0.1,11.2-1.4,22.3-7.3,32.3c-9.3,15.6-32.2,15.4-41.4-0.3c-8-13.7,1.1-31,16.9-32.2
			c0.8-0.1,1.9,0.3,2.4-0.2c1.5-1.2,2.8-2.7,4.2-4.1c-1.5-1.3-2.8-3.5-4.4-3.6c-9.7-1.1-17.9,2.1-23.6,10.1c-2.7,3.8-5,8.5-5.8,13
			c-1,5.7-4.4,7.1-9,7.8c-6.8,0.9-12.4-1.5-17.4-5.8c-15.8-13.7-15.7-36.7,0.3-52c2.2-2.1,6.8-4.2,3.4-7.9c-3.3-3.5-6.4,0.5-8.2,2.7
			c-5.8,6.9-12.8,7.1-20.3,4.4c-8.6-3.1-12.6-10-13.6-18.7c-0.5-4.7-1.4-9.4,4.7-12c1.5-0.6,1.8-4.2,2.7-6.4c-2,0-4.3-0.6-6,0.1
			c-16.2,6.6-28.9-0.8-30.2-18.5c-1-12.4,3.1-23.6,13-31.5c3.3-2.6,8-3.9,12.3-4.6c4.6-0.8,8.9,0.3,9.4,6.7c0.1,1.5,2.9,4.1,4.3,4
			c3.3-0.2,3.2-3.3,2.6-5.8c-2.2-9.6-4.1-19.3-1.8-29.1c2.2-9.3,7.2-16.5,16.1-20.3c1.8-0.8,4.5,0.1,6.7,0.7
			c5.6,1.5,11,3.7,16.6,4.7c2.6,0.5,5.9-0.9,8.4-2.3c1.4-0.8,1.9-3.3,2.7-5.1c-1.8-0.3-3.7-1-5.5-0.9c-2.3,0.2-4.5,1.6-6.7,1.7
			c-10.8,0.5-21.4-8.7-20.2-21.6c2-21.3,21.8-35.1,42.3-29.1c1.4,0.4,2.7,2.2,3.4,3.6c2.9,7.1,9.5,12,16.4,11.9
			c4.5-0.1,8.1-2.1,10.4-5.9c0.6-1,0.3-2.9-0.3-4c-0.3-0.6-2.9-0.8-3.3-0.2c-3.8,4.5-8.1,5.9-13.1,2.5c-5.5-3.7-6.5-9.5-5.8-15.5
			c1.1-9.3,8.5-16.3,17.9-17.5c8.4-1.1,18.1,4.4,20.9,13c1.9,5.7,2.3,12,3.3,18C792.5,1042.2,792.2,1042.3,791.9,1042.3z
			 M742.8,1113.3c-0.5-0.4-0.9-0.8-1.4-1.2c-9.1,5.1-16.4,11.9-18.8,22.7c-2.5,11.3,3.3,24.1,12.3,27.3c2.2,0.8,6.4,0.6,7.4-0.8
			c2.3-3.2-1.7-4.2-3.7-5.5c-7.7-5-11-12.7-9.2-21.4c1.5-6.9,5.2-12.5,10.1-17.4C740.7,1115.9,741.7,1114.6,742.8,1113.3z
			 M744.5,1213.3c0-0.8,0-1.7,0-2.5c-0.7-10.7-10.5-21-21.2-21.8c-1.5-0.1-3.2,0.8-4.8,1.3c1.2,1.1,2.3,2.3,3.5,3.4
			c0.2,0.2,0.6,0.2,0.9,0.3c17.6,6.3,21.2,22.8,8,35.8c-1.3,1.3-1.7,3.4-2.5,5.2c2.1-0.3,4.6,0.1,6.2-1
			C742,1229.1,744,1221.5,744.5,1213.3z M776.5,1121.1c-3.6,4.3-6.4,10-10.9,12.5c-4.6,2.5-11,1.8-16.6,2.5c5.7,4.6,14.4,4.3,21-0.8
			C776.1,1130.5,778.3,1125.1,776.5,1121.1z"/>
		<path class="st1" d="M887.6,1080.7c0.1,3.7-3.8,7.8-7.2,7.7c-2-0.1-8.1-5.5-8-7.2c0-4.2,3.4-9,6.2-8.9
			C883.1,1072.5,887.5,1076.5,887.6,1080.7z"/>
		<path class="st1" d="M982.2,1160.1c-3.1-0.3-5.6-2.1-6-6c-0.3-3.3,4.2-7.6,7.8-7.6c3.5,0,6.5,3.1,6.4,6.7
			C990.4,1157.3,987,1160.2,982.2,1160.1z"/>
		<path class="st1" d="M873.4,1224.4c0.1-3.5,3.5-6.6,7-6.5c3.4,0.1,6.7,3.7,6.5,6.9c-0.2,3.5-3.6,6.9-6.8,6.9
			C876.6,1231.7,873.3,1228,873.4,1224.4z"/>
		<path class="st1" d="M937.1,1206.6c2.9,0.2,4.5,2.2,4.6,5.4c0.2,3.8-2.8,7-6.3,6.9c-3.3,0-6.7-3.3-6.3-6.4
			C929.7,1208.4,932.6,1206.8,937.1,1206.6z"/>
		<path class="st1" d="M967.7,1085.5c-0.3,3-3.3,4.7-5.8,3.9c-2.5-0.8-5.2-3.5-5.9-6c-0.4-1.5,2.3-5.4,4.2-5.8
			C963.5,1076.8,967.7,1081.5,967.7,1085.5z"/>
		<path d="M742.8,1113.3c-1.1,1.3-2.1,2.6-3.3,3.8c-4.9,4.9-8.6,10.5-10.1,17.4c-1.8,8.7,1.5,16.3,9.2,21.4c2,1.3,6,2.3,3.7,5.5
			c-1,1.4-5.2,1.6-7.4,0.8c-9-3.2-14.7-16.1-12.3-27.3c2.4-10.8,9.7-17.6,18.8-22.7C741.9,1112.5,742.4,1112.9,742.8,1113.3z"/>
		<path d="M744.5,1213.3c-0.6,8.2-2.5,15.8-9.8,20.7c-1.6,1.1-4.1,0.7-6.2,1c0.8-1.7,1.2-3.9,2.5-5.2c13.3-13,9.6-29.5-8-35.8
			c-0.3-0.1-0.7-0.1-0.9-0.3c-1.2-1.1-2.3-2.3-3.5-3.4c1.6-0.5,3.2-1.4,4.8-1.3c10.7,0.8,20.5,11.1,21.2,21.8
			C744.6,1211.6,744.5,1212.4,744.5,1213.3z"/>
		<path d="M776.5,1121.1c1.8,4-0.5,9.4-6.6,14.2c-6.6,5.1-15.3,5.5-21,0.8c5.6-0.7,12,0,16.6-2.5
			C770.2,1131.1,773,1125.4,776.5,1121.1z"/>
	</g>
</g>
<g>
	<path class="st2" d="M116.7,1427.1c5.4,0,12.1,3.5,20,10.6c10.8,12.5,16.2,25.5,16.2,39c0,13.4-6.6,22.6-19.7,27.5l-2.8,0.4
		c-7.1,0-12.6-5.1-16.6-15.4h-0.2c-2.3,8.3-5.5,12.5-9.4,12.5h-0.6c-5.2,0-8.8-9.8-10.7-29.4v-5.8c0.1-6.9,2.1-10.9,5.9-11.9
		c1.1,0,2,1,2.9,3.1c-1.9,2.7-2.9,5.8-2.9,9.4v0.9c0,12.3,1.8,21.5,5.4,27.5c2.7-1.9,4.6-9.9,5.9-23.8c0-11.3,0.8-16.9,2.5-16.9
		l1-0.2c2.2,0,3.3,2.2,3.3,6.5l-0.6,11c0,7.4,2.3,15.1,6.9,23.1c2.3,2.3,4.6,3.4,6.9,3.4c3.8,0,7.9-2.4,12.2-7.1
		c3.1-4.1,4.6-9.2,4.6-15.4c0-13.7-6-26.3-18.1-37.8c-3.1-2.5-7.9-4.6-14.4-6.2l-0.8-1.9C114,1428.1,115.1,1427.1,116.7,1427.1z"/>
	<path class="st2" d="M172.8,1461c4.9,0,8.7,3.7,11.2,11l0.4,2.1c0,7.1-3.3,14.4-10,21.9c-2.7,2.5-5.4,3.7-8.1,3.7
		c-4,0-6.8-2.3-8.5-6.9c-0.6-2.1-0.9-4-0.9-5.6v-1.2c0-10.5,3.8-18.5,11.5-24C169.7,1461.3,171.2,1461,172.8,1461z M162.8,1487
		c0,4.5,1.2,6.8,3.5,6.8c4.9,0,8.9-6.2,12.1-18.7v-1.9c-1.1-4.1-3.2-6.2-6.3-6.2c-1.2,0-1.8,0.8-1.8,2.5c0,1.1-1.3,2-4,2.7
		C163.9,1476.1,162.8,1481,162.8,1487z"/>
	<path class="st2" d="M202,1459.3c4.2,0,6.7,2.9,7.5,8.8v0.9c0,6.5-3.3,12.4-10,17.8c3.9,3.8,10.6,5.7,20.3,5.7
		c1.5,0.5,2.2,1.5,2.2,3.1c0,1.8-1.2,2.7-3.5,2.7c-6.5,0-13.4-1.7-20.6-5v2.9c0,6.9-1.5,10.3-4.4,10.3c-2.1,0-3.1-4-3.1-11.9v-7.8
		l-0.3-2.8l0.7-3.2l-0.7-9.6v-0.4c0-1.8,0.9-3,2.8-3.7C195.5,1461.9,198.5,1459.3,202,1459.3z M197,1481.2c1.9,0,4.1-3.5,6.5-10.4
		v-4.3l-1.2-1.3h-0.9C198.4,1467.2,197,1472.5,197,1481.2z"/>
	<path class="st2" d="M248.8,1443.8c1.1,0,2.2,1.1,3.1,3.2l-4.4,27.8v7.8c0,8.1,1.3,12.2,3.8,12.2c1.7,0.8,2.5,1.9,2.5,3.2
		c0,1.5-1.3,2.4-4,2.7c-2.9,0-5.2-2.7-6.9-8.1h-1c-2.5,5.4-5.5,8.1-9,8.1c-4.1,0-6.6-3.1-7.5-9.4c0-7.3,4.9-15,14.6-23.1
		c1.9,0,2.9-2.7,2.9-8.1C244.3,1449.2,246.3,1443.8,248.8,1443.8z M231.3,1490.5v2.7l1.6,1.6h0.6c2.1,0,4.6-6.4,7.5-19.3h-0.6
		C234.3,1481.5,231.3,1486.5,231.3,1490.5z"/>
	<path class="st2" d="M277.4,1458.2c1.8,0,3,3,3.7,9.1c-0.7,1.7-1.8,2.5-3.3,2.5c-1.1-0.2-2.1-1.4-3.2-3.7l-1.8-0.6
		c-3.1,0-6,2.1-8.5,6.2v0.9c0,1,4.7,2.7,14.1,5c3.9,2.3,5.9,5.2,5.9,8.5c0,5.5-4.4,10.1-13.2,14l-3.7,0.6c-5.6-0.6-8.4-3.4-8.4-8.4
		v-0.3c0-1.6,1-2.5,3.1-2.8c1.6,0,2.7,1.7,3.2,5l0.8,0.6h1.7c3.8,0,7.3-2.6,10.6-7.8v-1.3c0-2-4.4-3.9-13.1-5.6
		c-4.6-1.9-6.9-4.5-6.9-7.8c0-4.3,3.6-8.4,10.9-12.2C272.5,1459.7,275.2,1459,277.4,1458.2z"/>
	<path class="st2" d="M358,1438.2c1.9,0.5,2.9,1.5,2.9,2.9c-1.1,3.2-5.1,11.5-11.8,25c-6.7,13.5-11.6,24.3-14.9,32.5l-2.1,0.6
		c-1.9-0.3-2.9-1.3-2.9-2.9c0-2.1,8.5-20.7,25.6-55.6C355.5,1439,356.5,1438.2,358,1438.2z"/>
	<path class="st2" d="M58.3,1563.5c3.1,1,9.1,13.2,17.9,36.5l1.5,1.8v-5.6c0-14.9,3.7-25.4,11-31.5c1.7,0,2.7,1.1,3.1,3.4
		c-5,7.5-7.5,13.5-7.5,18.1c-0.3,0-0.5,2.1-0.6,6.3v5.3c0,4.6,0.5,11.2,1.5,19.7c-0.6,1.7-1.7,2.5-3.2,2.5c-1.5,0-3.7-3.1-6.5-9.4
		c-3.4-5.4-7.1-13.6-11.2-24.6h-0.4v0.6l0.6,12.7c0,13.1-2.5,21.6-7.5,25.4l-2.5,0.3c-2.1,0-3.8-1.9-5.2-5.7
		c0.5-2.1,1.5-3.1,3.1-3.1H53l1.9,1.6h0.3c2.3-3.1,3.5-9.1,3.5-17.9c0-8.8-1.3-19.9-3.8-33.4C54.9,1564.8,56,1563.7,58.3,1563.5z"/>
	<path class="st2" d="M109.9,1581c4.9,0,8.7,3.7,11.2,11l0.4,2.1c0,7.1-3.3,14.4-10,21.9c-2.7,2.5-5.4,3.7-8.1,3.7
		c-4,0-6.8-2.3-8.5-6.9c-0.6-2.1-0.9-4-0.9-5.6v-1.2c0-10.5,3.8-18.5,11.5-24C106.8,1581.3,108.3,1581,109.9,1581z M99.9,1607
		c0,4.5,1.2,6.8,3.5,6.8c4.9,0,8.9-6.2,12.1-18.7v-1.9c-1.1-4.1-3.2-6.2-6.3-6.2c-1.2,0-1.8,0.8-1.8,2.5c0,1.1-1.3,2-4,2.7
		C101,1596.1,99.9,1601,99.9,1607z"/>
	<path class="st2" d="M129.9,1588.6l1.8-1c1.6,0,2.8,1,3.5,2.9c-1.1,4.9-1.6,10-1.6,15.2c0,2.6,0.8,5.4,2.3,8.5h0.6
		c1.9,0,4.2-7.6,6.9-22.9c0.9-0.8,1.8-1.2,2.7-1.2c2.1,0,3.1,3.7,3.1,11c0.9,8.1,1.8,12.1,2.9,12.1l1.5-0.6c1.9,0.7,2.9,1.8,2.9,3.1
		c-1.2,2.5-2.9,3.8-5,3.8c-2.4,0-4.7-2.4-6.9-7.2c-2.7,5.6-5.4,8.4-8.1,8.4c-4.1,0-6.9-4.2-8.5-12.7l-0.3-3.2v-1
		C127.7,1598.4,128.4,1593.4,129.9,1588.6z"/>
	<path class="st2" d="M171.6,1585c5.7,0.5,8.5,3.2,8.5,8.3l0.2,1.3l-0.2,15.6c0,1.8,1,4.2,3.1,7.3v0.2c-0.5,1.9-1.5,2.9-2.9,2.9
		c-4.1-1.7-6.2-5.4-6.2-11v-1.3l-0.3-0.2l0.3-0.4v-0.2l0.3-13.8c0-1.9-0.8-2.9-2.5-2.9h-1.2c-3.3,1.3-5,8.6-5,21.9
		c0,4.6-1.2,6.9-3.5,6.9c-1.8,0-2.7-1.1-2.8-3.4v-10c0-12.9,1.1-19.4,3.4-19.4l1-0.3l2.1,0.3C167.7,1585.6,169.6,1585,171.6,1585z"
		/>
	<path class="st2" d="M198.6,1589c7.1,0,11.2,4.4,12.5,13.3c0,7.9-3.7,13.5-11,16.9c-0.8,0.4-1.9,0.6-3.3,0.6h-0.7l-2.2-0.2v0.2
		l0.4,26.7c-0.5,2.1-1.5,3.1-3.2,3.1c-1.9-0.6-2.8-1.6-2.8-2.9l-0.9-54.4c0-1.7,1-2.6,3.1-2.7l2.1,0.9
		C194.4,1589.5,196.4,1589,198.6,1589z M193.6,1599.6l-0.3,3.1l0.3,10.6l2.8,0.7c4.5,0,7.4-3.3,8.7-9.8v-1.5
		c-0.5-5.3-2.3-7.9-5.6-7.9H198C195,1594.8,193.6,1596.4,193.6,1599.6z"/>
	<path class="st2" d="M220,1563.5c1.9,0,2.8,2.3,2.8,6.8l1.2,17.2h0.4l5-1.9c5.6,0,9,5.7,10.2,17.2c0.5,3.3,0.7,8.1,0.7,14.4v8.1
		c0,2.5-0.9,3.8-2.8,3.8h-0.4c-1.8-0.3-2.7-1.2-2.7-2.9v-9.4c0-15.1-1.5-23.4-4.4-25h-0.6c-2,0-3.5,3.1-4.4,9.2v5.6
		c0,10-0.8,15-2.5,15l-1.9,0.2c-1.9,0-2.8-2.8-2.8-8.3c0.2-5.9,0.6-10.7,1.2-14.4l-2.1-32.9C216.9,1564.4,217.9,1563.5,220,1563.5z"
		/>
	<path class="st2" d="M258.2,1579.3c4.2,0,6.7,2.9,7.5,8.8v0.9c0,6.5-3.3,12.4-10,17.8c3.9,3.8,10.6,5.7,20.3,5.7
		c1.5,0.5,2.2,1.5,2.2,3.1c0,1.8-1.2,2.7-3.5,2.7c-6.5,0-13.4-1.7-20.6-5v2.9c0,6.9-1.5,10.3-4.4,10.3c-2.1,0-3.1-4-3.1-11.9v-7.8
		l-0.3-2.8l0.7-3.2l-0.7-9.6v-0.4c0-1.8,0.9-3,2.8-3.7C251.7,1581.9,254.7,1579.3,258.2,1579.3z M253.2,1601.2
		c1.9,0,4.1-3.5,6.5-10.4v-4.3l-1.2-1.3h-0.9C254.6,1587.2,253.2,1592.5,253.2,1601.2z"/>
	<path class="st2" d="M300.2,1580.1c2.9,0,4.4,1.2,4.4,3.5l-0.9,1.9l-0.6,18.3c0,8.3,1.7,13.4,5,15.4l0.2,1.5
		c-0.2,1.9-1.1,2.9-2.7,2.9H305c-5-3.4-7.5-8.6-7.5-15.6h-0.7c-2.7,7.5-5.9,11.2-9.7,11.2c-3.5-1-5.3-3.6-5.3-7.9
		c0-9.4,3.8-18.8,11.3-28.1C295.6,1581.1,298,1580.1,300.2,1580.1z M288.1,1607.3l-0.4,2.8v1.9h1c5-12.5,7.5-20.1,7.5-22.8h-0.4
		C291.9,1593.5,289.3,1599.5,288.1,1607.3z"/>
	<path class="st2" d="M330.8,1578.2c1.8,0,3,3,3.7,9.1c-0.7,1.7-1.8,2.5-3.3,2.5c-1.1-0.2-2.1-1.4-3.2-3.7l-1.8-0.6
		c-3.1,0-6,2.1-8.5,6.2v0.9c0,1,4.7,2.7,14.1,5c3.9,2.3,5.9,5.2,5.9,8.5c0,5.5-4.4,10.1-13.2,14l-3.7,0.6c-5.6-0.6-8.4-3.4-8.4-8.4
		v-0.3c0-1.6,1-2.5,3.1-2.8c1.6,0,2.7,1.7,3.2,5l0.8,0.6h1.7c3.8,0,7.3-2.6,10.6-7.8v-1.3c0-2-4.4-3.9-13.1-5.6
		c-4.6-1.9-6.9-4.5-6.9-7.8c0-4.3,3.6-8.4,10.9-12.2C325.9,1579.7,328.6,1579,330.8,1578.2z"/>
	<path class="st2" d="M350.4,1582.8c2.7,0.1,7.2,4.7,13.5,14l0.2,1.7c0,1.9-4.6,3.3-13.7,4.3l-0.3,0.3v0.4c1.4,6,2.9,9,4.4,9h1.2
		c2.1,0,5.4-2.3,9.7-6.9h0.6c1.3,0,2.4,1,3.1,2.9c0,1.6-2.8,4.4-8.4,8.3c-1.5,0.9-3.2,1.5-5.3,1.9c-5.4,0-9.2-5.1-11.3-15.2
		c-3.1-0.5-4.6-1.7-4.6-3.8c0-1.5,1.1-2.4,3.4-2.9v0.4l1-0.4v-2.5C343.9,1586.6,346,1582.8,350.4,1582.8z M351,1590h-0.9l-0.4,3.7
		v3.1h0.4c3.7-0.1,5.6-0.5,5.6-1.2C353.9,1593,352.4,1591.1,351,1590z"/>
	<path class="st2" d="M393,1578.2c1.8,0,3,3,3.7,9.1c-0.7,1.7-1.8,2.5-3.3,2.5c-1.1-0.2-2.1-1.4-3.2-3.7l-1.8-0.6
		c-3.1,0-6,2.1-8.5,6.2v0.9c0,1,4.7,2.7,14.1,5c3.9,2.3,5.9,5.2,5.9,8.5c0,5.5-4.4,10.1-13.2,14l-3.7,0.6c-5.6-0.6-8.4-3.4-8.4-8.4
		v-0.3c0-1.6,1-2.5,3.1-2.8c1.6,0,2.7,1.7,3.2,5l0.8,0.6h1.7c3.8,0,7.3-2.6,10.6-7.8v-1.3c0-2-4.4-3.9-13.1-5.6
		c-4.6-1.9-6.9-4.5-6.9-7.8c0-4.3,3.6-8.4,10.9-12.2C388.1,1579.7,390.8,1579,393,1578.2z"/>
</g>
<g>
	<path class="st2" d="M769,1441c1.2,0,2,1,2.5,3.1c0,1.2-2.1,2.9-6.3,5c-5.2,4.5-9.1,12.3-11.6,23.4v1.8c5.8-2.9,10-4.6,12.5-5.2
		c0.8,0,1.8,0.7,2.9,2.1v1.9c0,0.7-2.9,2.2-8.8,4.4c-4.4,2.4-6.6,3.8-6.6,4.1v0.9c0,3.7,2.4,7,7.2,9.7l3.4,0.6
		c2.2,0,5.5-1.4,9.8-4.1h1.2c1.4,0.7,2.1,1.6,2.1,2.9v0.6c-4.1,4.3-8.7,6.5-13.7,6.5c-7.1,0-12.3-4.8-15.6-14.4l-6.3,1.3
		c-3.1-0.5-4.6-1.5-4.6-3c0-1.5,0.9-2.6,2.7-3.3l2.3,0.4c3.5-1,5.2-1.7,5.2-2.2c0-11.3,4.3-21.8,12.9-31.5
		C764.6,1442.6,767.5,1441,769,1441z"/>
	<path class="st2" d="M783.6,1463.7c0.5-1.7,1.5-2.5,3.2-2.5c1.7,0,2.8,1.7,3.3,5h0.4l4.6-1c2.1,0,4.2,2,6.2,6h0.4
		c2.9-4.6,5.9-6.9,9-6.9c6.5,1.2,9.8,5.5,9.8,12.8l0.2,3.5l-0.9,20.2v1.9c0,1.7-1,2.6-3.1,2.9c-2.1,0-3.1-2.4-3.1-7.3l1.2-18.1
		c0-6.7-1.6-10-4.7-10c-1.8,0-4,4.4-6.5,13.1c-1.3,10-2.3,15-3.1,15c-1.1,0-1.7,0.2-1.7,0.7c-2.1-0.3-3.1-1.3-3.1-3.2l1.3-12.1
		c-0.2-8.3-1-12.5-2.5-12.5h-0.3c-1.7,1.3-2.5,3.8-2.5,7.5v5.3l-0.4,15.3c-0.5,1.7-1.5,2.5-3.1,2.5c-1.4,0-2.3-1.2-2.7-3.5
		l-0.4-11.8l0.6-9.7C785.3,1471.8,784.6,1467.4,783.6,1463.7z"/>
	<path class="st2" d="M827,1451.2c3.5,0,5.7,6.8,6.7,20.4l0.6,3.1c3.1-6.3,5.6-9.4,7.5-9.4c0-0.3,0.7-0.5,2.1-0.6h0.4
		c4.4,0,7.2,3.4,8.4,10.3v0.3c0,5.9-2.9,12.3-8.8,19.4c-2.5,2.7-5.2,4-8.1,4c-3.3-0.7-5-2.4-5-5l-5-35.9l-1.5-3.7
		C824.3,1452.9,825.2,1451.9,827,1451.2z M837.4,1491.8h0.3c3.5-1.4,6.5-6.2,9.1-14.3v-3.8c-0.6-2.1-1.4-3.1-2.3-3.1h-0.8
		C840.8,1472.3,838.7,1479.4,837.4,1491.8z"/>
	<path class="st2" d="M866.7,1462.8c2.7,0.1,7.2,4.7,13.5,14l0.2,1.7c0,1.9-4.6,3.3-13.7,4.3l-0.3,0.3v0.4c1.4,6,2.9,9,4.4,9h1.2
		c2.1,0,5.4-2.3,9.7-6.9h0.6c1.3,0,2.4,1,3.1,2.9c0,1.6-2.8,4.4-8.4,8.3c-1.5,0.9-3.2,1.5-5.3,1.9c-5.4,0-9.2-5.1-11.3-15.2
		c-3.1-0.5-4.6-1.7-4.6-3.8c0-1.5,1.1-2.4,3.4-2.9v0.4l1-0.4v-2.5C860.2,1466.6,862.4,1462.8,866.7,1462.8z M867.3,1470h-0.9
		l-0.4,3.7v3.1h0.4c3.7-0.1,5.6-0.5,5.6-1.2C870.3,1473,868.7,1471.1,867.3,1470z"/>
	<path class="st2" d="M912.7,1443.8c1.1,0,2.2,1.1,3.1,3.2l-4.4,27.8v7.8c0,8.1,1.3,12.2,3.8,12.2c1.7,0.8,2.5,1.9,2.5,3.2
		c0,1.5-1.3,2.4-4,2.7c-2.9,0-5.2-2.7-6.9-8.1h-1c-2.5,5.4-5.5,8.1-9,8.1c-4.1,0-6.6-3.1-7.5-9.4c0-7.3,4.9-15,14.6-23.1
		c1.9,0,2.9-2.7,2.9-8.1C908.3,1449.2,910.2,1443.8,912.7,1443.8z M895.2,1490.5v2.7l1.6,1.6h0.6c2.1,0,4.6-6.4,7.5-19.3h-0.6
		C898.2,1481.5,895.2,1486.5,895.2,1490.5z"/>
	<path class="st2" d="M944.7,1443.8c1.1,0,2.2,1.1,3.1,3.2l-4.4,27.8v7.8c0,8.1,1.3,12.2,3.8,12.2c1.7,0.8,2.5,1.9,2.5,3.2
		c0,1.5-1.3,2.4-4,2.7c-2.9,0-5.2-2.7-6.9-8.1h-1c-2.5,5.4-5.5,8.1-9,8.1c-4.1,0-6.6-3.1-7.5-9.4c0-7.3,4.9-15,14.6-23.1
		c1.9,0,2.9-2.7,2.9-8.1C940.3,1449.2,942.2,1443.8,944.7,1443.8z M927.2,1490.5v2.7l1.6,1.6h0.6c2.1,0,4.6-6.4,7.5-19.3h-0.6
		C930.2,1481.5,927.2,1486.5,927.2,1490.5z"/>
	<path class="st2" d="M954.4,1446.6c2.5,0.5,3.8,1.7,3.8,3.4c-0.7,1.9-1.7,2.8-3.2,2.8c-2.5-0.5-3.7-1.7-3.7-3.7
		C952,1447.4,953,1446.6,954.4,1446.6z M958.2,1460.6c1.1,0,2,1,2.7,2.9l-0.9,7.1v4.7c0,5.5,0.9,12.6,2.8,21.5
		c-0.7,1.3-1.8,1.9-3.4,1.9c-2.7,0-4.5-8-5.4-24v-3.5C954,1464.1,955.4,1460.6,958.2,1460.6z"/>
	<path class="st2" d="M980.9,1465c5.7,0.5,8.5,3.2,8.5,8.3l0.2,1.3l-0.2,15.6c0,1.8,1,4.2,3.1,7.3v0.2c-0.5,1.9-1.5,2.9-2.9,2.9
		c-4.1-1.7-6.2-5.4-6.2-11v-1.3l-0.3-0.2l0.3-0.4v-0.2l0.3-13.8c0-1.9-0.8-2.9-2.5-2.9H980c-3.3,1.3-5,8.6-5,21.9
		c0,4.6-1.2,6.9-3.5,6.9c-1.8,0-2.7-1.1-2.8-3.4v-10c0-12.9,1.1-19.4,3.4-19.4l1-0.3l2.1,0.3C977,1465.6,978.9,1465,980.9,1465z"/>
	<path class="st2" d="M1011.7,1460.3c3.1,0,4.6,1.5,4.6,4.4c0.4,0,0.6,0.5,0.6,1.5h0.4l-0.4,2.9l0.4,20.2l-0.6,16
		c6,0,10,4.4,12.1,13.2c0,1.8-1.2,2.8-3.7,3.1c-1.1,0-2.4-2.5-3.8-7.5c-1.3-1.9-2.9-2.9-4.6-2.9h-0.4c-2.1,14.2-4,21.3-5.6,21.3
		c-1.9,3.5-4.7,5.3-8.4,5.3c-5.4-1.3-8.1-4-8.1-8.1v-0.6c0-6.3,4.5-13.1,13.4-20.4l3.1-1.9l0.4-10.8v-2.5h-0.4
		c-2.3,2.9-4.4,4.3-6.5,4.3h-0.6c-4.6,0-7.2-3.5-7.9-10.6v-2.2c0-8.5,3.1-15.9,9.4-22.2C1007,1461.1,1009.2,1460.3,1011.7,1460.3z
		 M1000.1,1529.3c0.3,1.7,1.2,2.5,2.8,2.5c3.2,0,5.5-5.7,6.9-17.1h-0.6C1003.1,1519.9,1000.1,1524.8,1000.1,1529.3z M1001.7,1483.7
		v4.8c0.3,2.2,0.8,3.3,1.5,3.3h1c1.9,0,4.2-6.9,6.9-20.6v-5C1007.1,1466.2,1004,1472,1001.7,1483.7z"/>
	<path class="st2" d="M831.8,1545.7h0.3c1.7,0.9,2.5,1.8,2.5,2.9l-2.5,19c0,6.9,2.1,21.3,6.2,43.1l5,12.5c0,0.9-0.7,1.8-2.1,2.9
		h-1.9c-1.3-0.4-3.3-4.5-6-12.3c-1.7-6.3-3.5-15.9-5.2-29h-0.6c-3.9,11.5-6.6,17.4-8.2,17.8l-1.6,0.4c-1.4,0-3.1-2.7-5.2-8.2h-0.7
		c-0.8,16.5-2.4,24.7-4.7,24.7h-0.3c-2.1,0-3.3-1.7-3.5-5c1.7-6.4,2.5-13.1,2.5-20l-2.7-26.5v-1.9c0-2.5,0.9-3.8,2.7-3.8
		c2.6,0,4.9,5.1,6.9,15.3c2.9,9.3,4.7,14.3,5.4,15c1.5-2.4,3.1-6.7,4.6-12.8c1.2-3.1,2.4-8,3.5-14.7l-0.4-0.3l0.4-1.6v-0.6
		C826.8,1551.3,828.6,1545.7,831.8,1545.7z"/>
	<path class="st2" d="M862.5,1581c4.9,0,8.7,3.7,11.2,11l0.4,2.1c0,7.1-3.3,14.4-10,21.9c-2.7,2.5-5.4,3.7-8.1,3.7
		c-4,0-6.8-2.3-8.5-6.9c-0.6-2.1-0.9-4-0.9-5.6v-1.2c0-10.5,3.8-18.5,11.5-24C859.4,1581.3,860.9,1581,862.5,1581z M852.5,1607
		c0,4.5,1.2,6.8,3.5,6.8c4.9,0,8.9-6.2,12.1-18.7v-1.9c-1.1-4.1-3.2-6.2-6.3-6.2c-1.2,0-1.8,0.8-1.8,2.5c0,1.1-1.3,2-4,2.7
		C853.6,1596.1,852.5,1601,852.5,1607z"/>
	<path class="st2" d="M902,1563.8c1.1,0,2.2,1.1,3.1,3.2l-4.4,27.8v7.8c0,8.1,1.3,12.2,3.8,12.2c1.7,0.8,2.5,1.9,2.5,3.2
		c0,1.5-1.3,2.4-4,2.7c-2.9,0-5.2-2.7-6.9-8.1h-1c-2.5,5.4-5.5,8.1-9,8.1c-4.1,0-6.6-3.1-7.5-9.4c0-7.3,4.9-15,14.6-23.1
		c1.9,0,2.9-2.7,2.9-8.1C897.5,1569.2,899.5,1563.8,902,1563.8z M884.5,1610.5v2.7l1.6,1.6h0.6c2.1,0,4.6-6.4,7.5-19.3h-0.6
		C887.5,1601.5,884.5,1606.5,884.5,1610.5z"/>
	<path class="st2" d="M919.5,1582.8c2.7,0.1,7.2,4.7,13.5,14l0.2,1.7c0,1.9-4.6,3.3-13.7,4.3l-0.3,0.3v0.4c1.4,6,2.9,9,4.4,9h1.2
		c2.1,0,5.4-2.3,9.7-6.9h0.6c1.3,0,2.4,1,3.1,2.9c0,1.6-2.8,4.4-8.4,8.3c-1.5,0.9-3.2,1.5-5.3,1.9c-5.4,0-9.2-5.1-11.3-15.2
		c-3.1-0.5-4.6-1.7-4.6-3.8c0-1.5,1.1-2.4,3.4-2.9v0.4l1-0.4v-2.5C913,1586.6,915.1,1582.8,919.5,1582.8z M920.1,1590h-0.9l-0.4,3.7
		v3.1h0.4c3.7-0.1,5.6-0.5,5.6-1.2C923,1593,921.5,1591.1,920.1,1590z"/>
	<path class="st2" d="M947.7,1563.6c1.9,0.7,2.8,1.7,2.8,3.1l1,38.1v12.3c0,2.3-1,3.4-2.9,3.4h-1.3c-1.2-0.8-1.8-1.7-1.8-2.8v-11.6
		l-0.9-39.6C944.6,1564.8,945.6,1563.8,947.7,1563.6z"/>
</g>
<g>
	<path class="st2" d="M1486.7,1435.6l30-1.9c0.9,0,1.7,0.8,2.5,2.5c0,2.5-2.9,3.8-8.8,3.8l-17.5,1l-0.4,0.2
		c1.7,10.9,2.5,31.5,2.5,61.9c-0.3,2.9-1.4,4.4-3.2,4.4c-1.8,0-2.8-1.3-3-4v-23.2c0-15.5-0.7-28.4-2.1-38.7
		c-11.9,1.1-17.9,2.5-17.9,4l-0.9,0.4c-2.1-0.6-3.1-1.7-3.1-3.2C1464.8,1439.1,1472.1,1436.7,1486.7,1435.6z"/>
	<path class="st2" d="M1518.7,1462.8c2.7,0.1,7.2,4.7,13.5,14l0.2,1.7c0,1.9-4.6,3.3-13.7,4.3l-0.3,0.3v0.4c1.4,6,2.9,9,4.4,9h1.2
		c2.1,0,5.4-2.3,9.7-6.9h0.6c1.3,0,2.4,1,3.1,2.9c0,1.6-2.8,4.4-8.4,8.3c-1.5,0.9-3.2,1.5-5.3,1.9c-5.4,0-9.2-5.1-11.3-15.2
		c-3.1-0.5-4.6-1.7-4.6-3.8c0-1.5,1.1-2.4,3.4-2.9v0.4l1-0.4v-2.5C1512.2,1466.6,1514.3,1462.8,1518.7,1462.8z M1519.3,1470h-0.9
		l-0.4,3.7v3.1h0.4c3.7-0.1,5.6-0.5,5.6-1.2C1522.2,1473,1520.7,1471.1,1519.3,1470z"/>
	<path class="st2" d="M1554.7,1469.8h0.2c1.3,0,2.2,1.1,2.5,3.2c-1.7,6.7-2.5,11.9-2.5,15.6c1.7,2.9,4.2,4.4,7.5,4.4
		c0.9,0.8,1.3,1.6,1.3,2.5v1.2c-0.6,1.3-1.9,1.9-4,1.9c-1.9-0.1-3.7-0.9-5.4-2.3h-0.9c-0.7,7.1-1.7,10.7-2.9,10.7h-1.8
		c-1.5-0.8-2.2-1.7-2.2-2.8l1.9-15v-0.4c-4.6-8.5-6.9-13.7-6.9-15.8c0-1.6,1.1-2.4,3.4-2.5c1.6,0,3.1,2.6,4.4,7.7l0.4,0.4h0.6
		C1550.9,1472.7,1552.4,1469.8,1554.7,1469.8z"/>
	<path class="st2" d="M1579,1438c1.9,0.4,2.8,1.3,2.8,2.8l-0.6,4.4v1.3c0,2.9,0.3,6,1,9.3h0.2c7.7-2.3,12.5-3.5,14.4-3.5
		c1.9,0.5,2.9,1.5,2.9,2.9c0,2.3-2.3,3.4-6.9,3.4l-10.4,3.7c0,9,1,21.2,2.9,36.7c-0.4,1.8-1.4,2.7-2.9,2.7h-0.2c-2.3,0-3.5-3-3.5-9
		c-0.9-4.5-1.6-14.2-2.2-29.1h-1.8c-6.3-0.4-9.4-1.9-9.4-4.4c0-0.7,0.7-1.6,2.1-2.7h1l4.6,1.2h3.2l-0.9-12.5
		C1575.3,1440.4,1576.5,1438,1579,1438z"/>
	<path class="st2" d="M1659.1,1460.1c2.9,0,4.4,1.2,4.4,3.5l-0.9,1.9l-0.6,18.3c0,8.3,1.7,13.4,5,15.4l0.2,1.5
		c-0.2,1.9-1.1,2.9-2.7,2.9h-0.6c-5-3.4-7.5-8.6-7.5-15.6h-0.7c-2.7,7.5-5.9,11.2-9.7,11.2c-3.5-1-5.3-3.6-5.3-7.9
		c0-9.4,3.8-18.8,11.3-28.1C1654.5,1461.1,1656.9,1460.1,1659.1,1460.1z M1647,1487.3l-0.4,2.8v1.9h1c5-12.5,7.5-20.1,7.5-22.8h-0.4
		C1650.8,1473.5,1648.2,1479.5,1647,1487.3z"/>
	<path class="st2" d="M1689.7,1458.2c1.8,0,3,3,3.7,9.1c-0.7,1.7-1.8,2.5-3.3,2.5c-1.1-0.2-2.1-1.4-3.2-3.7l-1.8-0.6
		c-3.1,0-6,2.1-8.5,6.2v0.9c0,1,4.7,2.7,14.1,5c3.9,2.3,5.9,5.2,5.9,8.5c0,5.5-4.4,10.1-13.2,14l-3.7,0.6c-5.6-0.6-8.4-3.4-8.4-8.4
		v-0.3c0-1.6,1-2.5,3.1-2.8c1.6,0,2.7,1.7,3.2,5l0.8,0.6h1.7c3.8,0,7.3-2.6,10.6-7.8v-1.3c0-2-4.4-3.9-13.1-5.6
		c-4.6-1.9-6.9-4.5-6.9-7.8c0-4.3,3.6-8.4,10.9-12.2C1684.8,1459.7,1687.5,1459,1689.7,1458.2z"/>
	<path class="st2" d="M1521.5,1559c1.3,0,2.1,1,2.5,3.1c0,1.2-2.1,2.8-6.2,4.7c-3.6,2.3-6.8,7.7-9.6,16.3c-3.3,13.9-5,26.2-5,36.9
		c-1.1,1-2.2,1.5-3.2,1.5c-1.7,0-3.2-3.3-4.7-10c-10.2-25.5-15.3-39.5-15.3-42.2c0-1.3,1.1-2.2,3.2-2.5c1.7,0,3.4,3.4,5,10.3
		l9.6,24.7h0.4c0.4,0,1-3.3,1.8-10c2.5-10.5,5-17.8,7.5-21.8C1513,1562.6,1517.7,1559,1521.5,1559z"/>
	<path class="st2" d="M1528.2,1582.8c2.7,0.1,7.2,4.7,13.5,14l0.2,1.7c0,1.9-4.6,3.3-13.7,4.3l-0.3,0.3v0.4c1.4,6,2.9,9,4.4,9h1.2
		c2.1,0,5.4-2.3,9.7-6.9h0.6c1.3,0,2.4,1,3.1,2.9c0,1.6-2.8,4.4-8.4,8.3c-1.5,0.9-3.2,1.5-5.3,1.9c-5.4,0-9.2-5.1-11.3-15.2
		c-3.1-0.5-4.6-1.7-4.6-3.8c0-1.5,1.1-2.4,3.4-2.9v0.4l1-0.4v-2.5C1521.7,1586.6,1523.9,1582.8,1528.2,1582.8z M1528.8,1590h-0.9
		l-0.4,3.7v3.1h0.4c3.7-0.1,5.6-0.5,5.6-1.2C1531.8,1593,1530.2,1591.1,1528.8,1590z"/>
	<path class="st2" d="M1560.9,1584.8l4.1-0.6c1.7,0,2.6,1,2.8,3.1c0,1.8-2.2,3-6.5,3.5c-2.7,2.1-4.1,4.9-4.1,8.2v3.3
		c1.3,7.3,3.6,11,6.8,11h1c1.9,0,4.7-1.8,8.4-5.3h0.6c1.3,0,2.4,0.9,3.2,2.8c-0.9,2.9-3.9,5.5-9,7.8c-0.9,0.4-2.1,0.6-3.5,0.6
		c-6.9,0-11.3-5.4-13.4-16.2v-2.2C1551.3,1593,1554.5,1587.6,1560.9,1584.8z"/>
	<path class="st2" d="M1594,1558c1.9,0.4,2.8,1.3,2.8,2.8l-0.6,4.4v1.3c0,2.9,0.3,6,1,9.3h0.2c7.7-2.3,12.5-3.5,14.4-3.5
		c1.9,0.5,2.9,1.5,2.9,2.9c0,2.3-2.3,3.4-6.9,3.4l-10.4,3.7c0,9,1,21.2,2.9,36.7c-0.4,1.8-1.4,2.7-2.9,2.7h-0.2c-2.3,0-3.5-3-3.5-9
		c-0.9-4.5-1.6-14.2-2.2-29.1h-1.8c-6.3-0.4-9.4-1.9-9.4-4.4c0-0.7,0.7-1.6,2.1-2.7h1l4.6,1.2h3.2l-0.9-12.5
		C1590.3,1560.4,1591.5,1558,1594,1558z"/>
	<path class="st2" d="M1633.7,1581c4.9,0,8.7,3.7,11.2,11l0.4,2.1c0,7.1-3.3,14.4-10,21.9c-2.7,2.5-5.4,3.7-8.1,3.7
		c-4,0-6.8-2.3-8.5-6.9c-0.6-2.1-0.9-4-0.9-5.6v-1.2c0-10.5,3.8-18.5,11.5-24C1630.6,1581.3,1632.1,1581,1633.7,1581z M1623.7,1607
		c0,4.5,1.2,6.8,3.5,6.8c4.9,0,8.9-6.2,12.1-18.7v-1.9c-1.1-4.1-3.2-6.2-6.3-6.2c-1.2,0-1.8,0.8-1.8,2.5c0,1.1-1.3,2-4,2.7
		C1624.9,1596.1,1623.7,1601,1623.7,1607z"/>
	<path class="st2" d="M1662.9,1579.3c4.2,0,6.7,2.9,7.5,8.8v0.9c0,6.5-3.3,12.4-10,17.8c3.9,3.8,10.6,5.7,20.3,5.7
		c1.5,0.5,2.2,1.5,2.2,3.1c0,1.8-1.2,2.7-3.5,2.7c-6.5,0-13.4-1.7-20.6-5v2.9c0,6.9-1.5,10.3-4.4,10.3c-2.1,0-3.1-4-3.1-11.9v-7.8
		l-0.3-2.8l0.7-3.2l-0.7-9.6v-0.4c0-1.8,0.9-3,2.8-3.7C1656.4,1581.9,1659.4,1579.3,1662.9,1579.3z M1657.9,1601.2
		c1.9,0,4.1-3.5,6.5-10.4v-4.3l-1.2-1.3h-0.9C1659.4,1587.2,1657.9,1592.5,1657.9,1601.2z"/>
</g>
<g>
	<path class="st3" d="M493.3,1181c-0.5,0-1.1,0-1.6,0c-0.4,0-0.8,0-1.2,0c-2.2,0-4.4,0.1-6-3l1-2.1c1.3,2.3,2.9,2.3,5,2.2
		c0.4,0,0.8,0,1.2,0c7.6,0.2,15.4-1,23-2.2c2.9-0.5,5.8-0.9,8.7-1.3c3.6-0.5,7.3-1.1,10.8-1.7c14.3-2.3,29.1-4.8,43.1-0.1l-0.2,2.8
		c-13.9-4.6-28.6-2.2-42.8,0.1c-3.6,0.6-7.3,1.2-10.9,1.7c-2.9,0.4-5.8,0.8-8.7,1.3C507.7,1179.9,500.4,1181,493.3,1181z"/>
	<path class="st3" d="M484.9,1176.9c1.7,3.1,4,2.5,6.7,2.6c10.6,0.3,21.2-2.1,31.7-3.5c17.6-2.3,36.3-7.6,53.8-1.7"/>
	<path class="st4" d="M573.9,1189.5l-1.2-1.6c1.7-4.8,4.1-7.2,6.4-9.5c1.4-1.4,2.8-2.7,4-4.6c-3.4-2.8-9.3-8.5-11.4-14.6l1.2-1.6
		c2.2,6.3,9.6,12.7,11.9,14.4l1,0.8l-0.8,1.5c-1.6,2.9-3.4,4.8-5.2,6.5C577.6,1183.1,575.5,1185.3,573.9,1189.5z"/>
	<path class="st4" d="M573.4,1188.7c2.9-8,7.7-8.9,11.2-15.3c-3.4-2.7-10-8.7-12.2-15"/>
</g>
<g>
	<path class="st3" d="M1060.5,1170.2c-0.5,0-1.1,0-1.6,0c-0.4,0-0.8,0-1.2,0c-2.2,0-4.4,0.1-6-3l1-2.1c1.3,2.3,2.9,2.3,5,2.2
		c0.4,0,0.8,0,1.2,0c7.6,0.2,15.4-1,23-2.2c2.9-0.5,5.8-0.9,8.7-1.3c3.6-0.5,7.3-1.1,10.8-1.7c14.3-2.3,29.1-4.8,43.1-0.1l-0.2,2.8
		c-13.9-4.6-28.6-2.2-42.8,0.1c-3.6,0.6-7.3,1.2-10.9,1.7c-2.9,0.4-5.8,0.8-8.7,1.3C1075,1169.1,1067.7,1170.2,1060.5,1170.2z"/>
	<path class="st3" d="M1052.2,1166.2c1.7,3.1,4,2.5,6.7,2.6c10.6,0.3,21.2-2.1,31.7-3.5c17.6-2.3,36.3-7.6,53.8-1.7"/>
	<path class="st4" d="M1141.2,1178.7l-1.2-1.6c1.7-4.8,4.1-7.2,6.4-9.5c1.4-1.4,2.8-2.7,4-4.6c-3.4-2.8-9.3-8.5-11.4-14.6l1.2-1.6
		c2.2,6.3,9.6,12.7,11.9,14.4l1,0.8l-0.8,1.5c-1.6,2.9-3.4,4.8-5.2,6.5C1144.9,1172.3,1142.7,1174.5,1141.2,1178.7z"/>
	<path class="st4" d="M1140.6,1177.9c2.9-8,7.7-8.9,11.2-15.3c-3.4-2.7-10-8.7-12.2-15"/>
</g>
<circle cx="1866.7" cy="1182.8" r="4.9"/>
<circle cx="1904.3" cy="1182.2" r="4.9"/>
</svg>
