<svg xmlns="http://www.w3.org/2000/svg" xmlns:xlink="http://www.w3.org/1999/xlink" xmlns:lucid="lucid" width="1063.5" height="307.5"><g transform="translate(482 -18)" lucid:page-tab-id="0_0"><g filter="url(#a)"><path d="M-460 56a16 16 0 0 1 16-16h254.6a16 16 0 0 1 16 16v148a16 16 0 0 1-16 16H-444a16 16 0 0 1-16-16z" stroke="#4c535d" stroke-width="2" fill="#fff"/><path d="M-387.45 128.1c0 8.6-6.96 15.55-15.54 15.55-8.58 0-15.54-6.96-15.54-15.55 0-8.6 6.96-15.55 15.55-15.55 8.6 0 15.55 6.96 15.55 15.55z" stroke="#000" stroke-opacity=".25" fill="#05164d"/><path d="M-387.45 169.56c0 8.6-6.96 15.55-15.54 15.55-8.58 0-15.54-6.95-15.54-15.54 0-8.6 6.96-15.55 15.55-15.55 8.6 0 15.55 6.97 15.55 15.56z" stroke="#000" stroke-opacity=".25" fill="#f9ba00"/><use xlink:href="#b" transform="matrix(1,0,0,1,-418.5412667946257,71.09404990403071) translate(0 20.488888888888887)"/><use xlink:href="#c" transform="matrix(1,0,0,1,-418.5412667946257,71.09404990403071) translate(95.88765432098764 20.488888888888887)"/><use xlink:href="#d" transform="matrix(1,0,0,1,-371.90019193857967,112.552783109405) translate(0 19.688888888888886)"/><use xlink:href="#e" transform="matrix(1,0,0,1,-371.90019193857967,112.552783109405) translate(56.25555555555554 19.688888888888886)"/><g><use xlink:href="#f" transform="matrix(1,0,0,1,-371.90019193857967,154.01151631477927) translate(0 19.68888888888889)"/><use xlink:href="#g" transform="matrix(1,0,0,1,-371.90019193857967,154.01151631477927) translate(66.45123456790122 19.68888888888889)"/></g></g><g filter="url(#h)"><path d="M300 48a8 8 0 0 1 8-8h244a8 8 0 0 1 8 8v88a8 8 0 0 1-8 8H308a8 8 0 0 1-8-8z" fill="#fff"/><path d="M300 80V48a8 8 0 0 1 8-8h244a8 8 0 0 1 8 8v32" fill="#05164d"/><path d="M300 48a8 8 0 0 1 8-8h244a8 8 0 0 1 8 8v88a8 8 0 0 1-8 8H308a8 8 0 0 1-8-8zM300 80h260M360 80v64" stroke="#333" fill="none"/><use xlink:href="#i" transform="matrix(1,0,0,1,310,40) translate(78.55 23.6)"/><use xlink:href="#j" transform="matrix(1,0,0,1,305,82.5) translate(12.524999999999999 17.1)"/><use xlink:href="#k" transform="matrix(1,0,0,1,365,82.5) translate(0 17.1)"/><use xlink:href="#l" transform="matrix(1,0,0,1,365,82.5) translate(28.95 17.1)"/><g><use xlink:href="#m" transform="matrix(1,0,0,1,365,114.5) translate(0 17.1)"/><use xlink:href="#n" transform="matrix(1,0,0,1,365,114.5) translate(53.85 17.1)"/></g></g><g filter="url(#o)"><path d="M-100 48a8 8 0 0 1 8-8h284a8 8 0 0 1 8 8v88a8 8 0 0 1-8 8H-92a8 8 0 0 1-8-8z" fill="#fff"/><path d="M-100 80V48a8 8 0 0 1 8-8h284a8 8 0 0 1 8 8v32" fill="#05164d"/><path d="M-100 48a8 8 0 0 1 8-8h284a8 8 0 0 1 8 8v88a8 8 0 0 1-8 8H-92a8 8 0 0 1-8-8zM-100 80h300M-40 80v64" stroke="#333" fill="none"/><use xlink:href="#p" transform="matrix(1,0,0,1,-90,40) translate(100.025 23.6)"/><use xlink:href="#j" transform="matrix(1,0,0,1,-95,82.5) translate(12.524999999999999 17.1)"/><use xlink:href="#q" transform="matrix(1,0,0,1,-35,82.5) translate(0 17.1)"/><use xlink:href="#l" transform="matrix(1,0,0,1,-35,82.5) translate(18.95 17.1)"/><g><use xlink:href="#r" transform="matrix(1,0,0,1,-35,114.5) translate(0 17.1)"/><use xlink:href="#s" transform="matrix(1,0,0,1,-35,114.5) translate(140.8 17.1)"/></g></g><path d="M220.5 96h59" stroke="#333" fill="none"/><path d="M220.5 106V86M200.5 96h20M279.5 86v20M299.5 96h-20" stroke="#333" fill="#fff"/><g filter="url(#h)"><path d="M300 208a8 8 0 0 1 8-8h244a8 8 0 0 1 8 8v88a8 8 0 0 1-8 8H308a8 8 0 0 1-8-8z" fill="#fff"/><path d="M300 240v-32a8 8 0 0 1 8-8h244a8 8 0 0 1 8 8v32" fill="#f9ba00"/><path d="M300 208a8 8 0 0 1 8-8h244a8 8 0 0 1 8 8v88a8 8 0 0 1-8 8H308a8 8 0 0 1-8-8zM300 240h260M360 240v64" stroke="#333" fill="none"/><use xlink:href="#t" transform="matrix(1,0,0,1,310,200) translate(78.55 23.6)"/><use xlink:href="#k" transform="matrix(1,0,0,1,365,242.5) translate(0 17.1)"/><use xlink:href="#l" transform="matrix(1,0,0,1,365,242.5) translate(28.95 17.1)"/><g><use xlink:href="#m" transform="matrix(1,0,0,1,365,274.5) translate(0 17.1)"/><use xlink:href="#u" transform="matrix(1,0,0,1,365,274.5) translate(53.85 17.1)"/></g></g><g filter="url(#o)"><path d="M-100 208a8 8 0 0 1 8-8h284a8 8 0 0 1 8 8v88a8 8 0 0 1-8 8H-92a8 8 0 0 1-8-8z" fill="#fff"/><path d="M-100 240v-32a8 8 0 0 1 8-8h284a8 8 0 0 1 8 8v32" fill="#f9ba00"/><path d="M-100 208a8 8 0 0 1 8-8h284a8 8 0 0 1 8 8v88a8 8 0 0 1-8 8H-92a8 8 0 0 1-8-8zM-100 240h300M-40 240v64" stroke="#333" fill="none"/><use xlink:href="#v" transform="matrix(1,0,0,1,-90,200) translate(100.025 23.6)"/><use xlink:href="#q" transform="matrix(1,0,0,1,-35,242.5) translate(0 17.1)"/><use xlink:href="#l" transform="matrix(1,0,0,1,-35,242.5) translate(18.95 17.1)"/><g><use xlink:href="#r" transform="matrix(1,0,0,1,-35,274.5) translate(0 17.1)"/><use xlink:href="#s" transform="matrix(1,0,0,1,-35,274.5) translate(140.8 17.1)"/></g></g><path d="M240 256h20" stroke="#333" fill="none"/><path d="M200.72 246l20 10-20 10" stroke="#333" fill="#fff" fill-opacity="0"/><path d="M200.72 256h20M240.72 256c0 5.52-4.47 10-10 10-5.52 0-10-4.48-10-10s4.48-10 10-10c5.53 0 10 4.48 10 10" stroke="#333" fill="#fff"/><path d="M299.28 266l-20-10 20-10" stroke="#333" fill="#fff" fill-opacity="0"/><path d="M299.28 256h-20M279.28 256c0 5.52-4.48 10-10 10-5.53 0-10-4.48-10-10s4.47-10 10-10c5.52 0 10 4.48 10 10" stroke="#333" fill="#fff"/><defs><path d="M24-248c120-7 223 5 221 122C244-46 201 0 124 0H24v-248zM76-40c74 7 117-18 117-86 0-67-45-88-117-82v168" id="w"/><path d="M25-224v-37h50v37H25zM25 0v-190h50V0H25" id="x"/><path d="M133-34C117-15 103 5 69 4 32 3 11-16 11-54c-1-60 55-63 116-61 1-26-3-47-28-47-18 1-26 9-28 27l-52-2c7-38 36-58 82-57s74 22 75 68l1 82c-1 14 12 18 25 15v27c-30 8-71 5-69-32zm-48 3c29 0 43-24 42-57-32 0-66-3-65 30 0 17 8 27 23 27" id="y"/><path d="M195-6C206 82 75 100 31 46c-4-6-6-13-8-21l49-6c3 16 16 24 34 25 40 0 42-37 40-79-11 22-30 35-61 35-53 0-70-43-70-97 0-56 18-96 73-97 30 0 46 14 59 34l2-30h47zm-90-29c32 0 41-27 41-63 0-35-9-62-40-62-32 0-39 29-40 63 0 36 9 62 39 62" id="z"/><path d="M135-150c-39-12-60 13-60 57V0H25l-1-190h47c2 13-1 29 3 40 6-28 27-53 61-41v41" id="A"/><path d="M220-157c-53 9-28 100-34 157h-49v-107c1-27-5-49-29-50C55-147 81-57 75 0H25l-1-190h47c2 12-1 28 3 38 10-53 101-56 108 0 13-22 24-43 59-42 82 1 51 116 57 194h-49v-107c-1-25-5-48-29-50" id="B"/><g id="b"><use transform="matrix(0.06234567901234567,0,0,0.06234567901234567,0,0)" xlink:href="#w"/><use transform="matrix(0.06234567901234567,0,0,0.06234567901234567,16.147530864197527,0)" xlink:href="#x"/><use transform="matrix(0.06234567901234567,0,0,0.06234567901234567,22.382098765432094,0)" xlink:href="#y"/><use transform="matrix(0.06234567901234567,0,0,0.06234567901234567,34.85123456790123,0)" xlink:href="#z"/><use transform="matrix(0.06234567901234567,0,0,0.06234567901234567,48.50493827160493,0)" xlink:href="#A"/><use transform="matrix(0.06234567901234567,0,0,0.06234567901234567,57.23333333333332,0)" xlink:href="#y"/><use transform="matrix(0.06234567901234567,0,0,0.06234567901234567,69.70246913580246,0)" xlink:href="#B"/></g><path d="M195 0l-88-114-31 24V0H24v-248h52v113l112-113h60L142-143 257 0h-62" id="C"/><path d="M185-48c-13 30-37 53-82 52C43 2 14-33 14-96s30-98 90-98c62 0 83 45 84 108H66c0 31 8 55 39 56 18 0 30-7 34-22zm-45-69c5-46-57-63-70-21-2 6-4 13-4 21h74" id="D"/><path d="M123 10C108 53 80 86 19 72V37c35 8 53-11 59-39L3-190h52l48 148c12-52 28-100 44-148h51" id="E"/><g id="c"><use transform="matrix(0.06234567901234567,0,0,0.06234567901234567,0,0)" xlink:href="#C"/><use transform="matrix(0.06234567901234567,0,0,0.06234567901234567,16.147530864197527,0)" xlink:href="#D"/><use transform="matrix(0.06234567901234567,0,0,0.06234567901234567,28.61666666666666,0)" xlink:href="#E"/></g><path d="M127-220V0H93v-220H8v-28h204v28h-85" id="F"/><path d="M141-36C126-15 110 5 73 4 37 3 15-17 15-53c-1-64 63-63 125-63 3-35-9-54-41-54-24 1-41 7-42 31l-33-3c5-37 33-52 76-52 45 0 72 20 72 64v82c-1 20 7 32 28 27v20c-31 9-61-2-59-35zM48-53c0 20 12 33 32 33 41-3 63-29 60-74-43 2-92-5-92 41" id="G"/><path d="M114-163C36-179 61-72 57 0H25l-1-190h30c1 12-1 29 2 39 6-27 23-49 58-41v29" id="H"/><path d="M177-190C167-65 218 103 67 71c-23-6-38-20-44-43l32-5c15 47 100 32 89-28v-30C133-14 115 1 83 1 29 1 15-40 15-95c0-56 16-97 71-98 29-1 48 16 59 35 1-10 0-23 2-32h30zM94-22c36 0 50-32 50-73 0-42-14-75-50-75-39 0-46 34-46 75s6 73 46 73" id="I"/><path d="M100-194c63 0 86 42 84 106H49c0 40 14 67 53 68 26 1 43-12 49-29l28 8c-11 28-37 45-77 45C44 4 14-33 15-96c1-61 26-98 85-98zm52 81c6-60-76-77-97-28-3 7-6 17-6 28h103" id="J"/><path d="M59-47c-2 24 18 29 38 22v24C64 9 27 4 27-40v-127H5v-23h24l9-43h21v43h35v23H59v120" id="K"/><g id="d"><use transform="matrix(0.05123456790123455,0,0,0.05123456790123455,0,0)" xlink:href="#F"/><use transform="matrix(0.05123456790123455,0,0,0.05123456790123455,9.170987654320985,0)" xlink:href="#G"/><use transform="matrix(0.05123456790123455,0,0,0.05123456790123455,19.417901234567893,0)" xlink:href="#H"/><use transform="matrix(0.05123456790123455,0,0,0.05123456790123455,25.514814814814805,0)" xlink:href="#I"/><use transform="matrix(0.05123456790123455,0,0,0.05123456790123455,35.761728395061716,0)" xlink:href="#J"/><use transform="matrix(0.05123456790123455,0,0,0.05123456790123455,46.00864197530863,0)" xlink:href="#K"/></g><path d="M135-143c-3-34-86-38-87 0 15 53 115 12 119 90S17 21 10-45l28-5c4 36 97 45 98 0-10-56-113-15-118-90-4-57 82-63 122-42 12 7 21 19 24 35" id="L"/><g id="e"><use transform="matrix(0.05123456790123455,0,0,0.05123456790123455,0,0)" xlink:href="#L"/><use transform="matrix(0.05123456790123455,0,0,0.05123456790123455,9.222222222222218,0)" xlink:href="#K"/><use transform="matrix(0.05123456790123455,0,0,0.05123456790123455,14.345679012345673,0)" xlink:href="#G"/><use transform="matrix(0.05123456790123455,0,0,0.05123456790123455,24.59259259259258,0)" xlink:href="#K"/><use transform="matrix(0.05123456790123455,0,0,0.05123456790123455,29.716049382716037,0)" xlink:href="#J"/></g><path d="M212-179c-10-28-35-45-73-45-59 0-87 40-87 99 0 60 29 101 89 101 43 0 62-24 78-52l27 14C228-24 195 4 139 4 59 4 22-46 18-125c-6-104 99-153 187-111 19 9 31 26 39 46" id="M"/><path d="M84 4C-5 8 30-112 23-190h32v120c0 31 7 50 39 49 72-2 45-101 50-169h31l1 190h-30c-1-10 1-25-2-33-11 22-28 36-60 37" id="N"/><path d="M117-194c89-4 53 116 60 194h-32v-121c0-31-8-49-39-48C34-167 62-67 57 0H25l-1-190h30c1 10-1 24 2 32 11-22 29-35 61-36" id="O"/><g id="f"><use transform="matrix(0.05123456790123456,0,0,0.05123456790123456,0,0)" xlink:href="#M"/><use transform="matrix(0.05123456790123456,0,0,0.05123456790123456,13.269753086419751,0)" xlink:href="#N"/><use transform="matrix(0.05123456790123456,0,0,0.05123456790123456,23.516666666666666,0)" xlink:href="#H"/><use transform="matrix(0.05123456790123456,0,0,0.05123456790123456,29.613580246913575,0)" xlink:href="#H"/><use transform="matrix(0.05123456790123456,0,0,0.05123456790123456,35.71049382716049,0)" xlink:href="#J"/><use transform="matrix(0.05123456790123456,0,0,0.05123456790123456,45.9574074074074,0)" xlink:href="#O"/><use transform="matrix(0.05123456790123456,0,0,0.05123456790123456,56.20432098765431,0)" xlink:href="#K"/></g><g id="g"><use transform="matrix(0.05123456790123456,0,0,0.05123456790123456,0,0)" xlink:href="#L"/><use transform="matrix(0.05123456790123456,0,0,0.05123456790123456,9.222222222222221,0)" xlink:href="#K"/><use transform="matrix(0.05123456790123456,0,0,0.05123456790123456,14.345679012345677,0)" xlink:href="#G"/><use transform="matrix(0.05123456790123456,0,0,0.05123456790123456,24.592592592592588,0)" xlink:href="#K"/><use transform="matrix(0.05123456790123456,0,0,0.05123456790123456,29.716049382716044,0)" xlink:href="#J"/></g><filter id="a" filterUnits="objectBoundingBox" x="-.03" y="-.02" width="1.07" height="1.11"><feOffset result="offOut" in="SourceAlpha" dy="6"/><feGaussianBlur result="blurOut" in="offOut" stdDeviation="5"/><feColorMatrix result="colorOut" in="blurOut" values="0 0 0 0 0 0 0 0 0 0 0 0 0 0 0 0 0 0 0.5019607843137255 0"/><feBlend in="SourceGraphic" in2="colorOut"/></filter><path fill="#fff" d="M59-47c-2 24 18 29 38 22v24C64 9 27 4 27-40v-127H5v-23h24l9-43h21v43h35v23H59v120" id="P"/><path fill="#fff" d="M100-194c63 0 86 42 84 106H49c0 40 14 67 53 68 26 1 43-12 49-29l28 8c-11 28-37 45-77 45C44 4 14-33 15-96c1-61 26-98 85-98zm52 81c6-60-76-77-97-28-3 7-6 17-6 28h103" id="Q"/><path fill="#fff" d="M135-143c-3-34-86-38-87 0 15 53 115 12 119 90S17 21 10-45l28-5c4 36 97 45 98 0-10-56-113-15-118-90-4-57 82-63 122-42 12 7 21 19 24 35" id="R"/><path fill="#fff" d="M-5 72V49h209v23H-5" id="S"/><path fill="#fff" d="M114-163C36-179 61-72 57 0H25l-1-190h30c1 12-1 29 2 39 6-27 23-49 58-41v29" id="T"/><path fill="#fff" d="M84 4C-5 8 30-112 23-190h32v120c0 31 7 50 39 49 72-2 45-101 50-169h31l1 190h-30c-1-10 1-25-2-33-11 22-28 36-60 37" id="U"/><path fill="#fff" d="M24 0v-261h32V0H24" id="V"/><g id="i"><use transform="matrix(0.05,0,0,0.05,0,0)" xlink:href="#P"/><use transform="matrix(0.05,0,0,0.05,5,0)" xlink:href="#Q"/><use transform="matrix(0.05,0,0,0.05,15,0)" xlink:href="#R"/><use transform="matrix(0.05,0,0,0.05,24,0)" xlink:href="#P"/><use transform="matrix(0.05,0,0,0.05,29,0)" xlink:href="#S"/><use transform="matrix(0.05,0,0,0.05,39,0)" xlink:href="#T"/><use transform="matrix(0.05,0,0,0.05,44.95,0)" xlink:href="#Q"/><use transform="matrix(0.05,0,0,0.05,54.95,0)" xlink:href="#R"/><use transform="matrix(0.05,0,0,0.05,63.95,0)" xlink:href="#U"/><use transform="matrix(0.05,0,0,0.05,73.95,0)" xlink:href="#V"/><use transform="matrix(0.05,0,0,0.05,77.9,0)" xlink:href="#P"/></g><path fill="#333" d="M24-248c93 1 206-16 204 79-1 75-69 88-152 82V0H24v-248zm52 121c47 0 100 7 100-41 0-47-54-39-100-39v80" id="W"/><path fill="#333" d="M195 0l-88-114-31 24V0H24v-248h52v113l112-113h60L142-143 257 0h-62" id="X"/><g id="j"><use transform="matrix(0.05,0,0,0.05,0,0)" xlink:href="#W"/><use transform="matrix(0.05,0,0,0.05,12,0)" xlink:href="#X"/></g><path fill="#333" d="M115-194c55 1 70 41 70 98S169 2 115 4C84 4 66-9 55-30l1 105H24l-1-265h31l2 30c10-21 28-34 59-34zm-8 174c40 0 45-34 45-75s-6-73-45-74c-42 0-51 32-51 76 0 43 10 73 51 73" id="Y"/><path fill="#333" d="M24-231v-30h32v30H24zM24 0v-190h32V0H24" id="Z"/><path fill="#333" d="M85-194c31 0 48 13 60 33l-1-100h32l1 261h-30c-2-10 0-23-3-31C134-8 116 4 85 4 32 4 16-35 15-94c0-66 23-100 70-100zm9 24c-40 0-46 34-46 75 0 40 6 74 45 74 42 0 51-32 51-76 0-42-9-74-50-73" id="aa"/><g id="k"><use transform="matrix(0.05,0,0,0.05,0,0)" xlink:href="#Y"/><use transform="matrix(0.05,0,0,0.05,10,0)" xlink:href="#Z"/><use transform="matrix(0.05,0,0,0.05,13.949999999999998,0)" xlink:href="#aa"/></g><path fill="#ccc" d="M125-24c46 0 70-25 89-51l25 16C214-24 183 4 123 4 8 4-5-146 60-208c32-50 158-61 191-5 5 7 9 14 11 22l-32 10c-9-28-33-43-69-43-74 0-108 51-108 125 0 46 24 75 72 75" id="ab"/><path fill="#ccc" d="M179 0l23-115H67L45 0H11l48-248h34L72-143h135l21-105h32L212 0h-33" id="ac"/><path fill="#ccc" d="M187 0l-14-72H61L19 0h-37l149-248h38L221 0h-34zm-19-99l-22-123L76-99h92" id="ad"/><path fill="#ccc" d="M249-183c0 48-29 72-75 77L221 0h-36l-43-103H65L45 0H11l48-248c83 2 190-17 190 65zm-34 3c0-55-74-39-127-41l-18 92c63-1 145 13 145-51" id="ae"/><path fill="#ccc" d="M17-49c1-102 45-165 103-212h30C92-210 49-145 49-46 49 4 63 43 85 75H54C30 43 18 2 17-49" id="af"/><path fill="#ccc" d="M151-85c6-55-69-56-94-29H26l34-134h141l-5 27H84l-20 79c41-34 127-11 121 53C199 13 30 38 8-54l29-8C52 0 159-13 151-85" id="ag"/><path fill="#ccc" d="M123-251c66 0 92 69 53 113C138-94 73-75 39-27h128l-5 27H-2c17-92 123-93 159-163 14-28-1-64-36-62-29 2-46 17-54 41l-30-6c13-36 37-61 86-61" id="ah"/><path fill="#ccc" d="M98-137C97-35 54 29-4 75h-31C23 23 67-41 67-140c0-50-15-89-37-121h31c24 32 36 73 37 124" id="ai"/><g id="l"><use transform="matrix(0.05,0,0,0.05,0,0)" xlink:href="#ab"/><use transform="matrix(0.05,0,0,0.05,12.950000000000001,0)" xlink:href="#ac"/><use transform="matrix(0.05,0,0,0.05,25.900000000000002,0)" xlink:href="#ad"/><use transform="matrix(0.05,0,0,0.05,37.900000000000006,0)" xlink:href="#ae"/><use transform="matrix(0.05,0,0,0.05,50.85000000000001,0)" xlink:href="#af"/><use transform="matrix(0.05,0,0,0.05,56.80000000000001,0)" xlink:href="#ag"/><use transform="matrix(0.05,0,0,0.05,66.80000000000001,0)" xlink:href="#ah"/><use transform="matrix(0.05,0,0,0.05,76.80000000000001,0)" xlink:href="#ai"/></g><path fill="#333" d="M101-234c-31-9-42 10-38 44h38v23H63V0H32v-167H5v-23h27c-7-52 17-82 69-68v24" id="aj"/><path fill="#333" d="M141-36C126-15 110 5 73 4 37 3 15-17 15-53c-1-64 63-63 125-63 3-35-9-54-41-54-24 1-41 7-42 31l-33-3c5-37 33-52 76-52 45 0 72 20 72 64v82c-1 20 7 32 28 27v20c-31 9-61-2-59-35zM48-53c0 20 12 33 32 33 41-3 63-29 60-74-43 2-92-5-92 41" id="ak"/><path fill="#333" d="M24 0v-261h32V0H24" id="al"/><path fill="#333" d="M84 4C-5 8 30-112 23-190h32v120c0 31 7 50 39 49 72-2 45-101 50-169h31l1 190h-30c-1-10 1-25-2-33-11 22-28 36-60 37" id="am"/><path fill="#333" d="M114-163C36-179 61-72 57 0H25l-1-190h30c1 12-1 29 2 39 6-27 23-49 58-41v29" id="an"/><path fill="#333" d="M100-194c63 0 86 42 84 106H49c0 40 14 67 53 68 26 1 43-12 49-29l28 8c-11 28-37 45-77 45C44 4 14-33 15-96c1-61 26-98 85-98zm52 81c6-60-76-77-97-28-3 7-6 17-6 28h103" id="ao"/><g id="m"><use transform="matrix(0.05,0,0,0.05,0,0)" xlink:href="#aj"/><use transform="matrix(0.05,0,0,0.05,5,0)" xlink:href="#ak"/><use transform="matrix(0.05,0,0,0.05,15,0)" xlink:href="#Z"/><use transform="matrix(0.05,0,0,0.05,18.95,0)" xlink:href="#al"/><use transform="matrix(0.05,0,0,0.05,22.9,0)" xlink:href="#am"/><use transform="matrix(0.05,0,0,0.05,32.9,0)" xlink:href="#an"/><use transform="matrix(0.05,0,0,0.05,38.85,0)" xlink:href="#ao"/></g><path fill="#ccc" d="M219-77C219 17 104-2 11 0l48-248c73 2 169-15 169 57 0 38-24 54-60 60 29 5 51 21 51 54zm-26-111c0-44-62-31-105-33l-16 79c55 0 121 9 121-46zm-7 110c-1-49-69-36-119-38L50-27c61-1 137 12 136-51" id="ap"/><path fill="#ccc" d="M20-101c0-91 52-143 145-150 126-9 127 168 53 223-23 17-55 32-93 32C57 4 20-33 20-101zm216-33c5-57-18-91-73-90-77 1-110 51-110 125 0 49 23 75 73 75 72-1 104-45 110-110" id="aq"/><path fill="#ccc" d="M11 0l48-248h34L50-27h125l-5 27H11" id="ar"/><g id="n"><use transform="matrix(0.05,0,0,0.05,0,0)" xlink:href="#ap"/><use transform="matrix(0.05,0,0,0.05,12,0)" xlink:href="#aq"/><use transform="matrix(0.05,0,0,0.05,26,0)" xlink:href="#aq"/><use transform="matrix(0.05,0,0,0.05,40,0)" xlink:href="#ar"/></g><filter id="h" filterUnits="objectBoundingBox" x="-.04" y="-.04" width="1.08" height="1.19"><feOffset result="offOut" in="SourceAlpha" dy="6"/><feGaussianBlur result="blurOut" in="offOut" stdDeviation="5"/><feColorMatrix result="colorOut" in="blurOut" values="0 0 0 0 0 0 0 0 0 0 0 0 0 0 0 0 0 0 0.5019607843137255 0"/><feBlend in="SourceGraphic" in2="colorOut"/></filter><path fill="#fff" d="M85-194c31 0 48 13 60 33l-1-100h32l1 261h-30c-2-10 0-23-3-31C134-8 116 4 85 4 32 4 16-35 15-94c0-66 23-100 70-100zm9 24c-40 0-46 34-46 75 0 40 6 74 45 74 42 0 51-32 51-76 0-42-9-74-50-73" id="as"/><path fill="#fff" d="M108 0H70L1-190h34L89-25l56-165h34" id="at"/><path fill="#fff" d="M24-231v-30h32v30H24zM24 0v-190h32V0H24" id="au"/><path fill="#fff" d="M96-169c-40 0-48 33-48 73s9 75 48 75c24 0 41-14 43-38l32 2c-6 37-31 61-74 61-59 0-76-41-82-99-10-93 101-131 147-64 4 7 5 14 7 22l-32 3c-4-21-16-35-41-35" id="av"/><g id="p"><use transform="matrix(0.05,0,0,0.05,0,0)" xlink:href="#as"/><use transform="matrix(0.05,0,0,0.05,10,0)" xlink:href="#Q"/><use transform="matrix(0.05,0,0,0.05,20,0)" xlink:href="#at"/><use transform="matrix(0.05,0,0,0.05,29,0)" xlink:href="#au"/><use transform="matrix(0.05,0,0,0.05,32.95,0)" xlink:href="#av"/><use transform="matrix(0.05,0,0,0.05,41.95,0)" xlink:href="#Q"/><use transform="matrix(0.05,0,0,0.05,51.95,0)" xlink:href="#S"/><use transform="matrix(0.05,0,0,0.05,61.95,0)" xlink:href="#R"/><use transform="matrix(0.05,0,0,0.05,70.95,0)" xlink:href="#at"/></g><g id="q"><use transform="matrix(0.05,0,0,0.05,0,0)" xlink:href="#Z"/><use transform="matrix(0.05,0,0,0.05,3.95,0)" xlink:href="#aa"/></g><path fill="#333" d="M135-143c-3-34-86-38-87 0 15 53 115 12 119 90S17 21 10-45l28-5c4 36 97 45 98 0-10-56-113-15-118-90-4-57 82-63 122-42 12 7 21 19 24 35" id="aw"/><path fill="#333" d="M100-194c62-1 85 37 85 99 1 63-27 99-86 99S16-35 15-95c0-66 28-99 85-99zM99-20c44 1 53-31 53-75 0-43-8-75-51-75s-53 32-53 75 10 74 51 75" id="ax"/><path fill="#333" d="M59-47c-2 24 18 29 38 22v24C64 9 27 4 27-40v-127H5v-23h24l9-43h21v43h35v23H59v120" id="ay"/><path fill="#333" d="M206 0h-36l-40-164L89 0H53L-1-190h32L70-26l43-164h34l41 164 42-164h31" id="az"/><path fill="#333" d="M-5 72V49h209v23H-5" id="aA"/><path fill="#333" d="M108 0H70L1-190h34L89-25l56-165h34" id="aB"/><path fill="#333" d="M117-194c89-4 53 116 60 194h-32v-121c0-31-8-49-39-48C34-167 62-67 57 0H25l-1-190h30c1 10-1 24 2 32 11-22 29-35 61-36" id="aC"/><g id="r"><use transform="matrix(0.05,0,0,0.05,0,0)" xlink:href="#aw"/><use transform="matrix(0.05,0,0,0.05,9,0)" xlink:href="#ax"/><use transform="matrix(0.05,0,0,0.05,19,0)" xlink:href="#aj"/><use transform="matrix(0.05,0,0,0.05,24,0)" xlink:href="#ay"/><use transform="matrix(0.05,0,0,0.05,29,0)" xlink:href="#az"/><use transform="matrix(0.05,0,0,0.05,41.95,0)" xlink:href="#ak"/><use transform="matrix(0.05,0,0,0.05,51.95,0)" xlink:href="#an"/><use transform="matrix(0.05,0,0,0.05,57.900000000000006,0)" xlink:href="#ao"/><use transform="matrix(0.05,0,0,0.05,67.9,0)" xlink:href="#aA"/><use transform="matrix(0.05,0,0,0.05,77.9,0)" xlink:href="#aB"/><use transform="matrix(0.05,0,0,0.05,86.9,0)" xlink:href="#ao"/><use transform="matrix(0.05,0,0,0.05,96.9,0)" xlink:href="#an"/><use transform="matrix(0.05,0,0,0.05,102.85000000000001,0)" xlink:href="#aw"/><use transform="matrix(0.05,0,0,0.05,111.85000000000001,0)" xlink:href="#Z"/><use transform="matrix(0.05,0,0,0.05,115.80000000000001,0)" xlink:href="#ax"/><use transform="matrix(0.05,0,0,0.05,125.80000000000001,0)" xlink:href="#aC"/></g><path fill="#ccc" d="M248-139C247-14 144 9 11 0l48-248c105-6 190 8 189 109zm-34 0c1-70-52-87-126-82L50-27c98 7 163-21 164-112" id="aD"/><path fill="#ccc" d="M11 0l48-248h184l-5 28H87l-15 79h140l-5 27H67L50-27h158l-5 27H11" id="aE"/><path fill="#ccc" d="M58-38C53-5 46 26 28 46H7C19 32 27 18 32 0H17l7-38h34" id="aF"/><path fill="#ccc" d="M9 0l6-27h63l36-188-63 39 6-31 66-41h29L110-27h60l-5 27H9" id="aG"/><g id="s"><use transform="matrix(0.05,0,0,0.05,0,0)" xlink:href="#aD"/><use transform="matrix(0.05,0,0,0.05,12.950000000000001,0)" xlink:href="#aE"/><use transform="matrix(0.05,0,0,0.05,24.950000000000003,0)" xlink:href="#ab"/><use transform="matrix(0.05,0,0,0.05,37.900000000000006,0)" xlink:href="#af"/><use transform="matrix(0.05,0,0,0.05,43.85000000000001,0)" xlink:href="#ah"/><use transform="matrix(0.05,0,0,0.05,53.85,0)" xlink:href="#aF"/><use transform="matrix(0.05,0,0,0.05,58.85,0)" xlink:href="#aG"/><use transform="matrix(0.05,0,0,0.05,68.85000000000001,0)" xlink:href="#ai"/></g><filter id="o" filterUnits="objectBoundingBox" x="-.03" y="-.04" width="1.07" height="1.19"><feOffset result="offOut" in="SourceAlpha" dy="6"/><feGaussianBlur result="blurOut" in="offOut" stdDeviation="5"/><feColorMatrix result="colorOut" in="blurOut" values="0 0 0 0 0 0 0 0 0 0 0 0 0 0 0 0 0 0 0.5019607843137255 0"/><feBlend in="SourceGraphic" in2="colorOut"/></filter><path d="M-5 72V49h209v23H-5" id="aH"/><path d="M24 0v-261h32V0H24" id="aI"/><g id="t"><use transform="matrix(0.05,0,0,0.05,0,0)" xlink:href="#K"/><use transform="matrix(0.05,0,0,0.05,5,0)" xlink:href="#J"/><use transform="matrix(0.05,0,0,0.05,15,0)" xlink:href="#L"/><use transform="matrix(0.05,0,0,0.05,24,0)" xlink:href="#K"/><use transform="matrix(0.05,0,0,0.05,29,0)" xlink:href="#aH"/><use transform="matrix(0.05,0,0,0.05,39,0)" xlink:href="#H"/><use transform="matrix(0.05,0,0,0.05,44.95,0)" xlink:href="#J"/><use transform="matrix(0.05,0,0,0.05,54.95,0)" xlink:href="#L"/><use transform="matrix(0.05,0,0,0.05,63.95,0)" xlink:href="#N"/><use transform="matrix(0.05,0,0,0.05,73.95,0)" xlink:href="#aI"/><use transform="matrix(0.05,0,0,0.05,77.9,0)" xlink:href="#K"/></g><path fill="#ccc" d="M194-120c59 52 2 134-86 124-53-6-90-18-98-63l31-7c8 30 29 43 70 43 46 0 84-17 71-62-32-43-135-20-137-98-3-89 178-90 191-16l-30 9c-8-48-127-53-127 5 0 53 81 35 115 65" id="aJ"/><path fill="#ccc" d="M222 0l43-216c-8 16-17 34-26 49L143 0h-22L81-216 41 0H11l48-248h42l38 208 116-208h45L252 0h-30" id="aK"/><path fill="#ccc" d="M14 0l48-248h34L48 0H14" id="aL"/><path fill="#ccc" d="M173 0L80-213 41 0H11l48-248h37l94 214 40-214h30L212 0h-39" id="aM"/><path fill="#ccc" d="M151-220L108 0H75l42-220H32l6-28h203l-5 28h-85" id="aN"/><g id="u"><use transform="matrix(0.05,0,0,0.05,0,0)" xlink:href="#aJ"/><use transform="matrix(0.05,0,0,0.05,12,0)" xlink:href="#aK"/><use transform="matrix(0.05,0,0,0.05,26.950000000000003,0)" xlink:href="#ad"/><use transform="matrix(0.05,0,0,0.05,38.95,0)" xlink:href="#ar"/><use transform="matrix(0.05,0,0,0.05,48.95,0)" xlink:href="#ar"/><use transform="matrix(0.05,0,0,0.05,58.95,0)" xlink:href="#aL"/><use transform="matrix(0.05,0,0,0.05,63.95,0)" xlink:href="#aM"/><use transform="matrix(0.05,0,0,0.05,76.9,0)" xlink:href="#aN"/><use transform="matrix(0.05,0,0,0.05,87.85000000000001,0)" xlink:href="#af"/><use transform="matrix(0.05,0,0,0.05,93.80000000000001,0)" xlink:href="#ai"/></g><path d="M85-194c31 0 48 13 60 33l-1-100h32l1 261h-30c-2-10 0-23-3-31C134-8 116 4 85 4 32 4 16-35 15-94c0-66 23-100 70-100zm9 24c-40 0-46 34-46 75 0 40 6 74 45 74 42 0 51-32 51-76 0-42-9-74-50-73" id="aO"/><path d="M108 0H70L1-190h34L89-25l56-165h34" id="aP"/><path d="M24-231v-30h32v30H24zM24 0v-190h32V0H24" id="aQ"/><path d="M96-169c-40 0-48 33-48 73s9 75 48 75c24 0 41-14 43-38l32 2c-6 37-31 61-74 61-59 0-76-41-82-99-10-93 101-131 147-64 4 7 5 14 7 22l-32 3c-4-21-16-35-41-35" id="aR"/><g id="v"><use transform="matrix(0.05,0,0,0.05,0,0)" xlink:href="#aO"/><use transform="matrix(0.05,0,0,0.05,10,0)" xlink:href="#J"/><use transform="matrix(0.05,0,0,0.05,20,0)" xlink:href="#aP"/><use transform="matrix(0.05,0,0,0.05,29,0)" xlink:href="#aQ"/><use transform="matrix(0.05,0,0,0.05,32.95,0)" xlink:href="#aR"/><use transform="matrix(0.05,0,0,0.05,41.95,0)" xlink:href="#J"/><use transform="matrix(0.05,0,0,0.05,51.95,0)" xlink:href="#aH"/><use transform="matrix(0.05,0,0,0.05,61.95,0)" xlink:href="#L"/><use transform="matrix(0.05,0,0,0.05,70.95,0)" xlink:href="#aP"/></g></defs></g></svg>