<?xml version="1.0" encoding="utf-8"?>
<!-- Generator: Adobe Illustrator 25.1.0, SVG Export Plug-In . SVG Version: 6.00 Build 0)  -->
<svg version="1.1" id="Layer_1" xmlns="http://www.w3.org/2000/svg" xmlns:xlink="http://www.w3.org/1999/xlink" x="0px" y="0px"
	 viewBox="0 0 193 181.9" style="enable-background:new 0 0 193 181.9;" xml:space="preserve">
<style type="text/css">
	.st0{fill:none;stroke:#000000;stroke-width:7;}
</style>
<path class="st0" d="M32.5,60.9c-16.6,0.6-29.5,14.4-29,31s14.4,29.5,31,29c16.6-0.6,29.5-14.4,29-31c-0.5-15.8-13.2-28.5-29-29
	H32.5z M74.5,60.9c-16.6,0.6-29.5,14.4-29,31s14.4,29.5,31,29c16.6-0.6,29.5-14.4,29-31c-0.5-15.8-13.2-28.5-29-29H74.5z
	 M116.5,60.9c-16.6,0.6-29.5,14.4-29,31s14.4,29.5,31,29c16.6-0.6,29.5-14.4,29-31c-0.5-15.8-13.2-28.5-29-29H116.5z M158.5,60.9
	c-16.6,0.6-29.5,14.4-29,31c0.6,16.6,14.4,29.5,31,29c16.6-0.6,29.5-14.4,29-31c-0.5-15.8-13.2-28.5-29-29H158.5z"/>
</svg>
