<?xml version="1.0" encoding="utf-8"?>
<!-- Generator: Adobe Illustrator 25.1.0, SVG Export Plug-In . SVG Version: 6.00 Build 0)  -->
<svg version="1.1" id="Layer_1" xmlns="http://www.w3.org/2000/svg" xmlns:xlink="http://www.w3.org/1999/xlink" x="0px" y="0px"
	 viewBox="0 0 371 371" style="enable-background:new 0 0 371 371;" xml:space="preserve">
<style type="text/css">
	.st0{fill:#003D72;}
	.st1{fill:#54B6C0;}
</style>
<path class="st0" d="M143.8,214.2v-90.6H195v160.1c0,9.4-7.6,17-17,17l-43-0.1L54.5,156.1L55,283.6c0,9.4-7.6,17.1-17,17.1H1
	C1,299,1,140.4,1,87.4c0-9.4,7.6-17,17-17c14.8,0,46.5-0.1,46.5-0.1S140.1,206.7,143.8,214.2z"/>
<path class="st0" d="M205.1,70.3H353c9.4,0,17,7.6,17,17v26.9h-58.5l-0.3,169.4c0,9.4-7.6,17-17,17h-34.8V114.3h-54.3V70.3z"/>
<path class="st1" d="M195,114.3h-51.2V87.4c0-9.4,7.6-17,17-17H195V114.3z"/>
</svg>
