<?xml version="1.0" encoding="utf-8"?>
<!-- Generator: Adobe Illustrator 25.1.0, SVG Export Plug-In . SVG Version: 6.00 Build 0)  -->
<svg version="1.1"
	 id="svg2" xmlns:cc="http://creativecommons.org/ns#" xmlns:dc="http://purl.org/dc/elements/1.1/" xmlns:inkscape="http://www.inkscape.org/namespaces/inkscape" xmlns:rdf="http://www.w3.org/1999/02/22-rdf-syntax-ns#" xmlns:sodipodi="http://sodipodi.sourceforge.net/DTD/sodipodi-0.dtd" xmlns:svg="http://www.w3.org/2000/svg"
	 xmlns="http://www.w3.org/2000/svg" xmlns:xlink="http://www.w3.org/1999/xlink" x="0px" y="0px" viewBox="0 0 331 331"
	 style="enable-background:new 0 0 331 331;" xml:space="preserve">
<style type="text/css">
	.st0{fill-rule:evenodd;clip-rule:evenodd;fill:#50565B;}
	.st1{fill:#50565B;}
</style>
<g>
	<g>
		<path class="st0" d="M107.3,109.8c-0.9-2.3,0.5-5.4,0.5-5.4c1.7-0.5,4.9-0.2,5.8,2c1,2.4,0,4.4-2.7,6.1
			C110.8,112.4,109.1,111.8,107.3,109.8z"/>
		<polygon class="st0" points="188.4,248.3 171.7,261.6 171.6,123.8 188.4,123.8 		"/>
		<path class="st0" d="M199.2,236.2V123.8h13.7l0.1,85.8C210.4,217.7,206.1,226.6,199.2,236.2z"/>
		<polygon class="st0" points="144.1,249.5 161.1,262.9 161.1,123.8 144.1,123.8 		"/>
		<path class="st0" d="M134.6,240.1l-0.1-116.3h-15.1v91.6C120,221.5,131.1,237.2,134.6,240.1z"/>
		<path class="st1" d="M165.5,280.6c-63.4,0-115.1-51.6-115.1-115.1c0-63.4,51.6-115,115.1-115c63.4,0,115,51.6,115,115
			C280.6,228.9,229,280.6,165.5,280.6v4.1c65.7,0,119.1-53.4,119.1-119.1S231.2,46.5,165.5,46.5S46.4,99.9,46.4,165.6
			s53.4,119.1,119.1,119.1V280.6z"/>
		<path class="st1" d="M165.5,325.7c-88.4,0-160.2-71.9-160.2-160.2S77.2,5.3,165.5,5.3c88.4,0,160.2,71.9,160.2,160.2
			S253.9,325.7,165.5,325.7v5.3c91.3,0,165.5-74.2,165.5-165.5S256.8,0,165.5,0C74.3,0,0,74.2,0,165.5S74.2,331,165.5,331V325.7z"/>
		<path class="st0" d="M29.1,212.4c3.6,3.5,5.4,6,7.4,10.6c1.8,4.1,2.1,6.8,2.4,11.3l8.2-3.6c-3-3.4-4.7-5.4-6.6-9.6
			c-2-4.6-2.8-7.5-3.1-12.5L29.1,212.4z"/>
		<path class="st0" d="M28.6,230.5c3.5-3.6,5.9-5.5,10.6-7.4c4.2-1.7,6.8-2.1,11.3-2.4l-3.6-8.2c-3.3,3-5.5,4.7-9.6,6.5
			c-4.6,2.1-7.5,2.7-12.5,3.1L28.6,230.5z"/>
		<path class="st0" d="M301.6,212.4c-3.6,3.5-5.5,6-7.4,10.6c-1.8,4.2-2.2,6.8-2.4,11.3l-8.2-3.6c3-3.4,4.8-5.4,6.5-9.6
			c2-4.6,2.8-7.5,3.1-12.5L301.6,212.4z"/>
		<path class="st0" d="M302.2,230.5c-3.5-3.6-5.9-5.5-10.6-7.4c-4.2-1.7-6.8-2.1-11.3-2.4l3.6-8.2c3.3,3.1,5.5,4.7,9.6,6.5
			c4.6,2.1,7.5,2.7,12.5,3.1L302.2,230.5z"/>
		<path class="st0" d="M100.9,280.2c2.2-1.2,3.2-0.1,3.7-0.8c0.4-0.5-0.1-0.7-0.7-1.2c-0.8-0.6-1.7-1.1-2.5-1.8
			c-0.8-0.6-1.5-1.4-2.4-2c-0.3-0.3-1.1-1-1.5-0.4c-0.8,1.1,2.9,2.2,0.7,5c-0.4,0.5-1.2,1.5-3.7,2.8l-11,6.1
			c-0.3,0.1-0.7,0.5-0.9,0.3c-0.2-0.1,0-0.7,0.1-0.9l3.8-12.5c0.7-2.4,1.5-4.1,2.2-5c1-1.3,2.3,0.5,3-0.3c0.4-0.5,0.2-0.6-0.7-1.3
			c-0.5-0.3-1.4-0.9-3.2-2.3c-1-0.8-1.8-1.6-2.8-2.4c-0.4-0.3-1.1-1.3-1.7-0.5c-0.2,0.2,0.1,0.7,0.1,0.8c0.9,1.2,1.1,1.9,0.6,3.4
			l-6.5,23c-0.5,1.7-0.4,2.2-0.1,2.4c0.3,0.2,0.6,0.2,1.5-0.4L100.9,280.2z"/>
		<path class="st0" d="M129.6,292.1c0.7-2.8,2.9-0.8,3.2-2.2c0.1-0.4-0.1-0.5-0.8-0.7c-0.6-0.1-1-0.1-4-0.8c-1.3-0.3-3.3-1-4.7-1.3
			c-0.7-0.2-1.2,0-1.3,0.3c-0.3,1.3,3.9,1.3,3.1,4.4l-4.4,17.5c-1.1,4.5-3.3,1.8-3.7,3.5c-0.1,0.2,0.1,0.5,0.6,0.6
			c1.9,0.5,3.4,0.7,4.5,1c1.8,0.4,3.8,1.1,9.1,2.4c2.9,0.7,5.7-1.8,6.4-4.7c0.2-0.7,0-0.9-0.2-0.9c-1.3-0.3-2.1,4.6-10.7,2.5
			c-2.5-0.6-2.1-1.9-1.5-4.2L129.6,292.1z"/>
		<path class="st0" d="M150.5,296.5c0.2-2.6,0.3-2.6,4.7-2.3c7,0.5,3.8,4.7,5.5,4.8c0.8,0.1,0.7-1.2,0.7-1.7l0.1-3.8
			c0-0.3-0.2-0.7-0.7-0.8c-3.2-0.2-5.7-0.2-8.2-0.4c-5.5-0.4-8.1-0.7-9.6-0.8c-0.5,0-0.8,0.3-0.8,0.6c-0.1,1.5,4,0.6,3.8,4
			l-1.2,17.8c-0.3,4.6-2.9,2.4-3,4.1c0,0.2,0.2,0.4,0.7,0.5c2,0.1,3.5,0.1,4.6,0.2c1.8,0.1,4,0.4,9.4,0.8c3,0.2,5.3-2.8,5.5-5.7
			c0.1-0.7-0.2-0.8-0.3-0.9c-1.4-0.1-1.2,4.9-10.2,4.3c-2.6-0.2-2.4-1.5-2.2-3.9l0.3-4.9c0.2-2.2,0-2.7,1.7-2.6l2.7,0.2
			c3.7,0.3,2.5,4.2,3.6,4.3c0.9,0.1,0.7-1.3,0.7-1.8l0.2-6.8c0-1-0.4-1-0.6-1c-0.7-0.1-1.1,3.4-4.2,3.2l-2.3-0.2
			c-1.6-0.1-1.5-0.4-1.4-2L150.5,296.5z"/>
		<path class="st0" d="M169.8,314.8c0.3,3.9-3.2,3.5-3,5c0.1,0.6,0.8,0.4,1.2,0.4c1-0.1,1.9-0.3,3.1-0.4c1.3-0.1,2.5-0.1,4.3-0.2
			c0.5,0,1.4-0.1,1.3-0.6c-0.2-1.8-4.5,1.2-5.2-6.1l-1.1-12.9c0-0.3,0-0.6,0.2-0.6s0.4,0.2,0.7,0.4l19.1,18.2c0.3,0.3,0.5,0.5,1,0.4
			c0.4,0,0.4-0.3,0.3-1.2l-1.9-21.3c-0.3-4,2.8-3.3,2.7-4.5c0-0.1,0-0.5-0.7-0.4c-0.3,0-1.6,0.3-3.8,0.5c-2.5,0.2-3.5,0.2-4.1,0.2
			c-0.5,0-0.5,0.4-0.5,0.7c0.1,1.2,4.4,0.2,4.7,3.6l1.1,12.6c0.1,0.9,0.1,1.4-0.2,1.4c-0.2,0-0.7-0.4-1.2-0.9l-15.9-15.4
			c-0.7-0.7-0.3-1-1.5-0.9c-1.9,0.2-2.8,0.4-3.8,0.5c-0.7,0.1-1.3,0-2,0c-0.4,0-0.6,0.4-0.6,0.7c0.2,1.8,4-1,4.6,6.3L169.8,314.8z"
			/>
		<path class="st0" d="M214.5,285.6c-0.1-0.2-0.3-0.1-0.5-0.1c-0.5,0.1-0.2,1.4-0.8,1.6c-1,0.3-4.4-1.1-8.6,0.2
			c-8.7,2.7-9.8,11.8-7.9,17.9c0.9,2.9,5.3,11.7,15.4,8.6c7.4-2.2,9.3-8.9,8.9-10.3c-0.1-0.2-0.4-0.3-0.6-0.3
			c-0.9,0.3-1.8,5.8-7.1,7.4c-6.6,2-11.6-4.3-13.1-9.5c-1.5-4.9-0.2-10.8,4.8-12.4c4-1.2,8,1,10.8,4c0.4,0.4,0.9,1.1,1.4,0.9
			c0.6-0.2,0.2-1,0.1-1.3L214.5,285.6z"/>
		<path class="st0" d="M224.9,283.3c-1.7-3.2,1.3-3.3,0.7-4.4c-0.2-0.4-0.4-0.4-1.4,0.1c-1.8,1-2.9,1.7-4,2.3
			c-1.1,0.6-2.4,1.1-3.7,1.8c-0.3,0.2-1.1,0.5-0.8,1c0.6,1.2,3.7-1.7,5.4,1.4l8.6,16.1c1.7,3.2-1.1,3.5-0.4,4.7
			c0.1,0.2,0.3,0.4,0.6,0.2c0.8-0.4,2.1-1.3,3.5-2c2.5-1.3,3.7-1.8,4.9-2.4c0.7-0.4,0.9-0.7,0.7-1c-0.6-1.1-3.3,2.4-5.5-1.8
			L224.9,283.3z"/>
		<path class="st0" d="M18.1,150.1c-2.2-1-1.8-2.3-2.7-2.4c-0.6-0.1-0.6,0.4-0.6,1c-0.1,0.9,0,1.7-0.1,2.6c-0.1,0.9-0.3,1.7-0.4,2.6
			c0,0.4-0.2,1.2,0.5,1.3c1.3,0.1,0.2-3.1,3.8-2.7c0.6,0.1,1.9,0.3,4.4,1.4l11.1,5.3c0.3,0.1,0.8,0.3,0.8,0.5s-0.6,0.3-0.8,0.3
			l-12.6,2.7c-2.4,0.5-4.2,0.7-5.4,0.6c-1.6-0.2-0.8-1.9-1.9-2c-0.6-0.1-0.6,0.1-0.7,1.1c0,0.5,0,1.4-0.2,3.3
			c-0.1,1-0.4,2.1-0.5,3.1c0,0.5-0.4,1.4,0.5,1.5c0.3,0,0.5-0.3,0.6-0.4c0.5-1.2,1-1.6,2.5-2l22.9-5.4c1.7-0.4,2.1-0.7,2.1-1
			s-0.2-0.5-1.1-0.9L18.1,150.1z"/>
		<path class="st0" d="M36.2,147.6c3.8,0.9,2.5,3.6,3.9,3.9c0.6,0.1,0.6-0.5,0.7-0.8c0.2-0.8,0.2-1.6,0.4-2.6s0.6-2,1-3.5
			c0.1-0.4,0.3-1.1-0.2-1.2c-1.8-0.4-0.1,4-7.2,2.3l-12.6-2.9c-0.3-0.1-0.6-0.2-0.5-0.4c0-0.1,0.3-0.3,0.6-0.4l22.6-9.8
			c0.3-0.1,0.6-0.2,0.7-0.7c0.1-0.4-0.2-0.4-1-0.6l-20.8-4.8c-3.9-0.9-2.4-3.2-3.5-3.5c-0.1,0-0.5-0.1-0.6,0.5
			c-0.1,0.3-0.2,1.3-0.6,3.2c-0.5,2-0.8,2.9-0.9,3.3c-0.1,0.4,0.3,0.6,0.5,0.6c1.2,0.3,1.4-3.5,4.8-2.7l12.3,2.9
			c0.9,0.2,1.4,0.4,1.3,0.6c0,0.2-0.6,0.4-1.2,0.7l-19.1,8.1c-0.8,0.4-1,0-1.2,0.9c-0.4,1.6-0.4,2.4-0.6,3.1
			c-0.1,0.6-0.4,1.1-0.5,1.6c-0.1,0.4,0.2,0.6,0.5,0.6c1.8,0.4,0.1-3.5,7.3-1.8L36.2,147.6z"/>
		<path class="st0" d="M26.4,115.7c-3.4-1.1-1.4-2.9-2.7-3.3c-0.4-0.1-0.6,0-0.8,0.8c-0.5,1.7-0.7,2.7-1.1,3.8
			c-0.3,1-0.8,2.1-1.2,3.2c-0.1,0.3-0.4,0.9,0.2,1.1c1.3,0.4,1.3-3.2,4.6-2.1l17.4,5.6c3.4,1.1,1.8,2.9,3.1,3.3
			c0.2,0.1,0.5,0.1,0.5-0.2c0.2-0.8,0.5-2,0.9-3.3c0.7-2.3,1.2-3.3,1.6-4.4c0.2-0.7,0.1-1-0.2-1.1c-1.2-0.4-0.5,3.4-5,2L26.4,115.7z
			"/>
		<path class="st0" d="M34.9,94c-1.7-1.7-1-2.7-1.8-3.1c-0.6-0.3-0.7,0.2-0.9,0.8c-0.3,0.8-0.6,1.6-0.9,2.4
			c-0.4,0.8-0.8,1.5-1.2,2.3c-0.1,0.3-0.6,1.1,0.1,1.4c1.2,0.5,1.2-2.8,4.4-1.4c0.6,0.2,1.8,0.8,3.7,2.7l8.9,8.5
			c0.2,0.2,0.6,0.5,0.6,0.7c-0.1,0.2-0.6,0.1-0.9,0.1L34.1,107c-2.4-0.2-4.2-0.6-5.3-1.1c-1.5-0.6-0.2-2.1-1.1-2.5
			c-0.6-0.3-0.6-0.1-1,0.8c-0.2,0.4-0.4,1.3-1.2,3.1c-0.4,0.9-1,1.8-1.4,2.7c-0.2,0.4-0.8,1.2,0,1.5c0.2,0.1,0.6-0.2,0.7-0.2
			c0.9-1,1.4-1.2,3-1.1l23.3,2.1c1.7,0.2,2.2,0,2.3-0.3s0-0.5-0.8-1.2L34.9,94z"/>
		<path class="st0" d="M41.3,86.1c-2.2-1.4-2.2-1.6-0.2-4.6c3.2-4.9,5.6-0.5,6.4-1.7c0.4-0.6-0.8-1.1-1.2-1.4l-3.2-2
			c-0.3-0.2-0.7-0.2-0.9,0.1c-1.5,2.2-2.5,4.1-3.6,5.9c-2.5,3.9-3.9,5.7-4.5,6.7c-0.2,0.4-0.1,0.7,0.2,0.9c1.3,0.8,2.1-2.7,5-0.9
			l14.9,9.7c3.9,2.5,0.9,3.4,2.4,4.3c0.2,0.1,0.5,0.1,0.7-0.3c0.9-1.4,1.5-2.6,2-3.3c0.8-1.3,2-2.7,4.5-6.6c1.4-2.1-0.3-5.3-2.8-6.9
			c-0.6-0.4-0.8-0.3-0.9-0.2c-0.6,1,3.8,3.3-0.3,9.7c-1.2,1.8-2.3,1-4.3-0.3l-4.1-2.7c-1.9-1.2-2.3-1.3-1.5-2.5l1.2-1.9
			c1.7-2.7,4.6,0.3,5.2-0.6c0.4-0.6-0.8-1.2-1.3-1.5l-5.8-3.5c-0.9-0.5-1-0.2-1.1,0c-0.3,0.5,2.6,2.5,1.1,4.7l-1,1.6
			c-0.7,1.1-0.9,0.9-2.3,0.1L41.3,86.1z"/>
		<path class="st0" d="M79.2,71.5c0.7,0.6,0.9,0.9,1.6,0.5c1.7-0.8,3.4-1.1,4.9-2.2c3.1-2.6,3-7-0.2-10.8c-3.1-3.7-5.7-3.7-9.3-2.9
			c-4.6,0.9-6.2,1.6-7.8-0.4c-1.6-2-1.5-3.9,0-5.2c4-3.4,8.9,1.8,9.4,1.3c0.5-0.4,0.3-0.8-0.3-1.4L74,46.7c-0.6-0.6-0.9-1.1-1.3-0.8
			c-0.3,0.3-0.5,1.2-0.8,1.5c-0.7,0.6-2.6,0.3-4.5,1.9c-2.7,2.3-2.5,6.3,0.3,9.7c2.6,3.1,4.9,3,7.8,2.5c5.5-1.1,7.3-1.9,9.3,0.5
			c2,2.3,1.7,4.9-0.1,6.4c-2.6,2.2-6.3,0.7-9.4-1.4c-0.4-0.3-0.7-0.5-1-0.2c-0.6,0.5,0.4,1.1,0.8,1.5L79.2,71.5z"/>
		<path class="st0" d="M83.2,42.7c-2.1-3,0.6-3.1-0.2-4.2c-0.3-0.4-0.4-0.4-1.2,0.2c-1.4,1-2.2,1.7-3.1,2.4
			c-0.9,0.6-1.9,1.2-2.9,1.9c-0.2,0.2-0.9,0.5-0.5,1c0.8,1.1,3-1.8,5,1.1l10.5,15c2.1,3-0.3,3.4,0.5,4.5c0.1,0.2,0.3,0.3,0.5,0.2
			c0.6-0.5,1.6-1.3,2.7-2.1c1.9-1.4,3-1.9,3.9-2.5c0.6-0.4,0.7-0.7,0.5-1c-0.7-1-2.5,2.4-5.2-1.4L83.2,42.7z"/>
		<path class="st0" d="M189,19.7c0.3-1.7,0.9-2.4,2.3-2.1c4.6,0.8,3.9,6.3,3.7,7.3s-1.2,5.2-4.8,4.5c-0.7-0.1-1.1-0.4-1.4-0.5
			c-0.4-0.1-0.5,0.4-0.5,0.6s0,1.1,2.9,1.6c3.6,0.6,6.9-1.7,7.7-6.4c1-5.5-2.4-8-6.3-8.6c-2.1-0.3-4.3-0.6-4.7-0.7
			c-2.3-0.4-3.9-0.8-4.1-0.9c-0.7-0.1-0.9,0.3-1,0.6c-0.2,1.4,3.1,0.4,2.4,4.4L182.3,36c-0.8,4.7-3.1,3.4-3.3,4.5
			c-0.1,0.6,0.4,0.7,0.5,0.7c0.2,0,2.5,0.3,3.7,0.5c0.7,0.1,2,0.5,4,0.9c0.4,0.1,0.7,0.2,0.8-0.4c0.2-1.3-3-0.4-2.2-5.1L189,19.7z"
			/>
		<path class="st0" d="M214.3,21.3c-6.9-2.3-12.8,2.3-15.5,10.2c-2.5,7.3-0.3,13.5,5.5,15.5c9.2,3.2,14-5.1,15.7-10.1
			C222.6,29.3,219.9,23.2,214.3,21.3z M216,37.1c-2.1,6-5.3,10.2-10.3,8.6c-5.2-1.7-4.4-9.8-2.6-15.1c1.8-5.2,4.9-9.7,9.8-8.1
			C216.7,23.8,218.7,29.2,216,37.1z"/>
		<path class="st0" d="M231.1,32.3c1.3-2.6,2.6-0.3,3.2-1.6c0.2-0.4,0.1-0.5-0.5-0.8c-0.4-0.2-0.8-0.3-3.1-1.4c-1-0.5-2.5-1.5-3.6-2
			c-0.6-0.3-1-0.2-1.2,0.1c-0.6,1.2,2.9,1.8,1.5,4.7l-8.2,16c-2.1,4.1-3.2,1.3-4,2.8c-0.1,0.2,0,0.5,0.3,0.6
			c1.5,0.8,2.7,1.2,3.5,1.6c1.4,0.7,2.9,1.7,7,3.8c2.2,1.1,5.2-0.8,6.6-3.5c0.3-0.6,0.2-0.8,0.1-0.9c-1-0.5-2.9,4.1-9.6,0.7
			c-2-1-1.2-2.2-0.2-4.3L231.1,32.3z"/>
		<path class="st0" d="M247.6,42.6c2-3,3.1-0.6,3.9-1.7c0.3-0.4,0.2-0.5-0.6-1c-1.4-1-2.4-1.5-3.3-2.1c-0.9-0.6-1.8-1.4-2.8-2
			c-0.2-0.2-0.8-0.7-1.2-0.1c-0.7,1.1,2.7,2.1,0.8,5l-10.2,15.1c-2,3-3.3,0.9-4,2.1c-0.1,0.2-0.2,0.4,0,0.6c0.7,0.4,1.8,1,2.9,1.8
			c2,1.3,2.8,2.1,3.8,2.7c0.6,0.4,0.9,0.4,1.1,0.1c0.7-1-3.1-1.5-0.5-5.3L247.6,42.6z"/>
		<path class="st0" d="M246.4,63.9c-2.8,3.6-4.4,0-5.3,1.2c-0.5,0.7-0.1,0.9,0.3,1.3c1,0.7,1.9,1.2,3.5,2.5s2.3,2,3.3,2.7
			c0.7,0.5,1.1,1,1.7,0.3c0.7-0.8-3.1-2.4-0.2-6.1l10.6-13.5c1.1-1.4,1.5-1.4,2.5-0.6l2,1.6c2.9,2-0.5,4.8,0.4,5.5
			c0.6,0.5,1.3-0.9,1.5-1.3l1.9-3c0.2-0.3,0.5-0.7,0.2-1c-2.2-1.7-3.9-2.9-7.4-5.6s-5-4.1-7.3-5.9c-0.4-0.3-0.7,0.1-0.9,0.4
			l-3.5,3.7c-0.3,0.4-1,0.9-0.5,1.3c1.1,0.8,3.4-3.6,6.1-1.5l2,1.6c1,0.8,1.1,1.1,0,2.5L246.4,63.9z"/>
		<path class="st0" d="M272.6,64.2c1.9-1.8,2-1.7,4.5,1c4,4.3-0.9,5.6,0.1,6.6c0.5,0.5,1.3-0.5,1.6-0.8l2.7-2.7
			c0.3-0.2,0.4-0.7,0.1-0.9c-1.8-2-3.4-3.4-4.8-5c-3.2-3.4-4.6-5.1-5.4-6c-0.3-0.3-0.7-0.3-0.9,0c-1.1,1,2.1,2.7-0.4,5.1l-13,12.1
			c-3.4,3.2-3.5,0.1-4.7,1.3c-0.2,0.2-0.2,0.4,0.1,0.7c1.1,1.2,2.1,2.1,2.8,2.7c1,1.1,2.2,2.6,5.3,5.9c1.7,1.8,5.2,1,7.4-1
			c0.5-0.5,0.5-0.7,0.4-0.8c-0.8-0.8-4.1,2.9-9.3-2.7c-1.5-1.6-0.4-2.4,1.3-4.1l3.6-3.3c1.6-1.5,1.9-1.9,2.8-0.9l1.5,1.6
			c2.2,2.3-1.4,4.4-0.7,5.2c0.5,0.5,1.4-0.5,1.7-0.9l4.8-4.8c0.7-0.7,0.4-0.9,0.3-1.1c-0.4-0.4-3,1.9-4.8,0l-1.3-1.4
			c-0.9-1-0.7-1.1,0.5-2.3L272.6,64.2z"/>
		<path class="st0" d="M295.2,87.8c0.2-0.1,0.1-0.3,0-0.4c-0.2-0.4-1.3,0.3-1.6-0.2c-0.5-0.8,0.1-4-2-7c-4.3-6.4-13-4.3-18.3-0.7
			c-2.5,1.7-9.8,8.3-4.8,15.7c3.6,5.4,10.2,4.8,11.5,4c0.2-0.1,0.2-0.5,0.1-0.6c-0.4-0.7-5.7,0.4-8.4-3.5c-3.2-4.8,1.6-11,6.1-14
			c4.2-2.9,10-3.8,12.5-0.1c2,2.9,0.7,7-1.5,10.3c-0.3,0.5-0.8,1.1-0.6,1.5c0.3,0.4,0.9-0.2,1.2-0.4L295.2,87.8z"/>
		<path class="st0" d="M279.9,102.9c-3.5,1.6-4.1-1.3-5.5-0.7c-0.6,0.3-0.2,0.7,0,1c0.3,0.7,0.8,1.4,1.2,2.3c0.5,1,0.8,2,1.4,3.3
			c0.2,0.4,0.5,1.1,0.9,0.8c1.6-0.8-2.4-3.2,4.2-6.3l11.7-5.5c0.3-0.1,0.6-0.2,0.7,0c0.1,0.1,0,0.4-0.2,0.7l-11.7,21.6
			c-0.2,0.3-0.3,0.6-0.1,0.9c0.2,0.3,0.4,0.2,1.2-0.2l19.4-9c3.6-1.7,3.9,1,4.9,0.6c0.1-0.1,0.4-0.2,0.2-0.7
			c-0.1-0.2-0.7-1.1-1.5-2.9c-0.9-1.9-1.1-2.8-1.3-3.2c-0.2-0.4-0.6-0.3-0.8-0.2c-1.1,0.5,1,3.6-2.1,5.1l-11.5,5.4
			c-0.9,0.4-1.3,0.5-1.4,0.4c-0.1-0.2,0.2-0.7,0.5-1.3l10-18.2c0.4-0.8,0.8-0.6,0.4-1.5c-0.7-1.5-1.2-2.1-1.5-2.8
			c-0.2-0.5-0.3-1.1-0.6-1.6c-0.2-0.3-0.5-0.3-0.8-0.2c-1.6,0.8,2,2.8-4.6,5.9L279.9,102.9z"/>
		<path class="st0" d="M307.1,122.9c3.4-1.1,2.8,1.5,4.1,1.1c0.4-0.1,0.5-0.3,0.2-1.2c-0.5-1.7-1-2.6-1.4-3.7
			c-0.3-1-0.5-2.2-0.9-3.3c-0.1-0.3-0.2-1-0.8-0.8c-1.3,0.4,0.8,3.4-2.5,4.4l-17.4,5.6c-3.4,1.1-3.2-1.3-4.4-0.9
			c-0.2,0.1-0.4,0.2-0.3,0.5c0.2,0.7,0.8,1.9,1.2,3.2c0.7,2.3,0.9,3.4,1.3,4.4c0.2,0.7,0.4,0.9,0.8,0.8c1.1-0.4-1.6-3.1,2.9-4.5
			L307.1,122.9z"/>
		<path class="st0" d="M315.2,145.6c0.2,0,0.2-0.3,0.2-0.4c-0.1-0.4-1.3-0.2-1.4-0.8c-0.2-0.9,1.7-3.6,1.1-7.2
			c-1.3-7.5-10.2-9.2-16.5-8.1c-3,0.5-12.3,3.6-10.8,12.3c1.1,6.4,7.3,8.6,8.8,8.3c0.2,0,0.4-0.3,0.3-0.5c-0.1-0.8-5.4-2-6.2-6.6
			c-1-5.7,6-9.4,11.3-10.4c5-0.9,10.7,0.6,11.5,5c0.6,3.5-2.2,6.7-5.5,8.8c-0.5,0.3-1.2,0.6-1.1,1.1s0.9,0.2,1.3,0.1L315.2,145.6z"
			/>
		<path class="st0" d="M97.5,241.4c-1,0.7-1,0.7-2.2-0.8c-1.9-2.5,0.5-2.7,0.1-3.3c-0.2-0.3-0.6,0.1-0.8,0.3l-1.4,1.1
			c-0.1,0.1-0.2,0.3-0.1,0.5c0.8,1.1,1.6,2,2.3,2.9c1.5,2,2.1,2.9,2.5,3.4c0.1,0.2,0.3,0.2,0.5,0.1c0.6-0.4-1-1.5,0.3-2.5l6.6-5
			c1.7-1.3,1.7,0.2,2.3-0.2c0.1-0.1,0.1-0.2,0-0.4c-0.5-0.7-1-1.2-1.3-1.6c-0.5-0.6-1-1.5-2.5-3.4c-0.8-1-2.5-0.9-3.6-0.1
			c-0.3,0.2-0.2,0.3-0.2,0.4c0.4,0.5,2.1-1.1,4.5,2.1c0.7,0.9,0.1,1.2-0.7,1.9l-1.8,1.4c-0.8,0.6-1,0.8-1.4,0.2l-0.7-0.9
			c-1-1.3,0.8-2.1,0.5-2.5c-0.2-0.3-0.7,0.2-0.9,0.3l-2.5,2c-0.4,0.3-0.2,0.4-0.2,0.5c0.2,0.3,1.5-0.7,2.4,0.4l0.6,0.8
			c0.4,0.5,0.3,0.6-0.3,1.1L97.5,241.4z"/>
		<path class="st0" d="M100.5,230.5c1.2,0,1.7,0.7,2,0.5c0.2-0.2,0-0.3-0.2-0.6c-0.3-0.4-0.7-0.8-1-1.2c-0.3-0.4-0.5-0.8-1-1.4
			c-0.2-0.2-0.3-0.3-0.4-0.2c-0.5,0.4,0.8,1.2,0,1.8c-0.2,0.1-0.7,0.3-1.3,0.3l-2.3,0.1c-0.5,0-0.8,0.1-0.9,0c0-0.1,0.1-0.3,0.2-0.8
			l1-2.5c0.2-0.4,0.3-0.7,0.6-0.9c0.5-0.4,0.9,0.4,1.3,0.1c0.2-0.2,0.1-0.3-0.1-0.5c-0.3-0.4-0.6-0.8-1.2-1.4
			c-0.5-0.6-0.6-1-0.9-1.3c-0.4-0.5-0.5-0.6-0.7-0.5c-0.3,0.2,0.3,0.8-0.4,2.6l-1.6,4.3c-0.2,0.5-0.2,0.7-0.5,0.9
			c-0.2,0.1-0.6,0.1-1,0.1l-3.3,0.1c-2.1,0.1-2.4-0.9-2.7-0.7c-0.2,0.1-0.2,0.2,0,0.5c0.5,0.6,0.8,1,1.1,1.3
			c0.3,0.4,0.5,0.8,0.9,1.4c0,0,0.2,0.3,0.4,0.1c0.3-0.3-0.6-1.1,0.1-1.6c0.3-0.2,0.5-0.3,1.4-0.3l2.3-0.1c0.2,0,0.5-0.1,0.6,0
			s0,0.3-0.1,0.4l-1.3,2.9c-0.1,0.2-0.2,0.4-0.4,0.5c-0.5,0.4-1-0.4-1.3-0.1c-0.1,0.1-0.2,0.1,0,0.4c0.3,0.3,0.5,0.6,1.3,1.6
			c0.7,1,1,1.4,1.2,1.7c0.2,0.2,0.3,0.2,0.4,0.1c0.5-0.4-0.6-0.6,0.6-3.5l1.3-3.1c0.1-0.3,0.3-0.9,0.5-1c0.1-0.1,0.5-0.1,0.8-0.1
			L100.5,230.5z"/>
		<path class="st0" d="M148.7,67.7c2,0,3.6,1.6,3.6,3.6s-1.6,3.6-3.6,3.6s-3.6-1.6-3.6-3.6S146.7,67.7,148.7,67.7z"/>
		<path class="st0" d="M116.3,74.9c2,0,3.6,1.6,3.6,3.6s-1.6,3.6-3.6,3.6s-3.6-1.6-3.6-3.6S114.3,74.9,116.3,74.9z"/>
		<path class="st1" d="M222.8,88.5c-0.9,2.1-1.8,2.4-5.2,1.8c-2.8-0.5-2.8-4.2-2.6-5.8l-4.8-1.4c-2.1,4.1-4.5,4.3-6.4,4.1
			c-3.4-0.5-3.6-6.2-3.4-9.5l-4.9-1c-2.4,6.7-3.5,7.8-6.5,8.3c-1.7,0.3-2.9-0.8-3.6-1.4c-1-1.1-1.7-2.7-1.8-4.2
			c0.1-0.7,0.2-1.5,0.2-2.2l-5-0.8c-0.2,0.8-0.3,1.7-0.3,2.6c-0.4,2-1.4,3.7-2.5,4.5c-0.8,0.6-1.7,0.8-2.6,0.5
			c-2.4-0.6-5.6-2.6-5.6-12h-5.1c0,0.3,0,0.6,0,0.8l0,0c0,6.8-1.7,10.2-5.6,11.2c-1,0.3-1.9,0-2.8-0.7c-1.2-1-2.2-2.7-2.5-4.6
			c0-0.7,0-1.5-0.2-2.2l-5,0.4c0,0.7,0,1.4,0.1,2.1c-0.1,1.8-0.9,3.6-2,4.7c-1,1-2,1.3-3.2,1.1c-3-0.6-4.6-1.9-6.9-8.6l-4.9,1
			c0.2,3.5,0.1,9.5-3.1,9.9c-1.8,0.2-3.9-0.1-6.3-4.8l-4.8,1.4c0.3,3.2-0.9,6.3-2.7,6.8c-3.2,0.8-3.2,0.8-4.7-1.8l-0.4-0.7l-4.4,2.6
			l0.4,0.7c2.3,4,4.1,5.7,10.3,4.2c2.8-0.7,4.7-2.8,5.7-5.5c2.2,1.9,4.7,2.6,7.6,2.3c2.5-0.3,5.3-1.8,6.6-6.1c1.6,2,3.7,3.2,6.7,3.7
			c2.8,0.5,5.5-0.4,7.7-2.5c0.5-0.5,0.9-1,1.3-1.6c0.5,0.6,1,1.1,1.5,1.5c2.1,1.7,4.7,2.3,7.3,1.6c3.4-0.9,5.5-2.8,6.9-5
			c1.6,2.6,3.8,4.2,6.7,5c2.5,0.7,4.9,0.2,7-1.3c0.6-0.5,1.2-1.1,1.8-1.7c0.3,0.4,0.6,0.7,0.9,1.1c2.2,2.5,5.2,3.5,8.2,3
			s4.9-1.7,6.4-3.6c1.6,4.3,4.6,5.5,6.8,5.8s5,0.1,7.6-1.8c1.1,2.6,3.2,4.4,6,4.9c2.6,0.5,8.1,1.4,10.8-4.8L222.8,88.5z"/>
		<path class="st0" d="M181.6,67.9c2,0,3.6,1.6,3.6,3.6s-1.6,3.6-3.6,3.6s-3.6-1.6-3.6-3.6C178,69.5,179.6,67.9,181.6,67.9z"/>
		<path class="st0" d="M214.4,74.5c2,0,3.6,1.6,3.6,3.6s-1.6,3.6-3.6,3.6s-3.6-1.6-3.6-3.6C210.8,76.1,212.4,74.5,214.4,74.5z"/>
		<polygon class="st0" points="116.4,106.2 120.2,102.6 124.9,104.3 121.3,108 		"/>
		<path class="st1" d="M108,103.4c21.7-6.9,34.6-8.9,57.6-8.9c23.2,0,36.2,2,57.8,8.9c0,0,1.8,0.5,2.5-1.7c0.7-2.1-1-2.9-1-2.9
			c-21.9-7-35.7-9.1-59.2-9.1c-23.3,0-37.1,2.1-59.1,9.1c0,0-1.7,0.7-1.1,2.9C106.1,103.8,108,103.4,108,103.4z"/>
		<path class="st1" d="M112.6,117.4c2-0.4,4-0.9,6.1-1.4c10.8-2.5,24.1-5.5,46.7-5.6c18.6,0,31.3,2.5,47.3,5.7l5.9,1.2
			c0,0,1.8,0.3,2.2-1.9s-1.3-2.8-1.3-2.8l-5.9-1.2c-16.3-3.3-29.1-5.9-48.2-5.8c-23.1,0-36.7,3.2-47.7,5.7c-2.1,0.5-4.1,0.9-6,1.3
			c0,0-1.7,0.7-1.3,2.8C110.7,117.6,112.6,117.4,112.6,117.4z"/>
		<polygon class="st0" points="145.7,100.7 149.9,97.6 154.7,100.1 150.3,103.1 		"/>
		<path class="st0" d="M223.4,109.6c0.9-2.3-0.5-5.4-0.5-5.4c-1.7-0.5-5-0.2-5.8,2c-0.9,2.4,0,4.4,2.7,6.1
			C219.9,112.2,221.6,111.6,223.4,109.6z"/>
		<polygon class="st0" points="214.5,106.2 210.7,102.6 206,104.3 209.6,108 		"/>
		<polygon class="st0" points="185.1,100.7 180.8,97.6 176,100.1 180.4,103.1 		"/>
		<path class="st0" d="M202.8,103.4c0.4-2.5-2.4-4.4-6.2-5s-7.2,0.3-7.6,2.8c-0.4,2.5,2.3,4.4,6.1,5
			C199,106.8,202.4,105.9,202.8,103.4z"/>
		<path class="st0" d="M250.2,115.9c0.7-0.4,1.2-0.4,1.5,0.2c1.3,2.1-1,3.6-1.4,3.9c-0.4,0.2-2.3,1.2-3.3-0.4
			c-0.2-0.3-0.2-0.6-0.3-0.7c-0.1-0.2-0.3-0.1-0.4,0c-0.1,0-0.4,0.3,0.4,1.7c1,1.6,2.9,2.1,5,0.9c2.3-1.4,2.1-3.6,1-5.3
			c-0.6-1-1.2-1.9-1.3-2.1c-0.6-1-1-1.8-1.1-1.9c-0.2-0.3-0.4-0.2-0.5-0.2c-0.6,0.4,0.9,1.4-0.8,2.4l-7.1,4.3
			c-2,1.2-2.3-0.1-2.8,0.2c-0.3,0.2-0.1,0.4-0.1,0.4c0,0.1,0.7,1.1,1.1,1.6c0.2,0.3,0.5,0.9,1,1.9c0.1,0.2,0.2,0.3,0.4,0.2
			c0.6-0.3-0.9-1.3,1.1-2.5L250.2,115.9z"/>
		<path class="st0" d="M265.2,155.6c0.3,0,0.7-0.1,0.7-0.3c0-0.3-0.6-0.2-0.6-0.6c-0.1-0.4,1-1.9,0.6-4.1c-0.6-4-4.9-5-8-4.6
			c-1.5,0.2-6.1,1.6-5.5,6.2c0.2,1.7,1.3,3.3,2.5,4.7c0.1,0.1,0.2,0.1,0.5,0.1s0.8-0.2,1.5-0.3c2.4-0.3,1.5,0.9,2.3,0.8
			c0.2,0,0.2-0.1,0.2-0.2c-0.1-0.6-0.2-1.1-0.3-1.7c-0.1-0.7-0.1-1.5-0.2-2.2c0-0.3,0-0.8-0.5-0.7c-0.7,0.1,0.8,1.8-2.1,2.2
			c-1.1,0.2-2.6,0.3-3-2.5c-0.4-2.5,2.9-4.1,5.4-4.5c4.7-0.7,6.1,1.2,6.3,2.7c0.6,4.1-3.5,4.7-3.4,5s0.1,0.4,0.4,0.3L265.2,155.6z"
			/>
		<path class="st0" d="M263.7,173.3c1.3,0.1,1.3,0.2,1.1,2.1c-0.3,3-2.4,1.6-2.4,2.3c0,0.4,0.6,0.3,0.8,0.4l1.9,0.1
			c0.2,0,0.4-0.1,0.4-0.3c0.1-1.4,0.2-2.5,0.3-3.6c0.2-2.4,0.4-3.5,0.5-4.2c0-0.2-0.1-0.4-0.3-0.4c-0.7-0.1-0.3,1.8-2,1.6l-8.7-0.9
			c-2.3-0.2-1.1-1.3-2-1.4c-0.1,0-0.2,0.1-0.2,0.3c-0.1,0.9-0.1,1.5-0.1,2c-0.1,0.8-0.3,1.7-0.5,4.1c-0.1,1.3,1.3,2.4,2.8,2.5
			c0.3,0,0.4-0.1,0.4-0.1c0.1-0.6-2.4-0.6-2-4.5c0.1-1.1,0.8-1,1.9-0.9l2.4,0.2c1.1,0.1,1.3,0.1,1.2,0.8l-0.1,1.2
			c-0.2,1.6-2.1,1-2.2,1.5c0,0.4,0.6,0.4,0.9,0.4l3.3,0.2c0.5,0,0.5-0.1,0.5-0.3c0-0.3-1.7-0.5-1.5-1.9l0.1-1c0.1-0.7,0.2-0.7,1-0.6
			L263.7,173.3z"/>
		<path class="st0" d="M253.1,178.8c-0.5,0-0.6-0.1-0.8,0.3c-0.4,0.8-1,1.6-1.2,2.5c-0.4,2,1,3.8,3.4,4.3c2.3,0.5,3.3-0.4,4.5-1.9
			c1.5-1.9,1.9-2.7,3.1-2.4c1.2,0.2,1.8,1.1,1.6,2.1c-0.5,2.7-4,2.2-4,2.6c-0.1,0.3,0.1,0.4,0.6,0.5l2.5,0.3
			c0.4,0.1,0.7,0.2,0.7-0.1c0-0.2-0.2-0.6-0.1-0.8c0.1-0.5,0.9-1,1.2-2.3c0.4-1.8-0.9-3.4-3.1-3.8c-1.9-0.4-2.8,0.4-3.8,1.6
			c-1.8,2.3-2.2,3.2-3.8,2.9c-1.5-0.3-2.2-1.4-1.9-2.6c0.3-1.7,2.2-2.4,4.1-2.5c0.2,0,0.4,0,0.5-0.3c0.1-0.4-0.5-0.3-0.7-0.3
			L253.1,178.8z"/>
		<path class="st0" d="M251.4,186.8c-0.5-0.1-0.6-0.1-0.8,0.2c-0.5,0.8-1.2,1.4-1.5,2.4c-0.6,2,0.5,3.9,2.8,4.6
			c2.3,0.7,3.4,0,4.7-1.4c1.7-1.7,2.2-2.4,3.4-2c1.2,0.4,1.7,1.3,1.3,2.3c-0.8,2.6-4.2,1.7-4.4,2.1c-0.1,0.3,0.1,0.4,0.5,0.5
			l2.4,0.6c0.4,0.1,0.7,0.2,0.7,0c0.1-0.2-0.1-0.7,0-0.9c0.1-0.4,1-0.9,1.5-2.1c0.6-1.8-0.5-3.5-2.6-4.1c-1.9-0.6-2.9,0.1-3.9,1.1
			c-2.1,2-2.6,2.9-4.1,2.4c-1.4-0.5-2-1.6-1.6-2.8c0.5-1.7,2.5-2.1,4.3-2c0.2,0,0.4,0,0.5-0.2c0.1-0.4-0.4-0.4-0.7-0.4L251.4,186.8z
			"/>
		<path class="st0" d="M257.2,200.3c1.7,0.6,0.6,1.5,1.2,1.7c0.2,0.1,0.3,0,0.4-0.4c0.3-0.8,0.4-1.4,0.6-1.9s0.5-1.1,0.7-1.7
			c0-0.1,0.2-0.5-0.1-0.6c-0.6-0.2-0.7,1.6-2.3,1l-8.4-3.1c-1.7-0.6-0.8-1.5-1.4-1.7c-0.1,0-0.2,0-0.3,0.1c-0.1,0.4-0.3,1-0.5,1.7
			c-0.4,1.2-0.7,1.7-0.9,2.2c-0.1,0.3-0.1,0.5,0.1,0.6c0.6,0.2,0.4-1.8,2.5-1L257.2,200.3z"/>
		<path class="st0" d="M251.9,200.1c-3.6-1.3-6.7-0.2-7.8,2.8c-1.7,4.8,2.3,7.2,4.7,8.1c3.7,1.4,6.8,0,7.8-3
			C257.9,204.5,255.7,201.5,251.9,200.1z M256,207.4c-0.7,1.9-3.4,3-7.3,1.6c-2.9-1.1-5-2.8-4.1-5.3c0.9-2.7,4.9-2.3,7.5-1.3
			C254.7,203.2,256.9,204.9,256,207.4z"/>
		<path class="st1" d="M114.8,241.2c-0.5-1.5-0.8-2.5-1.9-4.2c-1.8-3-2.5-3.9-5.6-7.7c-0.2-0.2-0.4-0.5-0.6-0.7l3.1-3.4l0.3-0.4
			l0.7-0.5l-0.1-0.2l0,0l0,0l-1.6-2.4c-1.9-2.8-3.4-5.1-5-8.7c-2.6-5.6-3.6-8.8-5.1-14.4h-0.1v-0.1L97,199l-4.7,1.2
			c-7.6-19.6-9.8-36.9-6.4-52.4l10.9,4.7l1.3,0.5l0.4-1.3l5.1-19.4l0.5-0.6l-0.3-0.1l0,0l0,0l-1-0.5l-4.8-2.5l2-9.2l0.7-0.8
			l-1.1-0.7l-21.1-13.5l-0.6,1l-1-0.7c-11.5,16.2-18.1,36.5-18.7,57c-0.6,21.4,5.3,41.9,16.8,59.2l0.6,1l1-0.6l6.7-4.1
			c0.5,1,1.3,2.8,2.1,4.1c0.3,0.6,0.8,1.2,1.2,1.8l-6.1,4l0.7,1l-1,0.6l0.7,1.1c4.2,7.1,13.9,23.6,23.8,20.3c2.9-1,4.7-2.5,6.5-3.9
			c1.1-0.9,2.2-1.9,3.7-2.7l0.8-0.5l-0.3-0.9L114.8,241.2z M105.3,226.6c-1.4-1.9-2.8-4-4.1-6.2l5.9,4.1L105.3,226.6z M95.6,201.8
			l-1,4.1c-0.5-1.2-1-2.3-1.5-3.4L95.6,201.8z M96.5,149.7l-10-4.3c0.2-0.7,0.4-1.4,0.6-2.1l6.3,0.7l0.7,0.1l0.4-0.5l5.4-6.8
			L96.5,149.7z M87.8,141c2-6,4.9-11.7,8.7-17.1l-3.9,17.7L87.8,141z M100.3,132.5l-4.5,5.6l1.6-7.2L100.3,132.5z M76.3,218.6
			c-10.9-16.7-16.4-36.4-15.8-56.9c0.5-19.7,6.8-39.1,17.6-54.8l19,12.2c-18.8,23.9-20.1,53.1-4,89.2L76.3,218.6z M85.3,215.9
			l10-6.1l0.9-0.6l-0.1-0.1h0.1l1.5-6.1c1.1,3.6,2.2,6.5,4.1,10.8c1.2,2.6,2.3,4.5,3.5,6.4l-6.8-4.7v0.1l-0.2-0.4l-1.1,0.7l-8.8,5.7
			c-0.4-0.5-0.9-1.2-1.2-1.7C86.6,218.8,85.6,216.8,85.3,215.9z M109.4,244.4c-1.7,1.4-3.2,2.7-5.7,3.5c-8,2.7-17.4-13.2-20.9-19.2
			l-0.1-0.2l14.9-9.7c2.3,4.1,5.4,8.8,8,11.9c3.1,3.8,3.6,4.6,5.4,7.5c0.9,1.5,1.2,2.3,1.7,3.7l0,0
			C111.3,242.8,110.3,243.6,109.4,244.4z M272.6,161.6c-0.5-20.5-7.2-40.8-18.7-57l-1,0.7l-0.6-1l-21.1,13.5l-1.1,0.7l0.7,0.8l2,9.2
			L228,131l-1,0.5h-0.1l0,0l-0.3,0.1l0.4,0.6l5.1,19.4l0.4,1.3l1.3-0.5l10.9-4.7c3.4,15.5,1.3,32.9-6.4,52.4l-4.7-1.2l-1.9-0.5v0.1
			h-0.1c-1.5,5.6-2.5,8.8-5.1,14.4c-1.7,3.7-3.1,5.8-5.1,8.8l-1.6,2.5l0.1,0.1l-0.1,0.1l1,1.1l2.9,3.2c-0.2,0.2-0.3,0.4-0.5,0.6
			c-2.4,3-3,3.6-4.9,5.3l-1.5,1.4c-2.1,1.6-3.3,3.8-3.1,5.5c0.1,1,0.8,1.8,1.8,2.2c2.4,1,3.1,1.2,3.7,1.3c0.3,0.1,0.6,0.2,1.2,0.4
			h0.1h0.1l2.5,0.4c3.9,0.6,4.5,0.6,9.4-0.8c9.1-2.7,14.4-14.5,14.6-15.3l-1.2-0.2l0.6-1l-4.3-2.6c0.9-1.3,2.2-3.1,3.1-4.6
			c0.8-1.3,1.7-3.1,2.1-4.1l6.7,4l1,0.6l0.6-1C267.4,203.5,273.2,183,272.6,161.6z M233.3,131l1.6,7.2l-4.5-5.6L233.3,131z
			 M234.2,123.9c3.8,5.4,6.7,11.1,8.7,17.1l-4.8,0.6L234.2,123.9z M234.2,149.7l-3.4-12.8l5.4,6.8l0.4,0.5l0.7-0.1l6.3-0.7
			c0.2,0.7,0.4,1.4,0.6,2.1L234.2,149.7z M237.5,202.5c-0.5,1.1-0.9,2.3-1.5,3.4l-1-4.1L237.5,202.5z M223.7,225l4.5-2.5
			c-1,1.7-1.9,3-2.9,4.3L223.7,225z M244.5,230.1c-1.4,3-6,10.8-12.6,12.7c-4.5,1.3-4.8,1.3-8.3,0.7l-2.4-0.4
			c-0.6-0.2-0.9-0.3-1.3-0.4c-0.5-0.1-1.1-0.3-3.4-1.2c-0.3-0.1-0.3-0.2-0.3-0.3c-0.1-0.7,0.7-2.2,2.3-3.3h0.1l0.1-0.1l1.5-1.4
			c1.9-1.8,2.5-2.4,5.1-5.6c2.3-2.8,3.8-4.9,6.1-8.9L244.5,230.1z M243.4,220.1c-0.9,1.5-2.2,3.4-3.1,4.6l-8.9-5.4l-1-0.6v-0.1l0,0
			l0,0l0,0l-6.1,3.4c1.6-2.4,3-4.6,4.5-8c2-4.3,3.1-7.2,4.1-10.8l1.5,6.1h0.1l-0.1,0.1l0.9,0.6l10,6.1
			C245.1,216.8,244.2,218.8,243.4,220.1z M254.4,218.6l-16.8-10.2c16.1-36.1,14.8-65.3-4-89.2l19.1-12.2
			c10.8,15.7,17.1,35.1,17.6,54.8C270.8,182.2,265.3,201.9,254.4,218.6z"/>
		<path class="st0" d="M172.6,100c0-2.6-3-4-6.8-4.1c-3.9-0.1-7.1,1.3-7.1,3.9c0,2.6,2.9,4,6.7,4.1
			C169.3,103.9,172.6,102.5,172.6,100z"/>
		<path class="st0" d="M127.7,103.4c-0.4-2.5,2.4-4.4,6.2-5s7.2,0.3,7.6,2.8c0.4,2.5-2.3,4.4-6.1,5
			C131.5,106.8,128.1,105.9,127.7,103.4z"/>
		<path class="st0" d="M83.2,201.4c1.9-0.9,1.9,1.1,2.6,0.8c0.3-0.2,0.2-0.4,0.1-0.7c-0.3-0.6-0.6-1-1-2c-0.5-1-0.6-1.5-0.9-2
			c-0.2-0.4-0.3-0.7-0.7-0.5c-0.4,0.2,0.9,1.8-1,2.8l-7.2,3.5c-0.8,0.4-0.9,0.3-1.2-0.3l-0.6-1.2c-0.9-1.6,1.1-2,0.8-2.6
			c-0.2-0.4-0.7,0.1-0.9,0.2l-1.4,0.9c-0.2,0.1-0.4,0.2-0.3,0.4c0.7,1.3,1.2,2.3,2.2,4.4s1.4,3.1,2.1,4.4c0.1,0.2,0.3,0.1,0.5,0
			l2.2-0.8c0.2-0.1,0.6-0.2,0.5-0.5c-0.3-0.6-2.2,0.8-3-0.8l-0.6-1.2c-0.3-0.6-0.3-0.8,0.5-1.1L83.2,201.4z"/>
		<path class="st0" d="M70.7,192.9c-1.2,0.3-1.2,0.3-1.8-1.6c-0.8-3,1.5-2.3,1.3-3.1c-0.1-0.4-0.6-0.1-0.9,0l-1.7,0.5
			c-0.2,0-0.3,0.2-0.2,0.4c0.4,1.3,0.8,2.4,1.1,3.5c0.7,2.4,0.9,3.5,1.1,4.1c0.1,0.2,0.2,0.3,0.4,0.3c0.7-0.2-0.4-1.8,1.2-2.2l8-2.3
			c2.1-0.6,1.5,0.8,2.3,0.6c0.1,0,0.2-0.1,0.1-0.3c-0.2-0.8-0.5-1.5-0.6-2c-0.2-0.8-0.4-1.7-1.1-4c-0.4-1.3-2-1.8-3.3-1.4
			c-0.3,0.1-0.3,0.2-0.3,0.3c0.2,0.6,2.3-0.3,3.4,3.5c0.3,1.1-0.3,1.2-1.4,1.5l-2.2,0.6c-1,0.3-1.2,0.4-1.4-0.3l-0.3-1.1
			c-0.5-1.6,1.5-1.7,1.3-2.2c-0.1-0.4-0.7-0.1-0.9,0l-3,1c-0.5,0.1-0.4,0.3-0.3,0.4c0.1,0.3,1.7-0.1,2,1.2l0.3,1
			c0.2,0.7,0.1,0.7-0.7,0.9L70.7,192.9z"/>
		<path class="st0" d="M70.3,184.3c2-0.3,3.3-1.8,3-3.6c-0.3-1.6-1.9-2.7-2.3-2.7c-0.2,0-0.2,0.1-0.2,0.2c0,0.3,1.1,0.9,1.2,1.8
			c0.2,1.5-1.5,2.6-3.2,2.9c-1.1,0.2-2.4,0.1-2.6-1.1c-0.1-0.8,0.4-1.2,1.2-1.5c0.1,0,0.3-0.1,0.2-0.2c0-0.3-0.9-1.1-1.2-1
			c-1,0.2-1.1,1.7-1,2.2C65.9,183.4,68,184.7,70.3,184.3z"/>
		<path class="st0" d="M66.5,164.1c-1.7,0-1-1.2-1.7-1.2c-0.2,0-0.2,0.1-0.2,0.3c0,0.7,0.1,1.3,0.1,2.1c0,1-0.1,1.4-0.1,2.1
			c0,0.2,0,0.4,0.3,0.4c0.5,0-0.1-1.8,1.8-1.8h2.5c0.4,0,0.8,0.1,0.8,0.6v4.8c0,0.3-0.2,0.4-0.7,0.4h-2.8c-1.6,0-1.1-1.2-1.6-1.2
			c-0.2,0-0.3,0.1-0.3,0.4c0,0.5,0.1,1.1,0.1,2.1c0,0.8-0.1,1.3-0.1,1.8c0,0.3,0,0.8,0.3,0.8c0.7,0-0.1-1.8,1.8-1.8h7.9
			c2.2,0,1.6,1.4,2.3,1.4c0.2,0,0.3-0.2,0.3-0.4c0-0.8-0.1-1.5-0.1-2.1c0-1.1,0.1-1.7,0.1-2.3c0-0.5-0.1-0.5-0.2-0.5
			c-0.6,0,0,2-2.2,2H72c-0.8,0-1-0.1-1-0.8v-4.5c0-0.7,0.2-0.7,0.9-0.7h3.2c1.7,0,1.2,1.2,1.9,1.2c0.1,0,0.2-0.1,0.2-0.3
			c0-0.8-0.1-1.4-0.1-2c0-0.7,0.1-1.6,0.1-2.1c0-0.2,0-0.3-0.2-0.3c-0.7,0,0,1.7-2.3,1.7L66.5,164.1L66.5,164.1z"/>
		<path class="st0" d="M75,159.4c1.8,0.2,1.3,1.7,2,1.8c0.3,0,0.2-0.3,0.3-0.5c0-0.4,0-0.9,0.1-1.4c0.1-0.6,0.2-1.1,0.3-1.9
			c0-0.2,0.1-0.6-0.2-0.6c-0.8-0.1,0.2,2.1-3.2,1.7l-6-0.6c-0.2,0-0.3-0.1-0.3-0.2c0-0.1,0.1-0.2,0.3-0.3l10-6.7
			c0.1-0.1,0.3-0.2,0.3-0.4s-0.1-0.2-0.5-0.2l-9.9-1c-1.9-0.2-1.3-1.5-1.8-1.6c-0.1,0-0.2,0-0.3,0.3c0,0.1,0,0.7-0.1,1.7
			c-0.1,1.1-0.2,1.6-0.2,1.8s0.1,0.3,0.3,0.3c0.6,0.1,0.5-1.9,2.1-1.8l5.9,0.6c0.4,0,0.6,0.1,0.6,0.2c0,0.1-0.2,0.3-0.5,0.4
			l-8.4,5.6c-0.4,0.3-0.5,0.1-0.5,0.6c-0.1,0.8-0.1,1.3-0.1,1.7c0,0.3-0.1,0.6-0.2,0.9c0,0.2,0.1,0.3,0.3,0.3
			c0.8,0.1-0.1-1.8,3.3-1.5L75,159.4z"/>
		<path class="st0" d="M69.2,141.2c-1.7-0.4-0.8-1.4-1.4-1.5c-0.2,0-0.3,0-0.4,0.5c-0.2,0.9-0.2,1.5-0.4,2c-0.1,0.5-0.3,1.1-0.4,1.8
			c0,0.1-0.2,0.5,0.1,0.6c0.6,0.1,0.5-1.7,2.1-1.4l8.3,1.8c1.6,0.3,1,1.4,1.6,1.5c0.1,0,0.2,0,0.2-0.1c0.1-0.4,0.2-1.1,0.3-1.8
			c0.3-1.2,0.5-1.8,0.6-2.4c0.1-0.4,0-0.5-0.2-0.6c-0.6-0.1-0.1,1.8-2.3,1.3L69.2,141.2z"/>
		<path class="st0" d="M72.9,126.5c-0.1,0-0.1,0.1-0.2,0.1c-0.1,0.2,0.5,0.4,0.3,0.7c-0.2,0.5-1.6,1.2-2.3,3
			c-1.4,3.8,1.6,6.7,4.4,7.8c1.3,0.5,5.8,1.5,7.5-2.9c1.2-3.2-0.7-5.7-1.3-6c-0.1,0-0.2,0.1-0.3,0.1c-0.2,0.4,1.6,2.2,0.7,4.5
			c-1.1,2.8-4.8,2.8-7.2,1.9c-2.2-0.9-4.1-3-3.2-5.1c0.7-1.7,2.6-2.5,4.5-2.6c0.3,0,0.6,0,0.7-0.2c0.1-0.3-0.3-0.3-0.5-0.4
			L72.9,126.5z"/>
		<path class="st0" d="M112.1,282.5c0.1-1.2,0.1-1.3-0.2-1.5c-0.4-0.2-0.9,0.3-1.4,0.8l-19.2,16.1c-1.8,1.5-3.3,0.4-3.7,1.2
			c-0.2,0.4,0.3,0.6,0.8,0.9c0.9,0.5,1.9,0.8,2.9,1.3s1.9,1.2,3,1.7c0.7,0.3,1.6,1.1,1.9,0.4c0.5-0.9-3.3-2.1-2-4.6
			c0.4-0.8,1.5-1.8,2-2.3c1.9-1.9,2.6-1.7,3.2-1.4l6.3,3.2c0.8,0.4,0.8,0.8,0.5,4c-0.1,1.1-0.2,1.8-0.6,2.6c-1,2.1-3.1,0.5-3.6,1.5
			c-0.2,0.5,0.2,0.6,0.8,0.9c0.9,0.5,2.2,1,3.6,1.7c2.1,1.1,2.9,1.7,4.1,2.3c0.9,0.4,1.1,0.7,1.4,0.1c0.6-1.1-1.8-0.7-1.7-3.6
			L112.1,282.5z M107.1,294.8c0,0.5,0,1-0.3,1.4c-0.2,0.3-0.6,0.1-1.2-0.2l-4.4-2.2c-0.6-0.3-1-0.5-0.9-0.8c0.2-0.5,0.6-0.7,1-1.1
			l5.5-4.7c0.3-0.3,0.5-0.3,0.6-0.2c0.2,0.1,0.1,0,0.1,0.4L107.1,294.8z"/>
		<path class="st0" d="M264.6,282.4c-0.8-1-1.4,1.4-4,0l-22-12.3c-1.1-0.6-1.2-0.6-1.4-0.4c-0.4,0.3-0.1,1,0.1,1.6l6.5,24.2
			c0.6,2.2-1,3.2-0.5,3.9c0.3,0.4,0.7,0,1.1-0.3c0.8-0.6,1.6-1.4,2.4-2.1c0.9-0.7,1.9-1.3,2.8-2c0.6-0.5,1.6-0.9,1.1-1.6
			c-0.6-0.8-3.3,2.1-5-0.1c-0.6-0.7-1-2.1-1.2-2.8c-0.9-2.5-0.4-3.1,0.1-3.5l5.6-4.4c0.7-0.6,1.1-0.4,3.9,1.2
			c0.9,0.6,1.6,0.9,2.1,1.6c1.4,1.8-0.8,3.1-0.2,3.9c0.3,0.4,0.6,0.1,1.2-0.3c0.8-0.6,1.8-1.6,3-2.6c1.9-1.5,2.7-2,3.8-2.7
			C264.7,283.1,265,282.9,264.6,282.4z M248,281.6l-3.9,3c-0.5,0.4-0.9,0.7-1.1,0.4c-0.3-0.4-0.4-0.9-0.5-1.4l-2-7
			c-0.1-0.4,0-0.6,0-0.6c0.2-0.1,0.1,0,0.4,0.1l6.6,3.6c0.4,0.2,0.9,0.4,1.2,0.9C248.9,280.9,248.5,281.2,248,281.6z"/>
		<path class="st0" d="M141.7,70.4l-0.8-3.5c-0.3-1.4-1.7-2.4-3.2-2.1l-3.1,0.7l-0.7-3.2c-0.3-1.4-1.7-2.4-3.2-2.1l-3.5,0.7
			c-1.4,0.3-2.4,1.7-2.1,3.2l0.7,3.2l-3,0.6c-1.4,0.3-2.4,1.7-2,3.2l0.7,3.5c0.3,1.4,1.7,2.4,3.2,2.1l14.8-3.1
			C141.1,73.3,142,71.8,141.7,70.4z M132.2,74.9c-2.1,0.4-4.1-0.9-4.6-3c-0.4-2.1,0.9-4.1,3-4.6c2.1-0.4,4.1,0.9,4.6,3
			C135.6,72.4,134.2,74.4,132.2,74.9z"/>
		<path class="st0" d="M172.8,61.1h-3.1v-3.3c0-1.5-1.2-2.7-2.7-2.7h-3.6c-1.5,0-2.7,1.2-2.7,2.7v3.3h-3.1c-1.5,0-2.7,1.2-2.7,2.7
			v3.6c0,1.5,1.2,2.7,2.7,2.7h15.1c1.5,0,2.7-1.2,2.7-2.7v-3.7C175.5,62.3,174.3,61.1,172.8,61.1z M165.3,69.8
			c-2.1,0-3.9-1.7-3.9-3.8s1.7-3.8,3.9-3.8c2.1,0,3.8,1.7,3.8,3.8C169.1,68,167.4,69.8,165.3,69.8z"/>
		<path class="st0" d="M207.8,68l-3-0.6l0.7-3.2c0.3-1.4-0.6-2.9-2.1-3.2l-3.5-0.7c-1.4-0.3-2.9,0.6-3.2,2.1l-0.7,3.2l-3.1-0.7
			c-1.4-0.3-2.9,0.6-3.2,2.1l-0.8,3.5c-0.3,1.4,0.6,2.9,2.1,3.2l14.9,3c1.4,0.3,2.9-0.6,3.2-2.1l0.7-3.5
			C210.1,69.7,209.2,68.3,207.8,68z M203.1,71.9c-0.4,2.1-2.5,3.4-4.6,3s-3.4-2.5-3-4.6s2.5-3.4,4.6-3
			C202.2,67.8,203.5,69.8,203.1,71.9z"/>
		<path class="st0" d="M233.3,74.6c-1.3-0.8-2.9-0.4-3.7,0.9l-1.7,2.8l-2.7-1.6c-1.3-0.8-2.9-0.4-3.7,0.9l-1.9,3.1
			c-0.8,1.3-0.3,2.9,0.9,3.7l5.8,3.7c1.3,0.8,2.9,0.4,3.7-0.9l1.9-3.1c0.8-1.3,1.3-2.4,1.3-2.4l3-5.2L233.3,74.6z M227.1,87.5
			c-1.8-1.1-2.4-3.5-1.3-5.3c1.1-1.8,3.5-2.4,5.3-1.3L227.1,87.5z"/>
		<path class="st0" d="M111,80.7l-1.9-3.1c-0.8-1.3-2.4-1.7-3.7-0.9l-2.7,1.6l-1.7-2.8c-0.8-1.3-2.4-1.7-3.7-0.9l-3.1,1.8l3,5.2
			c0,0,0.6,1.1,1.3,2.4l1.9,3.1c0.8,1.3,2.4,1.7,3.7,0.9l5.8-3.7C111.4,83.6,111.8,82,111,80.7z M103.6,87.5l-4-6.6
			c1.8-1.1,4.2-0.5,5.3,1.3C106,84.1,105.4,86.5,103.6,87.5z"/>
		<path class="st0" d="M78.1,72.6c-0.2-0.2-0.5-0.2-0.7,0s-0.2,0.6-0.4,0.8c-0.2,0.2-0.5,0.6-1.2,0.4c-5-1.5-10.9-3.2-11.1-3.3
			c-0.3-0.3,0-1.1,0-2.4c-0.1-1.3-0.6-2.9-2.4-4.4c-1.3-1.1-5.8-4.2-10.1,0.8c-1.3,1.5-2.6,3.2-3.9,4.7c-1.3,1.4-1.5,1.5-2.5,2.6
			c-0.2,0.3-0.3,0.6,0,0.9c1,0.9,2.2-2.5,5.4,0.3l12.6,11c3.6,3.1,1,4.2,2,5c0.6,0.5,0.9-0.1,1.1-0.3c1-1.1,1.9-2.4,3-3.6
			c0.8-1,1.5-1.5,1.8-1.9c0.5-0.5,0.4-0.9,0.2-1.1c-1-0.9-1.8,2.4-4.9-0.3l-5-4.3c-1-0.9-1.3-0.9-0.3-2.1c1-1.1,1.6-1.3,3.3-0.8
			l6.2,2c2.3,0.7,4.7,1.6,6.3-0.2C78.3,75.5,79,73.4,78.1,72.6z M60.7,73.8c-0.6,0.7-1.3,1.5-2.1,0.9l-5.8-5
			c-1.7-1.5-1.1-2.2-0.4-3.1c2-2.3,5.3-1.8,8.1,0.7C62.2,68.7,63.7,70.3,60.7,73.8z"/>
		<path class="st0" d="M138.8,42.3c-0.4-1.2-1.5,0.7-3.3-1.5l-15-19.6c-0.7-1-0.8-1-1.1-0.9c-0.4,0.1-0.3,0.9-0.3,1.5l-0.7,24.4
			c-0.1,2.3-1.6,2.5-1.3,3.4c0.2,0.5,0.6,0.2,1,0.1c0.8-0.3,1.6-0.7,2.5-1s1.8-0.4,2.8-0.7c0.6-0.2,1.6-0.2,1.3-1
			c-0.3-1-3.3,0.6-4.1-2c-0.3-0.9-0.3-2.3-0.3-3.1c-0.1-2.6,0.5-2.9,0.9-3.1l5.7-1.8c0.8-0.2,1,0.1,2.9,2.6c0.6,0.9,1,1.5,1.3,2.3
			c0.7,2.2-1.5,2.5-1.1,3.5c0.2,0.5,0.5,0.3,1,0.1c0.8-0.3,1.9-0.8,3.1-1.2c1.9-0.6,2.7-0.7,3.8-1.1C138.7,42.9,139,42.9,138.8,42.3
			z M125.3,35.2l-3.9,1.3c-0.5,0.2-0.9,0.3-1,0c-0.2-0.5-0.1-1-0.1-1.4l0.1-7.1c0-0.4,0.1-0.5,0.2-0.5s0.1,0,0.3,0.2l4.5,5.8
			c0.3,0.4,0.6,0.7,0.8,1.2C126.3,35,125.9,35,125.3,35.2z"/>
		<path class="st0" d="M317.9,158.6c0-0.4-0.8-0.5-1.4-0.6l-23.8-5.9c-2.2-0.5-2.1-2.1-3-2c-0.5,0.1-0.4,0.5-0.3,1
			c0.1,0.9,0.3,1.8,0.4,2.7c0.1,1,0,1.9,0.1,2.9c0.1,0.6-0.1,1.6,0.7,1.5c1-0.1,0.1-3.3,2.8-3.6c0.9-0.1,2.3,0.2,3.1,0.3
			c2.6,0.4,2.8,1.1,2.8,1.6l0.6,6c0.1,0.8-0.3,1-3.2,2.3c-1,0.4-1.7,0.7-2.5,0.8c-2.3,0.2-2.1-2-3.2-1.9c-0.5,0.1-0.4,0.4-0.4,1
			c0.1,0.9,0.4,2,0.5,3.3c0.2,2,0.1,2.8,0.2,3.9c0.1,0.8,0,1.1,0.7,1c1.3-0.1-0.4-1.6,2.2-2.9l22.4-10.5
			C317.9,158.9,318,158.8,317.9,158.6z M310.4,158.4l-6.6,3.2c-0.4,0.2-0.8,0.4-1.4,0.5c-0.4,0-0.4-0.4-0.4-0.9l-0.4-4.1
			c-0.1-0.5-0.1-1,0.2-1c0.5-0.1,1,0.1,1.4,0.2l7,1.7c0.4,0.1,0.5,0.2,0.5,0.3C310.7,158.3,310.6,158.2,310.4,158.4z"/>
		<path class="st0" d="M263,137.4c-1.2-3.6-4.8-4.6-8.7-3.4c-3.6,1.2-5.4,4-4.4,7c1.6,4.8,6.2,4.3,8.7,3.5
			C262.4,143.3,263.9,140.4,263,137.4z M257.3,142.9c-3,1-5.6,0.9-6.5-1.7c-0.9-2.7,2.5-4.8,5.1-5.7c2.6-0.8,5.3-0.9,6.2,1.7
			C262.7,139.2,261.2,141.7,257.3,142.9z"/>
		<path class="st0" d="M257.8,125.4c-0.4-1-1-1.9-1.4-2.9c-0.4-0.9-0.4-1.1-0.7-1.7c-0.1-0.2-0.2-0.3-0.4-0.2
			c-0.6,0.3,0.7,1.6-1.1,2.4l-7.5,3.5c-2.1,1-2.1-0.4-2.7-0.2c-0.3,0.2-0.1,0.4-0.1,0.6c0.3,0.7,0.7,1.4,1.1,2.2
			c0.3,0.6,0.4,1,0.5,1.3c0.2,0.3,0.3,0.4,0.5,0.3c0.6-0.3-0.7-1.4,1.1-2.2l2.9-1.4c0.6-0.3,0.7-0.4,1,0.3s0.3,1-0.3,1.7l-2.1,2.5
			c-0.8,0.9-1.6,1.9-1.1,3c0.3,0.6,1.1,1.3,1.6,1.1c0.1-0.1,0.2-0.2,0.1-0.3c-0.1-0.1-0.2-0.2-0.3-0.4c-0.1-0.1-0.2-0.4,0-0.6
			c1.7-2,3.5-4.4,3.6-4.4c0.2-0.1,0.5,0.3,1.1,0.5s1.4,0.3,2.5-0.2C257,130,259.2,128.6,257.8,125.4z M254.9,128.8
			c-1,0.5-2,0.8-3-1.4c-0.2-0.4-0.4-1,0-1.2l3.4-1.6c1-0.5,1.2,0,1.5,0.5C257.4,126.6,256.5,128,254.9,128.8z"/>
		<path class="st0" d="M266.8,159.3c-0.7-0.1-0.2,1.7-2.3,1.5l-8.2-0.8c-2.4-0.2-1.6-1.5-2.2-1.5c-0.4,0-0.3,0.3-0.4,0.5
			c-0.1,0.8-0.1,1.6-0.2,2.4c-0.1,0.7-0.2,1.1-0.2,1.4c0,0.4,0.1,0.5,0.2,0.5c0.7,0.1,0.1-1.6,2.1-1.4l3.2,0.3
			c0.7,0.1,0.8,0,0.7,0.8c-0.1,0.8-0.3,1.1-1.1,1.3l-3.1,1c-1.1,0.4-2.4,0.8-2.5,2c-0.1,0.6,0.2,1.7,0.8,1.8c0.2,0,0.3-0.1,0.3-0.2
			c0-0.2-0.1-0.3-0.1-0.5c0-0.1,0-0.4,0.4-0.5c2.5-0.9,5.3-2,5.4-2c0.2,0,0.3,0.5,0.7,1c0.4,0.5,1,1,2.3,1.1c0.9,0.1,3.5,0,3.9-3.4
			c0.1-1.1,0.1-2.1,0.2-3.2c0.1-1,0.2-1.1,0.3-1.8C267,159.5,267,159.3,266.8,159.3z M265.8,164c-0.2,1.6-1.6,2.4-3.5,2.2
			c-1.1-0.1-2.2-0.3-1.9-2.7c0-0.5,0.1-1.1,0.6-1l3.8,0.4C265.9,162.9,265.8,163.4,265.8,164z"/>
		<path class="st0" d="M91,118.4c-0.5-0.3-0.3,0.8-1.7,0.6l-11.6-1.5c-0.6-0.1-0.6-0.1-0.7,0.1c-0.1,0.2,0.2,0.4,0.3,0.7l7.3,9
			c0.7,0.8,0.2,1.5,0.5,1.7c0.2,0.1,0.3-0.1,0.4-0.3c0.2-0.4,0.4-0.8,0.6-1.3c0.2-0.4,0.5-0.8,0.8-1.3c0.2-0.3,0.5-0.7,0.2-0.8
			c-0.4-0.2-1,1.4-2.1,0.8c-0.4-0.2-0.8-0.7-1.1-1c-0.8-0.9-0.7-1.2-0.6-1.5l1.5-2.8c0.2-0.4,0.4-0.3,1.9-0.1
			c0.5,0.1,0.8,0.1,1.2,0.3c0.9,0.5,0.2,1.4,0.7,1.7c0.2,0.1,0.3-0.1,0.4-0.3c0.2-0.4,0.4-1,0.8-1.6c0.5-0.9,0.8-1.3,1.1-1.8
			C91.2,118.6,91.3,118.5,91,118.4z M83.9,120.8l-1,1.9c-0.1,0.2-0.2,0.5-0.4,0.4c-0.2-0.1-0.3-0.3-0.5-0.5l-2.2-2.6
			c-0.1-0.2-0.1-0.2-0.1-0.3s0,0,0.2,0l3.4,0.4c0.2,0,0.4,0,0.7,0.2C84.2,120.3,84.1,120.5,83.9,120.8z"/>
		<path class="st1" d="M218.3,117.3h-1.2H108.7v59.9c0,26.4,1.6,48.3,21.9,68.9c11.9,12.1,20,17.7,33.5,26.9l0.8,0.6l1.5,1l1.4-1.1
			c4.1-3.4,7.8-6,11.3-8.6c7.2-5.2,13.4-9.7,21.4-19.1c19.3-23,22.7-40.4,22.7-68.5v-59.9L218.3,117.3L218.3,117.3z M196.7,242.6
			c-7.5,9-13.5,13.3-20.5,18.3c-3.6,2.6-5.9,4.1-10.1,7.6c-12.8-8.8-20.7-14.3-32.1-25.9c-19-19.4-20.5-39.4-20.5-65.6v-55.1h104.9
			V177C218.3,204.6,215.2,220.6,196.7,242.6z"/>
		<polygon class="st0" points="281,58.7 279.1,55.3 277.3,60.8 278.5,62.8 		"/>
		<path class="st0" d="M144.7,36.7c0.9,4.4-2.8,3.4-2.5,4.8c0.2,0.8,0.7,0.7,1.2,0.6c1.2-0.3,2.1-0.6,4.1-1s3-0.5,4.2-0.7
			c0.9-0.2,1.5-0.2,1.3-1.1c-0.2-1-3.8,0.9-4.8-3.7l-3.6-16.9c-0.4-1.8-0.1-2,1.1-2.3l2.5-0.5c3.4-0.9,3.3,3.5,4.5,3.2
			c0.8-0.2,0.1-1.6,0-2l-1.1-3.4c-0.1-0.4-0.2-0.9-0.7-0.8c-2.8,0.6-4.7,1.2-9.1,2.1c-4.4,0.9-6.4,1.2-9.2,1.8
			c-0.4,0.1-0.3,0.6-0.3,1l0.6,5c0,0.5,0,1.4,0.7,1.2c1.3-0.3-0.6-5,2.8-5.7l2.5-0.5c1.2-0.3,1.6-0.1,1.9,1.7L144.7,36.7z"/>
		<path class="st0" d="M104.7,50.8c2.1,4-1.8,4-1.1,5.3c0.4,0.7,0.8,0.5,1.3,0.2c1.1-0.6,1.9-1.2,3.7-2.1c1.8-0.9,2.8-1.3,3.9-1.8
			c0.8-0.4,1.4-0.6,1-1.4c-0.5-0.9-3.4,1.8-5.6-2.3l-8-15.3c-0.9-1.6-0.7-1.9,0.4-2.5l2.3-1.2c3-1.8,4.1,2.5,5.2,1.9
			c0.7-0.4-0.3-1.5-0.6-1.9l-1.9-3c-0.2-0.3-0.5-0.8-0.9-0.6c-2.5,1.3-4.3,2.4-8.2,4.5c-4,2.1-5.8,2.9-8.4,4.2c-0.4,0.2-0.2,0.7,0,1
			l1.9,4.7c0.2,0.5,0.4,1.3,1,1c1.2-0.6-1.9-4.6,1.2-6.2l2.3-1.2c1.1-0.6,1.5-0.6,2.3,1.1L104.7,50.8z"/>
		<polygon class="st0" points="150.2,287.8 146.3,288 150.5,291.9 152.8,291.7 		"/>
	</g>
</g>
</svg>
