<?xml version="1.0" encoding="utf-8"?>
<!-- Generator: Adobe Illustrator 25.1.0, SVG Export Plug-In . SVG Version: 6.00 Build 0)  -->
<svg version="1.1"
	 id="svg2" inkscape:output_extension="org.inkscape.output.svg.inkscape" inkscape:version="0.46" sodipodi:docname="Logo_UniMaastricht.svg" sodipodi:version="0.32" xmlns:cc="http://creativecommons.org/ns#" xmlns:dc="http://purl.org/dc/elements/1.1/" xmlns:inkscape="http://www.inkscape.org/namespaces/inkscape" xmlns:rdf="http://www.w3.org/1999/02/22-rdf-syntax-ns#" xmlns:sodipodi="http://sodipodi.sourceforge.net/DTD/sodipodi-0.dtd" xmlns:svg="http://www.w3.org/2000/svg"
	 xmlns="http://www.w3.org/2000/svg" xmlns:xlink="http://www.w3.org/1999/xlink" x="0px" y="0px" viewBox="0 0 454.9 454.9"
	 style="enable-background:new 0 0 454.9 454.9;" xml:space="preserve">
<style type="text/css">
	.st0{fill-rule:evenodd;clip-rule:evenodd;fill:#001C3D;}
	.st1{fill:#FFFFFF;}
</style>
<g id="layer1" transform="translate(-34.425901,-25.118285)">
	<path id="path3385" class="st0" d="M93.4,27.1v268.8l280.4-126.6L93.4,27.1z M430.3,209.2L149.9,351.4L430.3,478V209.2z"/>
	<path id="text3377" class="st1" d="M412.7,391.3h-27l-6.2-40.3c-0.4-2.8-0.8-6-1.2-9.5c-0.4-3.5-0.7-7.3-1-11.4
		c-0.7,3.9-2,8.9-4,14.8c-0.4,1.2-0.7,2.1-0.9,2.7l-14.4,43.7h-19.2l-14.4-43.7c-0.2-0.6-0.5-1.5-0.9-2.7c-2-5.9-3.3-10.8-4-14.7
		c-0.3,3.5-0.6,7-1,10.5c-0.4,3.5-0.8,6.9-1.4,10.3l-6.2,40.3h-26.8l16.3-93.2h28.5l16,48.1c0.1,0.3,0.3,0.9,0.6,1.7
		c1.5,4.3,2.4,8,2.8,11c0.2-1.7,0.6-3.5,1.1-5.5c0.5-2,1.3-4.4,2.2-7.3l16.1-47.9h28.6L412.7,391.3z"/>
	<path id="text3381" class="st1" d="M135,118.8h25.2v45.3c0,6.7,0.2,11.5,0.5,14.4c0.3,2.9,0.9,5.3,1.7,7.3c1,2.4,2.7,4.2,5.1,5.4
		c2.4,1.3,5.3,1.9,8.8,1.9c3.5,0,6.4-0.6,8.8-1.9c2.4-1.3,4.1-3.1,5.1-5.4c0.8-2,1.4-4.4,1.7-7.3c0.3-2.9,0.5-7.7,0.5-14.4v-6.4v-39
		h25.1v49.3c0,10.2-0.6,17.8-1.8,22.6c-1.2,4.9-3.3,9-6.2,12.4c-3.2,3.8-7.5,6.6-13,8.5c-5.5,1.9-12.2,2.8-20.1,2.8
		c-7.9,0-14.7-0.9-20.2-2.8c-5.5-1.9-9.9-4.7-13.1-8.5c-2.9-3.4-4.9-7.6-6.2-12.4c-1.2-4.9-1.9-12.4-1.9-22.6v-9.7V118.8z"/>
</g>
</svg>
