<?xml version="1.0" encoding="utf-8"?>
<!-- Generator: Adobe Illustrator 25.1.0, SVG Export Plug-In . SVG Version: 6.00 Build 0)  -->
<svg version="1.1" id="Layer_1" xmlns="http://www.w3.org/2000/svg" xmlns:xlink="http://www.w3.org/1999/xlink" x="0px" y="0px"
	 viewBox="0 0 537.3 537.3" style="enable-background:new 0 0 537.3 537.3;" xml:space="preserve">
<style type="text/css">
	.st0{clip-path:url(#SVGID_2_);}
	.st1{fill:#009172;}
	.st2{fill:#FFFFFF;}
</style>
<g>
	<g>
		<defs>
			<polyline id="SVGID_1_" points="536.3,341.8 536.3,195.5 1,195.5 1,341.8 1,341.8 			"/>
		</defs>
		<clipPath id="SVGID_2_">
			<use xlink:href="#SVGID_1_"  style="overflow:visible;"/>
		</clipPath>
		<g class="st0">
			<g transform="translate(70.882 619.29)">
				<path d="M46.1-336.5h11.6v-25.4h19.6v-9.2H57.7v-14.4h20.5v-9.2H46.1V-336.5z M86.5-336.5h11v-15.6c0-6.1,0-17.4,9.2-17.4
					c2.1,0,4,0.3,4.9,0.9V-380c-1.2-0.3-2.4-0.3-3.4-0.3c-6.7,0-11.3,6.7-11.6,10.7h-0.3v-9.8h-9.8
					C86.5-379.7,86.5-336.5,86.5-336.5z M120.1-367.7c3.7-2.8,8.6-4.6,13.2-4.6c6.4,0,9.8,2.4,9.8,9.2H137c-4.6,0-10.1,0.3-14.4,2.4
					c-4.3,2.1-7.3,5.8-7.3,12.2c0,8.3,7.3,12.9,15,12.9c5.2,0,10.7-2.8,13.2-7.3h0.3c0,1.2,0,4.3,0.6,6.4h9.8
					c-0.3-3.4-0.3-6.4-0.6-9.5c0-3.1-0.3-6.4-0.3-10.7v-5.5c0-12.5-5.5-18.1-18.4-18.1c-4.9,0-10.7,1.2-15,3.4L120.1-367.7
					L120.1-367.7z M125.6-349.1c0-6.7,7.3-7.3,12.5-7.3h4.9c0,3.4-0.6,6.4-2.4,8.9c-1.8,2.4-4.3,4-8,4
					C128.7-343.9,125.6-345.4,125.6-349.1 M201.9-379.7h-11v21.1c0,5.5-1.8,14.4-9.8,14.4c-7,0-7.3-7-7.3-12.2v-23h-11.3v26.9
					c0,9.8,4.3,16.8,14.7,16.8c5.8,0,10.7-2.8,14.1-6.7h0.3v5.8h10.7C201.9-336.5,201.9-379.7,201.9-379.7z M213.2-336.5h11v-21.1
					c0-5.5,1.8-14.4,9.8-14.4c7,0,7.3,7,7.3,12.2v23h11v-26.9c0-9.8-4.3-16.8-14.7-16.8c-5.8,0-10.7,1.8-14.1,6.7h-0.3v-5.8h-10.7
					C213.2-379.7,213.2-336.5,213.2-336.5z M264.3-336.5h11v-21.1c0-5.5,1.8-14.4,9.8-14.4c7,0,7.3,7,7.3,12.2v23h11v-26.9
					c0-9.8-4.3-16.8-14.7-16.8c-5.8,0-10.7,2.8-13.5,6.7H275v-25.4h-11C264.3-399.3,264.3-336.5,264.3-336.5z M310.8-357.9
					c0,12.2,8.3,22,22.3,22c14.4,0,22.3-9.8,22.3-22c0-14.1-9.8-22.6-22.3-22.6C320.3-380.6,310.8-372,310.8-357.9 M322.4-359.2
					c0-6.4,3.4-12.9,10.7-12.9s10.7,6.1,10.7,12.9c0,7-2.1,14.7-10.7,14.7S322.4-352.1,322.4-359.2 M366.8-336.5h11v-34.6h9.8v-8.3
					h-9.8v-5.2c0-3.4,1.2-6.7,4.9-6.7c2.4,0,4,0.9,4.9,1.5l0.9-9.2c-2.1-0.6-5.2-0.9-8.3-0.9c-8.9,0-13.8,6.1-13.8,14.7v6.1h-8.3
					v8.3h8.3L366.8-336.5L366.8-336.5z M402.3-362.2c0.6-5.8,3.7-10.1,9.8-10.1c6.1,0,8.9,4.6,9.2,10.1H402.3z M429-348.2
					c-4.3,2.4-8.9,4.3-14.4,4.3c-7,0-11.6-4-12.2-10.7H432c0-15-4.6-26-20.5-26c-13.5,0-19.9,10.1-19.9,22.6
					c0,14.1,8.3,22.3,22.3,22.3c6.1,0,10.7-1.2,14.7-3.4v-9.2H429z M440-336.5h11v-15.6c0-6.1,0-17.4,9.2-17.4c2.1,0,4,0.3,4.9,0.9
					V-380c-1.2-0.3-2.4-0.3-3.4-0.3c-6.7,0-11.3,6.7-11.6,10.7l0,0v-9.8h-9.8L440-336.5L440-336.5z"/>
			</g>
			<g transform="translate(199.75 608.42)">
				<path d="M336.4-296.1v4.6"/>
			</g>
			<g transform="translate(34.016 619.29)">
				<path class="st1" d="M-33-336.5c20.5-10.7,50.8-27.9,86.6-53v-8.6C22.1-377.2-10-360.7-33-349.7V-336.5z"/>
			</g>
			<g transform="translate(34.016 627.3)">
				<path class="st1" d="M-33-370c23-9.5,55.1-23.9,86.6-42.5v-4.3C24-401.8-7-392.6-33-386.8V-370z"/>
			</g>
			<g transform="translate(61.595 619.28)">
				<path class="st1" d="M26.3-336.5V-379c-19.9,16.5-39.2,31.2-55.7,42.5H26.3z"/>
			</g>
			<g transform="translate(40.348 619.28)">
				<path class="st1" d="M-19.3-336.5c15.6-9.2,34.6-21.4,53.3-35.5c4.3-3.4,8.9-6.7,13.5-10.1v-5.2c-27.9,20.5-56.3,38-78.7,50.8
					H-19.3z"/>
			</g>
			<g transform="translate(34.016 634.68)">
				<path class="st1" d="M-33-400.5c25.4-4.6,56.3-12.5,86.6-26.9v-4.6C23-418.3-7.6-412.5-33-410.3C-33-410.6-33-400.5-33-400.5z"
					/>
			</g>
			<g transform="translate(34.016 647)">
				<path class="st1" d="M-33-451.5v24.2c1.8,0,4-0.3,5.8-0.3c21.1-1.5,49.9-5.2,81.1-18.7v-5.2C53.7-451.5-33-451.5-33-451.5z"/>
			</g>
			<g transform="translate(34.016 639.28)">
				<path class="st2" d="M-33-419.5v4.6c25.7-2.1,56.3-8,86.6-21.7v-2.1c-31.2,13.5-60,17.1-81.1,18.7
					C-29-419.8-31.1-419.5-33-419.5"/>
			</g>
			<g transform="translate(34.016 632.72)">
				<path class="st2" d="M-33-392.3c26-5.8,56.9-15,86.6-29.7v-3.4C23.4-411-7.6-403-33-398.4V-392.3z"/>
			</g>
			<g transform="translate(34.016 623.46)">
				<path class="st2" d="M-33-354.1c23-11,55.1-27.5,86.6-48.4v-6.4C22.1-389.9-10-375.5-33-366V-354.1z"/>
			</g>
			<g transform="translate(40.348 619.28)">
				<path class="st2" d="M-19.3-336.5h11c16.5-11.3,36.1-25.7,55.7-42.5v-3.4c-4.6,3.4-9.2,7-13.5,10.1
					C15.3-357.9-3.7-346-19.3-336.5"/>
			</g>
			<g transform="translate(34.016 619.28)">
				<path class="st2" d="M-33-336.5h8c22.3-12.5,50.8-30,78.7-50.8v-2.1C17.8-364.3-12.5-347.2-33-336.5
					C-33-336.8-33-336.5-33-336.5z"/>
			</g>
		</g>
	</g>
	<g>
		<path d="M485.1,341.8h-5.9v-29h5.9V341.8z"/>
		<path d="M498.3,330.8v11h-5.9v-29h8c1.7,0,3.1,0.1,4.5,0.4c1.3,0.3,2.5,0.7,3.6,1.5s2,1.8,2.6,3s0.9,2.5,0.9,3.9
			c0,1.6-0.3,3-0.9,4.2s-1.4,2.2-2.4,2.9c-1,0.7-2.2,1.3-3.6,1.6c-1.4,0.3-2.8,0.5-4.4,0.5C500.2,330.9,499.4,330.9,498.3,330.8z
			 M498.3,326.3c1,0,2,0,2.8-0.1s1.6-0.3,2.3-0.6c0.7-0.3,1.2-0.7,1.7-1.4c0.4-0.6,0.7-1.5,0.7-2.5c0-1.4-0.4-2.4-1.1-3.1
			c-0.7-0.6-1.6-1-2.5-1.2s-2.3-0.2-3.8-0.3v9.2H498.3z"/>
		<path d="M527.4,341.8h-5.9v-24.2h-8.3v-4.8h22.6v4.8h-8.4L527.4,341.8L527.4,341.8z"/>
	</g>
</g>
</svg>
