<?xml version="1.0" encoding="utf-8"?>
<!-- Generator: Adobe Illustrator 25.1.0, SVG Export Plug-In . SVG Version: 6.00 Build 0)  -->
<svg version="1.1"
	 id="svg2" xmlns:cc="http://creativecommons.org/ns#" xmlns:dc="http://purl.org/dc/elements/1.1/" xmlns:inkscape="http://www.inkscape.org/namespaces/inkscape" xmlns:rdf="http://www.w3.org/1999/02/22-rdf-syntax-ns#" xmlns:sodipodi="http://sodipodi.sourceforge.net/DTD/sodipodi-0.dtd" xmlns:svg="http://www.w3.org/2000/svg"
	 xmlns="http://www.w3.org/2000/svg" xmlns:xlink="http://www.w3.org/1999/xlink" x="0px" y="0px" viewBox="0 0 330.4 330.4"
	 style="enable-background:new 0 0 330.4 330.4;" xml:space="preserve">
<style type="text/css">
	.st0{fill-rule:evenodd;clip-rule:evenodd;fill:#00549F;}
	.st1{fill-rule:evenodd;clip-rule:evenodd;fill:#8EBAE5;}
</style>
<g>
	<path id="rwth" class="st0" d="M14.9,163.2h-0.5H1v-4.7v-36.8v-0.3h13.3l0,0h9.4c6.2,0,11.5,4,13.3,9.3c1.6,4.9,0.2,10.3-3.4,14.1
		c0.5,1.3,1,2.3,1.4,3.5c1,2.3,1.9,4.7,2.9,7l3.3,8l0,0h-14c0,0-0.1-0.3-0.2-0.5c-0.6-1.2-1.1-2.6-1.6-3.8l-3.4-8
		c-1.3-3.3-2.7-6.3-4-9.6c1.7,0,2.9,0.3,4.6-0.5c1.1-0.6,2.9-2,2.9-4.6c0-1.3-0.4-2.3-1.3-3.4c-0.9-1-2.1-1.7-3.8-1.7H15L14.9,163.2
		L14.9,163.2z M153.5,121.5h-7.3v15.1h-9h-0.7v-12.5v-2.6h-10H91.1h-9.8h-1.1v18.8c0.1,0.9,0.3,1.7,0.4,2.6l-3.8-8.5
		c-1.7-3.9-3.3-7.8-5-11.8c-0.1-0.4-0.2-0.6-0.4-1.1H57.1c0,2,0,4.3,0,6.3v12.5c0.1,0.8,0.4,1.8,0.5,2.6l-0.1-0.2
		c-3.1-7-6.1-14.1-9-21.2H34.3c0.3,0.8,0.7,1.6,1,2.4l3.2,7.4l2.2,5.2l0.1,0.3c1,2.4,1.8,4.3,2.8,6.6c2.8,6.7,5.6,13.2,8.4,19.8
		h14.3v-21.8c0.4,1.2,0.6,2.5,0.9,3.8c2.4,6,5.1,12.1,7.6,18.1h14.4v-17v-15.2H99v14.1v0.7v17.3h13.8h0.1v-14.3v-13.8v-3v-1h9.7
		v32.1h6.1c2.5,0,5.2,0,7.8,0v-17h0.1h8.3h1.3v17h3h10.9v-41.8L153.5,121.5L153.5,121.5z"/>
	<path id="aachen" class="st1" d="M209.5,121.7h-10.3l-8.7,32.8l-8.7-32.8h-10.4l-11,41.6h8.7l1.9-8.8h11.1l1.9,8.8h12.8l1.9-8.8
		h11.1l1.9,8.8h8.7L209.5,121.7L209.5,121.7z M172.5,147.6l4-18.7h0.1l4,18.7H172.5z M200.3,147.6l4-18.7h0.1l4,18.7H200.3
		L200.3,147.6z M237.1,135.7c0-6.1-1.2-8.7-5-8.7c-4.3,0-5.2,4.3-5.2,16c0,12.6,1.7,14.9,5.4,14.9c3,0,5.2-1.6,5.2-10.5h8.4
		c0,9-2.2,16.7-13.2,16.7c-12.6,0-14.2-9-14.2-21.6s1.6-21.6,14.2-21.6c12,0,12.9,8.8,12.9,14.9L237.1,135.7L237.1,135.7z
		 M247.2,121.7h8.4v15.9h9.8v-15.9h8.4v41.6h-8.4v-18.5h-9.8v18.5h-8.4V121.7z M299.3,121.7v6.9h-14.9v9.8h14v6.9h-14v11.1h15.4v6.9
		H276v-41.6L299.3,121.7L299.3,121.7z M311.4,121.7l10.1,28.5h0.1v-28.5h7.7v41.6h-9.6l-10.3-29.1h-0.1v29.1h-7.7v-41.6
		C301.8,121.7,311.4,121.7,311.4,121.7z"/>
	<path id="university" class="st1" d="M220.7,173.2h4c3.8,0,5.8,1.9,5.8,5.8c0,4.5-2.3,6.2-6.3,6.2h-3.5V173.2z M212.3,208.6h8.4
		V191h4.5c3.4,0,4.8,2,5,5.2l0.2,8c0.1,1.6,0.2,3.2,1,4.4h9.1v-0.4c-1.6-0.8-1.8-3.1-1.9-7.5c-0.1-8.8-1-11.9-6.7-12.7v-0.1
		c4.7-1,6.9-4.7,6.9-10.3c0-7.1-4.2-10.7-11.1-10.7h-15.5L212.3,208.6L212.3,208.6L212.3,208.6z M88.9,167v29
		c0,11.1,6.5,13.4,13.3,13.4s13.3-2.8,13.3-13.4v-29h-8.4v29c0,4.1-1,7.2-4.9,7.2s-4.9-3.1-4.9-7.2v-29H88.9L88.9,167z M117.2,167
		v41.6h7.7v-29.1h0.1l10.3,29.1h9.6V167h-7.7v28.5h-0.1L127,167C126.9,167,117.2,167,117.2,167z M155.4,167H147v41.6h8.4V167z
		 M156,167l9.6,41.6h10.8L186,167h-8.8l-6.2,30.8h-0.2l-5.9-30.8L156,167L156,167z M186.6,167v41.6h23.8v-6.9H195v-11.2h14v-6.9h-14
		v-9.8h14.9v-6.9L186.6,167L186.6,167z M239.6,195.6v1.7c0,7.7,3.7,12.1,13.2,12.1c9.1,0,14.4-4,14.4-12.8c0-5.1-1.6-8.3-7.9-11
		l-6.5-2.8c-3.6-1.5-4.3-3.1-4.3-5.7c0-2.4,1-4.8,4.8-4.8c3.2,0,4.5,2.3,4.5,6.2h8v-1.1c0-8-5.4-11.2-12.9-11.2
		c-7.9,0-12.9,4.1-12.9,12.2c0,6.9,3.4,10,10.9,12.6c5.5,1.9,7.5,3.3,7.5,7.1c0,3.5-2.4,5.1-5,5.1c-4.4,0-5.5-2.5-5.5-6.4v-1.2
		H239.6L239.6,195.6z M276.7,167h-8.4v41.6h8.4V167z M320.3,167l-5.8,16.1h-0.1l-5.5-16.1h-31.1v6.9h9.1v34.7h8.4v-34.7h7.1
		l7.8,18.4v16.4h8.4v-16.4l10.8-25.2h-9.1V167z"/>
</g>
</svg>
