<?xml version="1.0" encoding="utf-8"?>
<!-- Generator: Adobe Illustrator 25.1.0, SVG Export Plug-In . SVG Version: 6.00 Build 0)  -->
<svg version="1.1" id="Layer_1" xmlns="http://www.w3.org/2000/svg" xmlns:xlink="http://www.w3.org/1999/xlink" x="0px" y="0px"
	 viewBox="0 0 538.3 538.3" style="enable-background:new 0 0 538.3 538.3;" xml:space="preserve">
<style type="text/css">
	.st0{clip-path:url(#SVGID_2_);}
	.st1{fill:#009172;}
	.st2{fill:#FFFFFF;}
</style>
<g>
	<g>
		<path d="M488.5,342.3h-5.9v-29h5.9V342.3z"/>
		<path d="M513,337.6v4.7h-17.3v-29h5.9v24.2L513,337.6L513,337.6z"/>
		<path d="M528.4,342.3h-5.9v-24.2h-8.3v-4.8h22.6v4.8h-8.4L528.4,342.3L528.4,342.3z"/>
	</g>
	<g>
		<defs>
			<polyline id="SVGID_1_" points="536.8,342.3 536.8,196 1.5,196 1.5,342.3 1.5,342.3 			"/>
		</defs>
		<clipPath id="SVGID_2_">
			<use xlink:href="#SVGID_1_"  style="overflow:visible;"/>
		</clipPath>
		<g class="st0">
			<g transform="translate(70.882 619.29)">
				<path d="M46.5-336h11.6v-25.4h19.6v-9.2H58.2V-385h20.5v-9.2H46.5V-336z M87-336h11v-15.6c0-6.1,0-17.4,9.2-17.4
					c2.1,0,4,0.3,4.9,0.9v-11.3c-1.2-0.3-2.4-0.3-3.4-0.3c-6.7,0-11.3,6.7-11.6,10.7h-0.3v-9.8H87C87-379.2,87-336,87-336z
					 M120.6-367.2c3.7-2.8,8.6-4.6,13.2-4.6c6.4,0,9.8,2.4,9.8,9.2h-6.1c-4.6,0-10.1,0.3-14.4,2.4c-4.3,2.1-7.3,5.8-7.3,12.2
					c0,8.3,7.3,12.9,15,12.9c5.2,0,10.7-2.8,13.2-7.3h0.3c0,1.2,0,4.3,0.6,6.4h9.8c-0.3-3.4-0.3-6.4-0.6-9.5c0-3.1-0.3-6.4-0.3-10.7
					v-5.5c0-12.5-5.5-18.1-18.4-18.1c-4.9,0-10.7,1.2-15,3.4L120.6-367.2L120.6-367.2z M126.1-348.6c0-6.7,7.3-7.3,12.5-7.3h4.9
					c0,3.4-0.6,6.4-2.4,8.9c-1.8,2.4-4.3,4-8,4C129.2-343.4,126.1-344.9,126.1-348.6 M202.3-379.2h-11v21.1c0,5.5-1.8,14.4-9.8,14.4
					c-7,0-7.3-7-7.3-12.2v-23h-11.3v26.9c0,9.8,4.3,16.8,14.7,16.8c5.8,0,10.7-2.8,14.1-6.7h0.3v5.8h10.7
					C202.3-336,202.3-379.2,202.3-379.2z M213.7-336h11v-21.1c0-5.5,1.8-14.4,9.8-14.4c7,0,7.3,7,7.3,12.2v23h11v-26.9
					c0-9.8-4.3-16.8-14.7-16.8c-5.8,0-10.7,1.8-14.1,6.7h-0.3v-5.8h-10.7C213.7-379.2,213.7-336,213.7-336z M264.8-336h11v-21.1
					c0-5.5,1.8-14.4,9.8-14.4c7,0,7.3,7,7.3,12.2v23h11v-26.9c0-9.8-4.3-16.8-14.7-16.8c-5.8,0-10.7,2.8-13.5,6.7h-0.3v-25.4h-11
					C264.8-398.8,264.8-336,264.8-336z M311.3-357.4c0,12.2,8.3,22,22.3,22c14.4,0,22.3-9.8,22.3-22c0-14.1-9.8-22.6-22.3-22.6
					C320.8-380.1,311.3-371.5,311.3-357.4 M322.9-358.7c0-6.4,3.4-12.9,10.7-12.9c7.3,0,10.7,6.1,10.7,12.9c0,7-2.1,14.7-10.7,14.7
					S322.9-351.6,322.9-358.7 M367.3-336h11v-34.6h9.8v-8.3h-9.8v-5.2c0-3.4,1.2-6.7,4.9-6.7c2.4,0,4,0.9,4.9,1.5l0.9-9.2
					c-2.1-0.6-5.2-0.9-8.3-0.9c-8.9,0-13.8,6.1-13.8,14.7v6.1h-8.3v8.3h8.3L367.3-336L367.3-336z M402.8-361.7
					c0.6-5.8,3.7-10.1,9.8-10.1c6.1,0,8.9,4.6,9.2,10.1H402.8z M429.4-347.7c-4.3,2.4-8.9,4.3-14.4,4.3c-7,0-11.6-4-12.2-10.7h29.7
					c0-15-4.6-26-20.5-26c-13.5,0-19.9,10.1-19.9,22.6c0,14.1,8.3,22.3,22.3,22.3c6.1,0,10.7-1.2,14.7-3.4v-9.2H429.4z M440.5-336
					h11v-15.6c0-6.1,0-17.4,9.2-17.4c2.1,0,4,0.3,4.9,0.9v-11.3c-1.2-0.3-2.4-0.3-3.4-0.3c-6.7,0-11.3,6.7-11.6,10.7l0,0v-9.8h-9.8
					L440.5-336L440.5-336z"/>
			</g>
			<g transform="translate(199.75 608.42)">
				<path d="M336.9-295.6v4.6"/>
			</g>
			<g transform="translate(34.016 619.29)">
				<path class="st1" d="M-32.5-336c20.5-10.7,50.8-27.9,86.6-53v-8.6c-31.5,20.8-63.7,37.3-86.6,48.4V-336z"/>
			</g>
			<g transform="translate(34.016 627.3)">
				<path class="st1" d="M-32.5-369.5c23-9.5,55.1-23.9,86.6-42.5v-4.3c-29.7,15-60.6,24.2-86.6,30V-369.5z"/>
			</g>
			<g transform="translate(61.595 619.28)">
				<path class="st1" d="M26.8-336v-42.5C6.9-362-12.4-347.3-28.9-336H26.8z"/>
			</g>
			<g transform="translate(40.348 619.28)">
				<path class="st1" d="M-18.8-336c15.6-9.2,34.6-21.4,53.3-35.5c4.3-3.4,8.9-6.7,13.5-10.1v-5.2C20-366.3-8.4-348.8-30.8-336
					H-18.8z"/>
			</g>
			<g transform="translate(34.016 634.68)">
				<path class="st1" d="M-32.5-400c25.4-4.6,56.3-12.5,86.6-26.9v-4.6C23.5-417.8-7.1-412-32.5-409.8
					C-32.5-410.1-32.5-400-32.5-400z"/>
			</g>
			<g transform="translate(34.016 647)">
				<path class="st1" d="M-32.5-451v24.2c1.8,0,4-0.3,5.8-0.3c21.1-1.5,49.9-5.2,81.1-18.7v-5.2C54.1-451-32.5-451-32.5-451z"/>
			</g>
			<g transform="translate(34.016 639.28)">
				<path class="st2" d="M-32.5-419v4.6c25.7-2.1,56.3-8,86.6-21.7v-2.1c-31.2,13.5-60,17.1-81.1,18.7
					C-28.5-419.3-30.6-419-32.5-419"/>
			</g>
			<g transform="translate(34.016 632.72)">
				<path class="st2" d="M-32.5-391.8c26-5.8,56.9-15,86.6-29.7v-3.4c-30.3,14.4-61.2,22.3-86.6,26.9V-391.8z"/>
			</g>
			<g transform="translate(34.016 623.46)">
				<path class="st2" d="M-32.5-353.6c23-11,55.1-27.5,86.6-48.4v-6.4c-31.5,19-63.7,33.4-86.6,42.9V-353.6z"/>
			</g>
			<g transform="translate(40.348 619.28)">
				<path class="st2" d="M-18.8-336h11c16.5-11.3,36.1-25.7,55.7-42.5v-3.4c-4.6,3.4-9.2,7-13.5,10.1C15.8-357.4-3.2-345.5-18.8-336
					"/>
			</g>
			<g transform="translate(34.016 619.28)">
				<path class="st2" d="M-32.5-336h8c22.3-12.5,50.8-30,78.7-50.8v-2.1C18.3-363.8-12-346.7-32.5-336
					C-32.5-336.3-32.5-336-32.5-336z"/>
			</g>
		</g>
	</g>
</g>
</svg>
