<?xml version="1.0" encoding="utf-8"?>
<!-- Generator: Adobe Illustrator 25.1.0, SVG Export Plug-In . SVG Version: 6.00 Build 0)  -->
<svg version="1.1"
	 id="svg2" xmlns:cc="http://creativecommons.org/ns#" xmlns:dc="http://purl.org/dc/elements/1.1/" xmlns:inkscape="http://www.inkscape.org/namespaces/inkscape" xmlns:rdf="http://www.w3.org/1999/02/22-rdf-syntax-ns#" xmlns:sodipodi="http://sodipodi.sourceforge.net/DTD/sodipodi-0.dtd" xmlns:svg="http://www.w3.org/2000/svg"
	 xmlns="http://www.w3.org/2000/svg" xmlns:xlink="http://www.w3.org/1999/xlink" x="0px" y="0px" viewBox="0 0 339.6 319.3"
	 style="enable-background:new 0 0 339.6 319.3;" xml:space="preserve">
<style type="text/css">
	.st0{fill-rule:evenodd;clip-rule:evenodd;fill:#0F4860;}
	.st1{fill:#0F4860;}
	.st2{fill:none;stroke:#0D8FC8;stroke-width:6;stroke-miterlimit:10;}
	.st3{fill:none;stroke:#164E65;stroke-width:6;stroke-miterlimit:10;}
</style>
<path id="path5017" class="st0" d="M162,140.4c-4,0-7.4,1.4-10.4,4c-3.8,3.5-5.8,8.9-5.8,16.1c0,11.5,5.6,18.4,14.7,18.4
	c9.6,0,16.1-7.9,16.1-19.5C176.7,147.8,171,140.4,162,140.4z M161.5,144.9c6.3,0,10.1,5.3,10.1,14.6s-4,15-10.5,15
	c-6.2,0-9.9-5.5-9.9-14.6C151.1,150.7,155.1,144.9,161.5,144.9"/>
<path id="path5019" class="st0" d="M184.3,141.2c0.3,1.5,0.4,3.5,0.4,5.8v25.2c0,2.4-0.1,4.4-0.4,5.9h6c-0.3-1.6-0.4-3.5-0.4-5.9
	v-11.5h2.8c5,0,6.3,1,8.1,6.9l1.9,6.1c0.6,2.3,1,3.7,1,4c0,0.1,0,0.3-0.1,0.5h6.1c-0.7-1.5-0.9-2-2.2-5.7l-1.9-6.3
	c-1.7-5.2-2.4-6.3-5.4-7.6c4.7-1.9,6.6-4.3,6.6-8.4c0-5.9-4.5-9-13.2-9H184.3z M189.8,156.7v-11.3c0.8-0.1,1.4-0.1,2.2-0.1
	c7.1,0,9.2,1.3,9.2,5.3s-2.7,6.1-7.9,6.1H189.8"/>
<path id="path5021" class="st0" d="M246.8,178.3c0.5-2,0.7-2.6,1.6-4.9l2.1-5.9c4.8-0.1,7.3-0.2,7.7-0.2c1.1,0,3.5,0.1,7.3,0.2
	l1.8,5.3l0.5,1.6l0.5,1.7c0.2,0.8,0.4,1.4,0.5,2.3h6.7c-1.9-3.5-2.2-4-3.5-7.1l-11.5-29.8h-5.2c-0.4,2.1-1.1,4.2-2,6.6l-9.4,24.2
	c-1.2,2.5-1.9,4.2-3.2,6.1h6.1V178.3z M263.9,163.2c-2.1-0.1-4.2-0.2-5.9-0.2c-1.9,0-4.2,0.1-6,0.2l6.1-16L263.9,163.2z M254,133.4
	l2,3l12.8-6.8l-2.7-4.2L254,133.4"/>
<path id="path5035" class="st1" d="M109.9,141.2c0.3,1.5,0.4,3.5,0.4,5.8v25.3c0,2.4-0.1,4.3-0.4,5.8h6c-0.3-1.6-0.4-3.2-0.4-5.8
	v-11.2c4.9-0.2,5.4-0.2,8.6-0.2c3,0,3.2,0,8.7,0.2v11.2c0,2.5-0.1,4.1-0.4,5.8h6c-0.3-1.7-0.4-3.5-0.4-5.8V147
	c0-2.3,0.1-4.1,0.4-5.8h-6c0.4,1.7,0.4,3.3,0.4,5.8v9.7c-1.8-0.1-6.4-0.1-8.9-0.1c-2.7,0-7.1,0.1-8.5,0.1V147c0-2.5,0.1-4.3,0.4-5.8
	H109.9"/>
<path id="path5037" class="st1" d="M211.2,141.2c1.3,1.8,2.2,3.7,3.4,6.6l11.4,30.3h4.5l11-29.8c1.5-3.9,2.3-5.8,3.2-7.1h-6.3
	c-0.3,2.1-0.6,2.9-1.5,5.4l-8.5,24.8l-8.6-24.9c-0.9-2.4-1.4-3.9-1.7-5.3H211.2"/>
<path id="path5039" class="st1" d="M284.9,145.1v27.2c0,2.3-0.1,4.1-0.4,5.8h6c-0.3-1.8-0.4-3.4-0.4-5.8v-27.2h6.4
	c1.8,0,3,0.1,5,0.2v-4.4h-28v4.4c1.2-0.1,2.3-0.2,5-0.2H284.9"/>
<path id="path5041" class="st1" d="M307.6,141.2c0.3,1.5,0.4,3.5,0.4,5.8v25.3c0,2.4-0.1,4.3-0.4,5.8h6c-0.3-1.6-0.4-3.2-0.4-5.8
	v-11.2c4.9-0.2,5.4-0.2,8.6-0.2c3,0,3.2,0,8.7,0.2v11.2c0,2.5-0.1,4.1-0.4,5.8h6c-0.3-1.7-0.4-3.5-0.4-5.8V147
	c0-2.3,0.1-4.1,0.4-5.8h-6c0.4,1.7,0.4,3.3,0.4,5.8v9.7c-1.8-0.1-6.4-0.1-8.9-0.1c-2.7,0-7.1,0.1-8.5,0.1V147c0-2.5,0.1-4.3,0.4-5.8
	H307.6"/>
<polygon class="st2" points="73.7,197.9 19.8,197.9 34.2,143.8 88.1,143.8 "/>
<polygon class="st3" points="57.8,175.7 3.9,175.7 18.3,121.4 72.2,121.4 "/>
</svg>
