<?xml version="1.0" encoding="utf-8"?>
<!-- Generator: Adobe Illustrator 25.1.0, SVG Export Plug-In . SVG Version: 6.00 Build 0)  -->
<svg version="1.1"
	 id="svg2" xmlns:cc="http://creativecommons.org/ns#" xmlns:dc="http://purl.org/dc/elements/1.1/" xmlns:inkscape="http://www.inkscape.org/namespaces/inkscape" xmlns:rdf="http://www.w3.org/1999/02/22-rdf-syntax-ns#" xmlns:sodipodi="http://sodipodi.sourceforge.net/DTD/sodipodi-0.dtd" xmlns:svg="http://www.w3.org/2000/svg"
	 xmlns="http://www.w3.org/2000/svg" xmlns:xlink="http://www.w3.org/1999/xlink" x="0px" y="0px" viewBox="0 0 333.1 333.1"
	 style="enable-background:new 0 0 333.1 333.1;" xml:space="preserve">
<style type="text/css">
	.st0{fill:#0A1D3D;}
</style>
<path class="st0" d="M231.2,133.2c-1.3,0-2.1,0-3.1,0c-0.9,1.3-1.7,3.1-3.1,5.2c23.6,0,45.5,1.7,69.5,6.1l-6.5,6.5
	c-21.5-3.9-39.3-5.2-62.5-5.2c-3.5,0-3.9,0-4.8,0c-0.9,1.3-2.7,3.5-4.4,5.7c2.1,0,6.1,0,11.3,0c18.8,0,36.3,1.3,55.5,4.4l-6.5,6.5
	c-14.4-2.1-32.4-3.5-48.1-3.5c-5.7,0-12.3,0-17.9,0.4c-1.3,1.3-4.8,5.2-5.7,6.1c7.5-0.9,16.1-1.3,25.7-1.3c14,0,28,0.9,40.7,2.7
	l-6.5,6.5c-9.2-1.3-20.1-1.7-30.1-1.7c-25.3,0-45.5,5.7-66,17.9c19.6,20.9,52,34.5,83.1,34.5h3.1l-10.9,10.5
	c-45.1-8.3-92.3-28.4-132.4-55.5c-38.4-25.7-52-33.6-82.1-46.8v-7.9l20.1,8.8l6.9-5.7l66.4,30.5l-4.1,3.5l-34.1-14.8l-3.5,2.7
	l17.5,10c14.8,8.3,26.3,12.3,36.7,12.3c23.2,0,43.7-16.1,56.8-45.1c10-1.3,20.5-1.7,33.6-1.7c26.3,0,52,2.7,80.8,7.9l-6.9,6.9
	C281.5,136.3,250.9,133.2,231.2,133.2 M166.5,322.4c-86.1,0-156.4-69.9-156.4-156.4S80,9.6,166.5,9.6S322.9,79.5,322.9,166
	S253.1,322.4,166.5,322.4 M166.5,0C74.8,0,0,74.3,0,166.5s74.3,166.5,166.5,166.5c91.7,0,166.5-74.3,166.5-166.5S258.8,0,166.5,0"/>
</svg>
