<?xml version="1.0" encoding="utf-8"?>
<!-- Generator: Adobe Illustrator 25.1.0, SVG Export Plug-In . SVG Version: 6.00 Build 0)  -->
<svg version="1.1" id="Layer_1" xmlns="http://www.w3.org/2000/svg" xmlns:xlink="http://www.w3.org/1999/xlink" x="0px" y="0px"
	 viewBox="0 0 763.2 551" style="enable-background:new 0 0 763.2 551;" xml:space="preserve">
<style type="text/css">
	.st0{fill:#FFFFFF;}
</style>
<g>
	<path class="st0" d="M369.4,453.3c-1.1,0.1-2.9,0.4-4.7,0.6c-13.9,1.4-27.8,2.2-41.6,4.4c-24.1,3.9-48.2,8.1-72.1,13.1
		c-56.6,11.9-111.4,29.4-164,53.8c-17.5,8.1-34.9,16.4-53.9,20.6c-14.4,3.2-21.7-1.3-25.6-15.3c-4.6-16.6-3.1-33.5-1.3-50
		c3.1-28.4,7.9-56.6,12.2-84.8c5-32.4,10.4-64.6,15.2-97C40.2,256,43,213,43.8,170c0.5-25.5-0.6-51.1-1-76.7
		c-0.1-4.4-0.7-8.7-1.2-13.5c2,0.6,3.4,1.4,4.5,1.2c0.8-0.1,1.4-1.6,2-2.5c-2.8-1.3-5.5-3.7-8.3-3.7c-3.1-0.1-2.9,3.1-2.6,5.8
		c1,9.4,2.1,18.9,2.4,28.3c1.6,42.4-0.9,84.8-4.4,127c-2.5,30.1-7.1,60-11.5,89.9c-4.5,30.2-9.7,60.4-14.8,90.5
		c-5.1,30.2-9.7,60.4-8.9,91.1c0.2,9.8,2.7,19.6,4.8,29.3c1.5,7,6.3,11.8,13.5,13.2c4.5,0.8,9.4,1.5,13.7,0.4
		c10-2.4,20-5.3,29.5-9.1c20.9-8.5,41.4-18,62.3-26.7c26.1-10.9,53.1-19.3,80.5-26.4c49.6-12.9,99.6-23.6,150.9-27.6
		c4.9-0.4,9.8-0.8,15.3-1.2c0,2.6-0.1,4.6,0,6.5c0.2,1.8,0.7,3.5,1.1,5.2c0.7,0,1.3,0,2,0c0.4-2.1,1.4-4.2,1.2-6.3
		c-0.3-4.6,1.8-6,6.1-6.2c39.9-2,79,1,117.1,14.2c23,8,46.6,14.4,70.2,20.8c17.2,4.6,35,6.6,52.9,5.5c1.8-0.1,3.4-1.7,5.1-2.6
		c-1.6-0.7-3.3-2.1-4.9-2.1c-37.8,0.7-73.6-8.7-108.4-21.8c-38.2-14.4-77.1-22.3-117.9-20.2c-6.2,0.3-12.5,0-19.4,0
		c2-38.9,4.5-77.9,11.6-117c10.5-0.5,21.3-0.9,32.1-1.5c27.4-1.4,54.4,1.6,81.2,7.1c2.6,0.5,4.8,1.1,4.8,4.5c0,0.9,1.2,1.7,1.9,2.6
		c0.9-0.8,1.9-1.5,2.7-2.4c0.5-0.5,0.6-1.4,1-2.3c21.5,5.6,42.1,12.9,62.3,21.6c20.3,8.7,40.4,18,62.9,19.8c3,0.2,7.8,2.4,8.4-1.8
		c0.6-4-4.6-3.3-7.4-3.6c-14.8-1.8-28.9-6-42.5-12c-25.7-11.3-51.5-22.3-78.9-29.2c-4.3-1.1-5.7-2.9-5.6-7.4
		c0.3-22,0.2-43.9,0.2-65.9c0-12.7,0-25.3,0-38c0-3,0.6-5.3,4.3-5.3c15.4,0,30.8,0,46.4,0c0,1.2,0.1,2.5,0,3.8
		c-1.8,15.7-3.7,31.4-5.3,47.1c-2.4,23.3-4.6,46.6-6.7,69.9c-0.1,1.4,1.1,3,1.7,4.5c0.9-1.4,2.4-2.6,2.6-4.1
		c1.7-14.2,3.3-28.4,4.8-42.6c2.7-25.5,5.3-50.9,7.9-76.4c0.3-2.8,1.2-4.2,4.1-4.6c1.4-0.2,2.6-1.5,3.8-2.2
		c-0.2-0.4-0.3-0.9-0.5-1.3c-1.9-0.3-3.8-0.6-6.2-1c0.6-6,1.2-11.9,1.8-17.8c3-30.1,6-60.2,9-90.2c0.7-7.1,1.5-14.2,2.1-21.3
		c0.1-1-1.1-2-1.6-3c-0.9,0.8-1.9,1.5-2.5,2.4c-0.4,0.6-0.5,1.6-0.6,2.4c-4.4,41.8-8.8,83.6-13.3,125.4c-0.2,1.4-2.1,3.7-3.3,3.8
		c-15.9,0.8-31.8,1.2-48.2,1.7c-0.1-3-0.3-4.9-0.3-6.9c-0.1-35.6-0.2-71.2-0.3-106.8c0-5,0.1-10-0.2-15c-0.1-1.1-1.5-2-2.3-3.1
		c-0.6,1-1.4,1.9-1.8,3c-0.3,0.7,0,1.6,0,2.4c-0.1,45.1-0.2,90.2-0.4,135.2c-0.1,34.8-0.2,69.6-0.3,104.4c0,1.2-0.4,2.4-0.7,4.1
		c-34.4-8-68.9-9.9-103.4-6.8c-34.5,3.1-68.8,7.8-104.2,12c0-81.8,0-164.3,0-246.7c-0.8-0.1-1.6-0.2-2.4-0.3
		c-0.4,1.8-1.3,3.6-1.3,5.4c-0.2,12.7-0.3,25.5-0.4,38.2c-0.1,21.3-0.3,42.7-0.3,64c0,2.4,0,4.3-3.1,5.3c-13.6,4.3-27,9.2-40.7,13.5
		c-9.4,2.9-18.9,5-28.9,3.5c-3.8-0.6-5.8-1.9-5.7-6.3c0.3-13.6,0.2-27.3,0.2-40.9c0-30.8,0-61.6-0.2-92.4c0-1.9-1.5-3.7-2.3-5.6
		c-0.7,1.8-2,3.6-2,5.4c-0.2,7.3,0.2,14.7,0.2,22c-0.2,40.7-0.6,81.4-0.7,122.2c-0.1,33.7,0,67.4,0.2,101.1c0,2.5,1.6,4.9,2.4,7.4
		c0.8-2.4,2.3-4.8,2.3-7.2c0.2-27.8,0.1-55.6,0.2-83.4c0-6.3,0-12.5,0-18.9c28.6,4.8,52.3-9.8,77.9-16.2c0.1,1.1,0.2,2.1,0.2,3
		c0.1,41.9,0.1,83.9,0.2,125.8c0,2.8-1,3.7-3.6,4.2c-5.9,1-11.7,2.3-17.6,3.5c-45.7,9.3-90.5,21.4-134.6,36.7
		c-20.3,7.1-40.3,17.2-63,13.8c-0.8-0.1-1.9,1.3-2.8,2c1,0.9,1.9,2.5,2.9,2.5c6.3,0.1,12.9,0.8,18.9-0.6
		c14.2-3.4,28.4-7.3,42.2-12.1c42.8-14.9,86.4-26.5,130.7-35.6c8.3-1.7,16.6-3.2,25-4.6c2-0.3,4.1,0.6,6.1,0.2
		c3-0.7,5.7-2.4,8.7-2.9c19.7-3.1,39.4-6,59.1-8.8c5.8-0.8,11.8-1,17-1.4C377,375.4,373.3,413.9,369.4,453.3z"/>
	<path class="st0" d="M758.7,5c-0.9,2.4-1.4,4-2.1,5.7c-3.7,9.3-7.5,18.5-11,27.8c-15.5,40.9-24.3,83.6-33.7,126.1
		c-7.2,32.6-13.7,65.4-20.7,98c-8.3,38.5-19.5,76.3-22.9,115.8c-1.3,14.6-2.2,29.3,3.3,43.2c2.5,6.3,6.6,12,10.2,17.9
		c0.4,0.6,2.3,0.4,3.5,0.5c-0.2-1.2,0.1-2.7-0.5-3.5c-8.9-10.3-12.1-23-11.6-35.7c0.8-19.5,2.9-39.2,6.5-58.4
		c5.4-29.2,12.7-58.1,19-87.1c10.1-47.1,19.9-94.3,30.1-141.4c6-27.8,13.5-55.2,24-81.7c3.5-8.8,6.9-17.6,10.1-26.5
		c0.5-1.5,0.4-4-0.5-4.9c-0.9-0.9-3.4-0.8-5-0.4c-3.6,1.1-7.2,2.5-10.7,4.1c-27.2,12.7-55.5,22.3-84.5,29.7
		c-52.7,13.5-106.5,19.7-160.8,20.7c-51.8,0.9-103.6-1.1-155.5-1.2c-53.4-0.2-106-7.2-158.5-15.9c-24-4-48.1-6.8-72.5-5.3
		c-4.1,0.2-8.2,1-12.3,1.9c-1.1,0.2-2.9,2.3-2.7,2.7c0.8,1.7,2.3,3,3.5,4.5c0.9-0.8,1.8-1.7,2.8-2.4c1.1-0.7,2.4-1.8,3.6-1.8
		c12.1-0.2,24.4-1.5,36.3-0.1c27.2,3.1,54.2,8,81.4,11.4c28.6,3.6,57.3,7.1,86.1,9.4c21.8,1.8,43.8,2,65.7,2.2
		c45.4,0.4,90.8,1,136.2,0.1c39.2-0.8,78.2-5.2,116.7-13.1c26.9-5.5,53.5-12.2,79-22.3C727.1,18.8,742.4,11.9,758.7,5z"/>
	<g>
		<path d="M369.4,453.3c3.8-39.4,7.6-77.9,11.4-117c-5.3,0.4-11.2,0.6-17,1.4c-19.7,2.8-39.4,5.7-59.1,8.8c-3,0.5-5.7,2.3-8.7,2.9
			c-1.9,0.4-4.1-0.5-6.1-0.2c-8.4,1.4-16.7,2.9-25,4.6c-44.3,9.1-88,20.7-130.7,35.6c-13.8,4.8-28,8.7-42.2,12.1
			c-6,1.4-12.6,0.7-18.9,0.6c-1,0-1.9-1.7-2.9-2.5c0.9-0.7,2-2.1,2.8-2c22.8,3.4,42.7-6.7,63-13.8c44.1-15.3,88.9-27.4,134.6-36.7
			c5.9-1.2,11.7-2.5,17.6-3.5c2.6-0.4,3.7-1.4,3.6-4.2c-0.1-41.9-0.1-83.9-0.2-125.8c0-1-0.1-2-0.2-3c-25.6,6.3-49.3,20.9-77.9,16.2
			c0,6.4,0,12.7,0,18.9c0,27.8,0,55.6-0.2,83.4c0,2.4-1.5,4.8-2.3,7.2c-0.8-2.5-2.4-4.9-2.4-7.4c-0.2-33.7-0.3-67.4-0.2-101.1
			c0.1-40.7,0.5-81.4,0.7-122.2c0-7.3-0.3-14.7-0.2-22c0-1.8,1.3-3.6,2-5.4c0.8,1.9,2.3,3.7,2.3,5.6c0.2,30.8,0.2,61.6,0.2,92.4
			c0,13.6,0.1,27.3-0.2,40.9c-0.1,4.4,1.8,5.7,5.7,6.3c10,1.5,19.5-0.5,28.9-3.5c13.6-4.3,27.1-9.2,40.7-13.5c3.1-1,3.1-2.9,3.1-5.3
			c0.1-21.3,0.2-42.7,0.3-64c0.1-12.7,0.2-25.5,0.4-38.2c0-1.8,0.8-3.6,1.3-5.4c0.8,0.1,1.6,0.2,2.4,0.3c0,82.4,0,164.8,0,246.7
			c35.5-4.1,69.8-8.9,104.2-12c34.6-3.1,69-1.2,103.4,6.8c0.3-1.7,0.7-2.9,0.7-4.1c0.1-34.8,0.2-69.6,0.3-104.4
			c0.1-45.1,0.3-90.2,0.4-135.2c0-0.8-0.3-1.7,0-2.4c0.4-1.1,1.2-2,1.8-3c0.8,1,2.3,2,2.3,3.1c0.3,5,0.2,10,0.2,15
			c0.1,35.6,0.2,71.2,0.3,106.8c0,2,0.2,3.9,0.3,6.9c16.3-0.5,32.3-1,48.2-1.7c1.2-0.1,3.1-2.3,3.3-3.8
			c4.5-41.8,8.9-83.6,13.3-125.4c0.1-0.8,0.1-1.8,0.6-2.4c0.7-0.9,1.7-1.6,2.5-2.4c0.6,1,1.7,2.1,1.6,3c-0.6,7.1-1.4,14.2-2.1,21.3
			c-3,30.1-6,60.2-9,90.2c-0.6,5.9-1.2,11.8-1.8,17.8c2.4,0.4,4.3,0.7,6.2,1c0.2,0.4,0.3,0.9,0.5,1.3c-1.3,0.8-2.5,2.1-3.8,2.2
			c-2.9,0.4-3.8,1.8-4.1,4.6c-2.6,25.5-5.2,50.9-7.9,76.4c-1.5,14.2-3.1,28.4-4.8,42.6c-0.2,1.4-1.7,2.7-2.6,4.1
			c-0.6-1.5-1.9-3.1-1.7-4.5c2.1-23.3,4.3-46.6,6.7-69.9c1.6-15.7,3.5-31.4,5.3-47.1c0.1-1.3,0-2.6,0-3.8c-15.6,0-31,0-46.4,0
			c-3.7,0-4.3,2.3-4.3,5.3c0.1,12.7,0,25.3,0,38c0,22,0.1,44-0.2,65.9c-0.1,4.6,1.3,6.4,5.6,7.4c27.3,6.8,53.2,17.8,78.9,29.2
			c13.6,6,27.7,10.1,42.5,12c2.8,0.3,8-0.4,7.4,3.6c-0.6,4.2-5.4,2.1-8.4,1.8c-22.5-1.7-42.6-11.1-62.9-19.8
			c-20.1-8.7-40.7-16-62.3-21.6c-0.4,0.9-0.5,1.7-1,2.3c-0.8,0.9-1.8,1.6-2.7,2.4c-0.7-0.9-1.9-1.7-1.9-2.6c0-3.4-2.2-4-4.8-4.5
			c-26.8-5.5-53.8-8.5-81.2-7.1c-10.8,0.5-21.5,1-32.1,1.5c-7.1,39.1-9.6,78.1-11.6,117c6.9,0,13.2,0.3,19.4,0
			c40.8-2.1,79.7,5.9,117.9,20.2c34.8,13.1,70.7,22.5,108.4,21.8c1.6,0,3.3,1.3,4.9,2.1c-1.7,0.9-3.4,2.5-5.1,2.6
			c-17.9,1.1-35.6-0.9-52.9-5.5c-23.6-6.3-47.2-12.8-70.2-20.8c-38.1-13.2-77.2-16.2-117.1-14.2c-4.3,0.2-6.4,1.6-6.1,6.2
			c0.1,2-0.8,4.2-1.2,6.3c-0.7,0-1.3,0-2,0c-0.4-1.7-0.9-3.4-1.1-5.2c-0.2-1.9,0-3.9,0-6.5c-5.5,0.4-10.4,0.8-15.3,1.2
			c-51.2,4.1-101.2,14.7-150.9,27.6c-27.4,7.1-54.3,15.5-80.5,26.4c-20.9,8.7-41.4,18.1-62.3,26.7c-9.5,3.9-19.5,6.7-29.5,9.1
			c-4.3,1-9.3,0.4-13.7-0.4c-7.2-1.4-11.9-6.2-13.5-13.2c-2.1-9.7-4.5-19.5-4.8-29.3c-0.7-30.7,3.8-60.9,8.9-91.1
			c5.1-30.1,10.3-60.3,14.8-90.5c4.4-29.9,9.1-59.8,11.5-89.9c3.5-42.2,5.9-84.6,4.4-127c-0.3-9.5-1.5-18.9-2.4-28.3
			c-0.3-2.7-0.6-5.9,2.6-5.8c2.8,0.1,5.5,2.4,8.3,3.7c-0.7,0.9-1.2,2.4-2,2.5c-1.2,0.2-2.5-0.6-4.5-1.2c0.4,4.8,1.1,9.2,1.2,13.5
			c0.5,25.6,1.5,51.1,1,76.7c-0.8,43-3.6,86-10,128.6c-4.9,32.4-10.3,64.7-15.2,97c-4.3,28.2-9.1,56.4-12.2,84.8
			c-1.8,16.5-3.3,33.4,1.3,50c3.9,14,11.1,18.5,25.6,15.3c19-4.2,36.4-12.5,53.9-20.6c52.6-24.4,107.4-42,164-53.8
			c23.9-5,48-9.2,72.1-13.1c13.7-2.2,27.7-3,41.6-4.4C366.5,453.7,368.3,453.4,369.4,453.3z"/>
		<path d="M758.7,5c-16.3,6.9-31.6,13.8-47.2,20c-25.6,10.1-52.2,16.7-79,22.3C594,55.1,555,59.5,515.7,60.3
			c-45.4,0.9-90.8,0.3-136.2-0.1c-21.9-0.2-43.9-0.4-65.7-2.2c-28.8-2.3-57.5-5.8-86.1-9.4c-27.2-3.4-54.2-8.3-81.4-11.4
			c-11.9-1.4-24.2-0.1-36.3,0.1c-1.2,0-2.5,1.1-3.6,1.8c-1,0.7-1.9,1.6-2.8,2.4c-1.2-1.5-2.7-2.8-3.5-4.5c-0.2-0.4,1.6-2.4,2.7-2.7
			c4-0.9,8.2-1.6,12.3-1.9c24.4-1.5,48.5,1.3,72.5,5.3c52.5,8.7,105.1,15.8,158.5,15.9c51.8,0.2,103.7,2.1,155.5,1.2
			c54.2-1,108-7.2,160.8-20.7c29-7.4,57.3-17,84.5-29.7c3.5-1.6,7-3,10.7-4.1c1.5-0.5,4-0.5,5,0.4c0.9,0.9,1,3.5,0.5,4.9
			c-3.2,8.9-6.7,17.7-10.1,26.5c-10.5,26.5-18,53.9-24,81.7c-10.2,47.1-20,94.3-30.1,141.4c-6.2,29.1-13.6,57.9-19,87.1
			c-3.6,19.2-5.6,38.8-6.5,58.4c-0.5,12.7,2.7,25.4,11.6,35.7c0.6,0.8,0.4,2.3,0.5,3.5c-1.2-0.1-3.1,0.1-3.5-0.5
			c-3.6-5.9-7.7-11.6-10.2-17.9c-5.5-13.9-4.6-28.6-3.3-43.2c3.5-39.4,14.6-77.3,22.9-115.8c7.1-32.6,13.5-65.4,20.7-98
			c9.4-42.5,18.2-85.2,33.7-126.1c3.5-9.3,7.4-18.5,11-27.8C757.3,9,757.9,7.3,758.7,5z"/>
	</g>
</g>
</svg>
