<?xml version="1.0" encoding="utf-8"?>
<!-- Generator: Adobe Illustrator 25.1.0, SVG Export Plug-In . SVG Version: 6.00 Build 0)  -->
<svg version="1.1" id="Layer_1" xmlns="http://www.w3.org/2000/svg" xmlns:xlink="http://www.w3.org/1999/xlink" x="0px" y="0px"
	 viewBox="0 0 1578 940.8" style="enable-background:new 0 0 1578 940.8;" xml:space="preserve">
<style type="text/css">
	.st0{fill:#1D1F27;}
	.st1{fill:#1E2028;}
	.st2{fill:#F3F3F3;}
	.st3{fill:#1E2027;}
	.st4{fill:#1E1F27;}
	.st5{fill:#F4F4F4;}
	.st6{fill:#F5F5F5;}
	.st7{fill:#00C1D4;stroke:#000000;stroke-width:4;stroke-miterlimit:10;}
	.st8{fill:#1C1E26;}
	.st9{fill:#00C1D4;}
	.st10{fill:#1F2128;}
	.st11{fill:#20222A;}
	.st12{fill:#F1F1F1;}
	.st13{fill:#F4F3F3;}
	.st14{fill:#F2F2F2;}
	.st15{enable-background:new    ;}
	.st16{opacity:0.85;}
	.st17{fill:#B8EEF3;}
	.st18{fill:#9FE8EF;}
	.st19{fill:#76DEE8;}
	.st20{fill:#D1F4F7;}
	.st21{fill:#8CE3EC;}
	.st22{fill:#60D8E4;}
	.st23{fill:#202020;}
	.st24{fill:#1B1D25;}
	.st25{fill:#25272F;}
	.st26{fill:#22242B;}
</style>
<path class="st0" d="M1397.5,395.6c-8.7-0.3-16-8.1-15.7-16.7c0.3-9.1,9.1-18.1,17.5-17.8c9.4,0.3,17,8,16.5,17
	C1415.3,387.5,1406.5,395.9,1397.5,395.6z M1398.7,369c-5.2-0.1-10,4.6-10,9.7c0,4.5,4.4,9,8.9,9.2c4.9,0.2,10.2-5.2,10.2-10.3
	C1407.9,373,1403.8,369.1,1398.7,369z"/>
<path class="st1" d="M1411.4,441.9c5.5,0.4,10.5,0.5,15.3,1.3c1.7,0.3,3.2,2.3,4.8,3.5c-1.8,1.2-3.6,3.5-5.3,3.4
	c-8.6-0.3-17.3-1.1-25.8-2.1c-1.4-0.2-2.9-1.6-3.9-2.8c-1.5-1.8-2.8-3.7-3.8-5.8c-7.9-15.7-15.9-31.4-23.4-47.3
	c-7.6-16.1-4.5-32.6,7.5-43.4c7.4-6.6,16-9.3,25.8-7.6c10.3,1.7,18.6,7.1,25.4,14.7c7,7.8,5.3,17.5,4.4,26.7
	c-1.8,17.3-9.9,32.6-16.4,48.3C1414.4,434.4,1413,438.1,1411.4,441.9z M1401.7,443.1c2.6-6,4.6-10.7,6.5-15.4
	c6.5-15.6,13.8-31,16.1-48c1.2-8.5,0.8-16.5-6.5-22.3c-8.4-6.6-17.6-11-28.6-6.9c-13.1,4.8-19.9,21.2-13.7,35.5
	C1383.5,404.8,1392.5,423.1,1401.7,443.1z"/>
<path class="st2" d="M1401.7,443.1c-9.2-20-18.2-38.4-26.2-57.1c-6.2-14.3,0.6-30.7,13.7-35.5c11-4,20.2,0.3,28.6,6.9
	c7.3,5.8,7.7,13.8,6.5,22.3c-2.4,17-9.7,32.4-16.1,48C1406.3,432.4,1404.3,437.1,1401.7,443.1z M1397.5,395.6
	c9,0.3,17.8-8.1,18.3-17.5c0.4-8.9-7.1-16.7-16.5-17c-8.3-0.3-17.2,8.7-17.5,17.8C1381.5,387.5,1388.8,395.3,1397.5,395.6z"/>
<path class="st3" d="M1074.3,654.1c2.6,0.3,5,0.1,7.1,1c1.4,0.5,2.2,2.5,3.2,3.8c-1.2,0.9-2.4,2.6-3.6,2.6c-6,0.2-12,0.2-17.9-0.3
	c-2.1-0.2-4.4-1.8-5.8-3.4c-18.6-20.9-33.8-44-43.9-70.2c-3.9-10-5.6-20.4-3-31.3c4.9-20.3,23.7-36.1,44.7-36.9
	c16-0.6,31,2.7,41.9,15.5c11.4,13.3,14.6,28.6,7.9,45.1c-9.5,23.5-19.4,46.9-29.1,70.3C1075.4,651.5,1074.9,652.7,1074.3,654.1z
	 M1058.5,526.9c-15.7,0.1-33.1,10.8-38.4,23.5c-5,11.8-3.8,23.4,0.8,34.9c9.8,24.9,24.6,46.6,40.9,67.6c3,3.8,4.1,1.4,5.3-1.5
	c10-23.5,20.3-46.9,29.8-70.7c2.6-6.5,4.1-14.4,3.1-21.3C1097.2,539.2,1080.7,526.8,1058.5,526.9z"/>
<path class="st4" d="M1084.7,569.8c0,14.7-11.2,25.2-26.9,25.2c-13.8,0-25.2-11.5-25.1-25.6c0.2-18.6,13.1-27.6,24.6-28.2
	C1070.6,540.4,1084.8,555.7,1084.7,569.8z M1040.2,568.8c0.3,9.2,6.4,17.2,15.1,17.9c10.3,0.9,17.3-1.1,20.8-12.4
	c2.6-8.3-1.4-16.1-10.7-21.9c-9.5-5.9-18-3.4-22.7,6.9C1041.5,562.3,1041.1,565.7,1040.2,568.8z"/>
<path class="st5" d="M1058.5,526.9c22.2-0.1,38.7,12.2,41.4,32.5c0.9,6.9-0.5,14.8-3.1,21.3c-9.4,23.8-19.8,47.1-29.8,70.7
	c-1.2,2.9-2.3,5.3-5.3,1.5c-16.2-20.9-31.1-42.7-40.9-67.6c-4.5-11.6-5.8-23.1-0.8-34.9C1025.4,537.7,1042.8,527,1058.5,526.9z
	 M1084.7,569.8c0-14-14.1-29.4-27.4-28.6c-11.5,0.6-24.4,9.6-24.6,28.2c-0.1,14.1,11.2,25.7,25.1,25.6
	C1073.5,595,1084.7,584.5,1084.7,569.8z"/>
<path class="st0" d="M796.2,335.2c-19.2-1.2-31.9-9.9-37.4-26.2c-5.4-16.2,0-33.7,13.9-44.6c1.6-1.2,3.2-2.4,4.9-3.5
	c20-13.2,43.8-5.4,52.5,17.2c8.6,22.2,1.2,43.7-18.7,52.9C806.6,333.1,801.2,333.8,796.2,335.2z M795.8,326.8c4-1,8.2-1.4,11.9-3.1
	c21.1-9.5,24.2-40.3,5.8-55.7c-9.7-8.1-15.2-8.8-26.2-2.7c-3.8,2.1-7.5,4.3-10.8,7.1c-9,7.6-13.4,17.4-11.2,29.2
	C768.3,317.7,777.3,324.8,795.8,326.8z"/>
<path class="st0" d="M780.1,434.4c0,0-12.1-27.5-17.7-40.9c-10.3-24.7-20.7-49.3-30.3-74.2c-3.6-9.4-6.8-19.5-7.1-29.4
	c-0.9-26.5,10.4-48.1,33.6-61c31.4-17.4,68.9-14.9,97.9,12.2c19.8,18.4,23.7,42.1,18.6,67.5c-4.5,22.8-15.6,43-27.1,62.8
	c-13.2,22.6-28.1,44-45.5,63.6c-3.6,4.1-8,6.3-13.5,6.2C781.7,441.1,780.1,434.4,780.1,434.4z M800.8,226c-3.2,0.4-7,0.8-10.8,1.4
	c-11.6,1.7-22.9,4.5-32.5,11.7c-19.1,14.4-33.2,42.8-19.5,75.6c16.2,38.9,32.7,77.7,49.1,116.6c1.9,4.6,6.6,5.2,9.6,1.1
	c13.6-19.3,27.7-38.3,40.3-58.2c13-20.5,24-42.2,30.2-65.9c5.7-21.6,1.9-42-12.9-58.4C840.6,234.8,822.1,227.3,800.8,226z"/>
<path class="st6" d="M800.8,226c21.3,1.3,39.8,8.7,53.4,23.9c14.8,16.4,18.6,36.8,12.9,58.4c-6.2,23.7-17.2,45.4-30.2,65.9
	c-12.6,19.9-26.8,38.9-40.3,58.2c-2.9,4.1-7.6,3.5-9.6-1.1c-16.4-38.8-32.9-77.7-49.1-116.6c-13.7-32.9,0.4-61.2,19.5-75.6
	c9.6-7.2,20.9-10,32.5-11.7C793.8,226.8,797.6,226.4,800.8,226z M796.2,335.2c5.1-1.4,10.4-2.1,15.1-4.3
	c19.9-9.2,27.3-30.7,18.7-52.9c-8.7-22.6-32.6-30.4-52.5-17.2c-1.7,1.1-3.3,2.3-4.9,3.5c-13.8,10.9-19.2,28.4-13.9,44.6
	C764.2,325.2,777,333.9,796.2,335.2z"/>
<g>
	<path id="loc_x5F_01" class="st7" d="M214.1,251.6c2-4.4,3.8-8.9,6.1-13.2c3.9-7.3,9.5-13.2,16.2-18c10.3-7.3,21.5-12.9,33.6-16.4
		c14-4.1,27.7-3,41.4,1.5c18.4,6,33.4,16.5,43.7,33.1c2.5,4.1,4.2,8.8,6.2,13.2c2.5,8.8,3.4,17.7,2.9,26.8
		c-0.6,11.8-3.5,23.1-8.3,33.8c-5.2,11.6-11.2,22.9-17,34.1c-12,23.1-24,46.2-36.2,69.3c-2.1,4.1-4.4,8.2-7.2,11.9
		c-2.8,3.7-6.7,3.9-10.1,0.7c-2.1-1.9-4-4.4-5.3-6.9c-5.3-9.6-10.2-19.6-15.7-29.1c-5-8.7-11-16.8-15.9-25.4
		c-6.7-11.9-12.9-24-19.4-36.1c1.8-2.8,1.7-5.2-0.6-7.7c-1-1.2-2-2.4-3.1-3.6c1.8-2.3,3.7-4.5,5.4-6.8c1.1-1.5,1.3-4.5,0.2-5.4
		c-1.7-1.4-3.3-0.7-4.9,0.4c-2.4,1.7-4.8,3.4-7.2,5c-8-14.6-10.6-30.2-8.5-46.6C211.1,261.2,212.8,256.4,214.1,251.6z M315.7,251.1
		c-0.9-1.2-1.7-2.5-2.8-3.4c-7.7-6.9-16.6-10.2-27-9.8c-10.7,0.4-18.6,5.4-24.7,13.7c-0.9,1.3-2,2.6-2.8,4
		c-3.6,6.5-6.2,13.3-4.4,20.9c1.8,7.7,5.3,14.7,10.1,20.9c2.6,3.4,5.9,6,10,7.5c13.8,5.1,26.5,2.8,38.3-5.6
		c3.7-2.7,6.6-6.1,8.1-10.5c0.9-2.7,2.3-5.3,3-8c0.7-2.8,1.3-5.8,1.1-8.6c-0.6-7.1-3.1-13.6-7.2-19.5
		C316.8,252.1,316.2,251.7,315.7,251.1z"/>
	<g id="person">
		<path class="st8" d="M218.9,312.7c2.4-1.7,4.8-3.3,7.2-5c1.5-1.1,3.2-1.8,4.9-0.4c1.1,0.9,0.9,4-0.2,5.4c-1.7,2.2-3.5,4.5-5.4,6.8
			c1.1,1.2,2.1,2.5,3.1,3.6c2.2,2.6,2.4,4.9,0.6,7.7c-1.4,4.6-4.7,7.5-8.7,9.8c-1.4,0.8-2.8,0.1-4.1-0.9c-0.7-0.6-1.7-1-2.7-1.2
			c-1.5-0.3-3.1-0.5-4.9-0.8c-2.3,2.5-4.6,5.3-7.3,8c-3.3,3.4-6.8,6.6-10.3,9.8c-2.2,2-4.9,2.9-7.9,2.9c-4.2,0-8.3-0.4-12-2.4
			c-0.4-0.2-1.2-0.3-1.5-0.1c-1.5,1.2-2.8,0.4-4.1-0.5c-2.6-1.8-5.2-3.7-7.9-5.5c-0.2,0-0.3,0-0.5,0c0,0.2,0.1,0.3,0.1,0.5
			c0.7,4.9,1.4,9.8,2.1,14.7c-0.9,0-1.7,0.1-2.5,0.1c-0.9-5.5-1.8-11-2.6-16.5c-0.1-0.7,0.3-1.6,0.5-2.4c0.7,0.2,1.5,0.3,2.1,0.7
			c3.6,2.1,7.1,4.4,10.8,6.7c2.8-5.4,5.5-10.6,8.4-16c-2.8-1.7-5.5-3.3-8.2-4.9c-7.1-4.1-14.1-8.1-22.2-9.9
			c-2.8-0.6-5.4-0.4-8.1,0.8c-3,1.3-6.2,2.2-9.4,2.7c-3.2,0.4-6,1.7-9,3.4c2.2,3.4,4.2,6.6,6.4,9.8c2,3,2.1,3,5.5,1.8
			c1.8-0.6,2.5-0.1,2.5,1.8c0,2.3,0.2,4.6,0.3,6.9c0.1,1.5,0.1,3.2,0.5,4.7c1,3.6,2.2,7.1,3.4,10.5c-0.5,2-0.8,4.1-1.5,6
			c-1.8,5-5.5,8.6-9.8,11.6c-2.7,1-5.3,2.1-8,3.1c-1,0.3-2.1,0.5-3.1,0.3c-3.8-0.4-9.8-6.6-10.3-10.4c-0.1-0.7-0.3-1.4-0.6-2
			c-0.6-1.3-0.6-2.8,0.6-3.4c0.7-0.4,2.2,0,3,0.5c1.8,1.2,3.6,2.4,6.4,2c-0.9-0.6-1.6-0.8-2-1.2c-1.3-1.5-2.7-3.1-3.7-4.8
			c-0.3-0.6,0.1-2.1,0.7-2.5s1.8-0.1,2.7,0.3c0.9,0.5,1.6,1.4,2.5,2c2.7,1.9,5.1,1.4,6.9-1.3c0.5-0.8,1-1.6,1.6-2.5
			c-2.1-1.5-4.3-3.1-6.3-4.7c-4-3.1-8.1-5.9-11.7-9.3c-5.6-5.3-4.7-11.4,2-15.3c3.9-2.2,8-4.2,11.9-6.3c0.6-0.3,1.2-0.7,2-1.2
			c-3.5-1.8-6.2-4-7.2-7.8c-1.5-5.5,1.2-10.6,6.7-12c2.7-0.7,5.5-0.9,8.3-1.3c5.1-0.8,9.3-3,12.9-6.7c4.5-4.8,10.1-6,16.3-4.7
			c2.8,0.6,4.9,2.2,6.4,4.7c1,1.8,1.8,3.7,2.7,5.6c0.5,1.1,0.3,1.8-0.8,2.5c-0.8,0.6-1.4,1.7-1.8,2.7c-0.4,0.9-0.5,1.9-0.6,2.9
			c-0.5,3.3-2.5,5.2-5.6,5.6c-3.6,0.5-3.7,1.2-4.3,4.9c10.7,5.5,21.7,10.4,31,18.7c5.5-4.5,11.1-8.8,16.5-13.4
			c1.1-0.9,1.4-2.9,1.8-4.4c0.8-3.1,1.5-6.3,2.1-9.4c0.3-1.5,1.1-2.5,2.7-2.6c1.6-0.1,2.5,0.8,3.1,2.2c0.6,1.5,1.2,3.1,1.8,4.8
			C214.8,316.2,216.9,314.4,218.9,312.7z M119,372c-4,4.9-8.3,3.1-12.7,0.5c2.4,4.1,6.2,4.5,10.4,4.5c-2.7,3.4-6,0.9-9,0.7
			c2.7,4.8,7.1,2.4,11,2.6c-1.4,2.8-3.9,2-5.9,2.7c1.8,1.5,3.6,1.5,5.5,0.9c4.3-1.3,8.1-3.7,11.2-6.9c7.4-7.8,7.1-17.7-0.6-25.1
			c-2.6-2.5-5.4-4.9-8-7.4c-0.4-0.4-0.4-1.2-0.6-1.8c0.6,0.1,1.4,0,1.9,0.4c2.1,1.6,4.1,3.4,6.1,5.1c0.9,0.8,1.9,1.5,3.1,2.4
			c0-2.4,0-4.4,0-6.5c-0.7,0.2-1.3,0.3-1.8,0.6c-2,1.1-3.4,0.4-4.5-1.3c-1.6-2.5-3.3-5-4.9-7.6c-0.9-1.5-1.7-3.1-2.7-4.9
			c-3.6,2-7.1,3.7-10.4,5.9c-3.5,2.4-3.8,5.7-1.2,9c0.6,0.8,1.3,1.5,2.1,2.1c2.1,1.8,4.3,3.5,6.5,5.2c3.3,2.6,6.7,5.2,9.9,7.9
			c2.1,1.8,2,2.4,0,4.2c-0.6,0.5-1.1,1.1-1.5,1.8c-2.2,2.9-4.7,3.7-8,2.1c-1.3-0.6-2.5-1.5-3.7-2.2c0.2,1,0.5,2.2,1.2,2.6
			C114.4,370.3,116.5,371,119,372z M152,321.6c0.1-0.9,0.3-1.5,0.3-2.1c0.4-3.1,0.8-3.4,3.7-4.1c1-0.2,2-0.3,2.9-0.7
			c2.8-1.2,3.1-3.7,1-5.8c-0.6-0.6-0.9-1.4-1.4-2.1c0.2-0.2,0.4-0.3,0.6-0.5c0.9,0.5,1.9,1,2.8,1.4c2.1-2,2.4-4,0.9-6.5
			c-1.3-2.3-2.5-4.4-5.3-5.2c-0.6,1.8-1,3.5-1.9,5.1c-0.6,1-1.7,2.1-2.8,2.2c-1.8,0.3-2,1.1-1.5,2.4c0.9,2.5,0.2,4.6-1.2,6.7
			c-1.7,2.5-3.4,4.9-5.2,7.5C147.3,320.4,149.5,320.9,152,321.6z"/>
		<path class="st9" d="M156.9,365.1c0.9,0,1.7-0.1,2.5-0.1c3.2,4.8,6.5,9.5,9.6,14.3c1.1,1.7,1.6,3.6,2.5,5.5
			c-1.1,0.3-2.2,0.7-3.4,1c-5.3,1.1-10.6,2.1-15.9,3.2c-1.4,0.1-2.8,0.3-4.1,0.4c-0.9,0.1-1.8,0.2-2.6,0.3c-1.1,0-2.2,0.1-3.3,0.1
			c-4.8,0.3-9.6,0.5-14.4,0.8c-0.9,0-1.9,0-2.8,0c0.5-2.6,1-5.2,1.5-7.7c4.3-3.1,8-6.5,9.8-11.6c0.7-1.9,1-4,1.5-6
			C144.1,365.1,150.5,365.1,156.9,365.1z"/>
		<path class="st10" d="M148.1,389.3c1.4-0.1,2.8-0.3,4.1-0.4c0.7,0.9,1.4,1.8,2.1,2.7c2.8,3.2,5.5,6.5,8.6,9.6
			c2.9,2.9,3.5,5.9,2.2,9.8c-1.5,4.6-2.3,9.4-3.5,14.2c4.2,0,8.2,0,12.4,0c1.1-7.4,2.2-14.6,3.3-21.9c0.4-2.5-0.3-4.8-1.8-6.9
			c-2.5-3.6-5-7.1-7.5-10.7c1.1-0.3,2.2-0.7,3.4-1c1.9,3,3.7,6.1,5.8,8.9c2.7,3.6,3.4,7.5,2.7,11.8c-1.2,7.3-2.6,14.5-3.8,21.8
			c-0.3,1.7-0.3,3.4-0.6,5.1c-0.3,2.5,0.7,4.3,2.8,5.8c1.8,1.2,3.4,2.8,4.9,4.3c0.6,0.6,0.8,1.6,1,2.5c0.6,2.5,0.1,3.1-2.4,3.3
			c-4.1,0.3-8.2,0.3-12.2,0.6c-2.7,0.2-3.5-1.8-4.9-3.7c-0.6,2.7-2.2,3.8-4.7,3.7c-2-0.1-2.8-1.2-2.6-3.1c0.5-9.3,0.6-18.6,3.1-27.6
			c1-3.5,1.7-7.1,2.4-10.7c0.1-0.6,0-1.5-0.3-1.9c-4.6-5.3-9.3-10.5-14-15.7C148.6,389.6,148.3,389.5,148.1,389.3z M173.1,428.4
			c-3.8,0-7.4,0-11,0c-0.4,0-1,0.9-1.1,1.4c-0.3,1.9-0.3,3.8-0.4,5.8c-0.2,3.5-0.4,7-0.6,10.4c2.2,0.3,2.1,0.2,3.2-2
			c0.4-0.9,1.3-1.5,2.1-2.2c0.6,0.6,1.5,1.2,1.7,2c0.6,2,1.8,2.4,3.7,2.2c3.6-0.3,7.2-0.3,10.8-0.3c0.1-0.3,0.3-0.6,0.4-0.9
			c-1.3-1.1-2.5-2.5-3.9-3.3c-3.8-2.1-5.7-5-5.2-9.4C173,431,173,429.8,173.1,428.4z"/>
		<path class="st11" d="M124.8,390.5c0.9,0,1.9,0,2.8,0c-3.6,11.5-7.1,22.9-10.7,34.3c3.4,0,6.2,0,9,0c0.5,0,1.1-0.6,1.3-1.1
			c4.9-11.3,9.8-22.6,14.7-33.9c1.1,0,2.2-0.1,3.3-0.1c-4.9,11-9.9,22-14.8,33c-0.5,1.1-0.4,2.4-0.6,3.6c-0.6,2.4-1.2,4.8-2,7.2
			c-1.6,5-1.8,4.4,2.7,6.4c3.2,1.4,4.8,4,4.6,7.1c-0.1,1.4-0.6,2.1-2.1,2.1c-4.6-0.1-9.2-0.1-13.7-0.2c-1.7,0-3.1-0.7-3.5-3
			c-1.5,2.4-3.4,3.1-5.8,2.7c-1.8-0.3-2.5-1.2-1.9-3c4.6-15.2,9.1-30.5,13.7-45.7C122.8,396.5,123.9,393.5,124.8,390.5z
			 M132.5,446.4c0.1-3-2.1-3.7-4-4.7c-4.6-2.1-5-3.3-3.2-8c0.8-2,1.5-3.9,2.4-6.1c-2.5,0-4.5,0-6.6,0c-5,0-5,0-6.5,4.8
			c-1.3,4.5-2.7,8.9-4,13.4c0.2,0.2,0.4,0.4,0.6,0.6c0.8-0.6,1.7-1,2.5-1.7c0.6-0.5,0.9-1.3,1.4-1.9c1.3-1.4,2.4-1.1,3,0.6
			c0.3,0.9,0.5,1.9,0.8,2.9C123.4,446.4,127.9,446.4,132.5,446.4z"/>
		<path class="st6" d="M156.9,365.1c-6.4,0-12.8,0-19.1,0c-1.1-3.5-2.3-7-3.4-10.5c-0.4-1.5-0.4-3.1-0.5-4.7
			c-0.1-2.3-0.3-4.6-0.3-6.9c0-1.9-0.7-2.4-2.5-1.8c-3.4,1.2-3.5,1.2-5.5-1.8c-2.2-3.2-4.2-6.4-6.4-9.8c3.1-1.7,5.8-3,9-3.4
			c3.2-0.4,6.4-1.4,9.4-2.7c2.7-1.2,5.2-1.4,8.1-0.8c8.1,1.8,15.2,5.8,22.2,9.9c2.7,1.6,5.4,3.2,8.2,4.9c-2.8,5.5-5.6,10.7-8.4,16
			c-3.7-2.3-7.2-4.5-10.8-6.7c-0.6-0.4-1.4-0.5-2.1-0.7c-0.2,0.8-0.6,1.6-0.5,2.4C155.1,354.1,156,359.6,156.9,365.1z"/>
		<path class="st2" d="M119,372c-2.5-0.9-4.6-1.7-6.7-2.7c-0.7-0.4-1-1.5-1.2-2.6c1.2,0.8,2.5,1.6,3.7,2.2c3.3,1.6,5.8,0.9,8-2.1
			c0.5-0.6,1-1.2,1.5-1.8c2-1.8,2.1-2.4,0-4.2c-3.2-2.7-6.6-5.2-9.9-7.9c-2.2-1.7-4.4-3.4-6.5-5.2c-0.8-0.6-1.5-1.4-2.1-2.1
			c-2.7-3.4-2.4-6.7,1.2-9c3.2-2.2,6.8-3.9,10.4-5.9c1,1.8,1.7,3.4,2.7,4.9c1.6,2.5,3.3,5,4.9,7.6c1.1,1.8,2.5,2.4,4.5,1.3
			c0.5-0.3,1.1-0.3,1.8-0.6c0,2.1,0,4.1,0,6.5c-1.2-0.9-2.1-1.6-3.1-2.4c-2-1.7-4-3.4-6.1-5.1c-0.5-0.3-1.2-0.3-1.9-0.4
			c0.2,0.6,0.2,1.4,0.6,1.8c2.6,2.5,5.4,4.9,8,7.4c7.7,7.5,8,17.3,0.6,25.1c-3.1,3.3-6.9,5.6-11.2,6.9c-1.9,0.6-3.8,0.6-5.5-0.9
			c2-0.8,4.5,0,5.9-2.7c-4-0.2-8.4,2.2-11-2.6c3.1,0.2,6.3,2.8,9-0.7c-4.1,0-8-0.3-10.4-4.5C110.7,375.1,115,376.8,119,372z"/>
		<path class="st2" d="M222.7,324.8c-0.1,0.2-0.3,0.4-0.4,0.6c1.3,2.1,5.1,3.2,3.2,6.7c-3.5-3.5-3.5-3.5-5.4-3.4
			c0.7,0.8,1.2,1.6,1.8,2.2c1.3,1.4,1.6,3,0.8,4.7c-0.9,1.7-2.4,2.4-4.7,2.1c0.6-0.9,1.2-1.8,1.5-2.8c0.3-0.6,0.1-1.4,0.1-2.1
			c-0.6,0.3-1.3,0.4-1.7,0.9c-1.6,1.8-3.5,2.5-5.8,1.9c-0.1,0-0.1,0-0.2-0.1c-2.5-0.7-4.4-0.1-6.2,1.7c-4.7,4.6-9.4,9.2-14.2,13.8
			c-5.4,5.1-13.6,5.5-19.9,0.9c2.1-4.2,4.3-8.5,6.4-12.9c1.5,0.9,2.9,1.8,4.2,2.7c1.5,1.1,3.1,1.2,4.5,0c5.4-4.3,10.9-8.6,16.2-13
			c2.4-2,3-4.9,3.4-7.9c0.3-2.5,0.8-4.9,1.2-7.4c0.2,0,0.5-0.1,0.7-0.1c0.5,1.5,0.7,3.2,1.4,4.6c1.1,2-0.4,3.2-1.3,5.2
			c1.3-0.7,2.2-1,2.9-1.5c5.2-3.9,10.4-7.9,15.5-11.9c0.7-0.6,1.5-1.1,2.2-1.6c0.2,0.2,0.4,0.4,0.6,0.6c-0.9,1.3-1.8,2.6-2.8,3.8
			c-2.2,2.5-4.6,4.9-6.7,7.5c-0.4,0.5-0.4,1.3-0.6,2c0.7-0.1,1.6,0,2-0.3c1.2-1,2.2-0.8,2.9,0.3c0.9,1.2,1.4,2.7,2.1,4
			C226.6,326.2,224,325.2,222.7,324.8z"/>
		<path class="st12" d="M152,321.6c-2.5-0.6-4.7-1.2-7.1-1.8c1.8-2.6,3.4-5.1,5.2-7.5c1.4-2,2.1-4.2,1.2-6.7
			c-0.5-1.3-0.3-2.2,1.5-2.4c1-0.1,2.2-1.2,2.8-2.2c0.9-1.5,1.3-3.3,1.9-5.1c2.8,0.8,4,2.8,5.3,5.2c1.4,2.5,1.2,4.5-0.9,6.5
			c-0.9-0.4-1.8-0.9-2.8-1.4c-0.2,0.2-0.4,0.3-0.6,0.5c0.5,0.7,0.8,1.6,1.4,2.1c2.1,2,1.8,4.6-1,5.8c-0.9,0.4-1.9,0.5-2.9,0.7
			c-2.9,0.6-3.3,1-3.7,4.1C152.2,320,152.1,320.7,152,321.6z"/>
		<path class="st2" d="M226.6,326.1"/>
		<path class="st5" d="M168,385.7c2.5,3.6,5,7.1,7.5,10.7c1.4,2.1,2.1,4.4,1.8,6.9c-1.1,7.3-2.2,14.5-3.3,21.9c-4.2,0-8.2,0-12.4,0
			c1.2-4.8,2-9.6,3.5-14.2c1.3-3.9,0.7-6.9-2.2-9.8c-3-3.1-5.8-6.4-8.6-9.6c-0.7-0.9-1.4-1.8-2.1-2.7
			C157.5,387.9,162.8,386.8,168,385.7z"/>
		<path class="st13" d="M142.1,389.8c-4.9,11.3-9.8,22.7-14.7,33.9c-0.2,0.5-0.8,1.1-1.3,1.1c-2.8,0.1-5.7,0-9,0
			c3.5-11.4,7.1-22.9,10.7-34.3C132.5,390.3,137.3,390,142.1,389.8z"/>
		<path class="st14" d="M173.1,428.4c-0.1,1.4-0.1,2.5-0.3,3.7c-0.6,4.4,1.3,7.4,5.2,9.4c1.5,0.8,2.6,2.1,3.9,3.3
			c-0.1,0.3-0.3,0.6-0.4,0.9c-3.6,0.1-7.2,0-10.8,0.3c-2,0.2-3.1-0.2-3.7-2.2c-0.2-0.8-1.1-1.3-1.7-2c-0.7,0.7-1.6,1.3-2.1,2.2
			c-1.1,2.2-0.9,2.3-3.2,2c0.2-3.4,0.4-6.9,0.6-10.4c0.1-1.9,0.2-3.9,0.4-5.8c0.1-0.5,0.7-1.4,1.1-1.4
			C165.7,428.4,169.3,428.4,173.1,428.4z"/>
		<path class="st14" d="M132.5,446.4c-4.6,0-9.1,0-13.7,0c-0.3-1-0.5-2-0.8-2.9c-0.6-1.8-1.7-2-3-0.6c-0.5,0.6-0.8,1.4-1.4,1.9
			c-0.7,0.6-1.6,1.1-2.5,1.7c-0.2-0.2-0.4-0.4-0.6-0.6c1.3-4.5,2.7-8.9,4-13.4c1.5-4.8,1.5-4.8,6.5-4.8c2.1,0,4.1,0,6.6,0
			c-0.9,2.2-1.6,4.2-2.4,6.1c-1.8,4.7-1.3,5.8,3.2,8C130.4,442.6,132.5,443.4,132.5,446.4z"/>
		<circle cx="160.3" cy="301.8" r="0.8"/>
	</g>
</g>
<g class="st15">
	<path d="M757.7,466.2h0.5c0.9,0,1.5,0.5,1.6,1.6c0,1-1.3,1.5-4,1.5c-4.2,1.6-7.1,3.9-8.5,7l-0.3,1.5v0.3c0,1.5,1,2.2,2.9,2.2
		l5.5-0.3c3.7,0,6.2,1.8,7.5,5.4l0.3,1.8c0,3.5-2.8,6.6-8.4,9.5c-1.7,0.5-3.1,0.8-4.4,1c-3.4,0-5.8-1.9-7.2-5.8
		c-0.4-1.3-0.6-2.6-0.6-4c0-0.4,0.3-0.8,1-1.2h0.6c1,0,1.6,1.3,1.6,4c0.9,2.6,2.2,3.9,4.1,3.9h1.3c2.7,0,5.4-1.6,8-4.7
		c0.7-1,1.1-2.1,1.1-3.2c0-1.6-1.3-2.8-3.9-3.5h-0.2l-6.5,0.2c-3.6-0.4-5.5-1.9-5.5-4.5L744,478c0-3.4,2.6-6.8,7.7-10
		C753.9,466.8,755.9,466.2,757.7,466.2z"/>
	<path d="M769.8,477.8c1.3,0,3.6,2.4,6.8,7l0.1,0.9c0,0.9-2.3,1.6-6.8,2.1l-0.2,0.2v0.2c0.7,3,1.4,4.5,2.2,4.5h0.6
		c1.1,0,2.7-1.2,4.9-3.5h0.3c0.7,0,1.2,0.5,1.6,1.5c0,0.8-1.4,2.2-4.2,4.1c-0.7,0.4-1.6,0.8-2.6,1c-2.7,0-4.6-2.5-5.7-7.6
		c-1.5-0.2-2.3-0.9-2.3-1.9c0-0.7,0.6-1.2,1.7-1.5v0.2l0.5-0.2v-1.2C766.6,479.7,767.7,477.8,769.8,477.8z M770.1,481.4h-0.4
		l-0.2,1.8v1.5h0.2c1.9-0.1,2.8-0.3,2.8-0.6C771.6,482.9,770.8,482,770.1,481.4z"/>
	<path d="M785.6,477.8c1.3,0,3.6,2.4,6.8,7l0.1,0.9c0,0.9-2.3,1.6-6.8,2.1l-0.2,0.2v0.2c0.7,3,1.4,4.5,2.2,4.5h0.6
		c1.1,0,2.7-1.2,4.8-3.5h0.3c0.7,0,1.2,0.5,1.5,1.5c0,0.8-1.4,2.2-4.2,4.1c-0.7,0.4-1.6,0.8-2.7,1c-2.7,0-4.6-2.5-5.7-7.6
		c-1.5-0.2-2.3-0.9-2.3-1.9c0-0.7,0.6-1.2,1.7-1.5v0.2l0.5-0.2v-1.2C782.3,479.7,783.4,477.8,785.6,477.8z M785.9,481.4h-0.5
		l-0.2,1.8v1.5h0.2c1.9-0.1,2.8-0.3,2.8-0.6C787.4,482.9,786.6,482,785.9,481.4z"/>
	<path d="M808.6,468.3c0.6,0,1.1,0.5,1.5,1.6l-2.2,13.9v3.9c0,4.1,0.6,6.1,1.9,6.1c0.8,0.4,1.2,0.9,1.2,1.6c0,0.8-0.7,1.2-2,1.3
		c-1.5,0-2.6-1.3-3.5-4H805c-1.2,2.7-2.7,4-4.5,4c-2.1,0-3.3-1.6-3.8-4.7c0-3.6,2.4-7.5,7.3-11.5c1,0,1.5-1.3,1.5-4
		C806.4,471,807.4,468.3,808.6,468.3z M799.8,491.7v1.3l0.8,0.8h0.3c1.1,0,2.3-3.2,3.8-9.6h-0.3
		C801.4,487.2,799.8,489.7,799.8,491.7z"/>
</g>
<g class="st15">
	<path d="M1014.3,467h0.5c0.9,0,1.5,0.5,1.6,1.6c0,1-1.3,1.5-4,1.5c-4.2,1.6-7.1,3.9-8.5,7l-0.3,1.5v0.3c0,1.5,1,2.2,2.9,2.2
		l5.5-0.3c3.7,0,6.2,1.8,7.5,5.4l0.3,1.8c0,3.5-2.8,6.6-8.4,9.5c-1.7,0.5-3.1,0.8-4.4,1c-3.4,0-5.8-1.9-7.2-5.8
		c-0.4-1.3-0.6-2.6-0.6-4c0-0.4,0.3-0.8,1-1.2h0.6c1,0,1.6,1.3,1.6,4c0.9,2.6,2.2,3.9,4.1,3.9h1.3c2.7,0,5.4-1.6,8-4.7
		c0.7-1,1.1-2.1,1.1-3.2c0-1.6-1.3-2.8-3.9-3.5h-0.2l-6.5,0.2c-3.6-0.4-5.5-1.9-5.5-4.5l-0.2-0.7c0-3.4,2.6-6.8,7.7-10
		C1010.5,467.6,1012.5,467,1014.3,467z"/>
	<path d="M1026.4,478.7c1.3,0,3.6,2.4,6.8,7l0.1,0.9c0,0.9-2.3,1.6-6.8,2.1l-0.2,0.2v0.2c0.7,3,1.4,4.5,2.2,4.5h0.6
		c1.1,0,2.7-1.2,4.9-3.5h0.3c0.7,0,1.2,0.5,1.5,1.5c0,0.8-1.4,2.2-4.2,4.1c-0.7,0.4-1.6,0.8-2.6,1c-2.7,0-4.6-2.5-5.7-7.6
		c-1.5-0.2-2.3-0.9-2.3-1.9c0-0.7,0.6-1.2,1.7-1.5v0.2l0.5-0.2v-1.2C1023.2,480.6,1024.2,478.7,1026.4,478.7z M1026.7,482.3h-0.5
		l-0.2,1.8v1.5h0.2c1.9-0.1,2.8-0.3,2.8-0.6C1028.2,483.8,1027.4,482.8,1026.7,482.3z"/>
	<path d="M1044.3,476.9c2.1,0,3.3,1.5,3.8,4.4v0.5c0,3.2-1.7,6.2-5,8.9c1.9,1.9,5.3,2.9,10.2,2.9c0.7,0.2,1.1,0.8,1.1,1.5
		c0,0.9-0.6,1.3-1.8,1.3c-3.3,0-6.7-0.8-10.3-2.5v1.5c0,3.4-0.7,5.2-2.2,5.2c-1,0-1.5-2-1.5-6v-3.9l-0.2-1.4l0.4-1.6l-0.4-4.8v-0.2
		c0-0.9,0.5-1.5,1.4-1.8C1041,478.2,1042.5,476.9,1044.3,476.9z M1041.8,487.9c1,0,2-1.7,3.2-5.2v-2.1l-0.6-0.7h-0.5
		C1042.5,480.9,1041.8,483.5,1041.8,487.9z"/>
	<path d="M1056.5,470.6c1.3,0.3,1.9,0.8,1.9,1.7c-0.3,0.9-0.9,1.4-1.6,1.4c-1.2-0.2-1.9-0.8-1.9-1.8
		C1055.3,471,1055.8,470.6,1056.5,470.6z M1058.4,477.6c0.5,0,1,0.5,1.3,1.5l-0.4,3.5v2.3c0,2.7,0.5,6.3,1.4,10.8
		c-0.3,0.6-0.9,1-1.7,1c-1.4,0-2.3-4-2.7-12v-1.8C1056.3,479.3,1057,477.6,1058.4,477.6z"/>
	<path d="M1067.8,478.7c1.3,0,3.6,2.4,6.8,7l0.1,0.9c0,0.9-2.3,1.6-6.8,2.1l-0.2,0.2v0.2c0.7,3,1.4,4.5,2.2,4.5h0.6
		c1.1,0,2.7-1.2,4.8-3.5h0.3c0.7,0,1.2,0.5,1.5,1.5c0,0.8-1.4,2.2-4.2,4.1c-0.7,0.4-1.6,0.8-2.7,1c-2.7,0-4.6-2.5-5.7-7.6
		c-1.5-0.2-2.3-0.9-2.3-1.9c0-0.7,0.6-1.2,1.7-1.5v0.2l0.5-0.2v-1.2C1064.5,480.6,1065.6,478.7,1067.8,478.7z M1068.1,482.3h-0.5
		l-0.2,1.8v1.5h0.2c1.9-0.1,2.8-0.3,2.8-0.6C1069.5,483.8,1068.8,482.8,1068.1,482.3z"/>
	<path d="M1089.1,476.4c0.9,0,1.5,1.5,1.8,4.5c-0.3,0.8-0.9,1.2-1.6,1.2c-0.5-0.1-1.1-0.7-1.6-1.8l-0.9-0.3c-1.6,0-3,1-4.2,3.1v0.5
		c0,0.5,2.3,1.3,7,2.5c2,1.2,3,2.6,3,4.2c0,2.7-2.2,5.1-6.6,7l-1.8,0.3c-2.8-0.3-4.2-1.7-4.2-4.2v-0.1c0-0.8,0.5-1.3,1.5-1.4
		c0.8,0,1.3,0.8,1.6,2.5l0.4,0.3h0.9c1.9,0,3.7-1.3,5.3-3.9v-0.7c0-1-2.2-1.9-6.5-2.8c-2.3-0.9-3.5-2.2-3.5-3.9
		c0-2.2,1.8-4.2,5.5-6.1C1086.6,477.1,1088,476.8,1089.1,476.4z"/>
	<path d="M1122,466.2c1.6,0,2.5,1.2,2.8,3.6v0.1c0,1.2-0.7,3.8-2,7.9l2.3-0.5c2.9,0,4.5,1.8,5,5.5v0.8c0,4.4-2.8,8.4-8.3,12
		c-1.8,0.7-3.1,1-3.9,1c-2.7,0-4.6-1.6-5.6-4.7c0.1-0.4,0.5-0.9,1.2-1.5c0.4-15.1,0.7-22.6,1-22.6c0.6-0.6,1.1-0.9,1.5-0.9
		c0.9,0.3,1.3,0.9,1.3,1.6h0.2C1118.9,466.9,1120.4,466.2,1122,466.2z M1119,485.4l-0.8,0.3l-1.2-0.1v0.1l-0.2,0.7v5.2l-0.2,1.8
		l1.1,0.3c2.8,0,5.6-2.1,8.4-6.4c0.8-1.9,1.2-3.5,1.2-4.7c0-1.5-0.7-2.3-2.2-2.3h-0.2C1123.3,480.3,1121.3,482,1119,485.4z
		 M1117.1,482.3h0.2c2.7-5.2,4.2-9.2,4.3-12v-1.2h-0.5c-0.7,0-1.6,1.9-2.8,5.7C1117.5,478.3,1117.1,480.8,1117.1,482.3z"/>
</g>
<g class="st15">
	<path d="M1380.5,471.4c0.8,0,1.3,0.4,1.5,1.2l-0.3,3v1c0.8,6.9,1.3,12.3,1.5,16.1c0.4,3.6,0.8,5.4,1.2,5.4c0,0.7-0.6,1.1-1.8,1.3
		c-1.7,0-2.5-3.4-2.5-10.1l-1.4-13v-0.5C1378.8,472.8,1379.3,471.4,1380.5,471.4z"/>
	<path d="M1396.2,466.2h0.8c5.4,0,8.9,2,10.5,5.9l0.2,1.6v0.5c0,3.9-2.4,7.4-7.1,10.8c-1.1,0.3-1.7,0.7-1.7,1.1
		c1.3,5.1,2,9.3,2,12.5v0.7c0,1.3-0.6,2-1.7,2c-0.8-0.1-1.2-0.5-1.2-1.2v-1.2c0-3.8-0.7-8-2.1-12.5c-2.7-0.2-4.2-1-4.5-2.2v-0.3
		c0-0.6,0.5-1.1,1.4-1.4l2.2,0.8v-0.1c-1.1-4.9-1.7-8.3-1.7-10c0-1,0.6-1.5,1.7-1.5c1,0,1.5,1.8,1.5,5.3l1.5,6
		c2.4-0.8,4.3-2.4,5.6-4.7c0.7-1.3,1.1-2.5,1.1-3.5v-0.7c0-2.7-2.3-4.3-7-4.6h-2.1c-4.6,0.5-6.8,1.6-6.8,3.2v0.3
		c0,0.5,0.3,1.3,0.8,2.3c0,0.7-0.6,1.2-1.8,1.4c-1.3-0.6-2-1.9-2-3.9C1385.8,469,1389.3,466.8,1396.2,466.2z"/>
	<path d="M1416.1,472l1.2-0.2h0.5c0.7,0,1.4,0.4,2.2,1.2c1.5,0,3.5,1.8,6.2,5.5c2.3,4.3,3.5,8.2,3.5,11.5c0,4.6-1.7,7.7-5,9.2
		l-3.2,0.7c-5,0-8.6-3.8-10.8-11.2c-0.5-2-0.8-3.9-0.8-5.8v-0.5C1410,476.8,1412,473.4,1416.1,472z M1415.6,476.8l-1.1-0.5
		c-1,1.2-1.5,3-1.5,5.4v1.3c0,6.2,2.1,10.7,6.2,13.5l1.4,0.3h1.9c1.7,0,3-1.1,3.8-3.2l0.3-2.2v-1.5c0-5-2-9.5-6-13.5l-2-0.6h-0.1
		C1417.8,475.8,1416.9,476.1,1415.6,476.8z"/>
</g>
<g>
	<g id="BMc_x5F_01">
		<g>
			<g>
				<g>
					<g class="st16">
						<g class="st16">
							<g>
								<path class="st17" d="M473.5,630.1c-0.3,1.2-0.6,2.7-0.6,4.3c-1.5-0.1-3.3-0.3-4.8-0.6c1,4.2,1.9,8,2.8,12.1
									c0.1,3.1,0,6.3,0,9.1c4.3,3.6,5.7,3.7,9.7,8.5c0.3,2.5,0.6,5.1,0.7,7.6c-2.4-0.3-5.1-0.4-7.6-0.7c-1.3-0.1-2.7-0.3-4-0.4
									c-1-1.6-1.8-3-2.7-4.6c-1.2,2.4-2.7,4.6-4,7l-2.1-0.3c-1.5-1.5-2.7-2.5-4.3-3.6c1.8,6.1-2.8,0.6-2.7,4.3
									c-4.8-1.8-10.1-9.7-9.4-2.7c-1.8-2.7-4.6-4-6.8-4c1.2,10.1-4.9-7.6-3.9,2.5c-2.1-4.6-6.8-5.4-6.7-0.9
									c-7.4-1.9-15.3-1.6-21.7,1c-3.6,1.3-10.7,1.8-15.6-4.2c-0.9,1,0.6,4.2,0.7,6.4c-1-0.7-2.5,0.4-3-2.1
									c-0.9-2.1-1.6-1.8-2.4-1.9c-0.6,0.9,0,2.8,0.3,4.5c-6.8-6.3-10.6-3.6-14.3-0.9s-7.4,5.2-14.1-1.3c1.9,7.3-3,1.3-1.3,8.9
									c-3.3,0.9-6.5,1.6-9.7,2.5c-3.9,2.1-9.7-1-14.3-1.3c-2.7-3.1-3.7-1-3.4,2.4c-3.3-0.3-6.4-0.4-9.7-0.9c-3.3-3.6-4.9-4-6.8,0
									c-2.2-0.4-4.5-1-6.5-1.5c-4.3-2.8-6.4-2.8-4.8,2.1l-1.2-0.3c-1.9-0.1-3.7,0-5.7,0.1c-0.4,0.1-1,0.7-1.6,0.9
									c-1.5-0.7-3.3-1.8-4.8-2.4c-2.2-2.8-2.1,2.4-2.5,3.9c-2.2-0.6-4.3-1-6.5-1.6c-3.3-3.1-3,1.5-4.2,0.4l-11.8-3.1
									c-1.3,2.5-3,2.1-4.8,1.6c-0.4-1-0.7-2.1-1-3.1c-0.7-0.1-1.2-0.3-1.9-0.4c-1.6,2.1-3.3,2.2-4.3,4.8c-0.6-0.1-1.2-0.3-1.9-0.6
									c-0.4-0.7-0.9-1.2-1.5-2.1c-1.2-0.3-2.5-0.7-3.7-1c-1.2,0.3-2.1,0.4-3,0.7c-0.6,0.7-1,1.6-1.6,2.8c-0.6-1.5-1-2.5-1.6-3.7
									c-1.2,0-2.1,0.4-3,0.7c-1.2-0.3-2.1-0.6-3.1-0.9c-0.7,1.3-1.3,2.5-2.1,3.9c-1.8,0.4-3.4-1.9-5.1-7.6
									c-0.9,1.3-1.8,2.7-2.7,3.7c-0.6-0.1-0.9-0.3-1.3-0.4c-1.6,1.8-3.4,3.1-4.9,4.9c-3.3-0.6-5.5,2.8-9.4-1.6
									c-0.4,1.5-1,3-1.3,4.5c-1.2,0-2.1,0.3-3,0.6c-0.7,6.3-6-2.2-7.1,3.9c-1.8-0.6-3.9-1.2-5.7-1.8c-0.3-3.3-0.6-6.4-0.9-9.7
									c0.3-1.5,0.4-3.1,0.7-4.3c1,0.7,2.2,1.6,3.3,2.4c2.2,3.3,1.2-4.2,2.2-3.9c1.6-1,3.3-2.1,5.2-2.8c1.8,0.6,3.3,1,5.1,1.6
									c3.1-2.2,6-4.6,9.1-6.5c1.3,0.4,2.5,0.7,3.9,1.2c1.8-0.1,3.7-0.1,5.5,0c-1-2.8-1.9-5.7-2.8-8.5c0.6-4.3,4.9,0.3,2.5-8.5
									c5.4-0.9,13.7,6.5,14.7-7.7c0.9-8,2.4-7.9,3.9-8c0.7,1.8,1.6,3.7,2.4,5.2c1,3.6,1.9,5.4,2.7,7.1c1.9,2.1,1.3-2.8,1.9-4.2
									c0-3.4,0.1-7,0.3-10.4c5.2,0.1,10.4,0.7,15.8,1.2c3.6,5.1,3.1-1.6,4.3-3.3c0.7,0.1,1.6,0.4,2.5,0.6c1.3,0.7,2.8,1.6,4,2.4
									c4,3.6,2.1-2.7,3.3-1.9c0.3-0.6,0.6-1,1-1.3c5.5,6.4,4-2.1,6.1,0c0.9,1.2,1.9,2.4,3.1,3.9c0.1-1.2,0.4-2.1,0.6-3
									c0.6,0.1,0.9,0.3,1.3,0.3c4.8,3.7,1-5.1,3.7-3.6c0.6,0.4,1.3,1.3,2.1,2.1c0.9-1,1.6-1.8,2.5-2.5c0.6,1,2.5,4.8,3.9,8.5
									c0.3,0,0.4,0.1,0.6,0.1c1-5.7,6.3-6.4,9.5-5.2c1.6-2.4,6.3,0.4,9.5,2.2c0.9-5.5,4.3-3.1,7-1.6l6.4,1.5
									c2.1,0.4,4.3,0.9,6.4,1.3c-0.7-6.4,2.2-2.1,1.9-5.5c0.7-2.1,4.8-1.2,6.8,3c0.4,0.1,0.7,0.1,1.3,0.3c1.2-5.4,2.2-2.4,4.2-6.7
									c5.2,1.3,10.6,3,15.9,4.6c0.9-0.4-0.9-4.2,0.6-3c1.9-2.4,2.7,5.5,5.1,5.7c-0.3-6.8,4.5-0.7,4-6.7c5.7,8.5,7.4-0.6,12.6,3.4
									c6-1.8,12.1-3.9,18-5.8c2.7-0.6,7.1,1.8,11,6.1c0.6,0.1,1.2,0.1,1.9,0.3c1.6,0.6,3.4,1.5,5.1,2.4c-0.4-2.2-0.7-4.2-1-6.1
									c5.5,1,11.5,2.5,16.8,3.6c3-4.9,7.4-0.9,12.5-1.2c0.4-1.5,0.1-4.6,1.3-4.5c0.9,0.1,1.8,0.1,2.7,0.3c3.1-2.4,5.8-2.1,8.9-0.1
									c1.8,0.1,3.6,0.4,5.4,0.6C480.7,631.6,476.4,630.4,473.5,630.1z"/>
							</g>
							<g>
								<path class="st18" d="M459.7,622.4c-1.2-0.1-0.9,3-1.3,4.5c-4.9,0.4-9.4-3.7-12.5,1.2c-5.5-1-11.3-2.4-16.8-3.6
									c0.4,1.9,0.6,3.9,1,6.1c-1.6-0.9-3.6-1.8-5.1-2.4c-0.7-0.1-1.3-0.1-1.9-0.3c-3.9-4.3-8.5-6.5-11-6.1c-6.1,1.9-12.1,4-18,5.8
									c-5.2-4-7,5.1-12.6-3.4c0.4,6-4.3-0.1-4,6.7c-2.4-0.1-3.1-8-5.1-5.7c-1.5-1.2,0.3,2.5-0.6,3c-5.4-1.6-10.7-3.3-15.9-4.6
									c-1.9,4.3-3,1.3-4.2,6.7c-0.6-0.1-0.9-0.1-1.3-0.3c-2.1-4.2-6.1-5.1-6.8-3c0.3,3.6-2.7-0.9-1.9,5.5
									c-2.1-0.4-4.3-0.9-6.4-1.3l-6.4-1.5c-2.7-1.5-6.1-3.9-7,1.6c-3.4-1.6-8-4.6-9.5-2.2c-3.3-1-8.5-0.4-9.5,5.2
									c-0.3,0-0.4-0.1-0.6-0.1c-1.5-3.9-3.4-7.4-3.9-8.5c-0.9,0.7-1.8,1.5-2.5,2.5c-0.7-0.7-1.5-1.6-2.1-2.1
									c-2.7-1.6,1.2,7.3-3.7,3.6c-0.4-0.1-0.7-0.1-1.3-0.3c0.1,1,0.3,1.9,0.6,3.3l-1.2-0.3c-1.2-1.5-2.1-2.7-3.1-3.9
									c-1.9-2.1-0.6,6.4-6.1,0c-0.9-2.8-1.8-5.5-2.7-8.3c0-1.9,0.1-4,0.3-6c4.3,1.8,4-1.2,6.3-1.5c2.1,3.4,3.3,1.8,4.8,2.8
									c1.3,0.6,2.7,1.6,4,2.5c5.8-5.8,10.6-2.7,15.9-5.2c4.2,3.9,4.5,0.4,5.5-3.1c-5.5-5.4-3.9,0.3-6.1-0.1
									c-0.9-1.5-1.8-3.3-2.7-5.1c-4.2,4-10.3,0.6-15-3.7c-1.2,1.6-2.2,3.6-3.3,5.1c-1.2,0.6-2.7,1.2-3.9,2.1
									c-1.9-3-3.7-6.1-5.7-9.1c-5.1-4.5-7.3-5.1-9.4-7.3c-1.3,1.2-2.4,2.5-3.6,3.7c-2.5-1.3-5.1-2.7-7.7-3.7
									c-0.6-3.6-1.2-7.6-1.8-11.2c1,0.3,2.1,0.6,3,0.9c6.1,8.9,5.1,1.6,7.4,2.1c0.6,1.5,1.2,2.5,1.8,3.7c1-0.6,2.1-1.3,3-2.4
									c3,3,5.7,5.7,8.5,8.6c0-8.8,2.4-6.5,3.6-6.5c2.4,6.3,3.3-1,5.4-0.1c0.3-1.8,2.1-1.9,2.7-4c0.9,0.3,1.6,0.4,2.5,0.6
									c0.1,0,0.4,0.1,0.4,0.1c0.3,1.6,0.6,3.3,0.9,4.9c1.5,0.7,3.1,1.8,4.8,2.8c1-2.8,2.1-2.5,3.9-2.2c-0.1-3.1-0.4-6.1-0.6-9.2
									c0.7,0.1,1.6,0.4,2.4,0.6c0.9,1.2,1.6,2.2,2.5,3.7c0.7-2.1,1.6-3.7,2.5-5.4c0.4,0.4,0.9,1.2,1.5,1.6l1.9,0.4
									c1.2,3.4,2.5,6.8,3.7,10c0-7.7,6.3,0.6,7.1-5.8c4.5,4.5,5.2,3.7,6,2.8c0.7,1,1.3,2.2,1.9,3.6c0,1.9,0,3.7,0,6
									c0.4,1,0.9,2.1,1.3,3.1c1.5,0.3,3,0.6,4.5,0.9c-1,3.9-2.2,5.5-4.2,0.6c-0.9,0.4-1.9,0.4-2.8,0.9c-5.2,4.8-14-2.7-16.1,7
									c3.4,3.3,5.2,5.2,5.2,2.5c5.5,1.8,10.9,1,16.7,0.7c5.8-0.1,11.9,0.4,18.8,5.7c0.6-2.1,1.2-3.7,1.8-5.8
									c6.1,0.3,14.4,5.2,18,0.6c0.1,1.3,0.7,2.4,1.3,3c3.1,1.5,1-7.3,2.4-8.2c1.5,1.2,3,2.4,4.6,3.6c3.6,9.1,3.1-2.5,6-0.4
									c2.5,1.6,5.1,3.1,7.3,4.3c2.7-0.4,8-1.5,6.7-10.7c0.3-0.6,0.6-1.2,0.9-1.3c3.7-0.6,7.6-0.9,11.5-1.3c0.9,3.6,1.9,7.4,2.8,11
									c1.8,2.7,3.4,1.5,5.1,2.4c0.7,0.1,1.2,0.1,1.9,0.3c0-1.2,0-2.2-0.1-3.1c2.2,0.3,4.3,0.6,6.5,0.9c0.4-2.1-1.2-6.1-0.1-7.4
									c0.9,0.1,1.8,0.3,2.7,0.4c1.6,3.3,3.4,6.4,5.2,9.7c1.3,2.7,2.5,1.2,3.7,2.1c-0.4-4.5,2.7-3.4,3.1-7c1.3,0.1,2.7,0.3,4,0.6
									c1.5,2.7,2.5,1.2,3.7,1.6c3.7,5.4,4.6,4,5.8,6.8C458.8,621.3,459.2,621.9,459.7,622.4z"/>
							</g>
							<g>
								<path class="st17" d="M445.1,611.8c-0.4,3.7-3.4,2.7-3.1,7c-1.3-0.7-2.4,0.6-3.7-2.1c-1.6-3.3-3.4-6.4-5.2-9.7
									C437.1,608.6,441.1,610,445.1,611.8z"/>
							</g>
							<g>
								<path class="st17" d="M424.1,613.3c0.1,0.9,0.1,1.9,0.1,3.1c-0.7-0.1-1.2-0.1-1.9-0.3c-1.6-0.9-3.3,0.4-5.1-2.4
									c-0.9-3.6-1.9-7.4-2.8-11c2.7,1,5.1,1.8,7.6,2.7c2.8,0.4,5.7,0.7,8.5,1.2c-1,1.3,0.7,5.4,0.1,7.4
									C428.4,613.9,426.4,613.6,424.1,613.3z"/>
							</g>
							<g>
								<path class="st17" d="M394.1,574.3c1.5,10.4-5.1,1.3-5.2,7.7c-1-1.5-2.1-3.1-3.1-4.9c-0.4-1.9-1-4.2-1.5-6.1
									c0.7-2.1,1.6-3.7,2.2-5.5c2.5,2.2,4.8,4.6,7.3,7.1C393.8,573.1,393.9,573.7,394.1,574.3z"/>
							</g>
							<g>
								<path class="st17" d="M352.8,550.1c-0.9-1.3-1.6-2.5-2.5-3.6c-0.4-1.6-0.7-3-1-4.6c-0.9-7.3,2.4-2.8,3.7-3.9
									c0.6,3.3,2.2,7.6,1.8,9.4C354,548.3,353.4,549,352.8,550.1z"/>
							</g>
							<g>
								<path class="st19" d="M366.8,581.2c-1.5-1.8-2.8-3.7-4.2-5.2c-2.1-1.9-1.8,1.8-3.1,2.1c-0.7,1.3-1.3,2.8-2.1,4.2
									c0.3,1.9,0.4,3.9,0.9,6.1c-1.5-0.9-3-1.8-4.2-2.4c-1-2.7-2.1-5.4-3.1-8c-6.4-5.4-5.8,1.3-7.7,2.7c-0.4-0.1-0.7-0.1-1.3-0.3
									c-1.9-0.7-3.9-1.8-6-2.5c-0.7,0.1-1.5,0.6-2.2,0.7c-1.2,0.3-2.2,0.7-3.4,0.7c-0.4-0.1-0.7-0.1-1.2-0.3
									c-1.3-0.3-2.5-0.6-3.7-0.9c-0.4-0.1-0.9-0.1-1.3-0.3c-1.3,0.3-2.7,0.3-3.9,0.6c-0.6-0.1-0.9-0.1-1.3-0.3
									c-2.1,0.4-4.2,0.9-6.3,1.6c-0.3,0.3-0.6,0.7-0.9,1l-1.9-0.4c-0.4-0.4-0.9-1.2-1.5-1.6c-3.1-3-6.8-5.8-5.1,1.6
									c-0.7-0.1-1.6-0.4-2.4-0.6c-1.2-0.6-2.7-1.6-4-2.5c-0.7,4.8-3.3,4.5-4.8,6.3c-0.1,0-0.4-0.1-0.4-0.1
									c-0.9-0.3-1.6-0.4-2.5-0.6c-1.3-1.6-2.5-3.6-3.9-5.4c-1.2-0.3-2.4-0.6-3.6-0.9c0.1,4.8-2.7,6-3.7-0.9
									c-1.3,3.7-3.3,1.6-4.6,0.3c-0.7,0.1-1.5,0.4-2.1,1c0.3,5.7-2.2,2.8-2.7,5.2c-1.6-0.4-3.1-0.9-4.9-1.3c-1-1.5-2.1-2.8-3-4
									c0.1,5.4-2.7,4.6-3.1,2.2c-1-2.8-1.8-5.5-0.6-3.3c-2.7-0.7-4.5-1.9-3.7,2.1c-1.6,0.4-3.3,0.9-4.9,1.3
									c-1.2-0.7-2.5-1.6-3.9-2.4c0.1,1.3,0.4,3,0.7,4.6c-1.2-0.3-2.4-0.7-3.6-1c-1.9-1.2-3.9-2.1-5.8-3.3c0.3,1.6,0.4,3.3,0.7,4.9
									c-2.1-0.6-4.5-1.3-6.5-1.9c-0.1,5.7-2.5,3-3.6,3.3c-1.5-3.6-2.7-8.8-4.5-3c-1,0.3-2.2,0.3-3.3,0.6c-2.5-0.7-4.9-1.5-7.3-2.2
									c-0.1,4.3-2.8,2.8-3.7,6.4c-1.8-1.5-3.4-3.1-5.2-4.9c-5.2-0.4-7.3,3.6-11.9,5.2c-2.7-2.8-4-1.8-3.9-4.3c0.6-6.1,3-4.3,3-8.2
									c1.3-0.1,2.7-0.3,4-0.3c-0.3-6.5,5.4,2.4,3.6-8c1.3,1.3,2.7,2.8,4,4.5c4.3-1.9,10.9-1.5,15.3-5.8c1.5,1,2.8,1.9,4.3,3
									c0.6-0.4,2.2,1.9,2.1-0.9c1.5-1.5,5.5-1.8,8.3,5.8l1.2,0.3c1.5-4.6,3.1-2.5,3.3-5.1c-1.3-5.2,1.3-3.4,2.2-4
									c1.8-1,1.9,3.1,4.6,7.3c0.6-6.8,3.9-4.5,3.7-9.2c7.7,8,11.6-1,18.8,2.2c0.7,1.8,1.6,3.6,2.8,6.7c0.7-1,1.5-2.4,2.2-3.7
									c0.4-1.5,1-2.8,1.6-3.9c7.6,12.1,3.7-12.8,10.7,1.3c0.6-0.4,2.1,1.8,2.1-1c-1.8-5.8,0.1-4.3,1.6-4c0.4,2.2,0.9,6.5,2.4,6.5
									c2.8,3,2.4-5.4,3.4-6.5c1.8,0.4,3.7,0.9,5.5,1.3c5.1,1.5,10,3.4,15,5.2c0.7-0.1,1.6,0.7,1.6-1.2c-1.9-5.8,0-4.6,1.5-4.3
									c0.1,1.6,0.7,2.4,1.3,3.4c1.9-0.7,1.9-3.6,4.8-1.9c0.9,4.3,2.1,3,3.1,7c2.7-3.1,6.3-3.3,10-3.1c3.7,0.1,7.7,0.7,11-1.3
									c-7-8.9-14.3-10.6-17.4-7c-1.6,1.5-1.9-3.3-3.7-3.6c-3,5.2-10.4-1.8-14.3,0.9c-3.9,1.2-11.2-1.2-13.4,2.5
									c-1.3-1.3-2.8-2.5-4.2-3.9c-1-3.4-2.1-6.7-3-9.8c1.3-0.9,2.7-1.5,4.2-2.1c-0.6-5.8,3.3-1,4.8-1.6l6.1,1.5
									c0.6-2.1,0.6-5.5,1.6-5.8c2.2,1.8,4.5,3.3,6.7,4.8c5.4-2.4,12.8,1.2,18.6,0c4.8,1,7,0,9.1-1c2.8,0.9,5.8,2.2,8.9,3.4
									c0.4,1.6,0.7,3,1,4.6c-0.6,1.3-1.3,2.8-1.9,4.2c1,7.3,3.7,4.2,5.5,5.5c0.1,0,0.4,0.1,0.4,0.1c4.5,4,5.8,4.3,7,4.6
									c1.3,0.6,2.8,1.5,4,2.1c0.9,2.7,1.6,5.2,2.5,7.9c0.7,3.3,1.5,6.5,2.2,9.4C369.1,580.6,368,580.7,366.8,581.2z"/>
							</g>
							<g>
								<path class="st17" d="M306,534.7c-1.2,0.3-1.2,3.7-1.6,5.8l-6.1-1.5c-0.3-3.9-0.6-7.3-0.9-10.9c2.1-0.1,4.2,0.1,6.3,0
									C304.3,530.3,305.2,532.7,306,534.7z"/>
							</g>
							<g>
								<path class="st20" d="M248.5,681.3c-4,2.4-4.6,11.2-9.4,5.1c-1.2,0-2.4,0.3-3.7,0.6c-2.2,4.8-8.3-0.6-12.6-2.1
									c0.9,15.6-7,4.3-8.6,11.3c-3.3-0.6-6.1-7-9.5-7.7c-1.6,7.4-6.5,4-5.2,15.5c-1.6-0.4-3.1-0.9-4.8-3.1c-1,5.8-4.2,3-6.5,2.8
									c-0.9,1.6-1.8,3.6-2.7,5.2c-6.1-5.2-7.6,3-13.1,0.3c-1.5,3.1-5.4-0.1-4.2,9.7c-4-1.6-5.8,0-8.3,4.9c3,8.5,7,6.3,8,16.7
									c-1.6,12.2-9.8-8.8-9.1,6.4c-1.3-1-3.6,0.1-4-3c-3.7-3.3-6-14.7-10-19c-1.3-1.8-3.9-4-3.6-9.1c0.3-2.8,0.9-6,1.3-8.9
									c1,0,2.1-0.3,3.1-0.1c1.2,1.6,2.2,3.7,3.4,5.8c0.9-2.4,2.8-3.3,2.7-6.8c2.7,2.5,3.3,2.8,4.8-3c0.9-3,1.6-6,2.5-8.5
									c3-0.3,5.8-0.3,8.6-0.3s5.7,0,8.6,0c1-4.2,4.6-2.4,6.3-5.7c0.6,0.4,1.3,1.3,1.9,1.9c1.2-0.6,2.4-1.2,3.6-1.8
									c1.8,0.6,3.9,1.2,5.7,1.8c1-6.1,6.4,2.4,7.1-3.9c1-0.3,1.8-0.7,3-0.6c0.3-1.5,0.9-3,1.3-4.5c3.9,4.5,6.1,0.9,9.4,1.6
									c1.6-1.8,3.4-3.1,4.9-4.9c0.4,0.1,0.7,0.3,1.3,0.4c0.9-1,1.8-2.4,2.7-3.7c1.6,5.7,3.4,8,5.1,7.6c0.7-1.3,1.3-2.5,2.1-3.9
									c1,0.3,1.9,0.6,3.1,0.9c1-0.3,1.8-0.7,3-0.7c0.6,1,1,2.2,1.6,3.7c0.4-1.2,1-1.9,1.6-2.8c1-0.3,1.9-0.4,3-0.7
									c1.2,0.3,2.5,0.7,3.7,1C247.5,680.1,247.9,680.6,248.5,681.3z"/>
							</g>
							<g>
								<path class="st19" d="M186.6,594.9c0,0.3,0.1,1,0.1,1.6c-0.7,0.1-1.5,0.4-2.2,0.4c-1.3-0.4-2.8-1-4.3-1.5l-3-1
									c0.4,6.5-3.4-0.1-4.9,3.1c0.1,1.6,0.3,3,0.4,4.6c0,0.9-0.1,1.9-0.3,3.1c0-0.6-0.1-1.3-0.1-1.6c-1.5-2.1-3-4.3-4.6-6.1l-3-1
									c-1.2,0.9-0.3,5.7-1.3,5.7c-0.4-0.1-1.2-0.4-1.8-0.6c0.3,3,0.6,6.3,0.9,9.7c-0.7,2.2-0.9,5.2-1.9,3.9
									c-4.8-1.8-0.9,4.8-1,8.9c0.4,1.8,0.7,3.1,1,4.9c4.9-0.1,8-4,10.7-5.5c0.7,0.9,1.3,1.8,2.1,2.4c1,0.1,2.4-0.1,3.6-0.3
									c0.3-1.2,0.4-2.7,0.7-4.3c1.9,0.6,3.7,1.2,5.5,1.8c2.2,2.4,4.5,4.6,6.5,6.7c-0.3,2.1-0.7,3.9-1.2,6.1
									c-1.2-1.3-1.6,0.7-2.8,1.9c-4,3.6-8.9-3.7-10.3,4.3c-6-8.5-8.3,9.7-14.7-5.2l-3.1,11.5c0.7,2.2,1.5,4.5,2.2,7
									c0.3,3,0.4,6.3,0.9,11c2.4,2.1,4.8,3.9,7.1,5.7c-1.5,6.3-3.6,3.7-4.3,6.3c-0.6-0.1-0.9-0.3-1.3-0.4
									c-1.2,2.2-2.7,4.3-3.9,6.4c-0.1,0-0.4-0.1-0.6-0.1c-2.1-1.6-3.9-3.3-6-5.4c-0.1,0-0.4-0.1-0.6-0.1c-0.6,7.3-2.7,4.9-4.6,4.9
									c-1.6-0.3-3.1-0.1-4.9-0.4c-0.1,0.6-0.4,1.2-0.6,1.5c0.6,2.8,1,5.7,1.8,8.5c0.7,3.6,2.7,0.9,2.8,6c0.1,1.3,0.1,3,0.3,4.6
									c-0.1,0.9-0.4,1.8-0.4,3.1c-1,0-2.1,0.3-3.1,0.1c-1.9-2.4-1.3-5.7-1.8-8.5c-0.7-3-2.1-1.8-3.3-2.5
									c-5.2-10.7-5.1-3.1-8.8-4.9c-1.6-4.3-3.3-8.6-4.8-12.9c0.6-2.4,1.3-4.8,2.1-7.1c-0.1-3-0.3-6.4-0.4-9.7
									c1,0.4,2.1,0.7,3.1,1.2l0.6-10.6c1.3,0.9,3,2.1,4.5,3.3c0.3-0.6,0.7-1,1.2-1.2c0.4,0.4,0.9,1.3,1.2,2.1
									c3,2.7,3.1-2.1,3.6-9.7c0.6-4.6,2.8-0.3,3.7-4.8c-0.1-2.4-0.3-4.3-0.4-6.4c-0.4-4-0.9-7.7-1.3-11.5
									c-0.9-0.3-1.6-0.6-2.5-0.9c-0.6-2.2-1.3-4.8-2.1-7c-1-2.7-2.8-3.4-4.2-1.6c-0.1,0-0.3-0.1-0.4-0.1c-0.9-5.2-1.8-10.1-2.8-15
									c-1.2-0.4-0.1-5.2-1.6-8.5c-1.5-0.6-2.8-1.2-4.2-1.6c0.4-2.1,0.9-3.9,1.3-6c0.3-1.8,0.6-4,0.7-5.8c-1.3-2.5-2.5-5.2-3.9-7.7
									c0.7-5.8,2.8-4.3,3.4-8c1.8,1.3,3.6,2.4,5.2,3.7c0.3,3.7,0.4,7.3,0.7,11.3l2.8,1.2c1.2-8.6,4.2-6.1,7-5.1
									c-0.1,2.5-0.3,4.8-0.4,7.6c4.6,3.1,4.8-1.8,8.2,3.1c3.4-1.6,1.6-6.1,3.4-8.2c-6.3-8.2-6.4,4-10-3.9
									c-0.1-4.3-0.3-8.5-0.4-12.8c0.4-0.7,0.9-1.6,1.5-2.4c2.8-2.1,5.7-4,8.5-6.1c2.8-3.7,7.4,0,10.7-3.6c0.9-0.6,1.8-1.2,2.5-2.2
									c4.3,4.5,5.4,1,6.7-0.4l1,0.4c0.3,3,0.6,6.3,1,9.7c-3,3.1-3.3,9.4-5.4,8.6c-0.7-0.3-1.6-0.6-2.4-0.9
									c-0.4,0.7-0.9,1.6-1.3,2.7c-1-1-2.1-2.1-3.1-2.7c-2.4-2.2-1.5,6.3-2.8,6.7c-1.8-1.3-3.6-2.4-5.4-3.6c-2.1-1-0.1,5.8-1,8.9
									c1,0.3,1.9,0.7,3,1c2.2,3.4,2.1-3.7,3.7-3.1c1,1.6,2.2,3.7,3.4,5.8c3.1,4.8,0.9-6.1,3-5.1c5.5,8.2,3.9-0.9,6.3,0.7
									c3.4,6.4,3.1,0.4,4.8,3.3c0.1,1,0.6,2.1,0.9,3.3c1.2,1.6,2.2,3,3.3,4.3c1.6,0.6,3.1,1,4.8,1.6
									C186.2,589.5,186.3,592.2,186.6,594.9z"/>
							</g>
							<g>
								<path class="st17" d="M143.3,641.3c-0.9,4.5-3.3,0.1-3.7,4.8c-1.8-2.2-3.6-4.6-5.2-6.5c0.3-2.8,0.6-5.1,0.7-7.6
									c0.4-1.8,2.4-1.3,1.3-6c0.9-0.9,1.8-2.2,2.7-3.6c0.9,0.3,1.6,0.6,2.5,0.9c0.4,3.7,0.9,7.4,1.3,11.5
									C143,637,143,638.9,143.3,641.3z"/>
							</g>
							<g>
								<path class="st21" d="M135.9,655.7c-0.4-0.7-0.9-1.6-1.2-2.1c-0.4,0.1-0.9,0.6-1.2,1.2c-1.5-1.2-3-2.4-4.5-3.3l-0.6,10.6
									c-1-0.4-2.1-0.7-3.1-1.2c0.1,3.4,0.3,6.7,0.4,9.7c-0.7,2.4-1.3,4.8-2.1,7.1c-2.8-6-4.6-11.2-5.2-19.3c-3-4.8-3.1-4.8-4-7.7
									c-0.1-2.7-0.3-5.4-0.4-9.7c-0.3-2.7-0.6-5.5-1-8.2c-0.6-2.8-1.3-5.8-2.1-8.6c0.6-1.8,1.3-3.7,2.1-5.4
									c-0.9-3.3-1.9-7-2.8-10.6c0.3-1.9,0.6-4,0.9-5.8c1.3-2.4,2.7-5.1,4.2-7.7c1.5-2.1,2.7-4.2,4.2-6.1c-0.1-1-0.4-2.1-0.6-3.1
									c0.1-3.1,0.3-6.1,0.6-9.2l2.4-6.8c1.3,2.5,2.5,5.2,3.9,7.7c-0.3,1.8-0.4,4-0.7,5.8c-0.3,2.1-0.9,3.9-1.3,6
									c1.3,0.6,2.7,1,4.2,1.6c1.3,3.1,0.4,7.9,1.6,8.5c0.9,4.9,1.8,9.8,2.8,15c-1.6,2.2-3.3,4.9-4.9,7.6c-1.2-1.8-2.5-3.3-3.7-4.8
									c-0.4,3.4-0.7,7-1.2,10.6c0.9,3.9,1.6,7.9,2.5,11.8c0.9-1.3,1.8-2.2,2.8-3.6c2.1,1.2,4.5,2.7,6.7,4.2
									c1.8,1.9,3.4,4.2,5.2,6.5C139,653.6,138.7,658.6,135.9,655.7z"/>
							</g>
							<g>
								<path class="st17" d="M127.2,629.1l-4.9-1.9c-0.1-0.7-0.4-1.5-0.7-1.9c0.7-3,1.3-5.7,1.9-8.6c1.2,1.5,2.5,3,3.7,4.8
									C127.4,623.9,127.2,626.1,127.2,629.1z"/>
							</g>
							<g>
								<path class="st20" d="M477.6,644c-0.4,3.4-3,1.2-6.5,2.1c-0.9-4.2-1.8-7.9-2.8-12.1c1.5,0.1,3.3,0.3,4.8,0.6
									c0.7,1,1.3,2.1,2.2,3.4C476.7,640.7,477.1,642.3,477.6,644z"/>
							</g>
							<g>
								<path class="st20" d="M452.8,614.1c-0.3-4,1.9-2.2,3.1-2.4c0.9,2.8,1.8,6.1,2.7,9.2C457.3,618.1,456.4,619.4,452.8,614.1z"
									/>
							</g>
							<g>
								<path class="st20" d="M470,669.9c-2.7,0.6-3.6,6.7-6.7,2.4c1.3-2.4,2.7-4.6,4-7C468.2,666.9,468.9,668.1,470,669.9z"/>
							</g>
							<g>
								<path class="st20" d="M461.2,676.3c-0.9,0.9-1.8,1.6-2.5,2.8c-1.2-1.3-2.5-2.5-3.6-3.6c-4.8,0-9.8-0.3-14.6-0.3
									c-2.7,5.2-10.9,0.4-16.1,0.9c-2.4,5.7-11.2-1-15,2.1c-3.7,1-7.7,1.5-11.9,1.8c-4.2,0.1-8.5,0.1-12.6,0.1
									c-4.3,0-8.5,0-12.8,0.1c-4.2,0.1-8.2,0.4-12.1,1.3c0.6,3-1.5,0.9-3.9-3.6c-1.6-7.6,3.3-1.6,1.3-8.9
									c6.7,6.5,10.4,3.9,14.1,1.3c3.7-2.7,7.4-5.4,14.3,0.9c-0.3-1.6-0.9-3.6-0.3-4.5c0.7,0.1,1.5,0,2.4,1.9
									c0.4,2.5,2.1,1.3,3,2.1c-0.3-2.2-1.8-5.4-0.7-6.4c4.9,6,12.1,5.4,15.6,4.2c6.3-2.7,14.3-3,21.7-1c-0.1-4.5,4.8-3.7,6.7,0.9
									c-1-10.1,5.1,7.6,3.9-2.5c2.4,0,5.1,1.3,6.8,4c-0.7-7,4.6,0.9,9.4,2.7c-0.1-3.7,4.5,1.8,2.7-4.3c1.5,1.2,2.8,2.2,4.3,3.6
									C461.2,673.4,461.2,674.8,461.2,676.3z"/>
							</g>
							<g>
								<path class="st20" d="M435.7,652.2c0.3-4.3,1.2-4.2,2.1-4C443,656.3,437.1,654.5,435.7,652.2z"/>
							</g>
							<g>
								<path class="st20" d="M431.3,649.9c-2.5,10.3-8.6,2.5-13.5,2.7C421.9,649.2,425.3,646.6,431.3,649.9z"/>
							</g>
							<g>
								<path class="st20" d="M399.4,573.7c0.4,6-3.6,5.2-5.4,0.6c-0.1-0.6-0.3-1.3-0.4-1.6c-2.4-2.5-4.8-4.8-7.3-7.1
									c0.1-2.1,0.1-4,0.3-6.1c2.5-1,3.7,4.6,6.7,10.1c0.4-0.3,0.7-0.7,0.9-1.3c1,0.1,2.1,0.3,3.1,0.6c0.3,0.7,0.7,1.3,1,1.8
									C398.8,571.5,399.1,572.4,399.4,573.7z"/>
							</g>
							<g>
								<path class="st20" d="M402.1,605.4l-5.7-5.7c0.6-3,3.9-4.3,6.5,4.2C402.7,604.2,402.4,604.8,402.1,605.4z"/>
							</g>
							<g>
								<path class="st20" d="M393.8,604.1c-3.3-1.8-4.6,1-7.1,1.5c-4.3-1-8-3.3-10.6-3.4c-1-0.1-2.1-0.4-3.3-0.6
									c-1.3-3.7-3-2.1-4-6.7c-0.7-4.5-1.3-9.2-2.1-13.7c1.2-0.4,2.2-0.4,3.4-0.9c2.1,0.4,4.2,0.7,6.4,1.2c0.6-1.5,0-6.3,2.1-4
									c2.4-0.1,4.8-0.4,7.1-0.3c1,1.8,2.1,3.4,3.1,4.9c-1.6,4.6-4,5.5-3.9,11.3c2.8,5.2,1.6-2.5,3.4-0.9c1.5,2.4,4.2,3.3,6.7,7
									C394.7,601.1,394.1,602.6,393.8,604.1z"/>
							</g>
							<g>
								<path class="st20" d="M403,654.7c-1.2-4.9-0.7-7.3,1.8-5.7C407.2,655.7,406.1,659,403,654.7z"/>
							</g>
							<g>
								<path class="st20" d="M367.9,560.6l-2.4,2.4c-1.2-0.6-2.7-1.5-4-2.1c-1.2-0.3-2.5-0.4-7-4.6c-0.4-1.9-1-4.2-1.5-6.3
									c0.6-1,1.2-1.9,1.8-2.7c1.2,0.9,2.2,1.3,3.4,2.2c0.7-0.7,1.5-1.6,2.4-2.7c2.8,9.2,3.7,7.9,5.1,8.3c0.6,0.7,1,1.5,1.5,1.8
									C367.3,558.2,367.6,559.3,367.9,560.6z"/>
							</g>
							<g>
								<path class="st20" d="M331.3,539.5c-5.8,1.2-13.2-2.5-18.6,0c-2.2-1.5-4.5-3-6.7-4.8c-0.7-2.1-1.6-4.5-2.4-6.5
									c2.5-7,10.6,1.6,13.4-4.2c4.3,4.5,8.3,3,13.2,10.6c1.5-0.6,3.3-1.2,4.8-1.6c0-1.8,3.3-3,5.4,5.5
									C338.3,539.5,336.2,540.7,331.3,539.5z"/>
							</g>
							<g>
								<path class="st20" d="M332,678.9c-1,3.9-2.7,5.1-3.4,2.4C328.1,677.9,329.3,676,332,678.9z"/>
							</g>
							<g>
								<path class="st20" d="M298.2,539.1c-1.6,0.6-5.5-4.2-4.8,1.6c-1.5,0.6-2.7,1.2-4.2,2.1c-1.3-0.3-2.8-0.7-4.3-1.2
									c-0.1-0.6-0.3-1.3-0.3-1.6c-1.5-2.8-3-5.8-4.5-8.6c-1.6-0.4-2.1,2.5-3.3,3.4c-0.4-0.1-0.9-0.3-1.2-0.3
									c-1.6-0.4-3.3-0.9-4.8-1.3c-0.3,2.4-1.2,2.1-2.1,4.2c-0.4-0.1-0.9-0.3-1.2-0.3c-0.4,1.8-0.9,3.9-1.3,5.5
									c-1.9-0.6-4-1.2-6-1.8c-3.4-1.6-8.9-8.2-12.2-5.1c-4-0.3-7.9-0.6-11.9-0.4c-2.1,1.9-4.8,1.9-7.7,0.4
									c-3.7-7.7-4.5,0.1-7.3,0.9c0,1-0.1,1.9,0,3.1c-0.3-0.1-0.4-0.1-0.6-0.1c-0.9-0.9-1.8-1.8-2.5-2.4l-4.3,1.5
									c-2.4,0.4-4.8,0.6-7.1,0.7c-0.3-1-0.7-2.1-1-3.6c0.1-3.4,0.3-6.8,0.3-10.4c3.4,1.5,5.2-12.2,10.1,4.9
									c-1-12.6,2.4-6.7,3.7-5.1c1-1.5,2.2-3.4,3.3-4.9c2.4-1.5,1.9,4.2,4.6,9.1c0.1-4,0.3-7.7,0.4-11.8c5.2,3.3,9.1-0.6,13.7,2.8
									c-0.9-4.6,1.6-4.5,3.4-3.4c3.9,1.2,7.7,2.4,11.8,3.6c0.6,1.5,0.9,1.5,1,0.3c-2.1-7.7,2.8-4.2,2.2-10
									c1.5,0.4,2.8,5.8,4.6,10.4c0.9-1.9,1.9-3.6,3-5.1c1.6,3.6,3.4,0.6,5.2,4.3c3.3-3.4,5.1,7.3,6,1.6c-0.1-1-0.3-1.9-0.6-3
									c4.3,7.1,6.3-4.5,10.4,7.1c0.6-0.4,2.2,1.8,2.1-1c1.5,0,2.8-4.9,6.3,3.3C297.6,531.8,297.9,535.2,298.2,539.1z"/>
							</g>
							<g>
								<path class="st21" d="M312.7,609.9c-0.9,3.6-1.2,7-5.5,3.1c-5.4,2.4-10-0.6-15.9,5.2c-1.5-1-2.7-1.9-4-2.5
									c-1.3-0.3-2.5-0.6-3.7-1c-0.3-0.7-0.6-1-0.9-1.8c-2.2,0.3-1.9,3.3-6.3,1.5c-0.1,1.8-0.1,4-0.3,6c0.9,2.7,1.6,5.5,2.7,8.3
									c-0.4,0.1-0.7,0.7-1,1.3c-1-1.5-2.1-2.8-3-4c-0.6-0.1-0.9-0.3-1.3-0.3c-0.6-1-1-2.2-1.6-3.3c-0.6-0.1-0.9-0.3-1.3-0.3
									c0,2.5,0,4.8,0,7.6c-0.7-0.1-1.6-0.4-2.5-0.6c-0.6-1.8-1.3-3.6-1.9-5.2c-1.3,3.7-3.1,4.5-2.4,8.5c-5.4-0.6-10.6-1-15.8-1.2
									c-1.9-1.2-4-2.4-5.8-3.3c-1.9-0.9-0.3,4.6-1.6,5.5c-1.5,0.1-3,0-3.9,8c-1.9-1.8-3.6-3.3-5.4-4.8c-4.2-16.5-3.9,4-8.9-4.3
									c-0.3,5.1-2.5,1.8-4.2,0.3c-2.4-0.7-4.9-1.5-7.4-2.4c-1-0.3-2.1-0.6-3.1-1c-2.5,5.4-7-1.2-6.3,7.3c-3-1.6-5.7-2.8-8.6-7.3
									c-0.3,0.1-0.6,0.7-1,0.9c0.7,3.7,1.5,7.9,2.4,11.6c2.4,4.6,0.7,5.7,1,9.7c0.4,1.8,0.7,3.1,1.2,4.9c0.4,0.7,0.9,1.2,1.5,2.1
									c2.1,1,4.3,2.4,6.4,3.7c3.1,3.3,1.9-4.5,4.5-3.4c1.5,1.8,3.7,1.2,4.3,6.1c-3.1,1.9-6,4.3-9.1,6.5c-1.6-0.6-3.3-1-5.1-1.6
									c-1.8,0.7-3.6,1.8-5.2,2.8c-1-0.3,0,7.1-2.2,3.9c-1-0.6-2.2-1.6-3.3-2.4c-0.3,1.2-0.4,2.7-0.7,4.3c-1.2-1.3-2.2-2.7-3.4-4.3
									c-0.6-0.1-1.3-0.4-1.9-0.6c0,1.3-0.1,2.2-0.3,3.1c0.1,1,0.1,1.9,0.3,3.3c-2.8-2.5-5.4-5.1-8-7.6c-2.1,0-4-0.4-6.1-0.4
									c-2.4-1.8-4.8-3.6-7.1-5.7c-0.1-0.4-0.4-1.2-0.7-1.6c0.1-9.4-1.9-12.4-2.4-16.4l3.1-11.5c6.4,14.9,8.8-3.4,14.7,5.2
									c1.3-7.9,6.3-0.7,10.3-4.3c1.2-1.2,1.5-3.4,2.8-1.9c0.4-2.1,0.9-3.9,1.2-6.1c-2.2-2.1-4.3-4.3-6.5-6.7
									c-1.8-0.6-3.6-1.2-5.5-1.8c-0.1,1.5-0.4,3.1-0.7,4.3c-1.2,0.1-2.4,0.4-3.6,0.3c-0.6-0.6-1.3-1.5-2.1-2.4
									c-2.7,1.6-5.8,5.4-10.7,5.5c-0.3-1.6-0.6-3.1-1-4.9c0.1-4.2-3.7-10.7,1-8.9c1,1.3,1.2-1.5,1.9-3.9c-0.3-3.3-0.6-6.7-0.9-9.7
									c0.6,0.1,1.2,0.4,1.8,0.6c0.9,0,0.1-4.8,1.3-5.7l3,1c1.8,1.6,3.3,3.1,5.1,4.8c-0.1-1.6-0.3-3-0.4-4.6
									c1.5-3.3,5.2,3.4,4.9-3.1l3,1c0.3,2.4,0.4,4.3,0.6,6.7c2.4,0.1,2.8-3.3,3.6-5.2c0.7,0,1.5-0.4,2.2-0.4
									c0-0.7-0.1-1.3-0.1-1.6c-0.3-2.7-0.6-5.4-1-9.7c-0.1-1.6-0.3-3.3-0.4-4.6c0.3,0.1,0.7,0.3,1.2,0.4c-0.1,2.5,1.2,1.3,3.9,4.3
									c4.6-1.6,6.7-5.7,11.9-5.2c1.8,1.8,3.6,3.4,5.2,4.9c0.9-3.6,3.6-1.9,3.7-6.4c2.4,0.7,4.8,1.5,7.3,2.2c1-0.3,2.2-0.3,3.3-0.6
									c0.3-4.6,3.4-5.5,4-0.3c0.1,1.3,0.3,2.4,0.4,3.3c1.2-0.3,3.4,2.4,3.6-3.3c2.1,0.6,4.5,1.3,6.5,1.9c-0.3-1.6-0.4-3.3-0.7-4.9
									c1.9,1.2,3.7,2.1,5.8,3.3c1.2,0.3,2.4,0.7,3.6,1c-0.3-1.6-0.4-3.3-0.7-4.6c1.3,0.7,2.7,1.8,3.9,2.4c1.8-0.4,3.4-0.9,4.9-1.3
									c-0.7-4,1.2-2.8,3.7-2.1c-1.3-2.2-0.6,0.4,0.6,3.3c0.4,2.4,3.3,3.1,3.1-2.2c0.9,1.2,1.9,2.4,3,4c1.6,0.4,3.1,0.9,4.9,1.3
									c0.4-2.4,2.8,0.4,2.7-5.2c0.6-0.4,1.5-0.9,2.1-1c1.5,1.3,3.4,3.4,4.6-0.3c0.9,6.8,3.9,5.7,3.7,0.9c1.2,0.3,2.4,0.6,3.6,0.9
									c1.3,1.9,2.7,3.9,3.9,5.4c-0.6,2.1-2.4,2.2-2.7,4c-2.1-0.9-3,6.4-5.4,0.1c-1,0-3.6-2.2-3.6,6.5c-2.8-3-5.7-5.7-8.5-8.6
									c-0.9,1-2.1,1.6-3,2.4c-0.6-1.2-1.2-2.2-1.8-3.7l-2.2,4.2c-1.6-1.6-3.7,1.5-5.1-6.1c-1-0.3-2.1-0.6-3-0.9
									c0.6,3.6,1.2,7.6,1.8,11.2c2.7,1,5.2,2.4,7.7,3.7c1.2-1.2,2.2-2.5,3.6-3.7c2.2,2.2,4.3,2.8,9.4,7.3c1.9,3,3.7,6.1,5.7,9.1
									c1.2-0.9,2.5-1.5,3.9-2.1c1-1.6,2.1-3.6,3.3-5.1c4.8,4.3,10.9,7.7,15,3.7c0.9,1.8,1.8,3.6,2.7,5.1
									C308.8,610.3,307.2,604.5,312.7,609.9z"/>
							</g>
							<g>
								<path class="st20" d="M318.9,680.6c-1.2,3.6-5.1,2.7-6.8,0C314,676.6,315.6,677,318.9,680.6z"/>
							</g>
							<g>
								<path class="st20" d="M305.5,679.1c-1.5,3.9-3.7,4.8-4.8,2.1C299.3,676.3,301.4,676.3,305.5,679.1z"/>
							</g>
							<g>
								<path class="st20" d="M299.6,680.9c-0.6,8-3,3.4-5.7,0.1C295.8,680.9,297.6,680.7,299.6,680.9z"/>
							</g>
							<g>
								<path class="st20" d="M292.1,681.9c-2.4,3.6-5.4,4.8-7.3,1.3c0.4-1.5,0.3-6.5,2.5-3.9C288.8,680.1,290.6,681.2,292.1,681.9z
									"/>
							</g>
							<g>
								<path class="st20" d="M278.3,681.6c-1.3,3.1-4,6-4.2,0.4C275.3,683.1,275,678.5,278.3,681.6z"/>
							</g>
							<g>
								<path class="st20" d="M257.6,680.7c-2.8,4.3-6.3,7.1-7.3,1.2c1-2.5,2.7-2.7,4.3-4.8c0.6,0.1,1.2,0.3,1.9,0.4
									C257,678.6,257.3,679.5,257.6,680.7z"/>
							</g>
							<g>
								<path class="st20" d="M199.6,539.6c-2.2,4.3-2.8-6.7-4-1.3c-3.3-0.1-6.8,2.4-10.1,4.2c-1-0.4-1.9-0.7-2.8-1
									c-1.3-2.1-2.8-4.2-4-6.3c-1.9-0.4-3,5.7-3.4,9.5c-0.7-0.3-1.5-0.6-2.2-0.9l-1-0.4c-1.3,1.5-2.2,4.9-6.7,0.4
									c-0.9,1-1.6,1.6-2.5,2.2c-3.4,3.6-8-0.1-10.7,3.6c-2.8,2.1-5.5,4-8.5,6.1c-1.5-4.8-3-9.5-4.5-14.3c2.4-2.8,4.5-6.8,7.1-7.7
									c4.2-1,6.4-4.9,11.2-3.4c-0.7-8.3,5.4,6.5,4-4.5c1.3,1.2,3.4,4.2,4.5,1.6c-1.8-7,1.5-7.1,3-3.7c0,1.6,0.4,2.4,0.9,3.6
									c0.6-0.1,1.3,0.9,1.5-1c-1.5-6,0.9-4.5,0.9-7.3c1.5,1.5,2.4-0.7,2.4-3.6c2.8-2.7,9.5,11.8,8.5-1.6c2.2-0.7,7.1,6.4,6.3-2.2
									c-2.2-7.7,1.9-3.4-0.1-10.9c7.4-3,8.3,17,14.3,31C201.9,534.1,200.7,536.8,199.6,539.6z"/>
							</g>
							<g>
								<path class="st20" d="M136.3,626c1,4.6-0.9,4.3-1.3,6c-0.1,2.5-0.4,4.8-0.7,7.6c-2.2-1.5-4.5-3-6.7-4.2
									c-0.1-2.4-0.3-4.3-0.3-6.4c0-3,0-5.2,0-7.7c1.6-2.5,3.3-5.2,4.9-7.6c0.1,0,0.3,0.1,0.4,0.1c1.3-1.8,3.1-1,4.2,1.6
									c0.7,2.2,1.5,4.8,2.1,7C138.1,623.7,137.2,625.1,136.3,626z"/>
							</g>
							<g>
								<path class="st20" d="M125.3,560.9c-0.6,3.7-2.7,2.1-3.4,8l-2.4,6.8c-0.9-1.9-1.8-4-2.5-5.7c-0.1-3-0.3-5.4-0.4-8
									c3.1,0.3,4.6-11,8-4.5C124.7,558.8,125,559.9,125.3,560.9z"/>
							</g>
							<g>
								<path class="st18" d="M385.7,577.1c-2.4-0.1-4.8,0-7.1,0.3c-1.2-4.9-2.4-9.4-3.4-14l1.2,0.3c2.5,2.4,5.4,4.8,7.9,7.3
									C384.7,573,385.3,575.4,385.7,577.1z"/>
							</g>
							<g>
								<path class="st21" d="M402.1,605.4c1.3,9.2-3.9,10.3-6.7,10.7c-2.2-1.3-4.8-2.7-7.3-4.3l-3.3,4.2c-1.9-0.6-4.8-3.6-7.3-7.1
									c-1.5,1,0.6,9.8-2.4,8.2c-0.6-0.7-1.2-1.8-1.3-3c-3.6,4.6-11.9-0.4-18-0.6c-0.6,2.1-1.2,3.9-1.8,5.8
									c-7-5.2-13.1-5.8-18.8-5.7c-5.8,0.1-11.2,1-16.7-0.7c-0.1,2.8-1.9,0.9-5.2-2.5c2.1-9.5,10.9-2.2,16.1-7
									c0.9-0.7,1.6-1.5,2.5-2.5c-0.3-1-0.7-2.1-1.3-3.1c0-2.2,0-4,0-6c-0.6-1.3-1.2-2.5-1.9-3.6c-0.7,0.7-1.5,1.6-6-2.8
									c-0.9,6.4-7.1-1.9-7.1,5.8c-1.2-3.1-2.5-6.5-3.7-10c0.3-0.3,0.6-0.7,0.9-1c2.1-0.7,4-1.2,6.3-1.6c0.4,0.1,0.7,0.1,1.3,0.3
									c1.3-0.3,2.7-0.3,3.9-0.6c0.4,0.1,0.7,0.1,1.3,0.3c1.2,0.3,2.5,0.6,3.7,0.9c0.4,0.1,0.7,0.1,1.2,0.3c1.2,0,2.2-0.4,3.4-0.7
									c0.7-0.1,1.5-0.6,2.2-0.7c2.1,0.7,4,1.8,6,2.5c0.6,0.1,0.9,0.1,1.3,0.3c1.9-1.5,1.3-8.2,7.7-2.7c1,2.7,1.9,5.4,3.1,8
									c1.2,0.6,2.7,1.5,4.2,2.4c-0.4-2.2-0.6-4.2-0.9-6.1c0.7-1.5,1.3-2.8,2.1-4.2c1.3-0.3,1-4.2,3.1-2.1c1.3,1.5,2.8,3.3,4.2,5.2
									c0.7,4.5,1.3,9.2,2.1,13.7c0.9,4.5,2.7,3,4,6.7c1,0.1,2.1,0.4,3.3,0.6c2.5,0.1,6.3,2.4,10.6,3.4c2.4-0.4,3.7-3.4,7.1-1.5
									c0.4-1.5,0.9-3,1.3-4.5c0.6,0.1,0.9,0.1,1.3,0.3L402.1,605.4z"/>
							</g>
							<g>
								<path class="st22" d="M297.2,559.6c-1.8-0.4-3.7-0.9-5.5-1.3c-0.9,1.3-0.4,9.5-3.4,6.5c-1.5,0-1.9-4.3-2.4-6.5
									c-1.3-0.3-3.3-1.8-1.6,4c0,2.8-1.5,0.6-2.1,1c-7-14.1-3.1,10.7-10.7-1.3c-0.6,1-1.2,2.5-1.6,3.9c-0.7,1.3-1.5,2.7-2.2,3.7
									c-1.2-3.1-2.1-4.9-2.8-6.7c-7.1-3.3-11,5.7-18.8-2.2c0.1,4.8-3.1,2.5-3.7,9.2c-2.7-4.3-2.8-8.5-4.6-7.3c-1,0.6-3.6-1-2.2,4
									c-0.3,2.4-1.8,0.4-3.3,5.1l-1.2-0.3c-2.8-7.6-6.8-7.3-8.3-5.8c0,2.8-1.5,0.4-2.1,0.9c-1.5-1-2.8-1.9-4.3-3
									c-4.5,4.3-10.9,3.7-15.3,5.8c-1.3-1.6-2.7-3.1-4-4.5c1.8,10.4-3.9,1.6-3.6,8c-1.3-0.1-2.7,0-4,0.3c0,3.9-2.4,2.1-3,8.2
									c-0.4-0.1-0.9-0.3-1.2-0.4c0.1,1.3,0.3,3,0.4,4.6c-2.7-1.9-5.4-3.9-8-6c-0.3-1-0.7-2.2-0.9-3.3c-1.6-2.8-1.3,3-4.8-3.3
									c-2.4-1.5-0.9,7.4-6.3-0.7c-2.1-1,0.1,9.7-3,5.1c-1.2-2.1-2.2-4-3.4-5.8c-1.6-0.6-1.5,6.5-3.7,3.1c-1-0.3-1.9-0.7-3-1
									c0.9-3.3-1-10.1,1-8.9c1.8,1.3,3.6,2.4,5.4,3.6c1.3-0.4,0.4-8.8,2.8-6.7c1,0.7,2.1,1.8,3.1,2.7c0.4-1,0.9-1.9,1.3-2.7
									c0.7,0.3,1.6,0.6,2.4,0.9c2.1,0.7,2.4-5.5,5.4-8.6c-0.3-3.3-0.7-6.7-1-9.7c0.7,0.3,1.6,0.6,2.2,0.9c0.4-4,1.5-10,3.4-9.5
									c1.2,2.1,2.7,4.2,4,6.3c0.9,0.3,1.8,0.6,2.8,1c3.3-1.8,6.8-4.3,10.1-4.2c1.2-5.4,1.8,5.7,4,1.3c1.3,1.8,2.8,3.9,4.2,5.8
									c1.9,1.9,1.8-5.1,3.3-4.9c2.2,4.2,4.5,8.5,6.7,12.6c0.6-2.7,1.2-5.5,1.6-8.3c1.5,1.8,3.1,3.9,4.8,6
									c-0.9-5.4,1.3-6.8,0.6-11.8c0.1,0,0.3,0.1,0.6,0.1c1.3,1.6,2.7,3.7,4,5.8c1-3.1,1.6-8.3,3.1-9.7c3,1.6,5.7,1.5,7.7-0.4
									c4,0,7.9,0.3,11.9,0.4c3.3-3.1,8.8,3.6,12.2,5.1c1.9,0.6,4,1.2,6,1.8c1.8,3,3.7,6.1,5.5,9.1c2.2,2.5,1.9-2.7,2.2-3.7
									c1.3,0.6,2.7,1.6,3.9,2.2c1.2-1.5-2.4-9.7,0.1-8.6c0.4,0.4,0.9,1.2,1.3,1.6c1.8-0.4,3.6-0.9,5.5-1.3
									c1.3,0.3,2.8,0.7,4.3,1.2c0.9,3.1,1.9,6.4,3,9.8c1.5,1.3,2.8,2.7,4.2,3.9c2.2-3.9,9.5-1.3,13.4-2.5
									c3.9-2.7,11.3,4.3,14.3-0.9c1.8,0.4,2.1,5.1,3.7,3.6c3.1-3.6,10.4-1.9,17.4,7c-3.3,1.9-7.3,1.5-11,1.3
									c-3.7-0.1-7.3,0-10,3.1c-1-4-2.2-2.7-3.1-7c-2.8-1.6-3,1.2-4.8,1.9c-0.6-1-1.2-1.8-1.3-3.4c-1.3-0.3-3.3-1.5-1.5,4.3
									c0,1.9-0.9,1-1.6,1.2C307.2,563,302.1,561.1,297.2,559.6z"/>
							</g>
							<g>
								<path class="st18" d="M346,596.2c-1.9,0.1-3.9,0.4-6,0.3c0.7,2.1,1.6,4.5,2.7,6.5c-1.3-0.3-2.5-0.6-3.9-0.7c0-1.9-0.1-4,0-6
									c-1.5-1.3-3-2.5-4.5-3.7c-0.4-2.2-0.9-4.3-1.3-6.5l1.2,0.3c1.6,1.6,3.1,2.8,4.5,4c2.4,1.5,4.6,2.8,7,4.6
									C345.8,595.2,346,595.9,346,596.2z"/>
							</g>
							<g>
								<path class="st18" d="M285,541.4c-1.8,0.4-3.6,0.9-5.5,1.3c-0.4-0.4-0.9-1.2-1.3-1.6c-0.4-2.2-0.7-4.3-1.2-6.5
									c1.2-0.9,1.6-3.9,3.3-3.4c1.5,2.8,3,5.8,4.5,8.6C284.8,540.1,285,540.8,285,541.4z"/>
							</g>
							<g>
								<path class="st18" d="M267.7,628.8c-1.2,1.6-0.7,8.3-4.3,3.3c-0.7-4,1-4.8,2.4-8.5C266.5,625.4,267.1,627.2,267.7,628.8z"/>
							</g>
							<g>
								<path class="st18" d="M247.3,641.3c-0.6,1.5,0,6.4-1.9,4.2c-0.7-1.8-1.6-3.6-2.7-7.1c-0.9-1.5-1.6-3.4-2.4-5.2
									c1.2-0.9-0.3-6.4,1.6-5.5c1.9,0.9,3.9,2.1,5.8,3.3C247.5,634.3,247.3,637.7,247.3,641.3z"/>
							</g>
							<g>
								<path class="st18" d="M228.7,535.3c-1.5,1.3-2.1,6.7-3.1,9.7c-1.3-1.9-2.8-4-4-5.8c0-1.3,0-2.2,0-3.1
									c0.7-1.6,1.3-3.6,2.1-5.4l4.8,1.5C228.6,534.3,228.6,535,228.7,535.3z"/>
							</g>
							<g>
								<path class="st18" d="M230.4,592.2c1.5-3,3.6-6.1,4.8,1.5C233.6,593.1,232.1,592.6,230.4,592.2z"/>
							</g>
							<g>
								<path class="st18" d="M241.8,668.7c-2.8-1.8-5.4-3.4-8-5.2c-0.1,1.9-0.3,4-0.6,6c-3.6-3.6-4.9-1.8-4.6,1.8
									c-1.8,0.4-3.6,0.9-5.4,1.3c-0.4-1.8-0.9-3.1-1.2-4.9c-1.8-0.6-3.9-1.2-5.7-1.8c-1.3-0.4-2.5-0.7-3.9-1.2
									c-3.1,1.9-6,4.3-9.1,6.5c-2.1-4.5-4-8.6-6.1-12.9c-0.6-0.9-1-1.3-1.5-2.1c-0.3-1.6-0.7-3.1-1.2-4.9c-0.3-3.9,1.3-5.1-1-9.7
									c-0.7-3.7-1.5-7.9-2.4-11.6c0.3-0.1,0.6-0.7,1-0.9c3,4.5,5.7,5.8,8.6,7.3c-0.7-8.5,3.7-2.1,6.3-7.3c1,0.3,2.1,0.6,3.1,1
									c2.5,0.7,5.1,1.6,7.4,2.4c1.6,1.5,3.9,4.8,4.2-0.3c5.1,8.2,4.6-12.4,8.9,4.3c1.8,1.5,3.6,3,5.4,4.8
									c-1,14.3-9.4,6.8-14.7,7.7c2.4,8.8-1.9,4.2-2.5,8.5c0.9,2.8,1.8,5.7,2.8,8.5c0.4-1.8,0.7-3.9,1-5.8
									c2.1-2.8,7.3,2.5,10.4-0.1c3.3,1.6,6.4,2.8,9.7,4.5C242.7,666,242.3,667.5,241.8,668.7z"/>
							</g>
							<g>
								<path class="st18" d="M207,540.5c-1.5-0.1-1.3,6.8-3.3,4.9c-1.3-2.1-2.7-4.2-4.2-5.8c1.2-2.8,2.4-5.5,3.6-7.9
									c0.9,1.2,1.8,2.5,2.7,3.7c0.3,1.3,0.6,2.4,1,3.6C206.8,539.3,207,539.9,207,540.5z"/>
							</g>
							<g>
								<path class="st18" d="M182.6,541.4c-1.3-2.1-2.8-4.2-4-6.3c-1.9-0.4-3,5.7-3.4,9.5c0.4-4,1.5-10,3.4-9.5
									C179.9,537.1,181.3,539.2,182.6,541.4z"/>
							</g>
							<g>
								<path class="st18" d="M184.5,596.9c-0.7,1.9-1.2,5.4-3.6,5.2c-0.3-2.4-0.4-4.3-0.6-6.7C181.7,596,183.2,596.5,184.5,596.9z"
									/>
							</g>
							<g>
								<path class="st18" d="M188.1,687.9c-1.2,0.6-2.4,1.2-3.6,1.8c-0.7-0.6-1.3-1.5-1.9-1.9c-1.8,3.3-5.2,1.5-6.3,5.7
									c-3,0-5.8,0-8.6,0c-3,0-5.8,0-8.6,0.3c-0.9,2.7-1.6,5.7-2.5,8.5c-1.6-0.6-3.3-1.2-5.1-1.8c0.4-3.1,0.9-6.3,1.2-9.1
									c2.4,2.1,3.1-2.1,6.3,0.6c-0.1-2.7-0.4-5.4-0.6-8c1.2-2.2,2.7-4.3,3.9-6.4c2.5-0.7,4.6-0.7,5.7-5.8c2.1,0,4,0.4,6.1,0.4
									c2.7,2.5,5.2,5.1,8,7.6c-0.1-1.3-0.1-2.4-0.3-3.3c0-0.9,0.1-1.9,0.3-3.1c0.6,0.3,1.3,0.4,1.9,0.6c1.2,1.6,2.4,3,3.4,4.3
									C187.5,681.6,187.8,684.6,188.1,687.9z"/>
							</g>
							<g>
								<path class="st18" d="M165,544c4.3,4.5,5.4,1,6.7-0.4C170.4,544.9,169.5,548.4,165,544z"/>
							</g>
							<g>
								<path class="st18" d="M127.7,635.3c-1,1.2-1.8,2.2-2.8,3.6c-0.9-3.9-1.6-7.7-2.5-11.8l4.9,1.9
									C127.4,631,127.5,633,127.7,635.3z"/>
							</g>
							<g>
								<path class="st18" d="M119.6,588.2c-1.5,2.1-2.7,4.2-4.2,6.1c-0.3-2.8-0.7-5.5-1-8.2l4.6-1
									C119.2,586.1,119.5,587.1,119.6,588.2z"/>
							</g>
							<g>
								<path class="st19" d="M274.1,547.5c-0.3,1.2,0,6.3-2.2,3.7c-1.8-3-3.7-6.1-5.5-9.1c0.4-1.8,0.9-3.9,1.3-5.5
									c0.4,0.1,0.7,0.1,1.2,0.3C270.5,540.4,272.5,544,274.1,547.5z"/>
							</g>
							<g>
								<path class="st19" d="M215.5,545c-0.6,2.7-1.2,5.7-1.6,8.3c-2.2-4.2-4.5-8.5-6.7-12.6c-0.1-0.7-0.1-1.3-0.1-1.6
									c2.2-0.1,4.8-0.3,7.1-0.7C214.9,540.7,215.2,542.6,215.5,545z"/>
							</g>
							<g>
								<path class="st21" d="M378.6,577.4c-2.1-2.2-1.3,2.5-2.1,4c-2.1-0.4-4.2-0.7-6.4-1.2c-0.7-3-1.5-6.1-2.2-9.4
									c-0.9-2.7-1.6-5.2-2.5-7.9l2.4-2.4c2.4,0.7,4.8,1.8,7.3,3C376.2,568.1,377.4,572.5,378.6,577.4z"/>
							</g>
							<g>
								<path class="st21" d="M354.3,556.3c-0.1,0-0.4-0.1-0.4-0.1c-1.8-1.3-4.3,1.9-5.5-5.5c0.6-1.3,1.3-2.8,1.9-4.2
									c0.9,1.2,1.8,2.2,2.5,3.6C353.3,552.1,353.9,554.4,354.3,556.3z"/>
							</g>
							<g>
								<path class="st21" d="M306,584.3c-0.9-1.5-1.8-2.7-2.5-3.7c-1.8-7.3,1.9-4.5,5.1-1.6C307.6,580.6,306.7,582.2,306,584.3z"/>
							</g>
							<g>
								<path class="st21" d="M301.6,589.2c-1.6-0.4-2.7-0.7-3.9,2.2c-1.5-1-3.3-2.1-4.8-2.8c-0.3-1.6-0.6-3.3-0.9-4.9
									c1.3-1.8,3.9-1.5,4.8-6.3c1.3,1,2.8,1.9,4,2.5C301.2,583.1,301.5,585.9,301.6,589.2z"/>
							</g>
							<g>
								<path class="st21" d="M278.3,541.1c-2.5-1,0.9,7.1-0.1,8.6c-1.2-0.6-2.5-1.6-3.9-2.2c-1.8-3.6-3.6-7.3-5.2-10.6
									c0.9-1.9,1.8-1.6,2.1-4.2c1.5,0.4,3.1,0.9,4.8,1.3c0.4,0.1,0.7,0.1,1.2,0.3C277.4,536.8,277.8,538.9,278.3,541.1z"/>
							</g>
							<g>
								<path class="st21" d="M215.5,545c-0.3-2.4-0.6-4.3-1.5-6.8l4.3-1.5c0.7,0.6,1.6,1.5,2.5,2.4c0.7,5.1-1.5,6.5-0.6,11.8
									C218.6,548.9,217,546.6,215.5,545z"/>
							</g>
							<g>
								<path class="st21" d="M156.3,632.1c-0.9,1.6-1.8,3.3-2.5,5.2c-1.3,0.4-2.8-2.7-3.3-4.5c0.6-1.8,1.3-3.7,1.9-5.5
									c-0.6-3.7-1.3-7.9-2.1-11.8c1.3,0.4,2.8,1,4.3,1.6c1.8,3.3,1.9,7.9,3.9,12.4C157.7,630.3,156.8,631,156.3,632.1z"/>
							</g>
							<g>
								<path class="st21" d="M158.8,692c-3-2.7-3.9,1.6-6.3-0.6c-0.3,2.8-0.7,6-1.2,9.1c-0.3-0.1-0.4-0.1-0.6-0.3
									c-3.7-5.2-3.9-1-4.9-1.8c0-4.9-2.1-2.4-2.8-6c-0.7-2.8-1.2-5.7-1.8-8.5c0.1-0.3,0.3-0.9,0.6-1.5c1.6,0.3,3.1,0.1,4.9,0.4
									c1.9,0,4.2,2.4,4.6-4.9c0.1,0,0.4,0.1,0.6,0.1c2.1,2.1,3.9,3.7,6,5.4c0.1,0,0.4,0.1,0.6,0.1
									C158.3,686.7,158.6,689.4,158.8,692z"/>
							</g>
							<g>
								<path class="st21" d="M142.3,570.9c-0.3,0.1-0.6,0.7-1,1.2c-2.8-1-5.8-3.6-7,5.1l-2.8-1.2c-0.3-4-0.6-7.7-0.7-11.3
									c0.6-1.3,1.3-2.7,1.9-3.7c3.1-1,5.8-3.6,9.4-2.7C142,562.4,142.1,566.6,142.3,570.9z"/>
							</g>
							<g>
								<path class="st22" d="M151.8,678.5c-0.1,0-0.4-0.1-0.6-0.1c-1.3-1.8-2.8-3.9-4-6c1.5-1.3,3-3.1,4.5-4.6
									c0.4,1.2,0.9,2.2,1.5,3.4L151.8,678.5z"/>
							</g>
							<g>
								<path class="st22" d="M147.5,624c-1.9-0.7-3.6-1.3-5.5-2.1c1.9-4.5,4-7.3,5.4-0.9C147.3,623,147.5,623.6,147.5,624z"/>
							</g>
							<g>
								<path class="st22" d="M136.8,670.2c-0.7,3.9-2.7,1.6-4.2,0c-0.9,0.6-1.6,1.3-2.4,2.1c-0.4-0.4-0.9-1.3-1.2-2.1
									c-0.1-2.7-0.3-5.4-0.4-8c1.2,1.8,2.5,3.3,3.9,4.8c0.3-0.9,0.6-1.6,0.9-2.8C134.5,666,135.6,668.1,136.8,670.2z"/>
							</g>
							<g>
								<path class="st22" d="M135.9,697.8c0.9,5.5,1.9,11.2,2.7,16.7c-3.6,4.6-4.3-3.1-7.9-10.7c0.7-1.8,1.5-3.7,2.2-5.4
									c-1.3-2.1-2.7-4.3-4-6.1c0-0.6,0-1.3-0.1-1.6c3.7,1.8,3.6-5.8,8.8,4.9C137.1,696.4,136.5,697.1,135.9,697.8z"/>
							</g>
							<g>
								<path class="st20" d="M417.9,652.7c0.3,5.7-2.8,3.4-4.6,2.1c-1.2,0.4-2.4,0.6-3.6,1c-0.9-4.8-0.9-8.8,2.5-5.5
									C414,650.8,415.8,651.7,417.9,652.7z"/>
							</g>
							<g>
								<path class="st20" d="M386.5,565.7c-0.7,1.8-1.5,3.4-2.2,5.5c-2.5-2.7-5.2-5.1-7.9-7.3c-0.1-3.1,0.1-4.6,0.3-6.1
									C379.6,557.5,382.8,559.7,386.5,565.7z"/>
							</g>
							<g>
								<path class="st18" d="M278.6,628.5c-0.4,0.1-0.7,0.7-1,1.3C277.8,629.2,278.1,628.8,278.6,628.5z"/>
							</g>
							<g>
								<path class="st18" d="M254.9,591.7c-0.1,0.9-0.1,1.8-0.1,3.1c-0.3-0.1-0.4-0.1-0.6-0.1c-1.2,0.6-2.7,1.2-3.9,1.6
									c-3.4-0.3-6.7-1-10.1-1.3c-1.3-0.3-2.4-0.7-3.7-1c0.7-1.6,1.5-3.7,2.1-5.4c-0.1-0.6-0.1-1.3-0.3-1.6
									c0.9-0.3,1.9-0.4,2.8-0.7c1.5,1,3,1.8,4.6,3c2.1,2.5,1.9-2.5,2.4-3.7C250.3,587.3,252.7,589.5,254.9,591.7z"/>
							</g>
							<g>
								<path class="st18" d="M255.5,591.9c-0.1,0-0.4-0.1-0.4-0.1C255.1,591.9,255.4,591.9,255.5,591.9z"/>
							</g>
							<g>
								<path class="st19" d="M128.7,690.7c0,0.3,0,1,0.1,1.6C128.7,691.6,128.7,691,128.7,690.7z"/>
							</g>
							<g>
								<path class="st21" d="M313.4,610c-0.3,0-0.4-0.1-0.6-0.1C313,610,313.1,610,313.4,610z"/>
							</g>
							<g>
								<path class="st22" d="M152.2,574.8c-1.8,1.9,0,6.5-3.4,8.2c-3.4-4.9-3.6-0.1-8.2-3.1c0.1-2.8,0.3-5.1,0.4-7.6
									c0.4-0.4,0.7-1,1-1.2C145.8,578.8,146,566.6,152.2,574.8z"/>
							</g>
							<g>
								<path class="st22" d="M152.5,573.3c-0.1,0.3-0.3,0.9-0.3,1.5C152.4,574,152.5,573.6,152.5,573.3z"/>
							</g>
							<g>
								<path class="st22" d="M285,541.4c-0.1-0.6-0.3-1.3-0.3-1.6C284.8,540.1,285,540.8,285,541.4z"/>
							</g>
							<g>
								<path class="st22" d="M147.2,672.2c-0.4,1.5-0.7,3-1,4.2c-1.6,0-3.1,0.1-4.8-0.1c-1-1.9-1.8-3.6-2.7-5.5
									c0-1.3,0.3-2.2,0.3-3.1C143.5,665.1,145.1,669,147.2,672.2z"/>
							</g>
							<g>
								<path class="st18" d="M277.5,629.8c-1.2-0.6,0.6,5.5-3.3,1.9c-1.2-0.6-2.7-1.6-4-2.4c0-2.8,0.1-5.1,0-7.6
									c0.4,0.1,0.7,0.1,1.3,0.3c0.6,1,1,2.2,1.6,3.3c0.4,0.1,0.7,0.1,1.3,0.3C275.5,627,276.6,628.3,277.5,629.8z"/>
							</g>
						</g>
					</g>
				</g>
			</g>
		</g>
		<g>
			<g>
				<path d="M251.9,662.6c1-10.6,1.9-20.8,3-31.3c-1.3,0.1-3,0.1-4.6,0.4c-5.2,0.7-10.6,1.6-15.8,2.4c-0.7,0.1-1.6,0.6-2.4,0.7
					c-0.6,0.1-1-0.1-1.6,0c-2.2,0.4-4.5,0.7-6.5,1.2c-11.8,2.4-23.4,5.7-35,9.7c-3.6,1.2-7.4,2.4-11.2,3.3c-1.6,0.4-3.4,0.1-5.1,0.1
					c-0.1,0-0.6-0.4-0.7-0.6c0.1-0.1,0.6-0.6,0.7-0.6c6,1,11.5-1.8,16.8-3.6c11.8-4,23.8-7.4,36-9.8c1.6-0.4,3.3-0.6,4.6-1
					c0.6-0.1,1-0.4,1-1.2c0-11.2,0-22.5,0-33.6c0-0.1,0-0.6,0-0.7c-6.8,1.6-13.2,5.7-20.8,4.5c0,1.8,0,3.4,0,5.1
					c0,7.4,0,14.9,0,22.2c0,0.6-0.4,1.2-0.6,1.9c-0.1-0.6-0.6-1.3-0.6-1.9c0-9.1,0-18,0-27.1c0-10.9,0.1-21.9,0.1-32.6
					c0-1.9,0-4,0-5.8c0-0.4,0.4-1,0.6-1.3c0.1,0.4,0.6,1,0.6,1.3c0,8.2,0,16.4,0,24.6c0,3.6,0,7.1,0,11c0,1.2,0.4,1.6,1.6,1.6
					c2.5,0.4,5.2-0.1,7.7-1c3.6-1.2,7.1-2.4,10.9-3.6c0.7-0.1,0.7-0.7,0.7-1.3c0-5.7,0-11.5,0-17c0-3.4,0-6.8,0.1-10.3
					c0-0.4,0.1-1,0.4-1.3c0.1,0,0.4,0,0.6,0c0,22,0,44.1,0,65.9c9.4-1.2,18.6-2.4,27.8-3.3c9.2-0.7,18.5-0.4,27.7,1.8
					c0-0.4,0.1-0.7,0.1-1.2c0-9.2,0-18.6,0-27.8c0-12.1,0-24,0-36.3c0-0.1,0-0.4,0-0.6c0.1-0.1,0.4-0.6,0.4-0.7
					c0.1,0.1,0.6,0.6,0.6,0.7c0,1.3,0,2.5,0,4c0,9.7,0,19,0,28.6c0,0.6,0,1,0,1.8c4.5-0.1,8.6-0.1,12.8-0.4c0.4,0,0.7-0.6,0.7-1
					c1.2-11.2,2.4-22.5,3.6-33.5c0-0.1,0-0.4,0.1-0.6c0.1-0.1,0.4-0.4,0.6-0.6c0.1,0.1,0.4,0.6,0.4,0.7c-0.1,1.9-0.4,3.9-0.6,5.7
					c-0.7,8-1.6,16.1-2.4,24c-0.1,1.6-0.4,3.3-0.4,4.8c0.6,0.1,1.2,0.1,1.6,0.1c0,0.1,0,0.1,0.1,0.4c-0.4,0.1-0.6,0.6-1,0.6
					c-0.7,0.1-1,0.4-1,1.2c-0.6,6.8-1.3,13.5-2.2,20.4c-0.4,3.9-0.7,7.6-1.2,11.5c0,0.4-0.4,0.7-0.6,1c-0.1-0.4-0.4-0.7-0.4-1.2
					c0.6-6.3,1.2-12.4,1.8-18.6c0.4-4.2,1-8.5,1.3-12.6c0-0.4,0-0.6,0-1c-4.2,0-8.2,0-12.4,0c-1,0-1.2,0.6-1.2,1.3
					c0,3.4,0,6.8,0,10.3c0,5.8,0,11.8,0,17.6c0,1.2,0.4,1.6,1.6,1.9c7.4,1.8,14.3,4.8,21,7.7c3.6,1.6,7.4,2.8,11.5,3.3
					c0.7,0,2.2-0.1,1.9,1c-0.1,1.2-1.3,0.6-2.2,0.4c-6-0.4-11.5-3-16.8-5.2c-5.4-2.4-10.9-4.2-16.7-5.8c0,0.1-0.1,0.4-0.1,0.6
					c-0.1,0.1-0.4,0.4-0.7,0.6c-0.1-0.1-0.6-0.4-0.6-0.6c0-1-0.6-1-1.2-1.2c-7.1-1.3-14.4-2.2-21.6-1.9c-2.8,0.1-5.8,0.1-8.6,0.4
					c-1.8,10.4-2.5,20.8-3,31.3c1.8,0,3.6,0,5.2,0c10.9-0.6,21.3,1.6,31.4,5.4c9.2,3.4,18.8,6,29,5.8c0.4,0,0.7,0.4,1.3,0.6
					c-0.4,0.1-1,0.6-1.3,0.7c-4.8,0.1-9.7-0.1-14.3-1.3c-6.3-1.6-12.6-3.4-18.8-5.7c-10.3-3.6-20.7-4.5-31.3-3.9
					c-1.2,0-1.8,0.4-1.6,1.6c0,0.6-0.1,1.2-0.4,1.6c-0.1,0-0.4,0-0.6,0c-0.1-0.4-0.1-1-0.1-1.3c0-0.6,0-1,0-1.8
					c-1.3,0.1-2.8,0.1-4,0.4c-13.5,1-27.1,4-40.2,7.4c-7.4,1.9-14.6,4.2-21.4,7c-5.7,2.4-11,4.8-16.7,7.1c-2.5,1-5.2,1.8-7.7,2.4
					c-1.2,0.1-2.4,0.1-3.6-0.1c-1.9-0.4-3.3-1.6-3.6-3.6c-0.6-2.5-1.2-5.2-1.2-7.7c-0.1-8.2,1-16.2,2.4-24.4c1.3-8,2.8-16.1,4-24.3
					c1.2-8,2.4-16.1,3-24c1-11.2,1.6-22.6,1.2-34.1c0-2.5-0.4-5.1-0.6-7.6c0-0.7-0.1-1.6,0.6-1.6c0.7,0,1.3,0.6,2.2,1
					c-0.1,0.1-0.4,0.6-0.6,0.6c-0.4,0-0.6-0.1-1.2-0.4c0.1,1.2,0.1,2.4,0.4,3.6c0.1,6.8,0.4,13.5,0.1,20.4
					c-0.1,11.5-1,23.1-2.5,34.4c-1.3,8.6-2.8,17.3-4,25.9c-1.2,7.6-2.4,15-3.3,22.6c-0.4,4.5-0.7,9.1,0.4,13.4c1,3.9,3,5.1,6.8,4
					c5.1-1.2,9.8-3.4,14.4-5.7c14-6.5,28.6-11.2,43.9-14.4c6.4-1.3,12.8-2.4,19.2-3.4c3.6-0.6,7.4-0.7,11-1.2
					C251.3,662.6,251.6,662.6,251.9,662.6z"/>
				<path d="M356,542.6c-4.5,1.8-8.5,3.6-12.6,5.4c-6.8,2.5-14,4.5-21,6c-10.3,2.2-20.7,3.3-31.3,3.4c-12.2,0.1-24.3,0-36.5,0
					c-5.8,0-11.8-0.1-17.6-0.6c-7.6-0.6-15.5-1.6-23.1-2.5c-7.1-1-14.4-2.2-21.9-3c-3.3-0.4-6.4,0-9.7,0c-0.4,0-0.6,0.1-1,0.4
					c-0.1,0.1-0.6,0.4-0.7,0.6c-0.4-0.4-0.7-0.7-1-1.2c0-0.1,0.4-0.6,0.7-0.7c1-0.1,2.2-0.4,3.3-0.4c6.5-0.4,12.9,0.4,19.5,1.3
					c14,2.4,28,4.2,42.4,4.2c13.8,0,27.7,0.6,41.7,0.4c14.4-0.1,28.9-1.9,43-5.7c7.7-1.9,15.5-4.6,22.6-8c1-0.4,1.8-0.7,2.8-1
					c0.4-0.1,1-0.1,1.3,0c0.1,0.1,0.1,1,0.1,1.3c-0.7,2.4-1.8,4.8-2.8,7c-2.8,7-4.8,14.4-6.4,21.9c-2.8,12.6-5.4,25.3-8,37.8
					c-1.6,7.7-3.6,15.5-5.1,23.2c-1,5.2-1.6,10.4-1.8,15.6c-0.1,3.4,0.7,6.8,3,9.7c0.1,0.1,0.1,0.6,0.1,1c-0.4,0-0.7,0-1-0.1
					c-1-1.6-1.9-3-2.8-4.8c-1.3-3.9-1.2-7.6-0.7-11.6c1-10.6,3.9-20.7,6.3-31.1c1.8-8.8,3.6-17.4,5.7-26.2
					c2.5-11.5,4.8-22.8,9.1-33.6c1-2.4,1.9-5.1,3-7.4C355.7,543.8,355.8,543.5,356,542.6z"/>
			</g>
		</g>
	</g>
	<g class="st15">
		<path d="M163.1,700.4c1.6,0,2.5,1.2,2.8,3.6v0.1c0,1.2-0.7,3.8-2,7.9l2.3-0.5c2.9,0,4.5,1.8,5,5.5v0.8c0,4.4-2.8,8.4-8.3,12
			c-1.8,0.7-3.1,1-3.9,1c-2.7,0-4.6-1.6-5.6-4.7c0.1-0.4,0.5-0.9,1.2-1.5c0.4-15.1,0.7-22.6,1-22.6c0.6-0.6,1.1-0.9,1.5-0.9
			c0.9,0.3,1.4,0.9,1.4,1.6h0.2C160.1,701.2,161.6,700.4,163.1,700.4z M160.1,719.6l-0.8,0.3l-1.2-0.1v0.1l-0.2,0.7v5.2l-0.1,1.8
			l1.1,0.3c2.8,0,5.6-2.1,8.4-6.4c0.8-1.9,1.1-3.5,1.1-4.7c0-1.5-0.7-2.3-2.2-2.3H166C164.4,714.5,162.5,716.2,160.1,719.6z
			 M158.2,716.5h0.2c2.7-5.2,4.2-9.2,4.4-12v-1.2h-0.5c-0.7,0-1.6,1.9-2.8,5.7C158.6,712.6,158.2,715.1,158.2,716.5z"/>
		<path d="M175.2,715.8l0.9-0.5c0.8,0,1.4,0.5,1.8,1.5c-0.5,2.5-0.8,5-0.8,7.6c0,1.3,0.4,2.7,1.2,4.2h0.3c1,0,2.1-3.8,3.5-11.5
			c0.5-0.4,0.9-0.6,1.3-0.6c1,0,1.6,1.8,1.6,5.5c0.4,4,0.9,6,1.4,6l0.8-0.3c1,0.4,1.5,0.9,1.5,1.5c-0.6,1.3-1.4,1.9-2.5,1.9
			c-1.2,0-2.4-1.2-3.5-3.6c-1.3,2.8-2.7,4.2-4,4.2c-2,0-3.5-2.1-4.2-6.3l-0.1-1.6v-0.5C174.1,720.7,174.5,718.2,175.2,715.8z"/>
		<path d="M199.6,710.6c0.9,0,1.5,1.5,1.9,4.5c-0.3,0.8-0.9,1.2-1.6,1.2c-0.5-0.1-1.1-0.7-1.6-1.8l-0.9-0.3c-1.6,0-3,1-4.2,3.1v0.5
			c0,0.5,2.3,1.3,7,2.5c2,1.2,3,2.6,3,4.2c0,2.7-2.2,5.1-6.6,7l-1.9,0.3c-2.8-0.3-4.2-1.7-4.2-4.2v-0.1c0-0.8,0.5-1.3,1.6-1.4
			c0.8,0,1.3,0.8,1.6,2.5l0.4,0.3h0.9c1.9,0,3.7-1.3,5.3-3.9v-0.7c0-1-2.2-1.9-6.5-2.8c-2.3-0.9-3.5-2.2-3.5-3.9
			c0-2.2,1.8-4.2,5.5-6.1C197.2,711.4,198.5,711,199.6,710.6z"/>
		<path d="M205.5,704.8c1.3,0.3,1.9,0.8,1.9,1.7c-0.3,0.9-0.9,1.4-1.6,1.4c-1.2-0.2-1.9-0.8-1.9-1.8
			C204.3,705.2,204.8,704.8,205.5,704.8z M207.4,711.8c0.5,0,1,0.5,1.3,1.5l-0.4,3.5v2.3c0,2.7,0.5,6.3,1.4,10.8
			c-0.3,0.6-0.9,1-1.7,1c-1.4,0-2.3-4-2.7-12v-1.8C205.3,713.6,206,711.8,207.4,711.8z"/>
		<path d="M218.8,714c2.8,0.2,4.2,1.6,4.2,4.1l0.1,0.7l-0.1,7.8c0,0.9,0.5,2.1,1.5,3.7v0.1c-0.3,1-0.8,1.5-1.5,1.5
			c-2.1-0.9-3.1-2.7-3.1-5.5v-0.7l-0.2-0.1l0.2-0.2v-0.1l0.1-6.9c0-1-0.4-1.5-1.2-1.5h-0.6c-1.7,0.7-2.5,4.3-2.5,11
			c0,2.3-0.6,3.5-1.8,3.5c-0.9,0-1.4-0.6-1.4-1.7v-5c0-6.5,0.6-9.7,1.7-9.7l0.5-0.1l1.1,0.1C216.8,714.3,217.8,714,218.8,714z"/>
		<path d="M230.6,712.9c1.3,0,3.6,2.4,6.8,7l0.1,0.9c0,0.9-2.3,1.6-6.8,2.1l-0.2,0.2v0.2c0.7,3,1.4,4.5,2.2,4.5h0.6
			c1.1,0,2.7-1.2,4.9-3.5h0.3c0.7,0,1.2,0.5,1.5,1.5c0,0.8-1.4,2.2-4.2,4.1c-0.7,0.4-1.6,0.8-2.6,1c-2.7,0-4.6-2.5-5.7-7.6
			c-1.5-0.2-2.3-0.9-2.3-1.9c0-0.7,0.6-1.2,1.7-1.5v0.2l0.5-0.2v-1.2C227.4,714.8,228.5,712.9,230.6,712.9z M230.9,716.5h-0.5
			l-0.2,1.8v1.5h0.2c1.9-0.1,2.8-0.3,2.8-0.6C232.4,718,231.6,717.1,230.9,716.5z"/>
		<path d="M251.9,710.6c0.9,0,1.5,1.5,1.9,4.5c-0.3,0.8-0.9,1.2-1.6,1.2c-0.5-0.1-1.1-0.7-1.6-1.8l-0.9-0.3c-1.6,0-3,1-4.2,3.1v0.5
			c0,0.5,2.3,1.3,7,2.5c2,1.2,3,2.6,3,4.2c0,2.7-2.2,5.1-6.6,7l-1.9,0.3c-2.8-0.3-4.2-1.7-4.2-4.2v-0.1c0-0.8,0.5-1.3,1.6-1.4
			c0.8,0,1.3,0.8,1.6,2.5l0.4,0.3h0.9c1.9,0,3.7-1.3,5.3-3.9v-0.7c0-1-2.2-1.9-6.5-2.8c-2.3-0.9-3.5-2.2-3.5-3.9
			c0-2.2,1.8-4.2,5.5-6.1C249.5,711.4,250.8,711,251.9,710.6z"/>
		<path d="M267.3,710.6c0.9,0,1.5,1.5,1.9,4.5c-0.3,0.8-0.9,1.2-1.6,1.2c-0.5-0.1-1.1-0.7-1.6-1.8l-0.9-0.3c-1.6,0-3,1-4.2,3.1v0.5
			c0,0.5,2.3,1.3,7,2.5c2,1.2,3,2.6,3,4.2c0,2.7-2.2,5.1-6.6,7l-1.9,0.3c-2.8-0.3-4.2-1.7-4.2-4.2v-0.1c0-0.8,0.5-1.3,1.6-1.4
			c0.8,0,1.3,0.8,1.6,2.5l0.4,0.3h0.9c1.9,0,3.7-1.3,5.3-3.9v-0.7c0-1-2.2-1.9-6.5-2.8c-2.3-0.9-3.5-2.2-3.5-3.9
			c0-2.2,1.8-4.2,5.5-6.1C264.8,711.4,266.2,711,267.3,710.6z"/>
		<path d="M305.8,694.4h0.1c0.8,0.4,1.2,0.9,1.2,1.5l-1.2,9.5c0,3.5,1,10.6,3.1,21.5l2.5,6.2c0,0.4-0.4,0.9-1.1,1.5h-0.9
			c-0.7-0.2-1.7-2.2-3-6.2c-0.9-3.1-1.7-8-2.6-14.5h-0.3c-1.9,5.7-3.3,8.7-4.1,8.9l-0.8,0.2c-0.7,0-1.6-1.4-2.6-4.1h-0.4
			c-0.4,8.2-1.2,12.4-2.4,12.4h-0.1c-1.1,0-1.6-0.8-1.8-2.5c0.8-3.2,1.2-6.5,1.2-10l-1.4-13.2v-1c0-1.3,0.5-1.9,1.4-1.9
			c1.3,0,2.4,2.5,3.4,7.7c1.5,4.6,2.4,7.1,2.7,7.5c0.8-1.2,1.5-3.3,2.3-6.4c0.6-1.6,1.2-4,1.8-7.3l-0.2-0.2l0.2-0.8v-0.3
			C303.3,697.2,304.3,694.4,305.8,694.4z"/>
		<path d="M321.2,712c2.5,0,4.3,1.8,5.6,5.5l0.2,1c0,3.6-1.7,7.2-5,11c-1.3,1.2-2.7,1.8-4,1.8c-2,0-3.4-1.2-4.2-3.5
			c-0.3-1.1-0.5-2-0.5-2.8v-0.6c0-5.3,1.9-9.3,5.8-12C319.6,712.2,320.4,712,321.2,712z M316.2,725c0,2.3,0.6,3.4,1.8,3.4
			c2.4,0,4.4-3.1,6-9.3v-1c-0.6-2.1-1.6-3.1-3.1-3.1c-0.6,0-0.9,0.4-0.9,1.2c0,0.6-0.7,1-2,1.3C316.8,719.6,316.2,722,316.2,725z"/>
		<path d="M340.9,703.4c0.6,0,1.1,0.5,1.5,1.6l-2.2,13.9v3.9c0,4.1,0.6,6.1,1.9,6.1c0.8,0.4,1.2,0.9,1.2,1.6c0,0.8-0.7,1.2-2,1.3
			c-1.5,0-2.6-1.3-3.5-4h-0.5c-1.2,2.7-2.7,4-4.5,4c-2.1,0-3.3-1.6-3.8-4.7c0-3.6,2.4-7.5,7.3-11.5c1,0,1.5-1.3,1.5-4
			C338.7,706.1,339.7,703.4,340.9,703.4z M332.2,726.8v1.3l0.8,0.8h0.3c1.1,0,2.3-3.2,3.8-9.6h-0.3
			C333.7,722.3,332.2,724.8,332.2,726.8z"/>
		<path d="M349.7,712.9c1.3,0,3.6,2.4,6.8,7l0.1,0.9c0,0.9-2.3,1.6-6.8,2.1l-0.2,0.2v0.2c0.7,3,1.4,4.5,2.2,4.5h0.6
			c1.1,0,2.7-1.2,4.9-3.5h0.3c0.7,0,1.2,0.5,1.5,1.5c0,0.8-1.4,2.2-4.2,4.1c-0.7,0.4-1.6,0.8-2.6,1c-2.7,0-4.6-2.5-5.7-7.6
			c-1.5-0.2-2.3-0.9-2.3-1.9c0-0.7,0.6-1.2,1.7-1.5v0.2l0.5-0.2v-1.2C346.4,714.8,347.5,712.9,349.7,712.9z M350,716.5h-0.5
			l-0.2,1.8v1.5h0.2c1.9-0.1,2.8-0.3,2.8-0.6C351.5,718,350.7,717.1,350,716.5z"/>
		<path d="M363.8,703.3c0.9,0.3,1.4,0.8,1.4,1.5l0.5,19v6.2c0,1.1-0.5,1.7-1.5,1.7h-0.6c-0.6-0.4-0.9-0.9-0.9-1.4v-5.8l-0.5-19.8
			C362.2,703.9,362.7,703.4,363.8,703.3z"/>
	</g>
</g>
<g id="trenner">
	<g>
		<g>
			<g>
				<g>
					<path class="st23" d="M572.2,797.4c0,0.1,0.1,0.1,0.1,0.2C572.3,797.4,572.2,797.4,572.2,797.4z"/>
					<path class="st23" d="M574,724.8v0.8C574.1,725,574,724.8,574,724.8z"/>
					<path class="st23" d="M572,841C572,840.9,572,840.9,572,841c0,0.6,0,1.5,0,3V841z"/>
					<path class="st23" d="M582.2,569.9l-0.1,1C582.2,570.5,582.2,570.2,582.2,569.9z"/>
					<path class="st23" d="M576.5,661.6c0-0.3,0-0.8,0-1.2C576.4,661,576.4,661.5,576.5,661.6z"/>
					<path class="st23" d="M569.4,864.1l0.2-1.2C569.5,862.8,569.4,863.3,569.4,864.1z"/>
					<path class="st23" d="M571.2,908.3L571.2,908.3C571.2,908.1,571.2,908.1,571.2,908.3z"/>
					<path class="st23" d="M571.6,891c0-0.4-0.1-0.8-0.1-1.2C571.5,890.3,571.5,890.9,571.6,891z"/>
					<path class="st23" d="M571.4,889.1c0,0.2,0,0.4,0.1,0.6C571.4,889.4,571.4,889.1,571.4,889.1z"/>
					<path class="st23" d="M588.2,6.9c-0.1-1.3-0.3-2.3-0.6-3.5L588.2,6.9z"/>
					<path class="st23" d="M593,429.9l0.1,0.3C593.1,429.9,593.1,429.9,593,429.9z"/>
					<path class="st23" d="M586.4,5.4V4.5C586.3,4.9,586.3,5.1,586.4,5.4z"/>
					<path class="st23" d="M568.6,840.6c-0.2-1.3,0-3.9-0.2-3.9C568.5,838.1,568.4,840,568.6,840.6z"/>
					<path class="st23" d="M588,399.8V399C588.1,399.4,588,399.6,588,399.8z"/>
					<path class="st23" d="M586.4,5.4v1c0-0.1,0-0.2,0.1-0.3C586.4,5.9,586.4,5.7,586.4,5.4z"/>
					<path class="st23" d="M599.7,283.6L599.7,283.6c0,0.2,0,0.2,0,0.3V283.6z"/>
					<path class="st23" d="M600.1,275.8c0,0.5,0,1.1,0,1.7C600.2,276.6,600.2,276.1,600.1,275.8z"/>
					<path class="st23" d="M587.6,3.4l-0.3-2C587.4,2.1,587.5,2.8,587.6,3.4z"/>
					<path class="st23" d="M599.5,192.1c0,0.3,0,0.5,0,0.8C599.5,192.5,599.5,192.2,599.5,192.1z"/>
					<path class="st23" d="M576.1,667.5c0,0.2,0,0.5-0.1,0.7C576.1,668.3,576.1,668.2,576.1,667.5z"/>
					<path class="st23" d="M574,609.6L574,609.6L574,609.6C574,609.5,574,609.6,574,609.6z"/>
					<path class="st23" d="M574.1,612.6c0.1-1,0-2.3-0.1-3.1C574,610.5,574,611.4,574.1,612.6z"/>
					<path class="st23" d="M574.5,602.9c0,0.1,0,0.2,0,0.4C574.5,603.2,574.5,603.1,574.5,602.9z"/>
					<path class="st23" d="M571,665L571,665L571,665L571,665z"/>
					<path class="st23" d="M571.5,652.7c0-0.2,0.1-0.5,0.1-0.8C571.5,652,571.5,652.3,571.5,652.7z"/>
					<path class="st23" d="M575.9,572.3C575.9,572.4,575.9,572.4,575.9,572.3L575.9,572.3L575.9,572.3z"/>
					<path class="st23" d="M583.3,456.6c-0.8,11.6-1.6,26.7-2.7,38.1c0.2,2.5-0.1,6.2-0.3,9.9l-0.5,0.3l-0.1,3.1
						c-0.3,1.2,0.1-2.4-0.3-0.2l0.2,1.2c-0.2,0.2-0.7,7.8-0.7,2.7l-0.9,11.9c-0.2,2.6,0.3,1.6,0,4.5c-0.2,0.6,0-1.1-0.2-0.8
						c-1,8.7,0.2,10.2-0.6,18.3v-0.7c0,0.7,0,1.7-0.1,2.5s-0.1,1.5,0,1.5c0.6-1-0.2-1.5,0.3-3.9c0.4,0.2,0,3.1,0.4,3
						c-0.3,1.9-0.1,3-0.2,4.7c-0.5,2.8-0.6,6.9-1.1,9c0,1.4,0.4,3,0.2,6c-0.5,2.1-0.3-0.5-0.6,2.4l0.2,0.5c-0.2,2.4-0.2,2-0.4,1.9
						c-0.2,2.6,0.2,2.1-0.2,5.3l-0.1-1.8c-0.1,2.4-0.2,3.3-0.4,6.6c-0.1-0.1,0-1.4,0.1-2.4c-0.5,1.8,0,3.1-0.1,4
						c0.1-0.3,0.3-2.5,0.5-1.4c-0.2,1.6,0.1,3.5-0.3,4.7l-0.1-1.8c0,3.4,0.2,1.8-0.2,5.7c0-0.2-0.1-0.1-0.1-0.2
						c0.2,2.5-0.3,5.7-0.6,9.4v-0.7c0,1.5,0.2,2.3,0.1,3.1c0.3-2.1,0.3-1.5,0.6-1.7c-0.6,2.7,0.2,4.2-0.3,8.7
						c-0.1-0.1-0.3-1.2,0-2.4c-0.3-1.6-0.7-1.8-0.7-4.5c0,1.7-0.1,3.7-0.2,3.3l0.4,0.6c-0.1,1-0.1,1.9-0.2,2.6
						c0.2,0.5,0.5-2.1,0.6,0.3c0,2.7-0.5,1.4-0.3,1.8c-0.1,3.7,0.3,1.6,0,5.1c0-0.4,0-1.1,0-1.4c-0.3,2.6-0.3,6.3-0.8,7
						c-0.1-0.4-0.2-0.5-0.1-1.4h0.1c-0.2-2.8,0,2.4-0.4,1.5c0.3-0.2,0,3.4-0.1,5l0.3-0.5c0.6,5.5-0.6-0.3-0.7,5
						c0,3.4,0.1-1.3,0.2,0.8c-0.2,2.3-0.5,3.1-0.5,6.5c-0.2,0.9-0.4,2.8-0.7,3c0,2-0.5,6.2-0.2,7.4c0.4-3.5-0.2-3.5,0.5-7.6l0.3,1.2
						c-0.2,2.8-0.2,6.4-0.4,8.4c0.1-0.4,0.2-0.6,0.2-0.3c-0.1,4,0.2,5.2-0.1,9.1c-0.3,0.5-0.2-1.8-0.1-3.5c-0.3,2.5-0.1,2.6-0.4,6.6
						c-0.3,0.2,0.1-2.6-0.1-3.1L571,665c0,0,0,0-0.1,0c0.4,0.6-0.2,3.3-0.2,6c-0.3,6.3,0.3,7.3,0.5,10.8c-0.2,0.9-0.3,1.2-0.4,0.8
						c0.3-1.5,0.1-1.3,0-1.8c0,2.1-0.6,4.6-0.7,3.4c0,3.4,0.3-1.2,0.3,0.9l-0.2,4.6c0.2-0.5,0.3-2.2,0.4,0.2c0,2-0.1,3-0.2,5.6
						c-0.1-0.4-0.4,0.8-0.3-1.2c-0.1,1.3-0.2,3.3,0,4c0.3-2.9,0,4.7,0.4,2.6l-0.3,2.9c0-0.7-0.1-0.7,0-1.7c-0.4,0.8,0,2.4,0,3.4
						c-0.1,1-0.2,3.6-0.3,3.9c0.1,0.9-0.1,3.1-0.3,3.6c0,1.4,0.2,0.1,0.3,0.5l0.1,4.5c-0.2,0.2-0.7,0.6-0.8-0.1
						c0.1,1.8,0.5,0.6,0.5,3.3c-0.3-1.5-0.4,3.5-0.7,1.3c-0.3,1.5-0.4,5.8-0.3,8.2c0.2,1.5,0.2-2.6,0.5-2.4c0,6.7,0.7,7.1,0.5,12
						l0.1-1.3c0.1,3.1,0.1,2.7,0.3,4.5c-0.3-0.9-1.1,3.4-1.1,8.5c0.2,0.4,0.4-2.8,0.7-2v3.3c0,0.2-0.1-0.1-0.1-0.6
						c0.1,3-0.5,5.5-0.1,6.4l-0.6,3l0.2-1.2c0.2,0.4,0.2,3.8,0.2,4.5c0.2,3.4,0,4.7-0.3,6.5c0.2-0.6,0.5-2.1,0.5,0.6
						c-0.6,0-0.3,5.6-0.6,5.6c0,1.1-0.2,3,0,3.1l-0.4-0.2c0.5,0.3,0.4,4.2,0.5,7.2c-0.7-0.7,0,3.3-0.6,4.7c0.5,0.6,0.2,5.4,0.6,5.9
						c0,2.3-0.4,2.1-0.6,2.7l0.2,1.1c-0.2,1.2-0.3,5.6-0.4,8.2l0.4,2.4l-0.2,0.9c0.1,0.4,0.2,2.4,0.3,1.2v1.3
						c0.4,0.1,0.1,1.8,0.3,4.5c-0.1,0.6-0.2,0.4-0.2-0.1c0,1.3-0.2,0.7-0.4,1.5c0.1-0.9,0.8,4.7,1,1.2c0.2-0.2,0.3,1.8,0.3,3.1
						l-0.4,0.8l0.4,1.5c0.1,2-0.2,2.9-0.2,4.5c0-1.7-0.8-3.7-0.8,0.6c-0.1-2.3-0.3-3.4-0.4-4.5c0,0.9,0,1.3-0.2,0
						c0.2,3.4,0.3,1.1,0.3,4.5c-0.4-0.2-0.5,0.8-0.6,3.7l0.2-2.2c0,0.1,0.1,0.2,0.1,0.4c0-0.8,0.1-1.1,0.2-1.2
						c0,0.7,0.5,3.9,0.3,4.4c0.5-3.4,0.5,5.8,0.8,3.7c0.1,0.4,0.2,2.7,0,3c-0.3-2.8-0.4,2.1-0.6,1.7c0.1,1,0.2-2.2,0.4-0.8
						c0,1.7-0.2,2.9-0.3,3.8l-0.1-0.7l-0.1,2.6c0.2,0.4,0.3-2.5,0.4-0.1c-0.1,0.6,0,3-0.1,2.9c-0.3-1.1-0.6-0.3-0.7-2.3
						c0,1.7,0.1,7,0.5,4.8v2c0.1-1.3,0.4-4.8,0.5-0.8h-0.1l0.3,2.8l-0.2,1.2c0.1,0,0.2,0.4,0.2,1.4c-0.1,0.3-0.1,1.2-0.3,1.2
						c0.1,3,0.3,2.7,0.4,3.1c0.1,1.7,0,2.3-0.2,1.5c0,2.3,0.1,6.3,0,7.9c0.2,3.1,0.1-0.6,0.3,1.2c-0.6,2.7,0,10.1,0.2,15.1
						c0.5-1.4,0.1,1.4,0.6,2.3c-0.2-1.1-0.3,4.8-0.6,0.4l0.1,2.7c-0.3,1.8-0.3-4.4-0.7-1.6c0.1,3,0.7,4.9,0.6,8.5
						c-0.4-1.2,0.2,2.7-0.3,1.8c-0.2-0.7-0.1-1.7-0.2-2.7l-0.1,0.6c0,6.6,0.5,1.9,0.9,5.3c0.1,4-0.2,3.2-0.4,3.4
						c-0.1,0.6,0,2.6,0.2,3.7c-0.3-2.4,0.1-4.5,0.4-3.4c-0.4,1.8,0.1,5.9,0.3,7c0.3-5.7-0.1-4,0.3-9.3c-0.2-0.7-0.6-0.6-0.5-3.8
						c0.2,2,0.2-0.1,0.3-0.7c-0.2,0.6-0.1-2.2-0.3-3.2c0.2-0.9,0.6,1.9,0.6-1.3l-0.6-0.6c0.1-1.3,0.4,0.5,0.2-2.2
						c0.3,1.5,0.4-0.5,0.6,3.2c0.4-4.4-0.4-6.7-0.7-10.1c0,0.3,0.1,0.4,0.2,0.7c-0.2-0.7-0.2-2-0.2-3.1c0.1-2.3,0.3,1.8,0.4,1.2
						l-0.1-3.6c0-0.1,0-0.1,0-0.1c-0.1-1-0.2-1.9,0-2.2c0.2,1.1,0.4,1.5,0.5,2.2l-0.5-3.8c0.2,0.4,0.2-3.2,0.4-0.4l-0.2-5.7l0.4-0.5
						c-0.1-1.4-0.2-1.4-0.2,0.2c0-1.9-0.8-8.6-0.1-7.6c-0.4-4.4-0.3-6-0.6-11.4c0.4,4.1,0.4-4.7,0.6-0.4c0.1-2.6-0.3-3.1-0.3-5.1
						c0.1-1.9,0.5-1.1,0.7,1l-0.2-2.4h0.1l-0.2-2.1c0.2-2.2,0.4-0.5,0.4-2.8l-0.3-0.5l0.2-1.6c-0.1,0.6-0.2-0.8-0.3-2.4h0.1l-0.1-2
						c0.2,2,0.1-1.8,0.3-0.9c0-1.7,0-1.8-0.1-4.9l-0.2,0.5c-0.2-4.1,0.3-0.2,0.3-3.5l-0.3,0.2c0.4-4.7-0.3-8.1-0.1-11.6
						c0.1,2,0.4,1.5,0.3,1.5c-0.1-3,0-7.9-0.3-11.1c0.4-1.1,0.5-1.4,0.7-4.6c0-2.3-0.1-2.7-0.3-3.4c0.1-2.3-0.1-6.5,0.2-6.6
						c-0.2-0.5,0-2-0.1-3.3l0.1-0.3l-0.3,0.2c0.6-4-0.3-6.8,0.2-10.8l0.1,0.7l-0.1-1.7c0.1-0.3,0.2,0.4,0.3,0.5l0.1-7.9l-0.2,1.6
						c0-1.7-0.2-2.8-0.1-4.7c0.3,3.2,0-2.6,0.3-3.1l0.1,1.7c0-2.3,0-2.3-0.3-2.1c-0.1-3,0.5-2.1,0.3-4.8v2c-0.2,0.6-0.3-0.8-0.3-2.2
						c0-0.3,0.2-1.2,0.2-0.2c-0.1-2.4,0.1-5.9,0-7c0.1-1.3,0.3-0.9,0.3-0.2c-0.2-5.1,0.1-2.3-0.1-7.4l0.1,0.1l-0.1-1.7l0.4-2.5
						l-0.2,0.9c0-1.7-0.1-2.7,0.1-4.7l0.2,0.8c0-4.7,0.5-5.4,0.3-9.9c0-0.3,0.1,0.4,0.1,0.7c-0.2-4.2,0.5-3.1,0.1-7.3
						c0.1,0.3,0.2-0.2,0.2,0l-0.1-1.9l0.3,0.2l-0.4-1.6l0.3-1.2l-0.1-0.7c0.6-2,0.3-4.9,0.8-7.6l-0.4,0.5c-0.5-7,0.9-16,0.8-24.4
						l0.3,0.2l-0.2-3.5c0.3-1.9,0.2,1.1,0.4,0.6c0-3.7-0.4-1.6-0.3-5.9c0.3-2.2,0.2,0.8,0.2,1.8c0-4.1,0.1-10.1,0.4-12.9
						c0-0.1-0.1-0.2-0.1-0.1c0-2.7,0.3-6.3,0.4-9.3c0.1,0.1,0.1,0.8,0.1,1.6c0.1-1.1,0.2-2.5,0.1-3.5l0.2,1.1
						c0.1-2.3,0.1-6.7,0.4-7.2c-0.1,0.3-0.3,0.1-0.2-1.8c0.5-1.1,0.1-5.4,0.5-8.5c0.1,0.4,0,2.7,0,2.1c0.2-1.6,0.1-3,0-4.4l0.2,0.4
						l0.1-7.4c0.5-1.1,0.3-7,0.6-6.5c0.2-2.6-0.3,2.2-0.2-1.1c0.2-0.9,0.1-3,0.4-2.9v0.4l0.1-2.3l0.2,1.5c0.1-2-0.1-3.5-0.4-3.6
						c0.3-1.9,0.3-4.6,0.6-5.5v0.7c0.2-5.4,1.3-8.8,1-13c0.1-0.3,0.1-0.3,0.1,0.4l0.2-3.3l0.2,0.8v-5.5l0.1,0.1
						c0.3-3.6,0.6-9.2,0.8-13.9v0.7c0.1-5.1,0.5-4.9,0.5-8.6c0,0.1,0,0.3,0,0.4l0.2-3.3l0.1,0.7c-0.1-2.5,0.9-7,0.5-5.5
						c0-1.4,0-3.8-0.2-4.2c0.2-3.6,0.2-0.9,0.5-3.1c0.2-2.6,0-3.1,0.4-6.7l0.1,0.1c0.1-1.7,0.1-2.7,0.2-5v0.7c0-3.8,0.8-4.7,0.4-7.7
						c0.2-1.6,0.4-4.6,0.7-4.4c0.2-4.7,0.4-8.4,0.6-13.1c0.5-0.7,0-1,0.5-3.8l-0.3,0.2c0.5-6.6,1.7-14.2,2.2-21.5l0.3-0.2l-0.2-1.5
						c0.7-7.8,1.7-18,2.2-24.3c0-2.1,0-5.2,0.3-8.5v0.3c0.3-5.7,0.7-11.7,1.3-17.9c0.1,0.4,0.2-0.2,0.2,0.5c-0.2-1.5,0.3-3.6,0.4-5
						l-0.3,1.5c-0.1-1.8,0.3-4.3,0.6-5.2l-0.1-2.8c0-0.2,0.1-0.5,0.1-0.5l-0.1-0.5l0.4-1.5c0-0.7,0.2-4.4-0.1-5.6
						c0.1-0.3,0.4-2.9,0.3-0.8l0.8-10.2l-0.2,1.6c-0.3,0.2-0.2-2.9,0-4.5c0.1,2.1,0.3,0.2,0.6-0.7c0-1.4-0.3,1.2-0.4,0.4
						c-0.1-1.8,0.1-5.4,0.3-6.4v1c0.1-2.4,0.6-3.4,0.7-5.8c-0.1-2.1,0.2-3.6-0.2-3.2c0.1-3,0.4-1.1,0.5-2.1
						c-0.1-1.4,0.2-5.7,0.5-6.2c-0.5-1.7,0.7-8.1,0.2-8.8l0.4-2.5c-0.1-0.1-0.4-0.6-0.4-2.6c0.2-1.9,0.5-1.4,0.7-2l-0.5-1.3
						c0.5-5.5,0.9-11.8,1.2-18.3s0.6-13.1,1-19.1c0-5.4,0-12.1,0.3-18.4v0.7l0.3-6.2l-0.4,4.5c0-1.4-0.1-2.4-0.1-3.7
						c0.4-6.8,0.8-15.9,0.7-24.3c-0.6-5.5,0.6-3.6,0.2-8.8c0.1,0.4,0.1,0.6,0.2,1c-0.1-5.6-0.2-8.7-0.5-14.3c0.6,0.7,0-3.7,0.3-3.2
						l-0.2-0.5c0.2-1.2,0.2-4.2,0.4-3.8l-0.3-2.5l0.3-0.2c0-3.3-0.2-10.4,0.3-12.1c-0.4-8.1-0.4-21-0.4-31.2
						c-0.2-1.4-0.3-4.4-0.4-6.8l0.3-2.5c-0.1-2.4-0.6-4.9-0.4-7.1c0,0,0.1,0.1,0.1,0.3c-0.1-2.4,0-4.7-0.3-7c0-2.6,0.1-5.2,0.4-4.4
						c-0.5-0.2-0.1-5.6-0.1-5.6s-0.2-8.5-0.5-21.7c-0.2-6.6-0.5-14.4-0.8-22.9c-0.1-4.3-0.4-8.7-0.6-13.3c-0.2-4.6-0.5-9.2-0.7-14
						c-2-38-5.8-80-8.6-96.4c-0.3-1.1-0.8-4.1-1-2.9c-0.3-2.4,0.1-3.5-0.2-3.9c0.1,3.2-0.7-0.9-0.8,2.2l-0.2-2
						c-0.2-0.4,0.4,2.7,0.1,2.3l0.5,0.5c0.1,1.6,0,2.5-0.1,3.1c0.3,1.5,1,2.4,1.1,6.1l-0.1-1c0.3,3-0.1,1.9-0.2,2.5l-0.1-0.7v2.5
						c0-1.9-0.7-5-0.5-3.4c0.2,3.6,0-0.9,0.3,1.7c0.2,1.7-0.1,1.2-0.3,1.1l0.3,3c-0.2-0.1-0.2-2-0.3-0.7l0.5,3.7
						c-0.5,0.7,0.6,4.1,0.2,5.8c-0.4-2.7-0.2,0.3-0.4-0.2l0.6,6.6c0,0.6-0.3-1.7-0.2-0.7c-0.1,1.3,0.3,2,0.3,2.7
						c-0.1,0.6,0.4,4.9,0,4.8c0.1,4.5,0.6,1.9,0.7,6c-0.2,0.6-0.3-3.3-0.4-1.4l0.4,4.3c-0.1-0.4-0.4-0.8-0.5-2.4
						c0.6,11.7-0.1,18.1,0.8,28.8c-0.2,1.5-0.2-1.1-0.5-2.1c0.8,7.7,0.1,11,0.5,17.6l0.2,0.1c-0.1,9.3,0.8,20.3,1.1,30.8l0.1-1.3
						c0.3,1.4,0.4,3.7,0.6,5.4c-0.1,0.3-0.5-1.2-0.3,1.8c0.1-0.6,0.1-1.9,0.2-1.5c-0.2,9,0.8,27.9,0.9,42.6c0.2,5,0.4,10.1,0.5,15.2
						c0.1,5.1,0.1,10.3,0.2,15.5c0.1,10.3,0.2,20.6,0.3,30.4c0-3,0.5-1.7,0.4,0.5c-0.8,6.1,0.2,10.7-0.4,16.9
						c0.1,5.7,0,11.1-0.1,16.4c-0.1,5.3-0.2,10.5,0.1,15.8l-0.3,0.2c-0.1,1.6,0,2,0,3.7h-0.1c-0.1,3.9,0,8.7-0.2,10.9l0.3,0.1
						c0,2.3-0.2,1.2-0.1,3.6l-0.1-0.1l0.2,2.8c-0.5-0.3-0.2,6.6-0.4,8.4c0,3,0,8.8-0.2,13.3c-0.3,0.8-0.4,6.5-0.7,10
						c-0.2,7-0.5,16.9-1,25.8l0.3-0.1l-0.1,2.3c-0.1,0-0.1,0.3-0.1-0.1c-0.5,1.8-0.1,5.3-0.5,7.2c0.4-1.2,0.1-1.6,0.2-2.9
						c0.2-1.9,0.5-0.1,0.2,2.5l1,0.1l0.1,1.8c-0.3,0.2-0.5,1.8-0.7,2c-0.3,7.6-0.2,12.8-0.8,20.7c-0.2-0.8-0.3,5.6-0.7,4
						c-0.1,4.7,0.5-0.8,0.7,1.4c-0.1,1.3,0,2.7-0.2,2.9c-0.1-0.6-0.4,1.1-0.3,0l-0.2,3.2c-0.1,0.3-0.1-0.4-0.1-0.7
						c-0.1,6.4-1.1,11.4-1.2,17.1c0.1,0.4,0.2-2.3,0.4-1.8c-0.1,5.8-0.7,5.1-0.8,10.5L586,427c0,1.8,0.2,2.5-0.2,5.4
						c-0.3,0.5-0.1-2.5-0.1-3.8c-0.1,2-0.5,7-0.1,5.5c-0.1,2.4-0.4,3.2-0.6,4.5c0.1,0,0.4-2.2,0.4-0.8c-0.4,3.2-0.8,8.2-1.1,12.1
						c-0.1,0-0.2,0.2-0.2-0.1C584.2,452.7,583.6,452.3,583.3,456.6z"/>
					<path class="st23" d="M570.9,666.6l0.1-1.6c-0.1,0-0.1-0.1-0.2-0.8L570.9,666.6z"/>
					<path class="st23" d="M575,591.2c0-0.2,0-0.4,0-0.6C574.9,591,574.9,591.1,575,591.2z"/>
					<path class="st23" d="M575.6,572.8c0,1.3,0.1,0.2,0.2-0.5C575.8,572.3,575.8,572.3,575.6,572.8z"/>
					<path class="st23" d="M570.1,709.3c0-0.3-0.1-0.4-0.1-0.4C570,709.3,570.1,709.4,570.1,709.3z"/>
					<path class="st23" d="M568.5,827.6c0-0.1,0-0.3,0-0.5C568.5,827.2,568.5,827.3,568.5,827.6z"/>
					<path class="st23" d="M568.9,821c0-0.3,0-0.7,0-1.3C568.9,820.3,568.9,820.7,568.9,821z"/>
					<path class="st23" d="M571,680.7c0-0.4,0-0.9,0-1.2C570.9,680.1,570.9,680.5,571,680.7z"/>
					<path class="st23" d="M568.8,818.3v-1.6c0,0,0,0-0.1,0L568.8,818.3z"/>
					<path class="st23" d="M568.5,829.6c0-0.6,0-1.5,0-2.1C568.4,828.4,568.4,829,568.5,829.6z"/>
					<path class="st23" d="M569.5,752.7c0-0.1,0-0.1,0-0.2C569.4,751.3,569.4,752.1,569.5,752.7z"/>
					<path class="st23" d="M568.3,811.1c0-0.1,0-0.1,0-0.2l-0.1-0.5L568.3,811.1z"/>
					<path class="st23" d="M568.4,836.8c0-0.3,0-0.6-0.1-0.8c0,0.3,0,0.6,0,0.9C568.4,836.8,568.4,836.8,568.4,836.8z"/>
					<path class="st23" d="M568.7,777.5c0.1,0.5,0.2,0.6,0.2,0.7C569,777.6,568.9,777.2,568.7,777.5z"/>
				</g>
			</g>
		</g>
	</g>
</g>
<path class="st0" d="M784.1,434.4l4.9,6.8c0,0-14.7,0.2-22-0.1c-1.6-0.1-3.2-1.9-4.8-2.9c1.5-1.3,2.9-3.5,4.5-3.7
	C771,434.1,784.1,434.4,784.1,434.4z"/>
<path class="st11" d="M1294.1,439.8c0.8,0.4,2.6,1.1,3.9,2.4c2.1,2.1,1.5,3.8-1.4,4.7c-9.4,2.6-18.8,5.3-28.2,7.7
	c-1.2,0.3-2.7-0.5-4.1-0.8c0.6-1.4,0.9-3.2,1.9-4.1C1273.8,443.2,1283.2,441.2,1294.1,439.8z"/>
<path class="st10" d="M1110.4,654.8c-0.9-0.8-2.4-1.5-2.7-2.5c-0.3-1,0.2-2.6,1-3.4c1-1,2.5-1.5,3.9-2.2c6.5-3.3,13-6.7,19.4-10
	c1-0.5,2.1-1.3,3.2-1.4c1.3-0.1,3.4,0,3.9,0.8c0.6,0.8,0.2,3.2-0.6,3.9c-4.4,3.5-8.7,7.2-13.6,9.8
	C1120.6,652.1,1115.5,653.1,1110.4,654.8z"/>
<path class="st11" d="M924,643c-6.8-4.8-11.7-12-15.3-20.1c-0.7-1.7,0.9-4.4,1.4-6.6c1.6,1,3.7,1.6,4.8,2.9
	c5.1,6.6,9.7,13.3,14.6,20c0.5,0.7,1.2,1.3,1.5,2c0.4,1.4,0.5,2.7,0.8,4.1c-1.5-0.1-3.1-0.1-4.6-0.3C926.3,644.8,925.5,644,924,643z
	"/>
<path class="st11" d="M823.5,448.2c3.5,1.6,6.3,2.1,8,3.7c6,5.7,11.7,11.7,17.2,17.8c0.7,0.8,0.5,3.5-0.2,4.2
	c-0.8,0.7-3.1,0.6-4.2,0c-1.6-0.8-2.7-2.5-4-3.7c-4.6-4.3-9.3-8.5-13.9-12.8c-1.4-1.3-3.2-2.6-3.9-4.3
	C821.8,452,822.9,450.2,823.5,448.2z"/>
<path class="st24" d="M1541,445.1c3.7,0,7.3-0.1,11,0.1c2,0.1,4,0.4,5.8,1.2c1.1,0.5,2.3,2.3,2.2,3.3c-0.1,1-2,2.5-3.1,2.5
	c-9.8-0.2-19.6-0.6-29.3-1.2c-1-0.1-1.9-1.8-2.8-2.8c1.1-1,2.2-2.7,3.3-2.8C1532.4,445,1536.7,445.2,1541,445.1
	C1541,445.2,1541,445.1,1541,445.1z"/>
<path class="st25" d="M728.7,435c4.2,0,8.4-0.3,12.5,0.2c1.3,0.1,2.4,2.1,3.6,3.2c-1.2,0.9-2.3,2.6-3.5,2.7
	c-9.3,0.6-18.6,1.1-27.9,1.3c-1.3,0-2.7-1.8-4-2.8c1.2-1.2,2.2-3.4,3.5-3.5c5.2-0.8,10.6-1,15.9-1.4
	C728.7,434.7,728.7,434.8,728.7,435z"/>
<path class="st24" d="M1336.4,439.2c3.7,0,7.3-0.1,11,0.1c1.8,0.1,3.8,0.3,5.3,1.1c1.2,0.7,1.7,2.4,2.6,3.7
	c-1.2,0.8-2.4,2.2-3.5,2.2c-9.6-0.2-19.2-0.6-28.8-1.2c-1.1-0.1-2-2-3.1-3.1c1.2-0.9,2.4-2.5,3.6-2.6
	C1327.8,439,1332.1,439.2,1336.4,439.2z"/>
<path class="st25" d="M1013.7,661.6c-6.4-0.6-12.9-1.1-19.2-2.1c-1.3-0.2-2.5-2-3.7-3c1.3-1,2.7-2.9,4-2.9
	c8.8-0.1,17.5-0.1,26.3,0.5c1.9,0.1,3.5,2.6,5.3,4c-1.9,1-3.7,2.3-5.7,2.8c-2.2,0.5-4.6,0.1-6.9,0.1
	C1013.8,661.2,1013.7,661.4,1013.7,661.6z"/>
<path class="st25" d="M956.3,657.1c-4.4-0.9-8.7-1.7-13.1-3c-1.2-0.4-2.2-2.1-3.2-3.2c1.3-0.9,2.6-2.7,3.8-2.5
	c8.4,0.9,16.7,1.9,25,3.5c1.9,0.4,3.3,3.4,4.9,5.2c-2.2,0.5-4.4,1.7-6.6,1.7C963.5,658.6,960,657.7,956.3,657.1z"/>
<path class="st8" d="M1489.1,452.2c-4.3,0-8.7,0.3-12.9-0.1c-1.6-0.2-3-1.9-4.5-2.9c1.5-1.1,2.9-3,4.5-3.1
	c7.6-0.6,15.2-0.7,22.9-0.9c1.1,0,2.4,0.3,3.3,0.9c1.4,1,2.4,2.4,3.6,3.7c-1.6,0.9-3.2,2.4-4.8,2.5c-3.9,0.4-7.9,0.1-11.9,0.1
	C1489.1,452.4,1489.1,452.3,1489.1,452.2z"/>
<path class="st24" d="M1219.8,527.7c-1.9,3.9-3.6,7.9-5.6,11.6c-0.7,1.3-2.8,1.8-4.2,2.6c-0.4-1.7-1.6-3.8-1.1-5.2
	c2.7-7.1,5.8-14.1,9-21.1c0.4-0.9,1-1.9,1.8-2.2c1.7-0.8,3.7-1.3,5.6-1.9c0,1.9,0.5,3.9-0.1,5.5c-1.5,3.7-3.4,7.3-5,10.8
	C1220,527.8,1219.9,527.7,1219.8,527.7z"/>
<path class="st26" d="M874.2,508.7c-1,1.1-1.5,2.3-2.2,2.3c-1,0-2.6-0.4-3.1-1.1c-4.3-6.7-8.7-13.5-12.4-20.4
	c-0.8-1.4,0.8-4,1.2-6.2c1.7,1,3.8,1.7,4.8,3.1c3.3,4.8,6.2,9.8,9,14.9C872.7,503.6,873.2,506.2,874.2,508.7z"/>
<path class="st26" d="M1229.6,494.6c0.4-2.7,0.1-4.9,0.9-6.4c3.3-5.8,6.8-11.5,10.4-17c1-1.6,2.7-3.1,4.5-3.7
	c2.5-0.9,5.1,0.8,3.6,3.2c-4.6,7.6-9.9,14.9-15.1,22.1C1233.5,493.6,1232,493.7,1229.6,494.6z"/>
<path class="st10" d="M645.4,439.1c0.4,1.1,1.3,2.5,1.1,3.5s-1.5,2.2-2.6,2.4c-1.4,0.4-2.9,0-4.5,0c-7.3-0.4-14.6-0.7-21.8-1
	c-1.1-0.1-2.5,0.1-3.5-0.4c-1.2-0.6-2.9-1.7-3-2.6c-0.1-1,1.4-2.9,2.5-3.1c5.6-0.8,11.1-1.9,16.7-1.7
	C635.2,436.3,640.1,438,645.4,439.1z"/>
<path class="st25" d="M678,444c-3.5,0.2-6.8,0.4-10.3,0.3c-1-0.1-2.1-1.5-3.1-2.3c0.7-1.2,1.3-3.3,2.2-3.4
	c6.3-1.2,12.7-2.3,19.1-2.7c1.5-0.1,3.2,2.5,4.8,3.8c-1.5,1.1-2.9,2.7-4.4,3.2C683.6,443.6,680.8,443.6,678,444z"/>
<g id="path_x5F_1">
	<path class="st26" d="M382.1,446.8c-3.1-0.2-7.9-0.3-12.7-0.8c-1.2-0.1-2.2-1.5-3.3-2.3c1.1-1.1,2.1-3.2,3.2-3.2
		c8.7-0.4,17.5-0.7,26.2-0.5c1.7,0,3.3,2.6,4.9,4.1c-1.9,0.9-3.7,2.4-5.7,2.7C391.1,447.1,387.4,446.8,382.1,446.8z"/>
	<path class="st11" d="M322.1,438.4c5.7,0.6,11.6,0.9,17.2,2c1.7,0.3,3,2.7,4.4,4.2c-1.7,0.8-3.5,2.2-5.2,2.2
		c-7.4-0.2-14.9-0.7-22.3-1.6c-2-0.2-3.7-2.5-5.5-3.8c1.9-0.9,3.8-2.1,5.9-2.7c1.7-0.4,3.6-0.1,5.4-0.1
		C322.1,438.6,322.1,438.5,322.1,438.4z"/>
	<path class="st10" d="M419.7,445.4c-1.9-1.9-1-4.6,1.9-5.2c1.8-0.4,3.6,0,5.4-0.1c6.7,0,13.6,0.1,20.3,0.1c1.5,0,3,0,4.4,0.5
		c1.1,0.5,2.4,1.6,2.5,2.6c0,1-1.1,2.5-2.1,3c-10.6,4.6-21.1,2.4-31.7-0.4C420.2,445.9,419.9,445.6,419.7,445.4z"/>
	<path class="st11" d="M480.8,440.4c8.3-0.2,16-0.6,23.5-0.3c1.8,0.1,3.5,2.7,5.2,4.2c-1.7,0.9-3.4,2.3-5.1,2.4
		c-5.6,0.4-11.2,0.4-16.9,0.4c-2.1,0-4.3-0.3-6.3-1c-1.2-0.5-3-2-2.9-2.6C478.7,442.2,480.2,441.2,480.8,440.4z"/>
	<path class="st10" d="M565.8,440.2c2,1.8,1.2,4.6-1.7,5.3c-1.7,0.5-3.6,0.2-5.4,0.3c-6.7,0.3-13.6,0.5-20.3,0.8
		c-1.5,0-3,0.1-4.4-0.3c-1.1-0.4-2.5-1.5-2.7-2.4c-0.1-1,1-2.6,2-3c10.3-5.1,21-3.4,31.7-1.1C565.2,439.7,565.5,440,565.8,440.2z"/>
</g>
<g id="achse_x5F_1">
	<g>
		<path d="M464.9,817.2c-0.3,6-1.6,11.6-2.6,18.1c5.2,0.1,10.2,0.2,15.2,0.3c4.9,0.1,9.9,0.4,15.2,0.6c-1,2.2-1.8,1.6-2.6,1.6
			c-8.6,0-17.2,0-25.7,0c-0.9,0-1.7,0-2.6,0c-0.7,3.7-1.3,7.1-2,10.6c-0.2-0.1-0.4-0.3-0.6-0.4c0.4-3.2,0.9-6.5,1.4-10.2
			c-145.3,0.2-290.4-0.4-435.6,0c-0.4,5.6-0.8,10.6-1.2,15.7c-0.2-0.1-0.4-0.1-0.6-0.2c-0.2-4.9,0.7-9.8,0.7-15.2
			c-5.9-0.7-11.8,0.1-17.7-0.9c1.9-1.5,3.8-0.8,5.8-1c1.9-0.2,3.9-0.1,5.8-0.1c2,0,4,0,6.1,0c1.1-7.7,0.8-15.7,2.2-23.5
			c0.6,0.9,1,1.5,1.3,1.9c-0.1,0.6,0,0.8-0.1,0.9c-2,2.2-1.3,6.3-1.6,9.6c-0.4,3.4-0.4,6.9-0.6,10.9c1.2,0,2.1,0,3,0
			c32.7-0.4,65.3-1.1,98-1.3c39.1-0.2,78.1,0.1,117.2,0.2c58.4,0.1,116.8,0.1,175.2,0.2c13.4,0,26.8,0.2,40.2,0.3
			c2.5,0,2.3,1.1,3.3-4.8c0.7-4,1.2-8.1,1.8-12.2c0.1-0.5,0.2-1,0.3-1.4C464.6,817,464.8,817.1,464.9,817.2z"/>
		<path d="M484.6,851.2c0.9-1.1,1.9-2.4,2.9-3.4c3.2-3.2,6.5-6.1,9.8-9.3c1.3-1.2,2.4-2.9,3.6-4.2c-0.1-2.8-0.9-4-1.8-4.6
			c-2.3-1.8-4.7-3.6-7.1-5c-3-1.7-6-3.1-9.1-5.4c0.4-0.2,0.8-0.7,1.2-0.5c4.2,2.2,8.5,4.4,12.7,6.8c1.4,0.8,2.7,2.2,3.8,3.9
			c1.6,2.4,1.6,5.1-0.2,7.2c-2.2,2.7-4.6,4.8-6.9,7.2c-2.6,2.7-5.3,5.3-7.9,7.9c-0.2,0.2-0.4,0.2-0.6,0.2
			C484.8,851.9,484.7,851.6,484.6,851.2z"/>
	</g>
	<g class="st15">
		<path d="M456.2,897c-0.3-0.7-0.1-1.7,0.4-2.8s1.2-2.3,2.1-3.7s1.9-2.8,3-4.3s2.1-3.1,3-4.7c0.9-1.6,1.6-3.2,2.2-4.8
			s0.7-3.2,0.6-4.7c-0.1-0.3-0.4-0.4-0.7-0.6c-0.4-0.1-0.6-0.2-0.8-0.2c-1.9-0.1-3.7,0-5.4,0.4c-1.7,0.4-3.3,1-4.8,1.9
			c-1.5,0.8-3,1.9-4.3,3.1c-1.4,1.2-2.7,2.5-3.9,3.9c-0.1,0-0.3,0-0.6,0c-0.3,0-0.7,0-1,0s-0.6-0.2-0.9-0.3
			c-0.2-0.2-0.3-0.4-0.3-0.8c0.1-0.4,0.4-0.8,1-1.3s1.3-1.1,2.1-1.7c0.8-0.6,1.7-1.2,2.7-1.9c1-0.6,1.9-1.2,2.8-1.8s1.7-1,2.3-1.4
			s1.1-0.7,1.4-0.8c1.3-0.7,2.7-1.1,4.1-1.4c1.4-0.2,2.9-0.3,4.3-0.1c2,0.2,3.2,0.8,3.8,1.9c0.6,1.1,0.7,2.4,0.5,4
			c-0.3,1.6-0.9,3.3-1.8,5.2s-1.9,3.7-2.9,5.4s-2,3.3-3,4.7c-0.9,1.4-1.6,2.4-2,3.1c-0.2,0.4-0.4,0.8-0.6,1.3s-0.4,1-0.6,1.4
			s-0.5,0.8-0.8,1.2s-0.7,0.6-1.2,0.7c-0.3,0.1-0.4,0-0.5-0.1C456.3,897.5,456.3,897.3,456.2,897z M456.9,910.2
			c-0.6-0.5-1-1-1.1-1.5s-0.1-1,0.1-1.5c0.2-0.4,0.6-0.8,1.1-1c0.5-0.3,1.1-0.3,1.8-0.2c0.3,0,0.5,0.2,0.7,0.6
			c0.2,0.4,0.3,0.8,0.3,1.2c0,0.5,0,0.9,0,1.4c-0.1,0.5-0.2,0.9-0.5,1.1s-0.6,0.5-1,0.5S457.4,910.6,456.9,910.2z"/>
	</g>
	<g class="st15">
		<path d="M6.9,870.4c0.9,0.2,1.4,0.7,1.4,1.4L8,874v0.7c0,1.5,0.2,3,0.5,4.6h0.1c3.9-1.2,6.3-1.8,7.2-1.8c1,0.3,1.5,0.8,1.5,1.5
			c0,1.1-1.2,1.7-3.5,1.7l-5.2,1.8c0,4.5,0.5,10.6,1.5,18.4c-0.2,0.9-0.7,1.3-1.5,1.3H8.5c-1.2,0-1.8-1.5-1.8-4.5
			c-0.4-2.2-0.8-7.1-1.1-14.5H4.7C1.6,883,0,882.3,0,881c0-0.4,0.4-0.8,1-1.3h0.5l2.3,0.6h1.6L5,874C5,871.6,5.6,870.4,6.9,870.4z"
			/>
		<path d="M25.7,894.8l7.8-0.8c0.5,0.2,0.8,0.4,1,0.8v0.7c0,1.1-1.2,1.6-3.6,1.6c-0.9,0.3-2.6,0.6-5,0.9c-2.7,0-4.1-0.7-4.1-2.2
			c0-0.4,0.3-0.9,1-1.2H23l1.7,0.3L25.7,894.8L25.7,894.8z M23.5,890l2.4,0.7l6.2-0.5c1.1,0.2,1.7,0.8,1.7,1.8c0,0.5-0.3,1-1,1.2
			l-6.8,0.5c-2.3,0-3.6-0.7-4-2.2C22.3,890.5,22.8,890,23.5,890z"/>
		<path d="M47.6,865c3,0.5,4.6,2,4.6,4.5c0,3.4-2.2,7.5-6.6,12.4c0.6,1.5,1.2,5.6,2,12.2c0.3,0.3,0.5,0.8,0.5,1.2h0.2
			c0,0.9-0.6,1.4-1.9,1.5c-1.3,0-2.3-4-2.8-11.9c-0.4-1.7-0.9-2.5-1.5-2.5c-0.7-0.7-1.1-1.4-1.1-2c0.2-0.8,0.8-1.2,1.6-1.2l1.2,0.3
			c3.6-3.7,5.4-7.2,5.4-10.3c-0.2-0.6-0.6-1-1.1-1.2h-0.6c-2.2,0-4.2,2.2-6.2,6.5c0,2.2-0.4,3.2-1.2,3.2l-0.1,0.2h-0.2
			c-0.9,0-1.4-0.8-1.4-2.4v-0.1c0-3,1.8-6,5.4-9C45,865.5,46.3,865,47.6,865z M48.9,900.8c1.5,0.7,2.2,1.6,2.2,2.7
			c-0.3,0.8-0.9,1.2-1.5,1.2c-1.6-0.9-2.4-1.7-2.4-2.5S47.8,901,48.9,900.8z"/>
	</g>
</g>
<g id="dynamic">
	<g>
		<path d="M1056.8,15.3c6.6,0,12.9,3.5,19,10.5c1.9,3.7,2.8,7.3,2.8,10.7c0,8.1-4.1,14.1-12.4,17.9c-2.7,1.2-5.5,1.8-8.6,1.8h-1.8
			c-1.7,0-2.6-0.8-2.6-2.2h-0.2c0-1.3,0.8-1.9,2.4-2h1.6v-0.4h0.1c-2.9-12.3-4.3-21.4-4.3-27.4h-0.2l-1.8,1.1
			c-1.2,0-1.9-0.8-2.2-2.5c0-2.6,1.4-4.8,4.3-6.7C1054.2,15.6,1055.5,15.3,1056.8,15.3z M1057.6,19.4h-0.6v3.4
			c0,7.7,1.4,17.3,4.3,28.8h0.2c8.6-2.3,13-7.4,13-15.1c0-8.3-4.8-13.9-14.5-16.7C1059.5,19.6,1058.7,19.4,1057.6,19.4z"/>
		<path d="M1083.6,35.2c1.6,0,2.8,3.6,3.4,10.8c0.8,3.3,1.4,5,1.8,5h0.4c1.2-2.9,1.8-5.9,1.8-8.8l-0.4-4.8c0.5-1.3,1.2-1.9,2.2-1.9
			c1.7,0,2.6,3.1,2.6,9.2c1,6.3,1.5,12.2,1.5,17.7v3.3c0,10-2.8,16.8-8.5,20.3l-1.5,0.3c-2.7,0-5.1-2.5-7.4-7.4l-0.6-4.2v-0.2
			c0-3.1,0.9-4.6,2.6-4.6l1.8,1.1l-0.2,4.4c0,2.1,1.1,4.3,3.3,6.5h0.9c2.6,0,4.5-4.9,5.7-14.7l0.1-4.1c0-4.7-0.2-7.7-0.6-9
			c-1.9,1.6-3.3,2.4-4.4,2.4c-2.4,0-4.5-6.4-6.4-19.1l-0.2-0.1C1081.2,36.1,1082,35.4,1083.6,35.2z"/>
		<path d="M1109,32.6c4,0.3,5.9,2.3,5.9,5.8l0.1,0.9l-0.1,10.9c0,1.3,0.7,3,2.2,5.1v0.1c-0.4,1.4-1,2-2,2c-2.9-1.2-4.3-3.8-4.3-7.7
			v-0.9l-0.2-0.1l0.2-0.3v-0.1l0.2-9.7c0-1.4-0.6-2-1.8-2h-0.8c-2.3,0.9-3.5,6-3.5,15.3c0,3.2-0.8,4.8-2.4,4.8c-1.3,0-1.9-0.8-2-2.4
			v-7c0-9.1,0.8-13.6,2.4-13.6l0.7-0.2l1.5,0.2C1106.3,33,1107.6,32.6,1109,32.6z"/>
		<path d="M1132.4,29.1c2.1,0,3.1,0.8,3.1,2.5l-0.6,1.3l-0.4,12.8c0,5.8,1.2,9.4,3.5,10.8l0.1,1c-0.1,1.4-0.8,2-1.9,2h-0.4
			c-3.5-2.4-5.2-6-5.2-10.9h-0.5c-1.9,5.2-4.1,7.8-6.8,7.8c-2.5-0.7-3.7-2.5-3.7-5.5c0-6.6,2.6-13.1,7.9-19.7
			C1129.2,29.9,1130.8,29.1,1132.4,29.1z M1123.9,48.2l-0.3,2v1.3h0.7c3.5-8.7,5.2-14,5.2-16h-0.3
			C1126.6,38.5,1124.8,42.8,1123.9,48.2z"/>
		<path d="M1140.9,31.7c0.3-1.2,1.1-1.8,2.2-1.8c1.2,0,1.9,1.2,2.3,3.5h0.3l3.2-0.7c1.5,0,2.9,1.4,4.3,4.2h0.3
			c2.1-3.2,4.2-4.8,6.3-4.8c4.6,0.8,6.9,3.8,6.9,9l0.1,2.5l-0.6,14.1V59c0,1.2-0.7,1.8-2.2,2c-1.4,0-2.2-1.7-2.2-5.1l0.8-12.7
			c0-4.7-1.1-7-3.3-7c-1.3,0-2.8,3.1-4.5,9.2c-0.9,7-1.6,10.5-2.2,10.5c-0.8,0-1.2,0.2-1.2,0.5c-1.4-0.2-2.2-0.9-2.2-2.2l0.9-8.5
			c-0.1-5.8-0.7-8.8-1.8-8.8h-0.2c-1.2,0.9-1.8,2.6-1.8,5.2v3.7l-0.3,10.7c-0.3,1.2-1,1.8-2.2,1.8c-1,0-1.6-0.8-1.9-2.4l-0.3-8.3
			l0.4-6.8C1142,37.3,1141.6,34.3,1140.9,31.7z"/>
		<path d="M1171.5,19.7c1.8,0.4,2.7,1.2,2.7,2.4c-0.5,1.3-1.2,2-2.2,2c-1.7-0.3-2.6-1.2-2.6-2.6
			C1169.8,20.3,1170.5,19.7,1171.5,19.7z M1174.2,29.5c0.7,0,1.4,0.7,1.9,2l-0.6,5v3.3c0,3.8,0.7,8.8,2,15c-0.5,0.9-1.3,1.3-2.4,1.3
			c-1.9,0-3.2-5.6-3.8-16.8v-2.5C1171.2,32,1172.2,29.5,1174.2,29.5z"/>
		<path d="M1188.1,32.4l2.9-0.4c1.2,0,1.8,0.7,2,2.2c0,1.3-1.5,2.1-4.5,2.5c-1.9,1.5-2.9,3.4-2.9,5.7v2.3c0.9,5.1,2.5,7.7,4.8,7.7
			h0.7c1.3,0,3.3-1.2,5.9-3.7h0.4c0.9,0,1.7,0.7,2.2,2c-0.7,2-2.8,3.8-6.3,5.5c-0.7,0.3-1.5,0.4-2.5,0.4c-4.8,0-7.9-3.8-9.4-11.3
			v-1.5C1181.4,38.2,1183.6,34.4,1188.1,32.4z"/>
	</g>
	<g>
		<g>
			<path d="M1032.8,91.6c4.1-6.1,8.4-12.2,13.5-17.6c2.8-3,6-6,9.7-7.8c2.7-1.4,5.3-1.9,8.3-2.3c3.3-0.3,6.6-0.5,10-0.8
				c6.1-0.6,12.2,0.2,18.2,1.3c6.9,1.3,13.7,3.1,20.5,4.9c14.5,3.8,29.1,7.9,44.2,8.4c15,0.6,29.7-3.3,42.8-10.5
				c1.2-0.7,2.4-1.3,3.6-2.1c0.5-0.3,0.8-0.8,0.2-1.2c-0.5-0.4-1.6,0-2.1,0.3c-12.5,7.5-26.7,12-41.3,11.9
				c-15.2-0.2-30.1-4.3-44.7-8.1c-12.7-3.4-26.1-7.3-39.4-6.5c-3.6,0.2-7.2,0.5-10.7,0.9c-3.2,0.3-6.3,0.9-9.3,2.1
				c-3.8,1.6-7.1,4.1-10,6.9c-4.7,4.5-8.7,9.7-12.5,15c-1.3,1.8-2.5,3.6-3.7,5.4c-0.4,0.6,0.3,0.9,0.8,0.9
				C1031.5,92.5,1032.4,92.2,1032.8,91.6L1032.8,91.6z"/>
		</g>
	</g>
</g>
<g id="static">
	<g>
		<path d="M181.5,14.7h0.7c1.3,0,2.1,0.8,2.2,2.3c0,1.4-1.8,2-5.5,2c-5.9,2.2-9.9,5.5-12,9.8l-0.5,2v0.4c0,2.1,1.4,3.1,4.1,3.1
			l7.7-0.4c5.2,0,8.7,2.5,10.5,7.6l0.4,2.4c0,4.9-3.9,9.3-11.8,13.3c-2.3,0.7-4.4,1.1-6.2,1.3c-4.8,0-8.1-2.7-10.1-8.1
			c-0.6-1.8-0.8-3.7-0.8-5.5c0-0.6,0.4-1.1,1.3-1.8h0.8c1.4,0,2.2,1.8,2.2,5.5c1.2,3.6,3.1,5.5,5.7,5.5h1.9c3.8,0,7.5-2.2,11.2-6.6
			c1-1.4,1.5-2.9,1.5-4.5c0-2.3-1.8-3.9-5.4-4.8h-0.3l-9.2,0.2c-5.1-0.6-7.6-2.7-7.6-6.3l-0.3-0.9c0-4.8,3.6-9.5,10.8-14
			C176.1,15.6,179,14.7,181.5,14.7z"/>
		<path d="M200.4,13.7c1.3,0.3,2,0.9,2,2l-0.4,3.1v0.9c0,2.1,0.2,4.2,0.7,6.5h0.1c5.4-1.6,8.8-2.5,10.1-2.5c1.4,0.4,2,1,2,2
			c0,1.6-1.6,2.4-4.8,2.4l-7.3,2.6c0,6.3,0.7,14.9,2,25.7c-0.3,1.3-1,1.9-2,1.9h-0.1c-1.6,0-2.5-2.1-2.5-6.3
			c-0.6-3.1-1.1-9.9-1.5-20.4h-1.3c-4.4-0.3-6.6-1.3-6.6-3.1c0-0.5,0.5-1.1,1.5-1.9h0.7l3.2,0.8h2.2l-0.6-8.8
			C197.8,15.4,198.7,13.7,200.4,13.7z"/>
		<path d="M230.1,29.1c2.1,0,3.1,0.8,3.1,2.5l-0.6,1.3l-0.4,12.8c0,5.8,1.2,9.4,3.5,10.8l0.1,1c-0.1,1.4-0.8,2-1.9,2h-0.4
			c-3.5-2.4-5.2-6-5.2-10.9h-0.5c-1.9,5.2-4.1,7.8-6.8,7.8c-2.5-0.7-3.7-2.5-3.7-5.5c0-6.6,2.6-13.1,7.9-19.7
			C226.9,29.9,228.5,29.1,230.1,29.1z M221.6,48.2l-0.3,2v1.3h0.7c3.5-8.7,5.2-14,5.2-16H227C224.3,38.5,222.5,42.8,221.6,48.2z"/>
		<path d="M245.7,13.7c1.3,0.3,2,0.9,2,2l-0.4,3.1v0.9c0,2.1,0.2,4.2,0.7,6.5h0.1c5.4-1.6,8.8-2.5,10.1-2.5c1.4,0.4,2,1,2,2
			c0,1.6-1.6,2.4-4.8,2.4l-7.3,2.6c0,6.3,0.7,14.9,2,25.7c-0.3,1.3-1,1.9-2,1.9H248c-1.6,0-2.5-2.1-2.5-6.3
			c-0.6-3.1-1.1-9.9-1.5-20.4h-1.3c-4.4-0.3-6.6-1.3-6.6-3.1c0-0.5,0.5-1.1,1.5-1.9h0.7l3.2,0.8h2.2l-0.6-8.8
			C243.1,15.4,244,13.7,245.7,13.7z"/>
		<path d="M263.1,19.7c1.8,0.4,2.7,1.2,2.7,2.4c-0.5,1.3-1.2,2-2.2,2c-1.7-0.3-2.6-1.2-2.6-2.6C261.4,20.3,262.1,19.7,263.1,19.7z
			 M265.8,29.5c0.7,0,1.4,0.7,1.9,2l-0.6,5v3.3c0,3.8,0.7,8.8,2,15c-0.5,0.9-1.3,1.3-2.4,1.3c-1.9,0-3.2-5.6-3.8-16.8v-2.5
			C262.8,32,263.8,29.5,265.8,29.5z"/>
		<path d="M279.7,32.4l2.9-0.4c1.2,0,1.8,0.7,2,2.2c0,1.3-1.5,2.1-4.5,2.5c-1.9,1.5-2.9,3.4-2.9,5.7v2.3c0.9,5.1,2.5,7.7,4.8,7.7
			h0.7c1.3,0,3.3-1.2,5.9-3.7h0.4c0.9,0,1.7,0.7,2.2,2c-0.7,2-2.8,3.8-6.3,5.5c-0.7,0.3-1.5,0.4-2.5,0.4c-4.8,0-7.9-3.8-9.4-11.3
			v-1.5C273,38.2,275.2,34.4,279.7,32.4z"/>
	</g>
	<g>
		<g>
			<path d="M127.6,90.4c5.5-2.5,11.1-4.9,16.8-7.1c10.7-4.1,21.5-7.8,32.5-10.9c13.5-3.8,27.2-6.8,41.1-8.4
				c14.1-1.7,28.6-1.9,42.7,0.6c14.6,2.6,28.6,8.3,39.6,18.5c1.9,1.7,3.6,3.6,5.3,5.5c0.6,0.7,3.4-0.3,2.7-1.1
				c-10.5-12.2-24.9-19.7-40.4-23.3c-14.1-3.3-28.7-3.5-43-2.3c-14.5,1.2-28.8,4-42.8,7.7c-11.8,3.1-23.5,6.9-34.9,11.2
				c-6.6,2.5-13.2,5.1-19.6,8.1c-0.3,0.2-0.7,0.3-1,0.5c-0.4,0.2-1.1,0.6-0.8,1.1C126,90.9,127.2,90.6,127.6,90.4L127.6,90.4z"/>
		</g>
	</g>
</g>
<path class="st26" d="M896.9,586.8c-0.8-3-2.2-7.6-3.2-12.3c-0.3-1.2,0.7-2.6,1.1-3.9c1.4,0.7,3.7,1,4,2c3.1,8.1,6.2,16.4,8.7,24.7
	c0.5,1.6-1.4,4-2.3,5.9c-1.5-1.5-3.4-2.8-4.4-4.6C899.5,595.5,898.6,591.9,896.9,586.8z"/>
<path class="st24" d="M881.9,540c-1.6-4-3.5-8-4.8-12c-0.5-1.4,0.6-3.3,0.9-4.9c1.6,0.9,3.9,1.3,4.6,2.7c3.5,6.8,6.5,13.7,9.7,20.8
	c0.4,0.9,0.7,2.1,0.4,2.9c-0.5,1.8-1.5,3.7-2.3,5.4c-1.4-1.3-3.2-2.2-4-3.7c-1.8-3.6-3.1-7.4-4.6-11C881.8,540,881.9,540,881.9,540z
	"/>
<path class="st25" d="M1165.2,609.3c3.3-2.6,6.4-5.4,9.9-7.6c1.1-0.7,3.2,0.2,4.8,0.3c-0.4,1.5-0.2,3.5-1.1,4.3
	c-6.9,6.2-13.9,12.4-21.1,18.3c-1,0.8-3.2,0.3-4.9,0.3c0.2-1.7-0.4-4,0.6-4.9c3.6-3.9,7.7-7.4,11.6-11
	C1165,609,1165.1,609.1,1165.2,609.3z"/>
<path class="st25" d="M1198.9,575.9c-1.9,2.9-3.7,5.7-5.9,8.5c-0.7,0.7-2.5,0.8-3.7,1.1c-0.5-1.3-1.9-3-1.4-3.8
	c2.8-5.8,5.7-11.6,9.2-16.9c0.8-1.3,3.9-1.1,5.9-1.6c0,1.9,0.4,3.9-0.1,5.4C1201.9,571.1,1200.2,573.4,1198.9,575.9z"/>
</svg>
