<?xml version="1.0" encoding="utf-8"?>
<!-- Generator: Adobe Illustrator 25.1.0, SVG Export Plug-In . SVG Version: 6.00 Build 0)  -->
<svg version="1.1" id="Layer_1" xmlns="http://www.w3.org/2000/svg" xmlns:xlink="http://www.w3.org/1999/xlink" x="0px" y="0px"
	 viewBox="0 0 1576.1 575.6" style="enable-background:new 0 0 1576.1 575.6;" xml:space="preserve">
<style type="text/css">
	.st0{fill:#00C1D4;}
	.st1{fill:#1C1E26;}
	.st2{fill:#1D1F27;}
	.st3{fill:#1E2027;}
	.st4{fill:#1F2128;}
	.st5{fill:#20222A;}
	.st6{fill:#1E2028;}
	.st7{fill:#1B1D25;}
	.st8{fill:#25272F;}
	.st9{fill:#22242B;}
	.st10{fill:#1E1F27;}
</style>
<g>
	<path class="st0" d="M262.6,116.7c4.7-10.3,8.9-20.8,14.2-30.8c9.1-17,22.1-30.8,37.8-41.9c24-16.9,50-29.9,78.1-38.1
		C425.2-3.6,457.1-1,489,9.4c42.9,14,77.7,38.4,101.7,77c5.9,9.5,9.7,20.4,14.5,30.6c5.8,20.4,7.8,41.2,6.7,62.3
		c-1.5,27.4-8.2,53.8-19.4,78.6c-12.2,26.9-26,53.2-39.6,79.4c-27.8,53.8-55.9,107.5-84.1,161.1c-5,9.5-10.3,19-16.8,27.6
		c-6.5,8.6-15.6,9-23.5,1.7c-4.9-4.5-9.2-10.2-12.4-16c-12.4-22.4-23.7-45.5-36.5-67.6c-11.7-20.2-25.5-39-37.1-59.2
		c-15.7-27.6-30.1-55.9-45.1-84c4.2-6.6,3.9-12-1.3-18c-2.4-2.8-4.7-5.5-7.2-8.4c4.3-5.4,8.5-10.5,12.6-15.8
		c2.6-3.4,3-10.5,0.5-12.6c-3.9-3.2-7.7-1.6-11.3,1c-5.5,3.9-11.1,7.8-16.7,11.7c-18.5-33.9-24.7-70.2-19.8-108.3
		C255.6,139,259.7,127.9,262.6,116.7z M498.9,115.5c-2.1-2.7-4-5.8-6.5-8c-17.9-16-38.6-23.8-62.9-22.8c-24.8,1-43.2,12.5-57.4,31.9
		c-2.2,3.1-4.6,6.1-6.4,9.4c-8.4,15.1-14.5,31-10.2,48.6c4.3,17.8,12.3,34.1,23.4,48.7c6,7.9,13.8,14,23.2,17.5
		c32.1,11.9,61.7,6.5,89.2-13.1c8.7-6.2,15.3-14.2,18.8-24.5c2.1-6.3,5.3-12.3,6.9-18.7c1.6-6.5,3-13.5,2.5-20.1
		c-1.3-16.5-7.3-31.7-16.8-45.3C501.6,117.9,500.2,116.8,498.9,115.5z"/>
	<path class="st1" d="M273.9,258.7c5.6-3.9,11.2-7.7,16.7-11.7c3.6-2.6,7.4-4.2,11.3-1c2.5,2.1,2.1,9.2-0.5,12.6
		c-4,5.2-8.2,10.4-12.6,15.8c2.5,2.9,4.8,5.7,7.2,8.4c5.1,6,5.5,11.5,1.3,18c-3.2,10.8-11,17.5-20.3,22.7c-3.3,1.9-6.6,0.3-9.5-2.2
		c-1.7-1.4-4-2.3-6.2-2.8c-3.5-0.8-7.1-1.2-11.4-1.8c-5.3,5.8-10.8,12.4-16.9,18.5c-7.7,7.8-15.8,15.3-23.9,22.7
		c-5.1,4.6-11.3,6.7-18.3,6.8c-9.7,0.1-19.2-0.9-28-5.6c-1-0.5-2.8-0.8-3.5-0.2c-3.6,2.7-6.5,1-9.5-1.1c-6.1-4.3-12.2-8.5-18.4-12.8
		c-0.4,0-0.8,0-1.1,0c0.1,0.4,0.2,0.8,0.3,1.1c1.6,11.4,3.3,22.8,4.9,34.3c-2,0.1-3.9,0.2-5.9,0.3c-2.1-12.8-4.2-25.6-6.1-38.4
		c-0.3-1.7,0.7-3.7,1.1-5.5c1.7,0.5,3.5,0.8,5,1.7c8.3,5,16.6,10.2,25.2,15.5c6.5-12.5,12.9-24.7,19.5-37.3
		c-6.6-3.9-12.8-7.6-19.1-11.3c-16.4-9.6-32.8-18.9-51.6-23.1c-6.6-1.5-12.5-0.9-18.8,1.8c-6.9,3-14.4,5.2-21.9,6.3
		c-7.5,1-13.9,4-21,7.9c5.1,7.8,9.8,15.4,14.9,22.8c4.7,6.9,4.9,6.9,12.8,4.2c4.2-1.4,5.9-0.2,5.9,4.1c0.1,5.3,0.4,10.7,0.7,16
		c0.2,3.6,0.2,7.4,1.2,10.9c2.3,8.3,5.1,16.4,7.8,24.5c-1.2,4.7-1.9,9.5-3.5,14c-4.3,11.7-12.9,19.9-22.8,26.9
		c-6.2,2.4-12.3,4.9-18.6,7.1c-2.3,0.8-4.9,1.1-7.3,0.8c-8.9-1-22.9-15.3-24-24.2c-0.2-1.6-0.7-3.2-1.4-4.7
		c-1.5-3.1-1.5-6.4,1.5-7.9c1.7-0.9,5.1-0.1,7,1.1c4.3,2.8,8.3,5.5,15,4.6c-2.2-1.3-3.8-1.8-4.7-2.9c-3.1-3.5-6.3-7.1-8.7-11.1
		c-0.8-1.3,0.3-5,1.6-5.9c1.3-0.9,4.3-0.2,6.2,0.7c2.2,1.1,3.8,3.2,5.8,4.6c6.3,4.4,11.9,3.2,16-3.1c1.2-1.8,2.3-3.7,3.7-5.9
		c-4.9-3.6-9.9-7.2-14.7-10.9c-9.2-7.1-18.9-13.8-27.3-21.7c-13.1-12.3-11-26.6,4.7-35.5c9.1-5.2,18.5-9.8,27.7-14.7
		c1.4-0.8,2.8-1.7,4.6-2.7c-8.2-4.2-14.4-9.4-16.8-18.1c-3.5-12.7,2.9-24.6,15.7-27.9c6.2-1.6,12.8-2.1,19.2-3.1
		c11.8-1.8,21.7-6.9,29.9-15.7c10.4-11.2,23.4-13.9,37.9-10.9c6.5,1.4,11.5,5.2,14.8,10.9c2.3,4.2,4.2,8.7,6.3,13
		c1.2,2.5,0.6,4.1-1.8,5.8c-1.9,1.4-3.2,3.9-4.1,6.2c-0.9,2.1-1.2,4.5-1.5,6.8c-1.2,7.6-5.7,12-13.1,13c-8.4,1.1-8.7,2.9-9.9,11.5
		c24.8,12.7,50.5,24.2,72,43.4c12.9-10.4,25.9-20.5,38.3-31.2c2.5-2.2,3.3-6.7,4.3-10.3c1.9-7.2,3.4-14.6,5-21.9
		c0.8-3.4,2.6-5.8,6.2-6.1c3.7-0.3,5.9,1.8,7.1,5.1c1.4,3.5,2.7,7.1,4.3,11.1C264.3,266.8,269.1,262.8,273.9,258.7z M286.8,280.8
		c-1.7-2.5-4.1-3-6.8-0.6c-1,0.9-3.1,0.6-4.7,0.8c0.4-1.6,0.4-3.5,1.4-4.6c5.1-5.9,10.6-11.5,15.7-17.4c2.4-2.7,4.4-5.9,6.5-8.8
		c-0.4-0.4-0.9-0.9-1.3-1.3c-1.8,1.2-3.5,2.4-5.2,3.7c-12,9.2-24,18.4-36.1,27.6c-1.7,1.3-3.8,2-6.8,3.6c2.2-4.8,5.7-7.6,3.1-12.2
		c-1.8-3.2-2.3-7.1-3.3-10.7c-0.5,0.1-1.1,0.2-1.6,0.3c-1,5.7-2,11.4-2.9,17.2c-1,6.9-2.3,13.8-7.9,18.4
		c-12.4,10.3-25.1,20.2-37.7,30.3c-3.4,2.7-7,2.5-10.5-0.1c-3-2.2-6.3-4.1-9.7-6.3c-5.2,10.4-10.1,20.3-15,30.1
		c14.7,10.6,33.8,9.7,46.4-2.2c11.1-10.5,22.1-21.2,33-32c4.2-4.2,8.8-5.7,14.5-4c0.2,0,0.3,0.1,0.5,0.2c5.4,1.3,9.8-0.3,13.5-4.4
		c1-1,2.7-1.4,4-2.1c-0.1,1.6,0.3,3.4-0.3,4.8c-0.9,2.3-2.4,4.3-3.6,6.5c5.4,0.6,9-1.1,10.9-5c2-4.1,1.3-7.7-1.8-11
		c-1.4-1.5-2.6-3.2-4.2-5.1c4.4-0.4,4.4-0.4,12.6,7.8c4.3-8.2-4.4-10.6-7.5-15.5c0.3-0.5,0.7-0.9,1-1.4c3,1,6,2,9,2.9
		C291.7,289.9,288.8,283.6,286.8,280.8z M41.4,396.6c-9.4,11.3-19.4,7.3-29.6,1.2c5.6,9.6,14.5,10.5,24.1,10.4
		c-6.3,7.9-13.9,2.1-21,1.6c6.2,11.2,16.5,5.6,25.7,6c-3.3,6.4-9.1,4.6-13.7,6.3c4.1,3.4,8.3,3.5,12.8,2.1c10-3.1,18.8-8.5,26-16.1
		c17.1-18.1,16.5-41.1-1.5-58.5c-6.1-5.9-12.5-11.5-18.7-17.3c-0.9-0.9-1-2.8-1.4-4.2c1.5,0.3,3.3,0.1,4.4,1
		c4.8,3.8,9.5,7.9,14.2,11.8c2.2,1.8,4.5,3.5,7.2,5.6c0-5.6,0-10.2,0-15.1c-1.7,0.5-3,0.7-4.1,1.3c-4.6,2.5-7.8,1-10.5-3.1
		C51.6,323.7,47.6,318,44,312c-2.1-3.5-3.9-7.2-6.2-11.5c-8.4,4.7-16.6,8.7-24.1,13.8c-8.2,5.5-8.9,13.3-2.7,21
		c1.4,1.8,3.1,3.5,4.8,5c5,4.1,10.1,8.2,15.2,12.2c7.7,6.1,15.6,12,23.1,18.3c4.9,4.2,4.6,5.5-0.1,9.8c-1.3,1.2-2.6,2.6-3.6,4.1
		c-5.1,6.8-10.9,8.5-18.7,4.8c-3-1.5-5.8-3.5-8.7-5.2c0.5,2.4,1.2,5.1,2.9,6C30.6,392.7,35.7,394.4,41.4,396.6z M118.1,279.4
		c0.3-2.1,0.6-3.6,0.8-5c1-7.1,1.9-8,8.7-9.5c2.3-0.5,4.6-0.8,6.7-1.7c6.4-2.8,7.3-8.7,2.4-13.5c-1.4-1.3-2.2-3.3-3.3-5
		c0.4-0.4,0.9-0.8,1.3-1.2c2.2,1.1,4.5,2.3,6.5,3.3c4.9-4.6,5.5-9.2,2.2-15.1c-3-5.4-5.9-10.2-12.4-12c-1.5,4.1-2.4,8.2-4.5,11.8
		c-1.3,2.3-4,4.9-6.4,5.2c-4.3,0.6-4.6,2.5-3.6,5.6c2,5.8,0.4,10.7-2.9,15.5c-3.9,5.7-7.8,11.4-12,17.5
		C107.3,276.6,112.4,277.9,118.1,279.4z"/>
	<path class="st2" d="M796.2,404.8c-6.1-14.2-12.1-27.5-17.7-40.9c-10.3-24.7-20.7-49.3-30.3-74.2c-3.6-9.4-6.8-19.5-7.1-29.4
		c-0.9-26.5,10.4-48.1,33.6-61c31.4-17.4,68.9-14.9,97.9,12.2c19.8,18.4,23.7,42.1,18.6,67.5c-4.5,22.8-15.6,43-27.1,62.8
		c-13.2,22.6-28.1,44-45.5,63.6c-3.6,4.1-8,6.3-13.5,6.2c-7.3-0.1-14.7,0.2-22-0.1c-1.6-0.1-3.2-1.9-4.8-2.9
		c1.5-1.3,2.9-3.5,4.5-3.7C787.1,404.5,791.4,404.8,796.2,404.8z M816.9,196.4c-3.2,0.4-7,0.8-10.8,1.4
		c-11.6,1.7-22.9,4.5-32.5,11.7c-19.1,14.4-33.2,42.8-19.5,75.6c16.2,38.9,32.7,77.7,49.1,116.6c1.9,4.6,6.6,5.2,9.6,1.1
		c13.6-19.3,27.7-38.3,40.3-58.2c13-20.5,24-42.2,30.2-65.9c5.7-21.6,1.9-42-12.9-58.4C856.7,205.2,838.2,197.7,816.9,196.4z"/>
	<path class="st0" d="M129.5,380.6c2-0.1,3.9-0.2,5.9-0.3c7.5,11.1,15.1,22,22.3,33.2c2.5,3.9,3.8,8.4,5.7,12.7
		c-2.6,0.8-5.2,1.6-7.8,2.3c-12.3,2.5-24.6,5-36.9,7.5c-3.2,0.3-6.4,0.6-9.5,0.9c-2,0.3-4.1,0.5-6.1,0.8c-2.6,0.1-5.2,0.2-7.7,0.3
		c-11.2,0.6-22.4,1.2-33.5,1.8c-2.2,0-4.4-0.1-6.6-0.1c1.2-6,2.3-12,3.5-18c9.9-7.1,18.6-15.2,22.8-26.9c1.6-4.5,2.4-9.3,3.5-14
		C99.8,380.7,114.6,380.7,129.5,380.6z"/>
	<path class="st3" d="M1090.4,505.5c2.6,0.3,5,0.1,7.1,1c1.4,0.5,2.2,2.5,3.2,3.8c-1.2,0.9-2.4,2.6-3.6,2.6c-6,0.2-12,0.2-17.9-0.3
		c-2.1-0.2-4.4-1.8-5.8-3.4c-18.6-20.9-33.8-44-43.9-70.2c-3.9-10-5.6-20.4-3-31.3c4.9-20.3,23.7-36.1,44.7-36.9
		c16-0.6,31,2.7,41.9,15.5c11.4,13.3,14.6,28.6,7.9,45.1c-9.5,23.5-19.4,46.9-29.1,70.3C1091.5,502.9,1091,504.1,1090.4,505.5z
		 M1074.6,378.3c-15.7,0.1-33.1,10.8-38.4,23.5c-5,11.8-3.8,23.4,0.8,34.9c9.8,24.9,24.6,46.6,40.9,67.6c3,3.8,4.1,1.4,5.3-1.5
		c10-23.5,20.3-46.9,29.8-70.7c2.6-6.5,4.1-14.4,3.1-21.3C1113.3,390.6,1096.8,378.2,1074.6,378.3z"/>
	<path class="st4" d="M109.1,437c3.2-0.3,6.4-0.6,9.5-0.9c1.6,2.1,3.2,4.3,4.9,6.3c6.6,7.5,12.9,15.2,20,22.3
		c6.7,6.8,8.1,13.8,5.1,22.9c-3.5,10.7-5.4,21.8-8.1,33c9.8,0,19,0,28.8,0c2.6-17.1,5.2-34,7.7-51c0.9-5.8-0.7-11.2-4.1-16
		c-5.8-8.3-11.6-16.6-17.4-24.9c2.6-0.8,5.2-1.6,7.8-2.3c4.5,7,8.7,14.2,13.6,20.8c6.2,8.3,8,17.5,6.3,27.4
		c-2.8,16.9-6,33.7-8.9,50.6c-0.7,3.9-0.8,7.9-1.3,11.9c-0.8,5.9,1.6,10.1,6.5,13.5c4.1,2.9,7.9,6.4,11.4,10.1
		c1.4,1.4,1.9,3.8,2.4,5.9c1.4,5.7,0.3,7.3-5.6,7.6c-9.5,0.6-19,0.7-28.4,1.5c-6.2,0.5-8.2-4.1-11.5-8.5c-1.4,6.3-5.2,8.8-10.9,8.5
		c-4.7-0.2-6.4-2.8-6.1-7.2c1.2-21.6,1.3-43.3,7.3-64.3c2.3-8.1,3.9-16.5,5.6-24.8c0.3-1.4,0.1-3.5-0.7-4.4
		c-10.7-12.3-21.6-24.4-32.5-36.6C110.3,437.6,109.6,437.3,109.1,437z M167.3,528c-8.8,0-17.3-0.1-25.7,0.1c-0.9,0-2.3,2-2.5,3.2
		c-0.6,4.4-0.7,8.9-1,13.4c-0.5,8.1-1,16.2-1.4,24.2c5.2,0.6,5,0.5,7.4-4.7c0.9-2,3.1-3.4,4.8-5.1c1.4,1.5,3.5,2.8,4,4.6
		c1.4,4.7,4.1,5.5,8.7,5.1c8.3-0.7,16.7-0.6,25.1-0.8c0.3-0.7,0.6-1.4,1-2.1c-3-2.6-5.7-5.7-9.1-7.6c-8.9-4.8-13.3-11.7-12-21.9
		C167,533.9,167.1,531.2,167.3,528z"/>
	<path class="st5" d="M55,439.7c2.2,0,4.4,0.1,6.6,0.1c-8.3,26.7-16.5,53.3-24.8,79.8c7.8,0,14.4,0.1,21-0.1c1.1,0,2.5-1.5,3-2.6
		c11.5-26.3,22.9-52.6,34.3-78.9c2.6-0.1,5.2-0.2,7.7-0.3c-11.5,25.5-23.1,51.1-34.5,76.7c-1.1,2.5-0.9,5.6-1.5,8.3
		c-1.4,5.6-2.8,11.2-4.6,16.7c-3.8,11.7-4.2,10.2,6.3,14.8c7.5,3.3,11.1,9.2,10.6,16.4c-0.2,3.3-1.5,4.9-4.9,4.9
		c-10.6-0.2-21.3-0.3-31.9-0.5c-4-0.1-7.1-1.7-8.2-6.9c-3.5,5.6-7.9,7.1-13.5,6.2c-4.2-0.7-5.8-2.8-4.5-7
		c10.6-35.4,21.2-70.9,31.9-106.3C50.2,453.8,52.7,446.8,55,439.7z M72.8,569.8c0.2-7-4.8-8.7-9.3-10.9c-10.6-5-11.7-7.7-7.5-18.6
		c1.8-4.6,3.5-9.1,5.5-14.3c-5.7,0-10.5,0-15.4,0c-11.6,0-11.7,0-15.1,11.2c-3.1,10.4-6.2,20.8-9.3,31.2c0.5,0.5,0.9,0.9,1.4,1.4
		c1.9-1.3,4-2.4,5.7-3.9c1.3-1.2,2-3.1,3.3-4.4c3-3.2,5.5-2.6,7,1.5c0.8,2.2,1.2,4.4,1.9,6.8C51.6,569.8,62,569.8,72.8,569.8z"/>
	<path class="st6" d="M1427.5,412.3c5.5,0.4,10.5,0.5,15.3,1.3c1.7,0.3,3.2,2.3,4.8,3.5c-1.8,1.2-3.6,3.5-5.3,3.4
		c-8.6-0.3-17.3-1.1-25.8-2.1c-1.4-0.2-2.9-1.6-3.9-2.8c-1.5-1.8-2.8-3.7-3.8-5.8c-7.9-15.7-15.9-31.4-23.4-47.3
		c-7.6-16.1-4.5-32.6,7.5-43.4c7.4-6.6,16-9.3,25.8-7.6c10.3,1.7,18.6,7.1,25.4,14.7c7,7.8,5.3,17.5,4.4,26.7
		c-1.8,17.3-9.9,32.6-16.4,48.3C1430.5,404.8,1429.1,408.5,1427.5,412.3z M1417.8,413.5c2.6-6,4.6-10.7,6.5-15.4
		c6.5-15.6,13.8-31,16.1-48c1.2-8.5,0.8-16.5-6.5-22.3c-8.4-6.6-17.6-11-28.6-6.9c-13.1,4.8-19.9,21.2-13.7,35.5
		C1399.6,375.2,1408.6,393.5,1417.8,413.5z"/>
	<path class="st5" d="M1244.8,412.7c0.8,0.4,2.6,1.1,3.9,2.4c2.1,2.1,1.5,3.8-1.4,4.7c-9.4,2.6-18.8,5.3-28.2,7.7
		c-1.2,0.3-2.7-0.5-4.1-0.8c0.6-1.4,0.9-3.2,1.9-4.1C1224.5,416.1,1233.9,414.1,1244.8,412.7z"/>
	<path class="st4" d="M1130.9,510.7c-0.9-0.8-2.4-1.5-2.7-2.5c-0.3-1,0.2-2.6,1-3.4c1-1,2.5-1.5,3.9-2.2c6.5-3.3,13-6.7,19.4-10
		c1-0.5,2.1-1.3,3.2-1.4c1.3-0.1,3.4,0,3.9,0.8c0.6,0.8,0.2,3.2-0.6,3.9c-4.4,3.5-8.7,7.2-13.6,9.8
		C1141.1,508,1136,509,1130.9,510.7z"/>
	<path class="st5" d="M664.2,409.2c1.4,1.1,3.1,2.2,4.1,3.7c0.3,0.4-1.4,2.6-2.6,3.4c-7.7,4.9-15.5,9.7-23.3,14.3
		c-1.4,0.8-3.3,0.6-5,0.8c0.4-1.6,0.3-3.6,1.1-4.9C644.7,417.6,653.8,413,664.2,409.2z"/>
	<path class="st5" d="M927.1,515.7c-8.3-0.4-16.3-3.8-23.7-8.7c-1.5-1-1.6-4.2-2.4-6.3c1.9,0,4-0.7,5.6-0.1c7.8,2.8,15.4,6,23.1,9
		c0.8,0.3,1.7,0.4,2.3,0.9c1.1,0.9,1.9,2,2.9,3c-1.3,0.7-2.6,1.6-4,2.2C930,516,928.9,515.7,927.1,515.7z"/>
	<path class="st5" d="M839.6,418.6c3.5,1.6,6.3,2.1,8,3.7c6,5.7,11.7,11.7,17.2,17.8c0.7,0.8,0.5,3.5-0.2,4.2
		c-0.8,0.7-3.1,0.6-4.2,0c-1.6-0.8-2.7-2.5-4-3.7c-4.6-4.3-9.3-8.5-13.9-12.8c-1.4-1.3-3.2-2.6-3.9-4.3
		C837.9,422.4,839,420.6,839.6,418.6z"/>
	<path class="st4" d="M578.6,534.7c-2.7-0.1-3.9-2.7-2.2-5.1c1-1.5,2.6-2.5,3.9-3.8c4.9-4.6,9.9-9.3,14.8-13.9
		c1.1-1,2.2-2.1,3.5-2.7c1.1-0.4,2.9-0.5,3.6,0.1c0.7,0.7,0.9,2.6,0.5,3.6c-4.5,10.6-13.6,16.3-23.2,21.6
		C579.3,534.7,578.9,534.7,578.6,534.7z"/>
	<path class="st7" d="M1557.1,415.5c3.7,0,7.3-0.1,11,0.1c2,0.1,4,0.4,5.8,1.2c1.1,0.5,2.3,2.3,2.2,3.3c-0.1,1-2,2.5-3.1,2.5
		c-9.8-0.2-19.6-0.6-29.3-1.2c-1-0.1-1.9-1.8-2.8-2.8c1.1-1,2.2-2.7,3.3-2.8C1548.5,415.4,1552.8,415.6,1557.1,415.5
		C1557.1,415.6,1557.1,415.5,1557.1,415.5z"/>
	<path class="st8" d="M732.8,408.1c4.2,0,8.4-0.3,12.5,0.2c1.3,0.1,2.4,2.1,3.6,3.2c-1.2,0.9-2.3,2.6-3.5,2.7
		c-9.3,0.6-18.6,1.1-27.9,1.3c-1.3,0-2.7-1.8-4-2.8c1.2-1.2,2.2-3.4,3.5-3.5c5.2-0.8,10.6-1,15.9-1.4
		C732.8,407.8,732.8,407.9,732.8,408.1z"/>
	<path class="st7" d="M1352.5,409.6c3.7,0,7.3-0.1,11,0.1c1.8,0.1,3.8,0.3,5.3,1.1c1.2,0.7,1.7,2.4,2.6,3.7
		c-1.2,0.8-2.4,2.2-3.5,2.2c-9.6-0.2-19.2-0.6-28.8-1.2c-1.1-0.1-2-2-3.1-3.1c1.2-0.9,2.4-2.5,3.6-2.6
		C1343.9,409.4,1348.2,409.6,1352.5,409.6z"/>
	<path class="st8" d="M1029.8,516.1c-6.4-0.6-12.9-1.1-19.2-2.1c-1.3-0.2-2.5-2-3.7-3c1.3-1,2.7-2.9,4-2.9
		c8.8-0.1,17.5-0.1,26.3,0.5c1.9,0.1,3.5,2.6,5.3,4c-1.9,1-3.7,2.3-5.7,2.8c-2.2,0.5-4.6,0.1-6.9,0.1
		C1029.9,515.7,1029.8,515.9,1029.8,516.1z"/>
	<path class="st8" d="M970.8,515.7c-4.5-0.2-8.9-0.3-13.4-0.8c-1.3-0.2-2.5-1.7-3.7-2.6c1.1-1.1,2.1-3.1,3.3-3.1
		c8.4-0.5,16.8-0.9,25.2-0.6c1.9,0.1,3.8,2.8,5.7,4.3c-2.1,0.9-4.1,2.4-6.2,2.7C978.1,516,974.5,515.7,970.8,515.7z"/>
	<path class="st9" d="M541,540.7c-3.1-0.2-7.9-0.3-12.7-0.8c-1.2-0.1-2.2-1.5-3.3-2.3c1.1-1.1,2.1-3.2,3.2-3.2
		c8.7-0.4,17.5-0.7,26.2-0.5c1.7,0,3.3,2.6,4.9,4.1c-1.9,0.9-3.7,2.4-5.7,2.7C550,541,546.3,540.7,541,540.7z"/>
	<path class="st1" d="M1505.2,422.6c-4.3,0-8.7,0.3-12.9-0.1c-1.6-0.2-3-1.9-4.5-2.9c1.5-1.1,2.9-3,4.5-3.1
		c7.6-0.6,15.2-0.7,22.9-0.9c1.1,0,2.4,0.3,3.3,0.9c1.4,1,2.4,2.4,3.6,3.7c-1.6,0.9-3.2,2.4-4.8,2.5c-3.9,0.4-7.9,0.1-11.9,0.1
		C1505.2,422.8,1505.2,422.7,1505.2,422.6z"/>
	<path class="st7" d="M1300,416.7c-4.3,0-8.7,0.2-12.9-0.1c-1.5-0.1-2.8-1.8-4.2-2.7c1.4-1.1,2.7-3.1,4.2-3.2
		c7.6-0.6,15.2-0.8,22.9-1c1,0,2.2,0.1,2.8,0.7c1.5,1.2,2.8,2.8,4.1,4.2c-1.7,0.8-3.3,2.1-5,2.3c-4,0.3-8,0.1-11.9,0.1
		C1300,416.9,1300,416.8,1300,416.7z"/>
	<path class="st5" d="M479.4,533.4c5.7,0.6,11.6,0.9,17.2,2c1.7,0.3,3,2.7,4.4,4.2c-1.7,0.8-3.5,2.2-5.2,2.2
		c-7.4-0.2-14.9-0.7-22.3-1.6c-2-0.2-3.7-2.5-5.5-3.8c1.9-0.9,3.8-2.1,5.9-2.7c1.7-0.4,3.6-0.1,5.4-0.1
		C479.4,533.6,479.4,533.5,479.4,533.4z"/>
	<path class="st9" d="M892.8,485.7c-0.8,1.2-1.1,2.5-1.8,2.6c-1,0.2-2.6,0-3.2-0.6c-5.3-5.9-10.7-11.9-15.5-18.2
		c-1-1.3,0.1-4.1,0.2-6.3c1.8,0.7,4,1.1,5.2,2.3c4,4.2,7.7,8.7,11.3,13.3C890.5,480.9,891.5,483.4,892.8,485.7z"/>
	<path class="st5" d="M610.6,482.2c2.3-8,4.2-15.4,6.8-22.5c0.6-1.7,3.6-2.5,5.6-3.7c0.3,1.9,1.2,3.9,0.8,5.6
		c-1.3,5.5-3,10.8-4.7,16.2c-0.6,2-1.6,4-2.8,5.7c-0.8,1-2.8,2.3-3.4,2C611.7,484.8,611.2,483.1,610.6,482.2z"/>
	<path class="st9" d="M1175.4,473.2c0.4-2.7,0.1-4.9,0.9-6.4c3.3-5.8,6.8-11.5,10.4-17c1-1.6,2.7-3.1,4.5-3.7
		c2.5-0.9,5.1,0.8,3.6,3.2c-4.6,7.6-9.9,14.9-15.1,22.1C1179.3,472.2,1177.8,472.3,1175.4,473.2z"/>
	<path class="st2" d="M812.3,305.6c-19.2-1.2-31.9-9.9-37.4-26.2c-5.4-16.2,0-33.7,13.9-44.6c1.6-1.2,3.2-2.4,4.9-3.5
		c20-13.2,43.8-5.4,52.5,17.2c8.6,22.2,1.2,43.7-18.7,52.9C822.7,303.5,817.3,304.2,812.3,305.6z M811.9,297.2c4-1,8.2-1.4,11.9-3.1
		c21.1-9.5,24.2-40.3,5.8-55.7c-9.7-8.1-15.2-8.8-26.2-2.7c-3.8,2.1-7.5,4.3-10.8,7.1c-9,7.6-13.4,17.4-11.2,29.2
		C784.4,288.1,793.4,295.2,811.9,297.2z"/>
	<path class="st10" d="M1100.8,421.2c0,14.7-11.2,25.2-26.9,25.2c-13.8,0-25.2-11.5-25.1-25.6c0.2-18.6,13.1-27.6,24.6-28.2
		C1086.7,391.8,1100.9,407.1,1100.8,421.2z M1056.3,420.2c0.3,9.2,6.4,17.2,15.1,17.9c10.3,0.9,17.3-1.1,20.8-12.4
		c2.6-8.3-1.4-16.1-10.7-21.9c-9.5-5.9-18-3.4-22.7,6.9C1057.6,413.7,1057.2,417.1,1056.3,420.2z"/>
	<path class="st2" d="M1413.6,366c-8.7-0.3-16-8.1-15.7-16.7c0.3-9.1,9.1-18.1,17.5-17.8c9.4,0.3,17,8,16.5,17
		C1431.4,357.9,1422.6,366.3,1413.6,366z M1414.8,339.4c-5.2-0.1-10,4.6-10,9.7c0,4.5,4.4,9,8.9,9.2c4.9,0.2,10.2-5.2,10.2-10.3
		C1424,343.4,1419.9,339.5,1414.8,339.4z"/>
</g>
<circle cx="136.7" cy="232" r="1.7"/>
</svg>
