<?xml version="1.0" standalone="no"?>
<!DOCTYPE svg PUBLIC "-//W3C//DTD SVG 20010904//EN"
 "http://www.w3.org/TR/2001/REC-SVG-20010904/DTD/svg10.dtd">
<svg version="1.0" xmlns="http://www.w3.org/2000/svg"
 width="700.000000pt" height="700.000000pt" viewBox="0 0 700.000000 700.000000"
 preserveAspectRatio="xMidYMid meet">
<metadata>
Created by potrace 1.14, written by Peter Selinger 2001-2017
</metadata>
<g transform="translate(0.000000,700.000000) scale(0.100000,-0.100000)"
fill="#000000" stroke="none">
<path d="M0 6300 l0 -700 1400 0 1400 0 0 -1400 0 -1400 700 0 700 0 0 1400 0
1400 1400 0 1400 0 0 700 0 700 -3500 0 -3500 0 0 -700z"/>
<path d="M3 3703 c3 -274 7 -511 10 -528 3 -16 11 -68 17 -115 5 -47 13 -98
15 -115 3 -16 10 -57 16 -90 17 -98 58 -262 97 -385 19 -63 36 -117 37 -120 1
-3 5 -14 10 -25 4 -11 28 -72 53 -135 125 -319 322 -647 565 -940 103 -123
355 -371 482 -473 96 -77 396 -287 410 -287 3 0 24 -12 47 -26 54 -34 295
-155 378 -189 132 -54 249 -95 430 -149 38 -12 128 -34 215 -52 52 -11 245
-44 285 -48 239 -28 685 -28 851 -1 13 2 42 6 64 9 22 3 67 10 100 16 33 6 76
13 95 16 19 3 62 12 95 21 33 8 68 16 77 18 43 9 183 51 285 86 367 127 700
308 1008 547 200 156 350 302 547 529 150 174 325 446 450 698 77 155 190 444
213 541 2 10 14 53 25 94 12 41 23 84 25 95 3 11 11 52 19 90 21 97 25 116 41
235 8 58 17 125 20 150 4 25 9 267 12 538 l5 492 -701 0 -701 0 0 -367 c-1
-367 -4 -497 -14 -570 -3 -21 -8 -54 -10 -73 -24 -180 -96 -409 -191 -605 -55
-113 -132 -246 -172 -295 -6 -8 -33 -44 -60 -80 -69 -94 -283 -304 -393 -387
-281 -209 -556 -327 -920 -394 -166 -31 -469 -33 -660 -4 -134 20 -210 39
-361 91 -212 72 -403 175 -594 319 -147 110 -360 337 -462 491 -7 11 -23 35
-36 54 -31 47 -107 180 -107 187 0 4 -14 36 -31 72 -50 105 -98 246 -129 376
-55 234 -59 289 -60 808 l0 377 -701 0 -701 0 5 -497z"/>
</g>
</svg>
