<?xml version="1.0" encoding="utf-8"?>
<!-- Generator: Adobe Illustrator 25.1.0, SVG Export Plug-In . SVG Version: 6.00 Build 0)  -->
<svg version="1.1" id="Layer_1" xmlns="http://www.w3.org/2000/svg" xmlns:xlink="http://www.w3.org/1999/xlink" x="0px" y="0px"
	 viewBox="0 0 86.5 113.8" style="enable-background:new 0 0 86.5 113.8;" xml:space="preserve">
<style type="text/css">
	.st0{fill:#015F74;}
</style>
<path class="st0" d="M72.9,0c0.1,0,0.3,0,0.4,0c4.9,0.1,5.3,9.2,6.5,12.7c0.7,2,1.4,4,2.1,5.9c2,5.9,3.4,11.9,4.5,18
	c0.2,1.1,0.1,2-0.5,3c-0.5,0.9-1.4,1.5-2.4,1.8c-2,0.5-4.4-0.8-4.7-2.9c-0.5-2.7-0.9-5.5-1.5-8.2c-0.3-1.5-0.7-3-1.2-4.4
	c-0.1,0.7-0.2,1.5-0.3,2.2c-0.7,4.3-1.4,8.6-2.6,12.8c-0.5,2-1.1,4-1.8,6c-0.8,2.2-1.6,4.3-2.4,6.5c-1.7,4.2-3.6,8.3-5.6,12.4
	c-0.9,1.8-1.8,3.5-2.8,5.2c-1,1.7-1.9,3.4-3,5c-2.5,3.7-5.2,7.3-8.2,10.6c-1.6,1.7-3.1,3.4-4.7,5c-1.5,1.5-3.1,2.9-4.7,4.4
	c-2.3,2.1-4.8,4-7.3,5.9c-2.8,2-5.7,3.9-8.7,5.5c-3,1.6-6.1,2.9-9.4,4c-3.2,1.1-6.5,1.7-9.8,2.3c-2.1,0.4-4.2-0.8-4.7-2.9
	c-0.5-2,0.8-4.3,2.9-4.7c2.1-0.4,4.3-0.9,6.4-1.4c1.8-0.4,3.6-1,5.3-1.6c2.2-0.9,4.2-1.9,6.3-3c2.3-1.2,4.5-2.7,6.7-4.2
	c1.4-1,2.8-2.1,4.1-3.2c1.7-1.5,3.4-3,5.1-4.5c3.3-3,6.3-6.3,9.2-9.7c2.7-3.4,5.2-6.9,7.3-10.6c1.1-2,2.3-4,3.3-6
	c1.1-2.2,2.1-4.4,3.1-6.6c0.9-2.2,1.8-4.3,2.7-6.5c0.8-2.2,1.5-4.4,2.2-6.6c1.3-4.1,2.2-8.4,2.9-12.7c0.3-2,0.6-3.9,0.8-5.9
	c0,0,0-0.1,0-0.1c-0.6,1.1-1.2,2.2-1.9,3.3c-1.2,1.8-3.5,2.5-5.4,1.3c-1.8-1.1-2.5-3.6-1.3-5.4c2.3-3.5,3.9-7.5,5.8-11.3
	c1.4-2.8,1.2-8.1,4-10C70.6,0.6,71.7,0.1,72.9,0z"/>
<g>
</g>
<g>
</g>
<g>
</g>
<g>
</g>
<g>
</g>
<g>
</g>
</svg>
