<?xml version="1.0" encoding="utf-8"?>
<!-- Generator: Adobe Illustrator 25.1.0, SVG Export Plug-In . SVG Version: 6.00 Build 0)  -->
<svg version="1.1" id="Layer_1" xmlns="http://www.w3.org/2000/svg" xmlns:xlink="http://www.w3.org/1999/xlink" x="0px" y="0px"
	 viewBox="0 0 72.4 89" style="enable-background:new 0 0 72.4 89;" xml:space="preserve">
<style type="text/css">
	.st0{fill:#EC2227;}
</style>
<path class="st0" d="M31,22.4c1.3,0.3,6.5,5.9,6.7,6c1.2-0.8,8.7-11.1,9.5-11.9c0.8-1,7.6-13.7,15.4-15.1c1.5-0.3,1.4-0.2,4,0.2
	c0.2,0.5,0.4,1,0.6,1.4c1.2,0.9,3.8,0.2,0.8,2.9c0.4,0.7,3.1,1.2,1.2,1.8c-2.8,0.9-3.1-0.3-5.3,0.4c0.1,1-0.1,1.9,0.8,2.7
	c-2.5,2.8-2.7,2.4-4.2,5.2c-1.5,2.8-5.7,9.7-8.3,11.4c0.4-2.5,5.6-7.7,5.1-9.3c-0.2,0.1-8,9.7-8,10.4c-0.1,0-0.4,0-0.4,0.1
	c-3.3,3.9-4.6,5.3-5,7.2c0.7-0.1,1.6-0.3,1.4-0.3c0-1.4,0.1-1.4,0.7-1.9c0.3,1.6,11.5-13.9-1.2,4c0.8,1.2-0.6-0.8,6.8,9.2
	c17.9,23.8,12.2,23.8,18.7,32.6c1.2,1.6,0.7,2.1,2.1,2.6c0.1,0.7-0.5,0.5-0.9,0.7c0.6,1.2,0.7,1.1-3.2,1.5c-0.8-1.4-0.4-1.5-1-2
	c-0.8-0.7-0.2-1.3-1.4-1.9c-0.6-0.3-1-1.4-1.5-1.8c0.4,3.5,0.4,2.1,0.9,3.2c3.8,7.4,2.3,3.5,6.4,5.8c0.1,0.1,0.1,0.3,0.3,0.5
	c-1.5,0.4-2.3,0.2-3,0.9c-0.4,0.4-2.8,0.1-4.3-1.6c-5.1-6-7.3-11.7-8.9-16.2c-1.6-4.5-3.3-4.6-3.6-7.3c-0.1-1.2-1.2-0.4-3-2.8
	c-8.9-11.8-8.5-11.2-8.5-11.7c0-0.3-0.2-0.4-2.7-2.8c-0.7,0-3.6,3.9-23.3,30.9c-2.4,3.3-0.2,2.5-2.4,2.8c-0.1,0.6,0.5,1.4-0.6,1.8
	c-1-2.8-0.2-0.6-1.1-0.6c-0.4,0-0.4-0.3-0.8-4c0.1-0.3,0.9-0.4,0.9-1.2c0-0.7,1.2-0.7,1.1-1.6c-0.1-0.7,0.7-1,0.9-1.6
	c-0.2-0.4-2.5,0.5-4.9,5c-0.9,1.6-0.2,2.6-1.7,3.7c-1-4.3-1.7-2.7-0.7-5.8C6.3,73.3,17.2,57.2,19.3,56c0.4-1.2-0.2-1.7,1.7-4.2
	c0,0,8.6-11.9,9.6-12.9C34.1,35.2,5.7,18.2,0.9,8.7C-1.1,4.8,0.4,1,4.8,0c2.3,1.8,2.1,0.3,3.7,0.8c0.6,0.9-0.4,1.5-0.5,2.3
	c0.8,0.7,1.7-0.2,2.5,0.4C10.3,3.9,10,4.3,9.8,4.7C15.7,10.5,27,17.3,31,22.4c-0.5,0-0.9-0.5-1.3-0.9c-3.8-3.1-1-0.5-5.4-3.9
	c-4.3-3.4-4.6-3.7-5.8-3.7c0.5,1,10.5,9,10.5,9c5.1,4.9,9.2,10.1,6.7,5.3C35.9,27.8,36.1,28.2,31,22.4z M35.2,44.4
	c-1.4,0.8-2.1,2.3-3.1,3.6c1.3-0.1,2.3-2.9,3.5-4C35.7,43.9,35.5,43.3,35.2,44.4z M44.2,42.6c-0.3-1.1-0.5-1.4-1.7-2.2
	C43,41.4,43.5,42.1,44.2,42.6c1.8,3.2,5.3,6.3,3.4,3.9C44.1,42.1,44.7,42.8,44.2,42.6z M44.3,39c0.1,0.6,0.1,1.2,1,1.2
	C45,39.8,44.7,39.4,44.3,39z M35.6,47.7c0-0.2,0-0.2-0.4,0c0,0,0,0.1,0,0.1C35.4,47.8,35.5,47.7,35.6,47.7z M43,33.7
	c0.2,0.1,0.2,0.1,0.3-0.2C43.2,33.4,43.2,33.4,43,33.7z M9.2,5.2C8.9,5.1,9,5.1,8.9,5.3C9.2,5.3,9.2,5.4,9.2,5.2z M45.9,41.2
	c-0.2,0-0.1-0.1-0.2,0.1C46,41.3,46,41.3,45.9,41.2z M10.6,79.4C10.6,79.6,10.6,79.6,10.6,79.4L10.6,79.4z M35.2,31.3
	c0.1,0,0.1,0,0.1-0.1L35.2,31.3z M31.1,49.4c0.1,0,0.1,0,0.1-0.1L31.1,49.4z"/>
<path class="st0" d="M50.9,28.9c0-0.8,0.4-1.3,1.1-1.5C51.9,28,51.4,28.4,50.9,28.9z"/>
<path class="st0" d="M29.1,23c0-0.3-0.1-0.5-0.1-0.8c0.8,0.1,0.8,0.1,0.8,1C29.8,23.2,29.9,23.3,29.1,23C29,23,29.1,23,29.1,23z"/>
<path class="st0" d="M45,35.4c-0.5-0.4-0.5-0.4,0.1-0.9c0,0,0,0,0,0C45.1,35.5,45.1,35.4,45,35.4z"/>
<path class="st0" d="M50.1,27.8c0,0.6,0,0.6-0.5,1C49,28.4,48.9,28.7,50.1,27.8z"/>
<path class="st0" d="M46.5,33.3c-1,0.4-0.9,0.6,0-0.9C46.5,32.7,46.5,33,46.5,33.3z"/>
<path class="st0" d="M47.2,32.3c-0.2,0-0.4,0-0.6,0C46.9,32.1,47,32.1,47.2,32.3z"/>
<path class="st0" d="M32.9,25.6c-0.1,0-0.1,0-0.2-0.1C32.8,25.4,32.7,25.4,32.9,25.6z"/>
<path class="st0" d="M29.8,23.3c0.6-0.1,0.4-0.1,0.6,0.2C29.8,23.2,29.8,23.2,29.8,23.3z"/>
<path class="st0" d="M35.6,27.6c0.1,0.2,0.1,0.5,0.2,0.7C35.2,27.9,35.2,27.9,35.6,27.6z"/>
<g>
</g>
<g>
</g>
<g>
</g>
<g>
</g>
<g>
</g>
<g>
</g>
</svg>
