<svg xmlns="http://www.w3.org/2000/svg" viewBox="0 0 44.7 44.7" >
<style type="text/css">
	.st0{fill:#1CBFD2;}
</style>
<path class="st0" d="M32.3,19.1L32.3,19.1c1.3-3.7,2.3-6.7,2.9-8.9c0.7-2.3,1-3.8,1-4.7c0-1.1-0.3-2-0.9-2.7s-1.5-1-2.4-1
	c-2,0-4.4,4.1-7.2,12.1c-0.4,1.1-0.7,2-0.9,2.6c-0.3-0.8-0.6-1.8-1.1-3.2C20.9,5.1,18.6,1,16.8,1c-1,0-1.9,0.3-2.5,1.1
	c-0.6,0.7-0.9,1.7-0.9,2.9c0,0.9,0.3,2.5,1,4.8s1.8,5.6,3.3,9.8c-0.4-0.3-0.9-0.5-1.3-0.6s-0.7-0.2-1.1-0.2c-0.8,0-1.7,0.5-2.6,1.4
	s-1.4,1.8-1.4,2.7c0,0.4,0.1,0.7,0.2,1.1c0.2,0.6,0.4,1.2,0.6,1.7c-1.6,0.3-2.7,1-3.4,1.9c-0.7,0.9-1.1,2.2-1.1,3.9
	c0,1.5,0.4,3,1,4.4c0.8,1.5,1.9,2.9,3.2,4.1c1.3,1.2,2.8,2.1,4.4,2.7c1.7,0.6,3.5,1,5.3,1c4.6,0,8.4-1.6,11.3-4.7s4.4-7.1,4.4-12
	c0-2.5-0.4-4.3-1.1-5.4C35.3,20.2,34,19.5,32.3,19.1z M29.4,9.5c0.7-2,1.3-3.5,1.9-4.4s1.1-1.4,1.7-1.4c0.4,0,0.8,0.2,1,0.5
	c0.3,0.4,0.4,0.8,0.4,1.3S34,7.4,33.3,9.7s-1.7,5.2-3,8.8l-3.7-0.6L29.4,9.5z M16.1,9.3c-0.7-2.2-1-3.8-1-4.7c0-0.5,0.1-0.9,0.4-1.3
	c0.2-0.3,0.6-0.5,1-0.5c0.5,0,1,0.4,1.5,1.1c0.5,0.7,1.1,2.2,1.9,4.5l3.2,9.1c-0.8-0.1-1.4-0.1-1.7-0.1c-0.3,0-0.6,0-0.7,0
	c-0.3,0-0.6,0-0.9,0.1c-0.2,0.1-0.4,0.2-0.5,0.5C17.8,14.5,16.8,11.6,16.1,9.3z M13.9,21.6c0.5-0.5,0.9-0.8,1.4-0.8s1,0.2,1.6,0.7
	c0.7,0.6,1.3,1.4,1.7,2.2c0.8,1.3,1.5,2.6,2,4c0.5,1.4,0.8,2.2,0.8,2.6s-0.2,0.7-0.4,1c-0.2,0.3-0.6,0.4-0.9,0.5l0,0
	c-0.4,0-1-0.3-1.8-1c-0.9-0.8-1.7-1.7-2.4-2.7c-0.7-0.9-1.4-1.9-2-3c-0.5-0.9-0.7-1.6-0.7-2.1C13.2,22.6,13.4,22.1,13.9,21.6z
	 M31.2,37.3c-2.4,2.8-5.9,4.3-9.5,4.2c-2,0-3.9-0.4-5.7-1.2c-1.7-0.8-3.2-2-4.3-3.5c-0.7-0.9-1.3-1.9-1.7-3C9.6,33,9.4,32,9.4,31.1
	c0-0.9,0.3-1.8,0.9-2.6c0.6-0.7,1.2-1.1,1.9-1.1c0.3,0,0.7,0.2,1.2,0.7c0.7,0.7,1.4,1.4,1.9,2.2c0.6,0.7,1.1,1.5,1.6,2.3
	c0.4,0.7,0.6,1.2,0.6,1.5s-0.2,0.6-0.4,0.7c-0.3,0.2-0.6,0.4-1,0.3c-1.1,0-2.3-0.9-3.6-2.6c-0.5-0.6-0.9-1.1-1.1-1.5
	c-0.1,0.1-0.2,0.2-0.2,0.4c-0.1,0.2-0.1,0.4-0.1,0.6c0,1.1,0.6,2.3,1.9,3.5s2.5,1.8,3.7,1.8c0.7,0,1.5-0.3,2-0.8s0.8-1.1,0.8-1.9
	c0-0.2,0-0.3,0-0.5s-0.1-0.4-0.1-0.6c0.2,0.1,0.3,0.1,0.5,0.1s0.3,0,0.5,0s0.3,0,0.5-0.1s0.3-0.2,0.5-0.3v0.3c0,1.6,0.2,2.8,0.7,3.8
	c0.5,0.9,1.2,1.4,2,1.5l0.1-0.3v-0.2c-0.1-0.6-0.2-1.1-0.5-1.7c-0.3-0.7-0.4-1.5-0.5-2.3c0-1.2,0.4-2.4,1.1-3.3
	c0.7-1.2,1.7-2.3,2.8-3.1c0.7-0.5,1.5-0.9,2.4-1.2c1-0.4,1.7-0.8,2-1.1c0-0.3-0.1-0.6-0.3-0.9c-0.2-0.2-0.4-0.3-0.7-0.3h-1.2
	c-3.3,0-5.7-0.3-7.2-0.9c-1.5-0.6-2.2-1.6-2.2-2.9c0-0.6,0.1-1,0.4-1.2s0.8-0.3,1.5-0.3c2.4,0,4.9,0.3,7.2,0.8
	c2.3,0.5,3.9,1.1,4.7,1.8c0.5,0.4,0.8,1,1,1.7c0.2,1,0.3,2.1,0.3,3.1C35,30.9,33.7,34.5,31.2,37.3z M21.8,25.6
	c0.7,0.3,1.4,0.5,2.1,0.6c0.8,0.1,1.6,0.2,2.4,0.3c-0.6,0.4-1.1,0.8-1.6,1.3s-1,1-1.5,1.6c-0.2-0.6-0.4-1.2-0.6-1.8
	C22.3,26.9,22.1,26.3,21.8,25.6z"/>
</svg>
