<svg xmlns="http://www.w3.org/2000/svg" viewBox="0 0 181.4 181.4">
<style type="text/css">
	.st0{fill:#4750EF;}
</style>
<circle class="st0" cx="69.9" cy="111.5" r="21.6"/>
<path class="st0" d="M75.3,42.2c-35.2,0-63.8,28.6-63.8,63.8s28.6,63.8,63.8,63.8s63.8-28.6,63.8-63.8c0,0,0,0,0,0
	C139.1,70.8,110.5,42.3,75.3,42.2z M75.3,147.8c-23,0-41.7-18.7-41.7-41.7s18.7-41.7,41.7-41.7c23,0,41.7,18.7,41.7,41.7
	C117,129.1,98.3,147.7,75.3,147.8z"/>
<path class="st0" d="M181.3,106c0.1,28.1-11.1,55.1-31,75l-0.4,0.4l-15.6-15.6l0.4-0.4c32.8-32.8,32.8-85.9,0.1-118.7
	C119,31,97.6,22.1,75.3,22.1C53.1,22.1,31.7,30.9,16,46.7l-0.4,0.3L0,31.4l0.3-0.4C41.7-10.3,108.8-10.4,150.3,31
	C170.2,50.9,181.4,77.9,181.3,106L181.3,106z"/>
</svg>
