<?xml version="1.0" encoding="utf-8"?>
<!-- Generator: Adobe Illustrator 25.1.0, SVG Export Plug-In . SVG Version: 6.00 Build 0)  -->
<svg version="1.1" id="Layer_1" xmlns="http://www.w3.org/2000/svg" xmlns:xlink="http://www.w3.org/1999/xlink" x="0px" y="0px"
	 viewBox="0 0 702.3 434.5" style="enable-background:new 0 0 702.3 434.5;" xml:space="preserve">
<style type="text/css">
	.st0{fill:#19BFD2;}
	.st1{fill:none;stroke:#272626;stroke-width:2;stroke-miterlimit:10;}
	.st2{fill:none;stroke:#000000;stroke-width:2;stroke-miterlimit:10;}
	.st3{fill:#272626;}
</style>
<g>
	<g>
		<path class="st0" d="M41.4,211.2c-0.2-8.5,4.5-14.3,10.3-19.5c3.3-3,7.1-5.4,10.3-8.5l0,0c1.8-1.8,3.1-4,4-6.4
			c1.5-4-0.1-7.7-4.2-8.1c-3.9-0.2-7.9,0.3-11.6,1.4c-3.3,0.9-3.8,3.9-2.3,6.9c0.9,1.9,0.6,2.9-1.4,3.5c-6.7,2.2-12.1-1.8-11.5-8.8
			c0.2-1.6,0.9-3.1,2-4.4c8.2-9.4,23.4-11.2,33.6-7.4c14,5.3,13.1,22.9,3.8,30.4c-3.5,2.8-7.6,5.1-11.3,7.7c-7.7,5.5-10,12.3-8,21.4
			c0.5,2.2-0.1,5.6-1.6,6.9c-1.7,1.5-4.9,1.4-7.5,1.7c-0.5,0.1-1.5-1-1.7-1.7v0c-0.8-2.5-1.4-5.1-1.9-7.7
			C42,216.3,41.8,213.7,41.4,211.2L41.4,211.2z M44.5,177.5c-1.6-6.6,1.9-9.9,7.5-11.5c2.2-0.5,4.4-0.8,6.6-1c2-0.3,4,0,5.7,0.9
			c1.8,0.9,3.3,2.2,4.2,4c2.2,3.6,1.4,7.7-1.1,10.7c-3.4,3.9-7.2,7.5-11.2,10.8c-4.9,4.3-10.3,8.5-11.1,15.3c-0.6,4.9,0.2,10,1,14.9
			c0.6,4.2,1,4.2,5.3,2.6c0-0.4-0.1-0.8-0.2-1.2c-2.6-11.6,1-20.7,10.9-27.5c4.2-2.9,8.2-6.2,11.9-9.7c4.7-4.4,4-14.7-1.3-18.6
			c-6.1-4.6-13.1-6.8-20.7-5c-5.4,1.3-10.8,3.2-12.9,9.4C38,175.5,39.7,177.7,44.5,177.5L44.5,177.5z"/>
		<path class="st0" d="M56.8,236.1c0,4.8-2.5,7.1-8.3,7.1c-1.1,0-3.1-1.5-3.1-2.3c-0.1-7.9,1.1-9.3,7.1-9.2
			C55.7,231.7,56.8,232.8,56.8,236.1L56.8,236.1z M49.1,239.5c2-1.2,3.3-1.9,4.5-2.7l-0.4-1.1c-1.3,0.1-2.6,0.3-3.9,0.7
			C49.1,236.5,49.2,237.9,49.1,239.5L49.1,239.5z"/>
	</g>
	<g>
		<polygon class="st1" points="113.9,295.7 77.1,296.7 39.2,296.6 1.3,296.7 2.7,257.3 2,217.8 1,178.4 2.4,139.9 39.2,139.5 
			77.1,139.9 115.6,138.3 113.9,178.4 115.8,217.8 116.2,257.3 		"/>
	</g>
	<g>
		<path d="M10.9,258.4c0.1-0.3,0.3-0.5,0.6-0.5s0.5,0.8,0.5,2.3l0.1,1l-0.2,5.7c-0.1,0.4-0.3,0.6-0.6,0.6c-0.3-0.1-0.5-0.3-0.5-0.6
			l0.2-5.6L10.9,258.4z"/>
		<path d="M14.8,266.1c0.3,0,0.4,0.2,0.5,0.6c-0.1,0.4-0.3,0.6-0.6,0.6c-0.2,0-0.4-0.2-0.5-0.6C14.3,266.3,14.5,266.1,14.8,266.1z"
			/>
		<path d="M28.8,256.8c0.2,0,0.4,0.2,0.4,0.6c0,0.2-0.4,0.5-1.1,0.9c-0.9,0.8-1.6,2.2-2.1,4.2v0.3c1-0.5,1.8-0.8,2.2-0.9
			c0.1,0,0.3,0.1,0.5,0.4v0.3c0,0.1-0.5,0.4-1.6,0.8c-0.8,0.4-1.2,0.7-1.2,0.7v0.2c0,0.7,0.4,1.3,1.3,1.7l0.6,0.1
			c0.4,0,1-0.2,1.8-0.7H30c0.3,0.1,0.4,0.3,0.4,0.5v0.1c-0.7,0.8-1.6,1.2-2.5,1.2c-1.3,0-2.2-0.9-2.8-2.6l-1.1,0.2
			c-0.6-0.1-0.8-0.3-0.8-0.5c0-0.3,0.2-0.5,0.5-0.6l0.4,0.1c0.6-0.2,0.9-0.3,0.9-0.4c0-2,0.8-3.9,2.3-5.7
			C28,257.1,28.6,256.8,28.8,256.8z"/>
		<path d="M33.5,261.1c1,0.1,1.5,0.6,1.5,1.5l0,0.2l0,2.8c0,0.3,0.2,0.8,0.6,1.3v0c-0.1,0.3-0.3,0.5-0.5,0.5c-0.7-0.3-1.1-1-1.1-2
			v-0.2l-0.1,0l0.1-0.1v0l0.1-2.5c0-0.3-0.2-0.5-0.5-0.5h-0.2c-0.6,0.2-0.9,1.6-0.9,3.9c0,0.8-0.2,1.2-0.6,1.2
			c-0.3,0-0.5-0.2-0.5-0.6v-1.8c0-2.3,0.2-3.5,0.6-3.5l0.2-0.1l0.4,0.1C32.8,261.2,33.2,261.1,33.5,261.1z"/>
		<path d="M38.3,256.2c0.3,0.1,0.5,0.2,0.5,0.5l-0.1,0.8v0.2c0,0.5,0.1,1.1,0.2,1.7h0c1.4-0.4,2.3-0.6,2.6-0.6
			c0.3,0.1,0.5,0.3,0.5,0.5c0,0.4-0.4,0.6-1.2,0.6l-1.9,0.7c0,1.6,0.2,3.8,0.5,6.6c-0.1,0.3-0.2,0.5-0.5,0.5h0
			c-0.4,0-0.6-0.5-0.6-1.6c-0.2-0.8-0.3-2.5-0.4-5.2h-0.3c-1.1-0.1-1.7-0.3-1.7-0.8c0-0.1,0.1-0.3,0.4-0.5h0.2l0.8,0.2h0.6l-0.2-2.2
			C37.6,256.6,37.8,256.2,38.3,256.2z"/>
		<path d="M44.9,260c0.8,0,1.2,0.5,1.4,1.6v0.2c0,1.2-0.6,2.2-1.8,3.2c0.7,0.7,1.9,1,3.7,1c0.3,0.1,0.4,0.3,0.4,0.6
			c0,0.3-0.2,0.5-0.6,0.5c-1.2,0-2.4-0.3-3.7-0.9v0.5c0,1.2-0.3,1.9-0.8,1.9c-0.4,0-0.6-0.7-0.6-2.1V265l-0.1-0.5l0.1-0.6l-0.1-1.7
			v-0.1c0-0.3,0.2-0.5,0.5-0.7C43.8,260.5,44.3,260,44.9,260z M44,264c0.3,0,0.7-0.6,1.2-1.9v-0.8l-0.2-0.2h-0.2
			C44.3,261.5,44,262.4,44,264z"/>
		<path d="M50.7,260.7c0.5,0,1.3,0.9,2.4,2.5l0,0.3c0,0.3-0.8,0.6-2.5,0.8l-0.1,0.1v0.1c0.3,1.1,0.5,1.6,0.8,1.6h0.2
			c0.4,0,1-0.4,1.7-1.2h0.1c0.2,0,0.4,0.2,0.6,0.5c0,0.3-0.5,0.8-1.5,1.5c-0.3,0.2-0.6,0.3-1,0.3c-1,0-1.6-0.9-2-2.7
			c-0.6-0.1-0.8-0.3-0.8-0.7c0-0.3,0.2-0.4,0.6-0.5v0.1l0.2-0.1v-0.5C49.6,261.4,50,260.7,50.7,260.7z M50.9,262h-0.2l-0.1,0.7v0.6
			h0.1c0.7,0,1-0.1,1-0.2C51.4,262.5,51.1,262.2,50.9,262z"/>
		<path d="M57,261.8c1.3,0,2,0.8,2.2,2.4c0,1.4-0.7,2.4-2,3c-0.1,0.1-0.3,0.1-0.6,0.1h-0.1l-0.4,0v0l0.1,4.8
			c-0.1,0.4-0.3,0.6-0.6,0.6c-0.3-0.1-0.5-0.3-0.5-0.5l-0.2-9.8c0-0.3,0.2-0.5,0.6-0.5l0.4,0.2C56.3,261.9,56.6,261.8,57,261.8z
			 M56.1,263.7l-0.1,0.6l0.1,1.9l0.5,0.1c0.8,0,1.3-0.6,1.6-1.8v-0.3c-0.1-0.9-0.4-1.4-1-1.4h-0.3C56.4,262.8,56.1,263.1,56.1,263.7
			z"/>
		<path d="M62.5,260c0.8,0,1.2,0.5,1.4,1.6v0.2c0,1.2-0.6,2.2-1.8,3.2c0.7,0.7,1.9,1,3.7,1c0.3,0.1,0.4,0.3,0.4,0.6
			c0,0.3-0.2,0.5-0.6,0.5c-1.2,0-2.4-0.3-3.7-0.9v0.5c0,1.2-0.3,1.9-0.8,1.9c-0.4,0-0.6-0.7-0.6-2.1V265l-0.1-0.5l0.1-0.6l-0.1-1.7
			v-0.1c0-0.3,0.2-0.5,0.5-0.7C61.3,260.5,61.9,260,62.5,260z M61.6,264c0.3,0,0.7-0.6,1.2-1.9v-0.8l-0.2-0.2h-0.2
			C61.8,261.5,61.6,262.4,61.6,264z"/>
		<path d="M68.3,260.7c0.5,0,1.3,0.9,2.4,2.5l0,0.3c0,0.3-0.8,0.6-2.5,0.8l-0.1,0.1v0.1c0.3,1.1,0.5,1.6,0.8,1.6h0.2
			c0.4,0,1-0.4,1.7-1.2h0.1c0.2,0,0.4,0.2,0.6,0.5c0,0.3-0.5,0.8-1.5,1.5c-0.3,0.2-0.6,0.3-1,0.3c-1,0-1.6-0.9-2-2.7
			c-0.6-0.1-0.8-0.3-0.8-0.7c0-0.3,0.2-0.4,0.6-0.5v0.1l0.2-0.1v-0.5C67.1,261.4,67.5,260.7,68.3,260.7z M68.4,262h-0.2l-0.1,0.7
			v0.6h0.1c0.7,0,1-0.1,1-0.2C68.9,262.5,68.7,262.2,68.4,262z"/>
		<path d="M74.7,261.1c1,0.1,1.5,0.6,1.5,1.5l0,0.2l0,2.8c0,0.3,0.2,0.8,0.6,1.3v0c-0.1,0.3-0.3,0.5-0.5,0.5c-0.7-0.3-1.1-1-1.1-2
			v-0.2l-0.1,0l0.1-0.1v0l0.1-2.5c0-0.3-0.2-0.5-0.5-0.5h-0.2c-0.6,0.2-0.9,1.6-0.9,3.9c0,0.8-0.2,1.2-0.6,1.2
			c-0.3,0-0.5-0.2-0.5-0.6v-1.8c0-2.3,0.2-3.5,0.6-3.5l0.2-0.1l0.4,0.1C74,261.2,74.3,261.1,74.7,261.1z"/>
		<path d="M79,260.7c0.5,0,1.3,0.9,2.4,2.5l0,0.3c0,0.3-0.8,0.6-2.5,0.8l-0.1,0.1v0.1c0.3,1.1,0.5,1.6,0.8,1.6h0.2
			c0.4,0,1-0.4,1.7-1.2h0.1c0.2,0,0.4,0.2,0.6,0.5c0,0.3-0.5,0.8-1.5,1.5c-0.3,0.2-0.6,0.3-1,0.3c-1,0-1.6-0.9-2-2.7
			c-0.6-0.1-0.8-0.3-0.8-0.7c0-0.3,0.2-0.4,0.6-0.5v0.1l0.2-0.1v-0.5C77.8,261.4,78.2,260.7,79,260.7z M79.1,262h-0.2l-0.1,0.7v0.6
			h0.1c0.7,0,1-0.1,1-0.2C79.6,262.5,79.3,262.2,79.1,262z"/>
		<path d="M83.7,261.7l0.3-0.2c0.3,0,0.5,0.2,0.6,0.5c-0.2,0.9-0.3,1.8-0.3,2.7c0,0.5,0.1,1,0.4,1.5h0.1c0.3,0,0.8-1.4,1.2-4.1
			c0.2-0.1,0.3-0.2,0.5-0.2c0.4,0,0.6,0.7,0.6,2c0.2,1.5,0.3,2.2,0.5,2.2L88,266c0.3,0.1,0.5,0.3,0.5,0.6c-0.2,0.5-0.5,0.7-0.9,0.7
			c-0.4,0-0.8-0.4-1.2-1.3c-0.5,1-1,1.5-1.5,1.5c-0.7,0-1.2-0.8-1.5-2.3l-0.1-0.6v-0.2C83.3,263.5,83.5,262.6,83.7,261.7z"/>
		<path d="M91.3,260c0.8,0,1.2,0.5,1.4,1.6v0.2c0,1.2-0.6,2.2-1.8,3.2c0.7,0.7,1.9,1,3.7,1c0.3,0.1,0.4,0.3,0.4,0.6
			c0,0.3-0.2,0.5-0.6,0.5c-1.2,0-2.4-0.3-3.7-0.9v0.5c0,1.2-0.3,1.9-0.8,1.9c-0.4,0-0.6-0.7-0.6-2.1V265l-0.1-0.5l0.1-0.6l-0.1-1.7
			v-0.1c0-0.3,0.2-0.5,0.5-0.7C90.1,260.5,90.6,260,91.3,260z M90.4,264c0.3,0,0.7-0.6,1.2-1.9v-0.8l-0.2-0.2h-0.2
			C90.6,261.5,90.4,262.4,90.4,264z"/>
		<path d="M95.7,257.8c0.5,0.1,0.7,0.3,0.7,0.6c-0.1,0.3-0.3,0.5-0.6,0.5c-0.4-0.1-0.7-0.3-0.7-0.7
			C95.2,257.9,95.4,257.8,95.7,257.8z M96.4,260.3c0.2,0,0.4,0.2,0.5,0.5l-0.2,1.3v0.8c0,1,0.2,2.3,0.5,3.9
			c-0.1,0.2-0.3,0.3-0.6,0.3c-0.5,0-0.8-1.4-1-4.3v-0.6C95.6,260.9,95.9,260.3,96.4,260.3z"/>
		<path d="M101.5,260.2c0.5,0,0.8,0.2,0.8,0.6l-0.2,0.3l-0.1,3.3c0,1.5,0.3,2.4,0.9,2.8l0,0.3c0,0.3-0.2,0.5-0.5,0.5h-0.1
			c-0.9-0.6-1.3-1.5-1.3-2.8h-0.1c-0.5,1.3-1.1,2-1.7,2c-0.6-0.2-1-0.7-1-1.4c0-1.7,0.7-3.4,2-5.1
			C100.6,260.4,101.1,260.2,101.5,260.2z M99.3,265.1l-0.1,0.5v0.3h0.2c0.9-2.2,1.3-3.6,1.3-4.1h-0.1
			C100,262.6,99.5,263.7,99.3,265.1z"/>
		<path d="M104.4,257.2c0.3,0.1,0.5,0.3,0.5,0.6l0.2,6.9v2.2c0,0.4-0.2,0.6-0.5,0.6h-0.2c-0.2-0.1-0.3-0.3-0.3-0.5v-2.1l-0.2-7.1
			C103.8,257.4,104,257.3,104.4,257.2z"/>
		<path d="M29,278.8c0.3,0,0.5,0.2,0.6,0.5l-0.1,1.1v0.3c0.3,2.5,0.5,4.4,0.6,5.8c0.1,1.3,0.3,1.9,0.4,1.9c0,0.3-0.2,0.4-0.6,0.5
			c-0.6,0-0.9-1.2-0.9-3.6l-0.5-4.7v-0.2C28.4,279.3,28.6,278.8,29,278.8z"/>
		<path d="M32.7,278.8c0.6,0.2,1.6,2.4,3.2,6.6l0.3,0.3v-1c0-2.7,0.7-4.6,2-5.7c0.3,0,0.5,0.2,0.6,0.6c-0.9,1.3-1.4,2.4-1.4,3.3
			c-0.1,0-0.1,0.4-0.1,1.1v1c0,0.8,0.1,2,0.3,3.5c-0.1,0.3-0.3,0.4-0.6,0.4c-0.3,0-0.7-0.6-1.2-1.7c-0.6-1-1.3-2.4-2-4.4h-0.1v0.1
			l0.1,2.3c0,2.4-0.5,3.9-1.4,4.6l-0.5,0.1c-0.4,0-0.7-0.3-0.9-1c0.1-0.4,0.3-0.6,0.6-0.6h0.1l0.3,0.3h0.1c0.4-0.6,0.6-1.6,0.6-3.2
			c0-1.6-0.2-3.6-0.7-6C32.1,279,32.3,278.9,32.7,278.8z"/>
		<path d="M42.6,277.4L48,277c0.2,0,0.3,0.2,0.5,0.5c0,0.5-0.5,0.7-1.6,0.7l-3.2,0.2l-0.1,0c0.3,2,0.5,5.7,0.5,11.1
			c-0.1,0.5-0.2,0.8-0.6,0.8s-0.5-0.2-0.5-0.7v-4.2c0-2.8-0.1-5.1-0.4-7c-2.1,0.2-3.2,0.4-3.2,0.7l-0.2,0.1
			c-0.4-0.1-0.6-0.3-0.6-0.6C38.7,278,40,277.6,42.6,277.4z"/>
		<path d="M52.2,278.4c0.2,0,0.4,0.2,0.4,0.6c0,0.2-0.4,0.5-1.1,0.9c-0.9,0.8-1.6,2.2-2.1,4.2v0.3c1-0.5,1.8-0.8,2.2-0.9
			c0.1,0,0.3,0.1,0.5,0.4v0.3c0,0.1-0.5,0.4-1.6,0.8c-0.8,0.4-1.2,0.7-1.2,0.7v0.2c0,0.7,0.4,1.3,1.3,1.7l0.6,0.1
			c0.4,0,1-0.2,1.8-0.7h0.2c0.3,0.1,0.4,0.3,0.4,0.5v0.1c-0.7,0.8-1.6,1.2-2.5,1.2c-1.3,0-2.2-0.9-2.8-2.6l-1.1,0.2
			c-0.6-0.1-0.8-0.3-0.8-0.5c0-0.3,0.2-0.5,0.5-0.6l0.4,0.1c0.6-0.2,0.9-0.3,0.9-0.4c0-2,0.8-3.9,2.3-5.7
			C51.4,278.7,51.9,278.4,52.2,278.4z"/>
		<path d="M55.9,278.8c0.6,0.2,1.6,2.4,3.2,6.6l0.3,0.3v-1c0-2.7,0.7-4.6,2-5.7c0.3,0,0.5,0.2,0.6,0.6c-0.9,1.3-1.4,2.4-1.4,3.3
			c-0.1,0-0.1,0.4-0.1,1.1v1c0,0.8,0.1,2,0.3,3.5c-0.1,0.3-0.3,0.4-0.6,0.4c-0.3,0-0.7-0.6-1.2-1.7c-0.6-1-1.3-2.4-2-4.4h-0.1v0.1
			l0.1,2.3c0,2.4-0.5,3.9-1.4,4.6l-0.5,0.1c-0.4,0-0.7-0.3-0.9-1c0.1-0.4,0.3-0.6,0.6-0.6h0.1l0.3,0.3h0.1c0.4-0.6,0.6-1.6,0.6-3.2
			c0-1.6-0.2-3.6-0.7-6C55.3,279,55.5,278.9,55.9,278.8z"/>
		<path d="M65.8,277.4l5.4-0.3c0.2,0,0.3,0.2,0.5,0.5c0,0.5-0.5,0.7-1.6,0.7l-3.2,0.2l-0.1,0c0.3,2,0.5,5.7,0.5,11.1
			c-0.1,0.5-0.2,0.8-0.6,0.8s-0.5-0.2-0.5-0.7v-4.2c0-2.8-0.1-5.1-0.4-7c-2.1,0.2-3.2,0.4-3.2,0.7l-0.2,0.1
			c-0.4-0.1-0.6-0.3-0.6-0.6C61.8,278,63.2,277.6,65.8,277.4z"/>
		<path d="M70.8,278.8c0.3,0,0.5,0.2,0.6,0.5l-0.1,1.1v0.3c0.3,2.5,0.5,4.4,0.6,5.8c0.1,1.3,0.3,1.9,0.4,1.9c0,0.3-0.2,0.4-0.6,0.5
			c-0.6,0-0.9-1.2-0.9-3.6l-0.5-4.7v-0.2C70.2,279.3,70.4,278.8,70.8,278.8z"/>
		<path d="M75.4,279l0.5-0.1H76c0.2,0,0.5,0.2,0.8,0.5c0.5,0,1.3,0.7,2.2,2c0.8,1.6,1.2,2.9,1.2,4.2c0,1.7-0.6,2.8-1.8,3.3l-1.1,0.2
			c-1.8,0-3.1-1.4-3.9-4.1c-0.2-0.7-0.3-1.4-0.3-2.1v-0.2C73.2,280.7,73.9,279.5,75.4,279z M75.2,280.7l-0.4-0.2
			c-0.4,0.4-0.6,1.1-0.6,1.9v0.5c0,2.2,0.7,3.8,2.2,4.8l0.5,0.1h0.7c0.6,0,1.1-0.4,1.3-1.2l0.1-0.8v-0.6c0-1.8-0.7-3.4-2.1-4.8
			l-0.7-0.2h0C76,280.4,75.7,280.5,75.2,280.7z"/>
		<path d="M82.4,278.8c0.6,0.2,1.6,2.4,3.2,6.6l0.3,0.3v-1c0-2.7,0.7-4.6,2-5.7c0.3,0,0.5,0.2,0.6,0.6c-0.9,1.3-1.4,2.4-1.4,3.3
			c-0.1,0-0.1,0.4-0.1,1.1v1c0,0.8,0.1,2,0.3,3.5c-0.1,0.3-0.3,0.4-0.6,0.4c-0.3,0-0.7-0.6-1.2-1.7c-0.6-1-1.3-2.4-2-4.4h-0.1v0.1
			l0.1,2.3c0,2.4-0.5,3.9-1.4,4.6l-0.5,0.1c-0.4,0-0.7-0.3-0.9-1c0.1-0.4,0.3-0.6,0.6-0.6h0.1l0.3,0.3h0.1c0.4-0.6,0.6-1.6,0.6-3.2
			c0-1.6-0.2-3.6-0.7-6C81.8,279,82,278.9,82.4,278.8z"/>
	</g>
</g>
<g>
	<g>
		<path class="st0" d="M276.7,294.5c0-3,1-5.6,2.2-8.2c2-4.2,4.8-8.1,8.2-11.3c1.3-1.3,2.5-2.7,3.6-4.3c1.2-1.5,1.6-3.4,1.3-5.2
			c-0.1-0.9-0.1-1.8-0.1-2.7c-0.1-1.7-0.6-3.2-2.3-3.9v0c-0.8-0.3-1.6-0.4-2.5-0.2c-0.8,0.2-1.6,0.5-2.2,1.1
			c-1.6,1.2-2.5,3.1-2.3,5.1c0,1.7-0.2,3.4-0.6,5.1c-0.2,0.6-0.7,1.1-1.2,1.3c-4,1.3-7.3-1.1-8.1-5.2c-1.1-5.7-0.2-10.9,3.2-15.5
			c3-4.3,7.2-7.5,12.1-9.4c5-1.8,10-1.4,14.2,2c1.8,1.6,3.3,3.5,4.3,5.6c1.5,3.1,2.8,6.2,4,9.4c0.3,0.8,0.3,1.7,0.2,2.5
			c-0.7,3.5-1.6,6.9-2.7,10.3c-1.9,5.6-5.4,10.3-9.4,14.6c-2,2.2-4.6,4-6.4,6.3c-1.3,1.7-2.1,3.8-2.4,5.9c-0.3,2.6,0.1,5.2,0.2,7.9
			c0,0.8-0.1,1.6-0.4,2.4c-0.9,2.4-4.3,3-6.2,1.3C278.8,305.5,277.2,300.2,276.7,294.5L276.7,294.5z M276,268.9l0.3-0.2
			c0.6,1.6,1.6,2.1,3.1,1.2h0c0.6-0.3,1-0.7,1.3-1.3c0.3-0.5,0.5-1.1,0.5-1.8c0-1.1,0-2.2,0.1-3.3c0.1-3.7,3.4-6.1,6.2-6.5
			c2.2-0.3,4.6,1.4,5.3,4c0.6,2,0.7,4.1,0.4,6.1c-1,4.7-3.6,8.9-7.4,11.9c-4.5,3.6-7.1,8.4-6.9,14.3c0,3.1,0.4,6.2,1.2,9.1
			c0.8,2.7,2,4.6,4.3,5.7c0.9,0.4,2,0.4,2.9,0.1c1.1-0.5,0.9-1.7,0.7-2.8c-0.6-2.9-1.1-5.9-0.4-8.9c0.7-3,1.5-6.1,3.9-8.2
			c2.4-2.2,5.1-4.2,7.5-6.5c2.7-2.5,5.1-5.2,6.5-8.6c2.7-6.9,2.5-14,0.3-21v0c-1.2-4-4.1-7.1-8-8.5c-4.7-1.7-9.9-1.3-14.2,1.2
			c-5.3,2.8-9,7.9-10,13.8c-0.7,3.2,0.7,6.2,1.1,9.3C274.8,268.4,275.6,268.6,276,268.9L276,268.9z M307.9,267.1
			c1.3-4.2,2.4-8.5,0-12.3V267.1z M290.4,291.6l0.4,0.3l9.3-9.2l-0.3-0.3C296.8,285.7,292.5,287.5,290.4,291.6L290.4,291.6z
			 M291.4,241.8c4.1,0.3,8,0.6,11.1,3.5C300,242.4,294.2,240.6,291.4,241.8z M288.5,297.9l-0.2,0c0.1,1.8,0.2,3.6,0.3,5.3l0.2,0
			C288.7,301.5,288.6,299.7,288.5,297.9L288.5,297.9z"/>
		<path class="st0" d="M289.7,313c1.6,0,3.1,0.7,4.2,1.8c1.1,1.2,1.6,2.7,1.5,4.3c-0.3,4.1-1.7,5.7-5.6,6c-3,0.2-6.5-3.6-6.5-6.6
			C283.3,315.3,286.4,313.1,289.7,313L289.7,313z M289.9,322.3L289.9,322.3c1.3-0.4,2.5-0.8,3.7-1.4c0.4-0.2,0.7-0.6,0.8-1.1
			c0.1-0.5,0-1-0.2-1.4c-1-1.8-2.6-3.2-4.5-3.9c-0.7-0.2-1.4-0.2-2.1,0.2c-0.6,0.3-1.1,0.9-1.3,1.6c0,0.2,0,0.5-0.1,0.7
			C285,319.5,286.6,322.2,289.9,322.3L289.9,322.3z M293.7,322.3c-1.8,0.4-3.7,0.8-5.4,1.2v0c0.9,0.5,1.9,0.7,2.9,0.5
			C292.2,323.8,293.1,323.2,293.7,322.3L293.7,322.3z"/>
		<path class="st0" d="M302,258.3c0.4,0.4,0.7,0.8,0.9,1.3c0.8,3.1,1.2,6.1-0.1,9.2c-0.7,1.8-1.3,3.6-2,5.3c-1.6,4-4.5,7-7.4,10.1
			c-1.8,1.9-3.5,3.8-5.1,5.8c-2.4,2.9-2.6,6.2-1.9,9.7h0c0,0.7-0.1,1.4-0.3,2c-0.5-0.4-0.9-1-1.2-1.6c-0.8-4.3-0.4-8.3,2.8-11.8
			c2.9-3.1,5.7-6.3,8.2-9.8c2.5-3.6,4.8-7.5,5.7-11.9c0.1-0.7,0.1-1.4,0.1-2.1c0-2,0-4.1,0-6.1L302,258.3z"/>
		<path class="st0" d="M277.9,258.8c-1.9-1-2.2-1.7-1.7-3.6c0.7-2.9,2.5-5.5,4.9-7.2l0.5,0.2c-0.2,0.7-0.5,1.4-1,2
			c-2.1,1.8-2.6,4.2-2.6,6.8C278,257.6,278,258.1,277.9,258.8L277.9,258.8z"/>
		<path class="st0" d="M290.7,321c0.6-2.1,0.9-3.8-0.7-5.4l0.5-0.4v0c0.5,0.3,1,0.7,1.3,1.2C292.7,317.6,292.2,319.6,290.7,321
			L290.7,321z"/>
	</g>
	<g>
		<polygon class="st2" points="349.1,379.6 310.3,379.5 272.4,378.2 234.2,379.1 235.5,339.3 233.3,299.8 235.3,260.4 234.8,221.2 
			272.4,222.1 310.3,220.1 347.8,221.3 349.7,260.4 349.5,299.8 349.4,339.3 		"/>
	</g>
	<g>
		<path d="M245,337.9c0.9,0,1.5,0.7,1.6,2c0,1.2-0.9,3.6-2.8,7v0.1c0.5,0,1.5-0.4,3.2-1.3h0c0.2,0,0.4,0.2,0.6,0.5
			c0,0.6-1.7,1.4-5,2.2c-0.2,0-0.4-0.2-0.5-0.5c0.5-1.1,1.4-2.9,2.7-5.4c0.5-1.2,0.7-2.1,0.7-2.5v-0.6c0-0.2-0.1-0.4-0.4-0.6h-0.2
			c-0.5,0-0.9,0.6-1.3,1.7l0.1,0.2c0,0.2-0.2,0.4-0.5,0.6c-0.4-0.1-0.7-0.3-0.7-0.7c0-0.7,0.5-1.5,1.6-2.5
			C244.3,338,244.6,337.9,245,337.9z"/>
		<path d="M249.9,346.5c0.3,0,0.4,0.2,0.5,0.6c-0.1,0.4-0.3,0.6-0.6,0.6c-0.2,0-0.4-0.2-0.5-0.6
			C249.4,346.7,249.6,346.5,249.9,346.5z"/>
		<path d="M263.9,337.2c0.2,0,0.4,0.2,0.5,0.6c0,0.2-0.4,0.5-1.1,0.9c-0.9,0.8-1.6,2.2-2.1,4.2v0.3c1-0.5,1.8-0.8,2.2-0.9
			c0.1,0,0.3,0.1,0.5,0.4v0.3c0,0.1-0.5,0.4-1.6,0.8c-0.8,0.4-1.2,0.7-1.2,0.7v0.2c0,0.7,0.4,1.3,1.3,1.7l0.6,0.1
			c0.4,0,1-0.2,1.8-0.7h0.2c0.3,0.1,0.4,0.3,0.4,0.5v0.1c-0.7,0.8-1.6,1.2-2.5,1.2c-1.3,0-2.2-0.9-2.8-2.6l-1.1,0.2
			c-0.6-0.1-0.8-0.3-0.8-0.5c0-0.3,0.2-0.5,0.5-0.6l0.4,0.1c0.6-0.2,0.9-0.3,0.9-0.4c0-2,0.8-3.9,2.3-5.7
			C263.1,337.5,263.6,337.2,263.9,337.2z"/>
		<path d="M268.6,341.5c1,0.1,1.5,0.6,1.5,1.5l0,0.2l0,2.8c0,0.3,0.2,0.8,0.6,1.3v0c-0.1,0.3-0.3,0.5-0.5,0.5c-0.7-0.3-1.1-1-1.1-2
			v-0.2l-0.1,0l0.1-0.1v0l0.1-2.5c0-0.3-0.2-0.5-0.5-0.5h-0.2c-0.6,0.2-0.9,1.6-0.9,3.9c0,0.8-0.2,1.2-0.6,1.2
			c-0.3,0-0.5-0.2-0.5-0.6v-1.8c0-2.3,0.2-3.5,0.6-3.5l0.2-0.1l0.4,0.1C267.9,341.6,268.2,341.5,268.6,341.5z"/>
		<path d="M273.4,336.7c0.3,0.1,0.5,0.2,0.5,0.5l-0.1,0.8v0.2c0,0.5,0.1,1.1,0.2,1.7h0c1.4-0.4,2.3-0.6,2.6-0.6
			c0.3,0.1,0.5,0.3,0.5,0.5c0,0.4-0.4,0.6-1.2,0.6l-1.9,0.7c0,1.6,0.2,3.8,0.5,6.6c-0.1,0.3-0.2,0.5-0.5,0.5h0
			c-0.4,0-0.6-0.5-0.6-1.6c-0.2-0.8-0.3-2.5-0.4-5.2h-0.3c-1.1-0.1-1.7-0.3-1.7-0.8c0-0.1,0.1-0.3,0.4-0.5h0.2l0.8,0.2h0.6l-0.2-2.2
			C272.7,337.1,272.9,336.7,273.4,336.7z"/>
		<path d="M280,340.5c0.8,0,1.2,0.5,1.4,1.6v0.2c0,1.2-0.6,2.2-1.8,3.2c0.7,0.7,1.9,1,3.7,1c0.3,0.1,0.4,0.3,0.4,0.6
			c0,0.3-0.2,0.5-0.6,0.5c-1.2,0-2.4-0.3-3.7-0.9v0.5c0,1.2-0.3,1.9-0.8,1.9c-0.4,0-0.6-0.7-0.6-2.1v-1.4l-0.1-0.5l0.1-0.6l-0.1-1.7
			v-0.1c0-0.3,0.2-0.5,0.5-0.7C278.8,341,279.4,340.5,280,340.5z M279.1,344.5c0.3,0,0.7-0.6,1.2-1.9v-0.8l-0.2-0.2h-0.2
			C279.4,341.9,279.1,342.9,279.1,344.5z"/>
		<path d="M285.8,341.1c0.5,0,1.3,0.9,2.4,2.5l0,0.3c0,0.3-0.8,0.6-2.5,0.8l-0.1,0.1v0.1c0.3,1.1,0.5,1.6,0.8,1.6h0.2
			c0.4,0,1-0.4,1.7-1.2h0.1c0.2,0,0.4,0.2,0.6,0.5c0,0.3-0.5,0.8-1.5,1.5c-0.3,0.2-0.6,0.3-1,0.3c-1,0-1.6-0.9-2-2.7
			c-0.6-0.1-0.8-0.3-0.8-0.7c0-0.3,0.2-0.4,0.6-0.5v0.1l0.2-0.1v-0.5C284.7,341.8,285,341.1,285.8,341.1z M285.9,342.4h-0.2
			l-0.1,0.7v0.6h0.1c0.7,0,1-0.1,1-0.2C286.5,343,286.2,342.6,285.9,342.4z"/>
		<path d="M292.1,342.3c1.3,0,2,0.8,2.2,2.4c0,1.4-0.7,2.4-2,3c-0.1,0.1-0.3,0.1-0.6,0.1h-0.1l-0.4,0v0l0.1,4.8
			c-0.1,0.4-0.3,0.6-0.6,0.6c-0.3-0.1-0.5-0.3-0.5-0.5l-0.2-9.8c0-0.3,0.2-0.5,0.6-0.5l0.4,0.2C291.3,342.3,291.7,342.3,292.1,342.3
			z M291.2,344.2l-0.1,0.6l0.1,1.9l0.5,0.1c0.8,0,1.3-0.6,1.6-1.8v-0.3c-0.1-0.9-0.4-1.4-1-1.4H292
			C291.5,343.3,291.2,343.6,291.2,344.2z"/>
		<path d="M297.6,340.5c0.8,0,1.2,0.5,1.4,1.6v0.2c0,1.2-0.6,2.2-1.8,3.2c0.7,0.7,1.9,1,3.7,1c0.3,0.1,0.4,0.3,0.4,0.6
			c0,0.3-0.2,0.5-0.6,0.5c-1.2,0-2.4-0.3-3.7-0.9v0.5c0,1.2-0.3,1.9-0.8,1.9c-0.4,0-0.6-0.7-0.6-2.1v-1.4l-0.1-0.5l0.1-0.6l-0.1-1.7
			v-0.1c0-0.3,0.2-0.5,0.5-0.7C296.4,341,296.9,340.5,297.6,340.5z M296.7,344.5c0.3,0,0.7-0.6,1.2-1.9v-0.8l-0.2-0.2h-0.2
			C296.9,341.9,296.7,342.9,296.7,344.5z"/>
		<path d="M303.4,341.1c0.5,0,1.3,0.9,2.4,2.5l0,0.3c0,0.3-0.8,0.6-2.5,0.8l-0.1,0.1v0.1c0.3,1.1,0.5,1.6,0.8,1.6h0.2
			c0.4,0,1-0.4,1.7-1.2h0.1c0.2,0,0.4,0.2,0.6,0.5c0,0.3-0.5,0.8-1.5,1.5c-0.3,0.2-0.6,0.3-1,0.3c-1,0-1.6-0.9-2-2.7
			c-0.6-0.1-0.8-0.3-0.8-0.7c0-0.3,0.2-0.4,0.6-0.5v0.1l0.2-0.1v-0.5C302.2,341.8,302.6,341.1,303.4,341.1z M303.5,342.4h-0.2
			l-0.1,0.7v0.6h0.1c0.7,0,1-0.1,1-0.2C304,343,303.7,342.6,303.5,342.4z"/>
		<path d="M309.8,341.5c1,0.1,1.5,0.6,1.5,1.5l0,0.2l0,2.8c0,0.3,0.2,0.8,0.6,1.3v0c-0.1,0.3-0.3,0.5-0.5,0.5c-0.7-0.3-1.1-1-1.1-2
			v-0.2l-0.1,0l0.1-0.1v0l0.1-2.5c0-0.3-0.2-0.5-0.5-0.5h-0.2c-0.6,0.2-0.9,1.6-0.9,3.9c0,0.8-0.2,1.2-0.6,1.2
			c-0.3,0-0.5-0.2-0.5-0.6v-1.8c0-2.3,0.2-3.5,0.6-3.5l0.2-0.1l0.4,0.1C309.1,341.6,309.4,341.5,309.8,341.5z"/>
		<path d="M314,341.1c0.5,0,1.3,0.9,2.4,2.5l0,0.3c0,0.3-0.8,0.6-2.5,0.8l-0.1,0.1v0.1c0.3,1.1,0.5,1.6,0.8,1.6h0.2
			c0.4,0,1-0.4,1.7-1.2h0.1c0.2,0,0.4,0.2,0.6,0.5c0,0.3-0.5,0.8-1.5,1.5c-0.3,0.2-0.6,0.3-1,0.3c-1,0-1.7-0.9-2-2.7
			c-0.6-0.1-0.8-0.3-0.8-0.7c0-0.3,0.2-0.4,0.6-0.5v0.1l0.2-0.1v-0.5C312.9,341.8,313.2,341.1,314,341.1z M314.1,342.4H314l-0.1,0.7
			v0.6h0.1c0.7,0,1-0.1,1-0.2C314.7,343,314.4,342.6,314.1,342.4z"/>
		<path d="M318.8,342.2l0.3-0.2c0.3,0,0.5,0.2,0.6,0.5c-0.2,0.9-0.3,1.8-0.3,2.7c0,0.5,0.1,1,0.4,1.5h0.1c0.3,0,0.8-1.4,1.2-4.1
			c0.2-0.1,0.3-0.2,0.5-0.2c0.4,0,0.6,0.7,0.6,2c0.2,1.5,0.3,2.2,0.5,2.2l0.3-0.1c0.3,0.1,0.5,0.3,0.5,0.6c-0.2,0.5-0.5,0.7-0.9,0.7
			c-0.4,0-0.8-0.4-1.2-1.3c-0.5,1-1,1.5-1.5,1.5c-0.7,0-1.2-0.8-1.5-2.3l-0.1-0.6v-0.2C318.4,344,318.5,343.1,318.8,342.2z"/>
		<path d="M326.3,340.5c0.8,0,1.2,0.5,1.4,1.6v0.2c0,1.2-0.6,2.2-1.8,3.2c0.7,0.7,1.9,1,3.7,1c0.3,0.1,0.4,0.3,0.4,0.6
			c0,0.3-0.2,0.5-0.6,0.5c-1.2,0-2.4-0.3-3.7-0.9v0.5c0,1.2-0.3,1.9-0.8,1.9c-0.4,0-0.6-0.7-0.6-2.1v-1.4l-0.1-0.5l0.1-0.6l-0.1-1.7
			v-0.1c0-0.3,0.2-0.5,0.5-0.7C325.2,341,325.7,340.5,326.3,340.5z M325.4,344.5c0.3,0,0.7-0.6,1.2-1.9v-0.8l-0.2-0.2h-0.2
			C325.7,341.9,325.4,342.9,325.4,344.5z"/>
		<path d="M330.8,338.2c0.5,0.1,0.7,0.3,0.7,0.6c-0.1,0.3-0.3,0.5-0.6,0.5c-0.4-0.1-0.7-0.3-0.7-0.7
			C330.3,338.4,330.5,338.2,330.8,338.2z M331.4,340.7c0.2,0,0.4,0.2,0.5,0.5l-0.2,1.3v0.8c0,1,0.2,2.3,0.5,3.9
			c-0.1,0.2-0.3,0.3-0.6,0.3c-0.5,0-0.8-1.4-1-4.3v-0.6C330.7,341.4,330.9,340.7,331.4,340.7z"/>
		<path d="M336.5,340.7c0.5,0,0.8,0.2,0.8,0.6l-0.2,0.3l-0.1,3.3c0,1.5,0.3,2.4,0.9,2.8l0,0.3c0,0.3-0.2,0.5-0.5,0.5h-0.1
			c-0.9-0.6-1.3-1.5-1.3-2.8h-0.1c-0.5,1.3-1.1,2-1.7,2c-0.6-0.2-1-0.7-1-1.4c0-1.7,0.7-3.4,2-5.1
			C335.7,340.8,336.1,340.7,336.5,340.7z M334.4,345.6l-0.1,0.5v0.3h0.2c0.9-2.2,1.3-3.6,1.3-4.1h-0.1
			C335.1,343.1,334.6,344.2,334.4,345.6z"/>
		<path d="M339.5,337.7c0.3,0.1,0.5,0.3,0.5,0.6l0.2,6.9v2.2c0,0.4-0.2,0.6-0.5,0.6h-0.2c-0.2-0.1-0.3-0.3-0.3-0.5v-2.1l-0.2-7.1
			C338.9,337.9,339.1,337.7,339.5,337.7z"/>
		<path d="M254.1,357.4h0.3c2,0,3.2,0.7,3.8,2.1l0.1,0.6v0.2c0,1.4-0.8,2.7-2.5,3.9c-0.4,0.1-0.6,0.3-0.6,0.4
			c0.5,1.8,0.7,3.3,0.7,4.5v0.2c0,0.5-0.2,0.7-0.6,0.7c-0.3,0-0.5-0.2-0.5-0.4v-0.5c0-1.4-0.3-2.9-0.8-4.5c-1-0.1-1.5-0.3-1.6-0.8
			v-0.1c0-0.2,0.2-0.4,0.5-0.5l0.8,0.3v0c-0.4-1.8-0.6-3-0.6-3.6c0-0.3,0.2-0.5,0.6-0.5c0.4,0,0.6,0.6,0.6,1.9l0.5,2.1
			c0.9-0.3,1.5-0.9,2-1.7c0.3-0.5,0.4-0.9,0.4-1.3v-0.2c0-1-0.8-1.5-2.5-1.7h-0.7c-1.6,0.2-2.5,0.6-2.5,1.2v0.1
			c0,0.2,0.1,0.5,0.3,0.8c0,0.3-0.2,0.4-0.6,0.5c-0.5-0.2-0.7-0.7-0.7-1.4C250.3,358.4,251.6,357.6,254.1,357.4z"/>
		<path d="M262,359L262,359c1.5,0.3,2.2,1,2.2,2.1v0.3c0,1.3-0.8,2.5-2.4,3.8v0.1c2.6,2.3,4.4,3.5,5.4,3.5c0.2,0.1,0.3,0.3,0.3,0.5
			c0,0.3-0.2,0.5-0.6,0.5c-1,0-2.9-1.2-5.6-3.6l-0.8-0.4h-0.1c0.3,1.3,0.5,2.4,0.5,3.1c0,0.3-0.2,0.5-0.6,0.7c-0.6,0-0.9-1.4-1-4.1
			c-0.4-1.2-0.6-2.2-0.6-3v-0.2c0-1.1,0.2-1.6,0.7-1.6l0.3,0.2h0.1C260.5,359.6,261.2,359,262,359z M260.5,363.8l-0.1,0.7
			c1.1,0,2-0.9,2.7-2.8V361c0-0.5-0.4-0.8-1.1-1H262C261.2,360,260.8,361.3,260.5,363.8z"/>
		<path d="M273.7,358.8c0.2,0,0.4,0.2,0.5,0.6c0,0.2-0.4,0.5-1.1,0.9c-0.9,0.8-1.6,2.2-2.1,4.2v0.3c1-0.5,1.8-0.8,2.2-0.9
			c0.1,0,0.3,0.1,0.5,0.4v0.3c0,0.1-0.5,0.4-1.6,0.8c-0.8,0.4-1.2,0.7-1.2,0.7v0.2c0,0.7,0.4,1.3,1.3,1.7l0.6,0.1
			c0.4,0,1-0.2,1.8-0.7h0.2c0.3,0.1,0.4,0.3,0.4,0.5v0.1c-0.7,0.8-1.6,1.2-2.5,1.2c-1.3,0-2.2-0.9-2.8-2.6l-1.1,0.2
			c-0.6-0.1-0.8-0.3-0.8-0.5c0-0.3,0.2-0.5,0.5-0.6l0.4,0.1c0.6-0.2,0.9-0.3,0.9-0.4c0-2,0.8-3.9,2.3-5.7
			C272.9,359.1,273.4,358.8,273.7,358.8z"/>
		<path d="M281.5,357.9c0.6,0,1,0.2,1.1,0.7c0,0.2-0.2,0.4-0.5,0.6l-0.6-0.2h-0.1c-0.7,0-1.4,1-2.3,2.9c-0.1,0.5-0.2,0.9-0.2,1.4
			v0.7h0.1c1.5-0.3,2.4-0.5,2.8-0.5c0.5,0.1,0.8,0.3,0.8,0.6c-0.1,0.3-0.3,0.5-0.5,0.5l-0.3-0.1c-1.2,0.1-2.1,0.3-2.7,0.6v0.1
			l0.2,2.9c0,1.4-0.3,2.1-0.8,2.1c-0.2,0-0.4-0.2-0.5-0.5c0.2-0.5,0.3-1.1,0.3-1.9c0-0.7-0.1-1.6-0.2-2.6l-0.9,0.1
			c-0.8-0.1-1.2-0.3-1.2-0.7c0.1-0.3,0.3-0.5,0.6-0.5l0.5,0.1h0.3l0.6-0.1v-1c0-1.9,0.8-3.5,2.5-4.9
			C280.7,358.1,281.1,357.9,281.5,357.9z"/>
		<path d="M288.7,358.8c0.2,0,0.4,0.2,0.4,0.6c0,0.2-0.4,0.5-1.1,0.9c-0.9,0.8-1.6,2.2-2.1,4.2v0.3c1-0.5,1.8-0.8,2.2-0.9
			c0.1,0,0.3,0.1,0.5,0.4v0.3c0,0.1-0.5,0.4-1.6,0.8c-0.8,0.4-1.2,0.7-1.2,0.7v0.2c0,0.7,0.4,1.3,1.3,1.7l0.6,0.1
			c0.4,0,1-0.2,1.8-0.7h0.2c0.3,0.1,0.4,0.3,0.4,0.5v0.1c-0.7,0.8-1.6,1.2-2.5,1.2c-1.3,0-2.2-0.9-2.8-2.6l-1.1,0.2
			c-0.6-0.1-0.8-0.3-0.8-0.5c0-0.3,0.2-0.5,0.5-0.6l0.4,0.1c0.6-0.2,0.9-0.3,0.9-0.4c0-2,0.8-3.9,2.3-5.7
			C287.9,359.1,288.5,358.8,288.7,358.8z"/>
		<path d="M294.2,359L294.2,359c1.5,0.3,2.2,1,2.2,2.1v0.3c0,1.3-0.8,2.5-2.4,3.8v0.1c2.6,2.3,4.4,3.5,5.4,3.5
			c0.2,0.1,0.3,0.3,0.3,0.5c0,0.3-0.2,0.5-0.6,0.5c-1,0-2.9-1.2-5.6-3.6l-0.8-0.4h-0.1c0.3,1.3,0.5,2.4,0.5,3.1
			c0,0.3-0.2,0.5-0.6,0.7c-0.6,0-0.9-1.4-1-4.1c-0.4-1.2-0.6-2.2-0.6-3v-0.2c0-1.1,0.2-1.6,0.7-1.6l0.3,0.2h0.1
			C292.7,359.6,293.4,359,294.2,359z M292.7,363.8l-0.1,0.7c1.1,0,2-0.9,2.7-2.8V361c0-0.5-0.4-0.8-1.1-1h-0.1
			C293.4,360,292.9,361.3,292.7,363.8z"/>
		<path d="M305.8,358.8c0.2,0,0.4,0.2,0.4,0.6c0,0.2-0.4,0.5-1.1,0.9c-0.9,0.8-1.6,2.2-2.1,4.2v0.3c1-0.5,1.8-0.8,2.2-0.9
			c0.1,0,0.3,0.1,0.5,0.4v0.3c0,0.1-0.5,0.4-1.6,0.8c-0.8,0.4-1.2,0.7-1.2,0.7v0.2c0,0.7,0.4,1.3,1.3,1.7l0.6,0.1
			c0.4,0,1-0.2,1.8-0.7h0.2c0.3,0.1,0.4,0.3,0.4,0.5v0.1c-0.7,0.8-1.6,1.2-2.5,1.2c-1.3,0-2.2-0.9-2.8-2.6l-1.1,0.2
			c-0.6-0.1-0.8-0.3-0.8-0.5c0-0.3,0.2-0.5,0.5-0.6l0.4,0.1c0.6-0.2,0.9-0.3,0.9-0.4c0-2,0.8-3.9,2.3-5.7
			C305,359.1,305.6,358.8,305.8,358.8z"/>
		<path d="M309.6,359.3c0.6,0.2,1.6,2.4,3.2,6.6l0.3,0.3v-1c0-2.7,0.7-4.6,2-5.7c0.3,0,0.5,0.2,0.6,0.6c-0.9,1.3-1.4,2.4-1.4,3.3
			c-0.1,0-0.1,0.4-0.1,1.1v1c0,0.8,0.1,2,0.3,3.5c-0.1,0.3-0.3,0.4-0.6,0.4s-0.7-0.6-1.2-1.7c-0.6-1-1.3-2.4-2-4.4h-0.1v0.1l0.1,2.3
			c0,2.4-0.5,3.9-1.4,4.6l-0.5,0.1c-0.4,0-0.7-0.3-0.9-1c0.1-0.4,0.3-0.6,0.6-0.6h0.1l0.3,0.3h0.1c0.4-0.6,0.6-1.6,0.6-3.2
			c0-1.6-0.2-3.6-0.7-6C308.9,359.5,309.1,359.3,309.6,359.3z"/>
		<path d="M318.2,359.9c0.8,0,1.3,0.6,1.4,1.8c0,1-0.2,1.6-0.7,1.8h-0.1c-0.3,0-0.5-0.1-0.5-0.4l0.1-1.4v-0.7l-0.1-0.1h-0.2
			c-0.4,0-0.8,1.1-1.4,3.2l-0.1,1.4v0.4c0,1.2,0.6,2,1.7,2.2h0.8c1.2,0,2.8-0.8,4.5-2.4h0.1c0.3,0,0.5,0.2,0.6,0.6
			c-0.3,0.7-0.6,1.1-1,1.1c-1.7,1.2-3.3,1.8-4.6,1.8s-2.3-0.8-2.9-2.2l-0.2-1.3v-0.2c0-1.9,0.5-3.6,1.6-5.1
			C317.5,360,317.9,359.9,318.2,359.9z"/>
		<path d="M330.4,358.8c0.2,0,0.4,0.2,0.5,0.6c0,0.2-0.4,0.5-1.1,0.9c-0.9,0.8-1.6,2.2-2.1,4.2v0.3c1-0.5,1.8-0.8,2.2-0.9
			c0.1,0,0.3,0.1,0.5,0.4v0.3c0,0.1-0.5,0.4-1.6,0.8c-0.8,0.4-1.2,0.7-1.2,0.7v0.2c0,0.7,0.4,1.3,1.3,1.7l0.6,0.1
			c0.4,0,1-0.2,1.8-0.7h0.2c0.3,0.1,0.4,0.3,0.4,0.5v0.1c-0.7,0.8-1.6,1.2-2.5,1.2c-1.3,0-2.2-0.9-2.8-2.6l-1.1,0.2
			c-0.6-0.1-0.8-0.3-0.8-0.5c0-0.3,0.2-0.5,0.5-0.6l0.4,0.1c0.6-0.2,0.9-0.3,0.9-0.4c0-2,0.8-3.9,2.3-5.7
			C329.6,359.1,330.1,358.8,330.4,358.8z"/>
	</g>
</g>
<g>
	<g>
		<path class="st0" d="M538.3,277.6c0.1,1.2,0.2,2.3,0.4,3.5c0.1,0.6-0.1,1.3-0.6,1.7c-0.4,0.5-1,0.7-1.7,0.7
			c-1.5,0.1-3-0.3-4.2-1.2c-1.2-0.9-1.9-2.3-2.1-3.8c-0.8-4.4-1.7-8.9,0-13.3h0c1.1-2.8,2.6-5.4,4.2-7.8c1.4-2.1,3.4-3.9,5-6
			c1.5-1.9,3.2-3.8,3.7-6.4c0.2-1.4,1.3-2.6,1.7-3.9c0.4-1.6,0.7-3.2-0.3-4.7c-0.3-0.4,0.3-1.3,0.1-1.9c-0.7-2.7-2.6-4.9-5-6.2
			c-1.2-0.6-4.3,0.2-5.7,1.3c-3,2.4-3.7,5.9-4.2,9.4h0c-0.3,2.2-1,4.3-2.3,6.2c-1.3,1.9-3.3,2-5.3,1.7c-0.9-0.1-1.7-0.5-2.4-1.2
			c-0.7-0.6-1.2-1.4-1.4-2.3c-1.4-4.2-1.5-8.4,0.4-12.4c2.2-4.7,4.6-9.3,9-12.6c4.2-3,8.8-3.6,13.7-3.3v0c1.8,0.3,3.6,0.7,5.4,1.2
			c2.1,0.4,3.8,1.8,4.8,3.6c1.7,3.1,3.7,6.2,4.8,9.5c1.2,3.7,1.5,7.6,0.8,11.4c-0.5,2.7-2.2,5.2-3.4,7.8
			c-2.9,6.3-7.8,11.2-11.7,16.7h0C539.4,268.9,538.1,273.2,538.3,277.6L538.3,277.6z M531.1,227.3c-3.1,2.3-5.9,4.9-8.4,7.9l0.6-0.1
			l-1.7,2.5l-0.1-0.1l25-19.2l-0.1-0.4c-0.6,0-1.3,0.1-1.9,0.3c-0.8,0.4-1.5,0.9-2.1,1.5c-3,2.4-5.8,5-8.9,7.2h0
			c-3,2.2-5.9,4.6-8.5,7.2c-0.5,0.4-1.1,0.7-1.7,1c0.4-0.6,0.8-1.1,1.3-1.7C526.7,231.3,528.9,229.3,531.1,227.3l9.8-7.3l-0.4-0.5
			c-1.2,0.9-2.3,1.8-3.5,2.7C535.1,223.9,533.1,225.6,531.1,227.3L531.1,227.3z M553.8,246.2l-0.5-0.7c-5.2,3.2-11.3,5-15.4,10.1
			C543.8,253.3,548.8,249.7,553.8,246.2L553.8,246.2z M540.5,216.9l-0.2-0.3c-6.8,5.4-13.9,10.5-19.4,17.4l-0.4-0.4
			c0.4-0.6,0.8-1.2,1.2-1.8l-0.4-0.2l-1.9,3.1l0.6,0.5C526.8,229.1,533.6,223,540.5,216.9L540.5,216.9z M554.7,241.2
			c-4,2.6-8.7,3.9-12,8c0.3,0,0.6,0,0.8-0.1c2.6-1.4,5.1-2.9,7.7-4.3c0.6-0.4,1.3-0.7,2-1C554.7,243.6,555.1,243.1,554.7,241.2
			L554.7,241.2z M532.9,263.8l0.2,0.3c0.4-0.2,0.8-0.3,1.2-0.6c3.7-1.9,7.4-3.7,11-5.7c1.4-0.8,2.4-2.1,3.6-3.2l-0.3-0.4
			C543.3,257.4,538.1,260.6,532.9,263.8L532.9,263.8z M544.7,245.1l0.4,0.3c0.1,0,0.3,0,0.4-0.1c3.1-1.8,6.3-3.5,9.4-5.3
			c0.4-0.4,0.7-0.9,0.9-1.4c-0.2-0.1-0.5-0.1-0.7-0.1c-2.8,1.4-5.6,2.8-8.4,4.3C545.8,243.3,545.3,244.3,544.7,245.1L544.7,245.1z
			 M550.1,220.5c-1.6-1.4-1.6-1.5-3-0.5c-2.2,1.4-4.3,2.9-6.4,4.4c-0.9,0.6-1.7,1.3-2.6,2l0.2,0.4c0.6-0.1,1.2-0.3,1.8-0.5
			c1-0.6,1.9-1.4,3-1.9C545.5,223.3,546.8,220.5,550.1,220.5L550.1,220.5z M531.6,267.9c4.8-1.8,10.4-5.5,11.1-6.9
			c-0.2,0-0.4,0-0.6,0.1c-3.2,1.8-6.5,3.7-9.7,5.5C532.1,266.9,531.8,267.4,531.6,267.9L531.6,267.9z M551.6,250.4l-0.4-0.4
			c-4.1,2.6-8.2,5.1-12.5,7.8c0.2,0.1,0.4,0.1,0.6,0.1c3.8-2,7.5-4,11.2-6.1C551,251.4,551.3,250.9,551.6,250.4L551.6,250.4z
			 M531.1,271.1l0.3,0.5c1.5-0.9,3-1.8,4.4-2.7c3.2-2,3.2-2,3.6-3.5C536.5,267.1,533.2,268.2,531.1,271.1L531.1,271.1z M545.7,233.3
			l0.4,0.4c2.7-1.5,5.3-3,8-4.6c0.2-0.3,0.3-0.6,0.4-1c-0.4-0.2-0.7-0.2-1.1-0.2c-1.4,0.7-2.7,1.5-3.9,2.4
			C548.1,231.2,546.9,232.3,545.7,233.3L545.7,233.3z M555.7,233.7l-0.2-0.4l0,0c-0.4,0-0.8,0-1.1,0.1c-2.4,1.3-4.8,2.7-7.2,4.1
			c-0.2,0.3-0.4,0.6-0.4,1c0.4,0,0.7,0,1.1-0.2c2.4-1.3,4.7-2.6,7-3.9C555.1,234.2,555.4,234,555.7,233.7L555.7,233.7z M537.9,269.6
			c-3,0.7-6.6,3.5-6.5,5.2C533.5,272.9,536.9,273.1,537.9,269.6z M555.2,231.5l-0.2-0.4c-3,0.3-5.5,2.1-8,3.7h0
			c-0.3,0.3-0.5,0.7-0.7,1.2l0.4,0.3L555.2,231.5z M519.9,243.5c1.7-3.2,4.1-5.1,6.5-7.1c0.9-0.7,1.7-1.6,2.6-2.3l-0.5-0.5
			c-2.3,2.1-4.6,4.3-7,6.4l0,0c-0.4,0.3-0.8,0.6-1.2,0.9c-0.4,0.2-1.1,0.4-1.1,0.7C519.4,242.3,519.6,242.9,519.9,243.5L519.9,243.5
			z M528,239.5l-0.3-0.2c-2.1,1.7-4.3,3.4-6.4,5.1c0.6,0.9,0.7,1,1.5,0.3c1.1-0.9,2-1.9,3.1-2.8c0.6-0.6,1.2-0.9,1.6,0.4L528,239.5z
			 M555.7,236l-0.4-0.6l-8.9,5.1l0.3,0.6C549.6,239.1,553.2,238.5,555.7,236L555.7,236z M551.3,222l-0.4,0l0,0
			c-0.5,0.5-1.1,1-1.7,1.5c-1.9,1.2-3.9,2.3-5.8,3.5c-0.3,0.2-0.6,0.5-0.8,0.9c0,0.2,0.1,0.3,0.3,0.5c0.4-0.1,0.8-0.3,1.2-0.5
			c1-0.7,2-1.4,3-2.1c1.2-0.8,2.5-1.6,3.7-2.5h0C551.1,222.8,551.3,222.4,551.3,222L551.3,222z M553.3,226.1l-0.3-0.5l-8,5.4
			l0.4,0.6C548,229.7,550.6,227.9,553.3,226.1L553.3,226.1z M523.5,227.5l0.2,0.2l8.8-8.3l-0.3-0.3
			C529.3,221.9,526.4,224.7,523.5,227.5L523.5,227.5z M536.6,276.9l-4.1,2.7C534.9,279.9,536.6,278.7,536.6,276.9z M531.9,277.2
			l0.2,0.4l4.6-3l-0.3-0.4h0C534.6,274.7,533.1,275.8,531.9,277.2L531.9,277.2z M551.3,224.3L551,224c-2.1,1.3-4.1,2.6-6.2,3.9
			l0.3,0.5C547.2,227,549.2,225.7,551.3,224.3L551.3,224.3z M520.9,236.6c-1.5-0.3-2.1,0.4-1.9,2.2L520.9,236.6z M536.4,279.9
			l-2.3,1.9C536,282.2,536.3,281.1,536.4,279.9z"/>
		<path class="st0" d="M531.6,293.9c0-3.6,2-6.1,4.8-6.1c1.9,0.1,3.7,0.8,5,2.2c1.3,1.3,2.1,3.1,2.2,5c0,1.4-0.5,2.8-1.6,3.8
			c-1,1-2.4,1.5-3.8,1.4C533.2,299.7,531.1,298.2,531.6,293.9L531.6,293.9z"/>
	</g>
	<g>
		<polygon class="st2" points="595.3,354.6 556.4,353 518.5,352.4 480.4,353.9 480.8,314.2 479.9,274.8 481.9,235.3 480.8,196 
			518.5,195.3 556.4,194.5 593.5,196.6 594.6,235.3 594.8,274.8 595.7,314.2 		"/>
	</g>
	<g>
		<path d="M490.7,314.5c0.8,0,1.2,0.5,1.4,1.5c-0.1,0.6-0.2,1.1-0.4,1.5v0.1c0.8,0,1.3,0.5,1.7,1.6l0.1,0.7c-0.1,1.5-0.9,3-2.4,4.7
			c-0.7,0.5-1.2,0.7-1.5,0.7c-1-0.3-1.5-0.6-1.5-1c0-0.2,0.2-0.3,0.4-0.5h0.3c0.3,0.2,0.5,0.3,0.6,0.3h0c0.9,0,1.9-1.2,2.8-3.7
			l0.1-0.5v-0.1c0-0.7-0.3-1.1-0.8-1.1c-0.6,0-1,0.3-1.2,0.8c-0.5,0.6-0.9,0.9-1.2,1c-0.2,0-0.3-0.2-0.6-0.5c0-0.5,0.5-1.2,1.6-2.1
			c0.5-0.8,0.7-1.5,0.7-1.9c-0.1-0.2-0.2-0.3-0.3-0.4c-0.5,0-1.1,0.7-1.6,2l-0.4,0.1c-0.3-0.1-0.5-0.2-0.5-0.5
			C488.7,315.4,489.6,314.5,490.7,314.5z"/>
		<path d="M495.8,323.1c0.3,0,0.4,0.2,0.5,0.6c-0.1,0.4-0.3,0.6-0.6,0.6c-0.2,0-0.4-0.2-0.5-0.6
			C495.3,323.3,495.5,323.1,495.8,323.1z"/>
		<path d="M509.8,313.8c0.2,0,0.4,0.2,0.4,0.6c0,0.2-0.4,0.5-1.1,0.9c-0.9,0.8-1.6,2.2-2.1,4.2v0.3c1-0.5,1.8-0.8,2.2-0.9
			c0.1,0,0.3,0.1,0.5,0.4v0.3c0,0.1-0.5,0.4-1.6,0.8c-0.8,0.4-1.2,0.7-1.2,0.7v0.2c0,0.7,0.4,1.3,1.3,1.7l0.6,0.1
			c0.4,0,1-0.2,1.8-0.7h0.2c0.3,0.1,0.4,0.3,0.4,0.5v0.1c-0.7,0.8-1.6,1.2-2.5,1.2c-1.3,0-2.2-0.9-2.8-2.6l-1.1,0.2
			c-0.6-0.1-0.8-0.3-0.8-0.5c0-0.3,0.2-0.5,0.5-0.6l0.4,0.1c0.6-0.2,0.9-0.3,0.9-0.4c0-2,0.8-3.9,2.3-5.7
			C509,314.1,509.6,313.8,509.8,313.8z"/>
		<path d="M514.5,318.1c1,0.1,1.5,0.6,1.5,1.5l0,0.2l0,2.8c0,0.3,0.2,0.8,0.6,1.3v0c-0.1,0.3-0.3,0.5-0.5,0.5c-0.7-0.3-1.1-1-1.1-2
			v-0.2l-0.1,0l0.1-0.1v0l0.1-2.5c0-0.3-0.2-0.5-0.5-0.5h-0.2c-0.6,0.2-0.9,1.6-0.9,3.9c0,0.8-0.2,1.2-0.6,1.2
			c-0.3,0-0.5-0.2-0.5-0.6v-1.8c0-2.3,0.2-3.5,0.6-3.5l0.2-0.1l0.4,0.1C513.8,318.2,514.2,318.1,514.5,318.1z"/>
		<path d="M519.3,313.2c0.3,0.1,0.5,0.2,0.5,0.5l-0.1,0.8v0.2c0,0.5,0.1,1.1,0.2,1.7h0c1.4-0.4,2.3-0.6,2.6-0.6
			c0.3,0.1,0.5,0.3,0.5,0.5c0,0.4-0.4,0.6-1.2,0.6l-1.9,0.7c0,1.6,0.2,3.8,0.5,6.6c-0.1,0.3-0.2,0.5-0.5,0.5h0
			c-0.4,0-0.6-0.5-0.6-1.6c-0.2-0.8-0.3-2.5-0.4-5.2h-0.3c-1.1-0.1-1.7-0.3-1.7-0.8c0-0.1,0.1-0.3,0.4-0.5h0.2l0.8,0.2h0.6l-0.2-2.2
			C518.6,313.7,518.8,313.2,519.3,313.2z"/>
		<path d="M525.9,317.1c0.8,0,1.2,0.5,1.4,1.6v0.2c0,1.2-0.6,2.2-1.8,3.2c0.7,0.7,1.9,1,3.7,1c0.3,0.1,0.4,0.3,0.4,0.6
			c0,0.3-0.2,0.5-0.6,0.5c-1.2,0-2.4-0.3-3.7-0.9v0.5c0,1.2-0.3,1.9-0.8,1.9c-0.4,0-0.6-0.7-0.6-2.1V322l-0.1-0.5l0.1-0.6l-0.1-1.7
			v-0.1c0-0.3,0.2-0.5,0.5-0.7C524.8,317.6,525.3,317.1,525.9,317.1z M525,321c0.3,0,0.7-0.6,1.2-1.9v-0.8l-0.2-0.2h-0.2
			C525.3,318.5,525,319.5,525,321z"/>
		<path d="M531.7,317.7c0.5,0,1.3,0.9,2.4,2.5l0,0.3c0,0.3-0.8,0.6-2.5,0.8l-0.1,0.1v0.1c0.3,1.1,0.5,1.6,0.8,1.6h0.2
			c0.4,0,1-0.4,1.7-1.2h0.1c0.2,0,0.4,0.2,0.6,0.5c0,0.3-0.5,0.8-1.5,1.5c-0.3,0.2-0.6,0.3-1,0.3c-1,0-1.6-0.9-2-2.7
			c-0.6-0.1-0.8-0.3-0.8-0.7c0-0.3,0.2-0.4,0.6-0.5v0.1l0.2-0.1v-0.5C530.6,318.4,531,317.7,531.7,317.7z M531.8,319h-0.2l-0.1,0.7
			v0.6h0.1c0.7,0,1-0.1,1-0.2C532.4,319.5,532.1,319.2,531.8,319z"/>
		<path d="M538,318.8c1.3,0,2,0.8,2.2,2.4c0,1.4-0.7,2.4-2,3c-0.1,0.1-0.3,0.1-0.6,0.1h-0.1l-0.4,0v0l0.1,4.8
			c-0.1,0.4-0.3,0.6-0.6,0.6c-0.3-0.1-0.5-0.3-0.5-0.5l-0.2-9.8c0-0.3,0.2-0.5,0.6-0.5l0.4,0.2C537.3,318.9,537.6,318.8,538,318.8z
			 M537.1,320.7l-0.1,0.6l0.1,1.9l0.5,0.1c0.8,0,1.3-0.6,1.6-1.8v-0.3c-0.1-0.9-0.4-1.4-1-1.4h-0.3
			C537.4,319.9,537.1,320.2,537.1,320.7z"/>
		<path d="M543.5,317.1c0.8,0,1.2,0.5,1.4,1.6v0.2c0,1.2-0.6,2.2-1.8,3.2c0.7,0.7,1.9,1,3.7,1c0.3,0.1,0.4,0.3,0.4,0.6
			c0,0.3-0.2,0.5-0.6,0.5c-1.2,0-2.4-0.3-3.7-0.9v0.5c0,1.2-0.3,1.9-0.8,1.9c-0.4,0-0.6-0.7-0.6-2.1V322l-0.1-0.5l0.1-0.6l-0.1-1.7
			v-0.1c0-0.3,0.2-0.5,0.5-0.7C542.3,317.6,542.9,317.1,543.5,317.1z M542.6,321c0.3,0,0.7-0.6,1.2-1.9v-0.8l-0.2-0.2h-0.2
			C542.8,318.5,542.6,319.5,542.6,321z"/>
		<path d="M549.3,317.7c0.5,0,1.3,0.9,2.4,2.5l0,0.3c0,0.3-0.8,0.6-2.5,0.8l-0.1,0.1v0.1c0.3,1.1,0.5,1.6,0.8,1.6h0.2
			c0.4,0,1-0.4,1.7-1.2h0.1c0.2,0,0.4,0.2,0.6,0.5c0,0.3-0.5,0.8-1.5,1.5c-0.3,0.2-0.6,0.3-1,0.3c-1,0-1.6-0.9-2-2.7
			c-0.6-0.1-0.8-0.3-0.8-0.7c0-0.3,0.2-0.4,0.6-0.5v0.1l0.2-0.1v-0.5C548.1,318.4,548.5,317.7,549.3,317.7z M549.4,319h-0.2
			l-0.1,0.7v0.6h0.1c0.7,0,1-0.1,1-0.2C549.9,319.5,549.6,319.2,549.4,319z"/>
		<path d="M555.7,318.1c1,0.1,1.5,0.6,1.5,1.5l0,0.2l0,2.8c0,0.3,0.2,0.8,0.6,1.3v0c-0.1,0.3-0.3,0.5-0.5,0.5c-0.7-0.3-1.1-1-1.1-2
			v-0.2l-0.1,0l0.1-0.1v0l0.1-2.5c0-0.3-0.2-0.5-0.5-0.5h-0.2c-0.6,0.2-0.9,1.6-0.9,3.9c0,0.8-0.2,1.2-0.6,1.2
			c-0.3,0-0.5-0.2-0.5-0.6v-1.8c0-2.3,0.2-3.5,0.6-3.5l0.2-0.1l0.4,0.1C555,318.2,555.3,318.1,555.7,318.1z"/>
		<path d="M559.9,317.7c0.5,0,1.3,0.9,2.4,2.5l0,0.3c0,0.3-0.8,0.6-2.5,0.8l-0.1,0.1v0.1c0.3,1.1,0.5,1.6,0.8,1.6h0.2
			c0.4,0,1-0.4,1.7-1.2h0.1c0.2,0,0.4,0.2,0.6,0.5c0,0.3-0.5,0.8-1.5,1.5c-0.3,0.2-0.6,0.3-1,0.3c-1,0-1.6-0.9-2-2.7
			c-0.6-0.1-0.8-0.3-0.8-0.7c0-0.3,0.2-0.4,0.6-0.5v0.1l0.2-0.1v-0.5C558.8,318.4,559.2,317.7,559.9,317.7z M560.1,319h-0.2
			l-0.1,0.7v0.6h0.1c0.7,0,1-0.1,1-0.2C560.6,319.5,560.3,319.2,560.1,319z"/>
		<path d="M564.7,318.8l0.3-0.2c0.3,0,0.5,0.2,0.6,0.5c-0.2,0.9-0.3,1.8-0.3,2.7c0,0.5,0.1,1,0.4,1.5h0.1c0.3,0,0.8-1.4,1.2-4.1
			c0.2-0.1,0.3-0.2,0.5-0.2c0.4,0,0.6,0.7,0.6,2c0.2,1.5,0.3,2.2,0.5,2.2l0.3-0.1c0.3,0.1,0.5,0.3,0.5,0.6c-0.2,0.5-0.5,0.7-0.9,0.7
			c-0.4,0-0.8-0.4-1.2-1.3c-0.5,1-1,1.5-1.5,1.5c-0.7,0-1.2-0.8-1.5-2.3l-0.1-0.6v-0.2C564.3,320.5,564.5,319.6,564.7,318.8z"/>
		<path d="M572.3,317.1c0.8,0,1.2,0.5,1.3,1.6v0.2c0,1.2-0.6,2.2-1.8,3.2c0.7,0.7,1.9,1,3.7,1c0.3,0.1,0.4,0.3,0.4,0.6
			c0,0.3-0.2,0.5-0.6,0.5c-1.2,0-2.4-0.3-3.7-0.9v0.5c0,1.2-0.3,1.9-0.8,1.9c-0.4,0-0.6-0.7-0.6-2.1V322l-0.1-0.5l0.1-0.6l-0.1-1.7
			v-0.1c0-0.3,0.2-0.5,0.5-0.7C571.1,317.6,571.6,317.1,572.3,317.1z M571.4,321c0.3,0,0.7-0.6,1.2-1.9v-0.8l-0.2-0.2h-0.2
			C571.6,318.5,571.4,319.5,571.4,321z"/>
		<path d="M576.7,314.8c0.5,0.1,0.7,0.3,0.7,0.6c-0.1,0.3-0.3,0.5-0.6,0.5c-0.4-0.1-0.7-0.3-0.7-0.7
			C576.2,314.9,576.4,314.8,576.7,314.8z M577.4,317.3c0.2,0,0.4,0.2,0.5,0.5l-0.2,1.3v0.8c0,1,0.2,2.3,0.5,3.9
			c-0.1,0.2-0.3,0.3-0.6,0.3c-0.5,0-0.8-1.4-1-4.3v-0.6C576.6,318,576.8,317.3,577.4,317.3z"/>
		<path d="M582.5,317.2c0.5,0,0.8,0.2,0.8,0.6l-0.2,0.3l-0.1,3.3c0,1.5,0.3,2.4,0.9,2.8l0,0.3c0,0.3-0.2,0.5-0.5,0.5h-0.1
			c-0.9-0.6-1.3-1.5-1.3-2.8h-0.1c-0.5,1.3-1.1,2-1.7,2c-0.6-0.2-1-0.7-1-1.4c0-1.7,0.7-3.4,2-5.1
			C581.6,317.4,582.1,317.2,582.5,317.2z M580.3,322.1l-0.1,0.5v0.3h0.2c0.9-2.2,1.3-3.6,1.3-4.1h-0.1
			C581,319.6,580.5,320.7,580.3,322.1z"/>
		<path d="M585.4,314.3c0.3,0.1,0.5,0.3,0.5,0.6l0.2,6.9v2.2c0,0.4-0.2,0.6-0.5,0.6h-0.2c-0.2-0.1-0.3-0.3-0.3-0.5v-2.1l-0.2-7.1
			C584.8,314.5,585,314.3,585.4,314.3z"/>
		<path d="M514.4,335.1h0.2c0.3,0,0.5,0.2,0.6,0.6c0,0.3-0.5,0.5-1.4,0.5c-1.5,0.6-2.5,1.4-3.1,2.5l-0.1,0.5v0.1
			c0,0.5,0.4,0.8,1.1,0.8l2-0.1c1.3,0,2.2,0.6,2.7,1.9l0.1,0.6c0,1.2-1,2.4-3,3.4c-0.6,0.2-1.1,0.3-1.6,0.3c-1.2,0-2.1-0.7-2.6-2.1
			c-0.1-0.5-0.2-0.9-0.2-1.4c0-0.1,0.1-0.3,0.3-0.5h0.2c0.4,0,0.6,0.5,0.6,1.4c0.3,0.9,0.8,1.4,1.5,1.4h0.5c1,0,1.9-0.6,2.9-1.7
			c0.3-0.4,0.4-0.7,0.4-1.2c0-0.6-0.5-1-1.4-1.2h-0.1l-2.4,0.1c-1.3-0.2-2-0.7-2-1.6l-0.1-0.2c0-1.2,0.9-2.4,2.8-3.6
			C513,335.3,513.7,335.1,514.4,335.1z"/>
		<path d="M522,335.1c0.5,0,0.8,1,0.8,2.9l-0.2,2.6c0,2.3,0.3,4,0.9,5.2v0.1c0,0.2-0.2,0.4-0.5,0.4h-0.1c-0.4,0-0.8-0.9-1.2-2.5
			h-0.1c-0.6,1.9-1.4,2.8-2.4,2.8c-1,0-1.6-0.8-1.9-2.4l-0.1-1.1v-0.3l0.3-4.1V338c0-0.2,0.1-0.4,0.4-0.6h0.2c0.3,0,0.5,0.2,0.5,0.7
			v0.1l-0.3,4.8v0.7c0,1,0.2,1.6,0.7,1.9h0.3c0.6-0.4,1.2-1.6,1.8-3.8l0.3-1.2l-0.2-2.9C521.2,335.9,521.5,335.1,522,335.1z"/>
		<path d="M526.7,336.4c0.8,0,1.3,0.6,1.4,1.8c0,1-0.2,1.6-0.7,1.8h-0.1c-0.3,0-0.5-0.1-0.5-0.4l0.1-1.4v-0.7l-0.1-0.1h-0.2
			c-0.4,0-0.8,1.1-1.3,3.2l-0.1,1.4v0.4c0,1.2,0.6,2,1.7,2.2h0.8c1.2,0,2.8-0.8,4.5-2.4h0.1c0.3,0,0.5,0.2,0.6,0.6
			c-0.3,0.7-0.6,1.1-1,1.1c-1.7,1.2-3.3,1.8-4.6,1.8s-2.3-0.8-2.9-2.2l-0.2-1.3V342c0-1.9,0.5-3.6,1.6-5.1
			C526,336.6,526.4,336.4,526.7,336.4z"/>
		<path d="M535.7,336.4c0.8,0,1.3,0.6,1.4,1.8c0,1-0.2,1.6-0.7,1.8h-0.1c-0.3,0-0.5-0.1-0.5-0.4l0.1-1.4v-0.7l-0.1-0.1h-0.2
			c-0.4,0-0.8,1.1-1.3,3.2l-0.1,1.4v0.4c0,1.2,0.6,2,1.7,2.2h0.8c1.2,0,2.8-0.8,4.5-2.4h0.1c0.3,0,0.5,0.2,0.6,0.6
			c-0.3,0.7-0.6,1.1-1,1.1c-1.7,1.2-3.3,1.8-4.6,1.8s-2.3-0.8-2.9-2.2l-0.2-1.3V342c0-1.9,0.5-3.6,1.6-5.1
			C535,336.6,535.4,336.4,535.7,336.4z"/>
		<path d="M547.9,335.4c0.2,0,0.4,0.2,0.4,0.6c0,0.2-0.4,0.5-1.1,0.9c-0.9,0.8-1.6,2.2-2.1,4.2v0.3c1-0.5,1.8-0.8,2.2-0.9
			c0.1,0,0.3,0.1,0.5,0.4v0.3c0,0.1-0.5,0.4-1.6,0.8c-0.8,0.4-1.2,0.7-1.2,0.7v0.2c0,0.7,0.4,1.3,1.3,1.7l0.6,0.1
			c0.4,0,1-0.2,1.8-0.7h0.2c0.3,0.1,0.4,0.3,0.4,0.5v0.1c-0.7,0.8-1.6,1.2-2.5,1.2c-1.3,0-2.2-0.9-2.8-2.6l-1.1,0.2
			c-0.6-0.1-0.8-0.3-0.8-0.5c0-0.3,0.2-0.5,0.5-0.6l0.4,0.1c0.6-0.2,0.9-0.3,0.9-0.4c0-2,0.8-3.9,2.3-5.7
			C547.1,335.7,547.6,335.4,547.9,335.4z"/>
		<path d="M555.7,335.1h0.2c0.3,0,0.5,0.2,0.6,0.6c0,0.3-0.5,0.5-1.4,0.5c-1.5,0.6-2.5,1.4-3.1,2.5l-0.1,0.5v0.1
			c0,0.5,0.4,0.8,1.1,0.8l2-0.1c1.3,0,2.2,0.6,2.7,1.9l0.1,0.6c0,1.2-1,2.4-3,3.4c-0.6,0.2-1.1,0.3-1.6,0.3c-1.2,0-2.1-0.7-2.6-2.1
			c-0.1-0.5-0.2-0.9-0.2-1.4c0-0.1,0.1-0.3,0.3-0.5h0.2c0.4,0,0.6,0.5,0.6,1.4c0.3,0.9,0.8,1.4,1.5,1.4h0.5c1,0,1.9-0.6,2.9-1.7
			c0.3-0.4,0.4-0.7,0.4-1.2c0-0.6-0.5-1-1.4-1.2h-0.1l-2.4,0.1c-1.3-0.2-2-0.7-2-1.6l-0.1-0.2c0-1.2,0.9-2.4,2.8-3.6
			C554.3,335.3,555,335.1,555.7,335.1z"/>
		<path d="M563.8,335.1h0.2c0.3,0,0.5,0.2,0.6,0.6c0,0.3-0.5,0.5-1.4,0.5c-1.5,0.6-2.5,1.4-3.1,2.5l-0.1,0.5v0.1
			c0,0.5,0.4,0.8,1.1,0.8l2-0.1c1.3,0,2.2,0.6,2.7,1.9l0.1,0.6c0,1.2-1,2.4-3,3.4c-0.6,0.2-1.1,0.3-1.6,0.3c-1.2,0-2.1-0.7-2.6-2.1
			c-0.1-0.5-0.2-0.9-0.2-1.4c0-0.1,0.1-0.3,0.3-0.5h0.2c0.4,0,0.6,0.5,0.6,1.4c0.3,0.9,0.8,1.4,1.5,1.4h0.5c1,0,1.9-0.6,2.9-1.7
			c0.3-0.4,0.4-0.7,0.4-1.2c0-0.6-0.5-1-1.4-1.2h-0.1l-2.4,0.1c-1.3-0.2-2-0.7-2-1.6l-0.1-0.2c0-1.2,0.9-2.4,2.8-3.6
			C562.5,335.3,563.2,335.1,563.8,335.1z"/>
	</g>
</g>
<g>
	<path class="st3" d="M161.3,369.9c0.1,0.1,0.2,0.1,0.3,0.1c3.5,1.5,5.7-3.1,7.3-4.5c0.9-0.8,1.8-1.6,2.7-2.4c2.7-2.4,4.9-5,7-7.9
		c0.4-0.5,0.5-1,0.3-1.7c-0.2-0.6-0.7-1.2-1.4-1.7c-1.3-0.9-3.3-1-4,0c-0.9,1.2-1.8,2.5-2.8,3.7c-0.5,0.7-1.1,1.3-1.8,1.9
		c0.1-0.4,0.2-0.8,0.3-1.3c0.5-2.4,0.8-4.9,0.9-7.4c0.1-1.2,0.1-2.4,0-3.6c-0.1-1.4-0.2-2.7-0.3-4.1c-0.3-2.7-0.8-5.4-1.4-8.2
		c-0.2-1.2-0.6-2.4-0.9-3.5c-0.3-1.2-0.7-2.3-1.1-3.5c-1-2.7-2.1-5.4-3.6-8c-0.7-1.4-1.5-2.7-2.3-4c-0.7-1.2-1.6-2.5-2.4-3.7
		c-1.2-1.8-2.5-3.6-3.9-5.3c-1.5-1.9-3.2-3.8-5-5.6c-1.8-1.8-3.7-3.4-5.8-5c-2-1.5-4.2-2.9-6.4-4.3c-1.4-0.9-3.2-0.9-4,0
		c-0.8,0.9-0.3,2.5,1.1,3.4c1.4,0.9,2.8,1.8,4.2,2.7c1.2,0.8,2.3,1.6,3.4,2.5c1.3,1.1,2.6,2.3,3.8,3.5c1.4,1.4,2.6,2.8,3.8,4.2
		c0.8,1,1.6,2,2.2,3c0.9,1.3,1.8,2.6,2.6,3.9c1.7,2.6,3.1,5.2,4.4,7.9c1.2,2.6,2.2,5.2,2.9,7.8c0.4,1.4,0.8,2.8,1,4.1
		c0.3,1.5,0.6,2.9,0.8,4.4c0.2,1.4,0.4,2.8,0.5,4.2c0.1,1.4,0.2,2.7,0.2,4.1c0,2.5-0.2,5-0.6,7.4c-0.2,1.1-0.4,2.2-0.7,3.3
		c0,0,0,0,0,0.1c-0.2-0.8-0.4-1.5-0.7-2.3c-0.5-1.3-2-2.4-3.6-2.4c-1.5,0-2.5,1.1-2.1,2.4c0.9,2.5,1.2,5.1,1.7,7.6
		c0.4,1.9-0.9,4.5,0.7,6.4C159.8,368.8,160.5,369.4,161.3,369.9z"/>
	<path class="st3" d="M212.4,305c-1.6,0.9-4.1,1.2-5.2,2.5c-1.3,1.5-2.4,3-3.5,4.6c-0.4,0.7-0.9,1.4-1.3,2c-0.1,0.2-0.2,0.3-0.3,0.5
		c-0.3,0.3-0.7,0.5-1.1,0.6c-0.7,0.1-1.5,0-2.2-0.3c-0.3-0.1-0.5-0.2-0.7-0.4c-0.4-0.3-0.8-0.7-1-1.1c-0.3-0.5-0.5-1.3-0.2-1.8
		c0.7-1.1,1.4-2.2,2.2-3.3c-1,0.2-2,0.4-3,0.5c-2.9,0.5-5.8,0.8-8.9,0.9c-3.1,0.1-6.1,0.1-9.3,0c-3-0.1-6-0.3-9-0.5
		c-1.6-0.1-3.2-0.3-4.7-0.6c-1.5-0.2-3-0.5-4.5-1c-1.8-0.5-3.6-1.1-5.3-1.8c-1.5-0.5-2.9-1.2-4.3-1.9c-2.5-1.2-4.8-2.8-7-4.4
		c-0.4-0.3-0.8-0.6-1.2-0.8c-2.5-1.8-4.9-3.5-7.4-5.3c-1.3-0.9-1.7-2.5-0.9-3.3s2.7-0.8,4,0.1c2.3,1.6,4.5,3.2,6.8,4.8
		c2.1,1.5,4.2,3,6.5,4.3c1,0.6,2.1,1.1,3.1,1.6c1.1,0.5,2.3,0.9,3.4,1.3c1.3,0.4,2.7,0.9,4,1.2c1.5,0.3,3,0.6,4.5,0.8
		c4,0.4,8,0.6,11.9,0.7c3.8,0.1,7.5,0,11.1-0.2c3.6-0.4,7-1,10.4-1.8c0.4-0.1,0.8-0.2,1.1-0.3c-0.9-0.2-1.7-0.3-2.6-0.5
		c-2.8-0.5-5.7-1.1-8.5-1.7c-1.6-0.3-2.9-1.8-2.8-3c0.1-1.3,1.4-1.9,3-1.6c3.9,0.8,7.7,1.6,11.6,2.3c2.9,0.5,5.7,0.5,8.6,1.1
		c2.3,0.5,4.9,2.6,4,4.3C213.4,304.2,213,304.6,212.4,305z"/>
</g>
<path class="st3" d="M442,330.7c0.8-1.1,1.2-2.3-0.4-3.5c-0.5-0.4-1.1-0.5-1.6-0.5c-0.4,0-0.8,0.1-1.2,0.2c-0.5,0.1-1,0.2-1.6,0.3
	c-0.5,0-0.9,0-1.4,0.1c-1.1,0.1-2.1,0.2-3.2,0.3c-1,0.1-2,0.1-3.1,0.2c-0.9,0-1.9,0.1-2.8,0.1c-0.5,0-0.9-0.1-1.4-0.1
	c-0.2,0-0.4-0.1-0.7-0.1c-0.1,0-0.2,0-0.3-0.1c-0.4-0.1-0.8,0-1.2,0.1c-0.6,0.2-1.1,0.8-1.1,1.5c0,0.6,0.3,1.4,0.8,1.8
	c0.4,0.3,0.6,0.3,1.1,0.5c0.2,0,0.4,0.1,0.6,0.1c0.3,0,0.6,0.1,0.9,0.1c0.3,0,0.6,0,0.9,0c0.1,0,0.3,0,0.4,0c0.3,0,0.6,0,0.9,0
	c0.6,0,1.1,0,1.7,0c-0.1,0-0.3,0.1-0.4,0.1c-1.5,0.5-3.1,1.1-4.6,1.7c-1.5,0.6-3.1,1.1-4.6,1.7c-1.1,0.4-2.2,0.9-3.2,1.3
	c-1.2,0.5-1.8,1-3.3,0.5c-1.3-0.5-2.4-1.5-3.4-2.2c-0.3-0.2-0.5-0.4-0.8-0.6c-1.6-1.2-3.2-2.4-4.7-3.5c-3.4-2.6-6.9-5.2-10.3-7.7
	c-1.7-1.3-3.4-2.6-5.2-3.9c-1.5-1.2-3.1-2.3-4.7-3.4c-1.8-1.2-3.6-2.2-5.6-3.2c-2.1-1,0.7-1.6,1.6-1.8c2.7-0.7,5.4-1.5,8.2-2.1
	c2.8-0.6,5.5-1.1,8.3-1.7c2.9-0.6,5.8-1.3,8.8-2c2.7-0.6,5.5-1.1,8.2-1.8c2.8-0.7,5.5-1.4,8.3-2c3.8-0.8,7.7-1.4,11.5-2.1
	c1.3-0.2,2.6-0.4,3.9-0.7c-1.4,0.3-3.3,1.6-3.8,2.9c-0.3,0.9,0.4,1.9,1.3,2.1c0.8,0.2,1.6-0.2,2.3-0.4c1.4-0.5,2.7-1.4,4-2.1
	c1.5-0.8,3-1.6,4.5-2.4c1.5-0.8,3.1-1.6,4.8-2.3c1.7-0.7,3.4-1.2,5.2-1.6c1.4-0.2,4.4-0.6,4.5-2.3c0-0.7-0.3-1.3-0.8-1.8
	c0,0-0.1,0-0.1-0.1c-0.7-0.5-1.5-0.5-2.3-0.5c-0.6,0-1.2,0-1.8,0c-1,0-1.9,0.1-2.9,0.1c-2.1,0.1-4.1,0.2-6.2,0.3
	c-4,0.2-8,0.7-12.1,0.8c-0.7,0-1.5,0-2.3,0c-0.6,0-1.3-0.1-1.9-0.1c-0.9,0-1.5,0.8-1.6,1.6c0,0.5,0.1,1,0.5,1.4
	c0.3,0.4,0.9,0.8,1.3,0.8c1.4,0.1,2.7,0.2,4.1,0.2c-1.8,0.3-3.5,0.6-5.3,0.9c-2,0.3-4,0.7-5.9,1.1c-2.1,0.4-4.1,0.9-6.1,1.4
	c-2.3,0.6-4.7,1.2-7.1,1.7c-1.7,0.4-3.4,0.7-5.1,1.1c-1.8,0.4-3.6,0.8-5.4,1.2c-1.8,0.4-3.6,0.8-5.4,1.2c-2,0.4-4,0.8-6,1.2
	c-2,0.4-4,0.9-6,1.4c-1.8,0.5-3.6,1-5.4,1.4c-1.4,0.4-2.8,0.7-4.2,1.1c-0.9,0.3-2.1,0.4-2.6,1.2c-0.4,0.5-0.5,1.3-0.2,1.9
	c0.2,0.5,0.7,1,1.3,1.2c0.3,0.1,0.7,0.3,1,0.4c1.4,0.5,2.8,1.1,4.2,1.8c1.4,0.6,2.8,1.3,4.1,2.1c1.6,1,3.1,2,4.6,3.1
	c1.6,1.2,3.3,2.4,4.9,3.7c3.4,2.6,6.9,5.2,10.3,7.8c3.2,2.4,6.4,4.8,9.6,7.2c0.9,0.6,1.7,1.2,2.6,1.7c0.3,0.2,0.7,0.4,1,0.5
	c0.5,0.2,0.8,0.2,1.4,0.2c0.3,0,0.7-0.1,1-0.2c0.7-0.2,1.4-0.6,2.1-0.9c0.8-0.3,1.6-0.7,2.4-1c1.5-0.6,3.1-1.2,4.6-1.7
	c1.6-0.5,3.1-1.1,4.7-1.7c0.9-0.3,1.9-0.7,2.8-1c-0.2,0.2-0.4,0.4-0.6,0.6c-0.4,0.3-0.7,0.7-1.1,1c-0.1,0.1-0.2,0.2-0.3,0.3
	c-0.2,0.3-0.3,0.6-0.3,0.9c0,0.5,0.1,1,0.5,1.4c0.3,0.4,0.8,0.7,1.3,0.8c0.4,0.1,1.1,0,1.4-0.3c1.2-1.2,2.4-2.4,3.6-3.6
	c0.9-1,1.8-2.2,2.9-3C440.1,332.4,441.2,331.6,442,330.7z"/>
<path class="st3" d="M648.6,285.2c-0.8-0.3-1.7-0.1-2,0.7c-0.4,0.7-0.1,1.7,0.7,2c3,1.4,6,2.6,8.9,4.1c1.4,0.7,2.8,1.6,4.1,2.4
	c0.8,0.5,1.8,1.4,2.9,1c0.3-0.1,0.5-0.3,0.7-0.5c0.8-0.9,0.2-2.6-0.2-3.6c-0.6-1.5-1.1-3-1.7-4.4c-0.6-1.7-1.5-3.3-2.3-4.9
	c-0.4-0.8-0.8-1.5-1.2-2.3c-0.2-0.3-0.4-0.6-0.5-1c-0.1-0.2-0.2-0.4-0.3-0.6c-0.2-0.4-0.5-0.8-1-1c-0.2-0.1-0.5-0.2-0.8-0.2
	c-0.4,0-0.8,0.2-1,0.5c-0.1,0.1-0.2,0.2-0.3,0.4c-0.1,0.3-0.2,0.6-0.1,0.9c0,0.4,0.2,0.7,0.3,1c0.1,0.3,0.3,0.6,0.4,1
	c0.3,0.6,0.6,1.2,0.9,1.8c0.2,0.4,0.7,1,0.5,1.4c-0.5-0.2-1-1.1-1.3-1.5c-0.5-0.6-0.9-1.1-1.4-1.7c-0.9-1.1-1.9-2.3-2.8-3.4
	c-2-2.4-4-4.9-6-7.4c-1.4-1.8-2.7-3.5-4.2-5.3c1.3-1.7,2.6-3.4,4-5.1c2-2.5,4-5,5.9-7.5c1.4-1.8,2.9-3.6,4.2-5.4
	c0.5-0.6,0.9-1.3,1.3-1.9c0.3-0.4,0.5-1.2,1.1-1.3c0,1.1-0.9,2.7-1.3,3.8c-0.7,2.1-1.2,4.2-1.9,6.3c0,0,0,0.1,0,0.1
	c-0.1,0.1-0.2,0.2-0.2,0.3c-0.2,0.4-0.2,0.8-0.1,1.2c0.1,0.4,0.4,0.7,0.7,0.9c0.3,0.2,0.8,0.2,1.2,0.1c0.3-0.1,0.5-0.2,0.7-0.5
	c0.2-0.2,0.3-0.4,0.4-0.7c0.1-0.3,0.2-0.5,0.3-0.8c0.1-0.4,0.2-0.7,0.4-1.1c0.2-0.8,0.5-1.6,0.7-2.3c0.4-1.5,0.9-2.9,1.3-4.4
	c0.5-1.4,1.1-2.8,1.7-4.3c0.6-1.5,1-3.1,1.2-4.7c0.1-0.4,0.1-0.9,0.1-1.3c0,0,0-0.1,0-0.1c0-0.4-0.1-0.9-0.4-1.1
	c-0.1-0.1-0.2-0.2-0.3-0.3c-0.7-0.8-1.6-0.1-2.2,0.4c-0.7,0.5-1.5,0.8-2.3,1.2c-1,0.5-2,1-3,1.5c-1.1,0.6-2.2,1.2-3.3,1.9
	c-1.1,0.6-2.1,1.2-3.2,1.8c-1.1,0.6-2.1,1.2-3.2,1.7c-0.6,0.3-1.3,0.6-2,0.9c-0.4,0.2-0.7,0.4-0.9,0.7c-0.2,0.4-0.2,0.8-0.1,1.2
	c0.3,0.7,1.2,1.3,1.9,1c1.4-0.6,2.7-1.2,4-1.9c1.1-0.6,2.2-1.2,3.3-1.8c1.1-0.7,2.2-1.3,3.3-1.9c0.1-0.1,0.3-0.2,0.4-0.3
	c0.1-0.1,0,0.8-0.1,0.8c-0.1,0.4-0.5,0.8-0.7,1.1c-0.9,1.2-1.8,2.5-2.7,3.7c-0.9,1.3-2,2.5-2.9,3.7c-2,2.5-4,4.9-5.9,7.4
	c-1.2,1.5-2.4,3.1-3.6,4.6c-2-2.4-4-4.7-5.9-7.2c-1-1.2-1.9-2.5-2.8-3.7c-0.9-1.3-1.8-2.5-2.7-3.8c-1-1.5-2-3.1-2.9-4.6
	c-0.4-0.8-0.9-1.5-1.4-2.3c-0.7-1-1.7-2.9-3.2-1.5c-1.4,1.4,1,3.7,1.7,4.9c0.4,0.6,0.7,1.3,1.1,1.9c0.4,0.6,0.8,1.2,1.2,1.9
	c0.8,1.3,1.7,2.6,2.7,3.9c0.9,1.3,1.8,2.5,2.7,3.8c1.9,2.5,4,4.9,6,7.4c0.5,0.6,1,1.2,1.5,1.9c-0.1,0.2-0.3,0.4-0.4,0.6
	c-2,2.4-3.9,4.9-5.9,7.4c-2,2.5-3.9,5-6.1,7.3c-0.9,0.9-4.4,3.4-2.8,5c1.1,1.1,2.3-0.1,3-0.8c0.7-0.8,1.5-1.5,2.2-2.3
	c2.2-2.3,4.1-4.8,6.1-7.3c1.9-2.5,3.9-5,5.9-7.4c0.9,1.1,1.7,2.1,2.6,3.2c0.9,1.2,1.9,2.5,2.8,3.7c1,1.3,2,2.5,3,3.7
	c2,2.4,3.9,4.8,5.9,7.2c0.5,0.6,1,1.2,1.5,1.8c0.6,0.8,1.7,1.9-0.1,1.1C652.6,287,650.6,286.1,648.6,285.2z"/>
<g>
	<path d="M386.3,254.3c1,0,1.6,0.4,1.8,1.1c0,0.3-0.3,0.6-0.9,1l-1-0.3h-0.1c-1.1,0-2.4,1.6-3.9,4.9c-0.2,0.8-0.3,1.6-0.3,2.3v1.3
		h0.1c2.5-0.6,4.1-0.9,4.8-0.9c0.9,0.2,1.3,0.5,1.3,1.1c-0.2,0.6-0.5,0.9-0.9,0.9l-0.5-0.1c-2.1,0.2-3.6,0.5-4.6,1v0.2l0.4,5
		c0,2.4-0.5,3.5-1.4,3.5c-0.3,0-0.6-0.3-0.9-0.8c0.3-0.8,0.5-1.9,0.5-3.2c0-1.3-0.1-2.7-0.4-4.4l-1.5,0.2c-1.3-0.1-2-0.5-2-1.3
		c0.2-0.6,0.5-0.9,1-0.9l0.8,0.2h0.5l1-0.1v-1.7c0-3.2,1.4-6,4.2-8.4C385,254.6,385.7,254.3,386.3,254.3z"/>
	<path d="M394.4,262c1.5,0,2.6,1.1,3.4,3.4l0.1,0.6c0,2.2-1,4.4-3.1,6.7c-0.8,0.8-1.6,1.1-2.5,1.1c-1.2,0-2.1-0.7-2.6-2.1
		c-0.2-0.7-0.3-1.2-0.3-1.7v-0.4c0-3.2,1.2-5.7,3.5-7.4C393.5,262.1,393.9,262,394.4,262z M391.4,270c0,1.4,0.4,2.1,1.1,2.1
		c1.5,0,2.7-1.9,3.7-5.8v-0.6c-0.3-1.3-1-1.9-1.9-1.9c-0.4,0-0.5,0.3-0.5,0.8c0,0.3-0.4,0.6-1.2,0.8
		C391.7,266.7,391.4,268.2,391.4,270z"/>
	<path d="M400.5,264.4l0.5-0.3c0.5,0,0.8,0.3,1.1,0.9c-0.3,1.5-0.5,3.1-0.5,4.7c0,0.8,0.2,1.7,0.7,2.6h0.2c0.6,0,1.3-2.4,2.1-7.1
		c0.3-0.2,0.6-0.4,0.8-0.4c0.6,0,0.9,1.1,0.9,3.4c0.3,2.5,0.6,3.7,0.9,3.7l0.5-0.2c0.6,0.2,0.9,0.5,0.9,1c-0.4,0.8-0.9,1.2-1.5,1.2
		c-0.7,0-1.4-0.7-2.1-2.2c-0.8,1.7-1.6,2.6-2.5,2.6c-1.2,0-2.1-1.3-2.6-3.9l-0.1-1V269C399.9,267.4,400.1,265.8,400.5,264.4z"/>
	<path d="M413.3,263.3c1.7,0.1,2.6,1,2.6,2.6l0.1,0.4l-0.1,4.8c0,0.6,0.3,1.3,0.9,2.2v0.1c-0.2,0.6-0.5,0.9-0.9,0.9
		c-1.3-0.5-1.9-1.7-1.9-3.4v-0.4l-0.1-0.1l0.1-0.1v-0.1l0.1-4.3c0-0.6-0.3-0.9-0.8-0.9H413c-1,0.4-1.5,2.7-1.5,6.7
		c0,1.4-0.4,2.1-1.1,2.1c-0.5,0-0.8-0.3-0.9-1v-3.1c0-4,0.3-6,1-6l0.3-0.1l0.6,0.1C412.1,263.4,412.7,263.3,413.3,263.3z"/>
	<path d="M424.9,256.7c0.3,0,0.7,0.3,0.9,1l-1.3,8.6v2.4c0,2.5,0.4,3.8,1.2,3.8c0.5,0.2,0.8,0.6,0.8,1c0,0.5-0.4,0.7-1.2,0.8
		c-0.9,0-1.6-0.8-2.1-2.5h-0.3c-0.8,1.7-1.7,2.5-2.7,2.5c-1.3,0-2-1-2.3-2.9c0-2.2,1.5-4.6,4.5-7.1c0.6,0,0.9-0.8,0.9-2.5
		C423.6,258.4,424.2,256.7,424.9,256.7z M419.6,271.1v0.8l0.5,0.5h0.2c0.7,0,1.4-2,2.3-5.9h-0.2
		C420.5,268.4,419.6,269.9,419.6,271.1z"/>
	<path d="M430.3,262.6c0.8,0,2.2,1.5,4.1,4.3l0.1,0.5c0,0.6-1.4,1-4.2,1.3l-0.1,0.1v0.1c0.4,1.8,0.9,2.8,1.3,2.8h0.4
		c0.7,0,1.6-0.7,3-2.1h0.2c0.4,0,0.7,0.3,0.9,0.9c0,0.5-0.9,1.3-2.6,2.6c-0.4,0.3-1,0.5-1.6,0.6c-1.6,0-2.8-1.6-3.5-4.7
		c-0.9-0.1-1.4-0.5-1.4-1.2c0-0.5,0.3-0.7,1-0.9v0.1l0.3-0.1v-0.8C428.3,263.8,429,262.6,430.3,262.6z M430.5,264.8h-0.3l-0.1,1.1v1
		h0.1c1.1,0,1.7-0.2,1.7-0.4C431.4,265.7,430.9,265.1,430.5,264.8z"/>
	<path d="M441.2,261.5c1.3,0,2,0.9,2.3,2.7v0.3c0,2-1,3.8-3.1,5.5c1.2,1.2,3.2,1.8,6.2,1.8c0.4,0.1,0.7,0.5,0.7,1
		c0,0.6-0.4,0.8-1.1,0.8c-2,0-4.1-0.5-6.3-1.5v0.9c0,2.1-0.4,3.2-1.3,3.2c-0.6,0-0.9-1.2-0.9-3.7V270l-0.1-0.9l0.2-1l-0.2-3V265
		c0-0.6,0.3-0.9,0.9-1.1C439.2,262.3,440.1,261.5,441.2,261.5z M439.6,268.2c0.6,0,1.3-1.1,2-3.2v-1.3l-0.4-0.4H441
		C440.1,263.9,439.6,265.6,439.6,268.2z"/>
</g>
<g>
	<path d="M395.9,362.8c0.3,0,0.6,0.3,1,0.8c-0.2,0.6-0.3,1.3-0.3,2.2l0.8,7.8v0.9c0,2.7-0.6,4.4-1.9,5.1l-0.6,0.1
		c-1.4,0-2.5-1.4-3.2-4.3l-0.2-1.6v-0.1c0-0.7,0.3-1.1,1-1.1c0.5,0,0.8,0.6,0.8,1.7s0.5,2.3,1.5,3.4l0.2,0.1c0.5-0.8,0.7-1.8,0.7-3
		v-1.3l-0.8-7.7C394.7,363.9,395.1,362.8,395.9,362.8z M395.7,359.6c0.6,0.2,0.9,0.7,0.9,1.4c0,0.4-0.3,0.7-0.9,0.8h-0.1
		c-0.6,0-0.9-0.4-0.9-1.2v-0.2C394.7,359.9,395,359.6,395.7,359.6z"/>
	<path d="M403.5,358.5c1.5,0,2.6,1.1,3.4,3.4l0.1,0.6c0,2.2-1,4.4-3.1,6.7c-0.8,0.8-1.6,1.1-2.5,1.1c-1.2,0-2.1-0.7-2.6-2.1
		c-0.2-0.7-0.3-1.2-0.3-1.7v-0.4c0-3.2,1.2-5.7,3.5-7.4C402.5,358.6,403,358.5,403.5,358.5z M400.4,366.5c0,1.4,0.4,2.1,1.1,2.1
		c1.5,0,2.7-1.9,3.7-5.8v-0.6c-0.3-1.3-1-1.9-1.9-1.9c-0.4,0-0.5,0.3-0.5,0.8c0,0.3-0.4,0.6-1.2,0.8
		C400.8,363.2,400.4,364.7,400.4,366.5z"/>
	<path d="M408.7,354.1c0.8,0.2,1.2,0.5,1.2,1c-0.2,0.6-0.5,0.9-1,0.9c-0.8-0.1-1.1-0.5-1.1-1.1C408,354.3,408.3,354.1,408.7,354.1z
		 M409.9,358.4c0.3,0,0.6,0.3,0.8,0.9l-0.3,2.2v1.4c0,1.7,0.3,3.9,0.9,6.6c-0.2,0.4-0.5,0.6-1,0.6c-0.8,0-1.4-2.5-1.6-7.4v-1.1
		C408.6,359.5,409,358.4,409.9,358.4z"/>
	<path d="M416.8,359.7c1.7,0.1,2.6,1,2.6,2.6l0.1,0.4l-0.1,4.8c0,0.6,0.3,1.3,0.9,2.2v0.1c-0.2,0.6-0.5,0.9-0.9,0.9
		c-1.3-0.5-1.9-1.7-1.9-3.4v-0.4l-0.1-0.1l0.1-0.1v-0.1l0.1-4.3c0-0.6-0.3-0.9-0.8-0.9h-0.4c-1,0.4-1.5,2.7-1.5,6.7
		c0,1.4-0.4,2.1-1.1,2.1c-0.5,0-0.8-0.3-0.9-1v-3.1c0-4,0.3-6,1-6l0.3-0.1l0.6,0.1C415.6,359.9,416.2,359.7,416.8,359.7z"/>
	<path d="M424,359.1c0.8,0,2.2,1.5,4.1,4.3l0.1,0.5c0,0.6-1.4,1-4.2,1.3l-0.1,0.1v0.1c0.4,1.8,0.9,2.8,1.3,2.8h0.4
		c0.7,0,1.6-0.7,3-2.1h0.2c0.4,0,0.7,0.3,0.9,0.9c0,0.5-0.9,1.3-2.6,2.6c-0.4,0.3-1,0.5-1.6,0.6c-1.6,0-2.8-1.6-3.5-4.7
		c-0.9-0.1-1.4-0.5-1.4-1.2c0-0.5,0.3-0.7,1-0.9v0.1l0.3-0.1v-0.8C422.1,360.2,422.7,359.1,424,359.1z M424.2,361.3h-0.3l-0.1,1.1v1
		h0.1c1.1,0,1.7-0.2,1.7-0.4C425.1,362.2,424.7,361.6,424.2,361.3z"/>
	<path d="M434.9,358c1.3,0,2,0.9,2.3,2.7v0.3c0,2-1,3.8-3.1,5.5c1.2,1.2,3.2,1.8,6.2,1.8c0.4,0.1,0.7,0.5,0.7,1
		c0,0.6-0.4,0.8-1.1,0.8c-2,0-4.1-0.5-6.3-1.5v0.9c0,2.1-0.4,3.2-1.3,3.2c-0.6,0-0.9-1.2-0.9-3.7v-2.4l-0.1-0.9l0.2-1l-0.2-3v-0.1
		c0-0.6,0.3-0.9,0.9-1.1C433,358.8,433.9,358,434.9,358z M433.4,364.7c0.6,0,1.3-1.1,2-3.2v-1.3l-0.4-0.4h-0.3
		C433.9,360.4,433.4,362.1,433.4,364.7z"/>
</g>
<g>
	<path d="M676.8,208.6c0.7,0,1.2,1.6,1.5,4.7c0.3,1.5,0.6,2.2,0.8,2.2h0.2c0.5-1.3,0.8-2.6,0.8-3.9l-0.2-2.1
		c0.2-0.6,0.5-0.8,0.9-0.8c0.8,0,1.1,1.3,1.1,4c0.4,2.8,0.7,5.4,0.7,7.8v1.4c0,4.4-1.2,7.4-3.7,8.9l-0.7,0.1c-1.2,0-2.2-1.1-3.2-3.3
		l-0.3-1.8v-0.1c0-1.4,0.4-2,1.1-2l0.8,0.5l-0.1,1.9c0,0.9,0.5,1.9,1.4,2.9h0.4c1.1,0,1.9-2.2,2.5-6.5l0.1-1.8c0-2.1-0.1-3.4-0.2-4
		c-0.8,0.7-1.5,1.1-1.9,1.1c-1,0-2-2.8-2.8-8.4l-0.1-0.1C675.8,209,676.1,208.7,676.8,208.6z"/>
	<path d="M686.7,206.8c0.8,0,2.2,1.5,4.1,4.3l0.1,0.5c0,0.6-1.4,1-4.2,1.3l-0.1,0.1v0.1c0.4,1.8,0.9,2.8,1.3,2.8h0.4
		c0.7,0,1.6-0.7,3-2.1h0.2c0.4,0,0.7,0.3,0.9,0.9c0,0.5-0.9,1.3-2.6,2.6c-0.4,0.3-1,0.5-1.6,0.6c-1.6,0-2.8-1.6-3.5-4.7
		c-0.9-0.1-1.4-0.5-1.4-1.2c0-0.5,0.3-0.7,1-0.9v0.1l0.3-0.1v-0.8C684.7,208,685.4,206.8,686.7,206.8z M686.9,209h-0.3l-0.1,1.1v1
		h0.1c1.1,0,1.7-0.2,1.7-0.4C687.8,209.9,687.3,209.3,686.9,209z"/>
	<path d="M699.7,205.4c0.5,0,0.9,0.9,1.1,2.8c-0.2,0.5-0.5,0.8-1,0.8c-0.3-0.1-0.7-0.4-1-1.1l-0.5-0.2c-1,0-1.8,0.6-2.6,1.9v0.3
		c0,0.3,1.4,0.8,4.3,1.5c1.2,0.7,1.8,1.6,1.8,2.6c0,1.7-1.3,3.1-4,4.3l-1.1,0.2c-1.7-0.2-2.6-1-2.6-2.6v-0.1c0-0.5,0.3-0.8,0.9-0.9
		c0.5,0,0.8,0.5,1,1.5l0.2,0.2h0.5c1.2,0,2.2-0.8,3.2-2.4v-0.4c0-0.6-1.3-1.2-4-1.7c-1.4-0.6-2.1-1.4-2.1-2.4c0-1.3,1.1-2.6,3.3-3.8
		C698.2,205.8,699,205.6,699.7,205.4z"/>
</g>
<g>
	<path d="M678.8,303.3c1.7,0.1,2.6,1,2.6,2.6l0.1,0.4l-0.1,4.8c0,0.6,0.3,1.3,0.9,2.2v0.1c-0.2,0.6-0.5,0.9-0.9,0.9
		c-1.3-0.5-1.9-1.7-1.9-3.4v-0.4l-0.1-0.1l0.1-0.1v-0.1l0.1-4.3c0-0.6-0.3-0.9-0.8-0.9h-0.4c-1,0.4-1.5,2.7-1.5,6.7
		c0,1.4-0.4,2.1-1.1,2.1c-0.5,0-0.8-0.3-0.9-1v-3.1c0-4,0.3-6,1-6l0.3-0.1l0.6,0.1C677.6,303.5,678.2,303.3,678.8,303.3z"/>
	<path d="M688.2,302.1c1.5,0,2.6,1.1,3.4,3.4l0.1,0.6c0,2.2-1,4.4-3.1,6.7c-0.8,0.8-1.6,1.1-2.5,1.1c-1.2,0-2.1-0.7-2.6-2.1
		c-0.2-0.7-0.3-1.2-0.3-1.7v-0.4c0-3.2,1.2-5.7,3.5-7.4C687.2,302.2,687.7,302.1,688.2,302.1z M685.1,310.1c0,1.4,0.4,2.1,1.1,2.1
		c1.5,0,2.7-1.9,3.7-5.8v-0.6c-0.3-1.3-1-1.9-1.9-1.9c-0.4,0-0.5,0.3-0.5,0.8c0,0.3-0.4,0.6-1.2,0.8
		C685.5,306.8,685.1,308.3,685.1,310.1z"/>
</g>
<g>
	<path d="M143.9,265.3c0.5,0,0.9,0.9,1.1,2.8c-0.2,0.5-0.5,0.8-1,0.8c-0.3-0.1-0.7-0.4-1-1.1l-0.5-0.2c-1,0-1.8,0.6-2.6,1.9v0.3
		c0,0.3,1.4,0.8,4.3,1.5c1.2,0.7,1.8,1.6,1.8,2.6c0,1.7-1.3,3.1-4,4.3l-1.1,0.2c-1.7-0.2-2.6-1-2.6-2.6v-0.1c0-0.5,0.3-0.8,0.9-0.9
		c0.5,0,0.8,0.5,1,1.5l0.2,0.2h0.5c1.2,0,2.2-0.8,3.2-2.4v-0.4c0-0.6-1.3-1.2-4-1.7c-1.4-0.6-2.1-1.4-2.1-2.4c0-1.3,1.1-2.6,3.3-3.8
		C142.4,265.8,143.2,265.6,143.9,265.3z"/>
	<path d="M150.8,259.1c0.6,0.1,0.9,0.4,0.9,0.9l-0.2,1.4v0.4c0,0.9,0.1,1.9,0.3,2.9h0.1c2.4-0.7,3.8-1.1,4.4-1.1
		c0.6,0.2,0.9,0.5,0.9,0.9c0,0.7-0.7,1-2.1,1l-3.2,1.1c0,2.8,0.3,6.5,0.9,11.3c-0.1,0.6-0.4,0.8-0.9,0.8h-0.1
		c-0.7,0-1.1-0.9-1.1-2.8c-0.3-1.4-0.5-4.4-0.7-9h-0.5c-1.9-0.1-2.9-0.6-2.9-1.4c0-0.2,0.2-0.5,0.6-0.8h0.3l1.4,0.4h1l-0.3-3.9
		C149.6,259.8,150,259.1,150.8,259.1z"/>
	<path d="M163.7,265.9c0.9,0,1.3,0.4,1.3,1.1l-0.3,0.6l-0.2,5.6c0,2.5,0.5,4.1,1.5,4.7l0.1,0.5c-0.1,0.6-0.3,0.9-0.8,0.9h-0.2
		c-1.5-1-2.3-2.6-2.3-4.8h-0.2c-0.8,2.3-1.8,3.4-3,3.4c-1.1-0.3-1.6-1.1-1.6-2.4c0-2.9,1.1-5.8,3.5-8.7
		C162.3,266.2,163,265.9,163.7,265.9z M160,274.3l-0.1,0.9v0.6h0.3c1.5-3.8,2.3-6.2,2.3-7h-0.1C161.2,270,160.4,271.9,160,274.3z"/>
	<path d="M170.9,265.6c1.3,0,2,0.9,2.3,2.7v0.3c0,2-1,3.8-3.1,5.5c1.2,1.2,3.2,1.8,6.2,1.8c0.4,0.1,0.7,0.5,0.7,1
		c0,0.6-0.4,0.8-1.1,0.8c-2,0-4.1-0.5-6.3-1.5v0.9c0,2.1-0.4,3.2-1.3,3.2c-0.6,0-0.9-1.2-0.9-3.7v-2.4l-0.1-0.9l0.2-1l-0.2-3v-0.1
		c0-0.6,0.3-0.9,0.9-1.1C169,266.4,169.9,265.6,170.9,265.6z M169.4,272.4c0.6,0,1.3-1.1,2-3.2v-1.3l-0.4-0.4h-0.3
		C169.9,268.1,169.4,269.7,169.4,272.4z"/>
	<path d="M181.7,259.1c0.6,0.1,0.9,0.4,0.9,0.9l-0.2,1.4v0.4c0,0.9,0.1,1.9,0.3,2.9h0.1c2.4-0.7,3.8-1.1,4.4-1.1
		c0.6,0.2,0.9,0.5,0.9,0.9c0,0.7-0.7,1-2.1,1l-3.2,1.1c0,2.8,0.3,6.5,0.9,11.3c-0.1,0.6-0.4,0.8-0.9,0.8h-0.1
		c-0.7,0-1.1-0.9-1.1-2.8c-0.3-1.4-0.5-4.4-0.7-9h-0.5c-1.9-0.1-2.9-0.6-2.9-1.4c0-0.2,0.2-0.5,0.6-0.8h0.3l1.4,0.4h1l-0.3-3.9
		C180.5,259.8,180.9,259.1,181.7,259.1z"/>
	<path d="M190.1,268.5l0.5-0.3c0.5,0,0.8,0.3,1.1,0.9c-0.3,1.5-0.5,3.1-0.5,4.7c0,0.8,0.2,1.7,0.7,2.6h0.2c0.6,0,1.3-2.4,2.1-7.1
		c0.3-0.2,0.6-0.4,0.8-0.4c0.6,0,0.9,1.1,0.9,3.4c0.3,2.5,0.6,3.7,0.9,3.7l0.5-0.2c0.6,0.2,0.9,0.5,0.9,1c-0.4,0.8-0.9,1.2-1.5,1.2
		c-0.7,0-1.4-0.7-2.1-2.2c-0.8,1.7-1.6,2.6-2.5,2.6c-1.2,0-2.1-1.3-2.6-3.9l-0.1-1v-0.3C189.4,271.5,189.7,270,190.1,268.5z"/>
	<path d="M202.6,268.6c2.2,0,3.4,1.4,3.8,4.1c0,2.4-1.1,4.2-3.4,5.2c-0.2,0.1-0.6,0.2-1,0.2h-0.2l-0.7-0.1v0.1l0.1,8.2
		c-0.1,0.6-0.5,1-1,1c-0.6-0.2-0.9-0.5-0.9-0.9l-0.3-16.8c0-0.5,0.3-0.8,0.9-0.8l0.6,0.3C201.4,268.8,202,268.6,202.6,268.6z
		 M201.1,271.9l-0.1,1l0.1,3.3l0.9,0.2c1.4,0,2.2-1,2.7-3v-0.5c-0.1-1.6-0.7-2.4-1.7-2.4h-0.5C201.6,270.4,201.1,270.9,201.1,271.9z
		"/>
</g>
<g>
	<path d="M110.1,372.7c1.5,0,2.6,1.1,3.4,3.4l0.1,0.6c0,2.2-1,4.4-3.1,6.7c-0.8,0.8-1.6,1.1-2.5,1.1c-1.2,0-2.1-0.7-2.6-2.1
		c-0.2-0.7-0.3-1.2-0.3-1.7v-0.4c0-3.2,1.2-5.7,3.5-7.4C109.2,372.8,109.6,372.7,110.1,372.7z M107.1,380.7c0,1.4,0.4,2.1,1.1,2.1
		c1.5,0,2.7-1.9,3.7-5.8v-0.6c-0.3-1.3-1-1.9-1.9-1.9c-0.4,0-0.5,0.3-0.5,0.8c0,0.3-0.4,0.6-1.2,0.8
		C107.4,377.3,107.1,378.8,107.1,380.7z"/>
	<path d="M118.6,365.6c0.6,0.1,0.9,0.4,0.9,0.9l-0.2,1.4v0.4c0,0.9,0.1,1.9,0.3,2.9h0.1c2.4-0.7,3.8-1.1,4.4-1.1
		c0.6,0.2,0.9,0.5,0.9,0.9c0,0.7-0.7,1-2.1,1l-3.2,1.1c0,2.8,0.3,6.5,0.9,11.3c-0.1,0.6-0.4,0.8-0.9,0.8h-0.1
		c-0.7,0-1.1-0.9-1.1-2.8c-0.3-1.4-0.5-4.4-0.7-9h-0.5c-1.9-0.1-2.9-0.6-2.9-1.4c0-0.2,0.2-0.5,0.6-0.8h0.3l1.4,0.4h1l-0.3-3.9
		C117.5,366.3,117.9,365.6,118.6,365.6z"/>
	<path d="M127.1,367.3c0.6,0,0.9,0.7,0.9,2.1l0.4,5.3h0.1l1.5-0.6c1.7,0,2.7,1.8,3.1,5.3c0.1,1,0.2,2.5,0.2,4.4v2.5
		c0,0.8-0.3,1.2-0.9,1.2h-0.1c-0.5-0.1-0.8-0.4-0.8-0.9v-2.9c0-4.6-0.4-7.2-1.3-7.7H130c-0.6,0-1.1,0.9-1.3,2.8v1.7
		c0,3.1-0.3,4.6-0.8,4.6l-0.6,0.1c-0.6,0-0.9-0.9-0.9-2.6c0.1-1.8,0.2-3.3,0.4-4.4l-0.6-10.1C126.2,367.6,126.5,367.3,127.1,367.3z"
		/>
	<path d="M137.5,373.2c0.8,0,2.2,1.5,4.1,4.3l0.1,0.5c0,0.6-1.4,1-4.2,1.3l-0.1,0.1v0.1c0.4,1.8,0.9,2.8,1.3,2.8h0.4
		c0.7,0,1.6-0.7,3-2.1h0.2c0.4,0,0.7,0.3,0.9,0.9c0,0.5-0.9,1.3-2.6,2.6c-0.4,0.3-1,0.5-1.6,0.6c-1.6,0-2.8-1.6-3.5-4.7
		c-0.9-0.1-1.4-0.5-1.4-1.2c0-0.5,0.3-0.7,1-0.9v0.1l0.3-0.1v-0.8C135.5,374.4,136.2,373.2,137.5,373.2z M137.7,375.4h-0.3l-0.1,1.1
		v1h0.1c1.1,0,1.7-0.2,1.7-0.4C138.6,376.4,138.1,375.8,137.7,375.4z"/>
	<path d="M148.4,372.1c1.3,0,2,0.9,2.3,2.7v0.3c0,2-1,3.8-3.1,5.5c1.2,1.2,3.2,1.8,6.2,1.8c0.4,0.1,0.7,0.5,0.7,1
		c0,0.6-0.4,0.8-1.1,0.8c-2,0-4.1-0.5-6.3-1.5v0.9c0,2.1-0.4,3.2-1.3,3.2c-0.6,0-0.9-1.2-0.9-3.7v-2.4l-0.1-0.9l0.2-1l-0.2-3v-0.1
		c0-0.6,0.3-0.9,0.9-1.1C146.4,372.9,147.3,372.1,148.4,372.1z M146.9,378.9c0.6,0,1.3-1.1,2-3.2v-1.3l-0.4-0.4h-0.3
		C147.3,374.6,146.9,376.2,146.9,378.9z"/>
	<path d="M103.5,410.8l1.3-0.2c0.5,0,0.8,0.3,0.9,1c0,0.6-0.7,0.9-2,1.1c-0.8,0.7-1.3,1.5-1.3,2.5v1c0.4,2.3,1.1,3.4,2.1,3.4h0.3
		c0.6,0,1.4-0.5,2.6-1.6h0.2c0.4,0,0.7,0.3,1,0.9c-0.3,0.9-1.2,1.7-2.7,2.4c-0.3,0.1-0.6,0.2-1.1,0.2c-2.1,0-3.5-1.7-4.1-5v-0.7
		C100.5,413.3,101.5,411.7,103.5,410.8z"/>
	<path d="M115.7,409.4c0.9,0,1.3,0.4,1.3,1.1l-0.3,0.6l-0.2,5.6c0,2.5,0.5,4.1,1.5,4.7l0.1,0.5c-0.1,0.6-0.3,0.9-0.8,0.9h-0.2
		c-1.5-1-2.3-2.6-2.3-4.8h-0.2c-0.8,2.3-1.8,3.4-3,3.4c-1.1-0.3-1.6-1.1-1.6-2.4c0-2.9,1.1-5.8,3.5-8.7
		C114.3,409.7,115,409.4,115.7,409.4z M112,417.7l-0.1,0.9v0.6h0.3c1.5-3.8,2.3-6.2,2.3-7h-0.1C113.2,413.5,112.4,415.3,112,417.7z"
		/>
	<path d="M122.9,409.1c1.3,0,2,0.9,2.3,2.7v0.3c0,2-1,3.8-3.1,5.5c1.2,1.2,3.2,1.8,6.2,1.8c0.4,0.1,0.7,0.5,0.7,1
		c0,0.6-0.4,0.8-1.1,0.8c-2,0-4.1-0.5-6.3-1.5v0.9c0,2.1-0.4,3.2-1.3,3.2c-0.6,0-0.9-1.2-0.9-3.7v-2.4l-0.1-0.9l0.2-1l-0.2-3v-0.1
		c0-0.6,0.3-0.9,0.9-1.1C120.9,409.9,121.9,409.1,122.9,409.1z M121.4,415.9c0.6,0,1.3-1.1,2-3.2v-1.3l-0.4-0.4h-0.3
		C121.8,411.5,121.4,413.2,121.4,415.9z"/>
	<path d="M132.8,410.2c0.8,0,2.2,1.5,4.1,4.3l0.1,0.5c0,0.6-1.4,1-4.2,1.3l-0.1,0.1v0.1c0.4,1.8,0.9,2.8,1.3,2.8h0.4
		c0.7,0,1.6-0.7,3-2.1h0.2c0.4,0,0.7,0.3,0.9,0.9c0,0.5-0.9,1.3-2.6,2.6c-0.4,0.3-1,0.5-1.6,0.6c-1.6,0-2.8-1.6-3.5-4.7
		c-0.9-0.1-1.4-0.5-1.4-1.2c0-0.5,0.3-0.8,1-0.9v0.1l0.3-0.1v-0.8C130.8,411.4,131.5,410.2,132.8,410.2z M133,412.4h-0.3l-0.1,1.1v1
		h0.1c1.1,0,1.7-0.2,1.7-0.4C133.9,413.3,133.4,412.8,133,412.4z"/>
	<path d="M142.4,410.2c0.8,0,2.2,1.5,4.1,4.3l0.1,0.5c0,0.6-1.4,1-4.2,1.3l-0.1,0.1v0.1c0.4,1.8,0.9,2.8,1.3,2.8h0.4
		c0.7,0,1.6-0.7,3-2.1h0.2c0.4,0,0.7,0.3,0.9,0.9c0,0.5-0.9,1.3-2.6,2.6c-0.4,0.3-1,0.5-1.6,0.6c-1.6,0-2.8-1.6-3.5-4.7
		c-0.9-0.1-1.4-0.5-1.4-1.2c0-0.5,0.3-0.8,1-0.9v0.1l0.3-0.1v-0.8C140.4,411.4,141.1,410.2,142.4,410.2z M142.6,412.4h-0.3l-0.1,1.1
		v1h0.1c1.1,0,1.7-0.2,1.7-0.4C143.5,413.3,143,412.8,142.6,412.4z"/>
	<path d="M153.3,409.1c1.3,0,2,0.9,2.3,2.7v0.3c0,2-1,3.8-3.1,5.5c1.2,1.2,3.2,1.8,6.2,1.8c0.4,0.1,0.7,0.5,0.7,1
		c0,0.6-0.4,0.8-1.1,0.8c-2,0-4.1-0.5-6.3-1.5v0.9c0,2.1-0.4,3.2-1.3,3.2c-0.6,0-0.9-1.2-0.9-3.7v-2.4l-0.1-0.9l0.2-1l-0.2-3v-0.1
		c0-0.6,0.3-0.9,0.9-1.1C151.3,409.9,152.2,409.1,153.3,409.1z M151.8,415.9c0.6,0,1.3-1.1,2-3.2v-1.3l-0.4-0.4h-0.3
		C152.2,411.5,151.8,413.2,151.8,415.9z"/>
</g>
<g>
	<path class="st3" d="M346.3,135.3C346.3,135.3,346.3,135.3,346.3,135.3C346.3,135.3,346.3,135.3,346.3,135.3
		C346.3,135.3,346.3,135.3,346.3,135.3z"/>
	<path class="st3" d="M279,139.6c1.8,0.5,4.6-0.6,6-0.9c1.3-0.3,2.5-0.6,3.8-0.7c1-0.1,1.9-0.2,2.9-0.4c1-0.2,2.1-0.4,3.1-0.6
		c2.1-0.5,4.2-0.8,6.3-1.1c0.2,0,0.3-0.1,0.5-0.2c0.3-0.2,0.6-0.5,0.8-0.8c0.3-0.5,0.4-1,0.2-1.6c-0.1-0.5-0.5-1-1-1.3
		c-0.5-0.3-1-0.3-1.6-0.2c-1.9,0.3-3.9,0.6-5.8,1c-0.9,0.2-1.8,0.4-2.8,0.6c-0.1,0-0.1,0-0.2,0c1.5-0.8,2.9-1.7,4.4-2.6
		c1.6-1,3.2-2,4.7-3c1.7-1,3.4-2,5.1-3c1.8-1,3.6-2.1,5.3-3.2c1.5-1,3-1.9,4.5-2.8c0.1,2.7,0.1,5.4,0.2,8.1c0,2,0,4.1,0,6.1
		c0,2.2,0,4.4,0.1,6.6c0,1.6,0,3.1-0.1,4.6c0,0.1,0,0.1,0,0.2c-0.3-0.7-0.7-1.4-1-2.1c-0.3-0.7-0.7-1.3-1.1-2
		c-0.5-0.9-1-1.8-1.5-2.7c-0.3-0.5-0.7-0.8-1.3-1c-0.5-0.2-1.1-0.1-1.6,0.2c-1,0.5-1.4,1.9-0.8,2.9c0.6,1,1.1,2,1.7,2.9
		c0.4,0.8,0.8,1.5,1.2,2.3c0.8,1.7,1.6,3.5,2.3,5.3c0.4,1.2,0.8,2.5,1.2,3.7c0.6,1.8,0.6,3.7,1.4,5.5c0.7,1.5,2.6,1.2,3.8,0.2
		c1.3-1.3,1.4-3.5,1.9-5.2c0.3-1.3,0.6-2.6,1-3.8c0.3-1.1,0.8-2.1,1.1-3.2c0.2-0.5,0.3-1,0.5-1.6c0.2-0.6,0.4-1.2,0.7-1.8
		c0.3-0.7,0.6-1.4,0.9-2.1c0.3-0.8,0.7-1.6,1-2.4c0.4-1.1-0.4-2.3-1.5-2.6c-0.5-0.2-1.1-0.1-1.6,0.2c-0.5,0.3-0.8,0.7-1,1.3
		c0,0.1-0.1,0.2-0.1,0.3c-0.7,1.6-1.5,3.3-2.1,4.9c-0.3,0.7-0.5,1.5-0.7,2.2c-0.1,0.2-0.1,0.4-0.2,0.6c0.1-1.9,0.2-3.9,0.2-5.8
		c0-2.2,0-4.3-0.1-6.5c0-2,0-4.1,0-6.1c0-2.1-0.1-4.1-0.1-6.2c0-1.1-0.1-2.2-0.1-3.3c0.1,0.1,0.2,0.1,0.3,0.2c2,1,3.9,1.9,5.9,2.8
		c1.8,0.8,3.6,1.7,5.3,2.6c1.8,0.9,3.6,2,5.3,3c1.9,1.2,3.8,2.3,5.7,3.4c-0.8-0.1-1.6-0.1-2.4-0.2c-1.1-0.1-2.1,0.9-2.1,2.1
		c0,1.2,0.9,2.1,2.1,2.2c1.2,0.1,2.3,0.1,3.5,0.3c1,0.1,2.1,0.3,3.1,0.5c0,0,0,0-0.1,0c0,0,0.1,0,0.1,0c0.2,0,0.3,0,0.5,0.1
		c-0.1,0-0.3,0-0.4-0.1c1.4,0.2,2.8,0.5,4.2,0.8c0.4,0.1,0.8,0.2,1.3,0.3c0.1,0.1,0.3,0.2,0.4,0.2c0.9,0.5,1.8,1.1,2.7,1.7
		c1.3,0.9,4.3,2.7,5.7,0.9c0.7-1,0.7-3.1-0.2-3.9c-1.2-1.2-2.4-2.4-3.5-3.6c-1.1-1.2-2.2-2.5-3.2-3.8c-1-1.2-2.1-2.5-3.1-3.7
		c-0.5-0.7-1.1-1.3-1.6-2c-0.3-0.3-0.5-0.7-0.8-1c-0.3-0.3-0.5-0.7-0.9-1c-0.4-0.4-0.9-0.6-1.5-0.6c-0.6,0-1.1,0.2-1.5,0.6
		c-0.8,0.8-0.9,2.2,0,3c0.3,0.3,0.6,0.6,0.8,1c0.2,0.3,0.5,0.6,0.7,0.9c0.5,0.7,1.1,1.3,1.6,2c0.9,1.1,1.9,2.3,2.8,3.4
		c-0.4-0.2-0.8-0.5-1.2-0.7c-3.5-2.1-7.1-4.2-10.6-6.4c-1.8-1.1-3.6-2.1-5.4-3c-1.8-0.9-3.5-1.8-5.3-2.6c-2-0.9-3.9-1.8-5.9-2.8
		c-0.1,0-0.2-0.1-0.3-0.1c1.4-0.9,1.2-5.6-0.5-4.6c-0.6,0.3-1.2,0.7-1.7,1c0-0.4,0-0.9,0-1.3c-0.1-2.1-4.3-3.2-4.2-1.1
		c0,0.9,0.1,1.7,0.1,2.6c-2.9-1.6-4.8,2.2-1.8,3.8c-0.8,0.5-1.7,1-2.5,1.6c-1.7,1.1-3.3,2.1-5,3.1c-1.7,1.1-3.5,2-5.3,3.1
		c-1.7,1-3.3,2.1-5,3.1c-1.3,0.8-2.6,1.6-3.9,2.4c-0.1,0-0.2,0.1-0.2,0.1c0.1-0.1,0.1-0.2,0.2-0.3c1.2-1.5,2.4-2.9,3.3-4.6
		c0.5-1,0.3-2.3-0.7-2.9c-1-0.6-2.3-0.3-2.9,0.7c-0.4,0.8-0.9,1.5-1.4,2.2c-1,1.3-2,2.6-3.1,3.9c-0.7,0.9-1.5,1.8-2.3,2.6
		c-1,1-2,1.9-3,2.9c-1.1,1.1-5.1,3.8-4.1,5.6C277.9,139.1,278.4,139.4,279,139.6z"/>
</g>
<g>
	<g>
		<polygon class="st1" points="415.3,93.7 380.5,92.3 346.6,93.1 312.7,93.9 278.8,93.6 244.9,94.1 211.2,92.4 212.1,62.4 212.1,32 
			212.1,3 244.8,1.5 278.8,2.7 312.7,2.8 346.6,1.5 380.5,1.7 415,1 414.9,32 415.2,62.4 		"/>
	</g>
	<g>
		<g>
			<path class="st0" d="M356.8,42c0,0-6.7-0.4-9.8,0c-2.4,0.3-9.8,0-9.8,0c-4.3,0.6-5.8,1.2-6.9,2.6c-1.1,1.5-1.2,3.2-1.3,4.3v0.3
				v0.3c-0.3,3.3-1.6,10-2.8,15.8c-1,6.8-2.4,10.9-2.4,11l0,0l0,0c-0.1,0.2-0.1,0.5,0,0.7s0.1,0.4,0.3,0.6c0.1,0.2,0.3,0.3,0.5,0.4
				c0.2,0.1,0.4,0.2,0.6,0.1h4.7h4.7h0h0c0.4,0,0.7-0.1,0.9-0.4s0.4-0.5,0.5-0.9c0-0.1,1.1-4.2,1.9-10.3c0.8-5.3,2.1-10.9,2.5-12.4
				v0v0c0-0.1,0-0.2,0.1-0.2s0.1-0.2,0.1-0.2c0.1,0,0.1,0,0.2,0.1c0.1,0,0.1,0.1,0.2,0.1v11.4v11.4c0,0.2,0,0.4,0.1,0.6
				c0.1,0.2,0.2,0.4,0.3,0.5c0.1,0.1,0.3,0.3,0.5,0.3c0.2,0.1,0.4,0.1,0.6,0.1c0,0,3.3-0.1,7.2,0c4.3,0.1,7.2,0,7.2,0
				c0.4,0,0.8-0.2,1-0.4c0.3-0.3,0.4-0.7,0.4-1.1c0,0-0.2-12.4,0-16.5c0.2-5.5,0-16.5,0-16.5c0-0.2,0-0.4-0.1-0.6
				c-0.1-0.2-0.2-0.4-0.3-0.5c-0.1-0.1-0.3-0.3-0.5-0.3C357.2,42.1,357,42,356.8,42L356.8,42L356.8,42z"/>
		</g>
		<g>
			<path class="st0" d="M359.9,81.6c0-0.3-0.1-0.7-0.4-0.9c-0.2-0.2-0.6-0.2-0.9-0.2c-0.8-0.1-8.8-0.1-8.9-0.1
				c-1.1,0-2.1,0.1-3.2,0.1c-2.2,0-4.3,0-6.5,0c-1.1,0-2.1,0-3.2,0.1c-1.1,0.1-2.2,0.1-3.3,0.2c-0.9,0-1.7,0.1-2.6,0.2
				c-0.9,0.1-1.8,0.2-2.6,0.3c-0.9,0.1-1.7,0.2-2.6,0.2c-0.8,0.1-1.7,0.2-2.5,0.3c-0.2,0-0.5,0.1-0.7,0.1c-0.3,0-0.5,0.1-0.7,0.3
				c-0.2,0.2-0.3,0.5-0.3,0.8c0,0.3,0.1,0.6,0.3,0.8c0.2,0.2,0.5,0.4,0.7,0.3c0.6-0.1,1.2-0.1,1.8-0.2c1-0.1,2-0.2,2.9-0.3
				c1-0.1,2.1-0.2,3.1-0.3c1.1-0.1,2.1-0.2,3.2-0.3c1.1,0,2.2-0.1,3.3-0.1c2.1-0.1,4.3-0.1,6.4-0.1c1.1,0,2.1,0,3.2,0
				c1,0,2.1-0.1,3.1-0.1c0.7,0,9.1,0.1,9.3,0c0.3,0,0.5-0.1,0.7-0.3C359.8,82.2,359.9,81.9,359.9,81.6z"/>
		</g>
		<path class="st0" d="M358.4,14.3c0-1,0.3-2.1-0.8-2.6c-1.8-0.8-3.3-0.1-5.1,0.6c-2.7,1.1-4.9,3.2-6.8,5.4
			c-3.2,3.8-3,10.9-0.5,15.1c1,1.6,2.5,2.8,3.7,3.7c1.3,0.9,2.8,1.6,4.4,1.9c2.1,0.4,2,0.9,4.1,0.6c1.4-0.2,0.8-1.3,0.8-2.1
			c0.2-1.9-0.2-9.8-0.1-10.9c0.1-0.8,0.1-3.8,0.1-4.7C358.2,20.2,358.5,15.4,358.4,14.3z"/>
		<path class="st0" d="M401.9,46.6c0-0.2-0.1-0.3-0.1-0.5c-0.1-0.2-0.1-0.3-0.2-0.5c-0.3-0.7-0.7-1.3-1.2-1.8
			c-0.1-0.1-0.2-0.2-0.4-0.3c-0.3-0.2-0.6-0.4-0.9-0.6c-0.1-0.1-0.3-0.1-0.4-0.2c-0.2-0.1-0.3-0.1-0.5-0.2c-0.3-0.1-0.6-0.1-1-0.1
			c-0.1,0-0.2,0-0.3,0c-0.2,0-0.5,0-0.7,0c-0.2,0-0.3,0-0.5,0.1c-0.2,0-0.3,0.1-0.5,0.1c-0.2,0-0.3,0.1-0.4,0.2
			c-0.2,0.1-0.3,0.1-0.5,0.2c-0.1,0.1-0.3,0.1-0.4,0.2c-0.1,0.1-0.3,0.2-0.4,0.3c-0.3,0.2-0.5,0.4-0.7,0.6c-0.2,0.2-0.4,0.5-0.5,0.8
			c-0.1,0.3-0.3,0.6-0.4,0.9c0,0.1-0.1,0.2-0.1,0.3c-0.5,0-1,0-1.5,0c-1.3,0-2.6,0-3.9,0c-2,0-4,0-6,0c-1,0-2.1,0-3.1,0
			c-1,0-1.9,0-2.9,0c-2.1,0-4.1,0.2-6.2,0.3c-1.3,0.1-2.6,0.1-3.9,0.2c-0.5,0-1,0.6-1,1.4c0,0.8,0.5,1.5,1,1.4c2-0.1,4-0.2,6.1-0.3
			c1-0.1,2.1-0.1,3.1-0.2c1,0,2,0,3.1,0c2,0,4.1,0,6.1,0c2,0,4,0,6,0c1.1,0,2.2,0,3.3,0c0,0,0,0,0,0c0,0.1,0,0.2,0.1,0.2
			c0,0.1,0,0.1,0.1,0.2c0,0,0,0.1,0,0.1c0,0,0,0.1,0.1,0.1c0,0.1,0.1,0.1,0.1,0.2c0,0.1,0.1,0.1,0.1,0.2c0,0.1,0.1,0.1,0.1,0.2
			c0.1,0.1,0.2,0.3,0.4,0.4c0.1,0.1,0.2,0.2,0.3,0.3c0.2,0.2,0.5,0.4,0.7,0.6c0.1,0.1,0.3,0.2,0.4,0.3c0.1,0.1,0.3,0.2,0.4,0.3
			c0.3,0.1,0.6,0.3,0.9,0.3c0.2,0,0.3,0.1,0.5,0.1c0.2,0,0.4,0,0.5,0c0.7,0,1.3-0.2,1.9-0.4c0.6-0.3,1.1-0.6,1.5-1
			c0.2-0.2,0.4-0.4,0.6-0.7c0.2-0.2,0.3-0.5,0.5-0.7c0.2-0.3,0.3-0.6,0.4-0.9c0.1-0.3,0.2-0.6,0.2-0.9c0.1-0.3,0.1-0.6,0.2-0.9
			C401.9,47,401.9,46.8,401.9,46.6z M398.9,47.7c0,0.2-0.1,0.3-0.1,0.5c0,0.1-0.1,0.2-0.1,0.3c-0.1,0.1-0.1,0.2-0.2,0.3
			c-0.1,0.1-0.2,0.3-0.4,0.4c-0.2,0.1-0.4,0.2-0.6,0.3c-0.1,0-0.1,0.1-0.2,0.1c-0.1,0-0.2,0-0.2,0.1c0,0-0.1,0-0.1,0
			c0,0-0.1,0-0.1,0c-0.1,0-0.2,0-0.3,0c-0.1,0-0.1,0-0.2,0c-0.1,0-0.1,0-0.2-0.1c-0.1,0-0.1,0-0.2-0.1c-0.1,0-0.1-0.1-0.2-0.1
			c-0.1-0.1-0.2-0.2-0.4-0.3c-0.1-0.1-0.2-0.2-0.3-0.3c0-0.1-0.1-0.1-0.1-0.2c0,0-0.1-0.1-0.1-0.1c0,0,0-0.1,0-0.1
			c0-0.1-0.1-0.1-0.1-0.2c0-0.1,0-0.1,0-0.2c0-0.1,0-0.3,0-0.4c0-0.1,0-0.3,0-0.4c0-0.1,0-0.2,0.1-0.4c0-0.1,0.1-0.2,0.1-0.3
			c0-0.1,0.1-0.1,0.1-0.2c0-0.1,0.1-0.1,0.1-0.2c0.1-0.1,0.1-0.1,0.2-0.2c0.1-0.1,0.1-0.1,0.2-0.2c0.1-0.1,0.1-0.1,0.2-0.1
			c0.1,0,0.1-0.1,0.2-0.1c0.1,0,0.2-0.1,0.2-0.1c0,0,0.1,0,0.1,0c0,0,0.1,0,0.1,0c0.1,0,0.3,0,0.4,0c0.1,0,0.2,0,0.4,0
			c0.1,0,0.2,0,0.3,0c0.1,0,0.1,0,0.2,0.1c0.1,0,0.1,0.1,0.2,0.1c0.1,0,0.1,0.1,0.2,0.1c0.1,0.1,0.3,0.2,0.4,0.3
			c0.2,0.2,0.4,0.5,0.5,0.8C399,47.1,399,47.4,398.9,47.7z"/>
		<path class="st0" d="M392.1,71c0-0.1,0-0.2,0-0.3c0-0.1-0.1-0.3-0.1-0.4c-0.3-1.1-0.7-2.3-1.6-3.2c-0.1-0.1-0.3-0.2-0.4-0.3
			c-0.1-0.1-0.2-0.2-0.4-0.2c-0.1-0.1-0.3-0.1-0.4-0.2c-0.2-0.1-0.3-0.1-0.5-0.2c-0.1,0-0.2-0.1-0.3-0.1c0-0.6,0-1.2,0-1.8
			c0-1.2-0.1-2.4-0.1-3.5c-0.1-1.2-0.2-2.5-0.9-3.5c-0.5-0.7-1.1-1.2-1.9-1.4c-0.6-0.2-1.2-0.3-1.8-0.3c-0.6-0.1-1.1-0.1-1.7-0.1
			c-0.5,0-1.1,0-1.6,0c-1.2,0-2.3,0-3.5,0.1c-1.1,0-2.2,0.1-3.2,0.1c-1.1,0-2.2,0.1-3.3,0.1c-0.6,0-1.3,0-1.9,0.1
			c-0.6,0-1.3,0.1-1.9,0.2c-0.7,0.1-1.5,0.1-2.2,0.2c-0.3,0-0.6,0.1-0.8,0.3c-0.2,0.2-0.3,0.5-0.3,0.8c0,0.6,0.5,1.2,1.1,1.2
			c0.6,0,1.1-0.1,1.7-0.1c0.5-0.1,1-0.1,1.5-0.2c1-0.1,2.1-0.2,3.1-0.2c1.1,0,2.2,0,3.3-0.1c1.1,0,2.1-0.1,3.2-0.1
			c1.2,0,2.4-0.1,3.5-0.1c1,0,2.1,0,3.1,0.1c0.3,0,0.6,0.1,0.9,0.2c0.1,0.1,0.3,0.2,0.4,0.3c0.1,0.1,0.2,0.2,0.3,0.3
			c0.1,0.1,0.1,0.2,0.2,0.3c0.1,0.3,0.2,0.5,0.2,0.8c0.1,0.5,0.1,1,0.1,1.5c0,0.6,0.1,1.1,0.1,1.7c0,1,0.1,2,0.1,3
			c-0.1,0-0.1,0-0.2,0c-0.3,0.1-0.6,0.1-0.9,0.3c-0.3,0.1-0.6,0.3-0.9,0.4c-0.3,0.2-0.5,0.3-0.7,0.5c-0.2,0.2-0.5,0.4-0.6,0.7
			c-0.1,0.1-0.2,0.3-0.2,0.4c-0.1,0.1-0.1,0.3-0.2,0.5c-0.1,0.3-0.2,0.6-0.2,0.9c-0.1,0.3-0.1,0.6-0.1,0.9c0,0.3,0,0.6-0.1,0.9
			c0,0.3,0,0.7,0.1,1c0.1,0.3,0.2,0.6,0.4,0.9c0.1,0.3,0.3,0.5,0.5,0.8c0.2,0.3,0.4,0.5,0.7,0.7c0.2,0.2,0.5,0.4,0.7,0.6
			c0.2,0.2,0.5,0.3,0.8,0.4c0.3,0.1,0.6,0.2,0.9,0.3c1.2,0.3,2.5-0.3,3.6-1c0.5-0.3,1-0.6,1.4-1.1c0.4-0.4,0.6-1,0.8-1.5
			c0.1-0.2,0.1-0.3,0.2-0.5c0-0.1,0.1-0.2,0.1-0.4C392.1,71.5,392.1,71.3,392.1,71z M389.2,71.1c-0.1,0.2-0.1,0.5-0.2,0.7
			c-0.2,0.2-0.3,0.4-0.5,0.6c-0.4,0.4-0.9,0.5-1.4,0.6c-0.1,0-0.1,0-0.2,0c-0.1,0-0.1,0-0.2,0c-0.2,0-0.3-0.1-0.5-0.1
			c-0.1,0-0.2-0.1-0.2-0.1c-0.1,0-0.1-0.1-0.2-0.1c-0.1-0.1-0.2-0.1-0.3-0.2c-0.1-0.1-0.2-0.2-0.2-0.2c-0.2-0.2-0.3-0.4-0.4-0.6
			c0-0.1-0.1-0.2-0.1-0.3c0,0,0-0.1,0-0.1c0-0.1,0-0.2,0-0.3c0-0.2,0-0.4,0.1-0.5c0-0.2,0.1-0.4,0.1-0.5c0,0,0-0.1,0.1-0.1
			c0-0.1,0.1-0.1,0.1-0.2c0,0,0.1-0.1,0.1-0.1c0,0,0.1-0.1,0.1-0.1c0.1-0.1,0.2-0.1,0.3-0.2c0.1-0.1,0.2-0.1,0.3-0.2
			c0.1,0,0.2-0.1,0.3-0.1c0.1,0,0.2-0.1,0.3-0.1c0.1,0,0.2,0,0.3,0c0.1,0,0.1,0,0.2,0c0,0,0.1,0,0.1,0c0.1,0,0.1,0,0.2,0
			c0.1,0,0.1,0,0.2,0c0.1,0,0.2,0.1,0.4,0.1c0.1,0,0.2,0.1,0.2,0.1c0.1,0,0.1,0.1,0.2,0.1c0.1,0,0.1,0.1,0.1,0.1
			c0,0,0.1,0.1,0.1,0.1c0.1,0.1,0.1,0.2,0.2,0.3c0.2,0.4,0.4,0.8,0.4,1.2c0,0.1,0,0.1,0,0.2c0,0,0,0,0,0.1
			C389.3,71,389.3,71,389.2,71.1z"/>
		<path class="st0" d="M391.6,25.9c-0.1-0.2-0.1-0.4-0.2-0.6c-0.1-0.3-0.3-0.6-0.5-0.9c-0.2-0.3-0.4-0.5-0.7-0.8
			c-0.3-0.2-0.6-0.4-0.9-0.6c-0.3-0.2-0.6-0.3-0.9-0.4c-0.3-0.1-0.6-0.2-0.9-0.3c-0.2-0.1-0.5-0.1-0.7-0.1c-0.1,0-0.2,0-0.2,0
			c-0.3,0-0.7,0.1-1,0.2c-0.3,0.1-0.6,0.1-0.9,0.3c-0.3,0.1-0.6,0.3-0.8,0.5c-0.1,0.1-0.3,0.2-0.4,0.4c-0.1,0.1-0.2,0.2-0.3,0.3
			c-0.2,0.3-0.4,0.5-0.6,0.8c-0.2,0.3-0.3,0.6-0.4,0.8c-0.1,0.3-0.2,0.6-0.3,0.9c-0.1,0.3-0.1,0.6-0.2,1c0,0.2,0,0.4,0,0.5
			c0,0.2,0,0.3,0,0.5c0,0.1,0,0.2,0.1,0.3c0,0.1,0,0.2,0.1,0.2c0,0.2,0.1,0.3,0.2,0.5c0.1,0.3,0.3,0.6,0.5,0.8
			c0.1,0.1,0.2,0.3,0.4,0.4c0.1,0.1,0.2,0.2,0.4,0.3c0.3,0.2,0.5,0.4,0.8,0.6c0.3,0.2,0.6,0.3,0.9,0.4c0.3,0.1,0.6,0.2,0.9,0.3
			c0.1,0,0.2,0,0.3,0.1c0,0.3,0,0.6,0,0.9c0,0.5,0,1-0.1,1.5c0,0.3-0.1,0.6-0.2,0.8c-0.1,0.1-0.1,0.2-0.2,0.3
			c-0.1,0.1-0.2,0.2-0.3,0.3c-0.1,0.1-0.3,0.2-0.4,0.3c-0.3,0.1-0.6,0.2-0.9,0.2c-1,0.1-2.1,0.1-3.1,0.1c-1.2,0-2.4,0-3.5-0.1
			c-1.1,0-2.1-0.1-3.2-0.1c-1.1,0-2.2-0.1-3.3-0.1c-1,0-2.1-0.1-3.1-0.2c-0.5-0.1-1-0.2-1.5-0.2c-0.6-0.1-1.1-0.1-1.7-0.1
			c-0.6,0-1.1,0.6-1.1,1.2c0,0.3,0.1,0.6,0.3,0.8c0.2,0.2,0.5,0.3,0.8,0.3c0.7,0,1.5,0.1,2.2,0.2c0.6,0.1,1.3,0.2,1.9,0.2
			c0.6,0,1.3,0.1,1.9,0.1c1.1,0,2.2,0,3.3,0.1c1.1,0,2.2,0.1,3.2,0.1c1.2,0,2.3,0.1,3.5,0.1c0.5,0,1.1,0,1.6,0c0.6,0,1.1,0,1.7-0.1
			c0.6-0.1,1.2-0.1,1.8-0.3c0.7-0.3,1.4-0.8,1.9-1.4c0.7-1,0.8-2.3,0.9-3.5c0-0.5,0.1-1.1,0.1-1.6c0,0,0.1,0,0.1,0
			c0.3-0.1,0.6-0.3,0.9-0.4c0.3-0.1,0.6-0.3,0.8-0.5c0.3-0.2,0.5-0.4,0.8-0.6c0.5-0.4,0.8-1,1-1.6c0-0.2,0.1-0.3,0.1-0.5
			C392.1,27.7,391.9,26.8,391.6,25.9z M388.9,27.9c0,0.2-0.1,0.4-0.2,0.6c0,0.1-0.1,0.1-0.1,0.2c0,0.1-0.1,0.1-0.2,0.2
			c-0.1,0.1-0.2,0.1-0.3,0.2c-0.1,0.1-0.2,0.1-0.3,0.2c-0.2,0.1-0.3,0.1-0.5,0.2c-0.1,0-0.2,0.1-0.2,0.1c0,0,0,0,0,0c0,0,0,0,0,0
			c0,0,0,0,0,0c-0.1,0-0.1,0-0.2,0c-0.1,0-0.1,0-0.2,0c-0.1,0-0.2,0-0.4-0.1c-0.1,0-0.2-0.1-0.3-0.1c-0.1,0-0.2-0.1-0.3-0.1
			c-0.1,0-0.2-0.1-0.3-0.2c-0.1,0-0.1-0.1-0.2-0.2c-0.1-0.1-0.1-0.1-0.2-0.2c0-0.1-0.1-0.1-0.1-0.2c0-0.1-0.1-0.1-0.1-0.2
			c0,0,0-0.1-0.1-0.2c0-0.1,0-0.1,0-0.2c0-0.1,0-0.2,0-0.2c0-0.1,0-0.1,0-0.2c0-0.1,0-0.2,0.1-0.3c0-0.1,0.1-0.2,0.1-0.3
			c0-0.1,0.1-0.2,0.2-0.4c0.1-0.1,0.1-0.2,0.2-0.3c0-0.1,0.1-0.1,0.2-0.2c0.1-0.1,0.1-0.1,0.2-0.2c0,0,0.1-0.1,0.1-0.1
			c0,0,0.1-0.1,0.1-0.1c0.2-0.1,0.4-0.1,0.6-0.2c0.2,0,0.3-0.1,0.5,0c0.1,0,0.2,0,0.3,0.1c0.1,0,0.2,0.1,0.3,0.1
			c0.1,0,0.2,0.1,0.3,0.1c0.1,0,0.2,0.1,0.3,0.2c0.1,0,0.1,0.1,0.1,0.1c0,0,0.1,0.1,0.1,0.1c0.1,0.1,0.2,0.3,0.3,0.4
			C388.9,26.9,389,27.5,388.9,27.9z"/>
		<path class="st0" d="M377.4,78.2c-0.1-0.2-0.1-0.4-0.2-0.6c-0.1-0.3-0.3-0.6-0.5-0.9c-0.2-0.3-0.4-0.5-0.7-0.8
			c-0.3-0.2-0.6-0.4-0.9-0.6c-0.3-0.2-0.6-0.3-0.9-0.4c-0.3-0.1-0.6-0.2-0.9-0.3c-0.1-1.9-0.1-3.9-0.2-5.8c-0.1-1-0.3-2.3-1.1-2.3
			c-0.9,0-1.7-0.1-2.6,0c-0.8,0-1.7,0.1-2.5,0.2c-0.9,0.1-1.6,0.2-2.6,0.2c-0.3,0-0.3,0.6-0.3,1.2c0,0.3,0.2,1.2,0.3,1.2
			c0.2,0.1,1-0.1,1.5-0.1c1-0.1,2-0.2,3-0.3c0.6,0,1.2-0.2,1.9-0.1c1,0.2,0.8,1.4,0.8,2.6c0,0.6,0,1.2,0.1,1.7c0,0.5,0.1,1,0.1,1.6
			c-0.1,0-0.2,0-0.4,0.1c-0.3,0.1-0.6,0.1-0.9,0.3c-0.3,0.1-0.6,0.3-0.8,0.5c-0.1,0.1-0.3,0.2-0.4,0.4c-0.1,0.1-0.2,0.2-0.3,0.3
			c-0.2,0.3-0.4,0.5-0.6,0.8c-0.2,0.3-0.3,0.6-0.4,0.8c-0.1,0.3-0.2,0.6-0.3,0.9c-0.1,0.3-0.1,0.6-0.2,1c0,0.2,0,0.4,0,0.5
			c0,0.2,0,0.3,0,0.5c0,0.1,0,0.2,0.1,0.3c0,0.1,0,0.2,0.1,0.2c0,0.2,0.1,0.3,0.2,0.5c0.1,0.3,0.3,0.6,0.5,0.8
			c0.1,0.1,0.2,0.3,0.4,0.4c0.1,0.1,0.2,0.2,0.4,0.3c0.3,0.2,0.5,0.4,0.8,0.6c0.3,0.2,0.6,0.3,0.9,0.4c0.3,0.1,0.6,0.2,0.9,0.3
			c0.3,0.1,0.6,0.1,1,0.1c0.2,0,0.4,0,0.6,0c0,0,0.1,0,0.1,0c0,0,0,0,0.1,0c0,0,0,0,0.1,0c0.1,0,0.3-0.1,0.4-0.1
			c0.2,0,0.3-0.1,0.5-0.2c0.3-0.1,0.6-0.3,0.9-0.4c0.3-0.1,0.6-0.3,0.8-0.5c0.3-0.2,0.5-0.4,0.8-0.6c0.5-0.4,0.8-1,1-1.6
			c0-0.2,0.1-0.3,0.1-0.5C377.9,80,377.7,79.1,377.4,78.2z M373.3,84.8C373.3,84.8,373.3,84.8,373.3,84.8
			C373.3,84.8,373.3,84.8,373.3,84.8C373.3,84.8,373.3,84.8,373.3,84.8z M374.7,80.2c0,0.2-0.1,0.4-0.2,0.6c0,0.1-0.1,0.1-0.1,0.2
			c0,0.1-0.1,0.1-0.2,0.2c-0.1,0.1-0.2,0.1-0.3,0.2c-0.1,0.1-0.2,0.1-0.3,0.2c-0.2,0.1-0.3,0.1-0.5,0.2c-0.1,0-0.2,0.1-0.2,0.1
			c0,0,0,0,0,0c0,0,0,0,0,0c0,0,0,0,0,0c-0.1,0-0.1,0-0.2,0c-0.1,0-0.1,0-0.2,0c-0.1,0-0.2,0-0.4-0.1c-0.1,0-0.2-0.1-0.3-0.1
			c-0.1,0-0.2-0.1-0.3-0.1c-0.1,0-0.2-0.1-0.3-0.2c-0.1,0-0.1-0.1-0.2-0.2c-0.1-0.1-0.1-0.1-0.2-0.2c0-0.1-0.1-0.1-0.1-0.2
			c0-0.1-0.1-0.1-0.1-0.2c0,0,0-0.1-0.1-0.2c0-0.1,0-0.1,0-0.2c0-0.1,0-0.2,0-0.2c0-0.1,0-0.1,0-0.2c0-0.1,0-0.2,0.1-0.3
			c0-0.1,0.1-0.2,0.1-0.3c0-0.1,0.1-0.2,0.2-0.4c0.1-0.1,0.1-0.2,0.2-0.3c0-0.1,0.1-0.1,0.2-0.2c0.1-0.1,0.1-0.1,0.2-0.2
			c0,0,0.1-0.1,0.1-0.1c0,0,0.1-0.1,0.1-0.1c0.2-0.1,0.4-0.1,0.6-0.2c0.2,0,0.3-0.1,0.5,0c0.1,0,0.2,0,0.3,0.1
			c0.1,0,0.2,0.1,0.3,0.1c0.1,0,0.2,0.1,0.3,0.1c0.1,0,0.2,0.1,0.3,0.2c0.1,0,0.1,0.1,0.1,0.1c0,0,0.1,0.1,0.1,0.1
			c0.1,0.1,0.2,0.3,0.3,0.4C374.6,79.2,374.8,79.7,374.7,80.2z"/>
		<path class="st0" d="M378.9,16.3c0-0.2-0.1-0.5-0.2-0.7c-0.1-0.1-0.1-0.3-0.2-0.4c-0.1-0.1-0.1-0.2-0.2-0.3
			c-0.1-0.2-0.2-0.3-0.3-0.5c-0.2-0.2-0.4-0.3-0.5-0.5c-0.2-0.2-0.4-0.4-0.7-0.5c-0.1-0.1-0.2-0.1-0.4-0.2c-0.1-0.1-0.3-0.1-0.4-0.2
			c-0.3-0.1-0.6-0.2-1-0.3c-0.2,0-0.3-0.1-0.5-0.1c-0.2,0-0.4,0-0.5,0c-0.1,0-0.2,0-0.2,0c-0.1,0-0.1,0-0.2,0c-0.2,0-0.3,0-0.5,0
			c-0.3,0-0.6,0.1-0.9,0.2c-0.3,0.1-0.5,0.2-0.8,0.3c-0.1,0.1-0.3,0.1-0.4,0.2c-0.2,0.1-0.3,0.2-0.4,0.3c-0.1,0.1-0.2,0.2-0.3,0.3
			c-0.1,0.1-0.2,0.3-0.3,0.4c-0.2,0.2-0.3,0.5-0.4,0.7c-0.1,0.3-0.2,0.6-0.3,0.9c-0.1,0.3-0.2,0.6-0.2,0.9c0,0.3,0,0.7,0,1
			c0,0.3,0.1,0.6,0.2,0.9c0.1,0.3,0.2,0.6,0.3,0.8c0.1,0.3,0.3,0.6,0.4,0.9c0.1,0.1,0.1,0.3,0.2,0.4c0.1,0.1,0.2,0.3,0.3,0.4
			c0.2,0.2,0.4,0.4,0.7,0.6c0,0,0,0,0.1,0c0,0,0,0,0.1,0c0,0,0,0,0,0c0,0,0,0,0,0c0,0,0,0,0,0c0,0,0.1,0,0.1,0.1
			c0.1,0,0.1,0.1,0.2,0.1c0.1,0.1,0.3,0.1,0.4,0.2c0.1,0.1,0.3,0.1,0.5,0.2c0.2,0,0.3,0.1,0.5,0.1c0.1,0,0.2,0,0.3,0
			c0,0.8,0,1.6,0.1,2.4c0,0.9,0.1,1.5-0.4,1.5c-0.3,0-0.5-0.1-0.8-0.1c-0.5-0.1-1-0.1-1.5-0.2c-0.5-0.1-1.1-0.2-1.6-0.2
			c-0.3,0-0.7,0-1,0c-0.2,0-0.4,0-0.5,0c-0.5,0-1.1,0-1.6,0.1c-0.5,0-0.7,0-1.6,0.1c-0.4,0-0.1,2.4,0.3,2.5c1.4,0.1,1.5,0.1,2.4,0.1
			c1,0,2.1,0,3.1,0.1c0.4,0.1,0.7,0.1,1.1,0.2c0.3,0,0.6,0,1,0.1c0.3,0.1,0.7,0.1,1,0.2c0.3,0,0.7,0,1-0.3c0.1-0.1,0.2-0.3,0.3-0.6
			c0.1-0.5,0.1-1.2,0.1-1.9c0-0.5,0-1-0.1-1.3c0-0.8,0-1.7-0.1-2.5c0.2,0,0.3-0.1,0.5-0.1c0.6-0.1,1.1-0.4,1.6-0.7
			c0.3-0.2,0.5-0.4,0.7-0.6c0.2-0.2,0.4-0.4,0.6-0.6c0.2-0.2,0.4-0.5,0.5-0.8c0.1-0.3,0.3-0.5,0.4-0.8c0.1-0.3,0.2-0.6,0.3-0.9
			c0.1-0.3,0.1-0.6,0.1-0.9C378.9,16.8,378.9,16.6,378.9,16.3z M376,17.4c0,0.1,0,0.2-0.1,0.3c0,0.1-0.1,0.2-0.1,0.3
			c0,0.1-0.1,0.2-0.1,0.3c-0.1,0.1-0.1,0.2-0.2,0.3c-0.1,0.1-0.1,0.2-0.2,0.2c-0.1,0.1-0.2,0.1-0.2,0.2c-0.2,0.1-0.4,0.3-0.6,0.4
			c-0.2,0.1-0.3,0.1-0.5,0.2c-0.1,0-0.2,0-0.4,0c-0.1,0-0.2,0-0.4,0c-0.1,0-0.1,0-0.2,0c0,0-0.1,0-0.1,0c-0.1,0-0.2-0.1-0.4-0.2
			c0,0,0,0,0,0c0,0,0,0,0,0c-0.1,0-0.1-0.1-0.2-0.1c-0.1-0.1-0.1-0.1-0.2-0.2c0-0.1-0.1-0.1-0.1-0.2c0-0.1-0.1-0.1-0.1-0.2
			c-0.1-0.3-0.3-0.6-0.3-0.9c0-0.1,0-0.2,0-0.3c0-0.1,0-0.2,0-0.3c0-0.2,0.1-0.5,0.2-0.7c0-0.1,0.1-0.2,0.1-0.3
			c0-0.1,0.1-0.2,0.2-0.3c0.1-0.1,0.2-0.2,0.3-0.3c0.1-0.1,0.2-0.1,0.3-0.2c0.1,0,0.2-0.1,0.3-0.1c0.1,0,0.2-0.1,0.3-0.1
			c0.1,0,0.2,0,0.4,0c0.1,0,0.2,0,0.4,0c0.2,0,0.4,0.1,0.6,0.1c0.1,0,0.2,0.1,0.3,0.1c0.1,0,0.2,0.1,0.3,0.2c0.1,0,0.1,0.1,0.1,0.1
			c0.2,0.2,0.5,0.4,0.6,0.7c0,0.1,0.1,0.2,0.1,0.3c0,0.1,0,0.2,0,0.3C376,17.2,376,17.3,376,17.4z"/>
	</g>
	<g>
		<path class="st0" d="M264.8,67.7c-0.6,0-1.2,0-1.8,0c-0.8-0.1-1.5-0.2-2.3-0.3c-5.1-0.8-10-2.4-14.2-5.5c-1.4-1-2.8-2.1-4.1-3.2
			c-1.7-1.5-2.9-3.5-4.1-5.4c-2.3-3.6-3.9-7.4-4.3-11.6c-0.3-2.6-0.4-5.2,0.3-7.8c1.1-4.2,3.1-8,6-11.3c1.5-1.7,3.2-3.4,4.9-4.9
			c2.8-2.4,6.2-3.4,9.7-4.1c2.9-0.6,5.9-0.5,8.9-0.3c2.2,0.2,4.3,0.5,6.4,1.1c2.6,0.7,4.8,2.1,6.9,3.7c1.7,1.3,3.4,2.7,4.7,4.4
			c2,2.5,3.3,5.4,4.6,8.3c0.7,1.6,1.2,3.3,1.4,5c0.3,2.8,0,5.6-0.6,8.4c-1,4.6-2.8,8.8-5.2,12.8c-3.1,5-7.6,8.1-13.2,9.8
			C267.4,67.2,266.1,67.4,264.8,67.7z M261.4,63.6c-0.2-0.3-0.3-0.5-0.5-0.8c-0.6-1-1.2-1.9-1.9-2.9c-0.2-0.3-0.2-0.5,0.1-0.7
			c0.4-0.3,0.6-0.2,0.9,0.1c0.9,1.3,1.8,2.5,2.7,3.8c0.5,0.7,0.5,0.7,1.4,0.5c-0.2-0.4-0.4-0.7-0.6-1c-0.9-1.5-1.7-3-2.6-4.5
			c-0.2-0.4,0-0.8,0.4-0.8c0.2,0,0.4,0.2,0.5,0.4c1,1.7,2,3.5,2.9,5.2c0.1,0.1,0.1,0.3,0.2,0.4c0.3,0.1,0.6,0.1,0.9,0.1
			c0.4-0.1,0.2-0.4,0.1-0.6c-0.3-0.5-0.5-1-0.8-1.6c-0.8-1.4-1.5-2.8-2.3-4.2c0.1-0.1,0.2-0.2,0.4-0.3c0.5-0.4,0.6-0.3,0.9,0.2
			c0.3,0.5,0.5,1,0.8,1.5c0.7,1.4,1.3,2.7,2,4.1c0.1,0.2,0.3,0.5,0.6,0.4c0.4-0.1,0.8-0.3,1.2-0.5c-0.1-0.2-0.2-0.4-0.3-0.6
			c-0.9-1.7-1.8-3.5-2.7-5.2c-0.3-0.6-0.2-0.8,0.5-0.8c0.1,0,0.3,0.1,0.4,0.2c0.2,0.3,0.4,0.6,0.6,1c0.8,1.4,1.5,2.8,2.3,4.2
			c0.1,0.1,0.3,0.3,0.4,0.3c0.5,0,0.8-0.6,0.5-1c-0.4-0.7-0.9-1.4-1.3-2.1c-0.5-0.7-0.9-1.5-1.3-2.2c-0.1-0.2-0.1-0.5,0-0.6
			c0.1-0.2,0.4-0.3,0.6-0.2c0.2,0,0.4,0.3,0.5,0.4c0.8,1.4,1.6,2.9,2.3,4.3c0.2,0.3,0.3,0.5,0.7,0.3c0.4-0.2,0.5-0.4,0.3-0.8
			c-0.7-1.3-1.3-2.6-2-3.9c-0.1-0.2-0.1-0.5-0.1-0.5c0.2-0.1,0.5-0.2,0.7-0.2c0.2,0,0.3,0.3,0.4,0.5c0.6,1.1,1.1,2.3,1.7,3.4
			c0.4,0.7,0.5,0.8,1.1,0.3c0.1-0.1,0.2-0.1,0.2-0.2c-0.6-1.3-1.2-2.6-1.8-3.8c0.2-0.1,0.3-0.2,0.4-0.2c0.4-0.2,0.8-0.2,0.9,0.4
			c0.1,0.4,0.3,0.7,0.5,1.1c0.3,0.6,0.5,1.3,0.9,2c0.6-0.7,1.2-1.3,1.7-1.9c-0.6-1-1.2-1.9-1.8-2.7c-0.2-0.4,0-0.5,0.2-0.7
			c0.3-0.2,0.5-0.1,0.7,0.1c0.3,0.5,0.6,0.9,0.9,1.4c0.2,0.3,0.5,0.7,0.8,1.2c0.9-1.1,1.7-2,2.5-3c0.1-0.1,0.1-0.4,0-0.6
			c-0.7-1.1-1.4-2.1-2.1-3.2c-0.9,0.4-1,0.8-0.6,1.5c0.5,1,1,2,1.5,3c0.1,0.1-0.1,0.4-0.1,0.6c-0.2-0.1-0.5,0-0.6-0.2
			c-0.2-0.2-0.3-0.5-0.5-0.7c-0.4-0.7-0.8-1.4-1.2-2.1c-0.3,0.2-0.6,0.3-0.8,0.5c-1,0.7-2,1.4-3,2.1c-0.3,0.2-0.6,0.4-0.9,0.5
			c-0.7,0.2-1.2-0.1-1.2-0.9c-0.1-0.8-0.2-1.6-0.4-2.4c-0.5-2.3-1.3-4.5-3.3-6c-0.1-0.1-0.1-0.1-0.2-0.2c-0.3-0.4-0.2-0.7,0.2-0.9
			c0.5-0.3,1-0.6,1.5-0.9c2.3-1.4,3.9-3.3,4.7-5.8c0.6-1.8,0.8-3.6-0.1-5.4c-0.3-0.5-0.3-1-0.1-1.5c0.4-1.4,0.2-2.7,0-4.1
			c-0.1-0.5-0.4-0.7-0.9-0.7c-0.6,0.1-1.2,0.1-1.7,0.1c-1.1,0.1-2.1,0.4-2.8,1.3c-0.4,0.5-0.8,0.6-1.3,0.3c-1.4-0.8-2.9-0.9-4.4-0.6
			c-1.3,0.2-2.5,0.4-3.8,0.7c-1.1,0.2-2.3,0.6-3.3-0.3c-0.1-0.1-0.3-0.2-0.5-0.2c-1.2-0.3-2.4-0.6-3.6-0.8c-0.1,0-0.4,0.2-0.5,0.3
			c-0.6,1.3-0.8,2.7,0.2,3.9c0.1,0.2,0.2,0.3,0.3,0.5c0.3,0.3,0.3,0.7,0.1,1.1c-0.5,0.9-0.9,1.8-1.4,2.7c-1,2.1-1.1,4.3-0.3,6.5
			c0.9,2.6,2.7,4.3,5.4,4.9c0.7,0.2,1.3,0.2,2,0.3c0.4,0.1,0.6,0.3,0.4,0.7c-0.5,0.9-0.9,1.9-1.5,2.8c-0.3,0.6-0.4,0.6-1,0.3
			c-1.3-0.8-2.5-1.6-3.7-2.3c-0.9-0.6-2-0.8-3.1-0.7c-0.2,0-0.4,0.1-0.7,0.1c0.2,0.2,0.3,0.4,0.4,0.5c0.6,0.8,1.2,1.6,1.8,2.5
			c0.3,0.4,0.5,0.8,0.8,1.2c0.8,1.2,1.9,1.8,3.3,1.8c0.5,0,1,0.1,1.5,0.1c0.5,0,0.7,0.2,0.7,0.7c0,0.8,0.1,1.6,0.1,2.3
			c0,0.5-0.2,0.6-0.7,0.6c-3.5-0.4-6.7-1.7-9.4-3.9c-1.9-1.5-3-3.6-3.9-5.9c-1.1-2.8-1.4-5.7-1.5-8.6c-0.1-2.8,0.3-5.5,1.5-8
			c0.8-1.6,1.8-3.1,2.8-4.6c1.5-2.4,3.6-4.4,6.1-5.8c1.5-0.8,3-1.5,4.7-1.7c3.1-0.4,6.2-0.3,9.3,0.2c3.9,0.7,7.5,2.1,10.5,4.8
			c3,2.7,5.1,5.9,6,9.8c0.5,2.4,0.6,4.9,0.6,7.3c0,1.4,0.3,2.5,1.1,3.6c0.5,0.7,0.9,1.4,1.4,2.2c0.3-0.9,0.5-1.6,0-2.4
			c-0.6-1-1.1-2.1-1.6-3.2c-0.2-0.3,0-0.9,0.4-1c0.2,0,0.4,0.2,0.5,0.4c0.2,0.2,0.3,0.5,0.4,0.8c0.3,0.7,0.7,1.3,1.1,2.1
			c0.2-0.9,0.4-1.7-0.1-2.4c-0.6-1-1.2-2.1-1.8-3.2c-0.3-0.6-0.3-1,0.4-1.5c0.7,1.3,1.4,2.7,2.1,4c0.1,0,0.1,0,0.2,0
			c0.1-0.8,0.3-1.6-0.1-2.3c-0.8-1.4-1.6-2.8-2.4-4.2c-0.1-0.1,0-0.3,0-0.5c0.1,0.1,0.3,0.1,0.4,0.2c0.6,0.9,1.1,1.9,1.7,2.8
			c0.1,0.1,0.2,0.3,0.3,0.4c0-0.6-0.1-1.1-0.1-1.7c0-0.7-0.3-1.4-0.7-2c-0.6-1-1.3-2-1.9-3.1c-0.2-0.3-0.4-0.6,0-0.9
			c0.4-0.3,0.6,0.1,0.8,0.3c0.3,0.4,0.6,0.9,0.9,1.3c0-0.2,0-0.4-0.1-0.5c-1-2-2-4-3.1-6c-0.8-1.4-1.8-2.8-3.1-3.8
			c-1.4-1-2.7-2.1-4.2-3c-1.1-0.7-2.3-1.4-3.5-1.8c-5-1.5-10.2-1.9-15.4-1c-3.7,0.7-7.1,2.1-10,4.5c-2,1.6-3.6,3.6-5.1,5.6
			c-1.8,2.4-3.4,5-4.1,8c-0.3,1.2-0.7,2.4-0.8,3.7c-0.2,3.2,0.1,6.3,1.1,9.4c1,2.9,2.3,5.6,4.5,7.8c1.7,1.6,3.2,3.3,4.9,4.9
			c2.1,1.9,4.7,2.8,7.4,3.5c0,0,0.1,0,0.2-0.1c-0.1-0.3-0.3-0.5-0.4-0.8c-0.1-0.4,0.3-0.5,0.6-0.6c0.4,0.6,0.7,1.1,1.1,1.7
			c0.4,0.7,0.7,0.7,1.5,0.6c-0.2-0.5-0.5-1-0.7-1.5c-0.1-0.3-0.2-0.4,0.1-0.6c0.3-0.2,0.5-0.1,0.6,0.2c0.4,0.6,0.7,1.3,1.1,1.9
			c0.5,0.8,0.6,0.9,1.6,0.8c-0.1-0.2-0.2-0.4-0.3-0.5c-0.4-0.6-0.7-1.2-1.2-1.8c-0.3-0.4-0.1-0.6,0.2-0.8c0.3-0.2,0.5-0.1,0.7,0.2
			c0.5,0.8,1,1.6,1.5,2.4C260,63.4,260.5,63.8,261.4,63.6z M255.5,47.5c-0.3-0.1-0.5-0.1-0.7-0.2c-1.6-0.3-3.1-0.8-4.3-1.9
			c-3-2.9-3.6-6.4-2.3-10.3c0.3-1,1-1.9,1.5-2.9c0.1-0.2,0.2-0.4,0-0.7c-1.3-1.7-1.2-4.6,0.3-6.2c0.3-0.3,0.6-0.5,1-0.4
			c1.8,0.4,3.7,0.9,5.5,1.3c0.4,0.1,0.8,0.1,1.2,0c2-0.5,3.9-0.9,6-0.6c1,0.2,2,0.3,3.1,0.4c0.2,0,0.5,0,0.7-0.1
			c1.1-0.8,2.4-1.2,3.8-1.3c0.8-0.1,1.7-0.2,2.5-0.3c0-0.1,0-0.1,0-0.2c-0.8-0.4-1.6-0.8-2.4-1.1c-4.5-1.7-9.1-2.8-14-2
			c-3.2,0.6-6.1,1.7-8.4,4.1c-3.3,3.4-5.3,7.4-5.8,12.1c-0.3,2.3-0.3,4.7,0.4,7c0.5,1.8,0.9,3.7,2,5.3c0.9,1.3,1.9,2.4,2.9,3.6
			c0.6,0.7,1.3,1.1,2.2,1.3c1.2,0.3,2.5,0.5,3.5,1.2c0,0,0.1,0,0.2,0c0.4-0.7,0.3-0.9-0.5-1c-0.5-0.1-0.9-0.1-1.4-0.2
			c-1.8-0.3-3.3-1.2-4.2-2.9c-0.6-1.2-1.5-2.3-2.6-3.2c-0.1-0.1-0.2-0.2-0.3-0.4c-0.4-0.5-0.3-0.8,0.2-1.2c1.1-0.6,2.2-0.6,3.4-0.5
			c1.4,0.2,2.6,0.9,3.8,1.6c0.5,0.4,1.1,0.7,1.7,1.1C255,48.4,255.2,48,255.5,47.5z M273.8,52.5c0.7-0.4,1.4-0.7,1.9-1.2
			c0.9-0.9,1.6-2,2.3-3.1c1.3-2,2.2-4.3,2.2-6.8c0-3.4-0.4-6.8-1.8-9.9c-0.8-1.7-1.5-3.5-2.8-5c-0.4-0.4-0.8-0.8-1.2-1.2
			c-0.1,0.3,0,0.6,0.1,0.8c0.4,1.5,0.7,3,0.1,4.6c0,0.1,0,0.2,0,0.3c0.5,1.7,0.6,3.5,0.6,5.2c0.1,3.5-1.1,6.5-3.6,8.9
			c-0.4,0.4-0.4,0.6-0.1,1.1c0.8,1.2,1.4,2.5,1.7,3.9C273.3,50.9,273.6,51.7,273.8,52.5z M281.6,44c-0.1,0-0.1,0-0.2,0
			c-0.3,0.6-0.5,1.3-0.8,1.9c0,0.1,0,0.2,0,0.3c0.6,1.1,1.3,2.3,1.9,3.4c0.1,0,0.2,0,0.2,0c0.3-0.6,0.5-1.2,0.8-1.8
			c0-0.1,0-0.3,0-0.4C282.9,46.3,282.3,45.2,281.6,44z M280.1,47.3c-0.9,1.1-1,1.5-0.4,2.6c0.1,0.2,0.2,0.4,0.3,0.6
			c0.4,0.6,0.7,1.2,1.2,2c0.2-0.5,0.4-0.8,0.5-1.1c0.1-0.2,0.2-0.5,0.1-0.7C281.3,49.5,280.7,48.4,280.1,47.3z"/>
		<path class="st0" d="M236.2,36.4c0.4-3,1.3-5.9,3.4-8.2c0.3-0.3,0.6-0.2,0.8,0c0.3,0.2,0.3,0.5,0.1,0.8c-0.6,1-1.2,1.9-1.7,2.9
			c-0.8,1.6-1.1,3.2-1.3,5c0,0.3,0,0.7-0.4,0.8c-0.5,0.1-0.7-0.3-0.8-0.7C236.3,36.7,236.3,36.6,236.2,36.4z"/>
		<path class="st0" d="M261.9,14.7c2.9,0.1,5.7,0.4,8.3,1.2c0.2,0.1,0.4,0.1,0.5,0.2c0.3,0.1,0.4,0.3,0.3,0.6
			c-0.1,0.3-0.3,0.5-0.7,0.4c-0.7-0.2-1.3-0.4-2-0.6c-2.2-0.7-4.4-0.7-6.6-0.6c-0.5,0-1,0-1.4,0c-0.4,0-0.6-0.1-0.7-0.5
			c0-0.4,0.2-0.6,0.6-0.6C260.8,14.8,261.4,14.8,261.9,14.7z"/>
		<path class="st0" d="M251.1,38c0.1-0.3,0.2-0.9,0.3-1.4c0.1-0.2,0.2-0.5,0.3-0.6c0.2-0.1,0.5-0.2,0.7-0.1c0.1,0,0.3,0.4,0.3,0.5
			c0,0.3-0.1,0.7-0.2,1c-0.2,1-0.1,1.9,0.5,2.7c0.3,0.4,0.6,0.9,0.7,1.4c0.1,0.2,0,0.7-0.1,0.8c-0.3,0.1-0.7,0.1-0.9-0.1
			c-0.3-0.2-0.5-0.5-0.6-0.8C251.5,40.4,251.1,39.4,251.1,38z"/>
		<path class="st0" d="M269.2,27.8c0.7-0.1,1.4-0.2,2-0.2c0.2,0,0.4,0.2,0.4,0.4c0.1,0.8,0.2,1.6,0.3,2.4c0,0.4-0.2,0.6-0.6,0.6
			c-0.4,0-0.7-0.1-0.7-0.6c0-0.5-0.1-0.9-0.2-1.4c0-0.4-0.2-0.6-0.7-0.6C269.6,28.5,269.1,28.5,269.2,27.8z"/>
		<path class="st0" d="M253.7,52.1c-0.3,0-0.6-0.2-0.6-0.6c0-0.5,0.4-0.6,0.8-0.6c0.3,0,0.6,0,0.6,0.4
			C254.5,51.7,254.1,52.1,253.7,52.1z"/>
		<path class="st0" d="M252.4,50.4c-0.3,0.2-0.5,0.5-0.9,0.6c-0.3,0.1-0.7-0.4-0.6-0.7c0.1-0.2,0.4-0.5,0.5-0.5
			c0.3,0,0.6,0.2,0.9,0.4C252.4,50.3,252.4,50.4,252.4,50.4z"/>
		<path class="st0" d="M250,49.5c-0.5-0.1-0.9-0.4-0.8-0.7c0.1-0.2,0.3-0.5,0.5-0.5c0.3-0.1,0.8,0.3,0.7,0.7
			C250.3,49.1,250.1,49.3,250,49.5z"/>
	</g>
	<g>
		<path d="M249.2,70.9c0.2,0,0.4,0.2,0.5,0.6c0,0.3-0.4,0.5-1.3,0.7c-1.1,0.6-1.9,1.7-2.5,3.2c-0.6,1.5-0.9,3-0.9,4.5
			c0,2.4,0.8,3.9,2.3,4.6l0.6,0.1c1.3,0,2.2-1.1,2.7-3.4l0.1-0.7c0-1-0.3-1.8-1-2.4h-0.1c-0.2,0.3-0.7,1.3-1.5,3l-0.4,0.3
			c-0.3,0-0.5-0.2-0.6-0.6c1.1-2.7,1.9-4,2.3-4h0.1c1.5,0.9,2.2,2.1,2.2,3.8c0,1.9-0.8,3.4-2.3,4.7c-0.2,0.2-0.8,0.4-1.5,0.5
			c-1.4,0-2.6-1-3.6-3.1c-0.2-0.9-0.4-1.7-0.4-2.5v-0.3c0-2.6,0.8-5,2.4-7.3C247.4,71.4,248.3,70.9,249.2,70.9z"/>
		<path d="M252.6,75c0.5,0.1,0.7,0.3,0.7,0.6c-0.1,0.3-0.3,0.5-0.6,0.5c-0.4-0.1-0.7-0.3-0.7-0.7C252.2,75.2,252.4,75,252.6,75z
			 M253.3,77.5c0.2,0,0.4,0.2,0.5,0.5l-0.2,1.3v0.8c0,1,0.2,2.3,0.5,3.9c-0.1,0.2-0.3,0.3-0.6,0.3c-0.5,0-0.8-1.4-1-4.3v-0.6
			C252.6,78.2,252.8,77.5,253.3,77.5z"/>
		<path d="M257.1,73.5c0.3,0.1,0.5,0.2,0.5,0.5l-0.1,0.8V75c0,0.5,0.1,1.1,0.2,1.7h0c1.4-0.4,2.2-0.6,2.6-0.6
			c0.3,0.1,0.5,0.3,0.5,0.5c0,0.4-0.4,0.6-1.2,0.6l-1.9,0.7c0,1.6,0.2,3.8,0.5,6.6c-0.1,0.3-0.2,0.5-0.5,0.5h0
			c-0.4,0-0.6-0.5-0.6-1.6c-0.2-0.8-0.3-2.5-0.4-5.2h-0.3c-1.1-0.1-1.7-0.3-1.7-0.8c0-0.1,0.1-0.3,0.4-0.5h0.2l0.8,0.2h0.6l-0.2-2.2
			C256.5,73.9,256.7,73.5,257.1,73.5z"/>
		<path d="M262.8,74.4c0.4,0,0.6,0.7,0.6,2.2l0.1,2.8h0l2.9-1.1c0.3-2.4,0.5-3.7,0.8-3.7l0.2,0c0.2,0,0.4,0.2,0.6,0.5
			c-0.4,2.1-0.6,3.9-0.6,5.4v0.8c0,1.1,0.3,2.2,0.8,3.2c-0.1,0.3-0.3,0.5-0.6,0.5c-0.6,0-1-1.2-1.3-3.5v-1.8h-0.1
			c-1.8,0.6-2.7,1-2.7,1.2c0,2.9-0.3,4.3-0.8,4.3h-0.1c-0.2,0-0.4-0.2-0.5-0.6c0.2-1.3,0.3-2.3,0.3-3l-0.8,0.4l-0.2,0
			c-0.3-0.1-0.4-0.3-0.4-0.6c0-0.3,0.5-0.7,1.4-1.2v0c0-2.1-0.1-3.8-0.2-5.1C262.2,74.5,262.4,74.4,262.8,74.4z"/>
		<path d="M269.6,79l0.3-0.2c0.3,0,0.5,0.2,0.6,0.5c-0.2,0.9-0.3,1.8-0.3,2.7c0,0.5,0.1,1,0.4,1.5h0.1c0.3,0,0.8-1.4,1.2-4.1
			c0.2-0.1,0.3-0.2,0.5-0.2c0.4,0,0.6,0.7,0.6,2c0.2,1.5,0.3,2.2,0.5,2.2l0.3-0.1c0.3,0.1,0.5,0.3,0.5,0.6c-0.2,0.5-0.5,0.7-0.9,0.7
			c-0.4,0-0.8-0.4-1.2-1.3c-0.5,1-1,1.5-1.4,1.5c-0.7,0-1.2-0.8-1.5-2.3l-0.1-0.6v-0.2C269.2,80.7,269.4,79.8,269.6,79z"/>
		<path d="M274.9,75.8c0.6,0,1,1.2,1.2,3.7l0.1,0.6c0.5-1.1,1-1.7,1.3-1.7c0,0,0.1-0.1,0.4-0.1h0.1c0.8,0,1.3,0.6,1.5,1.9v0.1
			c0,1.1-0.5,2.2-1.6,3.5c-0.4,0.5-0.9,0.7-1.4,0.7c-0.6-0.1-0.9-0.4-0.9-0.9l-0.9-6.5l-0.3-0.7C274.4,76.1,274.6,76,274.9,75.8z
			 M276.7,83.1L276.7,83.1c0.7-0.3,1.2-1.1,1.7-2.6v-0.7c-0.1-0.4-0.2-0.6-0.4-0.6h-0.1C277.3,79.6,277,80.9,276.7,83.1z"/>
	</g>
</g>
<g>
</g>
<g>
</g>
<g>
</g>
<g>
</g>
<g>
</g>
<g>
</g>
</svg>
