<?xml version="1.0" encoding="utf-8"?>
<!-- Generator: Adobe Illustrator 25.1.0, SVG Export Plug-In . SVG Version: 6.00 Build 0)  -->
<svg version="1.1" id="Layer_1" xmlns="http://www.w3.org/2000/svg" xmlns:xlink="http://www.w3.org/1999/xlink" x="0px" y="0px"
	 viewBox="0 0 82 82" style="enable-background:new 0 0 82 82;" xml:space="preserve">
<style type="text/css">
	.st0{fill:#2DC6D6;}
</style>
<path class="st0" d="M71.4,81V52.4h-7.2v21.4H14.3V52.4H7.2V81H71.4z"/>
<path class="st0" d="M23.7,43.5l35,7.3l-1.5,7l-35-7.3L23.7,43.5z M26.8,33.8l3-6.5l32.3,15.2l-3,6.4L26.8,33.8L26.8,33.8z
	 M35.7,17.9l4.6-5.5l27.5,22.8l-4.6,5.5L35.7,17.9L35.7,17.9z M74.8,29.6L69,33.9L47.7,5.3L53.5,1L74.8,29.6z M21.4,59.6h35.7v7.1
	H21.4V59.6z"/>
</svg>
