<?xml version="1.0" encoding="utf-8"?>
<!-- Generator: Adobe Illustrator 25.1.0, SVG Export Plug-In . SVG Version: 6.00 Build 0)  -->
<svg version="1.1" id="Layer_1" xmlns="http://www.w3.org/2000/svg" xmlns:xlink="http://www.w3.org/1999/xlink" x="0px" y="0px"
	 viewBox="0 0 71 96.5" style="enable-background:new 0 0 71 96.5;" xml:space="preserve">
<style type="text/css">
	.st0{fill:#079247;}
</style>
<g>
	<path class="st0" d="M60.7,25.3c-0.5,1.4-1.5,2.4-2.3,3.7c0.2,0.2,0.4,0.3,0.6,0.5c-0.1,1-0.9,1.6-1.5,2.2c-0.6,0-0.8,0.5-1.1,0.9
		c-0.6,0.8-0.6,0.4-1.3,1.6c0.2,0.5,0.6,0.3,0.9,0.5c0.2,1-0.8,1.7-0.9,2.6c-0.2,1.4-1.7,1.9-1.5,2.5c0.7,2.5-2,2.4-1.7,3.9
		c0.1,0.5-1.8,3.1-3.3,5.9C33.8,78,31.7,90.8,30,93.4c-10.1,15.2-26-30.1-30-38.3c0.2-0.2,0.5-0.4,0.7-0.6c0.2-1.2,0.1-3,2.2-3.5
		c2-0.5,2.7,1.1,3.4,2.2c2.1-0.3,2.1-0.5,2.7,0.6c20.1,39.3,11.8,34,23.3,9.8c8.5-17.9,5.2-8.2,18.2-33.4c5-9.7,7.2-13.7,11.7-18.9
		c1.7-1.9,5.2-6,5.4-8.5C67.7,1.1,69.1,0.1,70,0c1.5,3.3,0.9,4.9,0.5,6.6c-0.1,0.3-0.2,0.4-0.9,1c0-0.4-0.1-0.8-0.1-1.2
		c-1.2,0.4-0.8,0.5-1.4-0.7c1.7,0.2,1.2-2.3,0.4-0.7c-0.8,1.6-0.7,0.3-1.4,2.1c0.2,0.5,1.1-0.1,1,0.6c-0.1,0.6-0.5,0.6-0.8,0.6
		c-1.3-0.1-0.7,0.9-2.5,2.2c-0.4,0.3-2.1,1.9-2.1,2.1c0.1,1.4-1,1.6-1.8,3c0.3,0.6,0.6-0.1,1.2,0.1c-1.4,1.3-0.9,0.8-1.7,2.1
		c-1.2,0.2-1.2-0.1-2.2,1.2c-1.6,2.1-0.4,3.1-1.7,3.5c-1,0.3-2.5,2.4-2.1,4.2c0.6,0.1,0.9-0.5,0.9-0.8c-0.2-1,0.6-1.6,0.9-2.4
		c0,0.1,0.3,0.7,0,1.3c0.1,0.4,0.1,0.3,0,0c1.3,0.6,1.2,0.8,1.8-0.1c3.1-4.6,2.1-3.5,3.2-4.1c0.3,0.4,1.4,1.5,0.7,2.8
		C61.5,23.5,60.6,25.4,60.7,25.3z M48.5,35.3c0.8-0.4,0.9-0.5,0.6-1.4c0.2-0.1,0.5,0,0.6-0.2c0.4-0.6,0.9-1.2,1-1.9
		c1.7-0.3,1.1-1.6,0.7-1.2c-0.4,0.3-0.7,0.7-0.7,1.3C50,31.8,48.9,34.5,48.5,35.3C48.5,35.4,48.5,36,48.5,35.3z M52.9,27.5
		c-0.3,0.7-0.3,0.5-0.1,0.7C53.2,27.7,53.2,27.8,52.9,27.5z M59.4,26.1C59.4,26.2,59.3,26.2,59.4,26.1
		C59.4,26.6,59.6,26.5,59.4,26.1z"/>
	<path class="st0" d="M68,11.5c0.8,0.1,0.8,0.1,1.8-0.4c0.3,0.3-0.1,0.6-0.1,0.9c0.1,0.5,0.5,1,0.1,1.5c-1,1.4-0.9,4.1-2.9,2.6
		c-1.3,1-1.5,3-3.1,3.7c-0.6-0.1-0.3-1.1-1.2-0.7C65.9,14.2,66.6,15.4,68,11.5z"/>
	<path class="st0" d="M63.9,13.4c2.6-1.7,2-1.7,2.7-0.1c-2.2,2.9-2.8,3.2-3.8,2.8C67.1,12.3,64.2,14.4,63.9,13.4
		C64,13.3,63.9,13.4,63.9,13.4z"/>
	<path class="st0" d="M66.6,17.6c0.3,0.3,0.5,0.5,0.7,0.7c-0.1,0.2-0.1,0.5-0.2,0.6c-0.9,0.7-1.1,1.9-2.1,2.5
		C64.2,20.5,64.2,20.8,66.6,17.6z"/>
	<path class="st0" d="M63.6,13.7c-0.1-0.9-0.1-0.9,0.5-1.5C64.3,12.5,64.5,12.9,63.6,13.7z"/>
	<path class="st0" d="M67.8,8.7c0.3-0.3,0.8-0.8,1.1-0.5c0.2,0.2,0.2,0.8-0.4,0.7C68.4,8.8,68.3,8.8,67.8,8.7z"/>
	<path class="st0" d="M58.6,20.6c-0.5-0.3-0.3-0.6,0.3-0.8C59,20.3,59.1,20.1,58.6,20.6z"/>
	<path class="st0" d="M60.7,25.3c-0.1,0.1-0.1,0,0.3,0.3c0,0,0,0.1,0,0.1C60.7,25.7,60.7,25.8,60.7,25.3z"/>
	<path class="st0" d="M56.1,23.3c0.3,0.1,0.2,0,0.1,0C56.1,23.3,56,23.4,56.1,23.3z"/>
</g>
<g>
</g>
<g>
</g>
<g>
</g>
<g>
</g>
<g>
</g>
<g>
</g>
</svg>
