<?xml version="1.0" encoding="utf-8"?>
<!-- Generator: Adobe Illustrator 25.1.0, SVG Export Plug-In . SVG Version: 6.00 Build 0)  -->
<svg version="1.1" id="Layer_1" xmlns="http://www.w3.org/2000/svg" xmlns:xlink="http://www.w3.org/1999/xlink" x="0px" y="0px"
	 viewBox="0 0 75.2 95.3" style="enable-background:new 0 0 75.2 95.3;" xml:space="preserve">
<style type="text/css">
	.st0{fill:#079247;}
</style>
<path class="st0" d="M8.2,56.3c1-0.2,1.9,0.6,2.8,0c0.4,0.3,7.5,14.4,13.4,23.3c1.5-0.5-0.5-3.3,18.3-37.2c2.9-5.3,14-25.2,17.9-30
	c2.6-3.2,4.2-4.8,6-7.8c0.9-1.5,1.3,0,1-2.1c1-0.1,1.1-0.1,1.2-0.5c0.1-2-0.1-1.3,0.5-2.1C70,1.3,69.3,4.6,70,1.2
	c0.9-0.4,0.8,1,0.8,2.5c0,0.5-0.6,0.8-0.7,0.9c-1.5,1.4,0.8,1.5-0.5,2.7c-1.7,1.5-0.6,1.7-2.1,2.7c-1.2,0.9,0.1,0.7-1.9,2.8
	c-0.2,0.2-0.3,0.4-0.4,0.9c2.3-1.7,1.9-0.8,2.5-1.7c4.4-5.8,4.4-5.9,4.8-6.2c1-0.8,0.4-2.1,2.1-5.2c0.5,1,0.5,1.3,0.5,2.6
	c0,8.7-2.9,6-14.2,26.3c-3.2,5.7-3.4,6.8-5.1,8.2c-1.3,1.1-0.4,1.5-1.1,3.5C54,43.9,45,59,39.4,71.8c-4.6,10.5-6,17.3-7.3,19.6
	c-3,5.5-10.2,6.4-16.8-5.3C9.1,74.9,8.2,74.8,4.2,65c-4.3-10.5-4.5-10-4-11.5c1.1-2.8,0.5-4.3,3.3-5.1c3.2-0.8,5.2,2.7,4.6,5.8
	C6.3,54.1,6.4,53.8,8.2,56.3z M31.9,65.8c-0.4,1.2-0.5-0.3-0.7,1.8c-0.6,0.8-1.2,1.5-1.1,2.6c-1.2,1.2-2.2,4.3-2.4,5.5
	c-0.2,0.9-1.1,3.1-1.1,2.2c0.1,1,0.3,0.7-0.5,2.1c-0.3-0.4-0.5-0.1-0.6,0.4c0.2,0,0.2,0.1,0.1-0.5c0.8,0,0.6-0.3,0.2,1.6
	c-0.1,0.5,0.4,1.1,0.8,0.1C27.5,79,31,67.2,31.9,65.8z M41.5,51.9C41.6,51.8,41.6,51.7,41.5,51.9C41.3,52.2,41.3,52.2,41.5,51.9z
	 M29.4,77.1c0.5-0.2,0.4-0.6,0.3-1.1c0.5-0.2,0.6-0.6,0.7-1c9.3-21,10.5-21.1,10-21.7c-4.6,7.3-11.2,23.9-11.2,24
	C29.2,77.3,29.5,77.8,29.4,77.1z M67.9,7.4c-0.4,0.1-0.4,0-0.3,0.3C67.9,7.2,67.8,6.8,67.9,7.4z M25,83.3c0-0.2,0-0.4-0.1-0.6
	c-0.5,0.2-0.6,0.5-0.4,1c0.6-0.5,0.5-0.6,0.5,0.7c0.8-0.5,0.8-0.5,0.8-0.8C25.6,83.2,25.3,83.2,25,83.3z M23.6,82.4
	c0.8-1.1,0.8-0.5-4.1-8.6c-0.3-0.6-0.8-1-1.5-1.4C18.3,73.2,22.2,80.9,23.6,82.4z M32.3,64.7c1.6-2,2-2.9,2.2-4.4
	C33.8,61.7,33,63.2,32.3,64.7z M36.6,56c-0.1,0.2,0.2,0.1,0.2,0.1C37,55.7,36.9,55.3,36.6,56z M70.5,3.1c-0.1,0-0.1-0.1-0.1,0.1
	L70.5,3.1z M29,78.5C29,78.4,29,78.4,29,78.5C28.9,78.5,28.9,78.5,29,78.5z M28.6,79.5C28.6,79.3,28.6,79.3,28.6,79.5L28.6,79.5z
	 M27.9,81.2c-0.1-0.2,0-0.2-0.1,0L27.9,81.2z"/>
<g>
</g>
<g>
</g>
<g>
</g>
<g>
</g>
<g>
</g>
<g>
</g>
</svg>
