<?xml version="1.0" encoding="utf-8"?>
<!-- Generator: Adobe Illustrator 25.1.0, SVG Export Plug-In . SVG Version: 6.00 Build 0)  -->
<svg version="1.1" id="Layer_1" xmlns="http://www.w3.org/2000/svg" xmlns:xlink="http://www.w3.org/1999/xlink" x="0px" y="0px"
	 viewBox="0 0 72.2 82.8" style="enable-background:new 0 0 72.2 82.8;" xml:space="preserve">
<style type="text/css">
	.st0{fill:#EC2227;}
</style>
<path class="st0" d="M13.6,70.8c0.2-0.4,0.5-0.7,0.7-1.1c1.2-0.1,1.9,0.3,2.5-2.5c1.6-0.3,2.6-1.7,1.9-2.9c-1.2,0-0.4,1.1-0.8,1.5
	c-0.2,0.2-0.7,0.2-0.7,0c0-0.7-0.6-0.8-1.1-1.1c-1.1,0.9-1.6,2.2-2.8,2.9c-2.3-1.9-0.9-1.4-0.2-4.4c0.8-0.2,1.2-1,1.7-1.4
	c-1.1-2,0.7-1,2.7-3.3c-0.3-0.3-0.6-0.5-0.9-0.7c0.1-1.5,1.8-2.7,1.7-3.2c-0.4-2.3,2.5-2,1.5-2.9c0.4,0.1,8.8-13,10.4-14.9
	C33.9,32.6-20.2-0.9,8.3,0c1.3,0-4.4-0.6,19.2,19.1c1.6,1.3,2.6,3,4.6,4.6c3.9,3.3,3.7,6.5,5.4,2.9c0.9-1.9,2.5-3.4,3.8-5.1
	c17.2-24,19.1-22,26.6-18.1c0.2,0.1,0.4,0.4,0.6,0.6c-0.3,0.5-0.5,1.1-0.8,1.5c-1.4,1.6-0.3,2.9-2,2.9c-3.2,0.1-12,13-12.1,13
	c-3.1,3.2-8,9-11,13.2c-1,1.4-0.6-1.1,16.4,24.4c6,9,2.3,5.7,10.8,20.3c0.4,0.1,0.9,0.3,1.5,0.4c0.3,0.8,1.2,1.2,1,2.2
	c-2.1,1.1-6.8,1.6-5.4-1c1.1-2.2-0.2-5.3-1.3-5.5c-1.9-3.3-0.7,1.8-2-2.3c1.6-2.8-1.6-2.9-0.8-4.7c0.3-0.6-0.4-2.4-1.7-2.7
	c-0.3,0.7-0.3,0.9,0.2,1.1c0.7,0.2,0.6,0.7,0.6,1.1c-0.4,0.3-0.6-0.1-0.9-0.2c-0.3,0.2-0.6,0.4-0.9,0.6c0.4,3.1,2.5,4.8-0.4,4.7
	c-0.7,0-0.9-0.4-1.9-2.1c-0.2-0.3-0.1-0.5,0.2-0.7c0-0.3,0.1-0.6,0.1-0.8c-0.3,0-0.2-0.2-0.1,0.9c-0.8-0.4-0.8-1.2-1.2-2.5
	c-1.9,0-0.9-1.2-1.7-4c0-0.1-0.3-0.2-0.5-0.3c-0.1,0.2-0.2,0.4-0.2,0.5c-0.2,0.5-2.1-1.5-2.6-3.2c-2.8-0.4-0.7-2.7-2.2-2.8
	c-1.3,0-1.1-2.7-9-11c-1.4-1.5-2.4-3-3.5-4.1C9.5,76.7,12,81.4,8.6,81.1c-1-1.4-0.9-3.1-0.9-4.7c0-0.6,0.4-0.9,0.9-1.2
	c0.9,0.4,2,1,2.3,0.2c0.4-0.9,2.2-1.2,2.3-2.9c0-0.5,0.6-0.9,0.9-1.3C14.1,70.9,13.5,70.7,13.6,70.8z M57.8,58.9
	C57.9,57.9,56.8,58,57.8,58.9c0.2,1.2,1.3,1.8,1.2,3.2c0,0.1,0.3,0.2,0.4,0.2C60.2,62,58.9,59.6,57.8,58.9z M23.1,59.3
	c-0.8,0.7-1.3,1.7-2.3,2.2C20.4,61.7,21.6,63.1,23.1,59.3z M10,76.9c-0.6,0.4-0.6,0.4-0.4,1.3C10.2,77.8,10.2,77.8,10,76.9z
	 M9.1,76.2c-0.2-0.3-0.1-0.3-0.4-0.1C8.9,76.5,8.8,76.5,9.1,76.2z M60.8,63.8c-0.1,0.1-0.4,0.2-0.1,0.4c0,0,0.2,0,0.2-0.1
	C60.9,64.1,60.8,63.9,60.8,63.8z M14.1,63.3c0,0,0,0.1,0,0.1C14.5,63.3,14.4,63.1,14.1,63.3z M20,63.4c-0.2,0.3-0.2,0.2,0.1,0.4
	C20.2,63.4,20.2,63.5,20,63.4z M68.7,80.8c-0.1,0-0.2,0,0,0.2c0,0,0.1,0,0.1,0C68.8,80.9,68.7,80.9,68.7,80.8z"/>
<path class="st0" d="M64.8,79.9c-0.6,1-0.4,0.6-0.6,1.5c-2.7-0.6-0.2,0.6-3.7-1.5c-0.3-0.7,0-1.2,0.6-1.5c-0.3-1.4-1.8-2.1-1.7-3.5
	c0.2-0.5,0.5-0.2,0.8-0.2c0.8-0.2,0-1.2,1.6,1.3C62.3,77.6,62.4,78.6,64.8,79.9z"/>
<path class="st0" d="M8.9,69.3c-0.5-0.1-0.2,0.5,0,0.4c0.5-0.3,0.5-0.7,1.1-1.6c0.2-0.3,0.5-0.6,0.8-0.9c0.4,0.4,0.7,0.7,1,0.9
	c0,0.7-1.1,2.1-1.7,2.6c-0.9,0.7-0.8,2.6-2.7,2.7c-0.9-1.2-0.3-2.4,0-3.7C9,69.2,8.9,69.3,8.9,69.3z"/>
<path class="st0" d="M64.7,76.5c0.4,2.2,0.7,1.8-0.9,2.1c-0.7-0.9-0.8-2-1.9-2.5c0,0,0,0,0,0c0.8-0.2,0.5,0,1.2-0.9
	C63.7,77.7,63.6,77.4,64.7,76.5C64.7,76.5,64.7,76.5,64.7,76.5z"/>
<path class="st0" d="M59.9,77.8c-0.8,0.5-1,0.9-2.2-1.9c-0.2-0.4,0.3-0.8,0.8-0.5C58.9,75.5,59,76,59.9,77.8z"/>
<path class="st0" d="M11,72c0.8,0.6,0.8,0.3-0.4,1.3c-0.7-0.6-1-0.9-0.8-1.1c1.3-1.6,1.7-2.3,2.7-1.7C11.9,70.9,11.1,71.2,11,72z"/>
<path class="st0" d="M8.9,69.3c-1-1.4-1.3-1.1,0.5-3.3c0.3,0.3,1,0.6,0.5,1.2C9.9,67.1,8.4,69.3,8.9,69.3z"/>
<path class="st0" d="M64.7,76.1c0-0.1,0.9,0.1,0.9,0.7C65.7,77.1,64.6,77,64.7,76.1z"/>
<path class="st0" d="M12.4,72.3c-0.1,0.9,0,1.1-0.4,1.1C11.8,73.4,11.6,72.5,12.4,72.3z"/>
<path class="st0" d="M62.7,71.2c-0.2,0.2-0.2,0.3-0.3,0c0,0,0.1-0.1,0.1-0.1C62.5,71.2,62.6,71.2,62.7,71.2z"/>
<path class="st0" d="M15.5,68.2c-0.1,0-0.2,0.1-0.3,0.1c0,0-0.1-0.1,0-0.1C15.5,68,15.5,68.1,15.5,68.2z"/>
<path class="st0" d="M13.6,70.7c-0.3,0.5-0.1,0.4-0.5,0.4C13.2,70.6,13.8,70.9,13.6,70.7z"/>
<path class="st0" d="M19.9,52.2c0.1,0,0,0.1,0.2-0.7C20.2,51.4,20.1,51.4,19.9,52.2z"/>
<path class="st0" d="M13.1,63.8C13.4,62.7,13.4,62.8,13.1,63.8L13.1,63.8z"/>
<g>
</g>
<g>
</g>
<g>
</g>
<g>
</g>
<g>
</g>
<g>
</g>
</svg>
