<?xml version="1.0" encoding="utf-8"?>
<!-- Generator: Adobe Illustrator 25.1.0, SVG Export Plug-In . SVG Version: 6.00 Build 0)  -->
<svg version="1.1"
	 id="svg5704" xmlns:cc="http://creativecommons.org/ns#" xmlns:dc="http://purl.org/dc/elements/1.1/" xmlns:rdf="http://www.w3.org/1999/02/22-rdf-syntax-ns#" xmlns:svg="http://www.w3.org/2000/svg"
	 xmlns="http://www.w3.org/2000/svg" xmlns:xlink="http://www.w3.org/1999/xlink" x="0px" y="0px" viewBox="0 0 888.8 888.8"
	 style="enable-background:new 0 0 888.8 888.8;" xml:space="preserve">
<style type="text/css">
	.st0{fill:#E42A20;}
</style>
<g id="g5110">
	<g id="g5116" transform="translate(568.7147,32.5637)">
		<path id="path5118" d="M285.7,449.6v-8.5h-24.9V275.7c38.1-1.9,44.6,6.3,49.5,40.8h8.4l-3-47.6H170.9l-2.9,47.6h8.6
			c4.9-34.6,11.4-42.7,49.5-40.8v165.5h-24.9l0,8.5H285.7"/>
	</g>
	<path id="path5106" d="M706.4,310.1h23.3v-8.6h-81.3v8.6h23.5v163.6h-23.5v8.5h81.3v-8.5h-23.3V310.1z"/>
	<g id="g5120" transform="translate(544.5986,51.3118)">
		<path id="path5122" d="M88.3,258.7v-8.5H21.6l-39.2,123.6l-37.8-123.6h-66.4v8.5h23.4v163.7l-25.2,0
			c-23.4,0.6-23.8-19.4-23.7-23.5c0.3-44.1-9.5-60.1-51.7-66.6v-0.6c25.2-2.7,57.4-9.8,57.4-40.4c0-37.6-35.1-41.1-64.7-41.1h-87.1
			v8.5h23.3v163.7h-23.3v8.5h81.3v-8.5h-23.3v-86.3c15-0.6,31.9,3.2,39.5,9.8c7,6,10.8,24.5,10.8,46.9c0,27.6,14.3,38.1,41.6,38.1
			h78.3v-8.5h-22.8V261.5h0.6l53.8,169.4h9.1l54.1-169.4h0.8v160.9H7.1v8.5h81.2v-8.5H65l0-163.7H88.3z M-235.6,327.6v-68.9h23.5
			c24.1,0,33,6.1,33,36.4c0,24.2-10,32.5-34.4,32.5H-235.6"/>
	</g>
	<g id="g5124" transform="translate(487.3641,53.408)">
		<path id="path5126" class="st0" d="M-380.1,237.3h-27v21.9h-44.9V305h-33.8v67.1h33.8v45.7h44.9v21.9h23.8
			c55.6,0,104.6-44.9,104.6-100.9C-278.7,283.1-324.5,237.3-380.1,237.3"/>
	</g>
	<g id="g5128" transform="translate(505.5656,26.6105)">
		<path id="path5130" d="M-231.2,510.3c0-1.5-0.8-2.2-2.2-2.2h-4.3v-8.6h10.1c4.5,0,6.4,1.9,6.4,6.4v39.2c0,10.6,6.7,17,17,17
			c10.2,0,17-6.3,17-17.1v-39.1c0-4.5,2-6.4,6.5-6.4h10v8.6h-4.3c-1.4,0-2.2,0.7-2.2,2.2v35.2c0,15.4-10.7,26-26.9,26
			c-16.3,0-27.1-10.5-27.1-26V510.3z"/>
	</g>
	<g id="g5132" transform="translate(512.8934,21.0164)">
		<path id="path5134" d="M-171.2,567.2h4.3c1.4,0,2.2-0.8,2.2-2.2v-60h9.1l31.5,44.9c2.6,3.8,5.9,9.6,5.9,9.6h0.2
			c0,0-0.7-5.6-0.7-9.6v-38.4c0-4.5,1.9-6.4,6.5-6.4h10v8.6h-4.3c-1.4,0-2.2,0.7-2.2,2.2v60h-9l-31.6-44.8c-2.6-3.8-5.8-9.6-5.8-9.6
			h-0.2c0,0,0.6,5.7,0.6,9.6v38.4c0,4.5-1.9,6.4-6.4,6.4h-10.1V567.2z"/>
	</g>
	<g id="g5136" transform="translate(521.6069,21.0164)">
		<path id="path5138" d="M-99.9,567.2h6.9v-53.6h-6.9V505h23.4v8.6h-6.9v53.6h6.9v8.6h-23.4V567.2z"/>
	</g>
	<g id="g5140" transform="translate(525.3431,26.6105)">
		<path id="path5142" d="M-69.3,510.3c-0.6-1.8-1.6-2.2-3.3-2.2H-74v-8.6h5.6c5,0,6.7,1.1,8.3,5.8l15.5,43.7
			c1.3,3.8,2.7,9.7,2.7,9.7h0.2c0,0,1.3-5.9,2.7-9.7l15.5-43.7c1.7-4.7,3.3-5.8,8.3-5.8h5.6v8.6h-1.4c-1.8,0-2.7,0.4-3.3,2.2
			l-22.3,60H-47L-69.3,510.3z"/>
	</g>
	<g id="g5144" transform="translate(533.2109,26.8508)">
		<path id="path5146" d="M-4.9,507.8h-6.5v-8.6h41.7c4.5,0,6.4,1.9,6.4,6.4v8.9h-9.1V510c0-1.5-0.8-2.2-2.2-2.2H5.1V530h24.8v8.6
			H5.1v20.6c0,1.4,0.8,2.2,2.2,2.2H28c1.4,0,2.2-0.8,2.2-2.2v-4.5h9.2v8.9c0,4.5-1.9,6.4-6.4,6.4H1.5c-4.5,0-6.4-1.9-6.4-6.4
			L-4.9,507.8z"/>
	</g>
	<g id="g5148" transform="translate(542.0873,24.086)">
		<path id="path5150" d="M67.7,536c7.6,0,12.1-4.9,12.1-12.8c0-7.9-4.5-12.5-11.9-12.5H54.7V536H67.7z M44.6,510.6h-6.5v-8.6H69
			c12.4,0,21.2,7.8,21.2,20.8c0,11.8-7.7,17.7-12.7,18.8v0.2c0,0,1.8,0.9,3,3.2l8.5,17c1,2.1,2.6,2.3,5,2.3h1.3v8.6h-4.9
			c-5.5,0-7.5-0.7-9.8-5.3L71,548.4c-1.8-3.3-3.1-3.8-7-3.8h-9.2v28.2h-10C44.6,572.8,44.6,510.6,44.6,510.6z"/>
	</g>
	<g id="g5152" transform="translate(546.4899,21.8685)">
		<path id="path5154" d="M103.8,558.6c0,0,7.2,8.5,17.8,8.5c6.6,0,12.2-4,12.2-10.5c0-14.9-34.2-12.5-34.2-34.6
			c0-10.6,9.3-19,22.7-19c7.5,0,20.2,3.4,20.2,13v5.8h-9.2v-3.3c0-3.7-5.3-6.4-10.9-6.4c-7.6,0-12.4,4.2-12.4,9.5
			c0,14.4,34.1,11.1,34.1,34.4c0,10.8-8.4,20.2-22.5,20.2c-15.1,0-23.5-10.5-23.5-10.5L103.8,558.6z"/>
	</g>
	<g id="g5156" transform="translate(551.9955,21.0164)">
		<path id="path5158" d="M148.8,567.2h6.9v-53.6h-6.9V505h23.4v8.6h-6.9v53.6h6.9v8.6h-23.4V567.2z"/>
	</g>
	<g id="g5160" transform="translate(558.017,26.8508)">
		<path id="path5162" d="M198.1,507.8h-14.3c-1.4,0-2.2,0.7-2.2,2.2v4.5h-8.9v-9.3c0-4.5,1.5-6,6-6h48.8c4.5,0,6,1.5,6,6v9.3h-8.9
			V510c0-1.5-0.8-2.2-2.2-2.2h-14.3V570h-10V507.8z"/>
	</g>
	<g id="g5164" transform="translate(564.9893,23.4417)">
		<path id="path5166" d="M255.2,542.5l-18-28.8c-1.3-2.1-2.2-2.5-4.3-2.5h-2v-8.6h4.6c4.8,0,6.7,0.7,9.5,5.4l10.7,17.9
			c2.3,3.9,4.3,7.9,4.3,7.9h0.2c0,0,1.9-4,4.3-7.9l10.7-17.9c2.8-4.7,4.8-5.4,9.5-5.4h4.6v8.6h-1.9c-2.1,0-3.1,0.4-4.4,2.5
			l-17.9,28.8v30.9h-10V542.5z"/>
	</g>
</g>
</svg>
