<?xml version="1.0" encoding="utf-8"?>
<!-- Generator: Adobe Illustrator 25.1.0, SVG Export Plug-In . SVG Version: 6.00 Build 0)  -->
<svg version="1.1" id="Ebene_1" xmlns="http://www.w3.org/2000/svg" xmlns:xlink="http://www.w3.org/1999/xlink" x="0px" y="0px"
	 viewBox="0 0 692.8 692.8" style="enable-background:new 0 0 692.8 692.8;" xml:space="preserve">
<style type="text/css">
	.st0{fill:#00C1D4;}
</style>
<g>
	<polygon class="st0" points="62.4,230.9 88.1,230.9 88.1,148 118.2,148 118.2,125.3 32.3,125.3 32.3,148 62.4,148 	"/>
	<polygon class="st0" points="252.9,189.5 287.3,189.5 287.3,230.9 313.1,230.9 313.1,125.3 287.3,125.3 287.3,166.8 252.9,166.8 
		252.9,125.3 227.2,125.3 227.2,230.9 252.9,230.9 	"/>
	<polygon class="st0" points="351.7,189.5 386,189.5 386,230.9 411.8,230.9 411.8,125.3 386,125.3 386,166.8 351.7,166.8 
		351.7,125.3 325.9,125.3 325.9,230.9 351.7,230.9 	"/>
	<path class="st0" d="M171.4,232.4c23.7,0,43-19.1,43-42.6v-64.5h-25.6v64.5c0,9.5-7.8,17.2-17.4,17.2c-9.5,0-17.3-7.7-17.4-17.2
		v-64.5h-25.6v64.5C128.5,213.3,147.7,232.4,171.4,232.4z"/>
	<path class="st0" d="M394.6,487c-17,0-29.4,12-29.4,28.8c0,16.7,12.4,28.9,29.4,28.9s29.3-12.2,29.3-28.9S411.6,487,394.6,487z
		 M394.6,537c-11.9,0-20.6-8.9-20.6-21.3c0-12.3,8.6-21.1,20.6-21.1c11.8,0,20.5,8.9,20.5,21.1C415,528.2,406.4,537,394.6,537z"/>
	<path class="st0" d="M130.4,487c-17,0-29.4,12-29.4,28.8c0,16.7,12.4,28.9,29.4,28.9c13.8,0,25.5-9,28.5-21.4H150
		c-2.4,8.2-10.2,14.2-19.5,14.2c-11.4,0-19.9-8-21-19h50c0.1-0.9,0.2-1.8,0.2-2.7C159.7,499.1,147.4,487,130.4,487z M109.7,511.8
		c1.7-10.5,9.9-17.6,20.8-17.6s19.4,7.3,20.9,17.6H109.7z"/>
	<path class="st0" d="M198.2,494.6c9.9,0,18.1,6.7,19.9,16.1h8.8c-1.8-13.8-13.9-23.8-28.6-23.8c-17,0-29.4,12-29.4,28.8
		c0,16.7,12.4,28.9,29.4,28.9c14.8,0,26.8-10,28.6-23.9h-8.8c-1.8,9.4-9.9,16.3-19.9,16.3c-11.9,0-20.6-8.9-20.6-21.3
		C177.6,503.5,186.3,494.6,198.2,494.6z"/>
	<rect x="436.2" y="465.2" class="st0" width="8.7" height="78.4"/>
	<polygon class="st0" points="104.8,465.2 45.6,465.2 45.6,473.5 70.6,473.5 70.6,543.6 79.8,543.6 79.8,473.5 104.8,473.5 	"/>
	<path class="st0" d="M574.9,498.1c-4.9-6.8-12.8-11-22.4-11c-15.9,0-27.5,11.7-27.5,28s11.6,28,27.5,28c9.5,0,17.5-4.2,22.4-11.1
		v8.7c0,11.5-8.5,19.8-20.3,19.8c-8.4,0-16.4-5-18.8-11.7l-8.3-0.1c2.7,10.9,14.2,18.9,27.4,18.9c16.7,0,28.6-11.5,28.6-27.3v-52.2
		h-8.6L574.9,498.1L574.9,498.1z M554.5,536.1c-11.9,0-20.6-8.9-20.6-21.1c0-12.4,8.6-21.3,20.6-21.3c11.8,0,20.5,8.9,20.5,21.3
		C574.9,527.3,566.3,536.1,554.5,536.1z"/>
	<polygon class="st0" points="621.3,528.5 602.1,487.9 592.9,487.9 617.2,537.2 602.7,565.9 611.9,565.9 649.5,487.9 640.3,487.9 	
		"/>
	<path class="st0" d="M331.2,487c-8.5,0-15.2,4-18.7,10.8v-9.9h-8.8v55.7h8.8v-32.5c0-10.5,6.4-17.2,16.2-17.2c9.8,0,16,6.7,16,17.2
		v32.5h8.6v-33.5C353.4,496.1,344.4,487,331.2,487z"/>
	<path class="st0" d="M486.6,487c-17,0-29.4,12-29.4,28.8c0,16.7,12.4,28.9,29.4,28.9s29.3-12.2,29.3-28.9S503.6,487,486.6,487z
		 M486.6,537c-11.9,0-20.6-8.9-20.6-21.3c0-12.3,8.6-21.1,20.6-21.1c11.8,0,20.5,8.9,20.5,21.1C507,528.2,498.4,537,486.6,537z"/>
	<path class="st0" d="M266.5,487c-8.5,0-15.2,4-18.7,10.8v-32.6H239v78.4h8.8v-32.5c0-10.5,6.4-17.2,16.2-17.2c9.8,0,16,6.7,16,17.2
		v32.5h8.6v-33.5C288.6,496.1,279.7,487,266.5,487z"/>
	<rect x="185.7" y="383.5" class="st0" width="8.6" height="55.7"/>
	<path class="st0" d="M190,363.2c-3.5,0-5.9,2.3-5.9,5.5c0,3.3,2.4,5.6,5.9,5.6c3.4,0,5.8-2.3,5.8-5.6
		C195.8,365.5,193.4,363.2,190,363.2z"/>
	<path class="st0" d="M656.5,367.2c1,0,2.6,0.2,4,0.8v-7.8c-1.4-0.2-3-0.3-4.1-0.3c-9.2,0-15.7,5.9-15.7,14.4v9.2h-8.2v7.4h8.2v48.2
		h8.7v-48.3h11v-7.4h-11v-9.2C649.5,370,652.3,367.2,656.5,367.2z"/>
	<polygon class="st0" points="463.8,439.1 463.8,390.8 476.6,390.8 476.6,383.5 463.8,383.5 463.8,369.3 455.2,369.3 455.2,383.5 
		444.9,383.5 444.9,390.8 455.2,390.8 455.2,439.1 	"/>
	<path class="st0" d="M392,389c7.4,0,12.4,3.9,12.6,9.7h8.1c0-9.5-8.4-16.1-20.6-16.1c-12.3,0-20.7,6.3-20.7,15.8
		c0,12.6,11.9,14.9,20.5,16.4c7.2,1.4,13.6,2.4,13.6,9.5c0,5.6-5.3,9.3-13,9.3c-8.1,0-13.6-4.1-13.9-10.2h-8.5
		c0.2,9.9,9.2,16.8,22.2,16.8c12.8,0,21.7-6.7,21.7-16.4c0-12.8-12.7-15-20.9-16.6c-7.2-1.5-13.1-2.6-13.1-9.7
		C380.1,392.4,385,389,392,389z"/>
	<path class="st0" d="M431,374.2c3.4,0,5.8-2.3,5.8-5.6c0-3.2-2.4-5.5-5.8-5.5c-3.5,0-5.9,2.3-5.9,5.5
		C425.1,372,427.5,374.2,431,374.2z"/>
	<path class="st0" d="M341.8,397v-13.5h-8.7v55.6h8.7v-28.2c0-12.8,8-20.2,21.6-20.2v-8.5C352.9,382.2,345.3,387.5,341.8,397z"/>
	<rect x="426.7" y="383.5" class="st0" width="8.6" height="55.7"/>
	<path class="st0" d="M320.1,418.8h-8.9C308.8,427,301,433,291.7,433c-11.4,0-19.9-8-21-19h50c0.1-0.9,0.2-1.8,0.2-2.7
		c0-16.7-12.3-28.8-29.3-28.8s-29.4,12-29.4,28.8c0,16.7,12.4,28.9,29.4,28.9C305.3,440.2,317,431.2,320.1,418.8z M291.7,389.7
		c10.9,0,19.4,7.3,20.9,17.6h-41.7C272.6,396.9,280.8,389.7,291.7,389.7z"/>
	<path class="st0" d="M597.5,440.2c17,0,29.3-12.2,29.3-28.9s-12.3-28.8-29.3-28.8s-29.4,12-29.4,28.8
		C568.1,428,580.5,440.2,597.5,440.2z M597.5,390.2c11.8,0,20.5,8.9,20.5,21.1c0,12.4-8.6,21.3-20.5,21.3s-20.6-8.9-20.6-21.3
		C576.9,399,585.6,390.2,597.5,390.2z"/>
	<path class="st0" d="M75.4,440.2c18,0,30-11.9,30-30v-49.4h-9.2v49c0,13.3-8.2,21.9-20.9,21.9c-12.6,0-20.8-8.6-20.8-21.9v-49h-9.3
		v49.4C45.1,428.2,57.3,440.2,75.4,440.2z"/>
	<polygon class="st0" points="492.5,383.5 483.3,383.5 507.6,432.7 493.1,461.4 502.3,461.4 539.9,383.5 530.7,383.5 511.7,424 	"/>
	<path class="st0" d="M170.8,439.1v-33.5c0-14-9-23.1-22.2-23.1c-8.5,0-15.2,4-18.8,10.8v-9.9h-8.7v55.7h8.7v-32.5
		c0-10.5,6.4-17.2,16.3-17.2c9.8,0,16,6.7,16,17.2v32.5H170.8z"/>
	<polygon class="st0" points="249.5,383.5 231.1,430.5 212.6,383.5 203.4,383.5 225.9,439.1 236.2,439.1 258.7,383.5 	"/>
	<path class="st0" d="M484.4,334.4c9.5,0,17.5-4.2,22.4-11.1v8.7c0,11.5-8.5,19.8-20.3,19.8c-8.4,0-16.4-5-18.8-11.7l-8.3-0.1
		c2.7,10.9,14.2,18.9,27.4,18.9c16.7,0,28.6-11.5,28.6-27.3v-52.2h-8.6v10.1c-4.9-6.8-12.8-11-22.4-11c-15.9,0-27.5,11.7-27.5,28
		C456.9,322.7,468.5,334.4,484.4,334.4z M486.4,285.2c11.8,0,20.5,8.9,20.5,21.3c0,12.3-8.6,21.1-20.5,21.1s-20.6-8.9-20.6-21.1
		C465.8,294.1,474.4,285.2,486.4,285.2z"/>
	<path class="st0" d="M201.2,287.7v-8.3h-8.8v55.7h8.8v-35.2c0-8.9,5.2-14.3,13.5-14.3c8.5,0,13.5,5.5,13.5,14.3v35.2h8.6v-35.2
		c0-8.9,5.2-14.3,13.6-14.3s13.4,5.5,13.4,14.3v35.2h8.6v-36.3c0-12.5-7.6-20.3-19.2-20.3c-8.6,0-15.2,4.2-18.2,11.3
		c-2.7-7-8.9-11.3-17.2-11.3C210.4,278.5,204.4,281.8,201.2,287.7z"/>
	<polygon class="st0" points="104.4,335.1 104.4,256.7 95.1,256.7 95.1,292.2 55.2,292.2 55.2,256.7 46,256.7 46,335.1 55.2,335.1 
		55.2,300.5 95.1,300.5 95.1,335.1 	"/>
	<path class="st0" d="M407.1,312.2v-32.7h-8.8v32.7c0,10.1-6.2,16.7-15.9,16.7s-15.9-6.6-15.9-16.7v-32.7h-8.7v32.7
		c0,14.4,9.9,24,24.7,24C397.2,336.1,407.1,326.6,407.1,312.2z"/>
	<path class="st0" d="M146,336.1c9.4,0,17.4-4.2,22.3-11.1v10.1h8.6v-55.7h-8.6v10.2c-4.9-6.9-12.8-11.1-22.3-11.1
		c-16,0-27.6,12-27.6,28.8C118.4,324,130,336.1,146,336.1z M147.9,286.1c11.8,0,20.5,8.9,20.5,21.1c0,12.4-8.6,21.3-20.5,21.3
		s-20.6-8.9-20.6-21.3C127.3,295,135.9,286.1,147.9,286.1z"/>
	<path class="st0" d="M296.6,289.7v-33h-8.7v78.4h8.7V325c4.9,6.8,12.7,11.1,22.3,11.1c15.9,0,27.6-12.2,27.6-28.9
		c0-16.7-11.7-28.8-27.6-28.8C309.3,278.5,301.5,282.7,296.6,289.7z M317.1,286.1c11.9,0,20.5,8.9,20.5,21.1
		c0,12.4-8.5,21.3-20.5,21.3c-11.9,0-20.5-8.9-20.5-21.3C296.6,295,305.1,286.1,317.1,286.1z"/>
	<path class="st0" d="M430.9,306.9c0-12.8,8-20.2,21.6-20.2v-8.5c-10.5,0-18.1,5.3-21.6,14.8v-13.5h-8.7v55.6h8.7V306.9z"/>
</g>
</svg>
