<?xml version="1.0" encoding="utf-8"?>
<!-- Generator: Adobe Illustrator 25.1.0, SVG Export Plug-In . SVG Version: 6.00 Build 0)  -->
<svg version="1.1" id="Layer_1" xmlns="http://www.w3.org/2000/svg" xmlns:xlink="http://www.w3.org/1999/xlink" x="0px" y="0px"
	 viewBox="0 0 1878.8 940.8" style="enable-background:new 0 0 1878.8 940.8;" xml:space="preserve">
<style type="text/css">
	.st0{enable-background:new    ;}
	.st1{opacity:0.85;}
	.st2{fill:#B8EEF3;}
	.st3{fill:#9FE8EF;}
	.st4{fill:#76DEE8;}
	.st5{fill:#D1F4F7;}
	.st6{fill:#8CE3EC;}
	.st7{fill:#60D8E4;}
	.st8{fill:#22242B;}
	.st9{fill:#20222A;}
	.st10{fill:#1F2128;}
	.st11{fill:#1D1F27;}
	.st12{fill:#1E2028;}
	.st13{opacity:0.6;fill:#00C1D4;enable-background:new    ;}
	.st14{fill:#25272F;}
	.st15{fill:#1B1D25;}
</style>
<g class="st0">
	<path d="M733.1,457.5h0.5c0.9,0,1.5,0.5,1.6,1.6c0,1-1.3,1.5-4,1.5c-4.2,1.6-7.1,3.9-8.5,7l-0.3,1.5v0.3c0,1.5,1,2.2,2.9,2.2
		l5.5-0.3c3.7,0,6.2,1.8,7.5,5.4l0.3,1.8c0,3.5-2.8,6.6-8.4,9.5c-1.7,0.5-3.1,0.8-4.4,1c-3.4,0-5.8-1.9-7.2-5.8
		c-0.4-1.3-0.6-2.6-0.6-4c0-0.4,0.3-0.8,1-1.2h0.6c1,0,1.6,1.3,1.6,4c0.9,2.6,2.2,3.9,4.1,3.9h1.3c2.7,0,5.4-1.6,8-4.7
		c0.7-1,1.1-2.1,1.1-3.2c0-1.6-1.3-2.8-3.9-3.5h-0.2l-6.5,0.2c-3.6-0.4-5.5-1.9-5.5-4.5l-0.2-0.9c0-3.4,2.6-6.8,7.7-10
		C729.3,458.1,731.3,457.5,733.1,457.5z"/>
	<path d="M745.2,469.1c1.3,0,3.6,2.4,6.8,7l0.1,0.9c0,0.9-2.3,1.6-6.8,2.1l-0.2,0.2v0.2c0.7,3,1.4,4.5,2.2,4.5h0.6
		c1.1,0,2.7-1.2,4.9-3.5h0.3c0.7,0,1.2,0.5,1.6,1.5c0,0.8-1.4,2.2-4.2,4.1c-0.7,0.4-1.6,0.8-2.6,1c-2.7,0-4.6-2.5-5.7-7.6
		c-1.5-0.2-2.3-0.9-2.3-1.9c0-0.7,0.6-1.2,1.7-1.5v0.2l0.5-0.2v-1.2C742,471,743.1,469.1,745.2,469.1z M745.5,472.7h-0.4l-0.2,1.8
		v1.5h0.2c1.9-0.1,2.8-0.3,2.8-0.6C747,474.2,746.2,473.3,745.5,472.7z"/>
	<path d="M761,469.1c1.3,0,3.6,2.4,6.8,7l0.1,0.9c0,0.9-2.3,1.6-6.8,2.1l-0.2,0.2v0.2c0.7,3,1.4,4.5,2.2,4.5h0.6
		c1.1,0,2.7-1.2,4.8-3.5h0.3c0.7,0,1.2,0.5,1.5,1.5c0,0.8-1.4,2.2-4.2,4.1c-0.7,0.4-1.6,0.8-2.7,1c-2.7,0-4.6-2.5-5.7-7.6
		c-1.5-0.2-2.3-0.9-2.3-1.9c0-0.7,0.6-1.2,1.7-1.5v0.2l0.5-0.2v-1.2C757.7,471,758.8,469.1,761,469.1z M761.3,472.7h-0.5l-0.2,1.8
		v1.5h0.2c1.9-0.1,2.8-0.3,2.8-0.6C762.8,474.2,762,473.3,761.3,472.7z"/>
	<path d="M784,459.6c0.6,0,1.1,0.5,1.5,1.6l-2.2,13.9v3.9c0,4.1,0.6,6.1,1.9,6.1c0.8,0.4,1.2,0.9,1.2,1.6c0,0.8-0.7,1.2-2,1.3
		c-1.5,0-2.6-1.3-3.5-4h-0.5c-1.2,2.7-2.7,4-4.5,4c-2.1,0-3.3-1.6-3.8-4.7c0-3.6,2.4-7.5,7.3-11.5c1,0,1.5-1.3,1.5-4
		C781.8,462.3,782.8,459.6,784,459.6z M775.2,483v1.3l0.8,0.8h0.3c1.1,0,2.3-3.2,3.8-9.6h-0.3C776.8,478.5,775.2,481,775.2,483z"/>
</g>
<g class="st0">
	<path d="M1161.8,458.3h0.5c0.9,0,1.5,0.5,1.6,1.6c0,1-1.3,1.5-4,1.5c-4.2,1.6-7.1,3.9-8.5,7l-0.3,1.5v0.3c0,1.5,1,2.2,2.9,2.2
		l5.5-0.3c3.7,0,6.2,1.8,7.5,5.4l0.3,1.8c0,3.5-2.8,6.6-8.4,9.5c-1.7,0.5-3.1,0.8-4.4,1c-3.4,0-5.8-1.9-7.2-5.8
		c-0.4-1.3-0.6-2.6-0.6-4c0-0.4,0.3-0.8,1-1.2h0.6c1,0,1.6,1.3,1.6,4c0.9,2.6,2.2,3.9,4.1,3.9h1.3c2.7,0,5.4-1.6,8-4.7
		c0.7-1,1.1-2.1,1.1-3.2c0-1.6-1.3-2.8-3.9-3.5h-0.2l-6.5,0.2c-3.6-0.4-5.5-1.9-5.5-4.5l-0.2-0.7c0-3.4,2.6-6.8,7.7-10
		C1158,458.9,1160,458.3,1161.8,458.3z"/>
	<path d="M1173.9,470c1.3,0,3.6,2.4,6.8,7l0.1,0.9c0,0.9-2.3,1.6-6.8,2.1l-0.2,0.2v0.2c0.7,3,1.4,4.5,2.2,4.5h0.6
		c1.1,0,2.7-1.2,4.9-3.5h0.3c0.7,0,1.2,0.5,1.5,1.5c0,0.8-1.4,2.2-4.2,4.1c-0.7,0.4-1.6,0.8-2.6,1c-2.7,0-4.6-2.5-5.7-7.6
		c-1.5-0.2-2.3-0.9-2.3-1.9c0-0.7,0.6-1.2,1.7-1.5v0.2l0.5-0.2v-1.2C1170.7,471.9,1171.7,470,1173.9,470z M1174.2,473.6h-0.5
		l-0.2,1.8v1.5h0.2c1.9-0.1,2.8-0.3,2.8-0.6C1175.7,475.1,1174.9,474.1,1174.2,473.6z"/>
	<path d="M1191.8,468.2c2.1,0,3.3,1.5,3.8,4.4v0.5c0,3.2-1.7,6.2-5,8.9c1.9,1.9,5.3,2.9,10.2,2.9c0.7,0.2,1.1,0.8,1.1,1.5
		c0,0.9-0.6,1.3-1.8,1.3c-3.3,0-6.7-0.8-10.3-2.5v1.5c0,3.4-0.7,5.2-2.2,5.2c-1,0-1.5-2-1.5-6V482l-0.2-1.4l0.4-1.6l-0.4-4.8V474
		c0-0.9,0.5-1.5,1.4-1.8C1188.5,469.5,1190,468.2,1191.8,468.2z M1189.3,479.2c1,0,2-1.7,3.2-5.2v-2.1l-0.6-0.7h-0.5
		C1190,472.2,1189.3,474.8,1189.3,479.2z"/>
	<path d="M1204,461.9c1.3,0.3,1.9,0.8,1.9,1.7c-0.3,0.9-0.9,1.4-1.6,1.4c-1.2-0.2-1.9-0.8-1.9-1.8
		C1202.8,462.3,1203.3,461.9,1204,461.9z M1205.9,468.9c0.5,0,1,0.5,1.3,1.5l-0.4,3.5v2.3c0,2.7,0.5,6.3,1.4,10.8
		c-0.3,0.6-0.9,1-1.7,1c-1.4,0-2.3-4-2.7-12v-1.8C1203.8,470.6,1204.5,468.9,1205.9,468.9z"/>
	<path d="M1215.3,470c1.3,0,3.6,2.4,6.8,7l0.1,0.9c0,0.9-2.3,1.6-6.8,2.1l-0.2,0.2v0.2c0.7,3,1.4,4.5,2.2,4.5h0.6
		c1.1,0,2.7-1.2,4.8-3.5h0.3c0.7,0,1.2,0.5,1.5,1.5c0,0.8-1.4,2.2-4.2,4.1c-0.7,0.4-1.6,0.8-2.7,1c-2.7,0-4.6-2.5-5.7-7.6
		c-1.5-0.2-2.3-0.9-2.3-1.9c0-0.7,0.6-1.2,1.7-1.5v0.2l0.5-0.2v-1.2C1212,471.9,1213.1,470,1215.3,470z M1215.6,473.6h-0.5l-0.2,1.8
		v1.5h0.2c1.9-0.1,2.8-0.3,2.8-0.6C1217,475.1,1216.3,474.1,1215.6,473.6z"/>
	<path d="M1236.6,467.7c0.9,0,1.5,1.5,1.8,4.5c-0.3,0.8-0.9,1.2-1.6,1.2c-0.5-0.1-1.1-0.7-1.6-1.8l-0.9-0.3c-1.6,0-3,1-4.2,3.1v0.5
		c0,0.5,2.3,1.3,7,2.5c2,1.2,3,2.6,3,4.2c0,2.7-2.2,5.1-6.6,7l-1.8,0.3c-2.8-0.3-4.2-1.7-4.2-4.2v-0.1c0-0.8,0.5-1.3,1.5-1.4
		c0.8,0,1.3,0.8,1.6,2.5l0.4,0.3h0.9c1.9,0,3.7-1.3,5.3-3.9v-0.7c0-1-2.2-1.9-6.5-2.8c-2.3-0.9-3.5-2.2-3.5-3.9
		c0-2.2,1.8-4.2,5.5-6.1C1234.1,468.4,1235.5,468.1,1236.6,467.7z"/>
	<path d="M1269.5,457.5c1.6,0,2.5,1.2,2.8,3.6v0.1c0,1.2-0.7,3.8-2,7.9l2.3-0.5c2.9,0,4.5,1.8,5,5.5v0.8c0,4.4-2.8,8.4-8.3,12
		c-1.8,0.7-3.1,1-3.9,1c-2.7,0-4.6-1.6-5.6-4.7c0.1-0.4,0.5-0.9,1.2-1.5c0.4-15.1,0.7-22.6,1-22.6c0.6-0.6,1.1-0.9,1.5-0.9
		c0.9,0.3,1.3,0.9,1.3,1.6h0.2C1266.4,458.2,1267.9,457.5,1269.5,457.5z M1266.5,476.7l-0.8,0.3l-1.2-0.1v0.1l-0.2,0.7v5.2l-0.2,1.8
		l1.1,0.3c2.8,0,5.6-2.1,8.4-6.4c0.8-1.9,1.2-3.5,1.2-4.7c0-1.5-0.7-2.3-2.2-2.3h-0.2C1270.8,471.6,1268.8,473.3,1266.5,476.7z
		 M1264.6,473.6h0.2c2.7-5.2,4.2-9.2,4.3-12v-1.2h-0.5c-0.7,0-1.6,1.9-2.8,5.7C1265,469.6,1264.6,472.1,1264.6,473.6z"/>
</g>
<g class="st0">
	<path d="M1648.5,462.7c0.8,0,1.3,0.4,1.5,1.2l-0.3,3v1c0.8,6.9,1.3,12.3,1.5,16.1c0.4,3.6,0.8,5.4,1.2,5.4c0,0.7-0.6,1.1-1.8,1.3
		c-1.7,0-2.5-3.4-2.5-10.1l-1.4-13v-0.5C1646.8,464.1,1647.3,462.7,1648.5,462.7z"/>
	<path d="M1664.2,457.5h0.8c5.4,0,8.9,2,10.5,5.9l0.2,1.6v0.5c0,3.9-2.4,7.4-7.1,10.8c-1.1,0.3-1.7,0.7-1.7,1.1
		c1.3,5.1,2,9.3,2,12.5v0.7c0,1.3-0.6,2-1.7,2c-0.8-0.1-1.2-0.5-1.2-1.2v-1.2c0-3.8-0.7-8-2.1-12.5c-2.7-0.2-4.2-1-4.5-2.2v-0.3
		c0-0.6,0.5-1.1,1.4-1.4l2.2,0.8v-0.1c-1.1-4.9-1.7-8.3-1.7-10c0-1,0.6-1.5,1.7-1.5c1,0,1.5,1.8,1.5,5.3l1.5,6
		c2.4-0.8,4.3-2.4,5.6-4.7c0.7-1.3,1.1-2.5,1.1-3.5v-0.7c0-2.7-2.3-4.3-7-4.6h-2.1c-4.6,0.5-6.8,1.6-6.8,3.2v0.3
		c0,0.5,0.3,1.3,0.8,2.3c0,0.7-0.6,1.2-1.8,1.4c-1.3-0.6-2-1.9-2-3.9C1653.8,460.3,1657.3,458.1,1664.2,457.5z"/>
	<path d="M1684.1,463.3l1.2-0.2h0.5c0.7,0,1.4,0.4,2.2,1.2c1.5,0,3.5,1.8,6.2,5.5c2.3,4.3,3.5,8.2,3.5,11.5c0,4.6-1.7,7.7-5,9.2
		l-3.2,0.7c-5,0-8.6-3.8-10.8-11.2c-0.5-2-0.8-3.9-0.8-5.8v-0.5C1678,468.1,1680,464.7,1684.1,463.3z M1683.6,468.1l-1.1-0.5
		c-1,1.2-1.5,3-1.5,5.4v1.3c0,6.2,2.1,10.7,6.2,13.5l1.4,0.3h1.9c1.7,0,3-1.1,3.8-3.2l0.3-2.2v-1.5c0-5-2-9.5-6-13.5l-2-0.6h-0.1
		C1685.8,467.1,1684.9,467.4,1683.6,468.1z"/>
</g>
<g id="BMc_x5F_01">
	<g>
		<g>
			<g>
				<g class="st1">
					<g class="st1">
						<g>
							<path class="st2" d="M512.4,364.1c-0.3,1.2-0.6,2.7-0.6,4.3c-1.5-0.1-3.3-0.3-4.8-0.6c1,4.2,1.9,8,2.8,12.1
								c0.1,3.1,0,6.3,0,9.1c4.3,3.6,5.7,3.7,9.7,8.5c0.3,2.5,0.6,5.1,0.7,7.6c-2.4-0.3-5.1-0.4-7.6-0.7c-1.3-0.1-2.7-0.3-4-0.4
								c-1-1.6-1.8-3-2.7-4.6c-1.2,2.4-2.7,4.6-4,7l-2.1-0.3c-1.5-1.5-2.7-2.5-4.3-3.6c1.8,6.1-2.8,0.6-2.7,4.3
								c-4.8-1.8-10.1-9.7-9.4-2.7c-1.8-2.7-4.6-4-6.8-4c1.2,10.1-4.9-7.6-3.9,2.5c-2.1-4.6-6.8-5.4-6.7-0.9
								c-7.4-1.9-15.3-1.6-21.7,1c-3.6,1.3-10.7,1.8-15.6-4.2c-0.9,1,0.6,4.2,0.7,6.4c-1-0.7-2.5,0.4-3-2.1
								c-0.9-2.1-1.6-1.8-2.4-1.9c-0.6,0.9,0,2.8,0.3,4.5c-6.8-6.3-10.6-3.6-14.3-0.9s-7.4,5.2-14.1-1.3c1.9,7.3-3,1.3-1.3,8.9
								c-3.3,0.9-6.5,1.6-9.7,2.5c-3.9,2.1-9.7-1-14.3-1.3c-2.7-3.1-3.7-1-3.4,2.4c-3.3-0.3-6.4-0.4-9.7-0.9c-3.3-3.6-4.9-4-6.8,0
								c-2.2-0.4-4.5-1-6.5-1.5c-4.3-2.8-6.4-2.8-4.8,2.1l-1.2-0.3c-1.9-0.1-3.7,0-5.7,0.1c-0.4,0.1-1,0.7-1.6,0.9
								c-1.5-0.7-3.3-1.8-4.8-2.4c-2.2-2.8-2.1,2.4-2.5,3.9c-2.2-0.6-4.3-1-6.5-1.6c-3.3-3.1-3,1.5-4.2,0.4l-11.8-3.1
								c-1.3,2.5-3,2.1-4.8,1.6c-0.4-1-0.7-2.1-1-3.1c-0.7-0.1-1.2-0.3-1.9-0.4c-1.6,2.1-3.3,2.2-4.3,4.8c-0.6-0.1-1.2-0.3-1.9-0.6
								c-0.4-0.7-0.9-1.2-1.5-2.1c-1.2-0.3-2.5-0.7-3.7-1c-1.2,0.3-2.1,0.4-3,0.7c-0.6,0.7-1,1.6-1.6,2.8c-0.6-1.5-1-2.5-1.6-3.7
								c-1.2,0-2.1,0.4-3,0.7c-1.2-0.3-2.1-0.6-3.1-0.9c-0.7,1.3-1.3,2.5-2.1,3.9c-1.8,0.4-3.4-1.9-5.1-7.6
								c-0.9,1.3-1.8,2.7-2.7,3.7c-0.6-0.1-0.9-0.3-1.3-0.4c-1.6,1.8-3.4,3.1-4.9,4.9c-3.3-0.6-5.5,2.8-9.4-1.6
								c-0.4,1.5-1,3-1.3,4.5c-1.2,0-2.1,0.3-3,0.6c-0.7,6.3-6-2.2-7.1,3.9c-1.8-0.6-3.9-1.2-5.7-1.8c-0.3-3.3-0.6-6.4-0.9-9.7
								c0.3-1.5,0.4-3.1,0.7-4.3c1,0.7,2.2,1.6,3.3,2.4c2.2,3.3,1.2-4.2,2.2-3.9c1.6-1,3.3-2.1,5.2-2.8c1.8,0.6,3.3,1,5.1,1.6
								c3.1-2.2,6-4.6,9.1-6.5c1.3,0.4,2.5,0.7,3.9,1.2c1.8-0.1,3.7-0.1,5.5,0c-1-2.8-1.9-5.7-2.8-8.5c0.6-4.3,4.9,0.3,2.5-8.5
								c5.4-0.9,13.7,6.5,14.7-7.7c0.9-8,2.4-7.9,3.9-8c0.7,1.8,1.6,3.7,2.4,5.2c1,3.6,1.9,5.4,2.7,7.1c1.9,2.1,1.3-2.8,1.9-4.2
								c0-3.4,0.1-7,0.3-10.4c5.2,0.1,10.4,0.7,15.8,1.2c3.6,5.1,3.1-1.6,4.3-3.3c0.7,0.1,1.6,0.4,2.5,0.6c1.3,0.7,2.8,1.6,4,2.4
								c4,3.6,2.1-2.7,3.3-1.9c0.3-0.6,0.6-1,1-1.3c5.5,6.4,4-2.1,6.1,0c0.9,1.2,1.9,2.4,3.1,3.9c0.1-1.2,0.4-2.1,0.6-3
								c0.6,0.1,0.9,0.3,1.3,0.3c4.8,3.7,1-5.1,3.7-3.6c0.6,0.4,1.3,1.3,2.1,2.1c0.9-1,1.6-1.8,2.5-2.5c0.6,1,2.5,4.8,3.9,8.5
								c0.3,0,0.4,0.1,0.6,0.1c1-5.7,6.3-6.4,9.5-5.2c1.6-2.4,6.3,0.4,9.5,2.2c0.9-5.5,4.3-3.1,7-1.6l6.4,1.5
								c2.1,0.4,4.3,0.9,6.4,1.3c-0.7-6.4,2.2-2.1,1.9-5.5c0.7-2.1,4.8-1.2,6.8,3c0.4,0.1,0.7,0.1,1.3,0.3c1.2-5.4,2.2-2.4,4.2-6.7
								c5.2,1.3,10.6,3,15.9,4.6c0.9-0.4-0.9-4.2,0.6-3c1.9-2.4,2.7,5.5,5.1,5.7c-0.3-6.8,4.5-0.7,4-6.7c5.7,8.5,7.4-0.6,12.6,3.4
								c6-1.8,12.1-3.9,18-5.8c2.7-0.6,7.1,1.8,11,6.1c0.6,0.1,1.2,0.1,1.9,0.3c1.6,0.6,3.4,1.5,5.1,2.4c-0.4-2.2-0.7-4.2-1-6.1
								c5.5,1,11.5,2.5,16.8,3.6c3-4.9,7.4-0.9,12.5-1.2c0.4-1.5,0.1-4.6,1.3-4.5c0.9,0.1,1.8,0.1,2.7,0.3c3.1-2.4,5.8-2.1,8.9-0.1
								c1.8,0.1,3.6,0.4,5.4,0.6C519.6,365.6,515.3,364.4,512.4,364.1z"/>
						</g>
						<g>
							<path class="st3" d="M498.6,356.4c-1.2-0.1-0.9,3-1.3,4.5c-4.9,0.4-9.4-3.7-12.5,1.2c-5.5-1-11.3-2.4-16.8-3.6
								c0.4,1.9,0.6,3.9,1,6.1c-1.6-0.9-3.6-1.8-5.1-2.4c-0.7-0.1-1.3-0.1-1.9-0.3c-3.9-4.3-8.5-6.5-11-6.1c-6.1,1.9-12.1,4-18,5.8
								c-5.2-4-7,5.1-12.6-3.4c0.4,6-4.3-0.1-4,6.7c-2.4-0.1-3.1-8-5.1-5.7c-1.5-1.2,0.3,2.5-0.6,3c-5.4-1.6-10.7-3.3-15.9-4.6
								c-1.9,4.3-3,1.3-4.2,6.7c-0.6-0.1-0.9-0.1-1.3-0.3c-2.1-4.2-6.1-5.1-6.8-3c0.3,3.6-2.7-0.9-1.9,5.5c-2.1-0.4-4.3-0.9-6.4-1.3
								l-6.4-1.5c-2.7-1.5-6.1-3.9-7,1.6c-3.4-1.6-8-4.6-9.5-2.2c-3.3-1-8.5-0.4-9.5,5.2c-0.3,0-0.4-0.1-0.6-0.1
								c-1.5-3.9-3.4-7.4-3.9-8.5c-0.9,0.7-1.8,1.5-2.5,2.5c-0.7-0.7-1.5-1.6-2.1-2.1c-2.7-1.6,1.2,7.3-3.7,3.6
								c-0.4-0.1-0.7-0.1-1.3-0.3c0.1,1,0.3,1.9,0.6,3.3l-1.2-0.3c-1.2-1.5-2.1-2.7-3.1-3.9c-1.9-2.1-0.6,6.4-6.1,0
								c-0.9-2.8-1.8-5.5-2.7-8.3c0-1.9,0.1-4,0.3-6c4.3,1.8,4-1.2,6.3-1.5c2.1,3.4,3.3,1.8,4.8,2.8c1.3,0.6,2.7,1.6,4,2.5
								c5.8-5.8,10.6-2.7,15.9-5.2c4.2,3.9,4.5,0.4,5.5-3.1c-5.5-5.4-3.9,0.3-6.1-0.1c-0.9-1.5-1.8-3.3-2.7-5.1
								c-4.2,4-10.3,0.6-15-3.7c-1.2,1.6-2.2,3.6-3.3,5.1c-1.2,0.6-2.7,1.2-3.9,2.1c-1.9-3-3.7-6.1-5.7-9.1
								c-5.1-4.5-7.3-5.1-9.4-7.3c-1.3,1.2-2.4,2.5-3.6,3.7c-2.5-1.3-5.1-2.7-7.7-3.7c-0.6-3.6-1.2-7.6-1.8-11.2
								c1,0.3,2.1,0.6,3,0.9c6.1,8.9,5.1,1.6,7.4,2.1c0.6,1.5,1.2,2.5,1.8,3.7c1-0.6,2.1-1.3,3-2.4c3,3,5.7,5.7,8.5,8.6
								c0-8.8,2.4-6.5,3.6-6.5c2.4,6.3,3.3-1,5.4-0.1c0.3-1.8,2.1-1.9,2.7-4c0.9,0.3,1.6,0.4,2.5,0.6c0.1,0,0.4,0.1,0.4,0.1
								c0.3,1.6,0.6,3.3,0.9,4.9c1.5,0.7,3.1,1.8,4.8,2.8c1-2.8,2.1-2.5,3.9-2.2c-0.1-3.1-0.4-6.1-0.6-9.2c0.7,0.1,1.6,0.4,2.4,0.6
								c0.9,1.2,1.6,2.2,2.5,3.7c0.7-2.1,1.6-3.7,2.5-5.4c0.4,0.4,0.9,1.2,1.5,1.6l1.9,0.4c1.2,3.4,2.5,6.8,3.7,10
								c0-7.7,6.3,0.6,7.1-5.8c4.5,4.5,5.2,3.7,6,2.8c0.7,1,1.3,2.2,1.9,3.6c0,1.9,0,3.7,0,6c0.4,1,0.9,2.1,1.3,3.1
								c1.5,0.3,3,0.6,4.5,0.9c-1,3.9-2.2,5.5-4.2,0.6c-0.9,0.4-1.9,0.4-2.8,0.9c-5.2,4.8-14-2.7-16.1,7c3.4,3.3,5.2,5.2,5.2,2.5
								c5.5,1.8,10.9,1,16.7,0.7c5.8-0.1,11.9,0.4,18.8,5.7c0.6-2.1,1.2-3.7,1.8-5.8c6.1,0.3,14.4,5.2,18,0.6c0.1,1.3,0.7,2.4,1.3,3
								c3.1,1.5,1-7.3,2.4-8.2c1.5,1.2,3,2.4,4.6,3.6c3.6,9.1,3.1-2.5,6-0.4c2.5,1.6,5.1,3.1,7.3,4.3c2.7-0.4,8-1.5,6.7-10.7
								c0.3-0.6,0.6-1.2,0.9-1.3c3.7-0.6,7.6-0.9,11.5-1.3c0.9,3.6,1.9,7.4,2.8,11c1.8,2.7,3.4,1.5,5.1,2.4c0.7,0.1,1.2,0.1,1.9,0.3
								c0-1.2,0-2.2-0.1-3.1c2.2,0.3,4.3,0.6,6.5,0.9c0.4-2.1-1.2-6.1-0.1-7.4c0.9,0.1,1.8,0.3,2.7,0.4c1.6,3.3,3.4,6.4,5.2,9.7
								c1.3,2.7,2.5,1.2,3.7,2.1c-0.4-4.5,2.7-3.4,3.1-7c1.3,0.1,2.7,0.3,4,0.6c1.5,2.7,2.5,1.2,3.7,1.6c3.7,5.4,4.6,4,5.8,6.8
								C497.7,355.3,498.1,355.9,498.6,356.4z"/>
						</g>
						<g>
							<path class="st2" d="M484,345.8c-0.4,3.7-3.4,2.7-3.1,7c-1.3-0.7-2.4,0.6-3.7-2.1c-1.6-3.3-3.4-6.4-5.2-9.7
								C476,342.6,480,344,484,345.8z"/>
						</g>
						<g>
							<path class="st2" d="M463,347.3c0.1,0.9,0.1,1.9,0.1,3.1c-0.7-0.1-1.2-0.1-1.9-0.3c-1.6-0.9-3.3,0.4-5.1-2.4
								c-0.9-3.6-1.9-7.4-2.8-11c2.7,1,5.1,1.8,7.6,2.7c2.8,0.4,5.7,0.7,8.5,1.2c-1,1.3,0.7,5.4,0.1,7.4
								C467.3,347.9,465.3,347.6,463,347.3z"/>
						</g>
						<g>
							<path class="st2" d="M433,308.3c1.5,10.4-5.1,1.3-5.2,7.7c-1-1.5-2.1-3.1-3.1-4.9c-0.4-1.9-1-4.2-1.5-6.1
								c0.7-2.1,1.6-3.7,2.2-5.5c2.5,2.2,4.8,4.6,7.3,7.1C432.7,307.1,432.8,307.7,433,308.3z"/>
						</g>
						<g>
							<path class="st2" d="M391.7,284.1c-0.9-1.3-1.6-2.5-2.5-3.6c-0.4-1.6-0.7-3-1-4.6c-0.9-7.3,2.4-2.8,3.7-3.9
								c0.6,3.3,2.2,7.6,1.8,9.4C392.9,282.3,392.3,283,391.7,284.1z"/>
						</g>
						<g>
							<path class="st4" d="M405.7,315.2c-1.5-1.8-2.8-3.7-4.2-5.2c-2.1-1.9-1.8,1.8-3.1,2.1c-0.7,1.3-1.3,2.8-2.1,4.2
								c0.3,1.9,0.4,3.9,0.9,6.1c-1.5-0.9-3-1.8-4.2-2.4c-1-2.7-2.1-5.4-3.1-8c-6.4-5.4-5.8,1.3-7.7,2.7c-0.4-0.1-0.7-0.1-1.3-0.3
								c-1.9-0.7-3.9-1.8-6-2.5c-0.7,0.1-1.5,0.6-2.2,0.7c-1.2,0.3-2.2,0.7-3.4,0.7c-0.4-0.1-0.7-0.1-1.2-0.3
								c-1.3-0.3-2.5-0.6-3.7-0.9c-0.4-0.1-0.9-0.1-1.3-0.3c-1.3,0.3-2.7,0.3-3.9,0.6c-0.6-0.1-0.9-0.1-1.3-0.3
								c-2.1,0.4-4.2,0.9-6.3,1.6c-0.3,0.3-0.6,0.7-0.9,1l-1.9-0.4c-0.4-0.4-0.9-1.2-1.5-1.6c-3.1-3-6.8-5.8-5.1,1.6
								c-0.7-0.1-1.6-0.4-2.4-0.6c-1.2-0.6-2.7-1.6-4-2.5c-0.7,4.8-3.3,4.5-4.8,6.3c-0.1,0-0.4-0.1-0.4-0.1
								c-0.9-0.3-1.6-0.4-2.5-0.6c-1.3-1.6-2.5-3.6-3.9-5.4c-1.2-0.3-2.4-0.6-3.6-0.9c0.1,4.8-2.7,6-3.7-0.9
								c-1.3,3.7-3.3,1.6-4.6,0.3c-0.7,0.1-1.5,0.4-2.1,1c0.3,5.7-2.2,2.8-2.7,5.2c-1.6-0.4-3.1-0.9-4.9-1.3c-1-1.5-2.1-2.8-3-4
								c0.1,5.4-2.7,4.6-3.1,2.2c-1-2.8-1.8-5.5-0.6-3.3c-2.7-0.7-4.5-1.9-3.7,2.1c-1.6,0.4-3.3,0.9-4.9,1.3
								c-1.2-0.7-2.5-1.6-3.9-2.4c0.1,1.3,0.4,3,0.7,4.6c-1.2-0.3-2.4-0.7-3.6-1c-1.9-1.2-3.9-2.1-5.8-3.3c0.3,1.6,0.4,3.3,0.7,4.9
								c-2.1-0.6-4.5-1.3-6.5-1.9c-0.1,5.7-2.5,3-3.6,3.3c-1.5-3.6-2.7-8.8-4.5-3c-1,0.3-2.2,0.3-3.3,0.6c-2.5-0.7-4.9-1.5-7.3-2.2
								c-0.1,4.3-2.8,2.8-3.7,6.4c-1.8-1.5-3.4-3.1-5.2-4.9c-5.2-0.4-7.3,3.6-11.9,5.2c-2.7-2.8-4-1.8-3.9-4.3c0.6-6.1,3-4.3,3-8.2
								c1.3-0.1,2.7-0.3,4-0.3c-0.3-6.5,5.4,2.4,3.6-8c1.3,1.3,2.7,2.8,4,4.5c4.3-1.9,10.9-1.5,15.3-5.8c1.5,1,2.8,1.9,4.3,3
								c0.6-0.4,2.2,1.9,2.1-0.9c1.5-1.5,5.5-1.8,8.3,5.8l1.2,0.3c1.5-4.6,3.1-2.5,3.3-5.1c-1.3-5.2,1.3-3.4,2.2-4
								c1.8-1,1.9,3.1,4.6,7.3c0.6-6.8,3.9-4.5,3.7-9.2c7.7,8,11.6-1,18.8,2.2c0.7,1.8,1.6,3.6,2.8,6.7c0.7-1,1.5-2.4,2.2-3.7
								c0.4-1.5,1-2.8,1.6-3.9c7.6,12.1,3.7-12.8,10.7,1.3c0.6-0.4,2.1,1.8,2.1-1c-1.8-5.8,0.1-4.3,1.6-4c0.4,2.2,0.9,6.5,2.4,6.5
								c2.8,3,2.4-5.4,3.4-6.5c1.8,0.4,3.7,0.9,5.5,1.3c5.1,1.5,10,3.4,15,5.2c0.7-0.1,1.6,0.7,1.6-1.2c-1.9-5.8,0-4.6,1.5-4.3
								c0.1,1.6,0.7,2.4,1.3,3.4c1.9-0.7,1.9-3.6,4.8-1.9c0.9,4.3,2.1,3,3.1,7c2.7-3.1,6.3-3.3,10-3.1c3.7,0.1,7.7,0.7,11-1.3
								c-7-8.9-14.3-10.6-17.4-7c-1.6,1.5-1.9-3.3-3.7-3.6c-3,5.2-10.4-1.8-14.3,0.9c-3.9,1.2-11.2-1.2-13.4,2.5
								c-1.3-1.3-2.8-2.5-4.2-3.9c-1-3.4-2.1-6.7-3-9.8c1.3-0.9,2.7-1.5,4.2-2.1c-0.6-5.8,3.3-1,4.8-1.6l6.1,1.5
								c0.6-2.1,0.6-5.5,1.6-5.8c2.2,1.8,4.5,3.3,6.7,4.8c5.4-2.4,12.8,1.2,18.6,0c4.8,1,7,0,9.1-1c2.8,0.9,5.8,2.2,8.9,3.4
								c0.4,1.6,0.7,3,1,4.6c-0.6,1.3-1.3,2.8-1.9,4.2c1,7.3,3.7,4.2,5.5,5.5c0.1,0,0.4,0.1,0.4,0.1c4.5,4,5.8,4.3,7,4.6
								c1.3,0.6,2.8,1.5,4,2.1c0.9,2.7,1.6,5.2,2.5,7.9c0.7,3.3,1.5,6.5,2.2,9.4C408,314.6,406.9,314.7,405.7,315.2z"/>
						</g>
						<g>
							<path class="st2" d="M344.9,268.7c-1.2,0.3-1.2,3.7-1.6,5.8l-6.1-1.5c-0.3-3.9-0.6-7.3-0.9-10.9c2.1-0.1,4.2,0.1,6.3,0
								C343.2,264.3,344.1,266.7,344.9,268.7z"/>
						</g>
						<g>
							<path class="st5" d="M287.4,415.3c-4,2.4-4.6,11.2-9.4,5.1c-1.2,0-2.4,0.3-3.7,0.6c-2.2,4.8-8.3-0.6-12.6-2.1
								c0.9,15.6-7,4.3-8.6,11.3c-3.3-0.6-6.1-7-9.5-7.7c-1.6,7.4-6.5,4-5.2,15.5c-1.6-0.4-3.1-0.9-4.8-3.1c-1,5.8-4.2,3-6.5,2.8
								c-0.9,1.6-1.8,3.6-2.7,5.2c-6.1-5.2-7.6,3-13.1,0.3c-1.5,3.1-5.4-0.1-4.2,9.7c-4-1.6-5.8,0-8.3,4.9c3,8.5,7,6.3,8,16.7
								c-1.6,12.2-9.8-8.8-9.1,6.4c-1.3-1-3.6,0.1-4-3c-3.7-3.3-6-14.7-10-19c-1.3-1.8-3.9-4-3.6-9.1c0.3-2.8,0.9-6,1.3-8.9
								c1,0,2.1-0.3,3.1-0.1c1.2,1.6,2.2,3.7,3.4,5.8c0.9-2.4,2.8-3.3,2.7-6.8c2.7,2.5,3.3,2.8,4.8-3c0.9-3,1.6-6,2.5-8.5
								c3-0.3,5.8-0.3,8.6-0.3s5.7,0,8.6,0c1-4.2,4.6-2.4,6.3-5.7c0.6,0.4,1.3,1.3,1.9,1.9c1.2-0.6,2.4-1.2,3.6-1.8
								c1.8,0.6,3.9,1.2,5.7,1.8c1-6.1,6.4,2.4,7.1-3.9c1-0.3,1.8-0.7,3-0.6c0.3-1.5,0.9-3,1.3-4.5c3.9,4.5,6.1,0.9,9.4,1.6
								c1.6-1.8,3.4-3.1,4.9-4.9c0.4,0.1,0.7,0.3,1.3,0.4c0.9-1,1.8-2.4,2.7-3.7c1.6,5.7,3.4,8,5.1,7.6c0.7-1.3,1.3-2.5,2.1-3.9
								c1,0.3,1.9,0.6,3.1,0.9c1-0.3,1.8-0.7,3-0.7c0.6,1,1,2.2,1.6,3.7c0.4-1.2,1-1.9,1.6-2.8c1-0.3,1.9-0.4,3-0.7
								c1.2,0.3,2.5,0.7,3.7,1C286.4,414.1,286.8,414.6,287.4,415.3z"/>
						</g>
						<g>
							<path class="st4" d="M225.5,328.9c0,0.3,0.1,1,0.1,1.6c-0.7,0.1-1.5,0.4-2.2,0.4c-1.3-0.4-2.8-1-4.3-1.5l-3-1
								c0.4,6.5-3.4-0.1-4.9,3.1c0.1,1.6,0.3,3,0.4,4.6c0,0.9-0.1,1.9-0.3,3.1c0-0.6-0.1-1.3-0.1-1.6c-1.5-2.1-3-4.3-4.6-6.1l-3-1
								c-1.2,0.9-0.3,5.7-1.3,5.7c-0.4-0.1-1.2-0.4-1.8-0.6c0.3,3,0.6,6.3,0.9,9.7c-0.7,2.2-0.9,5.2-1.9,3.9c-4.8-1.8-0.9,4.8-1,8.9
								c0.4,1.8,0.7,3.1,1,4.9c4.9-0.1,8-4,10.7-5.5c0.7,0.9,1.3,1.8,2.1,2.4c1,0.1,2.4-0.1,3.6-0.3c0.3-1.2,0.4-2.7,0.7-4.3
								c1.9,0.6,3.7,1.2,5.5,1.8c2.2,2.4,4.5,4.6,6.5,6.7c-0.3,2.1-0.7,3.9-1.2,6.1c-1.2-1.3-1.6,0.7-2.8,1.9
								c-4,3.6-8.9-3.7-10.3,4.3c-6-8.5-8.3,9.7-14.7-5.2l-3.1,11.5c0.7,2.2,1.5,4.5,2.2,7c0.3,3,0.4,6.3,0.9,11
								c2.4,2.1,4.8,3.9,7.1,5.7c-1.5,6.3-3.6,3.7-4.3,6.3c-0.6-0.1-0.9-0.3-1.3-0.4c-1.2,2.2-2.7,4.3-3.9,6.4
								c-0.1,0-0.4-0.1-0.6-0.1c-2.1-1.6-3.9-3.3-6-5.4c-0.1,0-0.4-0.1-0.6-0.1c-0.6,7.3-2.7,4.9-4.6,4.9c-1.6-0.3-3.1-0.1-4.9-0.4
								c-0.1,0.6-0.4,1.2-0.6,1.5c0.6,2.8,1,5.7,1.8,8.5c0.7,3.6,2.7,0.9,2.8,6c0.1,1.3,0.1,3,0.3,4.6c-0.1,0.9-0.4,1.8-0.4,3.1
								c-1,0-2.1,0.3-3.1,0.1c-1.9-2.4-1.3-5.7-1.8-8.5c-0.7-3-2.1-1.8-3.3-2.5c-5.2-10.7-5.1-3.1-8.8-4.9
								c-1.6-4.3-3.3-8.6-4.8-12.9c0.6-2.4,1.3-4.8,2.1-7.1c-0.1-3-0.3-6.4-0.4-9.7c1,0.4,2.1,0.7,3.1,1.2l0.6-10.6
								c1.3,0.9,3,2.1,4.5,3.3c0.3-0.6,0.7-1,1.2-1.2c0.4,0.4,0.9,1.3,1.2,2.1c3,2.7,3.1-2.1,3.6-9.7c0.6-4.6,2.8-0.3,3.7-4.8
								c-0.1-2.4-0.3-4.3-0.4-6.4c-0.4-4-0.9-7.7-1.3-11.5c-0.9-0.3-1.6-0.6-2.5-0.9c-0.6-2.2-1.3-4.8-2.1-7c-1-2.7-2.8-3.4-4.2-1.6
								c-0.1,0-0.3-0.1-0.4-0.1c-0.9-5.2-1.8-10.1-2.8-15c-1.2-0.4-0.1-5.2-1.6-8.5c-1.5-0.6-2.8-1.2-4.2-1.6c0.4-2.1,0.9-3.9,1.3-6
								c0.3-1.8,0.6-4,0.7-5.8c-1.3-2.5-2.5-5.2-3.9-7.7c0.7-5.8,2.8-4.3,3.4-8c1.8,1.3,3.6,2.4,5.2,3.7c0.3,3.7,0.4,7.3,0.7,11.3
								l2.8,1.2c1.2-8.6,4.2-6.1,7-5.1c-0.1,2.5-0.3,4.8-0.4,7.6c4.6,3.1,4.8-1.8,8.2,3.1c3.4-1.6,1.6-6.1,3.4-8.2
								c-6.3-8.2-6.4,4-10-3.9c-0.1-4.3-0.3-8.5-0.4-12.8c0.4-0.7,0.9-1.6,1.5-2.4c2.8-2.1,5.7-4,8.5-6.1c2.8-3.7,7.4,0,10.7-3.6
								c0.9-0.6,1.8-1.2,2.5-2.2c4.3,4.5,5.4,1,6.7-0.4l1,0.4c0.3,3,0.6,6.3,1,9.7c-3,3.1-3.3,9.4-5.4,8.6c-0.7-0.3-1.6-0.6-2.4-0.9
								c-0.4,0.7-0.9,1.6-1.3,2.7c-1-1-2.1-2.1-3.1-2.7c-2.4-2.2-1.5,6.3-2.8,6.7c-1.8-1.3-3.6-2.4-5.4-3.6c-2.1-1-0.1,5.8-1,8.9
								c1,0.3,1.9,0.7,3,1c2.2,3.4,2.1-3.7,3.7-3.1c1,1.6,2.2,3.7,3.4,5.8c3.1,4.8,0.9-6.1,3-5.1c5.5,8.2,3.9-0.9,6.3,0.7
								c3.4,6.4,3.1,0.4,4.8,3.3c0.1,1,0.6,2.1,0.9,3.3c1.2,1.6,2.2,3,3.3,4.3c1.6,0.6,3.1,1,4.8,1.6
								C225.1,323.5,225.2,326.2,225.5,328.9z"/>
						</g>
						<g>
							<path class="st2" d="M182.2,375.3c-0.9,4.5-3.3,0.1-3.7,4.8c-1.8-2.2-3.6-4.6-5.2-6.5c0.3-2.8,0.6-5.1,0.7-7.6
								c0.4-1.8,2.4-1.3,1.3-6c0.9-0.9,1.8-2.2,2.7-3.6c0.9,0.3,1.6,0.6,2.5,0.9c0.4,3.7,0.9,7.4,1.3,11.5
								C181.9,371,181.9,372.9,182.2,375.3z"/>
						</g>
						<g>
							<path class="st6" d="M174.8,389.7c-0.4-0.7-0.9-1.6-1.2-2.1c-0.4,0.1-0.9,0.6-1.2,1.2c-1.5-1.2-3-2.4-4.5-3.3l-0.6,10.6
								c-1-0.4-2.1-0.7-3.1-1.2c0.1,3.4,0.3,6.7,0.4,9.7c-0.7,2.4-1.3,4.8-2.1,7.1c-2.8-6-4.6-11.2-5.2-19.3c-3-4.8-3.1-4.8-4-7.7
								c-0.1-2.7-0.3-5.4-0.4-9.7c-0.3-2.7-0.6-5.5-1-8.2c-0.6-2.8-1.3-5.8-2.1-8.6c0.6-1.8,1.3-3.7,2.1-5.4
								c-0.9-3.3-1.9-7-2.8-10.6c0.3-1.9,0.6-4,0.9-5.8c1.3-2.4,2.7-5.1,4.2-7.7c1.5-2.1,2.7-4.2,4.2-6.1c-0.1-1-0.4-2.1-0.6-3.1
								c0.1-3.1,0.3-6.1,0.6-9.2l2.4-6.8c1.3,2.5,2.5,5.2,3.9,7.7c-0.3,1.8-0.4,4-0.7,5.8c-0.3,2.1-0.9,3.9-1.3,6
								c1.3,0.6,2.7,1,4.2,1.6c1.3,3.1,0.4,7.9,1.6,8.5c0.9,4.9,1.8,9.8,2.8,15c-1.6,2.2-3.3,4.9-4.9,7.6c-1.2-1.8-2.5-3.3-3.7-4.8
								c-0.4,3.4-0.7,7-1.2,10.6c0.9,3.9,1.6,7.9,2.5,11.8c0.9-1.3,1.8-2.2,2.8-3.6c2.1,1.2,4.5,2.7,6.7,4.2
								c1.8,1.9,3.4,4.2,5.2,6.5C177.9,387.6,177.6,392.6,174.8,389.7z"/>
						</g>
						<g>
							<path class="st2" d="M166.1,363.1l-4.9-1.9c-0.1-0.7-0.4-1.5-0.7-1.9c0.7-3,1.3-5.7,1.9-8.6c1.2,1.5,2.5,3,3.7,4.8
								C166.3,357.9,166.1,360.1,166.1,363.1z"/>
						</g>
						<g>
							<path class="st5" d="M516.5,378c-0.4,3.4-3,1.2-6.5,2.1c-0.9-4.2-1.8-7.9-2.8-12.1c1.5,0.1,3.3,0.3,4.8,0.6
								c0.7,1,1.3,2.1,2.2,3.4C515.6,374.7,516,376.3,516.5,378z"/>
						</g>
						<g>
							<path class="st5" d="M491.7,348.1c-0.3-4,1.9-2.2,3.1-2.4c0.9,2.8,1.8,6.1,2.7,9.2C496.2,352.1,495.3,353.4,491.7,348.1z"/>
						</g>
						<g>
							<path class="st5" d="M508.9,403.9c-2.7,0.6-3.6,6.7-6.7,2.4c1.3-2.4,2.7-4.6,4-7C507.1,400.9,507.8,402.1,508.9,403.9z"/>
						</g>
						<g>
							<path class="st5" d="M500.1,410.3c-0.9,0.9-1.8,1.6-2.5,2.8c-1.2-1.3-2.5-2.5-3.6-3.6c-4.8,0-9.8-0.3-14.6-0.3
								c-2.7,5.2-10.9,0.4-16.1,0.9c-2.4,5.7-11.2-1-15,2.1c-3.7,1-7.7,1.5-11.9,1.8c-4.2,0.1-8.5,0.1-12.6,0.1
								c-4.3,0-8.5,0-12.8,0.1c-4.2,0.1-8.2,0.4-12.1,1.3c0.6,3-1.5,0.9-3.9-3.6c-1.6-7.6,3.3-1.6,1.3-8.9
								c6.7,6.5,10.4,3.9,14.1,1.3c3.7-2.7,7.4-5.4,14.3,0.9c-0.3-1.6-0.9-3.6-0.3-4.5c0.7,0.1,1.5,0,2.4,1.9c0.4,2.5,2.1,1.3,3,2.1
								c-0.3-2.2-1.8-5.4-0.7-6.4c4.9,6,12.1,5.4,15.6,4.2c6.3-2.7,14.3-3,21.7-1c-0.1-4.5,4.8-3.7,6.7,0.9c-1-10.1,5.1,7.6,3.9-2.5
								c2.4,0,5.1,1.3,6.8,4c-0.7-7,4.6,0.9,9.4,2.7c-0.1-3.7,4.5,1.8,2.7-4.3c1.5,1.2,2.8,2.2,4.3,3.6
								C500.1,407.4,500.1,408.8,500.1,410.3z"/>
						</g>
						<g>
							<path class="st5" d="M474.6,386.2c0.3-4.3,1.2-4.2,2.1-4C481.9,390.3,476,388.5,474.6,386.2z"/>
						</g>
						<g>
							<path class="st5" d="M470.2,383.9c-2.5,10.3-8.6,2.5-13.5,2.7C460.8,383.2,464.2,380.6,470.2,383.9z"/>
						</g>
						<g>
							<path class="st5" d="M438.3,307.7c0.4,6-3.6,5.2-5.4,0.6c-0.1-0.6-0.3-1.3-0.4-1.6c-2.4-2.5-4.8-4.8-7.3-7.1
								c0.1-2.1,0.1-4,0.3-6.1c2.5-1,3.7,4.6,6.7,10.1c0.4-0.3,0.7-0.7,0.9-1.3c1,0.1,2.1,0.3,3.1,0.6c0.3,0.7,0.7,1.3,1,1.8
								C437.7,305.5,438,306.4,438.3,307.7z"/>
						</g>
						<g>
							<path class="st5" d="M441,339.4l-5.7-5.7c0.6-3,3.9-4.3,6.5,4.2C441.6,338.2,441.3,338.8,441,339.4z"/>
						</g>
						<g>
							<path class="st5" d="M432.7,338.1c-3.3-1.8-4.6,1-7.1,1.5c-4.3-1-8-3.3-10.6-3.4c-1-0.1-2.1-0.4-3.3-0.6
								c-1.3-3.7-3-2.1-4-6.7c-0.7-4.5-1.3-9.2-2.1-13.7c1.2-0.4,2.2-0.4,3.4-0.9c2.1,0.4,4.2,0.7,6.4,1.2c0.6-1.5,0-6.3,2.1-4
								c2.4-0.1,4.8-0.4,7.1-0.3c1,1.8,2.1,3.4,3.1,4.9c-1.6,4.6-4,5.5-3.9,11.3c2.8,5.2,1.6-2.5,3.4-0.9c1.5,2.4,4.2,3.3,6.7,7
								C433.6,335.1,433,336.6,432.7,338.1z"/>
						</g>
						<g>
							<path class="st5" d="M441.9,388.7c-1.2-4.9-0.7-7.3,1.8-5.7C446.1,389.7,445,393,441.9,388.7z"/>
						</g>
						<g>
							<path class="st5" d="M406.8,294.6l-2.4,2.4c-1.2-0.6-2.7-1.5-4-2.1c-1.2-0.3-2.5-0.4-7-4.6c-0.4-1.9-1-4.2-1.5-6.3
								c0.6-1,1.2-1.9,1.8-2.7c1.2,0.9,2.2,1.3,3.4,2.2c0.7-0.7,1.5-1.6,2.4-2.7c2.8,9.2,3.7,7.9,5.1,8.3c0.6,0.7,1,1.5,1.5,1.8
								C406.2,292.2,406.5,293.3,406.8,294.6z"/>
						</g>
						<g>
							<path class="st5" d="M370.2,273.5c-5.8,1.2-13.2-2.5-18.6,0c-2.2-1.5-4.5-3-6.7-4.8c-0.7-2.1-1.6-4.5-2.4-6.5
								c2.5-7,10.6,1.6,13.4-4.2c4.3,4.5,8.3,3,13.2,10.6c1.5-0.6,3.3-1.2,4.8-1.6c0-1.8,3.3-3,5.4,5.5
								C377.2,273.5,375.1,274.7,370.2,273.5z"/>
						</g>
						<g>
							<path class="st5" d="M370.9,412.9c-1,3.9-2.7,5.1-3.4,2.4C367,411.9,368.2,410,370.9,412.9z"/>
						</g>
						<g>
							<path class="st5" d="M337.1,273.1c-1.6,0.6-5.5-4.2-4.8,1.6c-1.5,0.6-2.7,1.2-4.2,2.1c-1.3-0.3-2.8-0.7-4.3-1.2
								c-0.1-0.6-0.3-1.3-0.3-1.6c-1.5-2.8-3-5.8-4.5-8.6c-1.6-0.4-2.1,2.5-3.3,3.4c-0.4-0.1-0.9-0.3-1.2-0.3
								c-1.6-0.4-3.3-0.9-4.8-1.3c-0.3,2.4-1.2,2.1-2.1,4.2c-0.4-0.1-0.9-0.3-1.2-0.3c-0.4,1.8-0.9,3.9-1.3,5.5
								c-1.9-0.6-4-1.2-6-1.8c-3.4-1.6-8.9-8.2-12.2-5.1c-4-0.3-7.9-0.6-11.9-0.4c-2.1,1.9-4.8,1.9-7.7,0.4
								c-3.7-7.7-4.5,0.1-7.3,0.9c0,1-0.1,1.9,0,3.1c-0.3-0.1-0.4-0.1-0.6-0.1c-0.9-0.9-1.8-1.8-2.5-2.4l-4.3,1.5
								c-2.4,0.4-4.8,0.6-7.1,0.7c-0.3-1-0.7-2.1-1-3.6c0.1-3.4,0.3-6.8,0.3-10.4c3.4,1.5,5.2-12.2,10.1,4.9
								c-1-12.6,2.4-6.7,3.7-5.1c1-1.5,2.2-3.4,3.3-4.9c2.4-1.5,1.9,4.2,4.6,9.1c0.1-4,0.3-7.7,0.4-11.8c5.2,3.3,9.1-0.6,13.7,2.8
								c-0.9-4.6,1.6-4.5,3.4-3.4c3.9,1.2,7.7,2.4,11.8,3.6c0.6,1.5,0.9,1.5,1,0.3c-2.1-7.7,2.8-4.2,2.2-10
								c1.5,0.4,2.8,5.8,4.6,10.4c0.9-1.9,1.9-3.6,3-5.1c1.6,3.6,3.4,0.6,5.2,4.3c3.3-3.4,5.1,7.3,6,1.6c-0.1-1-0.3-1.9-0.6-3
								c4.3,7.1,6.3-4.5,10.4,7.1c0.6-0.4,2.2,1.8,2.1-1c1.5,0,2.8-4.9,6.3,3.3C336.5,265.8,336.8,269.2,337.1,273.1z"/>
						</g>
						<g>
							<path class="st6" d="M351.6,343.9c-0.9,3.6-1.2,7-5.5,3.1c-5.4,2.4-10-0.6-15.9,5.2c-1.5-1-2.7-1.9-4-2.5
								c-1.3-0.3-2.5-0.6-3.7-1c-0.3-0.7-0.6-1-0.9-1.8c-2.2,0.3-1.9,3.3-6.3,1.5c-0.1,1.8-0.1,4-0.3,6c0.9,2.7,1.6,5.5,2.7,8.3
								c-0.4,0.1-0.7,0.7-1,1.3c-1-1.5-2.1-2.8-3-4c-0.6-0.1-0.9-0.3-1.3-0.3c-0.6-1-1-2.2-1.6-3.3c-0.6-0.1-0.9-0.3-1.3-0.3
								c0,2.5,0,4.8,0,7.6c-0.7-0.1-1.6-0.4-2.5-0.6c-0.6-1.8-1.3-3.6-1.9-5.2c-1.3,3.7-3.1,4.5-2.4,8.5c-5.4-0.6-10.6-1-15.8-1.2
								c-1.9-1.2-4-2.4-5.8-3.3c-1.9-0.9-0.3,4.6-1.6,5.5c-1.5,0.1-3,0-3.9,8c-1.9-1.8-3.6-3.3-5.4-4.8c-4.2-16.5-3.9,4-8.9-4.3
								c-0.3,5.1-2.5,1.8-4.2,0.3c-2.4-0.7-4.9-1.5-7.4-2.4c-1-0.3-2.1-0.6-3.1-1c-2.5,5.4-7-1.2-6.3,7.3c-3-1.6-5.7-2.8-8.6-7.3
								c-0.3,0.1-0.6,0.7-1,0.9c0.7,3.7,1.5,7.9,2.4,11.6c2.4,4.6,0.7,5.7,1,9.7c0.4,1.8,0.7,3.1,1.2,4.9c0.4,0.7,0.9,1.2,1.5,2.1
								c2.1,1,4.3,2.4,6.4,3.7c3.1,3.3,1.9-4.5,4.5-3.4c1.5,1.8,3.7,1.2,4.3,6.1c-3.1,1.9-6,4.3-9.1,6.5c-1.6-0.6-3.3-1-5.1-1.6
								c-1.8,0.7-3.6,1.8-5.2,2.8c-1-0.3,0,7.1-2.2,3.9c-1-0.6-2.2-1.6-3.3-2.4c-0.3,1.2-0.4,2.7-0.7,4.3c-1.2-1.3-2.2-2.7-3.4-4.3
								c-0.6-0.1-1.3-0.4-1.9-0.6c0,1.3-0.1,2.2-0.3,3.1c0.1,1,0.1,1.9,0.3,3.3c-2.8-2.5-5.4-5.1-8-7.6c-2.1,0-4-0.4-6.1-0.4
								c-2.4-1.8-4.8-3.6-7.1-5.7c-0.1-0.4-0.4-1.2-0.7-1.6c0.1-9.4-1.9-12.4-2.4-16.4l3.1-11.5c6.4,14.9,8.8-3.4,14.7,5.2
								c1.3-7.9,6.3-0.7,10.3-4.3c1.2-1.2,1.5-3.4,2.8-1.9c0.4-2.1,0.9-3.9,1.2-6.1c-2.2-2.1-4.3-4.3-6.5-6.7
								c-1.8-0.6-3.6-1.2-5.5-1.8c-0.1,1.5-0.4,3.1-0.7,4.3c-1.2,0.1-2.4,0.4-3.6,0.3c-0.6-0.6-1.3-1.5-2.1-2.4
								c-2.7,1.6-5.8,5.4-10.7,5.5c-0.3-1.6-0.6-3.1-1-4.9c0.1-4.2-3.7-10.7,1-8.9c1,1.3,1.2-1.5,1.9-3.9c-0.3-3.3-0.6-6.7-0.9-9.7
								c0.6,0.1,1.2,0.4,1.8,0.6c0.9,0,0.1-4.8,1.3-5.7l3,1c1.8,1.6,3.3,3.1,5.1,4.8c-0.1-1.6-0.3-3-0.4-4.6
								c1.5-3.3,5.2,3.4,4.9-3.1l3,1c0.3,2.4,0.4,4.3,0.6,6.7c2.4,0.1,2.8-3.3,3.6-5.2c0.7,0,1.5-0.4,2.2-0.4c0-0.7-0.1-1.3-0.1-1.6
								c-0.3-2.7-0.6-5.4-1-9.7c-0.1-1.6-0.3-3.3-0.4-4.6c0.3,0.1,0.7,0.3,1.2,0.4c-0.1,2.5,1.2,1.3,3.9,4.3
								c4.6-1.6,6.7-5.7,11.9-5.2c1.8,1.8,3.6,3.4,5.2,4.9c0.9-3.6,3.6-1.9,3.7-6.4c2.4,0.7,4.8,1.5,7.3,2.2c1-0.3,2.2-0.3,3.3-0.6
								c0.3-4.6,3.4-5.5,4-0.3c0.1,1.3,0.3,2.4,0.4,3.3c1.2-0.3,3.4,2.4,3.6-3.3c2.1,0.6,4.5,1.3,6.5,1.9c-0.3-1.6-0.4-3.3-0.7-4.9
								c1.9,1.2,3.7,2.1,5.8,3.3c1.2,0.3,2.4,0.7,3.6,1c-0.3-1.6-0.4-3.3-0.7-4.6c1.3,0.7,2.7,1.8,3.9,2.4c1.8-0.4,3.4-0.9,4.9-1.3
								c-0.7-4,1.2-2.8,3.7-2.1c-1.3-2.2-0.6,0.4,0.6,3.3c0.4,2.4,3.3,3.1,3.1-2.2c0.9,1.2,1.9,2.4,3,4c1.6,0.4,3.1,0.9,4.9,1.3
								c0.4-2.4,2.8,0.4,2.7-5.2c0.6-0.4,1.5-0.9,2.1-1c1.5,1.3,3.4,3.4,4.6-0.3c0.9,6.8,3.9,5.7,3.7,0.9c1.2,0.3,2.4,0.6,3.6,0.9
								c1.3,1.9,2.7,3.9,3.9,5.4c-0.6,2.1-2.4,2.2-2.7,4c-2.1-0.9-3,6.4-5.4,0.1c-1,0-3.6-2.2-3.6,6.5c-2.8-3-5.7-5.7-8.5-8.6
								c-0.9,1-2.1,1.6-3,2.4c-0.6-1.2-1.2-2.2-1.8-3.7l-2.2,4.2c-1.6-1.6-3.7,1.5-5.1-6.1c-1-0.3-2.1-0.6-3-0.9
								c0.6,3.6,1.2,7.6,1.8,11.2c2.7,1,5.2,2.4,7.7,3.7c1.2-1.2,2.2-2.5,3.6-3.7c2.2,2.2,4.3,2.8,9.4,7.3c1.9,3,3.7,6.1,5.7,9.1
								c1.2-0.9,2.5-1.5,3.9-2.1c1-1.6,2.1-3.6,3.3-5.1c4.8,4.3,10.9,7.7,15,3.7c0.9,1.8,1.8,3.6,2.7,5.1
								C347.7,344.3,346.1,338.5,351.6,343.9z"/>
						</g>
						<g>
							<path class="st5" d="M357.8,414.6c-1.2,3.6-5.1,2.7-6.8,0C352.9,410.6,354.5,411,357.8,414.6z"/>
						</g>
						<g>
							<path class="st5" d="M344.4,413.1c-1.5,3.9-3.7,4.8-4.8,2.1C338.2,410.3,340.3,410.3,344.4,413.1z"/>
						</g>
						<g>
							<path class="st5" d="M338.5,414.9c-0.6,8-3,3.4-5.7,0.1C334.7,414.9,336.5,414.7,338.5,414.9z"/>
						</g>
						<g>
							<path class="st5" d="M331,415.9c-2.4,3.6-5.4,4.8-7.3,1.3c0.4-1.5,0.3-6.5,2.5-3.9C327.7,414.1,329.5,415.2,331,415.9z"/>
						</g>
						<g>
							<path class="st5" d="M317.2,415.6c-1.3,3.1-4,6-4.2,0.4C314.2,417.1,313.9,412.5,317.2,415.6z"/>
						</g>
						<g>
							<path class="st5" d="M296.5,414.7c-2.8,4.3-6.3,7.1-7.3,1.2c1-2.5,2.7-2.7,4.3-4.8c0.6,0.1,1.2,0.3,1.9,0.4
								C295.9,412.6,296.2,413.5,296.5,414.7z"/>
						</g>
						<g>
							<path class="st5" d="M238.5,273.6c-2.2,4.3-2.8-6.7-4-1.3c-3.3-0.1-6.8,2.4-10.1,4.2c-1-0.4-1.9-0.7-2.8-1
								c-1.3-2.1-2.8-4.2-4-6.3c-1.9-0.4-3,5.7-3.4,9.5c-0.7-0.3-1.5-0.6-2.2-0.9l-1-0.4c-1.3,1.5-2.2,4.9-6.7,0.4
								c-0.9,1-1.6,1.6-2.5,2.2c-3.4,3.6-8-0.1-10.7,3.6c-2.8,2.1-5.5,4-8.5,6.1c-1.5-4.8-3-9.5-4.5-14.3c2.4-2.8,4.5-6.8,7.1-7.7
								c4.2-1,6.4-4.9,11.2-3.4c-0.7-8.3,5.4,6.5,4-4.5c1.3,1.2,3.4,4.2,4.5,1.6c-1.8-7,1.5-7.1,3-3.7c0,1.6,0.4,2.4,0.9,3.6
								c0.6-0.1,1.3,0.9,1.5-1c-1.5-6,0.9-4.5,0.9-7.3c1.5,1.5,2.4-0.7,2.4-3.6c2.8-2.7,9.5,11.8,8.5-1.6c2.2-0.7,7.1,6.4,6.3-2.2
								c-2.2-7.7,1.9-3.4-0.1-10.9c7.4-3,8.3,17,14.3,31C240.8,268.1,239.6,270.8,238.5,273.6z"/>
						</g>
						<g>
							<path class="st5" d="M175.2,360c1,4.6-0.9,4.3-1.3,6c-0.1,2.5-0.4,4.8-0.7,7.6c-2.2-1.5-4.5-3-6.7-4.2
								c-0.1-2.4-0.3-4.3-0.3-6.4c0-3,0-5.2,0-7.7c1.6-2.5,3.3-5.2,4.9-7.6c0.1,0,0.3,0.1,0.4,0.1c1.3-1.8,3.1-1,4.2,1.6
								c0.7,2.2,1.5,4.8,2.1,7C177,357.7,176.1,359.1,175.2,360z"/>
						</g>
						<g>
							<path class="st5" d="M164.2,294.9c-0.6,3.7-2.7,2.1-3.4,8l-2.4,6.8c-0.9-1.9-1.8-4-2.5-5.7c-0.1-3-0.3-5.4-0.4-8
								c3.1,0.3,4.6-11,8-4.5C163.6,292.8,163.9,293.9,164.2,294.9z"/>
						</g>
						<g>
							<path class="st3" d="M424.6,311.1c-2.4-0.1-4.8,0-7.1,0.3c-1.2-4.9-2.4-9.4-3.4-14l1.2,0.3c2.5,2.4,5.4,4.8,7.9,7.3
								C423.6,307,424.2,309.4,424.6,311.1z"/>
						</g>
						<g>
							<path class="st6" d="M441,339.4c1.3,9.2-3.9,10.3-6.7,10.7c-2.2-1.3-4.8-2.7-7.3-4.3l-3.3,4.2c-1.9-0.6-4.8-3.6-7.3-7.1
								c-1.5,1,0.6,9.8-2.4,8.2c-0.6-0.7-1.2-1.8-1.3-3c-3.6,4.6-11.9-0.4-18-0.6c-0.6,2.1-1.2,3.9-1.8,5.8
								c-7-5.2-13.1-5.8-18.8-5.7c-5.8,0.1-11.2,1-16.7-0.7c-0.1,2.8-1.9,0.9-5.2-2.5c2.1-9.5,10.9-2.2,16.1-7
								c0.9-0.7,1.6-1.5,2.5-2.5c-0.3-1-0.7-2.1-1.3-3.1c0-2.2,0-4,0-6c-0.6-1.3-1.2-2.5-1.9-3.6c-0.7,0.7-1.5,1.6-6-2.8
								c-0.9,6.4-7.1-1.9-7.1,5.8c-1.2-3.1-2.5-6.5-3.7-10c0.3-0.3,0.6-0.7,0.9-1c2.1-0.7,4-1.2,6.3-1.6c0.4,0.1,0.7,0.1,1.3,0.3
								c1.3-0.3,2.7-0.3,3.9-0.6c0.4,0.1,0.7,0.1,1.3,0.3c1.2,0.3,2.5,0.6,3.7,0.9c0.4,0.1,0.7,0.1,1.2,0.3c1.2,0,2.2-0.4,3.4-0.7
								c0.7-0.1,1.5-0.6,2.2-0.7c2.1,0.7,4,1.8,6,2.5c0.6,0.1,0.9,0.1,1.3,0.3c1.9-1.5,1.3-8.2,7.7-2.7c1,2.7,1.9,5.4,3.1,8
								c1.2,0.6,2.7,1.5,4.2,2.4c-0.4-2.2-0.6-4.2-0.9-6.1c0.7-1.5,1.3-2.8,2.1-4.2c1.3-0.3,1-4.2,3.1-2.1c1.3,1.5,2.8,3.3,4.2,5.2
								c0.7,4.5,1.3,9.2,2.1,13.7c0.9,4.5,2.7,3,4,6.7c1,0.1,2.1,0.4,3.3,0.6c2.5,0.1,6.3,2.4,10.6,3.4c2.4-0.4,3.7-3.4,7.1-1.5
								c0.4-1.5,0.9-3,1.3-4.5c0.6,0.1,0.9,0.1,1.3,0.3L441,339.4z"/>
						</g>
						<g>
							<path class="st7" d="M336.1,293.6c-1.8-0.4-3.7-0.9-5.5-1.3c-0.9,1.3-0.4,9.5-3.4,6.5c-1.5,0-1.9-4.3-2.4-6.5
								c-1.3-0.3-3.3-1.8-1.6,4c0,2.8-1.5,0.6-2.1,1c-7-14.1-3.1,10.7-10.7-1.3c-0.6,1-1.2,2.5-1.6,3.9c-0.7,1.3-1.5,2.7-2.2,3.7
								c-1.2-3.1-2.1-4.9-2.8-6.7c-7.1-3.3-11,5.7-18.8-2.2c0.1,4.8-3.1,2.5-3.7,9.2c-2.7-4.3-2.8-8.5-4.6-7.3c-1,0.6-3.6-1-2.2,4
								c-0.3,2.4-1.8,0.4-3.3,5.1l-1.2-0.3c-2.8-7.6-6.8-7.3-8.3-5.8c0,2.8-1.5,0.4-2.1,0.9c-1.5-1-2.8-1.9-4.3-3
								c-4.5,4.3-10.9,3.7-15.3,5.8c-1.3-1.6-2.7-3.1-4-4.5c1.8,10.4-3.9,1.6-3.6,8c-1.3-0.1-2.7,0-4,0.3c0,3.9-2.4,2.1-3,8.2
								c-0.4-0.1-0.9-0.3-1.2-0.4c0.1,1.3,0.3,3,0.4,4.6c-2.7-1.9-5.4-3.9-8-6c-0.3-1-0.7-2.2-0.9-3.3c-1.6-2.8-1.3,3-4.8-3.3
								c-2.4-1.5-0.9,7.4-6.3-0.7c-2.1-1,0.1,9.7-3,5.1c-1.2-2.1-2.2-4-3.4-5.8c-1.6-0.6-1.5,6.5-3.7,3.1c-1-0.3-1.9-0.7-3-1
								c0.9-3.3-1-10.1,1-8.9c1.8,1.3,3.6,2.4,5.4,3.6c1.3-0.4,0.4-8.8,2.8-6.7c1,0.7,2.1,1.8,3.1,2.7c0.4-1,0.9-1.9,1.3-2.7
								c0.7,0.3,1.6,0.6,2.4,0.9c2.1,0.7,2.4-5.5,5.4-8.6c-0.3-3.3-0.7-6.7-1-9.7c0.7,0.3,1.6,0.6,2.2,0.9c0.4-4,1.5-10,3.4-9.5
								c1.2,2.1,2.7,4.2,4,6.3c0.9,0.3,1.8,0.6,2.8,1c3.3-1.8,6.8-4.3,10.1-4.2c1.2-5.4,1.8,5.7,4,1.3c1.3,1.8,2.8,3.9,4.2,5.8
								c1.9,1.9,1.8-5.1,3.3-4.9c2.2,4.2,4.5,8.5,6.7,12.6c0.6-2.7,1.2-5.5,1.6-8.3c1.5,1.8,3.1,3.9,4.8,6
								c-0.9-5.4,1.3-6.8,0.6-11.8c0.1,0,0.3,0.1,0.6,0.1c1.3,1.6,2.7,3.7,4,5.8c1-3.1,1.6-8.3,3.1-9.7c3,1.6,5.7,1.5,7.7-0.4
								c4,0,7.9,0.3,11.9,0.4c3.3-3.1,8.8,3.6,12.2,5.1c1.9,0.6,4,1.2,6,1.8c1.8,3,3.7,6.1,5.5,9.1c2.2,2.5,1.9-2.7,2.2-3.7
								c1.3,0.6,2.7,1.6,3.9,2.2c1.2-1.5-2.4-9.7,0.1-8.6c0.4,0.4,0.9,1.2,1.3,1.6c1.8-0.4,3.6-0.9,5.5-1.3c1.3,0.3,2.8,0.7,4.3,1.2
								c0.9,3.1,1.9,6.4,3,9.8c1.5,1.3,2.8,2.7,4.2,3.9c2.2-3.9,9.5-1.3,13.4-2.5c3.9-2.7,11.3,4.3,14.3-0.9
								c1.8,0.4,2.1,5.1,3.7,3.6c3.1-3.6,10.4-1.9,17.4,7c-3.3,1.9-7.3,1.5-11,1.3c-3.7-0.1-7.3,0-10,3.1c-1-4-2.2-2.7-3.1-7
								c-2.8-1.6-3,1.2-4.8,1.9c-0.6-1-1.2-1.8-1.3-3.4c-1.3-0.3-3.3-1.5-1.5,4.3c0,1.9-0.9,1-1.6,1.2
								C346.1,297,341,295.1,336.1,293.6z"/>
						</g>
						<g>
							<path class="st3" d="M384.9,330.2c-1.9,0.1-3.9,0.4-6,0.3c0.7,2.1,1.6,4.5,2.7,6.5c-1.3-0.3-2.5-0.6-3.9-0.7c0-1.9-0.1-4,0-6
								c-1.5-1.3-3-2.5-4.5-3.7c-0.4-2.2-0.9-4.3-1.3-6.5l1.2,0.3c1.6,1.6,3.1,2.8,4.5,4c2.4,1.5,4.6,2.8,7,4.6
								C384.7,329.2,384.9,329.9,384.9,330.2z"/>
						</g>
						<g>
							<path class="st3" d="M323.9,275.4c-1.8,0.4-3.6,0.9-5.5,1.3c-0.4-0.4-0.9-1.2-1.3-1.6c-0.4-2.2-0.7-4.3-1.2-6.5
								c1.2-0.9,1.6-3.9,3.3-3.4c1.5,2.8,3,5.8,4.5,8.6C323.7,274.1,323.9,274.8,323.9,275.4z"/>
						</g>
						<g>
							<path class="st3" d="M306.6,362.8c-1.2,1.6-0.7,8.3-4.3,3.3c-0.7-4,1-4.8,2.4-8.5C305.4,359.4,306,361.2,306.6,362.8z"/>
						</g>
						<g>
							<path class="st3" d="M286.2,375.3c-0.6,1.5,0,6.4-1.9,4.2c-0.7-1.8-1.6-3.6-2.7-7.1c-0.9-1.5-1.6-3.4-2.4-5.2
								c1.2-0.9-0.3-6.4,1.6-5.5s3.9,2.1,5.8,3.3C286.4,368.3,286.2,371.7,286.2,375.3z"/>
						</g>
						<g>
							<path class="st3" d="M267.6,269.3c-1.5,1.3-2.1,6.7-3.1,9.7c-1.3-1.9-2.8-4-4-5.8c0-1.3,0-2.2,0-3.1c0.7-1.6,1.3-3.6,2.1-5.4
								l4.8,1.5C267.5,268.3,267.5,269,267.6,269.3z"/>
						</g>
						<g>
							<path class="st3" d="M269.3,326.2c1.5-3,3.6-6.1,4.8,1.5C272.5,327.1,271,326.6,269.3,326.2z"/>
						</g>
						<g>
							<path class="st3" d="M280.7,402.7c-2.8-1.8-5.4-3.4-8-5.2c-0.1,1.9-0.3,4-0.6,6c-3.6-3.6-4.9-1.8-4.6,1.8
								c-1.8,0.4-3.6,0.9-5.4,1.3c-0.4-1.8-0.9-3.1-1.2-4.9c-1.8-0.6-3.9-1.2-5.7-1.8c-1.3-0.4-2.5-0.7-3.9-1.2
								c-3.1,1.9-6,4.3-9.1,6.5c-2.1-4.5-4-8.6-6.1-12.9c-0.6-0.9-1-1.3-1.5-2.1c-0.3-1.6-0.7-3.1-1.2-4.9c-0.3-3.9,1.3-5.1-1-9.7
								c-0.7-3.7-1.5-7.9-2.4-11.6c0.3-0.1,0.6-0.7,1-0.9c3,4.5,5.7,5.8,8.6,7.3c-0.7-8.5,3.7-2.1,6.3-7.3c1,0.3,2.1,0.6,3.1,1
								c2.5,0.7,5.1,1.6,7.4,2.4c1.6,1.5,3.9,4.8,4.2-0.3c5.1,8.2,4.6-12.4,8.9,4.3c1.8,1.5,3.6,3,5.4,4.8c-1,14.3-9.4,6.8-14.7,7.7
								c2.4,8.8-1.9,4.2-2.5,8.5c0.9,2.8,1.8,5.7,2.8,8.5c0.4-1.8,0.7-3.9,1-5.8c2.1-2.8,7.3,2.5,10.4-0.1c3.3,1.6,6.4,2.8,9.7,4.5
								C281.6,400,281.2,401.5,280.7,402.7z"/>
						</g>
						<g>
							<path class="st3" d="M245.9,274.5c-1.5-0.1-1.3,6.8-3.3,4.9c-1.3-2.1-2.7-4.2-4.2-5.8c1.2-2.8,2.4-5.5,3.6-7.9
								c0.9,1.2,1.8,2.5,2.7,3.7c0.3,1.3,0.6,2.4,1,3.6C245.7,273.3,245.9,273.9,245.9,274.5z"/>
						</g>
						<g>
							<path class="st3" d="M221.5,275.4c-1.3-2.1-2.8-4.2-4-6.3c-1.9-0.4-3,5.7-3.4,9.5c0.4-4,1.5-10,3.4-9.5
								C218.8,271.1,220.2,273.2,221.5,275.4z"/>
						</g>
						<g>
							<path class="st3" d="M223.4,330.9c-0.7,1.9-1.2,5.4-3.6,5.2c-0.3-2.4-0.4-4.3-0.6-6.7C220.6,330,222.1,330.5,223.4,330.9z"/>
						</g>
						<g>
							<path class="st3" d="M227,421.9c-1.2,0.6-2.4,1.2-3.6,1.8c-0.7-0.6-1.3-1.5-1.9-1.9c-1.8,3.3-5.2,1.5-6.3,5.7
								c-3,0-5.8,0-8.6,0c-3,0-5.8,0-8.6,0.3c-0.9,2.7-1.6,5.7-2.5,8.5c-1.6-0.6-3.3-1.2-5.1-1.8c0.4-3.1,0.9-6.3,1.2-9.1
								c2.4,2.1,3.1-2.1,6.3,0.6c-0.1-2.7-0.4-5.4-0.6-8c1.2-2.2,2.7-4.3,3.9-6.4c2.5-0.7,4.6-0.7,5.7-5.8c2.1,0,4,0.4,6.1,0.4
								c2.7,2.5,5.2,5.1,8,7.6c-0.1-1.3-0.1-2.4-0.3-3.3c0-0.9,0.1-1.9,0.3-3.1c0.6,0.3,1.3,0.4,1.9,0.6c1.2,1.6,2.4,3,3.4,4.3
								C226.4,415.6,226.7,418.6,227,421.9z"/>
						</g>
						<g>
							<path class="st3" d="M203.9,278c4.3,4.5,5.4,1,6.7-0.4C209.3,278.9,208.4,282.4,203.9,278z"/>
						</g>
						<g>
							<path class="st3" d="M166.6,369.3c-1,1.2-1.8,2.2-2.8,3.6c-0.9-3.9-1.6-7.7-2.5-11.8l4.9,1.9
								C166.3,365,166.4,367,166.6,369.3z"/>
						</g>
						<g>
							<path class="st3" d="M158.5,322.2c-1.5,2.1-2.7,4.2-4.2,6.1c-0.3-2.8-0.7-5.5-1-8.2l4.6-1
								C158.1,320.1,158.4,321.1,158.5,322.2z"/>
						</g>
						<g>
							<path class="st4" d="M313,281.5c-0.3,1.2,0,6.3-2.2,3.7c-1.8-3-3.7-6.1-5.5-9.1c0.4-1.8,0.9-3.9,1.3-5.5
								c0.4,0.1,0.7,0.1,1.2,0.3C309.4,274.4,311.4,278,313,281.5z"/>
						</g>
						<g>
							<path class="st4" d="M254.4,279c-0.6,2.7-1.2,5.7-1.6,8.3c-2.2-4.2-4.5-8.5-6.7-12.6c-0.1-0.7-0.1-1.3-0.1-1.6
								c2.2-0.1,4.8-0.3,7.1-0.7C253.8,274.7,254.1,276.6,254.4,279z"/>
						</g>
						<g>
							<path class="st6" d="M417.5,311.4c-2.1-2.2-1.3,2.5-2.1,4c-2.1-0.4-4.2-0.7-6.4-1.2c-0.7-3-1.5-6.1-2.2-9.4
								c-0.9-2.7-1.6-5.2-2.5-7.9l2.4-2.4c2.4,0.7,4.8,1.8,7.3,3C415.1,302.1,416.3,306.5,417.5,311.4z"/>
						</g>
						<g>
							<path class="st6" d="M393.2,290.3c-0.1,0-0.4-0.1-0.4-0.1c-1.8-1.3-4.3,1.9-5.5-5.5c0.6-1.3,1.3-2.8,1.9-4.2
								c0.9,1.2,1.8,2.2,2.5,3.6C392.2,286.1,392.8,288.4,393.2,290.3z"/>
						</g>
						<g>
							<path class="st6" d="M344.9,318.3c-0.9-1.5-1.8-2.7-2.5-3.7c-1.8-7.3,1.9-4.5,5.1-1.6C346.5,314.6,345.6,316.2,344.9,318.3z"
								/>
						</g>
						<g>
							<path class="st6" d="M340.5,323.2c-1.6-0.4-2.7-0.7-3.9,2.2c-1.5-1-3.3-2.1-4.8-2.8c-0.3-1.6-0.6-3.3-0.9-4.9
								c1.3-1.8,3.9-1.5,4.8-6.3c1.3,1,2.8,1.9,4,2.5C340.1,317.1,340.4,319.9,340.5,323.2z"/>
						</g>
						<g>
							<path class="st6" d="M317.2,275.1c-2.5-1,0.9,7.1-0.1,8.6c-1.2-0.6-2.5-1.6-3.9-2.2c-1.8-3.6-3.6-7.3-5.2-10.6
								c0.9-1.9,1.8-1.6,2.1-4.2c1.5,0.4,3.1,0.9,4.8,1.3c0.4,0.1,0.7,0.1,1.2,0.3C316.3,270.8,316.7,272.9,317.2,275.1z"/>
						</g>
						<g>
							<path class="st6" d="M254.4,279c-0.3-2.4-0.6-4.3-1.5-6.8l4.3-1.5c0.7,0.6,1.6,1.5,2.5,2.4c0.7,5.1-1.5,6.5-0.6,11.8
								C257.5,282.9,255.9,280.6,254.4,279z"/>
						</g>
						<g>
							<path class="st6" d="M195.2,366.1c-0.9,1.6-1.8,3.3-2.5,5.2c-1.3,0.4-2.8-2.7-3.3-4.5c0.6-1.8,1.3-3.7,1.9-5.5
								c-0.6-3.7-1.3-7.9-2.1-11.8c1.3,0.4,2.8,1,4.3,1.6c1.8,3.3,1.9,7.9,3.9,12.4C196.6,364.3,195.7,365,195.2,366.1z"/>
						</g>
						<g>
							<path class="st6" d="M197.7,426c-3-2.7-3.9,1.6-6.3-0.6c-0.3,2.8-0.7,6-1.2,9.1c-0.3-0.1-0.4-0.1-0.6-0.3
								c-3.7-5.2-3.9-1-4.9-1.8c0-4.9-2.1-2.4-2.8-6c-0.7-2.8-1.2-5.7-1.8-8.5c0.1-0.3,0.3-0.9,0.6-1.5c1.6,0.3,3.1,0.1,4.9,0.4
								c1.9,0,4.2,2.4,4.6-4.9c0.1,0,0.4,0.1,0.6,0.1c2.1,2.1,3.9,3.7,6,5.4c0.1,0,0.4,0.1,0.6,0.1
								C197.2,420.7,197.5,423.4,197.7,426z"/>
						</g>
						<g>
							<path class="st6" d="M181.2,304.9c-0.3,0.1-0.6,0.7-1,1.2c-2.8-1-5.8-3.6-7,5.1l-2.8-1.2c-0.3-4-0.6-7.7-0.7-11.3
								c0.6-1.3,1.3-2.7,1.9-3.7c3.1-1,5.8-3.6,9.4-2.7C180.9,296.4,181,300.6,181.2,304.9z"/>
						</g>
						<g>
							<path class="st7" d="M190.7,412.5c-0.1,0-0.4-0.1-0.6-0.1c-1.3-1.8-2.8-3.9-4-6c1.5-1.3,3-3.1,4.5-4.6
								c0.4,1.2,0.9,2.2,1.5,3.4L190.7,412.5z"/>
						</g>
						<g>
							<path class="st7" d="M186.4,358c-1.9-0.7-3.6-1.3-5.5-2.1c1.9-4.5,4-7.3,5.4-0.9C186.2,357,186.4,357.6,186.4,358z"/>
						</g>
						<g>
							<path class="st7" d="M175.7,404.2c-0.7,3.9-2.7,1.6-4.2,0c-0.9,0.6-1.6,1.3-2.4,2.1c-0.4-0.4-0.9-1.3-1.2-2.1
								c-0.1-2.7-0.3-5.4-0.4-8c1.2,1.8,2.5,3.3,3.9,4.8c0.3-0.9,0.6-1.6,0.9-2.8C173.4,400,174.5,402.1,175.7,404.2z"/>
						</g>
						<g>
							<path class="st7" d="M174.8,431.8c0.9,5.5,1.9,11.2,2.7,16.7c-3.6,4.6-4.3-3.1-7.9-10.7c0.7-1.8,1.5-3.7,2.2-5.4
								c-1.3-2.1-2.7-4.3-4-6.1c0-0.6,0-1.3-0.1-1.6c3.7,1.8,3.6-5.8,8.8,4.9C176,430.4,175.4,431.1,174.8,431.8z"/>
						</g>
						<g>
							<path class="st5" d="M456.8,386.7c0.3,5.7-2.8,3.4-4.6,2.1c-1.2,0.4-2.4,0.6-3.6,1c-0.9-4.8-0.9-8.8,2.5-5.5
								C452.9,384.8,454.7,385.7,456.8,386.7z"/>
						</g>
						<g>
							<path class="st5" d="M425.4,299.7c-0.7,1.8-1.5,3.4-2.2,5.5c-2.5-2.7-5.2-5.1-7.9-7.3c-0.1-3.1,0.1-4.6,0.3-6.1
								C418.5,291.5,421.7,293.7,425.4,299.7z"/>
						</g>
						<g>
							<path class="st3" d="M317.5,362.5c-0.4,0.1-0.7,0.7-1,1.3C316.7,363.2,317,362.8,317.5,362.5z"/>
						</g>
						<g>
							<path class="st3" d="M293.8,325.7c-0.1,0.9-0.1,1.8-0.1,3.1c-0.3-0.1-0.4-0.1-0.6-0.1c-1.2,0.6-2.7,1.2-3.9,1.6
								c-3.4-0.3-6.7-1-10.1-1.3c-1.3-0.3-2.4-0.7-3.7-1c0.7-1.6,1.5-3.7,2.1-5.4c-0.1-0.6-0.1-1.3-0.3-1.6c0.9-0.3,1.9-0.4,2.8-0.7
								c1.5,1,3,1.8,4.6,3c2.1,2.5,1.9-2.5,2.4-3.7C289.2,321.3,291.6,323.5,293.8,325.7z"/>
						</g>
						<g>
							<path class="st3" d="M294.4,325.9c-0.1,0-0.4-0.1-0.4-0.1C294,325.9,294.3,325.9,294.4,325.9z"/>
						</g>
						<g>
							<path class="st4" d="M167.6,424.7c0,0.3,0,1,0.1,1.6C167.6,425.6,167.6,425,167.6,424.7z"/>
						</g>
						<g>
							<path class="st6" d="M352.3,344c-0.3,0-0.4-0.1-0.6-0.1C351.9,344,352,344,352.3,344z"/>
						</g>
						<g>
							<path class="st7" d="M191.1,308.8c-1.8,1.9,0,6.5-3.4,8.2c-3.4-4.9-3.6-0.1-8.2-3.1c0.1-2.8,0.3-5.1,0.4-7.6
								c0.4-0.4,0.7-1,1-1.2C184.7,312.8,184.9,300.6,191.1,308.8z"/>
						</g>
						<g>
							<path class="st7" d="M191.4,307.3c-0.1,0.3-0.3,0.9-0.3,1.5C191.3,308,191.4,307.6,191.4,307.3z"/>
						</g>
						<g>
							<path class="st7" d="M323.9,275.4c-0.1-0.6-0.3-1.3-0.3-1.6C323.7,274.1,323.9,274.8,323.9,275.4z"/>
						</g>
						<g>
							<path class="st7" d="M186.1,406.2c-0.4,1.5-0.7,3-1,4.2c-1.6,0-3.1,0.1-4.8-0.1c-1-1.9-1.8-3.6-2.7-5.5
								c0-1.3,0.3-2.2,0.3-3.1C182.4,399.1,184,403,186.1,406.2z"/>
						</g>
						<g>
							<path class="st3" d="M316.4,363.8c-1.2-0.6,0.6,5.5-3.3,1.9c-1.2-0.6-2.7-1.6-4-2.4c0-2.8,0.1-5.1,0-7.6
								c0.4,0.1,0.7,0.1,1.3,0.3c0.6,1,1,2.2,1.6,3.3c0.4,0.1,0.7,0.1,1.3,0.3C314.4,361,315.5,362.3,316.4,363.8z"/>
						</g>
					</g>
				</g>
			</g>
		</g>
	</g>
	<g>
		<g>
			<path d="M289,398.3c1-10.6,1.9-20.8,3-31.3c-1.3,0.1-3,0.1-4.6,0.4c-5.2,0.7-10.6,1.6-15.8,2.4c-0.7,0.1-1.6,0.6-2.4,0.7
				c-0.6,0.1-1-0.1-1.6,0c-2.2,0.4-4.5,0.7-6.5,1.2c-11.8,2.4-23.4,5.7-35,9.7c-3.6,1.2-7.4,2.4-11.2,3.3c-1.6,0.4-3.4,0.1-5.1,0.1
				c-0.1,0-0.6-0.4-0.7-0.6c0.1-0.1,0.6-0.6,0.7-0.6c6,1,11.5-1.8,16.8-3.6c11.8-4,23.8-7.4,36-9.8c1.6-0.4,3.3-0.6,4.6-1
				c0.6-0.1,1-0.4,1-1.2c0-11.2,0-22.5,0-33.6c0-0.1,0-0.6,0-0.7c-6.8,1.6-13.2,5.7-20.8,4.5c0,1.8,0,3.4,0,5.1c0,7.4,0,14.9,0,22.2
				c0,0.6-0.4,1.2-0.6,1.9c-0.1-0.6-0.6-1.3-0.6-1.9c0-9.1,0-18,0-27.1c0-10.9,0.1-21.9,0.1-32.6c0-1.9,0-4,0-5.8
				c0-0.4,0.4-1,0.6-1.3c0.1,0.4,0.6,1,0.6,1.3c0,8.2,0,16.4,0,24.6c0,3.6,0,7.1,0,11c0,1.2,0.4,1.6,1.6,1.6c2.5,0.4,5.2-0.1,7.7-1
				c3.6-1.2,7.1-2.4,10.9-3.6c0.7-0.1,0.7-0.7,0.7-1.3c0-5.7,0-11.5,0-17c0-3.4,0-6.8,0.1-10.3c0-0.4,0.1-1,0.4-1.3
				c0.1,0,0.4,0,0.6,0c0,22,0,44.1,0,65.9c9.4-1.2,18.6-2.4,27.8-3.3c9.2-0.7,18.5-0.4,27.7,1.8c0-0.4,0.1-0.7,0.1-1.2
				c0-9.2,0-18.6,0-27.8c0-12.1,0-24,0-36.3c0-0.1,0-0.4,0-0.6c0.1-0.1,0.4-0.6,0.4-0.7c0.1,0.1,0.6,0.6,0.6,0.7c0,1.3,0,2.5,0,4
				c0,9.7,0,19,0,28.6c0,0.6,0,1,0,1.8c4.5-0.1,8.6-0.1,12.8-0.4c0.4,0,0.7-0.6,0.7-1c1.2-11.2,2.4-22.5,3.6-33.5
				c0-0.1,0-0.4,0.1-0.6c0.1-0.1,0.4-0.4,0.6-0.6c0.1,0.1,0.4,0.6,0.4,0.7c-0.1,1.9-0.4,3.9-0.6,5.7c-0.7,8-1.6,16.1-2.4,24
				c-0.1,1.6-0.4,3.3-0.4,4.8c0.6,0.1,1.2,0.1,1.6,0.1c0,0.1,0,0.1,0.1,0.4c-0.4,0.1-0.6,0.6-1,0.6c-0.7,0.1-1,0.4-1,1.2
				c-0.6,6.8-1.3,13.5-2.2,20.4c-0.4,3.9-0.7,7.6-1.2,11.5c0,0.4-0.4,0.7-0.6,1c-0.1-0.4-0.4-0.7-0.4-1.2c0.6-6.3,1.2-12.4,1.8-18.6
				c0.4-4.2,1-8.5,1.3-12.6c0-0.4,0-0.6,0-1c-4.2,0-8.2,0-12.4,0c-1,0-1.2,0.6-1.2,1.3c0,3.4,0,6.8,0,10.3c0,5.8,0,11.8,0,17.6
				c0,1.2,0.4,1.6,1.6,1.9c7.4,1.8,14.3,4.8,21,7.7c3.6,1.6,7.4,2.8,11.5,3.3c0.7,0,2.2-0.1,1.9,1c-0.1,1.2-1.3,0.6-2.2,0.4
				c-6-0.4-11.5-3-16.8-5.2c-5.4-2.4-10.9-4.2-16.7-5.8c0,0.1-0.1,0.4-0.1,0.6c-0.1,0.1-0.4,0.4-0.7,0.6c-0.1-0.1-0.6-0.4-0.6-0.6
				c0-1-0.6-1-1.2-1.2c-7.1-1.3-14.4-2.2-21.6-1.9c-2.8,0.1-5.8,0.1-8.6,0.4c-1.8,10.4-2.5,20.8-3,31.3c1.8,0,3.6,0,5.2,0
				c10.9-0.6,21.3,1.6,31.4,5.4c9.2,3.4,18.8,6,29,5.8c0.4,0,0.7,0.4,1.3,0.6c-0.4,0.1-1,0.6-1.3,0.7c-4.8,0.1-9.7-0.1-14.3-1.3
				c-6.3-1.6-12.6-3.4-18.8-5.7c-10.3-3.6-20.7-4.5-31.3-3.9c-1.2,0-1.8,0.4-1.6,1.6c0,0.6-0.1,1.2-0.4,1.6c-0.1,0-0.4,0-0.6,0
				c-0.1-0.4-0.1-1-0.1-1.3c0-0.6,0-1,0-1.8c-1.3,0.1-2.8,0.1-4,0.4c-13.5,1-27.1,4-40.2,7.4c-7.4,1.9-14.6,4.2-21.4,7
				c-5.7,2.4-11,4.8-16.7,7.1c-2.5,1-5.2,1.8-7.7,2.4c-1.2,0.1-2.4,0.1-3.6-0.1c-1.9-0.4-3.3-1.6-3.6-3.6c-0.6-2.5-1.2-5.2-1.2-7.7
				c-0.1-8.2,1-16.2,2.4-24.4c1.3-8,2.8-16.1,4-24.3c1.2-8,2.4-16.1,3-24c1-11.2,1.6-22.6,1.2-34.1c0-2.5-0.4-5.1-0.6-7.6
				c0-0.7-0.1-1.6,0.6-1.6c0.7,0,1.3,0.6,2.2,1c-0.1,0.1-0.4,0.6-0.6,0.6c-0.4,0-0.6-0.1-1.2-0.4c0.1,1.2,0.1,2.4,0.4,3.6
				c0.1,6.8,0.4,13.5,0.1,20.4c-0.1,11.5-1,23.1-2.5,34.4c-1.3,8.6-2.8,17.3-4,25.9c-1.2,7.6-2.4,15-3.3,22.6
				c-0.4,4.5-0.7,9.1,0.4,13.4c1,3.9,3,5.1,6.8,4c5.1-1.2,9.8-3.4,14.4-5.7c14-6.5,28.6-11.2,43.9-14.4c6.4-1.3,12.8-2.4,19.2-3.4
				c3.6-0.6,7.4-0.7,11-1.2C288.4,398.3,288.7,398.3,289,398.3z"/>
			<path d="M393.1,278.3c-4.5,1.8-8.5,3.6-12.6,5.4c-6.8,2.5-14,4.5-21,6c-10.3,2.2-20.7,3.3-31.3,3.4c-12.2,0.1-24.3,0-36.5,0
				c-5.8,0-11.8-0.1-17.6-0.6c-7.6-0.6-15.5-1.6-23.1-2.5c-7.1-1-14.4-2.2-21.9-3c-3.3-0.4-6.4,0-9.7,0c-0.4,0-0.6,0.1-1,0.4
				c-0.1,0.1-0.6,0.4-0.7,0.6c-0.4-0.4-0.7-0.7-1-1.2c0-0.1,0.4-0.6,0.7-0.7c1-0.1,2.2-0.4,3.3-0.4c6.5-0.4,12.9,0.4,19.5,1.3
				c14,2.4,28,4.2,42.4,4.2c13.8,0,27.7,0.6,41.7,0.4c14.4-0.1,28.9-1.9,43-5.7c7.7-1.9,15.5-4.6,22.6-8c1-0.4,1.8-0.7,2.8-1
				c0.4-0.1,1-0.1,1.3,0c0.1,0.1,0.1,1,0.1,1.3c-0.7,2.4-1.8,4.8-2.8,7c-2.8,7-4.8,14.4-6.4,21.9c-2.8,12.6-5.4,25.3-8,37.8
				c-1.6,7.7-3.6,15.5-5.1,23.2c-1,5.2-1.6,10.4-1.8,15.6c-0.1,3.4,0.7,6.8,3,9.7c0.1,0.1,0.1,0.6,0.1,1c-0.4,0-0.7,0-1-0.1
				c-1-1.6-1.9-3-2.8-4.8c-1.3-3.9-1.2-7.6-0.7-11.6c1-10.6,3.9-20.7,6.3-31.1c1.8-8.8,3.6-17.4,5.7-26.2
				c2.5-11.5,4.8-22.8,9.1-33.6c1-2.4,1.9-5.1,3-7.4C392.8,279.5,392.9,279.2,393.1,278.3z"/>
		</g>
	</g>
</g>
<g class="st0">
	<path d="M195.7,463.5c1.6,0,2.5,1.2,2.8,3.6v0.1c0,1.2-0.7,3.8-2,7.9l2.3-0.5c2.9,0,4.5,1.8,5,5.5v0.8c0,4.4-2.8,8.4-8.3,12
		c-1.8,0.7-3.1,1-3.9,1c-2.7,0-4.6-1.6-5.6-4.7c0.1-0.4,0.5-0.9,1.2-1.5c0.4-15.1,0.7-22.6,1-22.6c0.6-0.6,1.1-0.9,1.5-0.9
		c0.9,0.3,1.4,0.9,1.4,1.6h0.2C192.7,464.3,194.2,463.5,195.7,463.5z M192.7,482.7l-0.8,0.3l-1.2-0.1v0.1l-0.2,0.7v5.2l-0.1,1.8
		l1.1,0.3c2.8,0,5.6-2.1,8.4-6.4c0.8-1.9,1.1-3.5,1.1-4.7c0-1.5-0.7-2.3-2.2-2.3h-0.2C197,477.6,195.1,479.3,192.7,482.7z
		 M190.8,479.6h0.2c2.7-5.2,4.2-9.2,4.4-12v-1.2h-0.5c-0.7,0-1.6,1.9-2.8,5.7C191.2,475.7,190.8,478.2,190.8,479.6z"/>
	<path d="M207.8,478.9l0.9-0.5c0.8,0,1.4,0.5,1.8,1.5c-0.5,2.5-0.8,5-0.8,7.6c0,1.3,0.4,2.7,1.2,4.2h0.3c1,0,2.1-3.8,3.5-11.5
		c0.5-0.4,0.9-0.6,1.3-0.6c1,0,1.6,1.8,1.6,5.5c0.4,4,0.9,6,1.4,6l0.8-0.3c1,0.4,1.5,0.9,1.5,1.5c-0.6,1.3-1.4,1.9-2.5,1.9
		c-1.2,0-2.4-1.2-3.5-3.6c-1.3,2.8-2.7,4.2-4,4.2c-2,0-3.5-2.1-4.2-6.3l-0.1-1.6v-0.5C206.7,483.8,207.1,481.3,207.8,478.9z"/>
	<path d="M232.2,473.7c0.9,0,1.5,1.5,1.9,4.5c-0.3,0.8-0.9,1.2-1.6,1.2c-0.5-0.1-1.1-0.7-1.6-1.8l-0.9-0.3c-1.6,0-3,1-4.2,3.1v0.5
		c0,0.5,2.3,1.3,7,2.5c2,1.2,3,2.6,3,4.2c0,2.7-2.2,5.1-6.6,7l-1.9,0.3c-2.8-0.3-4.2-1.7-4.2-4.2v-0.1c0-0.8,0.5-1.3,1.6-1.4
		c0.8,0,1.3,0.8,1.6,2.5l0.4,0.3h0.9c1.9,0,3.7-1.3,5.3-3.9v-0.7c0-1-2.2-1.9-6.5-2.8c-2.3-0.9-3.5-2.2-3.5-3.9
		c0-2.2,1.8-4.2,5.5-6.1C229.8,474.5,231.1,474.1,232.2,473.7z"/>
	<path d="M238.1,467.9c1.3,0.3,1.9,0.8,1.9,1.7c-0.3,0.9-0.9,1.4-1.6,1.4c-1.2-0.2-1.9-0.8-1.9-1.8
		C236.9,468.3,237.4,467.9,238.1,467.9z M240,474.9c0.5,0,1,0.5,1.3,1.5l-0.4,3.5v2.3c0,2.7,0.5,6.3,1.4,10.8c-0.3,0.6-0.9,1-1.7,1
		c-1.4,0-2.3-4-2.7-12v-1.8C237.9,476.7,238.6,474.9,240,474.9z"/>
	<path d="M251.4,477.1c2.8,0.2,4.2,1.6,4.2,4.1l0.1,0.7l-0.1,7.8c0,0.9,0.5,2.1,1.5,3.7v0.1c-0.3,1-0.8,1.5-1.5,1.5
		c-2.1-0.9-3.1-2.7-3.1-5.5v-0.7l-0.2-0.1l0.2-0.2v-0.1l0.1-6.9c0-1-0.4-1.5-1.2-1.5h-0.6c-1.7,0.7-2.5,4.3-2.5,11
		c0,2.3-0.6,3.5-1.8,3.5c-0.9,0-1.4-0.6-1.4-1.7v-5c0-6.5,0.6-9.7,1.7-9.7l0.5-0.1l1.1,0.1C249.4,477.4,250.4,477.1,251.4,477.1z"/>
	<path d="M263.2,476c1.3,0,3.6,2.4,6.8,7l0.1,0.9c0,0.9-2.3,1.6-6.8,2.1l-0.2,0.2v0.2c0.7,3,1.4,4.5,2.2,4.5h0.6
		c1.1,0,2.7-1.2,4.9-3.5h0.3c0.7,0,1.2,0.5,1.5,1.5c0,0.8-1.4,2.2-4.2,4.1c-0.7,0.4-1.6,0.8-2.6,1c-2.7,0-4.6-2.5-5.7-7.6
		c-1.5-0.2-2.3-0.9-2.3-1.9c0-0.7,0.6-1.2,1.7-1.5v0.2l0.5-0.2v-1.2C260,477.9,261.1,476,263.2,476z M263.5,479.6H263l-0.2,1.8v1.5
		h0.2c1.9-0.1,2.8-0.3,2.8-0.6C265,481.1,264.2,480.2,263.5,479.6z"/>
	<path d="M284.5,473.7c0.9,0,1.5,1.5,1.9,4.5c-0.3,0.8-0.9,1.2-1.6,1.2c-0.5-0.1-1.1-0.7-1.6-1.8l-0.9-0.3c-1.6,0-3,1-4.2,3.1v0.5
		c0,0.5,2.3,1.3,7,2.5c2,1.2,3,2.6,3,4.2c0,2.7-2.2,5.1-6.6,7l-1.9,0.3c-2.8-0.3-4.2-1.7-4.2-4.2v-0.1c0-0.8,0.5-1.3,1.6-1.4
		c0.8,0,1.3,0.8,1.6,2.5l0.4,0.3h0.9c1.9,0,3.7-1.3,5.3-3.9v-0.7c0-1-2.2-1.9-6.5-2.8c-2.3-0.9-3.5-2.2-3.5-3.9
		c0-2.2,1.8-4.2,5.5-6.1C282.1,474.5,283.4,474.1,284.5,473.7z"/>
	<path d="M299.9,473.7c0.9,0,1.5,1.5,1.9,4.5c-0.3,0.8-0.9,1.2-1.6,1.2c-0.5-0.1-1.1-0.7-1.6-1.8l-0.9-0.3c-1.6,0-3,1-4.2,3.1v0.5
		c0,0.5,2.3,1.3,7,2.5c2,1.2,3,2.6,3,4.2c0,2.7-2.2,5.1-6.6,7l-1.9,0.3c-2.8-0.3-4.2-1.7-4.2-4.2v-0.1c0-0.8,0.5-1.3,1.6-1.4
		c0.8,0,1.3,0.8,1.6,2.5l0.4,0.3h0.9c1.9,0,3.7-1.3,5.3-3.9v-0.7c0-1-2.2-1.9-6.5-2.8c-2.3-0.9-3.5-2.2-3.5-3.9
		c0-2.2,1.8-4.2,5.5-6.1C297.4,474.5,298.8,474.1,299.9,473.7z"/>
	<path d="M338.4,457.5h0.1c0.8,0.4,1.2,0.9,1.2,1.5l-1.2,9.5c0,3.5,1,10.6,3.1,21.5l2.5,6.2c0,0.4-0.4,0.9-1.1,1.5h-0.9
		c-0.7-0.2-1.7-2.2-3-6.2c-0.9-3.1-1.7-8-2.6-14.5h-0.3c-1.9,5.7-3.3,8.7-4.1,8.9l-0.8,0.2c-0.7,0-1.6-1.4-2.6-4.1h-0.4
		c-0.4,8.2-1.2,12.4-2.4,12.4h-0.1c-1.1,0-1.6-0.8-1.8-2.5c0.8-3.2,1.2-6.5,1.2-10l-1.4-13.2v-1c0-1.3,0.5-1.9,1.4-1.9
		c1.3,0,2.4,2.5,3.4,7.7c1.5,4.6,2.4,7.1,2.7,7.5c0.8-1.2,1.5-3.3,2.3-6.4c0.6-1.6,1.2-4,1.8-7.3l-0.2-0.2l0.2-0.8V466
		C335.9,460.3,336.9,457.5,338.4,457.5z"/>
	<path d="M353.8,475.1c2.5,0,4.3,1.8,5.6,5.5l0.2,1c0,3.6-1.7,7.2-5,11c-1.3,1.2-2.7,1.8-4,1.8c-2,0-3.4-1.2-4.2-3.5
		c-0.3-1.1-0.5-2-0.5-2.8v-0.6c0-5.3,1.9-9.3,5.8-12C352.2,475.3,353,475.1,353.8,475.1z M348.8,488.1c0,2.3,0.6,3.4,1.8,3.4
		c2.4,0,4.4-3.1,6-9.3v-1c-0.6-2.1-1.6-3.1-3.1-3.1c-0.6,0-0.9,0.4-0.9,1.2c0,0.6-0.7,1-2,1.3C349.4,482.7,348.8,485.1,348.8,488.1z
		"/>
	<path d="M373.5,466.5c0.6,0,1.1,0.5,1.5,1.6l-2.2,13.9v3.9c0,4.1,0.6,6.1,1.9,6.1c0.8,0.4,1.2,0.9,1.2,1.6c0,0.8-0.7,1.2-2,1.3
		c-1.5,0-2.6-1.3-3.5-4h-0.5c-1.2,2.7-2.7,4-4.5,4c-2.1,0-3.3-1.6-3.8-4.7c0-3.6,2.4-7.5,7.3-11.5c1,0,1.5-1.3,1.5-4
		C371.3,469.2,372.3,466.5,373.5,466.5z M364.8,489.9v1.3l0.8,0.8h0.3c1.1,0,2.3-3.2,3.8-9.6h-0.3
		C366.3,485.4,364.8,487.9,364.8,489.9z"/>
	<path d="M382.3,476c1.3,0,3.6,2.4,6.8,7l0.1,0.9c0,0.9-2.3,1.6-6.8,2.1l-0.2,0.2v0.2c0.7,3,1.4,4.5,2.2,4.5h0.6
		c1.1,0,2.7-1.2,4.9-3.5h0.3c0.7,0,1.2,0.5,1.5,1.5c0,0.8-1.4,2.2-4.2,4.1c-0.7,0.4-1.6,0.8-2.6,1c-2.7,0-4.6-2.5-5.7-7.6
		c-1.5-0.2-2.3-0.9-2.3-1.9c0-0.7,0.6-1.2,1.7-1.5v0.2l0.5-0.2v-1.2C379,477.9,380.1,476,382.3,476z M382.6,479.6h-0.5l-0.2,1.8v1.5
		h0.2c1.9-0.1,2.8-0.3,2.8-0.6C384.1,481.1,383.3,480.2,382.6,479.6z"/>
	<path d="M396.4,466.4c0.9,0.3,1.4,0.8,1.4,1.5l0.5,19v6.2c0,1.1-0.5,1.7-1.5,1.7h-0.6c-0.6-0.4-0.9-0.9-0.9-1.4v-5.8l-0.5-19.8
		C394.8,467,395.3,466.5,396.4,466.4z"/>
</g>
<path class="st8" d="M353.4,654.4c-3.1-0.2-7.9-0.3-12.7-0.8c-1.2-0.1-2.2-1.5-3.3-2.3c1.1-1.1,2.1-3.2,3.2-3.2
	c8.7-0.4,17.5-0.7,26.2-0.5c1.7,0,3.3,2.6,4.9,4.1c-1.9,0.9-3.7,2.4-5.7,2.7C362.4,654.7,358.7,654.4,353.4,654.4z"/>
<path class="st9" d="M212.3,644.9c5.7,0.6,11.6,0.9,17.2,2c1.7,0.3,3,2.7,4.4,4.2c-1.7,0.8-3.5,2.2-5.2,2.2
	c-7.4-0.2-14.9-0.7-22.3-1.6c-2-0.2-3.7-2.5-5.5-3.8c1.9-0.9,3.8-2.1,5.9-2.7c1.7-0.4,3.6-0.1,5.4-0.1
	C212.3,645.1,212.3,645,212.3,644.9z"/>
<path class="st10" d="M391,653c-1.9-1.9-1-4.6,1.9-5.2c1.8-0.4,3.6,0,5.4-0.1c6.7,0,13.6,0.1,20.3,0.1c1.5,0,3,0,4.4,0.5
	c1.1,0.5,2.4,1.6,2.5,2.6c0,1-1.1,2.5-2.1,3c-10.6,4.6-21.1,2.4-31.7-0.4C391.5,653.5,391.2,653.2,391,653z"/>
<path class="st9" d="M452.1,648c8.3-0.2,16-0.6,23.5-0.3c1.8,0.1,3.5,2.7,5.2,4.2c-1.7,0.9-3.4,2.3-5.1,2.4
	c-5.6,0.4-11.2,0.4-16.9,0.4c-2.1,0-4.3-0.3-6.3-1c-1.2-0.5-3-2-2.9-2.6C450,649.8,451.5,648.8,452.1,648z"/>
<path class="st10" d="M184,646.2c2,1.8,1.2,4.6-1.7,5.3c-1.7,0.5-3.6,0.2-5.4,0.3c-6.7,0.3-13.6,0.5-20.3,0.8c-1.5,0-3,0.1-4.4-0.3
	c-1.1-0.4-2.5-1.5-2.7-2.4c-0.1-1,1-2.6,2-3c10.3-5.1,21-3.4,31.7-1.1C183.4,645.7,183.7,646,184,646.2z"/>
<g id="achse_x5F_1">
	<g>
		<path d="M506.2,817.2c-0.3,6-1.6,11.6-2.6,18.1c5.2,0.1,10.2,0.2,15.2,0.3c4.9,0.1,9.9,0.4,15.2,0.6c-1,2.2-1.8,1.6-2.6,1.6
			c-8.6,0-17.2,0-25.7,0c-0.9,0-1.7,0-2.6,0c-0.7,3.7-1.3,7.1-2,10.6c-0.2-0.1-0.4-0.3-0.6-0.4c0.4-3.2,0.9-6.5,1.4-10.2
			c-145.3,0.2-290.4-0.4-435.6,0c-0.4,5.6-0.8,10.6-1.2,15.7c-0.2-0.1-0.4-0.1-0.6-0.2c-0.2-4.9,0.7-9.8,0.7-15.2
			c-5.9-0.7-11.8,0.1-17.7-0.9c1.9-1.5,3.8-0.8,5.8-1c1.9-0.2,3.9-0.1,5.8-0.1c2,0,4,0,6.1,0c1.1-7.7,0.8-15.7,2.2-23.5
			c0.6,0.9,1,1.5,1.3,1.9c-0.1,0.6,0,0.8-0.1,0.9c-2,2.2-1.3,6.3-1.6,9.6c-0.4,3.4-0.4,6.9-0.6,10.9c1.2,0,2.1,0,3,0
			c32.7-0.4,65.3-1.1,98-1.3c39.1-0.2,78.1,0.1,117.2,0.2c58.4,0.1,116.8,0.1,175.2,0.2c13.4,0,26.8,0.2,40.2,0.3
			c2.5,0,2.3,1.1,3.3-4.8c0.7-4,1.2-8.1,1.8-12.2c0.1-0.5,0.2-1,0.3-1.4C505.9,817,506.1,817.1,506.2,817.2z"/>
		<path d="M525.9,851.2c0.9-1.1,1.9-2.4,2.9-3.4c3.2-3.2,6.5-6.1,9.8-9.3c1.3-1.2,2.4-2.9,3.6-4.2c-0.1-2.8-0.9-4-1.8-4.6
			c-2.3-1.8-4.7-3.6-7.1-5c-3-1.7-6-3.1-9.1-5.4c0.4-0.2,0.8-0.7,1.2-0.5c4.2,2.2,8.5,4.4,12.7,6.8c1.4,0.8,2.7,2.2,3.8,3.9
			c1.6,2.4,1.6,5.1-0.2,7.2c-2.2,2.7-4.6,4.8-6.9,7.2c-2.6,2.7-5.3,5.3-7.9,7.9c-0.2,0.2-0.4,0.2-0.6,0.2
			C526.1,851.9,526,851.6,525.9,851.2z"/>
	</g>
	<g class="st0">
		<path d="M497.5,897c-0.3-0.7-0.1-1.7,0.4-2.8s1.2-2.3,2.1-3.7s1.9-2.8,3-4.3s2.1-3.1,3-4.7c0.9-1.6,1.6-3.2,2.2-4.8
			s0.7-3.2,0.6-4.7c-0.1-0.3-0.4-0.4-0.7-0.6c-0.4-0.1-0.6-0.2-0.8-0.2c-1.9-0.1-3.7,0-5.4,0.4c-1.7,0.4-3.3,1-4.8,1.9
			c-1.5,0.8-3,1.9-4.3,3.1c-1.4,1.2-2.7,2.5-3.9,3.9c-0.1,0-0.3,0-0.6,0c-0.3,0-0.7,0-1,0s-0.6-0.2-0.9-0.3
			c-0.2-0.2-0.3-0.4-0.3-0.8c0.1-0.4,0.4-0.8,1-1.3s1.3-1.1,2.1-1.7c0.8-0.6,1.7-1.2,2.7-1.9c1-0.6,1.9-1.2,2.8-1.8s1.7-1,2.3-1.4
			s1.1-0.7,1.4-0.8c1.3-0.7,2.7-1.1,4.1-1.4c1.4-0.2,2.9-0.3,4.3-0.1c2,0.2,3.2,0.8,3.8,1.9c0.6,1.1,0.7,2.4,0.5,4
			c-0.3,1.6-0.9,3.3-1.8,5.2s-1.9,3.7-2.9,5.4s-2,3.3-3,4.7c-0.9,1.4-1.6,2.4-2,3.1c-0.2,0.4-0.4,0.8-0.6,1.3s-0.4,1-0.6,1.4
			s-0.5,0.8-0.8,1.2s-0.7,0.6-1.2,0.7c-0.3,0.1-0.4,0-0.5-0.1C497.6,897.5,497.6,897.3,497.5,897z M498.2,910.2
			c-0.6-0.5-1-1-1.1-1.5s-0.1-1,0.1-1.5c0.2-0.4,0.6-0.8,1.1-1c0.5-0.3,1.1-0.3,1.8-0.2c0.3,0,0.5,0.2,0.7,0.6
			c0.2,0.4,0.3,0.8,0.3,1.2c0,0.5,0,0.9,0,1.4c-0.1,0.5-0.2,0.9-0.5,1.1s-0.6,0.5-1,0.5S498.7,910.6,498.2,910.2z"/>
	</g>
	<g class="st0">
		<path d="M48.2,870.4c0.9,0.2,1.4,0.7,1.4,1.4l-0.3,2.2v0.7c0,1.5,0.2,3,0.5,4.6h0.1c3.9-1.2,6.3-1.8,7.2-1.8
			c1,0.3,1.5,0.8,1.5,1.5c0,1.1-1.2,1.7-3.5,1.7l-5.2,1.8c0,4.5,0.5,10.6,1.5,18.4c-0.2,0.9-0.7,1.3-1.5,1.3h-0.1
			c-1.2,0-1.8-1.5-1.8-4.5c-0.4-2.2-0.8-7.1-1.1-14.5H46c-3.1-0.2-4.7-0.9-4.7-2.2c0-0.4,0.4-0.8,1-1.3h0.5l2.3,0.6h1.6l-0.4-6.3
			C46.3,871.6,46.9,870.4,48.2,870.4z"/>
		<path d="M67,894.8l7.8-0.8c0.5,0.2,0.8,0.4,1,0.8v0.7c0,1.1-1.2,1.6-3.6,1.6c-0.9,0.3-2.6,0.6-5,0.9c-2.7,0-4.1-0.7-4.1-2.2
			c0-0.4,0.3-0.9,1-1.2h0.2l1.7,0.3L67,894.8L67,894.8z M64.8,890l2.4,0.7l6.2-0.5c1.1,0.2,1.7,0.8,1.7,1.8c0,0.5-0.3,1-1,1.2
			l-6.8,0.5c-2.3,0-3.6-0.7-4-2.2C63.6,890.5,64.1,890,64.8,890z"/>
		<path d="M88.9,865c3,0.5,4.6,2,4.6,4.5c0,3.4-2.2,7.5-6.6,12.4c0.6,1.5,1.2,5.6,2,12.2c0.3,0.3,0.5,0.8,0.5,1.2h0.2
			c0,0.9-0.6,1.4-1.9,1.5c-1.3,0-2.3-4-2.8-11.9c-0.4-1.7-0.9-2.5-1.5-2.5c-0.7-0.7-1.1-1.4-1.1-2c0.2-0.8,0.8-1.2,1.6-1.2l1.2,0.3
			c3.6-3.7,5.4-7.2,5.4-10.3c-0.2-0.6-0.6-1-1.1-1.2h-0.6c-2.2,0-4.2,2.2-6.2,6.5c0,2.2-0.4,3.2-1.2,3.2l-0.1,0.2h-0.2
			c-0.9,0-1.4-0.8-1.4-2.4v-0.1c0-3,1.8-6,5.4-9C86.3,865.5,87.6,865,88.9,865z M90.2,900.8c1.5,0.7,2.2,1.6,2.2,2.7
			c-0.3,0.8-0.9,1.2-1.5,1.2c-1.6-0.9-2.4-1.7-2.4-2.5S89.1,901,90.2,900.8z"/>
	</g>
</g>
<g>
	<path class="st11" d="M291.5,599.3c-8.7-0.3-16-8.1-15.7-16.7c0.3-9.1,9.1-18.1,17.5-17.8c9.4,0.3,17,8,16.5,17
		C309.3,591.2,300.5,599.6,291.5,599.3z M292.7,572.7c-5.2-0.1-10,4.6-10,9.7c0,4.5,4.4,9,8.9,9.2c4.9,0.2,10.2-5.2,10.2-10.3
		C301.9,576.7,297.8,572.8,292.7,572.7z"/>
	<path class="st12" d="M305.4,645.6c5.5,0.4,10.5,0.5,15.3,1.3c1.7,0.3,3.2,2.3,4.8,3.5c-1.8,1.2-3.6,3.5-5.3,3.4
		c-8.6-0.3-17.3-1.1-25.8-2.1c-1.4-0.2-2.9-1.6-3.9-2.8c-1.5-1.8-2.8-3.7-3.8-5.8c-7.9-15.7-15.9-31.4-23.4-47.3
		c-7.6-16.1-4.5-32.6,7.5-43.4c7.4-6.6,16-9.3,25.8-7.6c10.3,1.7,18.6,7.1,25.4,14.7c7,7.8,5.3,17.5,4.4,26.7
		c-1.8,17.3-9.9,32.6-16.4,48.3C308.4,638.1,307,641.8,305.4,645.6z M295.7,646.8c2.6-6,4.6-10.7,6.5-15.4c6.5-15.6,13.8-31,16.1-48
		c1.2-8.5,0.8-16.5-6.5-22.3c-8.4-6.6-17.6-11-28.6-6.9c-13.1,4.8-19.9,21.2-13.7,35.5C277.5,608.5,286.5,626.8,295.7,646.8z"/>
	<path class="st13" d="M295.7,646.8c-9.2-20-18.2-38.4-26.2-57.1c-6.2-14.3,0.6-30.7,13.7-35.5c11-4,20.2,0.3,28.6,6.9
		c7.3,5.8,7.7,13.8,6.5,22.3c-2.4,17-9.7,32.4-16.1,48C300.3,636.1,298.3,640.8,295.7,646.8z M291.5,599.3c9,0.3,17.8-8.1,18.3-17.5
		c0.4-8.9-7.1-16.7-16.5-17c-8.3-0.3-17.2,8.7-17.5,17.8C275.5,591.2,282.8,599,291.5,599.3z"/>
</g>
<path class="st14" d="M264,652.6c-3.5,0.2-6.8,0.4-10.3,0.3c-1-0.1-2.1-1.5-3.1-2.3c0.7-1.2,1.3-3.3,2.2-3.4
	c6.3-1.2,12.7-2.3,19.1-2.7c1.5-0.1,3.2,2.5,4.8,3.8c-1.5,1.1-2.9,2.7-4.4,3.2C269.6,652.2,266.8,652.2,264,652.6z"/>
<path class="st15" d="M116.3,646.6c3.7,0,7.3-0.1,11,0.1c2,0.1,4,0.4,5.8,1.2c1.1,0.5,2.3,2.3,2.2,3.3s-2,2.5-3.1,2.5
	c-9.8-0.2-19.6-0.6-29.3-1.2c-1-0.1-1.9-1.8-2.8-2.8c1.1-1,2.2-2.7,3.3-2.8C107.7,646.5,112,646.7,116.3,646.6
	C116.3,646.7,116.3,646.6,116.3,646.6z"/>
<path class="st10" d="M535.5,654.1c2-1.8,1.2-4.6-1.7-5.3c-1.7-0.5-3.6-0.2-5.4-0.3c-6.7-0.3-13.6-0.5-20.3-0.8
	c-1.5,0-3-0.1-4.4,0.3c-1.1,0.4-2.5,1.5-2.7,2.4c-0.1,1,1,2.6,2,3c10.3,5.1,21,3.4,31.7,1.1C534.9,654.6,535.2,654.3,535.5,654.1z"
	/>
</svg>
