<?xml version="1.0" encoding="utf-8"?>
<!-- Generator: Adobe Illustrator 25.1.0, SVG Export Plug-In . SVG Version: 6.00 Build 0)  -->
<svg version="1.1" id="Layer_1" xmlns="http://www.w3.org/2000/svg" xmlns:xlink="http://www.w3.org/1999/xlink" x="0px" y="0px"
	 viewBox="0 0 1878.8 940.8" style="enable-background:new 0 0 1878.8 940.8;" xml:space="preserve">
<style type="text/css">
	.st0{fill:#1D1F27;}
	.st1{fill:#1F2128;}
	.st2{fill:#1E2028;}
	.st3{fill:#FFFFFF;}
	.st4{fill:#1E2027;}
	.st5{fill:#1E1F27;}
	.st6{fill:#202020;}
	.st7{fill:#20222A;}
	.st8{fill:#1B1D25;}
	.st9{fill:#25272F;}
	.st10{fill:#1C1E26;}
	.st11{fill:#22242B;}
</style>
<path class="st0" d="M793.1,651.3l4.9-6.8c0,0-14.7-0.2-22,0.1c-1.6,0.1-3.2,1.9-4.8,2.9c1.5,1.3,2.9,3.5,4.5,3.7
	C780,651.6,793.1,651.3,793.1,651.3z"/>
<path class="st1" d="M1366.2,434.2c2-1.8,1.2-4.6-1.7-5.3c-1.7-0.5-3.6-0.2-5.4-0.3c-6.7-0.3-13.6-0.5-20.3-0.8
	c-1.5,0-3-0.1-4.4,0.3c-1.1,0.4-2.5,1.5-2.7,2.4c-0.1,1,1,2.6,2,3c10.3,5.1,21,3.4,31.7,1.1C1365.6,434.7,1365.9,434.4,1366.2,434.2
	z"/>
<g>
	<path class="st0" d="M1673.8,603.2c-8.7-0.3-16-8.1-15.7-16.7c0.3-9.1,9.1-18.1,17.5-17.8c9.4,0.3,17,8,16.5,17
		C1691.6,595.1,1682.8,603.5,1673.8,603.2z M1675,576.6c-5.2-0.1-10,4.6-10,9.7c0,4.5,4.4,9,8.9,9.2c4.9,0.2,10.2-5.2,10.2-10.3
		C1684.2,580.6,1680.1,576.7,1675,576.6z"/>
	<path class="st2" d="M1687.7,649.5c5.5,0.4,10.5,0.5,15.3,1.3c1.7,0.3,3.2,2.3,4.8,3.5c-1.8,1.2-3.6,3.5-5.3,3.4
		c-8.6-0.3-17.3-1.1-25.8-2.1c-1.4-0.2-2.9-1.6-3.9-2.8c-1.5-1.8-2.8-3.7-3.8-5.8c-7.9-15.7-15.9-31.4-23.4-47.3
		c-7.6-16.1-4.5-32.6,7.5-43.4c7.4-6.6,16-9.3,25.8-7.6c10.3,1.7,18.6,7.1,25.4,14.7c7,7.8,5.3,17.5,4.4,26.7
		c-1.8,17.3-9.9,32.6-16.4,48.3C1690.7,642,1689.3,645.7,1687.7,649.5z M1678,650.7c2.6-6,4.6-10.7,6.5-15.4
		c6.5-15.6,13.8-31,16.1-48c1.2-8.5,0.8-16.5-6.5-22.3c-8.4-6.6-17.6-11-28.6-6.9c-13.1,4.8-19.9,21.2-13.7,35.5
		C1659.8,612.4,1668.8,630.7,1678,650.7z"/>
	<path class="st3" d="M1678,650.7c-9.2-20-18.2-38.4-26.2-57.1c-6.2-14.3,0.6-30.7,13.7-35.5c11-4,20.2,0.3,28.6,6.9
		c7.3,5.8,7.7,13.8,6.5,22.3c-2.4,17-9.7,32.4-16.1,48C1682.6,640,1680.6,644.7,1678,650.7z M1673.8,603.2c9,0.3,17.8-8.1,18.3-17.5
		c0.4-8.9-7.1-16.7-16.5-17c-8.3-0.3-17.2,8.7-17.5,17.8C1657.8,595.1,1665.1,602.9,1673.8,603.2z"/>
</g>
<g>
	<path class="st4" d="M1196.2,424.5c-0.2,0-0.5,0-0.8,0c-1.8-0.2-3.4-1.4-4.4-2.5c-12.1-13.5-20.7-27.4-26.5-42.4
		c-2.7-7-3.3-13.4-1.8-19.5c3.1-12.9,14.9-22.6,28-23.1c0.7,0,1.4,0,2.1,0c10.6,0,18.4,3.2,24,9.8c7.3,8.5,9,18.4,5,28.4
		c-3.9,9.7-8,19.4-11.9,28.9c-1.8,4.4-3.6,8.7-5.4,13.1c-0.3,0.8-0.6,1.5-0.9,2.3l-0.1,0.1C1202.9,420.7,1200.8,424.5,1196.2,424.5z
		 M1192.8,344.2c-8.8,0.1-18.7,6.1-21.7,13.2c-2.6,6.1-2.4,12.5,0.5,19.8c6.2,15.8,15.7,29.1,24.3,40.1c0.1,0.2,0.2,0.3,0.3,0.4
		c0.2-0.3,0.3-0.7,0.4-0.9c1.6-3.7,3.1-7.3,4.7-11c4.4-10.2,8.9-20.8,13.1-31.3c1.6-4.1,2.3-8.5,1.8-12
		c-1.5-11.1-10.7-18.2-23.2-18.2h-0.2L1192.8,344.2L1192.8,344.2z"/>
	<path class="st4" d="M1202.3,418.8c-1.3,2.4-3.2,4.5-6.7,4.2c-1.3-0.1-2.6-1.1-3.5-2c-11.1-12.5-20.2-26.3-26.2-42
		c-2.3-6-3.3-12.2-1.8-18.7c2.9-12.1,14.2-21.6,26.7-22.1c9.6-0.4,18.5,1.6,25,9.3c6.8,8,8.7,17.1,4.7,27c-5.7,14-11.6,28-17.4,42
		C1202.9,417.2,1202.6,418,1202.3,418.8z M1192.8,342.8c-9.4,0.1-19.8,6.5-23,14c-3,7.1-2.3,14,0.5,20.9
		c5.9,14.9,14.7,27.9,24.4,40.4c1.8,2.3,2.5,0.8,3.2-0.9c6-14,12.1-28,17.8-42.3c1.6-3.9,2.5-8.6,1.9-12.7
		C1216,350.1,1206.1,342.7,1192.8,342.8z"/>
	<path class="st5" d="M1192.4,384.9c-4.4,0-8.5-1.7-11.6-4.9c-3.2-3.2-4.9-7.4-4.8-11.9c0.1-12,8.4-17.9,16-18.3c0.2,0,0.4,0,0.7,0
		c3.8,0,7.9,1.9,11.3,5.3c3.7,3.8,6,8.7,5.9,13.2C1209.9,377.9,1202.5,384.9,1192.4,384.9z M1183.3,368c0.2,4.9,3.5,8.8,7.7,9.1
		c0.8,0.1,1.6,0.1,2.3,0.1c4,0,7-1.1,8.7-6.5c1.3-4.2-0.7-8.3-5.8-11.5c-1.8-1.1-3.5-1.7-5-1.7c-3.4,0-5.4,2.8-6.5,5.2
		c-0.4,0.9-0.6,2-0.9,3.2C1183.7,366.6,1183.5,367.3,1183.3,368z"/>
	<path class="st5" d="M1208.5,368.4c0,8.8-6.7,15.1-16.1,15.1c-8.2,0-15.1-6.9-15-15.3c0.1-11.1,7.8-16.5,14.7-16.9
		C1200.1,350.8,1208.5,360,1208.5,368.4z M1181.9,367.8c0.2,5.5,3.8,10.3,9,10.7c6.2,0.5,10.3-0.7,12.4-7.4c1.6-5-0.8-9.6-6.4-13.1
		c-5.7-3.5-10.8-2-13.6,4.1C1182.7,363.9,1182.4,365.9,1181.9,367.8z"/>
	<path class="st3" d="M1192.8,342.8c13.3-0.1,23.1,7.3,24.7,19.4c0.5,4.1-0.3,8.8-1.9,12.7c-5.6,14.2-11.8,28.2-17.8,42.3
		c-0.7,1.7-1.4,3.2-3.2,0.9c-9.7-12.5-18.6-25.5-24.4-40.4c-2.7-6.9-3.5-13.8-0.5-20.9C1173,349.2,1183.4,342.8,1192.8,342.8z
		 M1208.5,368.4c0-8.4-8.4-17.6-16.4-17.1c-6.9,0.4-14.6,5.7-14.7,16.9c-0.1,8.4,6.7,15.4,15,15.3
		C1201.8,383.5,1208.5,377.2,1208.5,368.4z"/>
</g>
<g>
	<path class="st0" d="M794,611.8c-8.4-0.5-14.1-4.6-16.6-11.8c-2.4-7.3,0-15.1,6.2-19.9c0.7-0.5,1.3-1,2.1-1.5
		c2.8-1.9,6-2.9,9.2-2.9c6.5,0,12.2,4.1,14.7,10.7c3.8,9.8,0.3,19.4-8.5,23.5c-1.5,0.7-2.9,1-4.3,1.3c-0.6,0.1-1.2,0.3-1.8,0.4
		l-0.5,0.1L794,611.8z M795.4,584c-0.7,0-1.8,0.4-3.2,1.2c-1.2,0.7-2.5,1.4-3.6,2.4c-2.8,2.4-3.9,5.1-3.3,8.3c0.7,4,2.3,6.3,8.5,7.1
		c0.3-0.1,0.7-0.1,1-0.2c0.9-0.2,1.8-0.4,2.4-0.7c2.7-1.2,4.5-3.8,5-7c0.5-3.5-0.8-7-3.4-9.2C796.9,584.2,796,584,795.4,584z"/>
	<path class="st0" d="M794.2,609c-7.2-0.5-12-3.7-14.1-9.8c-2-6.1,0-12.7,5.2-16.8c0.6-0.5,1.2-0.9,1.8-1.3c7.5-5,16.5-2,19.7,6.5
		c3.2,8.3,0.5,16.4-7,19.9C798.1,608.2,796.1,608.4,794.2,609z M794.1,605.8c1.5-0.4,3.1-0.5,4.5-1.2c7.9-3.6,9.1-15.1,2.2-20.9
		c-3.6-3-5.7-3.3-9.8-1c-1.4,0.8-2.8,1.6-4.1,2.7c-3.4,2.9-5,6.5-4.2,11C783.7,602.4,787.1,605.1,794.1,605.8z"/>
	<path class="st0" d="M791.5,651.6c-3.7,0-5.4-2.8-6-4.4c-0.6-1.4-4.7-10.6-6.6-15.2l-1.5-3.7c-3.3-7.9-6.7-16.1-9.9-24.3
		c-1.3-3.3-2.7-7.6-2.9-12c-0.4-11.2,4.6-20.2,14.1-25.5c5.3-2.9,11.2-4.5,16.9-4.5c8.5,0,16.5,3.3,23.2,9.5c7.5,7,10.2,16.4,7.8,28
		c-1.8,8.9-6,16.6-10.5,24.5c-5.4,9.3-11.1,17.3-17.4,24.4C796.8,650.6,794.4,651.7,791.5,651.6L791.5,651.6z M795.3,570.9
		c-0.9,0.1-1.9,0.2-2.9,0.4c-3.6,0.5-7.7,1.4-11,3.9c-5.9,4.5-11.2,13.7-6.4,25c4.3,10.3,8.7,20.8,13,30.9c1.6,3.9,3.3,7.8,4.9,11.7
		c1-1.4,2-2.9,3.1-4.3c3.8-5.3,7.7-10.8,11.2-16.3c5.5-8.7,9-16.3,11-24c2-7.4,0.5-14.1-4.2-19.3c-4.4-4.8-10.4-7.5-17.9-8
		L795.3,570.9z"/>
	<path class="st0" d="M788.2,646.2c0,0-4.5-10.3-6.7-15.4c-3.9-9.3-7.8-18.5-11.4-27.9c-1.4-3.5-2.6-7.3-2.7-11
		c-0.3-10,3.9-18.1,12.6-22.9c11.8-6.5,25.9-5.6,36.8,4.6c7.4,6.9,8.9,15.8,7,25.4c-1.7,8.6-5.9,16.2-10.2,23.6
		c-5,8.5-10.6,16.5-17.1,23.9c-1.4,1.5-3,2.4-5.1,2.3C788.8,648.8,788.2,646.2,788.2,646.2z M795.9,567.9c-1.2,0.2-2.6,0.3-4.1,0.5
		c-4.4,0.6-8.6,1.7-12.2,4.4c-7.2,5.4-12.5,16.1-7.3,28.4c6.1,14.6,12.3,29.2,18.4,43.8c0.7,1.7,2.5,2,3.6,0.4
		c5.1-7.3,10.4-14.4,15.1-21.9c4.9-7.7,9-15.9,11.3-24.8c2.1-8.1,0.7-15.8-4.8-21.9C810.9,571.3,804,568.4,795.9,567.9z"/>
	<path class="st3" d="M795.9,567.9c8,0.5,15,3.3,20.1,9c5.6,6.2,7,13.8,4.8,21.9c-2.3,8.9-6.5,17.1-11.3,24.8
		c-4.7,7.5-10.1,14.6-15.1,21.9c-1.1,1.5-2.9,1.3-3.6-0.4c-6.2-14.6-12.4-29.2-18.4-43.8c-5.1-12.4,0.2-23,7.3-28.4
		c3.6-2.7,7.9-3.8,12.2-4.4C793.3,568.2,794.7,568.1,795.9,567.9z M794.2,609c1.9-0.5,3.9-0.8,5.7-1.6c7.5-3.5,10.3-11.5,7-19.9
		c-3.3-8.5-12.2-11.4-19.7-6.5c-0.6,0.4-1.2,0.9-1.8,1.3c-5.2,4.1-7.2,10.7-5.2,16.8C782.2,605.2,787,608.5,794.2,609z"/>
</g>
<g id="trenner">
	<g>
		<g>
			<g>
				<g>
					<path class="st6" d="M572.2,797.4c0,0.1,0.1,0.1,0.1,0.2C572.3,797.4,572.2,797.4,572.2,797.4z"/>
					<path class="st6" d="M574,724.8v0.8C574.1,725,574,724.8,574,724.8z"/>
					<path class="st6" d="M572,841C572,840.9,572,840.9,572,841c0,0.6,0,1.5,0,3V841z"/>
					<path class="st6" d="M582.2,569.9l-0.1,1C582.2,570.5,582.2,570.2,582.2,569.9z"/>
					<path class="st6" d="M576.5,661.6c0-0.3,0-0.8,0-1.2C576.4,661,576.4,661.5,576.5,661.6z"/>
					<path class="st6" d="M569.4,864.1l0.2-1.2C569.5,862.8,569.4,863.3,569.4,864.1z"/>
					<path class="st6" d="M571.2,908.3L571.2,908.3C571.2,908.1,571.2,908.1,571.2,908.3z"/>
					<path class="st6" d="M571.6,891c0-0.4-0.1-0.8-0.1-1.2C571.5,890.3,571.5,890.9,571.6,891z"/>
					<path class="st6" d="M571.4,889.1c0,0.2,0,0.4,0.1,0.6C571.4,889.4,571.4,889.1,571.4,889.1z"/>
					<path class="st6" d="M588.2,6.9c-0.1-1.3-0.3-2.3-0.6-3.5L588.2,6.9z"/>
					<path class="st6" d="M593,429.9l0.1,0.3C593.1,429.9,593.1,429.9,593,429.9z"/>
					<path class="st6" d="M586.4,5.4V4.5C586.3,4.9,586.3,5.1,586.4,5.4z"/>
					<path class="st6" d="M568.6,840.6c-0.2-1.3,0-3.9-0.2-3.9C568.5,838.1,568.4,840,568.6,840.6z"/>
					<path class="st6" d="M588,399.8V399C588.1,399.4,588,399.6,588,399.8z"/>
					<path class="st6" d="M586.4,5.4v1c0-0.1,0-0.2,0.1-0.3C586.4,5.9,586.4,5.7,586.4,5.4z"/>
					<path class="st6" d="M599.7,283.6L599.7,283.6c0,0.2,0,0.2,0,0.3V283.6z"/>
					<path class="st6" d="M600.1,275.8c0,0.5,0,1.1,0,1.7C600.2,276.6,600.2,276.1,600.1,275.8z"/>
					<path class="st6" d="M587.6,3.4l-0.3-2C587.4,2.1,587.5,2.8,587.6,3.4z"/>
					<path class="st6" d="M599.5,192.1c0,0.3,0,0.5,0,0.8C599.5,192.5,599.5,192.2,599.5,192.1z"/>
					<path class="st6" d="M576.1,667.5c0,0.2,0,0.5-0.1,0.7C576.1,668.3,576.1,668.2,576.1,667.5z"/>
					<path class="st6" d="M574,609.6L574,609.6L574,609.6C574,609.5,574,609.6,574,609.6z"/>
					<path class="st6" d="M574.1,612.6c0.1-1,0-2.3-0.1-3.1C574,610.5,574,611.4,574.1,612.6z"/>
					<path class="st6" d="M574.5,602.9c0,0.1,0,0.2,0,0.4C574.5,603.2,574.5,603.1,574.5,602.9z"/>
					<path class="st6" d="M571,665L571,665L571,665L571,665z"/>
					<path class="st6" d="M571.5,652.7c0-0.2,0.1-0.5,0.1-0.8C571.5,652,571.5,652.3,571.5,652.7z"/>
					<path class="st6" d="M575.9,572.3C575.9,572.4,575.9,572.4,575.9,572.3L575.9,572.3L575.9,572.3z"/>
					<path class="st6" d="M583.3,456.6c-0.8,11.6-1.6,26.7-2.7,38.1c0.2,2.5-0.1,6.2-0.3,9.9l-0.5,0.3l-0.1,3.1
						c-0.3,1.2,0.1-2.4-0.3-0.2l0.2,1.2c-0.2,0.2-0.7,7.8-0.7,2.7l-0.9,11.9c-0.2,2.6,0.3,1.6,0,4.5c-0.2,0.6,0-1.1-0.2-0.8
						c-1,8.7,0.2,10.2-0.6,18.3v-0.7c0,0.7,0,1.7-0.1,2.5s-0.1,1.5,0,1.5c0.6-1-0.2-1.5,0.3-3.9c0.4,0.2,0,3.1,0.4,3
						c-0.3,1.9-0.1,3-0.2,4.7c-0.5,2.8-0.6,6.9-1.1,9c0,1.4,0.4,3,0.2,6c-0.5,2.1-0.3-0.5-0.6,2.4l0.2,0.5c-0.2,2.4-0.2,2-0.4,1.9
						c-0.2,2.6,0.2,2.1-0.2,5.3l-0.1-1.8c-0.1,2.4-0.2,3.3-0.4,6.6c-0.1-0.1,0-1.4,0.1-2.4c-0.5,1.8,0,3.1-0.1,4
						c0.1-0.3,0.3-2.5,0.5-1.4c-0.2,1.6,0.1,3.5-0.3,4.7l-0.1-1.8c0,3.4,0.2,1.8-0.2,5.7c0-0.2-0.1-0.1-0.1-0.2
						c0.2,2.5-0.3,5.7-0.6,9.4v-0.7c0,1.5,0.2,2.3,0.1,3.1c0.3-2.1,0.3-1.5,0.6-1.7c-0.6,2.7,0.2,4.2-0.3,8.7
						c-0.1-0.1-0.3-1.2,0-2.4c-0.3-1.6-0.7-1.8-0.7-4.5c0,1.7-0.1,3.7-0.2,3.3l0.4,0.6c-0.1,1-0.1,1.9-0.2,2.6
						c0.2,0.5,0.5-2.1,0.6,0.3c0,2.7-0.5,1.4-0.3,1.8c-0.1,3.7,0.3,1.6,0,5.1c0-0.4,0-1.1,0-1.4c-0.3,2.6-0.3,6.3-0.8,7
						c-0.1-0.4-0.2-0.5-0.1-1.4h0.1c-0.2-2.8,0,2.4-0.4,1.5c0.3-0.2,0,3.4-0.1,5l0.3-0.5c0.6,5.5-0.6-0.3-0.7,5
						c0,3.4,0.1-1.3,0.2,0.8c-0.2,2.3-0.5,3.1-0.5,6.5c-0.2,0.9-0.4,2.8-0.7,3c0,2-0.5,6.2-0.2,7.4c0.4-3.5-0.2-3.5,0.5-7.6l0.3,1.2
						c-0.2,2.8-0.2,6.4-0.4,8.4c0.1-0.4,0.2-0.6,0.2-0.3c-0.1,4,0.2,5.2-0.1,9.1c-0.3,0.5-0.2-1.8-0.1-3.5c-0.3,2.5-0.1,2.6-0.4,6.6
						c-0.3,0.2,0.1-2.6-0.1-3.1L571,665c0,0,0,0-0.1,0c0.4,0.6-0.2,3.3-0.2,6c-0.3,6.3,0.3,7.3,0.5,10.8c-0.2,0.9-0.3,1.2-0.4,0.8
						c0.3-1.5,0.1-1.3,0-1.8c0,2.1-0.6,4.6-0.7,3.4c0,3.4,0.3-1.2,0.3,0.9l-0.2,4.6c0.2-0.5,0.3-2.2,0.4,0.2c0,2-0.1,3-0.2,5.6
						c-0.1-0.4-0.4,0.8-0.3-1.2c-0.1,1.3-0.2,3.3,0,4c0.3-2.9,0,4.7,0.4,2.6l-0.3,2.9c0-0.7-0.1-0.7,0-1.7c-0.4,0.8,0,2.4,0,3.4
						c-0.1,1-0.2,3.6-0.3,3.9c0.1,0.9-0.1,3.1-0.3,3.6c0,1.4,0.2,0.1,0.3,0.5l0.1,4.5c-0.2,0.2-0.7,0.6-0.8-0.1
						c0.1,1.8,0.5,0.6,0.5,3.3c-0.3-1.5-0.4,3.5-0.7,1.3c-0.3,1.5-0.4,5.8-0.3,8.2c0.2,1.5,0.2-2.6,0.5-2.4c0,6.7,0.7,7.1,0.5,12
						l0.1-1.3c0.1,3.1,0.1,2.7,0.3,4.5c-0.3-0.9-1.1,3.4-1.1,8.5c0.2,0.4,0.4-2.8,0.7-2v3.3c0,0.2-0.1-0.1-0.1-0.6
						c0.1,3-0.5,5.5-0.1,6.4l-0.6,3l0.2-1.2c0.2,0.4,0.2,3.8,0.2,4.5c0.2,3.4,0,4.7-0.3,6.5c0.2-0.6,0.5-2.1,0.5,0.6
						c-0.6,0-0.3,5.6-0.6,5.6c0,1.1-0.2,3,0,3.1l-0.4-0.2c0.5,0.3,0.4,4.2,0.5,7.2c-0.7-0.7,0,3.3-0.6,4.7c0.5,0.6,0.2,5.4,0.6,5.9
						c0,2.3-0.4,2.1-0.6,2.7l0.2,1.1c-0.2,1.2-0.3,5.6-0.4,8.2l0.4,2.4l-0.2,0.9c0.1,0.4,0.2,2.4,0.3,1.2v1.3
						c0.4,0.1,0.1,1.8,0.3,4.5c-0.1,0.6-0.2,0.4-0.2-0.1c0,1.3-0.2,0.7-0.4,1.5c0.1-0.9,0.8,4.7,1,1.2c0.2-0.2,0.3,1.8,0.3,3.1
						l-0.4,0.8l0.4,1.5c0.1,2-0.2,2.9-0.2,4.5c0-1.7-0.8-3.7-0.8,0.6c-0.1-2.3-0.3-3.4-0.4-4.5c0,0.9,0,1.3-0.2,0
						c0.2,3.4,0.3,1.1,0.3,4.5c-0.4-0.2-0.5,0.8-0.6,3.7l0.2-2.2c0,0.1,0.1,0.2,0.1,0.4c0-0.8,0.1-1.1,0.2-1.2
						c0,0.7,0.5,3.9,0.3,4.4c0.5-3.4,0.5,5.8,0.8,3.7c0.1,0.4,0.2,2.7,0,3c-0.3-2.8-0.4,2.1-0.6,1.7c0.1,1,0.2-2.2,0.4-0.8
						c0,1.7-0.2,2.9-0.3,3.8l-0.1-0.7l-0.1,2.6c0.2,0.4,0.3-2.5,0.4-0.1c-0.1,0.6,0,3-0.1,2.9c-0.3-1.1-0.6-0.3-0.7-2.3
						c0,1.7,0.1,7,0.5,4.8v2c0.1-1.3,0.4-4.8,0.5-0.8h-0.1l0.3,2.8l-0.2,1.2c0.1,0,0.2,0.4,0.2,1.4c-0.1,0.3-0.1,1.2-0.3,1.2
						c0.1,3,0.3,2.7,0.4,3.1c0.1,1.7,0,2.3-0.2,1.5c0,2.3,0.1,6.3,0,7.9c0.2,3.1,0.1-0.6,0.3,1.2c-0.6,2.7,0,10.1,0.2,15.1
						c0.5-1.4,0.1,1.4,0.6,2.3c-0.2-1.1-0.3,4.8-0.6,0.4l0.1,2.7c-0.3,1.8-0.3-4.4-0.7-1.6c0.1,3,0.7,4.9,0.6,8.5
						c-0.4-1.2,0.2,2.7-0.3,1.8c-0.2-0.7-0.1-1.7-0.2-2.7l-0.1,0.6c0,6.6,0.5,1.9,0.9,5.3c0.1,4-0.2,3.2-0.4,3.4
						c-0.1,0.6,0,2.6,0.2,3.7c-0.3-2.4,0.1-4.5,0.4-3.4c-0.4,1.8,0.1,5.9,0.3,7c0.3-5.7-0.1-4,0.3-9.3c-0.2-0.7-0.6-0.6-0.5-3.8
						c0.2,2,0.2-0.1,0.3-0.7c-0.2,0.6-0.1-2.2-0.3-3.2c0.2-0.9,0.6,1.9,0.6-1.3l-0.6-0.6c0.1-1.3,0.4,0.5,0.2-2.2
						c0.3,1.5,0.4-0.5,0.6,3.2c0.4-4.4-0.4-6.7-0.7-10.1c0,0.3,0.1,0.4,0.2,0.7c-0.2-0.7-0.2-2-0.2-3.1c0.1-2.3,0.3,1.8,0.4,1.2
						l-0.1-3.6c0-0.1,0-0.1,0-0.1c-0.1-1-0.2-1.9,0-2.2c0.2,1.1,0.4,1.5,0.5,2.2l-0.5-3.8c0.2,0.4,0.2-3.2,0.4-0.4l-0.2-5.7l0.4-0.5
						c-0.1-1.4-0.2-1.4-0.2,0.2c0-1.9-0.8-8.6-0.1-7.6c-0.4-4.4-0.3-6-0.6-11.4c0.4,4.1,0.4-4.7,0.6-0.4c0.1-2.6-0.3-3.1-0.3-5.1
						c0.1-1.9,0.5-1.1,0.7,1l-0.2-2.4h0.1l-0.2-2.1c0.2-2.2,0.4-0.5,0.4-2.8l-0.3-0.5l0.2-1.6c-0.1,0.6-0.2-0.8-0.3-2.4h0.1l-0.1-2
						c0.2,2,0.1-1.8,0.3-0.9c0-1.7,0-1.8-0.1-4.9l-0.2,0.5c-0.2-4.1,0.3-0.2,0.3-3.5l-0.3,0.2c0.4-4.7-0.3-8.1-0.1-11.6
						c0.1,2,0.4,1.5,0.3,1.5c-0.1-3,0-7.9-0.3-11.1c0.4-1.1,0.5-1.4,0.7-4.6c0-2.3-0.1-2.7-0.3-3.4c0.1-2.3-0.1-6.5,0.2-6.6
						c-0.2-0.5,0-2-0.1-3.3l0.1-0.3l-0.3,0.2c0.6-4-0.3-6.8,0.2-10.8l0.1,0.7l-0.1-1.7c0.1-0.3,0.2,0.4,0.3,0.5l0.1-7.9l-0.2,1.6
						c0-1.7-0.2-2.8-0.1-4.7c0.3,3.2,0-2.6,0.3-3.1l0.1,1.7c0-2.3,0-2.3-0.3-2.1c-0.1-3,0.5-2.1,0.3-4.8v2c-0.2,0.6-0.3-0.8-0.3-2.2
						c0-0.3,0.2-1.2,0.2-0.2c-0.1-2.4,0.1-5.9,0-7c0.1-1.3,0.3-0.9,0.3-0.2c-0.2-5.1,0.1-2.3-0.1-7.4l0.1,0.1l-0.1-1.7l0.4-2.5
						l-0.2,0.9c0-1.7-0.1-2.7,0.1-4.7l0.2,0.8c0-4.7,0.5-5.4,0.3-9.9c0-0.3,0.1,0.4,0.1,0.7c-0.2-4.2,0.5-3.1,0.1-7.3
						c0.1,0.3,0.2-0.2,0.2,0l-0.1-1.9l0.3,0.2l-0.4-1.6l0.3-1.2l-0.1-0.7c0.6-2,0.3-4.9,0.8-7.6l-0.4,0.5c-0.5-7,0.9-16,0.8-24.4
						l0.3,0.2l-0.2-3.5c0.3-1.9,0.2,1.1,0.4,0.6c0-3.7-0.4-1.6-0.3-5.9c0.3-2.2,0.2,0.8,0.2,1.8c0-4.1,0.1-10.1,0.4-12.9
						c0-0.1-0.1-0.2-0.1-0.1c0-2.7,0.3-6.3,0.4-9.3c0.1,0.1,0.1,0.8,0.1,1.6c0.1-1.1,0.2-2.5,0.1-3.5l0.2,1.1
						c0.1-2.3,0.1-6.7,0.4-7.2c-0.1,0.3-0.3,0.1-0.2-1.8c0.5-1.1,0.1-5.4,0.5-8.5c0.1,0.4,0,2.7,0,2.1c0.2-1.6,0.1-3,0-4.4l0.2,0.4
						l0.1-7.4c0.5-1.1,0.3-7,0.6-6.5c0.2-2.6-0.3,2.2-0.2-1.1c0.2-0.9,0.1-3,0.4-2.9v0.4l0.1-2.3l0.2,1.5c0.1-2-0.1-3.5-0.4-3.6
						c0.3-1.9,0.3-4.6,0.6-5.5v0.7c0.2-5.4,1.3-8.8,1-13c0.1-0.3,0.1-0.3,0.1,0.4l0.2-3.3l0.2,0.8v-5.5l0.1,0.1
						c0.3-3.6,0.6-9.2,0.8-13.9v0.7c0.1-5.1,0.5-4.9,0.5-8.6c0,0.1,0,0.3,0,0.4l0.2-3.3l0.1,0.7c-0.1-2.5,0.9-7,0.5-5.5
						c0-1.4,0-3.8-0.2-4.2c0.2-3.6,0.2-0.9,0.5-3.1c0.2-2.6,0-3.1,0.4-6.7l0.1,0.1c0.1-1.7,0.1-2.7,0.2-5v0.7c0-3.8,0.8-4.7,0.4-7.7
						c0.2-1.6,0.4-4.6,0.7-4.4c0.2-4.7,0.4-8.4,0.6-13.1c0.5-0.7,0-1,0.5-3.8l-0.3,0.2c0.5-6.6,1.7-14.2,2.2-21.5l0.3-0.2l-0.2-1.5
						c0.7-7.8,1.7-18,2.2-24.3c0-2.1,0-5.2,0.3-8.5v0.3c0.3-5.7,0.7-11.7,1.3-17.9c0.1,0.4,0.2-0.2,0.2,0.5c-0.2-1.5,0.3-3.6,0.4-5
						l-0.3,1.5c-0.1-1.8,0.3-4.3,0.6-5.2l-0.1-2.8c0-0.2,0.1-0.5,0.1-0.5l-0.1-0.5l0.4-1.5c0-0.7,0.2-4.4-0.1-5.6
						c0.1-0.3,0.4-2.9,0.3-0.8l0.8-10.2l-0.2,1.6c-0.3,0.2-0.2-2.9,0-4.5c0.1,2.1,0.3,0.2,0.6-0.7c0-1.4-0.3,1.2-0.4,0.4
						c-0.1-1.8,0.1-5.4,0.3-6.4v1c0.1-2.4,0.6-3.4,0.7-5.8c-0.1-2.1,0.2-3.6-0.2-3.2c0.1-3,0.4-1.1,0.5-2.1
						c-0.1-1.4,0.2-5.7,0.5-6.2c-0.5-1.7,0.7-8.1,0.2-8.8l0.4-2.5c-0.1-0.1-0.4-0.6-0.4-2.6c0.2-1.9,0.5-1.4,0.7-2l-0.5-1.3
						c0.5-5.5,0.9-11.8,1.2-18.3s0.6-13.1,1-19.1c0-5.4,0-12.1,0.3-18.4v0.7l0.3-6.2l-0.4,4.5c0-1.4-0.1-2.4-0.1-3.7
						c0.4-6.8,0.8-15.9,0.7-24.3c-0.6-5.5,0.6-3.6,0.2-8.8c0.1,0.4,0.1,0.6,0.2,1c-0.1-5.6-0.2-8.7-0.5-14.3c0.6,0.7,0-3.7,0.3-3.2
						l-0.2-0.5c0.2-1.2,0.2-4.2,0.4-3.8l-0.3-2.5l0.3-0.2c0-3.3-0.2-10.4,0.3-12.1c-0.4-8.1-0.4-21-0.4-31.2
						c-0.2-1.4-0.3-4.4-0.4-6.8l0.3-2.5c-0.1-2.4-0.6-4.9-0.4-7.1c0,0,0.1,0.1,0.1,0.3c-0.1-2.4,0-4.7-0.3-7c0-2.6,0.1-5.2,0.4-4.4
						c-0.5-0.2-0.1-5.6-0.1-5.6s-0.2-8.5-0.5-21.7c-0.2-6.6-0.5-14.4-0.8-22.9c-0.1-4.3-0.4-8.7-0.6-13.3c-0.2-4.6-0.5-9.2-0.7-14
						c-2-38-5.8-80-8.6-96.4c-0.3-1.1-0.8-4.1-1-2.9c-0.3-2.4,0.1-3.5-0.2-3.9c0.1,3.2-0.7-0.9-0.8,2.2l-0.2-2
						c-0.2-0.4,0.4,2.7,0.1,2.3l0.5,0.5c0.1,1.6,0,2.5-0.1,3.1c0.3,1.5,1,2.4,1.1,6.1l-0.1-1c0.3,3-0.1,1.9-0.2,2.5l-0.1-0.7v2.5
						c0-1.9-0.7-5-0.5-3.4c0.2,3.6,0-0.9,0.3,1.7c0.2,1.7-0.1,1.2-0.3,1.1l0.3,3c-0.2-0.1-0.2-2-0.3-0.7l0.5,3.7
						c-0.5,0.7,0.6,4.1,0.2,5.8c-0.4-2.7-0.2,0.3-0.4-0.2l0.6,6.6c0,0.6-0.3-1.7-0.2-0.7c-0.1,1.3,0.3,2,0.3,2.7
						c-0.1,0.6,0.4,4.9,0,4.8c0.1,4.5,0.6,1.9,0.7,6c-0.2,0.6-0.3-3.3-0.4-1.4l0.4,4.3c-0.1-0.4-0.4-0.8-0.5-2.4
						c0.6,11.7-0.1,18.1,0.8,28.8c-0.2,1.5-0.2-1.1-0.5-2.1c0.8,7.7,0.1,11,0.5,17.6l0.2,0.1c-0.1,9.3,0.8,20.3,1.1,30.8l0.1-1.3
						c0.3,1.4,0.4,3.7,0.6,5.4c-0.1,0.3-0.5-1.2-0.3,1.8c0.1-0.6,0.1-1.9,0.2-1.5c-0.2,9,0.8,27.9,0.9,42.6c0.2,5,0.4,10.1,0.5,15.2
						c0.1,5.1,0.1,10.3,0.2,15.5c0.1,10.3,0.2,20.6,0.3,30.4c0-3,0.5-1.7,0.4,0.5c-0.8,6.1,0.2,10.7-0.4,16.9
						c0.1,5.7,0,11.1-0.1,16.4c-0.1,5.3-0.2,10.5,0.1,15.8l-0.3,0.2c-0.1,1.6,0,2,0,3.7h-0.1c-0.1,3.9,0,8.7-0.2,10.9l0.3,0.1
						c0,2.3-0.2,1.2-0.1,3.6l-0.1-0.1l0.2,2.8c-0.5-0.3-0.2,6.6-0.4,8.4c0,3,0,8.8-0.2,13.3c-0.3,0.8-0.4,6.5-0.7,10
						c-0.2,7-0.5,16.9-1,25.8l0.3-0.1l-0.1,2.3c-0.1,0-0.1,0.3-0.1-0.1c-0.5,1.8-0.1,5.3-0.5,7.2c0.4-1.2,0.1-1.6,0.2-2.9
						c0.2-1.9,0.5-0.1,0.2,2.5l1,0.1l0.1,1.8c-0.3,0.2-0.5,1.8-0.7,2c-0.3,7.6-0.2,12.8-0.8,20.7c-0.2-0.8-0.3,5.6-0.7,4
						c-0.1,4.7,0.5-0.8,0.7,1.4c-0.1,1.3,0,2.7-0.2,2.9c-0.1-0.6-0.4,1.1-0.3,0l-0.2,3.2c-0.1,0.3-0.1-0.4-0.1-0.7
						c-0.1,6.4-1.1,11.4-1.2,17.1c0.1,0.4,0.2-2.3,0.4-1.8c-0.1,5.8-0.7,5.1-0.8,10.5L586,427c0,1.8,0.2,2.5-0.2,5.4
						c-0.3,0.5-0.1-2.5-0.1-3.8c-0.1,2-0.5,7-0.1,5.5c-0.1,2.4-0.4,3.2-0.6,4.5c0.1,0,0.4-2.2,0.4-0.8c-0.4,3.2-0.8,8.2-1.1,12.1
						c-0.1,0-0.2,0.2-0.2-0.1C584.2,452.7,583.6,452.3,583.3,456.6z"/>
					<path class="st6" d="M570.9,666.6l0.1-1.6c-0.1,0-0.1-0.1-0.2-0.8L570.9,666.6z"/>
					<path class="st6" d="M575,591.2c0-0.2,0-0.4,0-0.6C574.9,591,574.9,591.1,575,591.2z"/>
					<path class="st6" d="M575.6,572.8c0,1.3,0.1,0.2,0.2-0.5C575.8,572.3,575.8,572.3,575.6,572.8z"/>
					<path class="st6" d="M570.1,709.3c0-0.3-0.1-0.4-0.1-0.4C570,709.3,570.1,709.4,570.1,709.3z"/>
					<path class="st6" d="M568.5,827.6c0-0.1,0-0.3,0-0.5C568.5,827.2,568.5,827.3,568.5,827.6z"/>
					<path class="st6" d="M568.9,821c0-0.3,0-0.7,0-1.3C568.9,820.3,568.9,820.7,568.9,821z"/>
					<path class="st6" d="M571,680.7c0-0.4,0-0.9,0-1.2C570.9,680.1,570.9,680.5,571,680.7z"/>
					<path class="st6" d="M568.8,818.3v-1.6c0,0,0,0-0.1,0L568.8,818.3z"/>
					<path class="st6" d="M568.5,829.6c0-0.6,0-1.5,0-2.1C568.4,828.4,568.4,829,568.5,829.6z"/>
					<path class="st6" d="M569.5,752.7c0-0.1,0-0.1,0-0.2C569.4,751.3,569.4,752.1,569.5,752.7z"/>
					<path class="st6" d="M568.3,811.1c0-0.1,0-0.1,0-0.2l-0.1-0.5L568.3,811.1z"/>
					<path class="st6" d="M568.4,836.8c0-0.3,0-0.6-0.1-0.8c0,0.3,0,0.6,0,0.9C568.4,836.8,568.4,836.8,568.4,836.8z"/>
					<path class="st6" d="M568.7,777.5c0.1,0.5,0.2,0.6,0.2,0.7C569,777.6,568.9,777.2,568.7,777.5z"/>
				</g>
			</g>
		</g>
	</g>
</g>
<path class="st7" d="M1580.1,650.2c0.8-0.4,2.6-1.1,3.9-2.4c2.1-2.1,1.5-3.8-1.4-4.7c-9.4-2.6-18.8-5.3-28.2-7.7
	c-1.2-0.3-2.7,0.5-4.1,0.8c0.6,1.4,0.9,3.2,1.9,4.1C1559.8,646.8,1569.2,648.8,1580.1,650.2z"/>
<path class="st1" d="M1396.4,435.2c-0.9,0.8-2.4,1.5-2.7,2.5c-0.3,1,0.2,2.6,1,3.4c1,1,2.5,1.5,3.9,2.2c6.5,3.3,13,6.7,19.4,10
	c1,0.5,2.1,1.3,3.2,1.4c1.3,0.1,3.4,0,3.9-0.8c0.6-0.8,0.2-3.2-0.6-3.9c-4.4-3.5-8.7-7.2-13.6-9.8
	C1406.6,437.9,1401.5,436.9,1396.4,435.2z"/>
<path class="st7" d="M977.4,455.1c-7.5,3.6-13.5,10-18.3,17.4c-1,1.6,0.2,4.5,0.3,6.7c1.7-0.7,3.9-1,5.2-2.1
	c6.1-5.7,11.7-11.6,17.6-17.4c0.6-0.6,1.4-1.1,1.8-1.7c0.6-1.3,0.9-2.6,1.4-3.9c-1.5-0.1-3.1-0.4-4.6-0.4
	C979.9,453.7,979,454.4,977.4,455.1z"/>
<path class="st7" d="M834.9,638.5c3.5-1.6,6.3-2.1,8-3.7c6-5.7,11.7-11.7,17.2-17.8c0.7-0.8,0.5-3.5-0.2-4.2c-0.8-0.7-3.1-0.6-4.2,0
	c-1.6,0.8-2.7,2.5-4,3.7c-4.6,4.3-9.3,8.5-13.9,12.8c-1.4,1.3-3.2,2.6-3.9,4.3C833.2,634.7,834.3,636.5,834.9,638.5z"/>
<path class="st8" d="M1807.6,652.7c3.7,0,7.3-0.1,11,0.1c2,0.1,4,0.4,5.8,1.2c1.1,0.5,2.3,2.3,2.2,3.3c-0.1,1-2,2.5-3.1,2.5
	c-9.8-0.2-19.6-0.6-29.3-1.2c-1-0.1-1.9-1.8-2.8-2.8c1.1-1,2.2-2.7,3.3-2.8C1799,652.6,1803.3,652.8,1807.6,652.7
	C1807.6,652.8,1807.6,652.7,1807.6,652.7z"/>
<path class="st9" d="M732,642.6c4.2,0,8.4-0.3,12.5,0.2c1.3,0.1,2.4,2.1,3.6,3.2c-1.2,0.9-2.3,2.6-3.5,2.7
	c-9.3,0.6-18.6,1.1-27.9,1.3c-1.3,0-2.7-1.8-4-2.8c1.2-1.2,2.2-3.4,3.5-3.5c5.2-0.8,10.6-1,15.9-1.4C732,642.3,732,642.4,732,642.6z
	"/>
<path class="st8" d="M1627.7,657.2c3.7,0.5,7.2,1.1,10.9,1.4c1.8,0.1,3.8,0.2,5.4-0.4c1.3-0.5,2-2.1,3.1-3.3c-1.1-1-2.1-2.5-3.2-2.7
	c-9.5-1.1-19.1-2-28.7-2.7c-1.1-0.1-2.3,1.7-3.5,2.6c1.1,1.1,2,2.8,3.2,3.1C1619.1,656.2,1623.4,656.6,1627.7,657.2z"/>
<path class="st9" d="M1072.5,432.5c-6.4,0.6-12.9,1.1-19.2,2.1c-1.3,0.2-2.5,2-3.7,3c1.3,1,2.7,2.9,4,2.9c8.8,0.1,17.5,0.1,26.3-0.5
	c1.9-0.1,3.5-2.6,5.3-4c-1.9-1-3.7-2.3-5.7-2.8c-2.2-0.5-4.6-0.1-6.9-0.1C1072.6,432.9,1072.5,432.7,1072.5,432.5z"/>
<path class="st9" d="M1015.1,440.2c-4.4,0.9-8.7,1.7-13.1,3c-1.2,0.4-2.2,2.1-3.2,3.2c1.3,0.9,2.6,2.7,3.8,2.5
	c8.4-0.9,16.7-1.9,25-3.5c1.9-0.4,3.3-3.4,4.9-5.2c-2.2-0.5-4.4-1.7-6.6-1.7C1022.3,438.7,1018.8,439.6,1015.1,440.2z"/>
<path class="st10" d="M1755.7,659.8c-4.3,0-8.7,0.3-12.9-0.1c-1.6-0.2-3-1.9-4.5-2.9c1.5-1.1,2.9-3,4.5-3.1
	c7.6-0.6,15.2-0.7,22.9-0.9c1.1,0,2.4,0.3,3.3,0.9c1.4,1,2.4,2.4,3.6,3.7c-1.6,0.9-3.2,2.4-4.8,2.5c-3.9,0.4-7.9,0.1-11.9,0.1
	C1755.7,660,1755.7,659.9,1755.7,659.8z"/>
<path class="st8" d="M1505.8,562.3c-1.9-3.9-3.6-7.9-5.6-11.6c-0.7-1.3-2.8-1.8-4.2-2.6c-0.4,1.7-1.6,3.8-1.1,5.2
	c2.7,7.1,5.8,14.1,9,21.1c0.4,0.9,1,1.9,1.8,2.2c1.7,0.8,3.7,1.3,5.6,1.9c0-1.9,0.5-3.9-0.1-5.5c-1.5-3.7-3.4-7.3-5-10.8
	C1506,562.2,1505.9,562.3,1505.8,562.3z"/>
<path class="st11" d="M894.5,574.6c-0.9-1.2-1.3-2.4-2-2.4c-1-0.1-2.6,0.2-3.2,0.9c-4.8,6.4-9.6,12.9-13.8,19.5
	c-0.9,1.3,0.5,4,0.8,6.3c1.8-0.9,3.9-1.4,5-2.8c3.6-4.6,6.9-9.3,10-14.2C892.7,579.5,893.4,577,894.5,574.6z"/>
<path class="st11" d="M1515.6,595.4c0.4,2.7,0.1,4.9,0.9,6.4c3.3,5.8,6.8,11.5,10.4,17c1,1.6,2.7,3.1,4.5,3.7
	c2.5,0.9,5.1-0.8,3.6-3.2c-4.6-7.6-9.9-14.9-15.1-22.1C1519.5,596.4,1518,596.3,1515.6,595.4z"/>
<path class="st1" d="M648.7,646.7c0.4,1.1,1.3,2.5,1.1,3.5s-1.5,2.2-2.6,2.4c-1.4,0.4-2.9,0-4.5,0c-7.3-0.4-14.6-0.7-21.8-1
	c-1.1-0.1-2.5,0.1-3.5-0.4c-1.2-0.6-2.9-1.7-3-2.6c-0.1-1,1.4-2.9,2.5-3.1c5.6-0.8,11.1-1.9,16.7-1.7
	C638.5,643.9,643.4,645.6,648.7,646.7z"/>
<path class="st9" d="M681.3,651.6c-3.5,0.2-6.8,0.4-10.3,0.3c-1-0.1-2.1-1.5-3.1-2.3c0.7-1.2,1.3-3.3,2.2-3.4
	c6.3-1.2,12.7-2.3,19.1-2.7c1.5-0.1,3.2,2.5,4.8,3.8c-1.5,1.1-2.9,2.7-4.4,3.2C686.9,651.2,684.1,651.2,681.3,651.6z"/>
<g>
	<g>
		<g>
			<g>
				<path class="st6" d="M1126.9,88.1c2.5-0.6,4.1-1.2,6.8-2.5c0.4-0.2,0.9-0.4,1.6-0.7c0.3-0.2,0.7-0.3,1.1-0.5
					c0.5-0.3,1.1-0.5,1.6-0.8c0.6-0.3,1.2-0.6,1.9-0.9c1.3-0.5,2.6-1.1,4-1.7c10.9-4.5,24.5-8,37.7-9.9c13.2-2,26-2.7,35.4-3
					c4.7-0.1,8.6-0.2,11.3-0.2c2.7,0,4.2,0,4.2,0s6.1,0,15.5-0.1c9.4,0,22.3,0,35.7-0.8c6.7-0.3,13.6-1,20.2-1.8
					c1.7-0.2,3.3-0.4,4.9-0.7c1.6-0.3,3.2-0.5,4.8-0.8c1.6-0.3,3.1-0.6,4.7-0.9c0.8-0.2,1.5-0.3,2.3-0.4c0.4-0.1,0.7-0.2,1.1-0.2
					c0.3-0.1,0.6-0.1,0.9-0.2c1.9-0.5,3.5-0.8,4.3-1c2.9-0.8,4.5-1.6,6.7-2.8c-2.6,0.1-4.3,0.2-7.2,1c-0.8,0.2-2.4,0.6-4.3,1
					c-0.3,0.1-0.6,0.1-0.9,0.2c-0.4,0.1-0.7,0.2-1.1,0.2c-0.7,0.1-1.5,0.3-2.2,0.4c-1.5,0.3-3,0.6-4.6,0.9c-1.6,0.3-3.2,0.5-4.8,0.8
					c-1.6,0.3-3.2,0.4-4.9,0.7c-6.6,0.8-13.4,1.5-20.1,1.8c-13.3,0.7-26.1,0.8-35.6,0.8c-9.4,0-15.5,0.1-15.5,0.1s-1.5,0-4.2,0
					s-6.6,0.1-11.3,0.2c-4.7,0.2-10.3,0.4-16.4,0.9c-6.1,0.4-12.6,1.2-19.3,2.1c-13.3,2-27,5.5-38.1,10c-1.4,0.6-2.7,1.1-4,1.7
					c-0.7,0.3-1.3,0.6-1.9,0.9s-1.1,0.5-1.6,0.8c-0.4,0.2-0.8,0.4-1.1,0.5c-0.7,0.3-1.2,0.6-1.6,0.8
					C1130.2,85.3,1128.8,86.4,1126.9,88.1z"/>
			</g>
		</g>
	</g>
	<g id="dynamic">
		<g>
			<path d="M1162.4,15.3c6.6,0,12.9,3.5,19,10.5c1.9,3.7,2.8,7.3,2.8,10.7c0,8.1-4.1,14.1-12.4,17.9c-2.7,1.2-5.5,1.8-8.6,1.8h-1.8
				c-1.7,0-2.6-0.8-2.6-2.2h-0.2c0-1.3,0.8-1.9,2.4-2h1.6v-0.4h0.1c-2.9-12.3-4.3-21.4-4.3-27.4h-0.2l-1.8,1.1
				c-1.2,0-1.9-0.8-2.2-2.5c0-2.6,1.4-4.8,4.3-6.7C1159.8,15.6,1161.1,15.3,1162.4,15.3z M1163.2,19.4h-0.6v3.4
				c0,7.7,1.4,17.3,4.3,28.8h0.2c8.6-2.3,13-7.4,13-15.1c0-8.3-4.8-13.9-14.5-16.7C1165.1,19.6,1164.3,19.4,1163.2,19.4z"/>
			<path d="M1189.2,35.2c1.6,0,2.8,3.6,3.4,10.8c0.8,3.3,1.4,5,1.8,5h0.4c1.2-2.9,1.8-5.9,1.8-8.8l-0.4-4.8c0.5-1.3,1.2-1.9,2.2-1.9
				c1.7,0,2.6,3.1,2.6,9.2c1,6.3,1.5,12.2,1.5,17.7v3.3c0,10-2.8,16.8-8.5,20.3l-1.5,0.3c-2.7,0-5.1-2.5-7.4-7.4l-0.6-4.2v-0.2
				c0-3.1,0.9-4.6,2.6-4.6l1.8,1.1l-0.2,4.4c0,2.1,1.1,4.3,3.3,6.5h0.9c2.6,0,4.5-4.9,5.7-14.7l0.1-4.1c0-4.7-0.2-7.7-0.6-9
				c-1.9,1.6-3.3,2.4-4.4,2.4c-2.4,0-4.5-6.4-6.4-19.1l-0.2-0.1C1186.8,36.1,1187.6,35.4,1189.2,35.2z"/>
			<path d="M1214.6,32.6c4,0.3,5.9,2.3,5.9,5.8l0.1,0.9l-0.1,10.9c0,1.3,0.7,3,2.2,5.1v0.1c-0.4,1.4-1,2-2,2
				c-2.9-1.2-4.3-3.8-4.3-7.7v-0.9l-0.2-0.1l0.2-0.3v-0.1l0.2-9.7c0-1.4-0.6-2-1.8-2h-0.8c-2.3,0.9-3.5,6-3.5,15.3
				c0,3.2-0.8,4.8-2.4,4.8c-1.3,0-1.9-0.8-2-2.4v-7c0-9.1,0.8-13.6,2.4-13.6l0.7-0.2l1.5,0.2C1211.9,33,1213.2,32.6,1214.6,32.6z"/>
			<path d="M1238,29.1c2.1,0,3.1,0.8,3.1,2.5l-0.6,1.3l-0.4,12.8c0,5.8,1.2,9.4,3.5,10.8l0.1,1c-0.1,1.4-0.8,2-1.9,2h-0.4
				c-3.5-2.4-5.2-6-5.2-10.9h-0.5c-1.9,5.2-4.1,7.8-6.8,7.8c-2.5-0.7-3.7-2.5-3.7-5.5c0-6.6,2.6-13.1,7.9-19.7
				C1234.8,29.9,1236.4,29.1,1238,29.1z M1229.5,48.2l-0.3,2v1.3h0.7c3.5-8.7,5.2-14,5.2-16h-0.3
				C1232.2,38.5,1230.4,42.8,1229.5,48.2z"/>
			<path d="M1246.5,31.7c0.3-1.2,1.1-1.8,2.2-1.8c1.2,0,1.9,1.2,2.3,3.5h0.3l3.2-0.7c1.5,0,2.9,1.4,4.3,4.2h0.3
				c2.1-3.2,4.2-4.8,6.3-4.8c4.6,0.8,6.9,3.8,6.9,9l0.1,2.5l-0.6,14.1V59c0,1.2-0.7,1.8-2.2,2c-1.4,0-2.2-1.7-2.2-5.1l0.8-12.7
				c0-4.7-1.1-7-3.3-7c-1.3,0-2.8,3.1-4.5,9.2c-0.9,7-1.6,10.5-2.2,10.5c-0.8,0-1.2,0.2-1.2,0.5c-1.4-0.2-2.2-0.9-2.2-2.2l0.9-8.5
				c-0.1-5.8-0.7-8.8-1.8-8.8h-0.2c-1.2,0.9-1.8,2.6-1.8,5.2v3.7l-0.3,10.7c-0.3,1.2-1,1.8-2.2,1.8c-1,0-1.6-0.8-1.9-2.4l-0.3-8.3
				l0.4-6.8C1247.6,37.3,1247.2,34.3,1246.5,31.7z"/>
			<path d="M1277.1,19.7c1.8,0.4,2.7,1.2,2.7,2.4c-0.5,1.3-1.2,2-2.2,2c-1.7-0.3-2.6-1.2-2.6-2.6
				C1275.4,20.3,1276.1,19.7,1277.1,19.7z M1279.8,29.5c0.7,0,1.4,0.7,1.9,2l-0.6,5v3.3c0,3.8,0.7,8.8,2,15
				c-0.5,0.9-1.3,1.3-2.4,1.3c-1.9,0-3.2-5.6-3.8-16.8v-2.5C1276.8,32,1277.8,29.5,1279.8,29.5z"/>
			<path d="M1293.7,32.4l2.9-0.4c1.2,0,1.8,0.7,2,2.2c0,1.3-1.5,2.1-4.5,2.5c-1.9,1.5-2.9,3.4-2.9,5.7v2.3c0.9,5.1,2.5,7.7,4.8,7.7
				h0.7c1.3,0,3.3-1.2,5.9-3.7h0.4c0.9,0,1.7,0.7,2.2,2c-0.7,2-2.8,3.8-6.3,5.5c-0.7,0.3-1.5,0.4-2.5,0.4c-4.8,0-7.9-3.8-9.4-11.3
				v-1.5C1287,38.2,1289.2,34.4,1293.7,32.4z"/>
		</g>
	</g>
</g>
<g id="static">
	<g>
		<path d="M256.6,14.7h0.7c1.3,0,2.1,0.8,2.2,2.3c0,1.4-1.8,2-5.5,2c-5.9,2.2-9.9,5.5-12,9.8l-0.5,2v0.4c0,2.1,1.4,3.1,4.1,3.1
			l7.7-0.4c5.2,0,8.7,2.5,10.5,7.6l0.4,2.4c0,4.9-3.9,9.3-11.8,13.3c-2.3,0.7-4.4,1.1-6.2,1.3c-4.8,0-8.1-2.7-10.1-8.1
			c-0.6-1.8-0.8-3.7-0.8-5.5c0-0.6,0.4-1.1,1.3-1.8h0.8c1.4,0,2.2,1.8,2.2,5.5c1.2,3.6,3.1,5.5,5.7,5.5h1.9c3.8,0,7.5-2.2,11.2-6.6
			c1-1.4,1.5-2.9,1.5-4.5c0-2.3-1.8-3.9-5.4-4.8h-0.3l-9.2,0.2c-5.1-0.6-7.6-2.7-7.6-6.3l-0.3-0.9c0-4.8,3.6-9.5,10.8-14
			C251.2,15.6,254.1,14.7,256.6,14.7z"/>
		<path d="M275.5,13.7c1.3,0.3,2,0.9,2,2l-0.4,3.1v0.9c0,2.1,0.2,4.2,0.7,6.5h0.1c5.4-1.6,8.8-2.5,10.1-2.5c1.4,0.4,2,1,2,2
			c0,1.6-1.6,2.4-4.8,2.4l-7.3,2.6c0,6.3,0.7,14.9,2,25.7c-0.3,1.3-1,1.9-2,1.9h-0.1c-1.6,0-2.5-2.1-2.5-6.3
			c-0.6-3.1-1.1-9.9-1.5-20.4h-1.3c-4.4-0.3-6.6-1.3-6.6-3.1c0-0.5,0.5-1.1,1.5-1.9h0.7l3.2,0.8h2.2l-0.6-8.8
			C272.9,15.4,273.8,13.7,275.5,13.7z"/>
		<path d="M305.2,29.1c2.1,0,3.1,0.8,3.1,2.5l-0.6,1.3l-0.4,12.8c0,5.8,1.2,9.4,3.5,10.8l0.1,1c-0.1,1.4-0.8,2-1.9,2h-0.4
			c-3.5-2.4-5.2-6-5.2-10.9h-0.5c-1.9,5.2-4.1,7.8-6.8,7.8c-2.5-0.7-3.7-2.5-3.7-5.5c0-6.6,2.6-13.1,7.9-19.7
			C302,29.9,303.6,29.1,305.2,29.1z M296.7,48.2l-0.3,2v1.3h0.7c3.5-8.7,5.2-14,5.2-16h-0.2C299.4,38.5,297.6,42.8,296.7,48.2z"/>
		<path d="M320.8,13.7c1.3,0.3,2,0.9,2,2l-0.4,3.1v0.9c0,2.1,0.2,4.2,0.7,6.5h0.1c5.4-1.6,8.8-2.5,10.1-2.5c1.4,0.4,2,1,2,2
			c0,1.6-1.6,2.4-4.8,2.4l-7.3,2.6c0,6.3,0.7,14.9,2,25.7c-0.3,1.3-1,1.9-2,1.9h-0.1c-1.6,0-2.5-2.1-2.5-6.3
			c-0.6-3.1-1.1-9.9-1.5-20.4h-1.3c-4.4-0.3-6.6-1.3-6.6-3.1c0-0.5,0.5-1.1,1.5-1.9h0.7l3.2,0.8h2.2l-0.6-8.8
			C318.2,15.4,319.1,13.7,320.8,13.7z"/>
		<path d="M338.2,19.7c1.8,0.4,2.7,1.2,2.7,2.4c-0.5,1.3-1.2,2-2.2,2c-1.7-0.3-2.6-1.2-2.6-2.6C336.5,20.3,337.2,19.7,338.2,19.7z
			 M340.9,29.5c0.7,0,1.4,0.7,1.9,2l-0.6,5v3.3c0,3.8,0.7,8.8,2,15c-0.5,0.9-1.3,1.3-2.4,1.3c-1.9,0-3.2-5.6-3.8-16.8v-2.5
			C337.9,32,338.9,29.5,340.9,29.5z"/>
		<path d="M354.8,32.4l2.9-0.4c1.2,0,1.8,0.7,2,2.2c0,1.3-1.5,2.1-4.5,2.5c-1.9,1.5-2.9,3.4-2.9,5.7v2.3c0.9,5.1,2.5,7.7,4.8,7.7
			h0.7c1.3,0,3.3-1.2,5.9-3.7h0.4c0.9,0,1.7,0.7,2.2,2c-0.7,2-2.8,3.8-6.3,5.5c-0.7,0.3-1.5,0.4-2.5,0.4c-4.8,0-7.9-3.8-9.4-11.3
			v-1.5C348.1,38.2,350.3,34.4,354.8,32.4z"/>
	</g>
	<g>
		<g>
			<path d="M202.7,90.4c5.5-2.5,11.1-4.9,16.8-7.1c10.7-4.1,21.5-7.8,32.5-10.9c13.5-3.8,27.2-6.8,41.1-8.4
				c14.1-1.7,28.6-1.9,42.7,0.6c14.6,2.6,28.6,8.3,39.6,18.5c1.9,1.7,3.6,3.6,5.3,5.5c0.6,0.7,3.4-0.3,2.7-1.1
				c-10.5-12.2-24.9-19.7-40.4-23.3c-14.1-3.3-28.7-3.5-43-2.3c-14.5,1.2-28.8,4-42.8,7.7c-11.8,3.1-23.5,6.9-34.9,11.2
				c-6.6,2.5-13.2,5.1-19.6,8.1c-0.3,0.2-0.7,0.3-1,0.5c-0.4,0.2-1.1,0.6-0.8,1.1C201.1,90.9,202.3,90.6,202.7,90.4L202.7,90.4z"/>
		</g>
	</g>
</g>
<path class="st11" d="M936.2,502.3c-1.5,2.7-4,6.8-6.1,11.2c-0.6,1.1,0.1,2.7,0.1,4.1c1.5-0.3,3.8-0.1,4.4-1
	c5-7.1,10-14.4,14.4-21.9c0.9-1.4-0.4-4.2-0.8-6.3c-1.8,1.1-4,1.9-5.4,3.4C940.8,494.5,939.1,497.7,936.2,502.3z"/>
<path class="st8" d="M910.7,542.9c-2.3,3.6-5,7.2-7,10.8c-0.8,1.3-0.1,3.4-0.1,5c1.7-0.6,4.1-0.5,5-1.8c4.8-6,9-12.2,13.6-18.5
	c0.6-0.8,1.1-1.9,1-2.8c-0.1-1.9-0.8-3.9-1.2-5.7c-1.6,1-3.6,1.5-4.6,2.9c-2.5,3.2-4.5,6.7-6.6,9.9
	C910.6,542.8,910.7,542.9,910.7,542.9z"/>
<path class="st9" d="M1451.2,480.7c3.3,2.6,6.4,5.4,9.9,7.6c1.1,0.7,3.2-0.2,4.8-0.3c-0.4-1.5-0.2-3.5-1.1-4.3
	c-6.9-6.2-13.9-12.4-21.1-18.3c-1-0.8-3.2-0.3-4.9-0.3c0.2,1.7-0.4,4,0.6,4.9c3.6,3.9,7.7,7.4,11.6,11
	C1451,481,1451.1,480.9,1451.2,480.7z"/>
<path class="st9" d="M1484.9,514.1c-1.9-2.9-3.7-5.7-5.9-8.5c-0.7-0.7-2.5-0.8-3.7-1.1c-0.5,1.3-1.9,3-1.4,3.8
	c2.8,5.8,5.7,11.6,9.2,16.9c0.8,1.3,3.9,1.1,5.9,1.6c0-1.9,0.4-3.9-0.1-5.4C1487.9,518.9,1486.2,516.6,1484.9,514.1z"/>
<path class="st7" d="M1277.7,431c8.3-0.2,16-0.6,23.5-0.3c1.8,0.1,3.5,2.7,5.2,4.2c-1.7,0.9-3.4,2.3-5.1,2.4
	c-5.6,0.4-11.2,0.4-16.9,0.4c-2.1,0-4.3-0.3-6.3-1c-1.2-0.5-3-2-2.9-2.6C1275.6,432.8,1277.1,431.8,1277.7,431z"/>
<path class="st1" d="M1254.8,432.2c2,1.8,1.2,4.6-1.7,5.3c-1.7,0.5-3.6,0.2-5.4,0.3c-6.7,0.3-13.6,0.5-20.3,0.8
	c-1.5,0-3,0.1-4.4-0.3c-1.1-0.4-2.5-1.5-2.7-2.4c-0.1-1,1-2.6,2-3c10.3-5.1,21-3.4,31.7-1.1C1254.2,431.7,1254.5,432,1254.8,432.2z"
	/>
<path class="st10" d="M1180.3,438.9c-4.3,0-8.7,0.3-12.9-0.1c-1.6-0.2-3-1.9-4.5-2.9c1.5-1.1,2.9-3,4.5-3.1
	c7.6-0.6,15.2-0.7,22.9-0.9c1.1,0,2.4,0.3,3.3,0.9c1.4,1,2.4,2.4,3.6,3.7c-1.6,0.9-3.2,2.4-4.8,2.5c-3.9,0.4-7.9,0.1-11.9,0.1
	C1180.3,439.1,1180.3,439,1180.3,438.9z"/>
<path class="st8" d="M1119.7,433.8c3.7,0,7.3-0.1,11,0.1c2,0.1,4,0.4,5.8,1.2c1.1,0.5,2.3,2.3,2.2,3.3c-0.1,1-2,2.5-3.1,2.5
	c-9.8-0.2-19.6-0.6-29.3-1.2c-1-0.1-1.9-1.8-2.8-2.8c1.1-1,2.2-2.7,3.3-2.8C1111.1,433.7,1115.4,433.9,1119.7,433.8
	C1119.7,433.9,1119.7,433.8,1119.7,433.8z"/>
</svg>
