<?xml version="1.0" encoding="utf-8"?>
<!-- Generator: Adobe Illustrator 25.1.0, SVG Export Plug-In . SVG Version: 6.00 Build 0)  -->
<svg version="1.1" id="Layer_1" xmlns="http://www.w3.org/2000/svg" xmlns:xlink="http://www.w3.org/1999/xlink" x="0px" y="0px"
	 viewBox="0 0 1633.8 355.5" style="enable-background:new 0 0 1633.8 355.5;" xml:space="preserve">
<style type="text/css">
	.st0{font-family:'Arial-BoldMT';}
	.st1{font-size:12px;}
	.st2{fill-rule:evenodd;clip-rule:evenodd;fill:#010101;}
	.st3{fill:#010101;}
	.st4{fill:none;stroke:#000000;stroke-miterlimit:10;}
	.st5{font-family:'ArialMT';}
	.st6{font-family:'MyriadPro-Regular';}
	.st7{font-size:13.2797px;}
</style>
<text transform="matrix(1 0 0 1 29.7861 10.2951)"><tspan x="0" y="0" class="st0 st1">Scraping</tspan><tspan x="-30" y="14.4" class="st0 st1">(Wayback Machine)</tspan></text>
<text transform="matrix(1 0 0 1 862.644 10.295)"><tspan x="0" y="0" class="st0 st1">Part of Speech (Pos)</tspan><tspan x="38" y="14.4" class="st0 st1">Pattern</tspan></text>
<text transform="matrix(1 0 0 1 862.6437 240.8949)"><tspan x="0" y="0" class="st0 st1">Part of Speech (Pos)</tspan><tspan x="38" y="14.4" class="st0 st1">Pattern</tspan></text>
<text transform="matrix(1 0 0 1 245.6923 10.2948)" class="st0 st1">Websites</text>
<text transform="matrix(1 0 0 1 648.8442 10.295)" class="st0 st1">Ranked Documents</text>
<text transform="matrix(1 0 0 1 632.5021 240.895)" class="st0 st1">Descriptions / Categories</text>
<text transform="matrix(1 0 0 1 439.0457 10.2952)"><tspan x="0" y="0" class="st0 st1">Text Extraction &amp;</tspan><tspan x="28.3" y="14.4" class="st0 st1">Sorting</tspan></text>
<text transform="matrix(1 0 0 1 425.3705 240.8952)" class="st0 st1">Filter valid companies</text>
<text transform="matrix(1 0 0 1 114.3353 240.8948)"><tspan x="0" y="0" class="st0 st1">Merge Databases</tspan><tspan x="-24" y="14.4" class="st0 st1">(Crunchbase / PitchBook)</tspan></text>
<text transform="matrix(1 0 0 1 1339.509 134.0994)" class="st0 st1">Filter</text>
<text transform="matrix(1 0 0 1 1507.689 134.099)"><tspan x="0" y="0" class="st0 st1">Extracted Keyphrases</tspan><tspan x="21.7" y="14.4" class="st0 st1">(per company)</tspan></text>
<path class="st2" d="M44.5,105.7c0.3,0.7,0.6,1.4,0.9,2.1c1.9,3.8,4.5,6.8,7.6,8.7v-11.8C50,104.8,47.2,105.1,44.5,105.7L44.5,105.7
	L44.5,105.7z M42.4,95.3c0.1,2.9,0.6,5.7,1.4,8.3c2.9-0.7,6-1.1,9.3-1.1v-7.1L42.4,95.3z M43.7,84.8c-0.8,2.6-1.3,5.4-1.4,8.3H53
	v-7.1C49.8,85.9,46.7,85.5,43.7,84.8L43.7,84.8z M53,71.9c-3.1,1.9-5.7,4.9-7.6,8.7c-0.3,0.7-0.7,1.4-0.9,2.1c2.7,0.6,5.5,1,8.5,1
	V71.9L53,71.9z M42.3,82.1c-2-0.6-4-1.3-5.7-2.2c0.5-0.6,1-1.2,1.6-1.7c2.9-2.9,6.6-5,10.7-6c-2.1,2-4,4.4-5.4,7.3
	C43,80.3,42.6,81.2,42.3,82.1L42.3,82.1L42.3,82.1z M40.1,93.1c0.1-3.1,0.6-6.1,1.4-8.8c-2.3-0.7-4.4-1.5-6.3-2.4
	c-2.2,3.3-3.5,7.1-3.7,11.3H40.1z M41.6,104.2c-0.8-2.8-1.3-5.7-1.4-8.8h-8.6c0.2,4.2,1.5,8,3.7,11.3
	C37.2,105.6,39.3,104.8,41.6,104.2L41.6,104.2L41.6,104.2z M48.9,116.2c-4.1-1-7.8-3.1-10.7-6c-0.5-0.5-1.1-1.1-1.6-1.7
	c1.8-0.9,3.7-1.6,5.7-2.2c0.3,0.9,0.7,1.7,1.1,2.5C44.9,111.7,46.7,114.2,48.9,116.2L48.9,116.2L48.9,116.2z M59.8,72.3
	c2,1.8,3.7,4.1,5,6.7c0.5,1,1,2,1.4,3.1c2-0.6,3.8-1.3,5.5-2.1c-1.3-1.6-2.8-3-4.5-4.2C65,74.2,62.5,73,59.8,72.3L59.8,72.3z
	 M64,82.6c-2.8,0.6-5.7,1-8.8,1.1v-12c3.1,1.8,5.7,4.7,7.6,8.3C63.3,80.8,63.7,81.7,64,82.6L64,82.6z M55.3,116.7
	c2.1-1.2,4-3,5.6-5.1c1.3-1.7,2.3-3.6,3.2-5.7c-1-0.2-2-0.4-3.1-0.6c-1.8-0.3-3.7-0.4-5.7-0.5L55.3,116.7L55.3,116.7L55.3,116.7z
	 M63.2,98.9c1.2-1.3,2.4-2.6,3.7-3.8c0.1,0,0.1-0.1,0.1-0.1c0.3-0.3,0.7-0.6,1-1c0,0,0,0,0,0c2.3-2.1,4.6-3.9,6.7-5.3
	c0.8-0.5,1.5-1,2.2-1.4c0,0,0.1,0,0.1-0.1c2.7-1.6,5.2-2.5,7.2-2.8l5.2,4.7c-0.1,2.7-1.3,6.1-3.3,9.9c-2.1,4-5.2,8.4-9,12.6
	c-0.1,0.1-0.3,0.4-0.6,0.6l-3.7-3.3c0,0-0.1-0.1-0.1-0.1c0,0,0,0-0.1,0l-4.3-3.9c0,0-0.1-0.1-0.1-0.1l-1.7-1.6c0,0-0.1-0.1-0.1-0.1
	l-4-3.6C62.9,99.2,63.1,99,63.2,98.9L63.2,98.9L63.2,98.9z M70.6,109.7c-2,2.1-4.3,3.8-7,5c-1.2,0.5-2.5,1-3.8,1.3c1-1,2-2,2.9-3.2
	c1.4-1.9,2.6-4.1,3.5-6.5c0.3,0.1,0.6,0.2,0.9,0.3L70.6,109.7L70.6,109.7L70.6,109.7z M68.3,90.8c-0.2-2.3-0.7-4.6-1.3-6.6
	c2.2-0.6,4.2-1.4,6.1-2.4c0.8,1.3,1.5,2.6,2.1,4c-0.5,0.3-1,0.6-1.6,1C71.8,87.9,70.1,89.3,68.3,90.8L68.3,90.8L68.3,90.8z
	 M65.7,93.1c0.1-0.1,0.3-0.3,0.4-0.4c-0.1-2.8-0.6-5.5-1.4-7.9l-0.1,0c-2.9,0.7-6.1,1.1-9.4,1.2v7.1H65.7z M60.2,98.9
	c0.3-0.3,0.5-0.6,0.7-0.8c0.1-0.1,0.3-0.4,0.7-0.8c0.6-0.7,1.3-1.4,1.9-2h-8.2v7.1c2.1,0,4.1,0.2,6,0.5c0.8,0.1,1.5,0.3,2.2,0.4
	l-3.2-2.9C59.8,100,59.8,99.3,60.2,98.9L60.2,98.9L60.2,98.9z M101.9,77.9v45.5c0,1.1-0.5,2.1-1.2,2.9c-0.7,0.7-1.7,1.2-2.9,1.2
	H10.4c-1.1,0-2.1-0.5-2.9-1.2c-0.7-0.7-1.2-1.7-1.2-2.9v-77c0-1.1,0.5-2.1,1.2-2.9s1.7-1.2,2.9-1.2h87.4c1.1,0,2.1,0.5,2.9,1.2
	s1.2,1.7,1.2,2.9v22.3c0.3,0.2,0.6,0.4,0.8,0.6l0,0l0,0c0,0,0,0,0,0c1,0.9,1.5,2.1,1.7,3.3c0.1,1.3-0.2,2.5-1.1,3.5L101.9,77.9
	L101.9,77.9L101.9,77.9z M99.9,76.8c0-0.1,0.1-0.1,0.1-0.2l1.8-1.9c0.4-0.5,0.6-1.1,0.5-1.8c-0.1-0.7-0.4-1.4-1-1.9
	c0,0-0.1-0.1-0.1-0.1l0,0c-0.2-0.2-0.5-0.4-0.8-0.5c-0.1,0-0.1,0-0.2-0.1c-0.4-0.1-0.7-0.2-1.1-0.2c-0.7,0-1.3,0.2-1.7,0.7
	L86.3,83.1l4.3,3.9L99.9,76.8L99.9,76.8L99.9,76.8z M17.6,54.1L17.6,54.1c0.9,0,1.6-0.7,1.6-1.5s-0.7-1.5-1.5-1.5h-0.1
	c-0.8,0-1.5,0.7-1.5,1.5S16.8,54.1,17.6,54.1L17.6,54.1z M26.2,54.1L26.2,54.1c0.9,0,1.6-0.7,1.6-1.5s-0.7-1.5-1.5-1.5h-0.1
	c-0.8,0-1.5,0.7-1.5,1.5S25.4,54.1,26.2,54.1L26.2,54.1z M34.8,54.1L34.8,54.1c0.9,0,1.6-0.7,1.6-1.5s-0.7-1.5-1.5-1.5h-0.1
	c-0.8,0-1.5,0.7-1.5,1.5S34,54.1,34.8,54.1L34.8,54.1z M47,53.7h43.6c0.6,0,1.1-0.5,1.1-1.1s-0.5-1.1-1.1-1.1H47
	c-0.6,0-1.1,0.5-1.1,1.1S46.4,53.7,47,53.7L47,53.7z M99.6,62.6v5.3c-0.1,0-0.3,0-0.4,0c-1.3,0-2.5,0.5-3.4,1.4L84.2,82.1
	c-2.1,0.3-4.5,1.1-7.1,2.5c-0.7-1.8-1.7-3.4-2.8-5c0,0,0,0,0,0c-1.6-2.2-3.6-4.2-5.8-5.8c-4-2.9-9-4.5-14.3-4.5l0,0
	c-6.9,0-13.1,2.8-17.6,7.3c-4.5,4.5-7.3,10.7-7.3,17.6l0,0c0,6.9,2.8,13.1,7.3,17.6c4.5,4.5,10.7,7.3,17.6,7.3
	c3.7,0,7.2-0.8,10.4-2.3c2.9-1.3,5.5-3.2,7.7-5.5l3.7,3.3l0,0c0.4,0.4,1.2,0.4,1.6,0c0.2-0.3,0.5-0.5,0.7-0.7
	c0.2-0.2,0.4-0.4,0.7-0.8c4-4.4,7.2-8.9,9.4-13c2.2-4.2,3.5-8,3.6-11l7.9-8.7v43c0,0.5-0.2,0.9-0.5,1.3c-0.3,0.3-0.8,0.5-1.3,0.5
	H10.4c-0.5,0-0.9-0.2-1.3-0.5c-0.3-0.3-0.5-0.8-0.5-1.3V62.6L99.6,62.6L99.6,62.6z M8.6,60.3h91V46.4c0-0.5-0.2-0.9-0.5-1.3
	c-0.3-0.3-0.8-0.5-1.3-0.5H10.4c-0.5,0-0.9,0.2-1.3,0.5c-0.3,0.3-0.5,0.8-0.5,1.3L8.6,60.3z"/>
<path class="st3" d="M937.2,99.8c-4.9,0-8.8,4-8.8,8.8c0,4.9,4,8.8,8.8,8.8l0,0h0.1c4.9-0.1,8.8-4.1,8.7-8.9
	C946,103.7,942,99.8,937.2,99.8L937.2,99.8z M942.2,113.4c-1.3,1.3-3,2-4.8,2.1h-0.1c-3.8,0-6.8-3.1-6.8-6.9c0-3.7,3-6.8,6.8-6.8
	h0.1c3.8,0,6.9,3.1,6.9,6.9C944.1,110.4,943.4,112.1,942.2,113.4z M956,106.4c0-0.5-0.3-0.9-0.8-0.9l-3.2-0.6
	c-0.4-1.4-0.9-2.7-1.6-4l1.8-2.8c0.3-0.4,0.2-0.9-0.1-1.2l-3.1-3c-0.3-0.3-0.8-0.4-1.2-0.1l-2.7,1.9c-1.2-0.7-2.6-1.3-4-1.6
	l-0.7-3.3c-0.1-0.4-0.5-0.8-1-0.8h0l-4.3,0c-0.5,0-0.9,0.3-0.9,0.8l-0.6,3.2c-1.4,0.4-2.7,0.9-4,1.6l-0.2-0.2l20.3-25.8
	c0.3-0.4,0.3-1-0.2-1.4c-0.2-0.1-0.4-0.2-0.6-0.2h-61.3c-0.5,0-1,0.4-1,1c0,0.2,0.1,0.4,0.2,0.6L907.6,96v25c0,0.5,0.4,1,1,1
	c0.1,0,0.2,0,0.3-0.1l15.2-5.8c0,0.1,0.1,0.2,0.1,0.2l-1.8,2.8c-0.3,0.4-0.2,0.9,0.1,1.2l3.1,3c0.3,0.3,0.8,0.4,1.2,0.1l2.7-1.9
	c1.2,0.7,2.6,1.3,4,1.6l0.7,3.3c0.1,0.5,0.5,0.8,1,0.8h0l4.3,0c0.5,0,0.9-0.3,0.9-0.8l0.6-3.2c1.4-0.4,2.7-0.9,4-1.6l2.8,1.8
	c0.4,0.3,0.9,0.2,1.2-0.1l3-3.1c0.3-0.3,0.4-0.8,0.1-1.2l-1.9-2.7c0.7-1.2,1.3-2.6,1.6-4l3.3-0.7c0.5-0.1,0.8-0.5,0.8-1L956,106.4z
	 M909.5,119.6V95.6c0-0.2-0.1-0.4-0.2-0.6l-19.7-25.1h57.3l-19.2,24.4l-1-0.6c-0.4-0.3-0.9-0.2-1.2,0.1l-3,3.1
	c-0.3,0.3-0.4,0.8-0.1,1.2l1.8,2.7c-0.7,1.2-1.3,2.6-1.6,4l-3.3,0.7c-0.5,0.1-0.8,0.5-0.8,1l0,4.3c0,0.5,0.3,0.9,0.8,0.9l3.2,0.6
	c0.2,0.7,0.4,1.3,0.6,2L909.5,119.6z M951,110.6c-0.4,0.1-0.7,0.4-0.8,0.8c-0.3,1.6-1,3.1-1.9,4.5c-0.2,0.3-0.2,0.8,0,1.1l1.8,2.6
	l-1.9,1.9l-2.7-1.7c-0.3-0.2-0.7-0.2-1.1,0c-1.4,0.9-2.9,1.5-4.5,1.9c-0.4,0.1-0.7,0.4-0.8,0.8l-0.6,3.1l-2.7,0l-0.7-3.1
	c-0.1-0.4-0.4-0.7-0.8-0.7c-1.6-0.3-3.1-1-4.5-1.9c-0.3-0.2-0.8-0.2-1.1,0l-2.6,1.8l-1.9-1.9l1.7-2.7c0.2-0.3,0.2-0.7,0-1.1
	c-0.9-1.4-1.5-2.9-1.9-4.5c-0.1-0.4-0.4-0.7-0.8-0.8l-3.1-0.6l0-2.7l3.1-0.7c0.4-0.1,0.7-0.4,0.8-0.8c0.3-1.6,1-3.1,1.9-4.5
	c0.2-0.3,0.2-0.8,0-1.1l-1.8-2.6l1.9-1.9l2.7,1.7c0.3,0.2,0.7,0.2,1.1,0c1.4-0.9,2.9-1.5,4.5-1.9c0.4-0.1,0.7-0.4,0.8-0.8l0.6-3.1
	l2.7,0l0.7,3.1c0.1,0.4,0.4,0.7,0.8,0.8c1.6,0.3,3.1,1,4.5,1.9c0.3,0.2,0.8,0.2,1.1,0l2.6-1.8l1.9,1.9l-1.7,2.7
	c-0.2,0.3-0.2,0.7,0,1.1c0.9,1.4,1.5,2.9,1.9,4.5c0.1,0.4,0.4,0.7,0.8,0.8l3.1,0.6l0,2.7L951,110.6z M887.7,65.4H904
	c0.5,0,1-0.4,1-1c0,0,0,0,0,0l-0.1-16c0,0,0,0,0-0.1v0v0c0-0.1-0.1-0.3-0.1-0.4l0,0c0,0,0,0,0-0.1l0,0c0,0,0,0-0.1-0.1l-5-5
	c-0.1-0.1-0.3-0.2-0.5-0.3c0,0,0,0,0,0h0c0,0,0,0-0.1,0l-11.2-0.1c-0.3,0-0.5,0.1-0.7,0.3c-0.2,0.2-0.3,0.4-0.3,0.7v21.1
	C886.7,64.9,887.2,65.4,887.7,65.4z M899.8,45.8l1.7,1.7h-1.7V45.8z M888.7,44.3l9.2,0.1v4c0,0.5,0.4,1,1,1h4l0.1,14h-14.3V44.3z
	 M910.1,65.4h16.3c0.5,0,1-0.4,1-1c0,0,0,0,0,0l-0.1-16c0,0,0,0,0-0.1v0l0,0c0-0.1-0.1-0.3-0.1-0.4l0,0c0,0,0,0,0-0.1l0,0
	c0,0,0,0-0.1-0.1l-5-5c0,0,0,0-0.1-0.1l0,0c-0.1-0.1-0.3-0.2-0.5-0.2c0,0,0,0,0,0h0c0,0,0,0-0.1,0l-11.2-0.1c-0.3,0-0.5,0.1-0.7,0.3
	c-0.2,0.2-0.3,0.4-0.3,0.7v21.1C909.1,64.9,909.5,65.4,910.1,65.4z M922.2,45.8l1.7,1.7h-1.7V45.8z M911,44.3l9.2,0.1v4
	c0,0.5,0.4,1,1,1h4l0.1,14H911V44.3z M932.4,65.4h16.3c0.5,0,1-0.4,1-1c0,0,0,0,0,0l-0.1-16c0,0,0,0,0-0.1v0v0
	c0-0.1-0.1-0.3-0.1-0.4l0,0c0,0,0,0,0-0.1l0,0c0,0,0,0-0.1-0.1l-5-5c-0.1-0.1-0.3-0.2-0.5-0.3l0,0h0c0,0,0,0-0.1,0l-11.2-0.1
	c-0.3,0-0.5,0.1-0.7,0.3c-0.2,0.2-0.3,0.4-0.3,0.7v21.1C931.5,64.9,931.9,65.4,932.4,65.4z M944.6,45.8l1.7,1.7h-1.7V45.8z
	 M933.4,44.3l9.2,0.1v4c0,0.5,0.4,1,1,1h4l0.1,14h-14.3V44.3z"/>
<g>
	<path class="st3" d="M295.3,71.5h-57.5c-1,0-1.8,0.8-1.8,1.8v52.3c0,1,0.8,1.8,1.8,1.8h57.5c1,0,1.8-0.8,1.8-1.8V73.3
		C297.1,72.3,296.3,71.5,295.3,71.5z M237.8,72.9h57.5c0.2,0,0.4,0.2,0.4,0.4v8.2h-58.3v-8.2C237.4,73.1,237.6,72.9,237.8,72.9
		L237.8,72.9z M295.3,126h-57.5c-0.2,0-0.4-0.2-0.4-0.4V82.8h58.3v42.7C295.7,125.8,295.5,126,295.3,126L295.3,126z M241.2,77.2
		c0-0.4,0.3-0.7,0.7-0.7l0,0h0.1c0.4,0,0.7,0.3,0.7,0.7c0,0.4-0.3,0.7-0.7,0.7h-0.1C241.5,77.9,241.2,77.5,241.2,77.2z M255.3,77.2
		c0-0.4,0.3-0.7,0.7-0.7h35.2c0.4,0,0.7,0.3,0.7,0.7c0,0.4-0.3,0.7-0.7,0.7H256C255.6,77.9,255.3,77.5,255.3,77.2z M244.3,77.2
		c0-0.4,0.3-0.7,0.7-0.7h0.1c0.4,0,0.7,0.3,0.7,0.7c0,0.4-0.3,0.7-0.7,0.7H245C244.6,77.9,244.3,77.5,244.3,77.2L244.3,77.2z
		 M247.4,77.2c0-0.4,0.3-0.7,0.7-0.7c0,0,0,0,0,0h0.1c0.4,0,0.7,0.3,0.7,0.7c0,0.4-0.3,0.7-0.7,0.7h-0.1
		C247.7,77.9,247.4,77.5,247.4,77.2C247.4,77.2,247.4,77.2,247.4,77.2z M242.7,105.4h21.6c0.6,0,1-0.4,1-1V89.8c0-0.6-0.4-1-1-1
		h-21.6c-0.6,0-1,0.4-1,1v14.6C241.7,104.9,242.2,105.4,242.7,105.4L242.7,105.4z M243.1,104V102l5.8-3.7l5.6,3.3
		c0.3,0.2,0.8,0.1,1-0.2c0.2-0.3,0.1-0.8-0.2-1c0,0,0,0,0,0l-1.9-1.1l3.6-1.9l7.1,3.6v2.9H243.1z M264,90.2v9.4l-6.8-3.5
		c-0.2-0.1-0.4-0.1-0.6,0l-4.7,2.5l-2.7-1.6c-0.2-0.1-0.5-0.1-0.7,0l-5.4,3.4V90.2H264z M270.7,89.4c0-0.4,0.3-0.7,0.7-0.7
		c0,0,0,0,0,0h10.7c0.4,0,0.7,0.3,0.7,0.7c0,0.4-0.3,0.7-0.7,0.7c0,0,0,0,0,0h-10.7C271,90.1,270.7,89.7,270.7,89.4
		C270.7,89.4,270.7,89.4,270.7,89.4z M289.2,96.7c0,0.4-0.3,0.7-0.7,0.7l0,0h-17.2c-0.4,0-0.7-0.3-0.7-0.7c0-0.4,0.3-0.7,0.7-0.7
		c0,0,0,0,0,0h17.2C288.9,96,289.2,96.3,289.2,96.7C289.2,96.7,289.2,96.7,289.2,96.7L289.2,96.7z M289.2,104c0,0.4-0.3,0.7-0.7,0.7
		l0,0h-17.2c-0.4,0-0.7-0.3-0.7-0.7c0-0.4,0.3-0.7,0.7-0.7c0,0,0,0,0,0h17.2C288.9,103.3,289.2,103.6,289.2,104
		C289.2,104,289.2,104,289.2,104L289.2,104z M289.2,111.3c0,0.4-0.3,0.7-0.7,0.7l0,0h-45.9c-0.4,0-0.7-0.3-0.7-0.7
		c0-0.4,0.3-0.7,0.7-0.7h45.9C288.9,110.6,289.2,110.9,289.2,111.3L289.2,111.3z M289.2,118.6c0,0.4-0.3,0.7-0.7,0.7c0,0,0,0,0,0
		h-45.9c-0.4,0-0.7-0.3-0.7-0.7c0-0.4,0.3-0.7,0.7-0.7c0,0,0,0,0,0h45.9C288.9,117.9,289.2,118.2,289.2,118.6
		C289.2,118.6,289.2,118.6,289.2,118.6L289.2,118.6z"/>
	<path class="st3" d="M247.4,61.9h-0.1c-0.4,0-0.7,0.3-0.7,0.7c0,0.4,0.3,0.7,0.7,0.7h0.1c0.4,0,0.7-0.3,0.7-0.7
		C248.1,62.2,247.7,61.9,247.4,61.9z"/>
	<path class="st3" d="M250.5,61.9h-0.1c-0.4,0-0.7,0.3-0.7,0.7c0,0.4,0.3,0.7,0.7,0.7h0.1c0.4,0,0.7-0.3,0.7-0.7
		C251.1,62.2,250.8,61.9,250.5,61.9z"/>
	<path class="st3" d="M300.7,56.9h-57.5c-1,0-1.8,0.8-1.8,1.8V72h1.4v-3.8h58.3V111c0,0.2-0.2,0.4-0.4,0.4v0h-4.2v1.4h4.2
		c1,0,1.8-0.8,1.8-1.8V58.7C302.5,57.7,301.7,56.9,300.7,56.9z M301.1,66.9h-58.3v-8.2c0-0.2,0.2-0.4,0.4-0.4l0,0h57.5
		c0.2,0,0.4,0.2,0.4,0.4V66.9z"/>
	<path class="st3" d="M253.5,61.9h-0.1c0,0,0,0,0,0c-0.4,0-0.7,0.3-0.7,0.7c0,0,0,0,0,0c0,0.4,0.3,0.7,0.7,0.7h0.1
		c0.4,0,0.7-0.3,0.7-0.7C254.2,62.2,253.9,61.9,253.5,61.9z"/>
	<path class="st3" d="M296.6,61.9h-35.2c-0.4,0-0.7,0.3-0.7,0.7c0,0.4,0.3,0.7,0.7,0.7h35.2c0.4,0,0.7-0.3,0.7-0.7
		C297.3,62.2,297,61.9,296.6,61.9z"/>
	<path class="st3" d="M252.7,47.3h-0.1c-0.4,0-0.7,0.3-0.7,0.7s0.3,0.7,0.7,0.7h0.1c0.4,0,0.7-0.3,0.7-0.7
		C253.4,47.6,253.1,47.3,252.7,47.3z"/>
	<path class="st3" d="M255.8,47.3h-0.1c-0.4,0-0.7,0.3-0.7,0.7s0.3,0.7,0.7,0.7h0.1c0.4,0,0.7-0.3,0.7-0.7
		C256.5,47.6,256.2,47.3,255.8,47.3z"/>
	<path class="st3" d="M306,42.3h-57.5c-1,0-1.8,0.8-1.8,1.8v13.3h1.4v-3.8h58.3v42.7c0,0.2-0.2,0.4-0.4,0.4v0h-4.2v1.4h4.2
		c1,0,1.8-0.8,1.8-1.8V44.2C307.8,43.2,307,42.3,306,42.3z M306.5,52.3h-58.3v-8.2c0-0.2,0.2-0.4,0.4-0.4l0,0H306
		c0.2,0,0.4,0.2,0.4,0.4V52.3z"/>
	<path class="st3" d="M258.9,47.3h-0.1c0,0,0,0,0,0c-0.4,0-0.7,0.3-0.7,0.7c0,0,0,0,0,0c0,0.4,0.3,0.7,0.7,0.7h0.1
		c0.4,0,0.7-0.3,0.7-0.7C259.6,47.6,259.3,47.3,258.9,47.3z"/>
	<path class="st3" d="M302,47.3h-35.2c-0.4,0-0.7,0.3-0.7,0.7s0.3,0.7,0.7,0.7H302c0.4,0,0.7-0.3,0.7-0.7
		C302.7,47.6,302.4,47.3,302,47.3z"/>
</g>
<path class="st3" d="M684.2,62.4c0-0.6,0.5-1,1-1l0,0h20.9c0.6,0,1,0.5,1,1c0,0.5-0.4,1-1,1h-20.9C684.6,63.4,684.2,62.9,684.2,62.4
	C684.2,62.4,684.2,62.4,684.2,62.4z M670.9,63.4h9.6c0.6,0,1-0.5,1-1c0-0.5-0.4-1-1-1h-9.6c-0.6,0-1,0.5-1,1
	C670,63,670.4,63.4,670.9,63.4z M670.9,72.8h35.2c0.6,0,1-0.5,1-1c0-0.5-0.4-1-1-1h-35.2c-0.6,0-1,0.5-1,1
	C670,72.4,670.4,72.8,670.9,72.8z M670.9,91.6h5.3c0.6,0,1-0.5,1-1c0-0.5-0.4-1-1-1h-5.3c-0.6,0-1,0.5-1,1
	C670,91.2,670.4,91.6,670.9,91.6z M707.1,90.6c0-0.6-0.5-1-1-1h-25.3c-0.6,0-1,0.5-1,1c0,0.5,0.4,1,1,1h25.3
	C706.7,91.6,707.1,91.2,707.1,90.6z M699.8,99h-28.9c-0.6,0-1,0.5-1,1c0,0.5,0.4,1,1,1h28.9c0.6,0,1-0.4,1-1
	C700.9,99.5,700.4,99,699.8,99C699.8,99,699.8,99,699.8,99z M748.8,53.4l-11.2,25.3c2.7,1.2,3.9,4.4,2.7,7.1l-0.5,1.1l0.3,0.1
	c3.1,1.4,4.5,5,3.1,8.1l-4,8.9c-1.2,2.8-3.5,5-6.4,6.1c-1.3,0.5-2.7,0.8-4.2,0.8c-1.6,0-3.2-0.3-4.6-1l-4-1.8
	c-0.2-0.1-0.4-0.3-0.5-0.6l-1.3-3.3l-1.8,0.2v6.3c4.4,1.8,6.5,6.9,4.7,11.3c-1.3,3.2-4.5,5.4-8,5.3h-27.3c-4.8,0-8.7-3.9-8.7-8.7
	c0-1.6,0.5-3.2,1.3-4.6h-16.8c-0.6,0-1-0.5-1-1V56.3c0-0.3,0.1-0.5,0.3-0.7l12.9-12.9c0.2-0.2,0.4-0.3,0.7-0.3h41c0.6,0,1,0.5,1,1
	v37c1.8-1.5,4.3-1.9,6.5-1l0.3,0.1l0.5-1.1c1.1-2.4,3.7-3.7,6.3-3.1L741.2,50c1-2.1,3.5-2.9,5.5-1.9C748.7,49,749.6,51.3,748.8,53.4
	L748.8,53.4z M664.1,55.2h9.4v-9.4L664.1,55.2z M713.1,112.1h-1.9c-0.5,0-0.9-0.4-1-0.9c-0.4-2.5-2.7-4.2-5.2-3.8
	c-0.7,0.1-1.4,0.4-2,0.9c-0.4,0.3-1.1,0.3-1.4-0.2c0,0,0,0,0,0c-2.3-3.4-7-4.3-10.4-2c-1.7,1.2-2.9,3-3.2,5.1
	c-0.1,0.5-0.5,0.9-1,0.9h-1.1c-3.7,0-6.7,2.9-6.7,6.5c0,3.7,2.9,6.7,6.5,6.7c0.1,0,0.1,0,0.2,0h27.3c3.7,0,6.7-2.9,6.7-6.5
	c0-3.7-2.9-6.7-6.5-6.7C713.2,112.1,713.2,112.1,713.1,112.1z M714.4,110.2v-5.6c-1.3,0.1-2.7-0.1-3.9-0.7l-6.2-3.2
	c-0.5-0.3-0.7-0.9-0.4-1.4c0.1-0.1,0.1-0.2,0.2-0.3l3.9-3.4c1.3-1.1,2.3-2.5,2.9-4l3.5-8.1V44.4h-38.9v11.9c0,0.6-0.5,1-1,1
	c0,0,0,0,0,0h-11.9v54.8h17.1c0.1,0,0.3,0,0.4,0.1c1.6-1.4,3.6-2.1,5.7-2.1h0.3c1.2-5.1,6.4-8.3,11.5-7c2,0.5,3.8,1.6,5.1,3.1
	c1-0.5,2-0.8,3.1-0.8c2.9,0,5.5,1.9,6.3,4.7h1.1C713.6,110.1,714,110.1,714.4,110.2L714.4,110.2z M739.3,88.9l-15.9-7l0,0l-1.2-0.5
	c-1-0.4-2.1-0.5-3.2-0.1c-1,0.4-1.8,1.2-2.2,2.1l-0.4,0.8v0l-3.6,8.3c-0.8,1.8-2,3.4-3.5,4.7l-2.7,2.4l4.9,2.5c0.9,0.5,2,0.6,3,0.5
	l4.4-0.4c0.4,0,0.9,0.2,1,0.6l1.4,3.6l3.7,1.6c4.8,2.1,10.4-0.1,12.5-4.8l4-8.9C742.3,92.2,741.4,89.8,739.3,88.9L739.3,88.9z
	 M736.8,80.5l-0.9-0.4l0,0l-5.8-2.6c-1.7-0.7-3.7,0-4.5,1.7l-0.5,1.1l12.9,5.7l0.5-1.1C739.2,83.3,738.5,81.3,736.8,80.5L736.8,80.5
	z M745.9,49.8c-1.1-0.5-2.3,0-2.8,1.1l-11.2,25.3l3.9,1.7L747,52.6C747.4,51.5,746.9,50.2,745.9,49.8z M706.1,80.2h-9.9
	c-0.6,0-1,0.5-1,1c0,0.5,0.4,1,1,1h9.9c0.6,0,1-0.5,1-1C707.1,80.6,706.7,80.2,706.1,80.2z M670.9,82.2h20.6c0.6,0,1-0.5,1-1
	c0-0.5-0.4-1-1-1h-20.6c-0.6,0-1,0.5-1,1C670,81.8,670.4,82.2,670.9,82.2z M727.7,103.9c-0.2,0-0.3,0.1-0.5,0.1
	c-0.6,0.1-0.9,0.6-0.9,1.1c0.1,0.5,0.5,0.9,1,0.9c0,0,0.1,0,0.1,0c0.2,0,0.4-0.1,0.6-0.1c0.5-0.1,0.9-0.7,0.8-1.2
	C728.7,104.1,728.2,103.8,727.7,103.9L727.7,103.9z M734.9,98c-0.5-0.2-1.1,0-1.3,0.5c-0.6,1.6-1.7,3-3,4.1c-0.4,0.3-0.5,1-0.2,1.4
	c0.3,0.4,1,0.5,1.4,0.2l0,0c1.6-1.3,2.9-3,3.7-4.9C735.6,98.8,735.4,98.2,734.9,98L734.9,98z M718.8,58c0-0.6,0.5-1,1-1h0
	c3.2,0,5.8-2.6,5.8-5.8c0-0.6,0.5-1,1-1c0,0,0,0,0,0l0,0c0.5,0,0.9,0.4,1,0.9l0,0l0,0l0,0c0,0,0,0.1,0,0.1l0,0
	c0,3.2,2.6,5.8,5.8,5.8c0.6,0,1,0.5,1,1c0,0.5-0.4,1-1,1h0c-3.2,0-5.8,2.6-5.8,5.8c0,0.6-0.4,1-1,1c-0.6,0-1-0.4-1-1c0,0,0,0,0-0.1
	l0,0v0c0-3.2-2.6-5.7-5.8-5.7C719.3,59,718.8,58.5,718.8,58C718.8,58,718.8,58,718.8,58z M723.7,58c1.2,0.7,2.3,1.7,3,3
	c0.7-1.2,1.7-2.3,3-3c-1.2-0.7-2.3-1.7-3-3C726,56.2,724.9,57.3,723.7,58L723.7,58z M744.7,118.3c0,0.6-0.5,1-1,1
	c-3.2,0-5.8,2.6-5.8,5.8c0,0.6-0.5,1-1,1c-0.5,0-1-0.4-1-1c0-3.2-2.6-5.8-5.8-5.8c-0.6,0-1-0.4-1-1c0-0.6,0.4-1,1-1c0,0,0,0,0.1,0
	c3.2,0,5.8-2.6,5.8-5.8c0-0.6,0.4-1,1-1c0.6,0,1,0.4,1,1c0,0,0,0,0,0.1c0,3.2,2.6,5.8,5.8,5.8C744.2,117.3,744.7,117.8,744.7,118.3
	C744.7,118.3,744.7,118.3,744.7,118.3z M739.8,118.3c-1.2-0.7-2.3-1.7-3-3c-0.7,1.2-1.7,2.3-3,3c1.2,0.7,2.3,1.7,3,3
	C737.5,120.1,738.6,119,739.8,118.3z"/>
<g>
	<path class="st3" d="M449.1,68.5c-2.7,0-4.9,2.2-4.9,4.9v1.2c0,2.7,2.2,4.9,4.9,4.9h5.2l21.4,22.5v24.3c0,0.6,0.5,1.1,1.1,1.1
		c0.1,0,0.2,0,0.2,0l23-4.9c0.5-0.1,0.9-0.6,0.9-1.1V102l21.4-22.5h5.2c2.7,0,4.9-2.2,4.9-4.9v-1.2c0-2.7-2.2-4.9-4.9-4.9H449.1z
		 M446.5,74.6v-1.2c0-1.5,1.2-2.6,2.6-2.6h78.5c1.5,0,2.6,1.2,2.6,2.6v1.2c0,1.5-1.2,2.6-2.6,2.6h-78.5
		C447.7,77.2,446.5,76.1,446.5,74.6z M499.1,100.7c-0.2,0.2-0.3,0.5-0.3,0.8v19l-20.7,4.4v-23.4c0-0.3-0.1-0.6-0.3-0.8l-20.3-21.3
		h61.9L499.1,100.7z"/>
	<g>
		<path class="st3" d="M472.2,46.1L472.2,46.1c-0.4,0-0.6,0.2-0.6,0.5s0.2,0.5,0.5,0.5h0.1c0.3,0,0.5-0.2,0.5-0.5
			C472.7,46.3,472.5,46.1,472.2,46.1z"/>
		<path class="st3" d="M507,46.1h-26.5c-0.3,0-0.5,0.2-0.5,0.5s0.2,0.5,0.5,0.5H507c0.3,0,0.5-0.2,0.5-0.5
			C507.5,46.3,507.3,46.1,507,46.1z"/>
		<path class="st3" d="M474.6,46.1L474.6,46.1c-0.1,0-0.1,0-0.1,0c-0.3,0-0.5,0.2-0.5,0.5c0,0,0,0,0,0c0,0.3,0.2,0.5,0.5,0.5h0.1
			c0.3,0,0.5-0.2,0.5-0.5C475.1,46.3,474.8,46.1,474.6,46.1z"/>
		<path class="st3" d="M487.5,67.1v-11c0-0.4-0.3-0.8-0.8-0.8h-16.3c-0.4,0-0.8,0.3-0.8,0.8v11c0,0.4,0.3,0.8,0.8,0.8h16.3
			C487.2,67.9,487.5,67.5,487.5,67.1z M486.5,66.8h-15.7v-1.5l4.3-2.8l4.2,2.5c0.2,0.2,0.6,0.1,0.7-0.2c0.2-0.2,0.1-0.6-0.2-0.7
			c0,0,0,0,0,0l-1.4-0.8l2.7-1.4l5.3,2.7V66.8z M486.5,63.5l-5.1-2.6c-0.2-0.1-0.3-0.1-0.5,0l-3.5,1.9l-2-1.2
			c-0.2-0.1-0.4-0.1-0.5,0l-4,2.6v-7.7h15.7V63.5z"/>
		<path class="st3" d="M469.9,46.1L469.9,46.1c-0.4,0-0.6,0.2-0.6,0.5s0.2,0.5,0.5,0.5h0.1c0.3,0,0.5-0.2,0.5-0.5
			C470.4,46.3,470.2,46.1,469.9,46.1z"/>
		<path class="st3" d="M492,61.8H505c0.3,0,0.5-0.2,0.5-0.5h0c0,0,0,0,0,0c0-0.3-0.2-0.5-0.5-0.5H492c0,0,0,0,0,0
			c-0.3,0-0.5,0.2-0.5,0.5C491.5,61.6,491.7,61.8,492,61.8z"/>
		<path class="st3" d="M492,56.3h8.1c0,0,0,0,0,0c0.3,0,0.5-0.2,0.5-0.5c0-0.3-0.2-0.5-0.5-0.5H492c0,0,0,0,0,0
			c-0.3,0-0.5,0.2-0.5,0.5c0,0,0,0,0,0C491.5,56.1,491.7,56.3,492,56.3z"/>
		<path class="st3" d="M466.4,69V50.9h43.9V69h1V43.7c0-0.8-0.6-1.4-1.4-1.4h-43.3c-0.8,0-1.4,0.6-1.4,1.4V69H466.4z M466.4,43.7
			c0-0.2,0.1-0.3,0.3-0.3l0,0H510c0.2,0,0.3,0.1,0.3,0.3v6.2h-43.9V43.7z"/>
		<path class="st3" d="M492,67.3H505c0.3,0,0.5-0.2,0.5-0.5h0c0-0.3-0.2-0.5-0.5-0.5H492c0,0,0,0,0,0c-0.3,0-0.5,0.2-0.5,0.5
			C491.5,67.1,491.7,67.3,492,67.3z"/>
	</g>
</g>
<g>
	<g>
		<g>
			<path class="st3" d="M1109.4,50.7h70c2.3,0,4.2-1.9,4.2-4.2c0-2.3-1.9-4.2-4.2-4.2h-70c-2.3,0-4.2,1.9-4.2,4.2
				C1105.2,48.9,1107.1,50.7,1109.4,50.7z"/>
		</g>
		<g>
			<path class="st3" d="M1109.4,69.9h35c2.3,0,4.2-1.9,4.2-4.2c0-2.3-1.9-4.2-4.2-4.2h-35c-2.3,0-4.2,1.9-4.2,4.2
				C1105.2,68,1107.1,69.9,1109.4,69.9z"/>
		</g>
		<g>
			<path class="st3" d="M1109.4,127.4h31.6c2.3,0,4.2-1.9,4.2-4.2s-1.9-4.2-4.2-4.2h-31.6c-2.3,0-4.2,1.9-4.2,4.2
				S1107.1,127.4,1109.4,127.4z"/>
		</g>
		<g>
			<path class="st3" d="M1120.7,80.6h-11.3c-2.3,0-4.2,1.9-4.2,4.2s1.9,4.2,4.2,4.2h11.3c2.3,0,4.2-1.9,4.2-4.2
				S1123,80.6,1120.7,80.6z"/>
			<path class="st3" d="M1144.4,80.7h-11.3c-2.3,0-4.2,1.9-4.2,4.2s1.9,4.2,4.2,4.2h11.3c2.3,0,4.2-1.9,4.2-4.2
				S1146.7,80.7,1144.4,80.7z"/>
			<path class="st3" d="M1168.5,80.7h-11.3c-2.3,0-4.2,1.9-4.2,4.2s1.9,4.2,4.2,4.2h11.3c2.3,0,4.2-1.9,4.2-4.2
				S1170.8,80.7,1168.5,80.7z"/>
		</g>
		<g>
			<path class="st3" d="M1109.4,108.2h33.9c2.3,0,4.2-1.9,4.2-4.2s-1.9-4.2-4.2-4.2h-33.9c-2.3,0-4.2,1.9-4.2,4.2
				S1107.1,108.2,1109.4,108.2z"/>
			<path class="st3" d="M1169,99.8h-11.3c-2.3,0-4.2,1.9-4.2,4.2s1.9,4.2,4.2,4.2h11.3c2.3,0,4.2-1.9,4.2-4.2S1171.3,99.8,1169,99.8
				z"/>
		</g>
	</g>
	<path class="st3" d="M1096.2,42.3c-2.3,0-4.2,1.9-4.2,4.2s1.9,4.2,4.2,4.2s4.2-1.9,4.2-4.2S1098.5,42.3,1096.2,42.3z M1096.2,48.6
		c-1.2,0-2.1-0.9-2.1-2.1s0.9-2.1,2.1-2.1s2.1,0.9,2.1,2.1S1097.4,48.6,1096.2,48.6z"/>
	<path class="st3" d="M1096.2,60.9c-2.3,0-4.2,1.9-4.2,4.2s1.9,4.2,4.2,4.2s4.2-1.9,4.2-4.2S1098.5,60.9,1096.2,60.9z M1096.2,67.2
		c-1.2,0-2.1-0.9-2.1-2.1c0-1.2,0.9-2.1,2.1-2.1s2.1,0.9,2.1,2.1C1098.3,66.2,1097.4,67.2,1096.2,67.2z"/>
	<path class="st3" d="M1096.2,79.9c-2.3,0-4.2,1.9-4.2,4.2s1.9,4.2,4.2,4.2s4.2-1.9,4.2-4.2S1098.5,79.9,1096.2,79.9z M1096.2,86.2
		c-1.2,0-2.1-0.9-2.1-2.1s0.9-2.1,2.1-2.1s2.1,0.9,2.1,2.1S1097.4,86.2,1096.2,86.2z"/>
	<path class="st3" d="M1096.2,99.8c-2.3,0-4.2,1.9-4.2,4.2s1.9,4.2,4.2,4.2s4.2-1.9,4.2-4.2S1098.5,99.8,1096.2,99.8z M1096.2,106.1
		c-1.2,0-2.1-0.9-2.1-2.1c0-1.2,0.9-2.1,2.1-2.1s2.1,0.9,2.1,2.1C1098.3,105.1,1097.4,106.1,1096.2,106.1z"/>
	<path class="st3" d="M1096.2,119c-2.3,0-4.2,1.9-4.2,4.2s1.9,4.2,4.2,4.2s4.2-1.9,4.2-4.2S1098.5,119,1096.2,119z M1096.2,125.3
		c-1.2,0-2.1-0.9-2.1-2.1c0-1.2,0.9-2.1,2.1-2.1s2.1,0.9,2.1,2.1C1098.3,124.3,1097.4,125.3,1096.2,125.3z"/>
</g>
<text transform="matrix(1 0 0 1 1073.0984 240.8951)"><tspan x="0" y="0" class="st0 st1">Candidate Keyphrases</tspan><tspan x="28.7" y="14.4" class="st0 st1">(all startups)</tspan></text>
<text transform="matrix(1 0 0 1 1103.7695 10.2951)"><tspan x="0" y="0" class="st0 st1">Keyphrases</tspan><tspan x="-1.3" y="14.4" class="st0 st1">(per startup)</tspan></text>
<g>
	<g>
		<line class="st4" x1="135.3" y1="84.9" x2="184.9" y2="84.9"/>
		<g>
			<polygon points="183.4,89.9 192,84.9 183.4,79.9 			"/>
		</g>
	</g>
</g>
<text transform="matrix(1 0 0 1 146.1694 110.3395)" class="st5 st1">Output</text>
<text transform="matrix(1 0 0 1 577.7981 110.3393)" class="st5 st1">Output</text>
<g>
	<g>
		<path class="st3" d="M1343.1,174.2c-3.9,0-7.1,3.2-7.1,7.1s3.2,7.1,7.1,7.1c3.9,0,7.1-3.2,7.1-7.1S1347,174.2,1343.1,174.2z
			 M1343.1,184.7c-1.9,0-3.5-1.6-3.5-3.5s1.6-3.5,3.5-3.5c1.9,0,3.5,1.6,3.5,3.5S1345.1,184.7,1343.1,184.7z"/>
		<path class="st3" d="M1368,188.3c2.4,0,4.4-2,4.4-4.4v-5.3c0-2.4-2-4.4-4.4-4.4h-5.3c-2.4,0-4.4,2-4.4,4.4v5.3
			c0,2.4,2,4.4,4.4,4.4H1368z M1361.8,183.9v-5.3c0-0.5,0.4-0.9,0.9-0.9h5.3c0.5,0,0.9,0.4,0.9,0.9v5.3c0,0.5-0.4,0.9-0.9,0.9h-5.3
			C1362.2,184.7,1361.8,184.4,1361.8,183.9z"/>
	</g>
	<path class="st3" d="M1343.1,209.6c-3.9,0-7.1,3.2-7.1,7.1s3.2,7.1,7.1,7.1c3.9,0,7.1-3.2,7.1-7.1S1347,209.6,1343.1,209.6z
		 M1343.1,220.2c-1.9,0-3.5-1.6-3.5-3.5s1.6-3.5,3.5-3.5c1.9,0,3.5,1.6,3.5,3.5S1345.1,220.2,1343.1,220.2z"/>
	<g>
		<path class="st3" d="M1343.1,227.3c-3.9,0-7.1,3.2-7.1,7.1s3.2,7.1,7.1,7.1c3.9,0,7.1-3.2,7.1-7.1S1347,227.3,1343.1,227.3z
			 M1343.1,237.9c-1.9,0-3.5-1.6-3.5-3.5s1.6-3.5,3.5-3.5c1.9,0,3.5,1.6,3.5,3.5S1345.1,237.9,1343.1,237.9z"/>
		<path class="st3" d="M1368,241.5c2.4,0,4.4-2,4.4-4.4v-5.3c0-2.4-2-4.4-4.4-4.4h-5.3c-2.4,0-4.4,2-4.4,4.4v5.3
			c0,2.4,2,4.4,4.4,4.4H1368z M1361.8,237.1v-5.3c0-0.5,0.4-0.9,0.9-0.9h5.3c0.5,0,0.9,0.4,0.9,0.9v5.3c0,0.5-0.4,0.9-0.9,0.9h-5.3
			C1362.2,237.9,1361.8,237.5,1361.8,237.1z"/>
	</g>
	<path class="st3" d="M1368,156.4h-5.3c-2.4,0-4.4,2-4.4,4.4v0.9h-8.3c-0.8-3-3.5-5.3-6.8-5.3c-3.9,0-7.1,3.2-7.1,7.1
		c0,3.9,3.2,7.1,7.1,7.1c3.3,0,6-2.3,6.8-5.3h8.3v0.9c0,2.4,2,4.4,4.4,4.4h5.3c2.4,0,4.4-2,4.4-4.4v-5.3
		C1372.4,158.4,1370.4,156.4,1368,156.4z M1343.1,167c-1.9,0-3.5-1.6-3.5-3.5c0-1.9,1.6-3.5,3.5-3.5c1.9,0,3.5,1.6,3.5,3.5
		C1346.7,165.4,1345.1,167,1343.1,167z M1368.9,166.1c0,0.5-0.4,0.9-0.9,0.9h-5.3c-0.5,0-0.9-0.4-0.9-0.9v-5.3
		c0-0.5,0.4-0.9,0.9-0.9h5.3c0.5,0,0.9,0.4,0.9,0.9V166.1z"/>
	<path class="st3" d="M1368,206c2.4,0,4.4-2,4.4-4.4v-5.3c0-2.4-2-4.4-4.4-4.4h-5.3c-2.4,0-4.4,2-4.4,4.4v5.3c0,2.4,2,4.4,4.4,4.4
		H1368z M1361.8,201.6v-5.3c0-0.5,0.4-0.9,0.9-0.9h5.3c0.5,0,0.9,0.4,0.9,0.9v5.3c0,0.5-0.4,0.9-0.9,0.9h-5.3
		C1362.2,202.5,1361.8,202.1,1361.8,201.6z"/>
	<path class="st3" d="M1368,209.6h-5.3c-0.7,0-1.4,0.2-2,0.5l-11.3-8c0.5-0.9,0.7-2,0.7-3.1c0-3.9-3.2-7.1-7.1-7.1
		c-3.9,0-7.1,3.2-7.1,7.1c0,3.9,3.2,7.1,7.1,7.1c1.5,0,2.9-0.5,4-1.3l11.3,8.1c-0.1,0.4-0.2,0.8-0.2,1.2v5.3c0,2.4,2,4.4,4.4,4.4
		h5.3c2.4,0,4.4-2,4.4-4.4V214C1372.4,211.6,1370.4,209.6,1368,209.6z M1343.1,202.5c-1.9,0-3.5-1.6-3.5-3.5c0-1.9,1.6-3.5,3.5-3.5
		c1.9,0,3.5,1.6,3.5,3.5C1346.7,200.9,1345.1,202.5,1343.1,202.5z M1368.9,219.3c0,0.5-0.4,0.9-0.9,0.9h-5.3c-0.5,0-0.9-0.4-0.9-0.9
		V214c0-0.5,0.4-0.9,0.9-0.9h5.3c0.5,0,0.9,0.4,0.9,0.9V219.3z"/>
</g>
<g>
	<g>
		<path d="M1543,194h70c2.3,0,4.2-1.9,4.2-4.2s-1.9-4.2-4.2-4.2h-70c-2.3,0-4.2,1.9-4.2,4.2S1540.7,194,1543,194z"/>
	</g>
	<g>
		<path d="M1554.3,204.8H1543c-2.3,0-4.2,1.9-4.2,4.2c0,2.3,1.9,4.2,4.2,4.2h11.4c2.3,0,4.2-1.9,4.2-4.2
			C1558.5,206.7,1556.7,204.8,1554.3,204.8z"/>
		<path d="M1578.1,204.9h-11.4c-2.3,0-4.2,1.9-4.2,4.2s1.9,4.2,4.2,4.2h11.4c2.3,0,4.2-1.9,4.2-4.2S1580.4,204.9,1578.1,204.9z"/>
		<path d="M1602.2,204.9h-11.4c-2.3,0-4.2,1.9-4.2,4.2s1.9,4.2,4.2,4.2h11.4c2.3,0,4.2-1.9,4.2-4.2S1604.5,204.9,1602.2,204.9z"/>
	</g>
	<text transform="matrix(1 0 0 1 1524.2417 193.9624)" class="st6 st7">1.</text>
	<text transform="matrix(1 0 0 1 1524.9419 211.7285)" class="st6 st7">2.</text>
</g>
<g>
	<g>
		<line class="st4" x1="1434.1" y1="198.9" x2="1483.7" y2="198.9"/>
		<g>
			<polygon points="1482.2,203.9 1490.8,198.9 1482.2,194 			"/>
		</g>
	</g>
</g>
<text transform="matrix(1 0 0 1 1446.427 225.5808)" class="st5 st1">Output</text>
<text transform="matrix(1 0 0 1 1012.8816 110.3394)" class="st5 st1">Output</text>
<g>
	<g>
		<line class="st4" x1="1001.2" y1="84.9" x2="1050.7" y2="84.9"/>
		<g>
			<polygon points="1049.3,89.9 1057.9,84.9 1049.3,79.9 			"/>
		</g>
	</g>
</g>
<text transform="matrix(1 0 0 1 1012.8812 337.6557)" class="st5 st1">Output</text>
<g>
	<g>
		<line class="st4" x1="1222.8" y1="84.9" x2="1263.4" y2="113.3"/>
		<g>
			<polygon points="1259.3,116.5 1269.2,117.4 1265,108.3 			"/>
		</g>
	</g>
</g>
<g>
	<g>
		<line class="st4" x1="1222.8" y1="313" x2="1263.4" y2="284.6"/>
		<g>
			<polygon points="1265,289.5 1269.2,280.5 1259.3,281.4 			"/>
		</g>
	</g>
</g>
<g>
	<g>
		<line class="st4" x1="784.7" y1="84.9" x2="834.3" y2="84.9"/>
		<g>
			<polygon points="832.8,89.9 841.4,84.9 832.8,79.9 			"/>
		</g>
	</g>
</g>
<g>
	<g>
		<line class="st4" x1="568.3" y1="84.9" x2="617.8" y2="84.9"/>
		<g>
			<polygon points="616.3,89.9 625,84.9 616.3,79.9 			"/>
		</g>
	</g>
</g>
<g>
	<g>
		<line class="st4" x1="351.8" y1="84.9" x2="401.3" y2="84.9"/>
		<g>
			<polygon points="399.9,89.9 408.5,84.9 399.9,79.9 			"/>
		</g>
	</g>
</g>
<g>
	<path class="st3" d="M143,270.5c-9.4,0-16.8,2.9-16.8,6.7v28.2c0,3.8,7.4,6.7,16.8,6.7c9.4,0,16.8-2.9,16.8-6.7v-28.2
		C159.8,273.5,152.4,270.5,143,270.5z M158.5,305.4c0,2.5-6.4,5.4-15.5,5.4s-15.5-2.8-15.5-5.4v-6.7c2.6,2.4,8.5,4,15.5,4
		c7,0,12.9-1.6,15.5-4V305.4z M158.5,296c0,2.5-6.4,5.4-15.5,5.4c-9.1,0-15.5-2.8-15.5-5.4v-6.7c2.6,2.4,8.5,4,15.5,4
		c7,0,12.9-1.6,15.5-4V296z M158.5,286.6c0,2.5-6.4,5.4-15.5,5.4c-9.1,0-15.5-2.8-15.5-5.4v-6.7c2.6,2.4,8.5,4,15.5,4
		c7,0,12.9-1.6,15.5-4V286.6z M143,282.6c-9.1,0-15.5-2.8-15.5-5.4s6.4-5.4,15.5-5.4c9.1,0,15.5,2.8,15.5,5.4
		C158.5,279.7,152.1,282.6,143,282.6z M132.2,286.4c-0.1,0.2-0.4,0.4-0.6,0.4c-0.1,0-0.2,0-0.3-0.1l-0.6-0.3
		c-0.3-0.2-0.5-0.6-0.3-0.9c0.1-0.3,0.5-0.5,0.9-0.3l0.6,0.3C132.2,285.6,132.3,286,132.2,286.4z M132.2,295.9
		c-0.1,0.3-0.5,0.5-0.9,0.4l-0.6-0.3c-0.3-0.1-0.5-0.5-0.4-0.9c0.1-0.3,0.5-0.5,0.9-0.4l0.6,0.3
		C132.2,295.1,132.3,295.5,132.2,295.9z M132.2,305.3c-0.1,0.2-0.4,0.4-0.6,0.4c-0.1,0-0.2,0-0.3-0.1l-0.6-0.3
		c-0.3-0.1-0.5-0.5-0.4-0.9c0.1-0.3,0.5-0.5,0.9-0.4l0,0l0.6,0.3C132.2,304.6,132.3,305,132.2,305.3z"/>
	<path class="st3" d="M164.7,292.4c0-0.5,0.4-0.9,0.9-0.9l0,0h18.7c0.5,0,0.9,0.4,0.9,0.9c0,0,0,0,0,0v14.8l2.1-2.1
		c0.4-0.4,0.9-0.4,1.3,0c0.4,0.4,0.4,0.9,0,1.3l-3.6,3.6c-0.4,0.4-0.9,0.4-1.3,0c0,0,0,0,0,0l-3.6-3.6c-0.4-0.4-0.4-0.9,0-1.3
		s0.9-0.4,1.3,0c0,0,0,0,0,0l2.1,2.1v-13.9h-17.8C165.1,293.3,164.7,292.9,164.7,292.4L164.7,292.4L164.7,292.4z M161.2,333.7
		c0,0.5-0.4,0.9-0.9,0.9l0,0l0,0l-17.2,0c-0.5,0-0.9-0.4-0.9-0.9v-10.9l-2.1,2.1c-0.4,0.4-0.9,0.4-1.3,0c-0.4-0.4-0.4-0.9,0-1.3
		l3.6-3.6c0.4-0.4,0.9-0.4,1.3,0c0,0,0,0,0,0l3.6,3.6c0.4,0.4,0.4,0.9,0,1.3c-0.2,0.2-0.4,0.3-0.7,0.3c-0.2,0-0.5-0.1-0.7-0.3
		l-2.1-2.1v10l16.3,0C160.7,332.8,161.2,333.2,161.2,333.7L161.2,333.7L161.2,333.7z"/>
	<path class="st3" d="M184.4,313.9c-9.4,0-16.8,2.9-16.8,6.7v28.2c0,3.8,7.4,6.7,16.8,6.7c9.4,0,16.8-2.9,16.8-6.7v-28.2
		C201.3,316.9,193.9,313.9,184.4,313.9z M199.9,348.8c0,2.5-6.4,5.4-15.5,5.4s-15.5-2.8-15.5-5.4v-6.7c2.6,2.4,8.5,4,15.5,4
		c7,0,12.9-1.6,15.5-4V348.8z M199.9,339.4c0,2.5-6.4,5.4-15.5,5.4c-9.1,0-15.5-2.8-15.5-5.4v-6.7c2.6,2.4,8.5,4,15.5,4
		c7,0,12.9-1.6,15.5-4V339.4z M199.9,330c0,2.5-6.4,5.4-15.5,5.4c-9.1,0-15.5-2.8-15.5-5.4v-6.7c2.6,2.4,8.5,4,15.5,4
		c7,0,12.9-1.6,15.5-4V330z M184.4,326c-9.1,0-15.5-2.8-15.5-5.4c0-2.5,6.4-5.4,15.5-5.4c9.1,0,15.5,2.8,15.5,5.4
		C199.9,323.2,193.5,326,184.4,326z M173.6,329.8c-0.1,0.2-0.4,0.4-0.6,0.4c-0.1,0-0.2,0-0.3-0.1l-0.6-0.3c-0.3-0.2-0.5-0.6-0.3-0.9
		c0.1-0.3,0.5-0.5,0.9-0.3l0.6,0.3C173.6,329.1,173.8,329.5,173.6,329.8z M173.6,339.3c-0.1,0.3-0.5,0.5-0.9,0.4l-0.6-0.3
		c-0.3-0.1-0.5-0.5-0.4-0.9c0.1-0.3,0.5-0.5,0.9-0.4l0.6,0.3C173.6,338.5,173.8,338.9,173.6,339.3z M173.6,348.8
		c-0.1,0.2-0.4,0.4-0.6,0.4c-0.1,0-0.2,0-0.3-0.1l-0.6-0.3c-0.3-0.1-0.5-0.5-0.4-0.9c0.1-0.3,0.5-0.5,0.9-0.4l0,0l0.6,0.3
		C173.6,348,173.8,348.4,173.6,348.8z"/>
</g>
<path class="st3" d="M937.2,328c-4.9,0-8.8,4-8.8,8.8c0,4.9,4,8.8,8.8,8.8l0,0h0.1c4.9-0.1,8.8-4.1,8.7-8.9
	C946,331.8,942,327.9,937.2,328L937.2,328z M942.2,341.6c-1.3,1.3-3,2-4.8,2.1h-0.1c-3.8,0-6.8-3.1-6.8-6.9c0-3.7,3-6.8,6.8-6.8h0.1
	c3.8,0,6.9,3.1,6.9,6.9C944.1,338.6,943.4,340.3,942.2,341.6z M956,334.6c0-0.5-0.3-0.9-0.8-0.9L952,333c-0.4-1.4-0.9-2.7-1.6-4
	l1.8-2.8c0.3-0.4,0.2-0.9-0.1-1.2l-3.1-3c-0.3-0.3-0.8-0.4-1.2-0.1l-2.7,1.9c-1.2-0.7-2.6-1.3-4-1.6l-0.7-3.3
	c-0.1-0.4-0.5-0.8-1-0.8h0l-4.3,0c-0.5,0-0.9,0.3-0.9,0.8l-0.6,3.2c-1.4,0.4-2.7,0.9-4,1.6l-0.2-0.2l20.3-25.8
	c0.3-0.4,0.3-1-0.2-1.4c-0.2-0.1-0.4-0.2-0.6-0.2h-61.3c-0.5,0-1,0.4-1,1c0,0.2,0.1,0.4,0.2,0.6l20.7,26.4v25c0,0.5,0.4,1,1,1
	c0.1,0,0.2,0,0.3-0.1l15.2-5.8c0,0.1,0.1,0.2,0.1,0.2l-1.8,2.8c-0.3,0.4-0.2,0.9,0.1,1.2l3.1,3c0.3,0.3,0.8,0.4,1.2,0.1l2.7-1.9
	c1.2,0.7,2.6,1.3,4,1.6l0.7,3.3c0.1,0.5,0.5,0.8,1,0.8h0l4.3,0c0.5,0,0.9-0.3,0.9-0.8l0.6-3.2c1.4-0.4,2.7-0.9,4-1.6l2.8,1.8
	c0.4,0.3,0.9,0.2,1.2-0.1l3-3.1c0.3-0.3,0.4-0.8,0.1-1.2l-1.9-2.7c0.7-1.2,1.3-2.6,1.6-4l3.3-0.7c0.5-0.1,0.8-0.5,0.8-1L956,334.6z
	 M909.5,347.7v-23.9c0-0.2-0.1-0.4-0.2-0.6l-19.7-25.1h57.3l-19.2,24.4l-1-0.6c-0.4-0.3-0.9-0.2-1.2,0.1l-3,3.1
	c-0.3,0.3-0.4,0.8-0.1,1.2l1.8,2.7c-0.7,1.2-1.3,2.6-1.6,4l-3.3,0.7c-0.5,0.1-0.8,0.5-0.8,1l0,4.3c0,0.5,0.3,0.9,0.8,0.9l3.2,0.6
	c0.2,0.7,0.4,1.3,0.6,2L909.5,347.7z M951,338.8c-0.4,0.1-0.7,0.4-0.8,0.8c-0.3,1.6-1,3.1-1.9,4.5c-0.2,0.3-0.2,0.8,0,1.1l1.8,2.6
	l-1.9,1.9l-2.7-1.7c-0.3-0.2-0.7-0.2-1.1,0c-1.4,0.9-2.9,1.5-4.5,1.9c-0.4,0.1-0.7,0.4-0.8,0.8l-0.6,3.1l-2.7,0l-0.7-3.1
	c-0.1-0.4-0.4-0.7-0.8-0.7c-1.6-0.3-3.1-1-4.5-1.9c-0.3-0.2-0.8-0.2-1.1,0l-2.6,1.8l-1.9-1.9l1.7-2.7c0.2-0.3,0.2-0.7,0-1.1
	c-0.9-1.4-1.5-2.9-1.9-4.5c-0.1-0.4-0.4-0.7-0.8-0.8l-3.1-0.6l0-2.7l3.1-0.7c0.4-0.1,0.7-0.4,0.8-0.8c0.3-1.6,1-3.1,1.9-4.5
	c0.2-0.3,0.2-0.8,0-1.1l-1.8-2.6l1.9-1.9l2.7,1.7c0.3,0.2,0.7,0.2,1.1,0c1.4-0.9,2.9-1.5,4.5-1.9c0.4-0.1,0.7-0.4,0.8-0.8l0.6-3.1
	l2.7,0l0.7,3.1c0.1,0.4,0.4,0.7,0.8,0.8c1.6,0.3,3.1,1,4.5,1.9c0.3,0.2,0.8,0.2,1.1,0l2.6-1.8l1.9,1.9l-1.7,2.7
	c-0.2,0.3-0.2,0.7,0,1.1c0.9,1.4,1.5,2.9,1.9,4.5c0.1,0.4,0.4,0.7,0.8,0.8l3.1,0.6l0,2.7L951,338.8z M887.7,293.5H904
	c0.5,0,1-0.4,1-1c0,0,0,0,0,0l-0.1-16c0,0,0,0,0-0.1v0v0c0-0.1-0.1-0.3-0.1-0.4l0,0c0,0,0,0,0-0.1l0,0c0,0,0,0-0.1-0.1l-5-5
	c-0.1-0.1-0.3-0.2-0.5-0.3c0,0,0,0,0,0h0c0,0,0,0-0.1,0l-11.2-0.1c-0.3,0-0.5,0.1-0.7,0.3c-0.2,0.2-0.3,0.4-0.3,0.7v21.1
	C886.7,293.1,887.2,293.5,887.7,293.5z M899.8,273.9l1.7,1.7h-1.7V273.9z M888.7,272.5l9.2,0.1v4c0,0.5,0.4,1,1,1h4l0.1,14h-14.3
	V272.5z M910.1,293.5h16.3c0.5,0,1-0.4,1-1c0,0,0,0,0,0l-0.1-16c0,0,0,0,0-0.1v0l0,0c0-0.1-0.1-0.3-0.1-0.4l0,0c0,0,0,0,0-0.1l0,0
	c0,0,0,0-0.1-0.1l-5-5c0,0,0,0-0.1-0.1l0,0c-0.1-0.1-0.3-0.2-0.5-0.2c0,0,0,0,0,0h0c0,0,0,0-0.1,0l-11.2-0.1c-0.3,0-0.5,0.1-0.7,0.3
	c-0.2,0.2-0.3,0.4-0.3,0.7v21.1C909.1,293.1,909.5,293.5,910.1,293.5z M922.2,273.9l1.7,1.7h-1.7V273.9z M911,272.5l9.2,0.1v4
	c0,0.5,0.4,1,1,1h4l0.1,14H911V272.5z M932.4,293.5h16.3c0.5,0,1-0.4,1-1c0,0,0,0,0,0l-0.1-16c0,0,0,0,0-0.1v0v0
	c0-0.1-0.1-0.3-0.1-0.4l0,0c0,0,0,0,0-0.1l0,0c0,0,0,0-0.1-0.1l-5-5c-0.1-0.1-0.3-0.2-0.5-0.3l0,0h0c0,0,0,0-0.1,0l-11.2-0.1
	c-0.3,0-0.5,0.1-0.7,0.3c-0.2,0.2-0.3,0.4-0.3,0.7v21.1C931.5,293.1,931.9,293.5,932.4,293.5z M944.6,273.9l1.7,1.7h-1.7V273.9z
	 M933.4,272.5l9.2,0.1v4c0,0.5,0.4,1,1,1h4l0.1,14h-14.3V272.5z"/>
<path class="st2" d="M706.3,284.2c-4.8-1.8-11.5-2.9-19-2.9c-7.4,0-14.1,1.1-19,2.9c-4.5,1.7-7.3,3.9-7.3,6.2c0,2.3,2.8,4.5,7.3,6.2
	c4.8,1.8,11.5,2.9,19,2.9c7.4,0,14.1-1.1,19-2.9c4.5-1.7,7.3-3.9,7.3-6.2C713.6,288.1,710.8,285.8,706.3,284.2L706.3,284.2z
	 M661,306.3v-11.5c1.5,1.5,3.8,2.8,6.6,3.8c5.1,1.9,12,3.1,19.7,3.1s14.6-1.2,19.7-3.1c2.8-1.1,5.1-2.4,6.6-3.8v11.5
	c0,2.3-2.8,4.5-7.3,6.2c-4.8,1.8-11.5,2.9-19,2.9c-7.4,0-14.1-1.1-19-2.9C663.8,310.8,661,308.6,661,306.3L661,306.3z M666.6,306
	l1,0.4c0.5,0.2,1.2,0,1.4-0.6c0.2-0.5,0-1.2-0.6-1.4l-1-0.4c-0.5-0.2-1.2,0-1.4,0.6C665.9,305.1,666.1,305.8,666.6,306L666.6,306z
	 M666.6,322c-0.5-0.2-0.8-0.8-0.6-1.4c0.2-0.5,0.8-0.8,1.4-0.6l1,0.4c0.5,0.2,0.8,0.8,0.6,1.4c-0.2,0.5-0.8,0.8-1.4,0.6L666.6,322
	L666.6,322z M666.6,338.1c-0.5-0.2-0.8-0.8-0.6-1.4c0.2-0.5,0.8-0.8,1.4-0.6l1,0.4c0.5,0.2,0.8,0.8,0.6,1.4
	c-0.2,0.5-0.8,0.8-1.4,0.6L666.6,338.1L666.6,338.1z M713.6,321.4l-4-2c-0.5-0.3-0.7-0.9-0.5-1.4c0.1-0.1,0.1-0.2,0.2-0.3l0,0
	l3.6-3.1c0.2-0.2,0.4-0.4,0.6-0.6v-3.3c-1.5,1.5-3.8,2.8-6.6,3.8c-5.1,1.9-12,3.1-19.7,3.1c-7.7,0-14.6-1.2-19.7-3.1
	c-2.8-1.1-5.1-2.4-6.6-3.8v11.5c0,2.3,2.8,4.5,7.3,6.2c4.8,1.8,11.5,2.9,19,2.9c7.4,0,14.1-1.1,19-2.9c4.5-1.7,7.3-3.9,7.3-6.2
	L713.6,321.4L713.6,321.4L713.6,321.4z M740.4,305.7l0.4-0.9c0.3-0.7,0.3-1.6,0.1-2.3c-0.3-0.7-0.8-1.3-1.6-1.6l-6.1-2.7
	c-0.7-0.3-1.6-0.3-2.3-0.1c-0.7,0.3-1.3,0.8-1.6,1.6l-0.4,0.9L740.4,305.7L740.4,305.7L740.4,305.7z M735.1,296.7l10.2-23
	c0.2-0.5,0.6-0.8,1-1c0.4-0.2,0.9-0.2,1.4,0c0.5,0.2,0.8,0.6,1,1c0.2,0.4,0.2,0.9,0,1.4l-10.2,23L735.1,296.7L735.1,296.7z
	 M727.1,302.1L727.1,302.1L727.1,302.1l-1.1-0.5l0,0l0,0l0,0c-0.9-0.4-1.9-0.4-2.7-0.1c-0.9,0.3-1.6,1-2,1.9h0l0,0h0l-3.6,8.3
	c-0.4,0.9-0.8,1.7-1.3,2.4c-0.5,0.7-1.1,1.4-1.9,2l-2.4,2.1l4.3,2.2c0.4,0.2,0.8,0.3,1.3,0.4c0.5,0.1,0.9,0.1,1.4,0l4-0.3l0,0
	c0.5,0,0.9,0.2,1.1,0.7l1.3,3.2l3.3,1.5c2.1,0.9,4.5,0.9,6.5,0.1c2-0.8,3.8-2.4,4.7-4.5l3.6-8.2c0.4-0.9,0.4-1.9,0.1-2.8
	c-0.3-0.9-1-1.6-1.9-2l-1.1-0.5h0l0,0L727.1,302.1L727.1,302.1L727.1,302.1z M698.1,351.6c1.1,1.1,2.7,1.8,4.4,1.8h25.8
	c1.7,0,3.3-0.7,4.4-1.8c1.1-1.1,1.8-2.7,1.8-4.4s-0.7-3.2-1.8-4.4c-1.1-1.1-2.7-1.8-4.4-1.8h-1.8c-0.5,0-1-0.4-1-0.9
	c-0.2-1-0.7-1.9-1.4-2.5c-0.7-0.6-1.7-1-2.7-1c-0.5,0-0.9,0.1-1.4,0.2c-0.4,0.1-0.8,0.3-1.2,0.6c0,0-0.1,0-0.1,0.1
	c-0.5,0.3-1.1,0.2-1.5-0.3c-0.6-0.9-1.5-1.7-2.5-2.3c-1-0.5-2.1-0.8-3.3-0.8c-1.8,0-3.4,0.6-4.6,1.7c-1.2,1.1-2.1,2.5-2.3,4.2
	c0,0.5-0.5,1-1,1h-1.1c-1.7,0-3.3,0.7-4.4,1.8c-1.1,1.1-1.8,2.7-1.8,4.4S697,350.5,698.1,351.6L698.1,351.6L698.1,351.6z
	 M694.2,346.9c0.1-2.1,1-4.1,2.4-5.5c1.5-1.5,3.6-2.4,5.9-2.4h0.2c0.5-1.8,1.5-3.5,2.9-4.7c1.6-1.4,3.7-2.2,6-2.2
	c0.7,0,1.4,0.1,2.1,0.2v-5.8c-1.5,1.5-3.8,2.8-6.6,3.8c-5.1,1.9-12,3.1-19.7,3.1c-7.7,0-14.6-1.2-19.7-3.1c-2.8-1.1-5.1-2.4-6.6-3.8
	v11.5c0,2.3,2.8,4.5,7.3,6.2c4.8,1.8,11.5,2.9,19,2.9c1.4,0,2.7,0,4-0.1C692.3,347.1,693.2,347,694.2,346.9
	C694.2,346.9,694.2,346.9,694.2,346.9z M702.5,355.5c-2.3,0-4.4-0.9-5.9-2.4c-1.1-1.1-1.9-2.5-2.3-4.1c-1,0.1-2,0.2-3,0.2
	c-1.4,0.1-2.7,0.1-4.1,0.1c-7.7,0-14.6-1.2-19.7-3.1c-5.4-2-8.7-4.9-8.7-8.2v-47.7c0-3.3,3.3-6.2,8.7-8.2c5.1-1.9,12-3.1,19.7-3.1
	c7.7,0,14.6,1.2,19.7,3.1c5.4,2,8.7,4.9,8.7,8.2v20.3l3.5-8.1h0l0,0h0c0.6-1.4,1.8-2.5,3.2-3c1.4-0.5,2.9-0.5,4.3,0.1l0,0v0l0,0v0
	l0.1,0.1l0.4-0.9c0.6-1.3,1.6-2.2,2.8-2.7c0.9-0.4,2-0.4,3-0.2l10.2-23.1c0.4-1,1.2-1.7,2.2-2.1c0.9-0.4,2-0.4,3,0.1
	c1,0.4,1.7,1.2,2.1,2.2c0.4,0.9,0.4,2-0.1,3l-10.2,23c1.2,0.6,2.1,1.6,2.5,2.7c0.5,1.2,0.5,2.6-0.1,3.9l-0.4,0.9l0.1,0.1
	c1.4,0.6,2.5,1.8,3,3.2c0.5,1.4,0.5,2.9-0.1,4.4l-3.6,8.2c-1.2,2.7-3.4,4.6-5.9,5.6c-2.5,1-5.5,1-8.1-0.2l-3.7-1.6
	c-0.3-0.1-0.5-0.3-0.6-0.6l-1.1-2.9l-3.2,0.3c-0.7,0.1-1.3,0.1-1.9,0c-0.5-0.1-1-0.2-1.5-0.4v10.7l0,0c1,0.5,1.9,1.3,2.7,2.1
	c0.3-0.2,0.6-0.3,0.9-0.4c0.6-0.2,1.3-0.3,2-0.3c1.6,0,3,0.6,4.1,1.5c0.9,0.8,1.6,1.8,1.9,2.9h0.9c2.3,0,4.4,0.9,5.9,2.4
	c1.5,1.5,2.4,3.6,2.4,5.8c0,2.3-0.9,4.3-2.4,5.8c-1.5,1.5-3.6,2.4-5.9,2.4H702.5L702.5,355.5z M731,322c0.6-0.1,1.1,0.3,1.2,0.8
	c0.1,0.6-0.3,1.1-0.8,1.2c0,0-0.1,0-0.3,0c-0.1,0-0.2,0-0.3,0c-0.6,0.1-1.1-0.3-1.2-0.9c-0.1-0.6,0.3-1.1,0.9-1.2c0.1,0,0.1,0,0.2,0
	C730.9,322,730.9,322,731,322L731,322L731,322z M736.3,317.2c0.2-0.5,0.9-0.8,1.4-0.5c0.5,0.2,0.8,0.9,0.5,1.4c-0.5,1-1,1.9-1.5,2.6
	c-0.6,0.8-1.2,1.4-1.9,1.9c-0.5,0.3-1.1,0.3-1.5-0.2c-0.3-0.5-0.3-1.1,0.2-1.5c0.5-0.4,1-0.9,1.4-1.5
	C735.5,318.8,735.9,318.1,736.3,317.2L736.3,317.2L736.3,317.2z M731.2,279.1c-0.4-0.4-0.8-0.9-1.1-1.4c-0.3,0.5-0.7,1-1.1,1.4
	c-0.4,0.4-0.9,0.8-1.4,1.1c0.5,0.3,1,0.7,1.4,1.1c0.4,0.4,0.8,0.9,1.1,1.4c0.3-0.5,0.7-1,1.1-1.4s0.9-0.8,1.4-1.1
	C732.1,279.9,731.6,279.5,731.2,279.1L731.2,279.1z M730.1,272.9c-0.6,0-1.1,0.5-1.1,1.1c0,1.4-0.6,2.7-1.5,3.6
	c-0.9,0.9-2.2,1.5-3.6,1.5c-0.6,0-1.1,0.5-1.1,1.1s0.5,1.1,1.1,1.1c1.4,0,2.7,0.6,3.6,1.5c0.9,0.9,1.5,2.2,1.5,3.6
	c0,0.6,0.5,1.1,1.1,1.1s1.1-0.5,1.1-1.1c0-1.4,0.6-2.7,1.5-3.6c0.9-0.9,2.2-1.5,3.6-1.5c0.6,0,1.1-0.5,1.1-1.1s-0.5-1.1-1.1-1.1
	c-1.4,0-2.7-0.6-3.6-1.5c-0.9-0.9-1.5-2.2-1.5-3.6C731.2,273.4,730.7,272.9,730.1,272.9L730.1,272.9z M740.5,334.3
	c-0.4-0.4-0.8-0.9-1.1-1.4c-0.3,0.5-0.7,1-1.1,1.4c-0.4,0.4-0.9,0.8-1.4,1.1c0.5,0.3,1,0.7,1.4,1.1c0.4,0.4,0.8,0.9,1.1,1.4
	c0.3-0.5,0.7-1,1.1-1.4s0.9-0.8,1.4-1.1C741.4,335.1,740.9,334.7,740.5,334.3L740.5,334.3z M739.4,328.1c0.6,0,1.1,0.5,1.1,1.1
	c0,1.4,0.6,2.7,1.5,3.6s2.2,1.5,3.6,1.5c0.6,0,1.1,0.5,1.1,1.1s-0.5,1.1-1.1,1.1c-1.4,0-2.7,0.6-3.6,1.5c-0.9,0.9-1.5,2.2-1.5,3.6
	c0,0.6-0.5,1.1-1.1,1.1s-1.1-0.5-1.1-1.1c0-1.4-0.6-2.7-1.5-3.6c-0.9-0.9-2.2-1.5-3.6-1.5c-0.6,0-1.1-0.5-1.1-1.1s0.5-1.1,1.1-1.1
	c1.4,0,2.7-0.6,3.6-1.5c0.9-0.9,1.5-2.2,1.5-3.6C738.4,328.6,738.8,328.1,739.4,328.1z"/>
<g>
	<path class="st3" d="M451.6,300.4c-2.5,0-4.6,2-4.6,4.6v1.1c0,2.5,2,4.6,4.6,4.6h4.9l20.1,21.1v22.8c0,0.6,0.5,1,1,1
		c0.1,0,0.1,0,0.2,0l21.5-4.6c0.5-0.1,0.8-0.5,0.8-1v-18.2l20.1-21.1h4.9c2.5,0,4.6-2,4.6-4.6V305c0-2.5-2-4.6-4.6-4.6H451.6z
		 M449.1,306.1V305c0-1.4,1.1-2.5,2.5-2.5h73.6c1.4,0,2.5,1.1,2.5,2.5v1.1c0,1.4-1.1,2.5-2.5,2.5h-73.6
		C450.2,308.6,449.1,307.4,449.1,306.1z M498.4,330.6c-0.2,0.2-0.3,0.5-0.3,0.7v17.8l-19.4,4.1v-21.9c0-0.3-0.1-0.5-0.3-0.7
		l-19-19.9h58L498.4,330.6z"/>
	<g>
		<path class="st3" d="M474.2,289.7l-0.8-0.3c-0.4-0.2-0.9,0-1.1,0.4c-0.2,0.4,0,1,0.4,1.1l0.8,0.3c0.1,0,0.2,0.1,0.3,0.1
			c0.3,0,0.7-0.2,0.8-0.5C474.8,290.4,474.6,289.9,474.2,289.7z"/>
		<path class="st3" d="M468.6,301v-6.4c3.3,3.1,10.8,5.2,19.8,5.2s16.6-2.1,19.8-5.1v6.4h1.7v-21.9c0-4.8-9.5-8.6-21.6-8.6
			c-12.1,0-21.6,3.8-21.6,8.6V301H468.6z M508.2,291.1c0,3.2-8.1,6.8-19.8,6.8c-11.7,0-19.8-3.6-19.8-6.8v-8.6
			c3.3,3.1,10.8,5.2,19.8,5.2s16.6-2.1,19.8-5.1V291.1z M488.4,272.2c11.7,0,19.8,3.6,19.8,6.8c0,3.2-8.1,6.8-19.8,6.8
			c-11.7,0-19.8-3.6-19.8-6.8C468.6,275.8,476.7,272.2,488.4,272.2z"/>
	</g>
</g>
<g>
	<g>
		<path class="st3" d="M1109.4,278.9h70c2.3,0,4.2-1.9,4.2-4.2c0-2.3-1.9-4.2-4.2-4.2h-70c-2.3,0-4.2,1.9-4.2,4.2
			C1105.2,277,1107.1,278.9,1109.4,278.9z"/>
	</g>
	<g>
		<path class="st3" d="M1109.4,298.1h10.6c2.3,0,4.2-1.9,4.2-4.2c0-2.3-1.9-4.2-4.2-4.2h-10.6c-2.3,0-4.2,1.9-4.2,4.2
			C1105.2,296.2,1107.1,298.1,1109.4,298.1z"/>
	</g>
	<g>
		<path class="st3" d="M1109.4,355.5h10.6c2.3,0,4.2-1.9,4.2-4.2c0-2.3-1.9-4.2-4.2-4.2h-10.6c-2.3,0-4.2,1.9-4.2,4.2
			C1105.2,353.7,1107.1,355.5,1109.4,355.5z"/>
	</g>
	<g>
		<path class="st3" d="M1120.8,327.9h-11.3c-2.3,0-4.2,1.9-4.2,4.2c0,2.3,1.9,4.2,4.2,4.2h11.3c2.3,0,4.2-1.9,4.2-4.2
			C1125,329.8,1123.1,327.9,1120.8,327.9z"/>
		<path class="st3" d="M1144.5,328h-11.3c-2.3,0-4.2,1.9-4.2,4.2s1.9,4.2,4.2,4.2h11.3c2.3,0,4.2-1.9,4.2-4.2S1146.8,328,1144.5,328
			z"/>
		<path class="st3" d="M1168.6,328h-11.3c-2.3,0-4.2,1.9-4.2,4.2s1.9,4.2,4.2,4.2h11.3c2.3,0,4.2-1.9,4.2-4.2S1170.9,328,1168.6,328
			z"/>
	</g>
	<g>
		<path class="st3" d="M1109.4,317.2h10.6c2.3,0,4.2-1.9,4.2-4.2s-1.9-4.2-4.2-4.2h-10.6c-2.3,0-4.2,1.9-4.2,4.2
			S1107.1,317.2,1109.4,317.2z"/>
		<path class="st3" d="M1159.1,308.8h-25.7c-2.3,0-4.2,1.9-4.2,4.2s1.9,4.2,4.2,4.2h25.7c2.3,0,4.2-1.9,4.2-4.2
			S1161.4,308.8,1159.1,308.8z"/>
	</g>
	<path class="st3" d="M1094.6,270.5c-1.4,0-2.6,1.2-2.6,2.6v3.1c0,1.4,1.2,2.6,2.6,2.6h3.1c1.4,0,2.6-1.2,2.6-2.6v-3.1
		c0-1.4-1.2-2.6-2.6-2.6H1094.6z M1098.3,273.1v3.1c0,0.3-0.2,0.5-0.5,0.5h-3.1c-0.3,0-0.5-0.2-0.5-0.5v-3.1c0-0.3,0.2-0.5,0.5-0.5
		h3.1C1098,272.6,1098.3,272.8,1098.3,273.1z"/>
	<path class="st3" d="M1094.6,289.8c-1.4,0-2.6,1.2-2.6,2.6v3.1c0,1.4,1.2,2.6,2.6,2.6h3.1c1.4,0,2.6-1.2,2.6-2.6v-3.1
		c0-1.4-1.2-2.6-2.6-2.6H1094.6z M1098.3,292.5v3.1c0,0.3-0.2,0.5-0.5,0.5h-3.1c-0.3,0-0.5-0.2-0.5-0.5v-3.1c0-0.3,0.2-0.5,0.5-0.5
		h3.1C1098,291.9,1098.3,292.2,1098.3,292.5z"/>
	<path class="st3" d="M1094.6,309.5c-1.4,0-2.6,1.2-2.6,2.6v3.1c0,1.4,1.2,2.6,2.6,2.6h3.1c1.4,0,2.6-1.2,2.6-2.6v-3.1
		c0-1.4-1.2-2.6-2.6-2.6H1094.6z M1098.3,312.2v3.1c0,0.3-0.2,0.5-0.5,0.5h-3.1c-0.3,0-0.5-0.2-0.5-0.5v-3.1c0-0.3,0.2-0.5,0.5-0.5
		h3.1C1098,311.6,1098.3,311.9,1098.3,312.2z"/>
	<path class="st3" d="M1094.6,327.2c-1.4,0-2.6,1.2-2.6,2.6v3.1c0,1.4,1.2,2.6,2.6,2.6h3.1c1.4,0,2.6-1.2,2.6-2.6v-3.1
		c0-1.4-1.2-2.6-2.6-2.6H1094.6z M1098.3,329.8v3.1c0,0.3-0.2,0.5-0.5,0.5h-3.1c-0.3,0-0.5-0.2-0.5-0.5v-3.1c0-0.3,0.2-0.5,0.5-0.5
		h3.1C1098,329.3,1098.3,329.5,1098.3,329.8z"/>
	<path class="st3" d="M1094.6,347.2c-1.4,0-2.6,1.2-2.6,2.6v3.1c0,1.4,1.2,2.6,2.6,2.6h3.1c1.4,0,2.6-1.2,2.6-2.6v-3.1
		c0-1.4-1.2-2.6-2.6-2.6H1094.6z M1098.3,349.8v3.1c0,0.3-0.2,0.5-0.5,0.5h-3.1c-0.3,0-0.5-0.2-0.5-0.5v-3.1c0-0.3,0.2-0.5,0.5-0.5
		h3.1C1098,349.2,1098.3,349.5,1098.3,349.8z"/>
	<path class="st3" d="M1133.8,355.5h10.6c2.3,0,4.2-1.9,4.2-4.2c0-2.3-1.9-4.2-4.2-4.2h-10.6c-2.3,0-4.2,1.9-4.2,4.2
		C1129.6,353.7,1131.4,355.5,1133.8,355.5z"/>
</g>
<g>
	<g>
		<line class="st4" x1="1001.2" y1="313" x2="1050.7" y2="313"/>
		<g>
			<polygon points="1049.3,318 1057.9,313 1049.3,308 			"/>
		</g>
	</g>
</g>
<g>
	<g>
		<line class="st4" x1="784.7" y1="313" x2="834.3" y2="313"/>
		<g>
			<polygon points="832.8,318 841.4,313 832.8,308 			"/>
		</g>
	</g>
</g>
<g>
	<g>
		<line class="st4" x1="568.3" y1="313" x2="617.8" y2="313"/>
		<g>
			<polygon points="616.3,318 625,313 616.3,308 			"/>
		</g>
	</g>
</g>
<g>
	<g>
		<line class="st4" x1="351.8" y1="313" x2="401.3" y2="313"/>
		<g>
			<polygon points="399.9,318 408.5,313 399.9,308 			"/>
		</g>
	</g>
</g>
<text transform="matrix(1 0 0 1 577.7981 337.6556)" class="st5 st1">Output</text>
</svg>
