<?xml version="1.0" encoding="utf-8"?>
<!-- Generator: Adobe Illustrator 25.1.0, SVG Export Plug-In . SVG Version: 6.00 Build 0)  -->
<svg version="1.1" id="Layer_1" xmlns="http://www.w3.org/2000/svg" xmlns:xlink="http://www.w3.org/1999/xlink" x="0px" y="0px"
	 viewBox="0 0 1540 1090.3" style="enable-background:new 0 0 1540 1090.3;" xml:space="preserve">
<style type="text/css">
	.st0{fill:#010101;}
	.st1{fill:#015F74;}
	.st2{fill:none;stroke:#808285;stroke-width:2;stroke-linecap:round;stroke-miterlimit:10;}
	.st3{fill:none;stroke:#808285;stroke-width:2;stroke-linecap:round;stroke-miterlimit:10;stroke-dasharray:12.1254,12.1254;}
	.st4{fill:none;stroke:#808285;stroke-width:2;stroke-linecap:round;stroke-miterlimit:10;stroke-dasharray:12;}
	.st5{fill:none;}
	.st6{fill:#025F75;}
	.st7{fill:#FFFFFF;}
	.st8{fill:none;stroke:#010101;stroke-width:1.5;stroke-linecap:round;stroke-miterlimit:10;}
	.st9{fill:none;stroke:#010101;stroke-width:1.5;stroke-linecap:round;stroke-linejoin:round;stroke-miterlimit:10;}
	.st10{fill:none;stroke:#000000;stroke-miterlimit:10;}
</style>
<path class="st0" d="M841.9,1022c-1.6-16.7-4-33.3-5.7-50c-3.4-33.6-5.9-67.2-7.6-101c-3.3-67.4-3.1-135,0.5-202.4
	c0.9-17.4,2.1-34.9,3.5-52.3c1-12.5,2.6-25.1,1.1-37.7c-1.1-10-4.2-20.7-12.1-27.5c-10.7-9.2-25.2-6.9-38.2-5.7
	c-68.3,6.5-136.8,10.9-205.4,13.2c-68.1,2.2-136.3,2.4-204.4,0.4c-4.5-0.1-240-0.3-244.5-0.4c0.3-6,0.7-12,1-18
	c0.1-1.9-3.7,0.6-4,0.9c-1.6,1.2-3.3,3.1-3.5,5.2c-0.2,3.9-0.4,7.8-0.7,11.6c-10-0.4-20-0.7-30-1.2c-2.9-0.1-8.1,7.4-6.1,7.5
	c11.9,0.5,23.8,1,35.7,1.4c-3.5,61.7-6,123.4-7.5,185.2c-1.7,68.5-2.1,137.1-1.3,205.7c0.2,16.7,0.3,33.3,0.8,50
	c0.3,11.2,1.4,23.1,6.8,33.1c6.1,11.6,16.9,15.2,29.4,15.4c17.1,0.3,265.3,0.3,282.5,0.4c68.6,0.5,137.1,1.1,205.7,1.6
	c34.6,0.3,69.2,0.5,103.8,0.8c17,0.1,33.9,0.3,50.9,0.4c12,0.1,25.4,1.1,36-5.8C839.9,1046,843.2,1034.5,841.9,1022z M832.3,1045.3
	c-1.9,2.6-5.4,3.8-8.4,4.5c-6.2,1.6-12.6,1.6-19,1.5c-8.3-0.1-16.6-0.1-25-0.2c-33.3-0.3-66.6-0.5-99.8-0.8
	c-66.9-0.5-133.8-1-200.7-1.6c-16.6-0.1-33.3-0.3-49.9-0.4c-8.3-0.1-247.7-0.1-256-0.2c-8-0.1-16.3,0.4-24.3-0.5
	c-28.6-3.1-27.8-37.5-28.2-59.1c-1.2-66.6-1.3-133.2-0.2-199.7c1.1-66.6,3.4-133.1,6.8-199.6c0.4-7.6,0.8-15.3,1.2-22.9
	c52.2,1.6,335.4,2.1,387.7,1.2c66.5-1.1,133-4.1,199.3-9.2c16.1-1.2,32.1-2.6,48.1-4c8.2-0.7,16.4-1.7,24.6-2.3
	c7.3-0.5,15-0.4,21.7,3.2c21.2,11.4,17,43.4,15.4,63.1c-5.4,65.2-7.6,130.7-6.5,196.1c1.1,65.5,5.5,131,13.2,196.1
	c0.9,7.7,2.5,15.7,2.5,23.5C834.8,1037.6,834.5,1042.2,832.3,1045.3z"/>
<g id="OIaHvm_1_">
	<g>
		<path class="st1" d="M203.8,851.1c0.8-5.3,2.4-10.3,6.2-15.1c3.3-4,6.9-7.1,11.9-8.5c3.9-1,7.7-1,11.3-0.7
			c9.6,1,17.7,4.3,23.6,10.9c0.2,0.2,0.4,0.5,0.8,0.6c5,1.6,8.1,5.3,11.3,8.8c4.5,4.7,8.2,10,11.8,15.4c0.6,0.8,1.3,1.4,2.2,1.7
			c5,2.1,8.4,5.8,11.4,9.9c2.3,3,4.4,6.1,6.2,9.4c0.3,0.6,0.8,1.1,1.3,1.8c0.5-1.2,0.9-2.1,1.3-3.1c0.1-0.2,0.2-0.5,0.4-0.6
			c2.3-1.2,0.8-2.3,0.5-3.3c-0.7-2.1-1.4-4.3-1.8-6.5c-0.1-0.4-0.4-0.9,0-1.3c0.5-0.5,1-0.1,1.5,0c5.3,1.9,9.6,5,13.6,8.5
			c0.6,0.5,1.2,1.1,2,1.4c-1.5-2.2-3-4.4-4.6-6.6c-3.1-4.2-6.5-8.1-9.3-12.5c-2-3.3-3.7-6.8-4.1-10.9c-0.1-0.9-0.1-1.9,0-2.8
			c0.1-1.5,0.2-1.5,1.9-1.6c-0.2-2.1-0.3-4.2,0.3-6.4c0.9-3.5,3.2-5.1,6.7-4.5c4.5,0.8,8,3,10.7,6c4.7,5.2,8.3,11.1,12,17
			c2.6,4.2,5.8,8,9.3,11.4c0.2,0.2,0.5,0.4,0.8,0.6c0.3,0.2,0.7,0.7,1.2,0.4c0.5-0.3,0.3-0.8,0.2-1.3c-0.8-4.1-2.3-7.8-3.8-11.6
			c-3-7.1-6.7-13.8-9.2-21.2c-1.1-3.4-1.9-6.8-2.2-10.5c0-0.5-0.3-1,0.4-1.4c0.8-0.4,0.8,0.4,1.1,0.7c4.1,5,7.8,10.4,11.1,15.9
			c4.1,6.9,8,13.9,11.6,21c2.4,4.7,5.1,9.2,7.5,13.9c3.5,6.7,7.5,13.2,11.8,19.4c2.4,3.4,5.2,6.5,8,9.7c-0.2-2.2-1-4.1-1.8-6
			c-2.1-5.4-4.3-10.8-6.6-16.1c-1.1-2.5-2.9-4.7-4.3-7.1c-4-6.6-7.5-13.6-10.5-20.8c-3-7.3-6.9-14-10.6-20.9
			c-4.6-8.6-9.1-17.3-13.3-26.1c-0.2-0.4-0.6-0.9,0-1.4c0.6-0.4,0.9,0.2,1.3,0.5c3.8,2.8,6.9,6.2,10.2,9.9c-0.3-3.1-0.6-5.8-0.8-8.6
			c-0.3-3.9-0.3-7.9,1.3-12c2.3-5.9,7.8-8.9,13.6-7.4c5.1,1.3,8.8,4.4,12.5,7.5c2.6,2.3,5.2,4.6,7.9,7c0.4-1.4,1-1.2,1.9-0.7
			c4.8,2.9,8.3,6.9,11.1,11.6c1,1.6,2.5,2.6,4.1,3.5c0.3,0.2,0.7,0.5,1.1,0.1c0.4-0.3,0.2-0.8,0.1-1.1c-0.9-2.8-1.7-5.5-2.6-8.3
			c-0.2-0.5-0.7-1-0.2-1.5c0.6-0.7,1.3-0.1,1.8,0c4.7,1.5,8.4,4.3,11.6,7.6c2,2,3.9,4.2,5.9,6.2c-0.9-1.7-1.9-3.3-2.4-5.2
			c-0.7-2.3-0.8-4.6-0.1-7.1c0.4-1.4,0.9-1.5,2-0.9c4.3,2.5,8,5.7,11.2,9.3c5.9,6.4,11.1,13.3,15.8,20.6c0.5,0.8,1.1,0.9,2,0.7
			c2.1-0.5,3.6-1.6,4.6-3.4c1.1-2,1.5-4,1.8-6.1c0.1-0.7,0.1-1.4,0.2-2c0.5-3.9-0.3-7.2-2.4-10.4c-7.5-11.3-12.5-23.8-14.3-37.8
			c-0.3-2.5-0.3-5,0.5-7.6c1.4-4.3,4.2-6.3,8.7-5.9c3.9,0.3,7.1,1.9,10.3,3.6c5.5,2.9,10.3,6.8,15.5,10.1c1.8,1.1,3.6,2.3,5.6,3.1
			c2.3,0.9,3.6,0.1,4.1-2.5c0.2-1.4,0.1-2.7,0-4c-0.3-4.1-0.1-8.2,0.8-12.3c1.1-5.1,5.1-7.5,9.8-5.7c6.4,2.5,11,6.6,12,13.5
			c0.9,5.9,0.7,11.9,0.2,18.1c-0.2,2.6,1.2,4.5,3.6,3.8c1.9-0.5,3.6-1.9,4.5-3.8c1.8-3.5,2.4-7.1,2.7-10.7c0.4-4.1,0.9-8.3,2.1-12.5
			c0.4-1.4,1-2.8,1.8-4.1c1.4-2.1,2.9-2.8,5-1.8c2,0.9,3.9,2,5.8,3.1c1.8,1,3.8,1.8,6.1,1.9c2.8,0.1,4.8-1,6-3.6
			c1-1.9,1.3-3.9,1.8-5.9c0.6-2.7,1.4-5.3,2.8-7.9c1.3-2.3,3.1-3.6,5.8-4.1c12.2-2.4,24.1-6.6,35.5-12.6c5.9-3.1,11-7.5,15.9-12.1
			c7.9-7.5,16-14.7,24.7-21.4c42.1-32,85.8-61.8,129.2-91.8c17.4-12,35-23.9,52.5-35.9c4.5-3.1,9-6.2,13.6-9.2
			c0.2,0.3,0.4,0.5,0.5,0.8c-21.6,14.8-43.3,29.6-64.9,44.4c-39.4,27-78.6,54.3-117.3,82.4c-12.8,9.3-25,19.3-36.4,30.2
			c-3.9,3.7-8.1,7.3-12.6,10.4c-6,4.2-12.6,7-19.3,9.5c-7.1,2.6-14.1,5.2-21.4,6.4c-2.8,0.5-4.7,2.2-5.8,4.6c-1.2,2.5-1.5,5.1-2,7.7
			c-0.3,1.6-0.6,3.2-1.3,4.8c-1.3,3-3.9,4.6-7.1,4.6c-2.8-0.1-5-1.1-7.2-2.3c-1.4-0.8-2.8-1.7-4.5-2.1c-2.8-0.7-4.5,0.1-5.7,2.9
			c-0.9,2.1-1.2,4.2-1.5,6.3c-0.7,4.4-0.8,8.9-2,13.3c-0.8,3.2-1.9,6.4-5.3,8.6c-0.6,0.4-1.2,0.7-1.9,0.9c-3.5,1.2-4.3,0.7-4.5-2.4
			c-0.3-5.5,0.3-11.2-0.3-16.7c-0.4-3.7-0.9-7.3-3.2-10.2c-2.5-3.2-6.2-5.1-10.6-5.7c-3.2-0.4-5.4,1.1-6.2,4.3
			c-0.8,3.1-0.7,6.1-0.7,9.1c0,2.3,0.1,4.7,0.2,7c0.1,3.2-2.9,5.3-6,4.2c-2.6-0.9-4.6-2.5-6.7-4c-6.1-4.4-12.3-8.7-19.5-11.7
			c-1.6-0.7-3.3-1.3-5.2-1.5c-3.1-0.3-5.6,1.1-6.7,4.1c-0.9,2.2-0.9,4.4-0.8,6.6c0.8,9.1,3.1,17.5,6.7,25.5c2.2,5,4.7,9.8,7.9,14.1
			c0.2,0.3,0.5,0.6,1,1.2c-0.1-2-0.1-3.6-0.2-5.2c-0.2-5-0.3-9.9,0.9-15c1.4-6,4.2-7.6,9.5-5c5.4,2.7,10.3,6.1,15.1,9.5
			c1.6,1.1,3.2,2.2,5,3.1c5,2.4,4.9,6.8,1.9,11.5c-3.9,6.1-10,9.9-17.1,11c-4.7,0.8-8.2-1.4-11.4-3.9c-0.7-0.6-1.4-1.2-2.3-2
			c-0.1,2.8-0.1,5.2-0.5,7.7c-0.4,2.1-0.8,4.1-2.1,6c-1.2,1.9-2.9,3.3-5.2,4c-1.1,0.3-1.1,0.7-0.7,1.4c1.4,2.3,2.3,4.8,3.2,7.3
			c0.1,0.4,0.4,0.8,0,1.3c-0.4,0.5-0.9,0.2-1.4,0.1c-5.4-0.9-9.5-3.5-13.2-6.7c-5.5-4.8-9.5-10.7-14.1-16.2
			c-4.8-5.7-9.4-11.6-15.8-15.9c-1-0.7-2.2-1.3-3.3-1.8c-0.3-0.2-0.7-0.4-1.2-0.1c-0.5,0.4-0.1,0.7,0,1.1c0.8,2.7,1.7,5.4,1.8,8.4
			c0,0.6,0.4,1.3-0.3,1.7c-0.6,0.4-1-0.2-1.5-0.5c-0.6-0.3-1.2-0.7-2.2-1.2c1.3,3.3,2.6,6.2,3.5,9.3c3,10.1,5.1,20.5,5.2,31.6
			c0,2.1,1.2,3.9,1.9,5.8c2.2,6.2,4,12.4,3.8,19.4c-0.1,2.7-0.5,5.3-1.4,8c-0.1,0.4-0.1,1-0.7,1.2c-0.5,0.1-0.7-0.3-1-0.5
			c-3.1-2.9-6.3-5.8-9.5-8.7c-1.1,1.4-2.2,2.8-3.5,4c-3.1,2.9-6.7,3.8-10.1,2.5c-3.1-1.3-5.5-3.4-8.1-5.4c0.9,2.3,1.9,4.5,2.8,6.8
			c1.9,4.6,3.6,9.2,5,14c0.2,0.6,1,1.4,0.1,1.9c-0.8,0.5-1.2-0.6-1.6-1c-4.2-4.4-7.8-9.1-11.1-14.1c-6.1-8.8-11.1-18.3-16-27.8
			c-3.5-6.7-7.1-13.4-10.9-20c-3.4-5.7-7.1-11.2-10.7-16.8c-0.4-0.6-0.8-1.3-1.6-1.7c-0.2,1.4,0.2,2.5,0.5,3.7
			c1.5,6.5,4.3,12.3,7,18.2c3.2,7,6.5,14,7.7,21.9c0.1,0.5,0.6,1.2-0.2,1.7c-0.6,0.4-1.1-0.2-1.5-0.5c-5-2.9-8.4-7-11.4-11.6
			c-3.2-4.9-6-10-9.5-14.7c-3-4.1-7.3-6.8-12.2-8.8c-0.1,0-0.1,0-0.2,0c-4.2-1.3-6.3,0.2-6.3,4.5c0,0.3,0.1,0.7,0.1,1
			c-0.1,3,0.8,5.2,3.8,6.6c5.3,2.5,9.1,6.7,12.8,10.8c7,7.9,13.2,16.6,20.9,24c1.2,1.1,2.5,2.2,3.8,3.2c1.5,1.1,2.6,0.7,3.2-1.3
			c0.5-1.6,1.2-1.6,2.5-1.3c4.8,1.3,8.6,3.8,11.5,7.4c6.7,8.3,9.5,18.4,9.4,29.6c0,2.5-0.4,5.1-1.5,7.6c-1.6,3.6-4.2,5-7.9,4.1
			c-3.2-0.8-5.5-2.7-7.7-4.7c-7.1-6.6-13.1-14.1-18.6-22c-4.4-6.3-8.8-12.5-12.9-18.9c-2-3.1-5.3-5.2-8.1-7.7
			c-3.6-3.2-7.6-6-12.4-7.8c0.8,4,2.2,7.5,3.8,11.1c1.9,4.4,5.4,7.6,8,11.5c3.5,5.4,6.9,10.9,10,16.4c0.1,0.2,0.3,0.5,0.3,0.7
			c0.1,0.3,0.4,0.6-0.1,0.9c-0.4,0.3-0.7,0.1-1-0.1c-1-0.8-2-1.5-3.2-2.1c1.9,3.7,3.9,7.4,5.7,11.1c4.5,9.2,9.7,18.1,12.6,28.2
			c0.8,2.7,1.4,5.5,1.2,8.4c-0.3,4.9-4,7.5-8.7,6c-2.1-0.6-3.7-1.7-6.1-4.2c-0.6,0.3-0.5,0.8-0.6,1.2c-0.7,2.9-1.6,5.7-2.7,8.5
			c-0.5,1.2-1,1.6-2.2,1.1c-2.7-1.2-5.1-2.8-7.1-4.8c-0.7-0.7-1.3-1.4-1.9-2.1c-1.2-1.5-2.3-2.7-5-2.8c-5.5-0.3-9.6-3.3-13.3-6.5
			c-1.9-1.7-3.5-3.5-5.5-5.4c0.1,1.5,0.3,2.9,0.3,4.2c0.3,6.6-1.7,12.9-6.5,18.8c-0.6,0.7-0.7,1.4-0.8,2.2c-0.5,4.6,2.6,6.9,5.2,9.6
			c4.3,4.3,8.8,8.4,12.1,13.5c1.4,2.2,2.5,4.6,2.8,7.3c0.3,2.5-0.7,3.8-3.6,4.3c-3.7,0.5-7-0.2-10.3-1.1c-1.1-0.3-1.6-0.3-2.4,0.9
			c-3.8,6-9.1,10.8-14.9,15.2c-4.1,3.1-8.4,6.1-13.3,7.9c-8.8,3.1-14.6,0.8-17-6.9c-1.4-4.3-1.4-8.9-0.5-13.6c1.6-9,2.5-18,2.8-26.9
			c0-0.2-0.1-0.3-0.1-0.6c-1.5,1.6-3.2,2.9-5.1,3.9c-1.8,1-3.7,1.4-5.8,2c1.9,2.8,3.9,5.4,5,8.5c0.6,1.6,1,3.2,1.1,4.9
			c0,0.4,0.2,0.9-0.4,1.2c-0.4,0.2-0.8-0.1-1.1-0.3c-3.9-2.3-7-5.4-9.1-9.2c-2-3.5-4.7-5.8-9-7c-8.3-2.3-14.7-7.3-21.1-12.2
			c-3.5-2.7-6.8-5.5-9.2-9.2c-1.5-2.2-2.6-4.5-2.1-7.5c0.1-0.5-0.1-0.9-0.4-1.2c-3.6-3.7-5.4-8.3-6.1-13.5
			c-1.3-9.4,0.3-18.9,5.2-28.4c1.1-2.1,2.6-4.1,4.5-5.7c0.7-0.6,0.8-0.9,0-1.3c-3.1-1.5-4.1-4.2-3.8-7.6c0.5-6,3.3-11.5,6.9-16.9
			c2.8-4.3,6.1-8.3,9.6-12.1c0.9-1,1.3-1.9,1.3-3.1c-0.1-5.8,0.4-11.6,1.7-17.5C203.5,851.5,203.7,851.2,203.8,851.1
			c0.4,0.1,0.2,0.5,0.1,0.8c-1.1,5.7-1.3,11.3-1.2,16.9c0,0.3-0.2,0.7,0.2,0.8c1.5-1.3,2.9-2.6,4.4-3.8c0.8-0.7,1.1-1.2,0.8-2.2
			c-1.7-5-2.2-10.3-1.6-15.8c0.3-2.7,1-5.3,1.9-8.4c-1.2,1.3-1.5,2.4-2,3.4C205.2,845.5,204.9,848.4,203.8,851.1z M189.8,961.4
			c-1.7,0.4-2.4-1.1-3.8-1.4c1.9,11.2,24.6,26.8,35.5,27.6c0-0.1,0.1-0.2,0-0.3c-2.4-5-4.5-10.1-6-15.5c-0.7-2.6-3-4.1-4.6-6.7
			c-0.1,2.1-0.2,3.7-0.3,5.3c-0.4,3.8-1,4.2-4.6,2.8c-4.3-1.7-7.4-4.7-10.2-7.9c-1.3-1.5-2.3-3.5-5-3.3c-0.1,0-0.1-0.1-0.2-0.2
			c0.6-0.3,1.3,0.2,2.1-0.4c-1.5-1.6-2.7-3.3-4-5.1c-0.3-0.5-0.4-1.4-1.3-1.1c-0.8,0.3-1.1,1.1-1.4,1.9c-0.4,1.1-0.4,2,0.7,2.7
			C187.8,960.4,188.8,961,189.8,961.4z M248.8,873.5c-0.5-0.4-0.2-1-0.2-1.5c0.1-4,0.1-8,0.2-12.5c-2.9,2.8-4.6,5.7-6,8.7
			c-0.7,1.5,0.6,2.5,0.9,3.8c0.1,0.5,0.3,1,0.5,1.5c1,2.7,2.6,5,4.2,7.4c0.1-0.7,0.1-1.4,0.2-2C248.6,877.1,248.1,875.3,248.8,873.5
			c0.1,1.9,0.1,3.8,0.2,5.7c0.1,1.6,0,3.3,0.8,4.8c1.7,3.1,3,6.4,4.6,9.6c0.6,1.2,0.6,2.9,2,3.5c2,0.9,4.3,1.5,6.6,2.3
			c0-0.5-0.1-0.8-0.1-1c-0.8-4.7-1.3-9.5-0.9-14.5c0.3-4.2,1.3-8.3,3.8-12.2c0.7-1.1,1.3-1.4,2.3-0.7c0.9,0.6,1.9,1.1,2.7,1.8
			c1.8,1.4,3.6,2.9,5.5,4.5c0-0.5,0.1-0.8,0.1-1c0.1-4.3,0.7-8.5,3.5-12.5c0.5-0.7,0-0.9-0.2-1.3c-1.5-1.9-3-3.8-4.5-5.7
			c-3.5-4.3-6.8-8.8-10.8-12.7c-1.6-1.5-3.3-3-5.6-3.8c-0.1,0.7,0.3,0.9,0.5,1.3c2.4,4.3,1.5,9.3-2.3,12.8c-1.6,1.5-3.4,2.5-5.3,3.5
			c-1.5,0.8-2,1.7-2,3.1C249.4,865,249.1,869.3,248.8,873.5z M358.5,836.3c6.3,9.6,13.2,18.7,20.5,27.5c5.2,6.2,10.6,12.2,16.2,17.9
			c1,1,1.2,0.7,1.8-0.5c3.3-6.9,4.7-14,4.9-21c0-0.4-0.1-0.8-0.2-1.1c-1.3-2.8-2.6-5.7-4.1-8.5c-3.8-7.3-8-14.3-11.5-21.8
			c-3.2-6.9-5.7-14.1-6.4-22c-0.1-0.7-0.3-1.2-0.8-1.7c-3.2-2.9-6.4-5.8-9.7-8.6c-3.1-2.6-6.4-4.9-10.6-6.1
			c-2.2-0.6-4.4-0.9-6.9,0.3c-3.7,1.8-5.3,4.9-6.3,8.1c-1.6,4.9-1.2,9.6-0.4,14.2c0.4,2.3,0.4,4.9,1.8,6.8
			C350.9,825.3,354.6,830.9,358.5,836.3z M305.4,848.4c0.6,1.8,1,3.1,1.5,4.5c3.4,9.3,8.1,17.8,13.2,26.2c1.5,2.5,2.8,5.2,4.8,7.3
			c4.1,4.4,8.3,8.7,12.2,13.3c2.3,2.8,4.6,5.6,6.5,8.6c0.2,0.3,0.6,0.7,0,1.2c-0.5,0.3-0.7-0.1-1-0.3c-0.2-0.2-0.4-0.4-0.6-0.6
			c-2.3-2.2-4.5-4.5-6.6-6.5c2.1,3.1,4.3,6.4,6.7,9.6c4.1,5.4,8.3,10.8,13.3,15.5c2.1,1.9,4.4,3.5,7.3,4.6c3.3,1.2,5.9-0.1,7.3-3.6
			c0.6-1.5,1-2.9,1.1-4.4c1-11.2-1.8-20.9-7.8-29.4c-2.2-3.2-4.8-6-8.6-7.8c-3.4-1.5-4.1-1.3-5.7,2.4c-0.4,0.8-0.7,1.1-1.4,0.6
			c-0.4-0.2-0.7-0.5-1.1-0.7c-7.1-5.1-12.5-11.7-17.9-18.3c-4.6-5.7-9.2-11.4-14.7-16.2C311.5,852,309,850,305.4,848.4z M244,979.1
			c-1,2.5-1.1,4.7-1.2,6.8c-0.5,7.9-0.8,15.8-2.7,23.8c-0.8,3.5-1.1,6.9-0.9,10.3c0.2,3.3,0.9,6.5,3.4,8.6c4.2,3.7,9.6,3.9,15.4,1.3
			c10.9-4.7,19.3-12.2,25.7-21.8c0.6-0.9,0.4-1.1-0.4-1.4c-12.4-4.5-22.6-11.8-31.7-20.3C249.1,984.1,246.7,981.7,244,979.1z
			 M241.1,944.5c-0.2-0.9-0.4-1.8-0.6-2.8c-0.1-0.3-0.2-0.7,0.3-0.9c0.4-0.2,0.7,0,0.9,0.2c0.2,0.2,0.5,0.4,0.8,0.6
			c5,4.7,10.1,9.3,15.1,14c5,4.8,9.9,9.7,14.9,14.5c0.2,0.2,0.5,0.5,0.8,0.5c0.6-0.1,0.5-0.6,0.7-1c0.6-1.8,0.7-3.5,0.6-5.2
			c-0.3-5.9-1.8-11.4-3.7-16.8c-3.8-11.2-8.7-21.9-13.7-32.5c-0.7-1.6-2.2-2-3.9-2.4c-0.3,3.3-1,6.3-2.3,9.3
			c-0.6,1.4-1.1,1.6-2.3,0.9c-4.3-2.5-8.8-4.6-13.6-6.5c-0.4-0.1-0.7-0.5-1.3-0.2c-0.2,1.5-0.5,3-0.7,4.6c-0.3,2.3-1,4.7-0.3,6.9
			C234.7,933.8,237.4,939.4,241.1,944.5z M227.5,904.8c0.2-3.9,0.8-7.7,2.6-11.4c0.2-0.4,0-0.7-0.1-0.9c-1.2-2.2-2.7-4.2-4.5-5.9
			c-4.4-4.3-10.2-6.7-16.7-7.9c-2.2-0.4-4.2-1-5.7-2.5c-0.9-0.9-0.9-2.3-1.6-3.5c-5.3,5.7-10,11.5-13.5,18c-1.4,2.6-2.5,5.3-2.9,8.1
			c-0.6,3.7-0.1,7.1,2.9,9.3c0.6,0.5,1.3,1,2.5,0.2c5.6-3.8,11-4.7,16-1.5c0.3,0.2,0.6,0.6,1.1,0.1c2.7-2.7,5.8-2.4,8.9-2.6
			C220.2,903.9,223.8,904.4,227.5,904.8z M298,921.2c0,0.1,0,0.2,0,0.3c5.9,7,9.1,15.5,11.3,24.5c0.9,3.7,2.1,7.4,1.1,11.4
			c-0.7,2.7,0.5,4,1.8,5.5c0.3,0.3,0.6,0.6,0.9,0.9c2,2,3.9,3.9,6.4,5.3c1.2,0.6,1.8,0.4,2.4-1c1.1-2.9,1.9-5.8,2.3-8.7
			c0.1-0.6,0.1-1.2-0.3-1.7c-4.8-6.3-8.3-13.4-11.3-20.8c-5.3-13.4-9.3-27.3-10.9-42.2c-0.1-0.7-0.2-1.3-0.5-1.8
			c-1.8-3.2-3.9-6.1-5.9-9.1c-4-5.9-8.3-11.7-12.6-17.4c-1-1.3-2.4-1.1-3.4,0.5c-0.5,0.8-0.8,1.6-1.1,2.5c-0.7,2.6-0.6,5.1-0.7,7.6
			c-0.1,1.3,0.4,2.3,1.3,3.2c6.4,6.5,12.4,13.5,17.4,21.1c2.6,4,5.3,8.1,6.3,13C303.4,918.1,302.1,919.9,298,921.2z M481.8,809
			c-0.1-0.1-0.4-0.5-0.8-0.8c-5.3-3.5-10.1-7.5-15.5-10.8c-2.9-1.8-5.7-3.8-9.2-4.7c-2.4-0.7-4,0.3-4.8,2.8c-0.7,2.2-1,4.4-1.1,6.6
			c-0.2,5.3,0.1,10.5,0,15.8c0,1.3,0.4,2.1,1.2,3c6.5,6.4,12.4,7.2,21.8,2.1c4-2.2,7.1-5.6,8.8-9.8
			C482.8,811.8,482.8,810.4,481.8,809z M347.2,821.8c0,0.5-0.1,0.8-0.1,0.9c0.8,2.9,1.6,5.8,2.4,8.7c1.7,5.7,3.2,11.6,6,16.8
			c5.1,9.6,10.4,19.2,15,29c2.6,5.4,6.5,9.6,12.1,12.3c4.5,2.2,8.5,0.7,11.7-3.7c1.1-1.5,1-2.3-0.1-3.3
			c-5.4-5.3-10.5-10.9-15.3-16.6c-5.8-6.9-11.3-14-16.4-21.5C357.5,837,353,829.2,347.2,821.8z M202.6,953.2
			c-3.1-4.7-6-9.1-8.3-13.9c-2-4.3-3.4-8.8-3.3-14c0-1.4,0.6-1.8,2-1.8c3.8-0.1,7.1,1,10.1,2.6c1.3,0.7,2.5,1.4,3.7,2.2
			c0.7-1.4,1.2-2.7,1.9-3.9c0.6-1.1,0.6-1.9,0.1-2.8c-1.7-3.2-3-6.7-2.8-10.7c0.1-2.3,0.2-2.4-2.5-2c-0.2,0-0.5,0.1-0.7,0.1
			c-4.2,0.7-8.4,1.4-12.4,0.7c-0.7-0.1-1.1,0.3-1.6,0.7c-2.1,1.9-3.8,4-4.8,6.4c-4.7,10.4-6.6,20.7-3.9,30.6c1,3.6,2.3,7.1,4.8,10
			c0.4-0.6,0.6-1.2,1-1.5c1.6-1.3,1.4-2.4,0.6-3.8c-1.3-2.5-2.1-5.3-1.2-8.5c0.4-1.3,1-2.7,2.6-3.2c1.5-0.4,2.4,0.5,3.1,1.5
			c2,2.5,3.1,5.5,3.9,8.7c0.1,0.5,0,1.1,0.9,1.1C198,951.9,200,952.6,202.6,953.2z M255.8,838.2c-1-0.9-1.7-1.7-2.5-2.3
			c-6.5-5.1-14.4-7.7-23.5-8.4c-3.5-0.2-7,0.2-10.5,1.6c-2.9,1.2-5.2,2.9-6.2,4.7c4.1-1.4,7.3-0.3,10,1.8c3.5,2.7,5.9,6.2,8,10
			c2.7,4.8,5.3,9.8,7.6,14.9c1,2.2,2,4.4,3.1,6.8c1.5-2.5,2.6-4.8,4.5-6.6c2.3-2.1,2.6-4.1,2.5-6.6c-0.1-4,0.2-8,2-12
			C251.8,840.2,253,838.6,255.8,838.2z M228.7,844.1c-2.2-2.9-4.5-6.6-8.5-8.8c-4.4-2.5-8.9-0.6-10.8,4.6c-3,8.1-2.6,15.7-0.5,23.1
			c0.3,1.2,0.8,1.3,2,0.5c7-4.4,13.4-4.2,19.6-1.4c3.7,1.7,6.7,4.2,9.4,7c0.2,0.2,0.3,0.8,0.9,0.4c0.4-0.3,0.3-0.7,0.2-1.1
			c-0.1-0.2-0.1-0.4-0.2-0.6C237.3,859.7,233.9,851.8,228.7,844.1z M303.2,889.8c-0.2,1.6-0.5,3.1,0.3,4.5
			c3.1,5.3,6.4,10.4,9.3,15.7c3.1,5.7,6,11.4,8.4,17.5c3.6,9.4,5.9,19.1,4.6,29.9c0,0.4-0.1,0.8,0.2,1.1c2,2,4,4,7,4.8
			c3.1,0.9,5.7-0.7,6.3-4c0.4-2,0-3.9-0.4-5.8c-2.1-9.6-6.4-18.2-10.7-26.8c-2.4-4.8-4.8-9.6-7.3-14.3c-1.2-2.2-2.1-4.7-4-6.5
			c-1.9-1.8-3.6-3.7-5.3-5.7C308.7,896.8,306,893.3,303.2,889.8z M268.9,917c0.9,1.7,1,3.7,2.5,5c5.3,4.7,9.2,10.3,12.4,16.6
			c1.7,3.4,2.5,7.2,5.3,10c3.6,3.5,6.9,7.4,11.6,9.8c1.7,0.8,3.4,1.6,5.5,1.6c0.4,0,0.9,0,1.2-0.4c0.4-0.5-0.1-0.7-0.3-1
			c-2.9-4.7-5.7-9.4-8.3-14.3c-3.7-6.9-7.1-13.9-10-21.1c-0.6-1.4-1.3-2.6-3.3-2.5c-1.3,0-2.5-0.3-3.8-0.5
			C277.4,919.3,273.2,918.2,268.9,917z M211.3,863.9c-1.3,0.5-1.8,1.3-1,2.7c1.1,1.9,2,3.9,3.2,5.7c4.8,6.9,11.7,11.6,19.4,15.6
			c1.1,0.6,1.5,0,1.7-1c1.2-5,2.8-10,5-14.9c0.3-0.6,0.3-1.1-0.2-1.5c-2.3-2.4-4.5-4.8-7.4-6.6C225.4,859.4,218.4,859.4,211.3,863.9
			z M285.4,995.5c-1.9-2.6-4.7-4.1-7.7-5.4c-7-3-13.7-6.4-20.1-10.3c-3.6-2.2-7-4.5-10.5-6.7c-0.3-0.2-0.7-1-1.4-0.1
			c-1,1.2-1,5.1-0.1,6c4.7,4.9,9.7,9.7,15.3,13.8c6.9,5.1,14.2,9.7,22.5,12.9c1.4,0.5,1.9,0.2,2.5-1.2
			C287.3,1001.2,287.1,998.2,285.4,995.5z M280.4,971.7c3.9-5,6-10.4,6.2-15.9c0.2-4.9-0.6-9.2-3.6-13c-4.9-6.3-9.2-13-12.9-20
			c-1.3-2.4-4.1-3.6-6.8-5.3C269,935.9,275.1,953.6,280.4,971.7z M282.8,908.4c0.1-0.3,0.2-0.4,0.2-0.4c-3.1-9-5.4-18.3-6.5-28.1
			c0-0.5-0.1-0.9-0.4-1.2c-2.4-2.3-4.9-4.5-7.9-6.3c-1.1-0.7-1.9-0.1-2.4,1c-0.4,1.1-0.8,2.1-1.1,3.2c-1.9,7.8-1.2,15.2-0.4,22.6
			c0.1,0.7,0.4,0.9,1,1.1C271.5,902.5,277.4,905,282.8,908.4z M222.9,979.7c0,0,0.1,0,0.1-0.1c1,1.4,1.9,2.8,2.9,4.2
			c1,1.4,2.1,2.8,3.2,4.2c0.3,0.4,0.7,0.7,1.4,0.7c5.6-0.2,10.6-4.2,11.8-9.5c0.1-0.7,0.6-1.4,0.1-2c-1.7-1.9-2.8-4.4-5.1-5.7
			c-6.2-3.5-12.3-7.3-19.1-10.2c-1.4-0.6-2.3-0.2-2.3,1.3c0,3.7-0.2,7.5,2.3,10.4C220,975.2,221.4,977.5,222.9,979.7z M323.9,956.4
			c0.2-0.1,0.4-0.2,0.6-0.2c0-0.5,0.1-1.1,0.1-1.6c0.2-7.1-0.9-13.8-2.9-20.2c-4-13-10.3-24.7-17.2-36.2c-0.2-0.3-0.4-0.6-0.6-0.9
			c-0.2-0.3-0.2-0.7-0.9-0.8C306.5,918.2,312.6,938.5,323.9,956.4z M278,880.7c-0.1,0.5-0.1,0.7-0.1,0.8c1,9.3,3.1,18.1,5.9,26.8
			c0.2,0.6,0.4,1.1,0.9,1.4c4.2,2.8,7.9,5.9,11.2,9.6c0.5,0.6,1.1,0.7,2,0.4c2.9-0.8,4-2.6,3.3-5.6c-0.7-3-2.1-5.7-3.6-8.3
			c-3.2-5.7-7.3-10.8-11.3-15.9C283.9,886.7,281.2,883.7,278,880.7z M222.5,937.4c0.9,2.7,1.7,5.2,2.5,7.6c0.3,0.9,0.7,1.6,1.3,2.3
			c2.3,2.7,4.4,5.6,5,9.2c0.6,3.6,2.6,5.8,5.5,7.6c0.5,0.3,0.9,0.7,1.4,1.1c2.1,1.5,4.1,2.9,6.4,4.5c0.3-5.4-0.3-10.3-1.2-15
			c-0.1-0.6-0.6-1.1-0.9-1.7c-3.3-4.9-6.1-10-8.1-15.7c-0.9-2.6-1.7-5.3-2.6-8.1C228.9,936.8,227.6,937.9,222.5,937.4z M280.8,980.1
			c0.3,2-0.6,1.8-1.4,1.7c-2.3-0.3-4.4-1-6.4-1.8c-0.4-0.2-0.8-0.6-1.5-0.3c-3.4,1.4-6.7,1.4-10,0.8c2.2,1.4,4.4,2.7,6.7,3.9
			c5.1,2.6,10.5,4.7,15.2,7.8c4.2,2.8,5.1,7,3.3,12.1c-0.8,2.3-0.9,2.4,1.5,2.8c2.8,0.6,5.5,1.2,8.6,0.7c2.2-0.3,3.2-1.5,2.7-3.4
			c-0.3-1.1-0.7-2.2-1.2-3.1C293.9,993.5,287.6,987.1,280.8,980.1z M381.4,807.4c-0.1,0.1-0.3,0.2-0.4,0.2c0.1,0.7,0.2,1.4,0.3,2.1
			c1.6,8.3,5,15.8,8.6,23.2c2.8,5.8,5.7,11.6,8.6,17.4c0.6,1.1,1.2,2.3,1.7,3.4c0.5,1.1,1,2.2,1.5,3.3c0-14.3-3.1-27.4-9.6-39.2
			C389.6,813.4,384.5,811.3,381.4,807.4z M308.8,958.6c1.2-2.3,1-4.2,0.7-5.9c-1.8-10.5-5.2-20.2-11.3-28.7c-2.4-3.4-6-2.6-9.7-3
			C294.3,934.3,301,946.6,308.8,958.6z M439.4,838.6c-0.3-0.5-0.3-0.7-0.4-0.9c-4.8-7.4-10.1-14.5-16.4-20.8
			c-2.4-2.4-4.8-4.8-7.8-6.6c-0.6-0.4-1.3-1.1-2.2-0.5c-0.9,0.6-0.5,1.5-0.4,2.2c0.4,3,1.4,5.8,2.9,8.3c4.2,7.2,10.6,12.4,18.1,16.3
			C435,837.6,436.9,838.3,439.4,838.6z M251.6,910.9c0.5-5-0.2-7.8-2.9-11.7c-1.1-1.5-1.7-3.5-3.4-4.3c-3-1.5-6.2-2.7-9.3-4
			c-0.5-0.2-0.8-0.2-0.9,0.4c-0.6,2.4-1.7,4.8-1.4,7.1c0.3,2.3,0.7,4.5,0.8,6.8c0,0.6,0.2,1,0.8,1.2
			C240.7,907.7,246.1,909.3,251.6,910.9z M219.5,914.9c-1.9,1.4-3.4,3.9-2.9,5.1c1.9,4.8,3.5,9.6,5,14.5c0.4,1.4,1.6,1.9,3.1,2
			c1.5,0.1,2.8-0.8,3.6-2c1.9-3.1,3-6.3,2.2-9.4c-0.8-3.2-1.6-6.5-2.2-9.8c-0.1-0.4,0-0.9-0.5-1.1C226,913,221.5,913.4,219.5,914.9z
			 M264.6,901.5c0.7,4.6,1.8,8.9,3.2,12.9c0.1,0.4,0.4,0.7,0.8,0.9c5.7,2.2,11.9,3.5,18.5,4.2c-1.1-2.8-2.1-5.5-3.1-8.1
			c-0.1-0.4-0.5-0.7-0.8-0.9C277.6,906.9,271.5,904,264.6,901.5z M242,942.9c0.7,2.7,0.8,5.6,2.7,7.7c1.1,1.2,2,2.6,3,3.9
			c4.7,5.9,9.6,11.7,15.5,16.7c1.9,1.6,4.5,2.4,7.5,1.7c1.7-0.4,1.9-0.8,0.8-1.8c-2.2-2.2-4.4-4.4-6.7-6.6
			c-5.5-5.3-11-10.5-16.5-15.8C246.2,946.7,244.1,944.8,242,942.9z M271,979.3c-9.4-7.2-18.8-14.3-26.4-23.2c0.5,4.7,1.1,9.4,1,14.4
			c0.5-0.4,0.8-0.5,0.9-0.8c1-1.5,1.8-1.4,2.8-0.3c0.6,0.7,1.4,1.3,2.2,1.9c3.4,2.9,6.7,6,11.1,7.7C265.1,980,267.9,980.4,271,979.3
			z M210.8,943.6c-0.8,2-1.4,3.7-2.3,5.3c-1.2,2.3-0.3,4.1,0.9,5.4c1.6,1.8,3.8,3,6.1,4.2c3.2,1.6,6.9,2.5,10.2,4.2
			c1,0.5,2.2,0.3,3.3,0.1c1.6-0.3,2.1-1.4,1.2-2.4c-0.8-0.8-1.7-1.5-2.6-2.2C221.8,953.7,215.6,949.5,210.8,943.6z M403.1,862.3
			c-0.2,0.5-0.3,0.8-0.3,1c-0.5,6.6-2,13.1-5.5,19.4c-0.4,0.7-0.1,1.1,0.3,1.5c2.4,2.2,4.7,4.4,7.1,6.6c0.4,0.4,0.8,1,1.6,0.7
			c0.8-0.3,0.7-1.1,0.9-1.7c0.1-0.3,0.1-0.6,0.1-0.9C408.6,879.3,406.2,870.8,403.1,862.3z M234.5,907.6c-0.2,2.1-0.3,4.2-0.5,6.2
			c-0.1,0.9,0.1,1.3,0.9,1.6c4.7,1.8,9.1,3.8,13.4,6.2c1.3,0.7,1.7,0.3,2.1-1c0.7-2.6,0.9-5.1,1.2-7.7c0.1-0.6-0.2-0.9-0.7-1.1
			C245.4,910.2,240.1,908.7,234.5,907.6z M207.5,949.2c0.6-1.6,1-2.8,1.6-3.9c0.9-1.8,0.7-3.3-0.3-4.7c-2-2.8-3-6.1-2.4-9.9
			c0.1-0.5-0.1-0.9-0.4-1.1c-3.1-2.1-6.3-4.1-10.3-4.8c-3.3-0.6-4.1,0.2-3.5,3.3c0.1,0.6,0.2,1.3,0.4,1.9c0.1,0.4,0.3,0.8,0.8,0.9
			c5.5,1,8.1,4.8,10.4,9C205.4,942.6,206.3,945.7,207.5,949.2z M194.5,962c1.5,1.6,2.6,2.9,3.9,4.2c2.5,2.5,5.3,4.6,8.7,6.1
			c0.8,0.4,1.9,0.7,2.2-0.8c0.5-3.1,0.7-6.3-0.3-8.9c-1-2.6-3.1-4.6-4.7-7C201.5,958.4,198.7,961,194.5,962z M249.7,894.6
			c-2.7-7.6-3.3-16-9.1-22.4c-1.5,5-2.9,9.7-4.3,14.3c-0.2,0.6,0.1,0.6,0.6,0.7c2.4,0.3,4.2,1.5,5.7,3.1
			C244.4,892.2,246.2,894.3,249.7,894.6z M227.9,912.9c-0.1-1.4-0.4-2.5-0.3-3.7c0.3-2.5-0.9-3.4-3.3-3.6c-4.2-0.4-8.2-1.1-12.7,0
			c-1.3,0.3-2.5,0.7-3.5,2c2.6,0.4,4.8,1.1,6.7,2.4c1.4,1,1.9,2.1,0.6,3.8c-1.3,1.7-0.6,2.9,0.3,4.3
			C218.6,912.6,222.9,911.6,227.9,912.9z M212.8,934.9c-0.4,1.7-0.5,3.1-1,4.5c-0.7,1.8,0,2.9,1,4c2.6,2.7,5.2,5.3,8.1,7.7
			c2.4,2,4.7,4.1,7,6C226,947.7,220.2,940.9,212.8,934.9z M254.9,854.5c3.1-1.7,4.2-4.3,4.5-7.3c0.3-2.9-0.9-5.2-2.3-7.4
			c-0.4-0.6-1-0.6-1.7-0.4c-2.4,0.7-3.1,2.5-3.7,4.3c-1.4,4.3-1.4,8.5-1.7,12.7c-0.1,0.8,0.3,0.8,0.9,0.4
			C252.1,856,253.7,855.6,254.9,854.5z M219.4,880.7c-4.4-4-7.9-8.8-10.2-14.2c-0.3-0.8-0.7-0.6-1.3-0.1c-1.7,1.3-3.1,2.8-4.6,4.3
			c-0.3,0.3-0.5,0.6-0.5,0.9c0,2.3,0.2,4.5,2.9,5.2c1.3,0.3,2.5,0.8,3.7,1.1C212.7,878.8,216.4,879,219.4,880.7z M419.5,828.2
			c4.1,5.3,8,10.6,13.4,14.9c2.7,2.2,5.7,4,9.2,5c0.6,0.2,1.2,0.5,1.9,0c0.7-0.6,0.2-1.2-0.1-1.7c-1-1.9-2.1-3.8-3.1-5.7
			c-0.2-0.3-0.4-0.6-0.9-0.6c-5.1-0.1-8.9-2.4-12.5-5C424.4,833.1,422.1,830.5,419.5,828.2z M198.4,943.4c2,3,4.3,5.5,6.9,7.8
			c0.2,0.2,0.4,0.6,0.8,0.3c0.3-0.2,0.5-0.6,0.5-0.9c0-0.5-0.2-0.9-0.3-1.4c-1.1-3.8-2.8-7.3-4.7-10.6c-1.5-2.7-3.9-4.8-6.7-6.3
			c-0.4-0.2-0.9-0.5-1.3-0.1c-0.5,0.4-0.2,0.9,0,1.2C194.8,936.9,196.2,940.5,198.4,943.4z M350.8,839c-0.1-0.5-0.3-1-0.4-1.5
			c-1.4-4.1-2.7-8.2-3.8-12.5c-0.7-2.8-0.8-6-3.3-8c-1.3-1-2.3-2.4-3.4-3.5c-1.2-1.2-2.4-2.3-3.6-3.4
			C340.3,820.3,345.3,829.7,350.8,839z M266.6,914.4c-1.4-4.2-2.2-8.2-3-12.2c-0.1-0.6-0.1-1.2-0.8-1.4c-2-0.6-3.9-1.3-6.2-2.1
			c1.3,3.4,2.7,6.4,3.5,9.7C260.9,911.6,263.5,912.8,266.6,914.4z M283.7,866.4c5.8,8.2,11.9,16.2,17.6,24.6
			c0.7-2.7-0.1-4.5-1.4-6.2c-3-4-5.7-8.2-8.9-12C289,870.3,286.7,868,283.7,866.4z M191.4,957.9
			C191.4,957.9,191.4,957.9,191.4,957.9c0.8,0.9,1.5,1.8,2.2,2.7c0.4,0.6,0.9,0.7,1.8,0.4c3-1.2,5.5-3,7.7-5.3
			c0.5-0.6,0.8-1-0.1-1.3c-1.7-0.5-3.4-1.1-5.3-1.4c-2.3-0.3-2.3-0.3-2.2,1.8c0,0.6,0,1.2-0.1,1.9c0,0.5,0.1,1.1-0.6,1.4
			c-0.6,0.3-0.7-0.3-1-0.6c-1.1-1-2-2.2-2.8-3.5c-0.4-0.6-0.9-0.5-1.5-0.2c-0.9,0.5-0.3,0.9-0.1,1.2
			C190,956.1,190.7,957,191.4,957.9z M304.2,882.3c-1.3,3-1.5,5.3,0.4,7.4c2.2,2.4,3.9,5.1,6,7.6c1.5,1.8,3.1,3.6,4.7,5.3
			c0.2-0.1,0.3-0.2,0.5-0.3C311.6,896,309.6,888.3,304.2,882.3z M235.3,1002.9c0.4-0.6,0.1-1.1,0-1.6c-1-4.2-3.3-7.6-5.8-10.9
			c-0.2-0.3-0.5-0.5-1-0.5c-1.3,0-2.7,0-4.1,0C226,994,232.1,1001.5,235.3,1002.9z M190,943.3c-0.6-0.6-1.1-1.8-2.3-1.4
			c-1.3,0.4-1.3,1.7-1.5,2.7c-0.5,2.6,0.4,4.8,1.2,7c0.5,1.4,1.2,2.3,3.2,1.1c0.5-0.3,1.1-0.4,1.6-0.5c1.1-0.1,1.4-0.5,1.1-1.4
			C192.4,948.2,191.2,945.7,190,943.3z M210.2,921.7c1.1-1.7,1.9-3.1,2.8-4.4c0.3-0.4,0.5-0.9,0.2-1.3c-1.5-2.5-3-5-5.2-7
			c-0.6-0.5-0.8,0-1,0.5c-0.3,0.9-0.3,1.7-0.3,2.5C206.9,915.5,208.5,918.4,210.2,921.7z M217.8,974.6c1,4.1,2.9,7.8,4.4,11.7
			c1,2.6,3.2,2.3,5.9,2.4C224.6,983.8,221.6,978.9,217.8,974.6z M243,976.1c0.5-1.1,0.8-1.8,1.1-2.6c0.5-1.3,0.4-2.3-0.8-3.1
			c-2.3-1.5-4.4-3.1-6.5-4.7c-1-0.7-1.9-1.5-2.9-2.2C236.2,968.1,239.9,971.7,243,976.1z M222.9,942.9c-0.9-2.9-0.8-6.3-4.1-8.1
			c-2.1-1.1-3.4-3.2-5.1-5.4c-0.2,1.9-1.2,3.4,0.1,4.7C216.8,937.1,219.8,940,222.9,942.9z M312.6,869.2c0.1-0.2,0.1-0.3,0.1-0.3
			c-3.1-6.8-7.3-13.1-9-20.5c-0.1-0.3-0.2-0.6-0.7-0.4c-0.4,0.2-0.6,0.5-0.7,0.8c-0.2,0.9,0,1.8,0.2,2.6
			C304.6,858,308.7,863.5,312.6,869.2z M210,957.4c-0.4,4.5,1.9,7.7,4.8,10.7c0-1.6-0.4-2.9,0-4.2c1.2-4-1-5.5-4.2-6.3
			C210.4,957.5,210.2,957.5,210,957.4z M215.7,921.3c-0.5,1.7-0.9,3-1.2,4.3c-0.2,0.7-0.6,1.5-0.1,2.1c1.7,2.4,3.6,4.6,5.9,6.5
			C219.1,929.8,217.7,925.6,215.7,921.3z M251.4,897.2c1.6,4.8,3.7,8.9,7.6,12c-0.9-3-2.2-5.8-3.1-8.8
			C255.3,898.3,253.9,897.4,251.4,897.2z M294.7,920.1c-2.9-3.1-5.9-5.7-9.4-7.9c0.7,2.3,1.6,4.4,2.4,6.6c0.2,0.5,0.3,0.9,1,0.9
			C290.6,919.9,292.4,920.2,294.7,920.1z M206,907.7c-3.5-3.2-11.8-1.9-14.9,1.4C196,909.6,200.9,908,206,907.7z M276.3,962.7
			c-0.2,2.6-0.2,5.1-1.2,7.6c-0.4,1-1.1,1.9,0,2.6c0.8,0.5,1.4,1.3,2.1,2c0.2,0.2,0.5,0,0.6-0.2c0.7-0.8,1.5-1.3,1.3-2.6
			C278.3,968.9,277.5,965.8,276.3,962.7z M266.1,973.6c2.1,1.8,4.1,3.2,6.2,4.4c0.4,0.2,0.7,0.4,1.3,0.2c2.6-1.2,2.9-2.1,1.3-3.8
			c-0.3-0.3-0.6-0.7-1-1c-0.2-0.2-0.4-0.5-0.9-0.3C270.7,974.3,268.6,974,266.1,973.6z M283.7,941.6c-2.4-6.2-6-11.7-10.8-16.3
			C276,931.1,279.2,936.8,283.7,941.6z M323.2,910.2c-3.3-6.3-7.1-12.2-11.3-17.8C315.5,898.4,317.2,905.7,323.2,910.2z
			 M267.8,935.6c-0.1-0.5-0.2-0.9-0.3-1.4c-1.8-5.3-3.6-10.6-5.2-16c-0.5-1.6-1.4-2.4-3.3-3C262.2,922.1,264.8,928.9,267.8,935.6z
			 M209.9,923.9c-0.9,1.6-1.4,3-1.9,4.5c-0.1,0.4-0.1,0.8,0.2,1c1.2,1,2.5,1.9,3.7,2.9C213.9,928.6,211.8,926.4,209.9,923.9z
			 M207.5,931c-0.3,3.6,1.2,6.3,2.9,9.1C212.4,934.8,211.7,932.7,207.5,931z M213.1,926.2c0.5-1.8,0.8-3.3,1.4-4.8
			c0.7-1.8,0-2.9-0.8-4.1C210.2,922.8,210,921.8,213.1,926.2z M254.2,896.3c-0.8-1.8-1.5-3.5-2.2-5.1c-0.7-1.6-1.5-3.1-2.3-4.7
			c-0.1,2.4,0.4,4.6,0.8,6.8C250.8,895.2,251.9,896.1,254.2,896.3z M231.1,895.1c-0.8,3.3-1.2,6.4-1.4,9.5c0,0.6,0.3,0.8,0.8,0.8
			c0.9,0,0.6-0.6,0.6-1c0.3-1.5,0.4-2.9,0.8-4.4C232.4,898.2,232.1,896.7,231.1,895.1z M274,978.7c1.2,0.8,2.5,1.4,3.9,1.8
			c0.5,0.1,1.1,0.1,1.5-0.4c0.3-0.4,0.3-0.7,0.2-1.1c-1.2-2.3-2.7-2.5-5.1-0.7C274.3,978.4,274.2,978.5,274,978.7z M214,914.8
			c1.9-2.6,1-4.6-4-5.6C211.4,911.1,212.9,912.8,214,914.8z M228.3,964.2c2.1,1.3,4.3,2.7,6.5,4c-0.4-1.1-1-1.9-1.5-2.7
			C232.3,963.8,231.3,961.9,228.3,964.2z M388.5,812.5c-1.6-2.9-3.6-5.4-6.1-7.4c-0.3-0.3-0.7-0.6-1.2-0.1c-0.4,0.4,0,0.7,0.3,0.9
			C383.8,808.1,386.2,810.3,388.5,812.5z M262.3,914.1c0.4,1.6,3.7,4.3,6.1,4.9C267.4,916.1,266.3,915.2,262.3,914.1z M247.6,970.9
			c-0.1,0.2-0.3,0.4-0.4,0.6c2.7,1.8,5.5,3.6,8.2,5.4C253.2,974.5,251.6,971.3,247.6,970.9z M255.7,908.1c1,4.1,2.5,5.9,5.4,6.4
			C260.3,911.5,257,910.6,255.7,908.1z M233.3,907.4c-0.3-0.1-0.5-0.2-0.8-0.2c-0.3,0-0.5,0.2-0.5,0.4c-0.1,2.1-0.3,4.2-0.3,6.2
			c0,0.4,0.4,0.5,0.8,0.5c0.6-0.1,0.4-0.5,0.5-0.8c0.1-1.7,0.3-3.4,0.4-5.1C233.3,908.1,233.3,907.8,233.3,907.4z M242.4,892.2
			c0.1-0.1,0.2-0.3,0.3-0.4c-1-0.8-1.9-1.5-2.9-2.2c-0.9-0.7-2-1.2-3.3-1.1c-0.3,0-0.7-0.1-0.9,0.4c-0.1,0.4,0.2,0.5,0.4,0.6
			C238.3,890.3,240.4,891.3,242.4,892.2z M227.6,886.6c1.4,1.5,2.1,3.3,3.6,5c0.2-1.1,1.8-1.8,0.8-2.5
			C230.7,888,229.1,887.4,227.6,886.6z M230.3,913.8c0.2-2.3,0.3-4.2,0.4-6.2c0-0.5,0-0.9-0.6-0.9c-0.9,0.1-0.5,0.6-0.5,1
			c-0.1,1-0.1,2-0.1,3C229.7,911.7,229.1,912.9,230.3,913.8z M244.1,951.7c-0.1,0.1-0.3,0.2-0.4,0.3c2,3,4.5,5.7,7.2,8.2
			C248.6,957.4,246.3,954.6,244.1,951.7z M250.3,899.7c-0.1-1.9,0.2-4.1-2.7-3.9C248.5,897.2,249.4,898.4,250.3,899.7z M191.9,953.3
			c0.7,1.1,1,2.5,2.1,3.6C194.4,953.5,193.9,952.8,191.9,953.3z M253.4,907.8c-0.4,3.8-0.3,4,2,4.2
			C254.8,910.6,254.2,909.4,253.4,907.8z M242.1,949.9c0.1-0.1,0.3-0.2,0.4-0.3c-1.8-2.5-3.5-5-5-7.2
			C238.5,944.9,240.3,947.4,242.1,949.9z M232.8,895c0.4-1.7,0.7-3.3,1.1-5.2C231.6,892.4,231.5,893.2,232.8,895z M337.3,902.2
			c-1.6-2.6-3.8-4.8-5.9-7C333,897.8,335.2,900,337.3,902.2z M208.5,959.7c0-3.1-0.3-3.5-2.6-3.8
			C206.7,957.1,207.6,958.3,208.5,959.7z M201.9,950.3c0.8,1.2,1.5,2.1,2.1,3c0.2,0.2,0.3,0.7,0.8,0.3c0.5-0.4,0.4-0.7,0.1-1
			C204,951.9,203.4,950.9,201.9,950.3z M231.7,920c0.1,0,0.2,0,0.3,0c0.2-1.3,0.4-2.6,0.6-3.9c0.1-0.5-0.2-0.8-0.6-0.8
			c-0.6,0.1-0.3,0.5-0.3,0.8C231.6,917.5,231.7,918.7,231.7,920z M279.4,974.3c-0.5,0.6-1.5,0.8-1.2,1.5c0.2,0.6,0.7,1.2,1.7,1.5
			C279.7,976.1,279.6,975.3,279.4,974.3z M228.3,953.3c0.5,1.6,1,3.2,2.1,4.5C230.1,956.1,229.3,954.7,228.3,953.3z M230.5,919
			c-0.2-1.4,0.2-3-0.5-4.3C229.7,916.3,229.9,917.7,230.5,919z M233.1,902.2c-0.1,0-0.3,0-0.4,0c-0.1,1-0.3,1.9-0.4,2.9
			c-0.1,0.5,0.2,0.8,0.7,0.7c0.6-0.1,0.4-0.5,0.4-0.8C233.2,904.1,233.2,903.2,233.1,902.2z"/>
	</g>
</g>
<g>
	<g>
		<path class="st2" d="M119.1,828.8c1.3-0.6,3.2-1.1,5.8-1.7"/>
		<path class="st3" d="M136.8,825.2c83.8-11.2,411.2-18.8,459.3-24.2c68-7.6,167.1-1.1,212.1,8.5"/>
		<path class="st2" d="M814.2,810.9c2.1,0.5,4,1,5.8,1.6"/>
	</g>
</g>
<path class="st4" d="M463,575.6c19.8,157.1,8.3,151.5,17.5,291.3c5,76.4-8.1,129.2-15.9,185.7"/>
<g>
	<path class="st5" d="M549,734.8c1.4-0.2,4-0.3,6.6-0.8c6.9-1.1,12.8-4.1,17.1-9.7c5.3-7,6.7-15,4.7-23.4
		c-2.2-9.2-7.1-16.6-16.2-20.5c-8.8-3.8-17.7-2.5-26.4,0.8c-0.4,0.1-0.7,0.5-1,0.8c-0.7,0.9-0.7,1.9-0.1,2.8
		c0.6,0.9,1.5,1.1,2.6,0.8c5.4-1.6,10.8-2.4,16.4-1.2c7.5,1.6,12.7,6.3,16.5,12.6c5.9,9.7,3.6,21-5.7,27.6
		c-8.8,6.2-18.4,6.6-28.2,2.7c-6-2.4-10.3-6.7-12.4-12.9c-2.1-6.2-2.2-12.4-0.4-18.7c1.1-3.9,3-7.2,6.4-9.7c1.1-0.8,1.4-1.8,0.7-2.8
		c-0.6-0.9-1.5-0.9-2.8-0.1c-3.1,2.1-5.3,5-6.8,8.3c-3.6,8.2-3.7,16.5-1.1,25c2.2,7.1,6.9,12.1,13.6,15.2
		C537.5,733.9,542.6,734.7,549,734.8z"/>
	<path class="st5" d="M548.8,694.9c0.2,0.5,0.2,0.6,0.2,0.7c0,0.2,0,0.3,0,0.5c-0.2,3.8-1.4,7.3-3.7,10.3c-0.5,0.7-0.8,1.3-0.3,2.1
		c0.5,0.7,1.2,1.1,2.2,0.9c3.8-0.8,7.6,1.4,8.9,5c0.9,2.5,0.2,5-2.2,6.1c-1.4,0.7-3,1.1-4.6,1.2c-3,0.2-5.7-0.9-8.4-2
		c-1.3-0.5-2-0.3-2.4,0.7c-0.4,1.1,0,2.2,1.1,2.6c4.2,1.7,8.6,2.6,13.1,1.9c4.2-0.7,7-3.6,7.4-7.5c0.3-3.5-0.9-6.4-3.4-8.7
		c-1.8-1.7-4.1-2.6-6.6-3c0.2-0.5,0.4-0.9,0.6-1.4c1.5-3.2,2.1-6.7,1.9-10.2c-0.1-2-0.6-2.5-2.6-2.5c-4.2-0.1-7.6,2-11,4.1
		c-0.9,0.5-0.8,1.4-0.3,2.3c0.5,0.8,1.3,1.1,2.2,0.7c0.9-0.4,1.7-1,2.7-1.5C545.2,696.3,547,695.6,548.8,694.9z"/>
	<path class="st6" d="M549,734.8c-6.5-0.1-11.6-0.9-16.4-3.2c-6.7-3.1-11.4-8.1-13.6-15.2c-2.6-8.4-2.5-16.8,1.1-25
		c1.5-3.4,3.7-6.2,6.8-8.3c1.2-0.9,2.1-0.8,2.8,0.1c0.7,1,0.4,2-0.7,2.8c-3.3,2.4-5.2,5.8-6.4,9.7c-1.8,6.3-1.7,12.5,0.4,18.7
		c2.1,6.2,6.4,10.5,12.4,12.9c9.8,4,19.4,3.5,28.2-2.7c9.3-6.5,11.5-17.9,5.7-27.6c-3.9-6.3-9.1-11-16.5-12.6
		c-5.6-1.2-11-0.4-16.4,1.2c-1,0.3-1.9,0.2-2.6-0.8c-0.6-0.9-0.6-1.9,0.1-2.8c0.2-0.3,0.6-0.7,1-0.8c8.7-3.3,17.5-4.6,26.4-0.8
		c9,3.9,13.9,11.3,16.2,20.5c2,8.4,0.7,16.4-4.7,23.4c-4.3,5.6-10.2,8.6-17.1,9.7C553,734.5,550.4,734.6,549,734.8z"/>
	<path class="st6" d="M548.8,694.9c-1.8,0.7-3.6,1.4-5.3,2.2c-0.9,0.4-1.7,1-2.7,1.5c-0.9,0.4-1.7,0.2-2.2-0.7
		c-0.5-0.8-0.5-1.7,0.3-2.3c3.4-2.1,6.8-4.1,11-4.1c2,0,2.5,0.5,2.6,2.5c0.2,3.6-0.4,7-1.9,10.2c-0.2,0.4-0.4,0.8-0.6,1.4
		c2.5,0.4,4.8,1.3,6.6,3c2.5,2.4,3.8,5.2,3.4,8.7c-0.4,4-3.1,6.8-7.4,7.5c-4.6,0.7-8.9-0.2-13.1-1.9c-1.1-0.4-1.5-1.6-1.1-2.6
		c0.4-1,1.1-1.2,2.4-0.7c2.7,1.1,5.5,2.2,8.4,2c1.6-0.1,3.2-0.5,4.6-1.2c2.4-1.2,3.2-3.6,2.2-6.1c-1.4-3.6-5.1-5.7-8.9-5
		c-1,0.2-1.7-0.1-2.2-0.9c-0.5-0.7-0.2-1.4,0.3-2.1c2.2-3.1,3.5-6.5,3.7-10.3c0-0.2,0-0.3,0-0.5C549,695.5,549,695.4,548.8,694.9z"
		/>
</g>
<g>
	<path class="st5" d="M714,605.2c-0.2,2.5-0.4,4.9-0.7,7.4c-0.9,6.8-4.7,11.1-11.2,13c-3.9,1.2-7.8,1.3-11.8,1
		c-5.6-0.5-11.1-1.7-16.3-4.1c-6.1-2.9-10.1-7.5-10.7-14.4c-0.5-5,0.9-9.6,3.2-13.9c3.3-6,8-10.6,14.1-13.7c0.9-0.4,1.3-1,1-2
		c-0.3-0.9-1.3-1.3-2.3-0.9c-0.2,0.1-0.4,0.2-0.6,0.3c-7.4,3.7-13.1,9.1-17,16.4c-6.3,12.1-2.7,25.7,9,32.7
		c9.9,5.8,20.6,7.4,31.7,4.8c9.2-2.2,15-8.1,17.5-17.2c2.1-7.6,1.2-15.1-1.3-22.4c-1.6-4.8-4.1-9-7.9-12.3
		c-4.5-4.1-9.7-4.7-14.4-1.7c-1.5,0.9-1.9,2.3-1.3,3.7c0.6,1.3,1.4,1.4,3.3,0.8c4.1-1.4,7.7-0.5,10.3,3c0.9,1.2,1.7,2.6,2.3,4
		C713.1,594.6,713.8,599.8,714,605.2z"/>
	<path class="st5" d="M693.8,611.4c0,0.7,0,1.4,0,2.2c-0.1,2.7-0.1,5.5-0.2,8.2c0,1.1,0.7,1.7,1.7,1.7c1,0,1.7-0.6,1.8-1.7
		c0-0.3,0-0.5,0-0.8c0.2-5.4,0.4-10.8,0.5-16.2c0.1-3.6,0.1-7.3,0.1-10.9c0-1.3-1-2-2.1-1.6c-0.8,0.3-1,0.9-1.1,1.7
		c-0.1,4.1-0.3,8.2-0.5,12.3c0,0.4-0.3,1.1-0.5,1.2c-1.7,0.4-3.5,0.9-5.2,1c-2.3,0.1-3.4-1.1-3.3-3.4c0-1.6,0.1-3.1,0.3-4.7
		c0.3-3.2,0.7-6.3,2.4-9.2c0.6-1.1,0.5-1.7-0.3-2.3c-0.8-0.5-1.8-0.4-2.4,0.5c-0.5,0.8-1,1.7-1.4,2.6c-1.8,4.2-2.2,8.7-2.2,13.3
		c0,4.4,3,7.2,7.3,6.9C690.4,612.3,692,611.8,693.8,611.4z"/>
	<path class="st6" d="M714,605.2c-0.2-5.4-0.8-10.6-3-15.6c-0.6-1.4-1.4-2.8-2.3-4c-2.6-3.5-6.2-4.4-10.3-3
		c-1.9,0.7-2.7,0.5-3.3-0.8c-0.7-1.4-0.2-2.7,1.3-3.7c4.7-2.9,9.9-2.4,14.4,1.7c3.8,3.4,6.3,7.6,7.9,12.3c2.5,7.3,3.4,14.8,1.3,22.4
		c-2.5,9-8.3,15-17.5,17.2c-11.2,2.6-21.9,1.1-31.7-4.8c-11.7-7-15.3-20.6-9-32.7c3.9-7.3,9.6-12.7,17-16.4c0.2-0.1,0.4-0.2,0.6-0.3
		c1-0.4,1.9,0,2.3,0.9c0.4,1-0.1,1.6-1,2c-6.1,3.1-10.8,7.7-14.1,13.7c-2.4,4.3-3.7,8.9-3.2,13.9c0.7,6.9,4.6,11.6,10.7,14.4
		c5.1,2.4,10.6,3.6,16.3,4.1c4,0.4,8,0.2,11.8-1c6.5-2,10.3-6.3,11.2-13C713.6,610.1,713.7,607.7,714,605.2z"/>
	<path class="st6" d="M693.8,611.4c-1.8,0.3-3.4,0.8-5.1,0.9c-4.3,0.3-7.4-2.6-7.3-6.9c0-4.5,0.4-9,2.2-13.3
		c0.4-0.9,0.9-1.8,1.4-2.6c0.6-0.9,1.5-1,2.4-0.5c0.8,0.5,0.9,1.2,0.3,2.3c-1.7,2.8-2.1,6-2.4,9.2c-0.2,1.5-0.2,3.1-0.3,4.7
		c0,2.3,1.1,3.5,3.3,3.4c1.8-0.1,3.5-0.5,5.2-1c0.3-0.1,0.5-0.8,0.5-1.2c0.2-4.1,0.3-8.2,0.5-12.3c0-0.8,0.3-1.4,1.1-1.7
		c1.1-0.4,2.1,0.3,2.1,1.6c0,3.6,0,7.3-0.1,10.9c-0.1,5.4-0.4,10.8-0.5,16.2c0,0.3,0,0.5,0,0.8c-0.1,1.1-0.8,1.7-1.8,1.7
		c-1,0-1.7-0.6-1.7-1.7c0-2.7,0.1-5.5,0.2-8.2C693.8,612.9,693.8,612.2,693.8,611.4z"/>
</g>
<path class="st7" d="M206.2,919.8c0,10.1-12.8,18.7-28,18.7c-15.2,0-24.7-9.5-22.9-19.4c3.6-19.4,11.3-22.2,26.5-22.2
	C197.1,896.9,206.2,909.6,206.2,919.8z"/>
<g>
	<path class="st6" d="M178.5,941.1c6.7-0.1,14.2-1.9,21.1-6.4c4.7-3.1,8.3-7.2,9.2-13.1c0.8-5.1-0.6-9.8-3.2-14.2
		c-3.5-5.9-8.9-9.2-15.3-11c-7.9-2.2-15.8-2-23.7-0.6c-1.1,0.2-1.6,0.8-1.8,1.9c0,0.3-0.3,0.6-0.5,0.7c-3.4,1.3-5.6,3.9-7.1,7.1
		c-2.9,6.2-3.5,12.9-3.1,19.7c0.4,6.6,3.8,10.8,9.5,13.4C167.8,940.5,172.4,941.1,178.5,941.1z"/>
	<path class="st6" d="M178.5,941.1c-6.1,0-10.6-0.6-15-2.5c-5.8-2.5-9.2-6.8-9.5-13.4c-0.4-6.8,0.2-13.4,3.1-19.7
		c1.5-3.2,3.7-5.8,7.1-7.1c0.2-0.1,0.5-0.4,0.5-0.7c0.1-1.1,0.7-1.7,1.8-1.9c7.9-1.5,15.9-1.7,23.7,0.6c6.4,1.8,11.8,5.1,15.3,11
		c2.6,4.3,4,9.1,3.2,14.2c-0.9,5.9-4.4,10-9.2,13.1C192.7,939.2,185.1,941,178.5,941.1z M172.8,899.9c-1.8,0.4-4-0.1-6.3,0.8
		c-3.2,1.3-5.2,3.4-6.6,6.4c-1.8,3.9-2.6,8.1-2.6,12.4c0,2.4,0.1,4.8,0.7,7.1c1.3,5.1,5.1,7.8,9.9,9.1c6.7,1.8,13.4,1.4,20-0.7
		c4.8-1.5,9.1-3.9,12.5-7.7c4.8-5.3,4.9-11.3,0.5-16.8c-3.4-4.4-7.8-7.3-13.1-8.9C183.1,900.1,178.2,899.8,172.8,899.9z"/>
	<path class="st7" d="M172.8,899.9c5.4-0.1,10.3,0.2,15.1,1.6c5.2,1.6,9.6,4.6,13.1,8.9c4.4,5.6,4.2,11.6-0.5,16.8
		c-3.4,3.8-7.7,6.2-12.5,7.7c-6.6,2.1-13.3,2.6-20,0.7c-4.8-1.3-8.6-4-9.9-9.1c-0.6-2.3-0.7-4.7-0.7-7.1c0-4.3,0.8-8.5,2.6-12.4
		c1.4-3,3.4-5.2,6.6-6.4C168.8,899.8,171.1,900.4,172.8,899.9z M180,917.7c0.1,1.6,0.1,3.3,0.3,4.9c0.3,3.3,1,6.5,2.3,9.5
		c0.3,0.8,1,1.1,1.8,0.9c0.9-0.3,1.3-1,1.1-1.9c-0.1-0.4-0.2-0.7-0.3-1.1c-1.6-5.7-2.3-11.6-1.3-17.5c0.3-1.9,1-3.7,1.5-5.6
		c0.3-1.1-0.2-2-1.2-2.3c-0.9-0.3-1.4,0.1-1.9,1.3c-0.6,1.6-0.9,3.2-1.6,4.7c-1.7,3.8-4.5,6.8-7.8,9.2c-0.3,0.2-0.8,0.6-0.8,0.9
		c0,0.5,0.1,1.2,0.4,1.7c0.4,0.6,1.1,0.4,1.6,0C176.1,920.9,178,919.3,180,917.7z"/>
	<path class="st6" d="M180,917.7c-1.9,1.6-3.9,3.1-5.9,4.7c-0.5,0.4-1.2,0.6-1.6,0c-0.3-0.4-0.5-1.1-0.4-1.7c0-0.3,0.5-0.7,0.8-0.9
		c3.3-2.4,6.1-5.4,7.8-9.2c0.7-1.5,1-3.2,1.6-4.7c0.4-1.3,1-1.6,1.9-1.3c0.9,0.3,1.4,1.2,1.2,2.3c-0.5,1.9-1.2,3.7-1.5,5.6
		c-1,5.9-0.3,11.8,1.3,17.5c0.1,0.4,0.2,0.7,0.3,1.1c0.2,0.9-0.2,1.6-1.1,1.9c-0.8,0.3-1.4,0-1.8-0.9c-1.3-3-2-6.2-2.3-9.5
		C180.1,921,180.1,919.3,180,917.7z"/>
</g>
<g>
	<path class="st7" d="M400.6,807.7c0,14.4-17.1,26.2-35.5,26.2S339.3,823.4,339,809c-0.4-20.5,17.2-26.9,35.6-26.9
		C393,782.1,400.6,793.3,400.6,807.7z"/>
	<g>
		<path class="st6" d="M375.7,780.2c5.6,0.1,10.8,1,15.5,3.9c6,3.6,9.2,9.2,10.8,15.8c3.2,12.8-2.6,25.1-14.6,31.5
			c-5.4,2.9-11.3,4.3-17.3,5.1c-5.4,0.7-10.7,0.6-15.9-0.8c-9.8-2.8-16.4-10.9-17.3-21c-0.7-7.7,0.7-14.9,4.6-21.5
			c1.9-3.2,4.4-5.8,7.7-7.6c0.4-0.2,0.9-0.5,1.2-0.4c0.6,0.2,1.3,0.6,1.4,1.1c0.2,0.4-0.1,1.3-0.5,1.6c-6.3,4-8.8,10.1-10,17
			c-0.8,4.2-0.7,8.4,0.3,12.5c1.7,6.8,6.2,11,12.7,13.2c5.7,2,11.5,1.8,17.3,0.7c7.9-1.5,14.7-5,20.1-11c1.9-2.2,3.6-4.6,4.6-7.4
			c2.7-7.2,1-13.3-4.3-18.6c-5.4-5.4-12-7.5-19.5-7.4c-5,0.1-9.9,1.2-14.6,2.8c-1.4,0.5-2.3,0.2-3-0.8c-0.9-1.4-0.5-2.9,1-3.7
			C362.1,781.8,368.8,780.3,375.7,780.2z"/>
		<path class="st6" d="M363.5,820.3c1.9,0,3.8,0.1,5.7,0c3.8-0.2,7.7-0.6,11.5-0.8c0.6,0,1.3,0.1,1.7,0.5c0.3,0.4,0.5,1.3,0.3,1.7
			c-0.2,0.5-1,0.9-1.5,1c-2.5,0.4-5,0.7-7.5,0.8c-3.1,0.2-6.2,0.4-9.3,0.1c-1.6-0.1-3.3-1-4.8-1.8c-1.4-0.7-1.6-2.1-0.3-3
			c2.1-1.5,4.4-2.9,6.6-4.2c1.8-1.1,3.7-2,5.6-2.9c0.5-0.3,1.1-0.7,1.6-1c4.9-3.5,4.9-7.9,2.1-12.7c-1.4-2.3-3.4-2.7-5.8-1.4
			c-2.5,1.3-3.7,3.6-4.5,6.2c-0.1,0.2,0,0.5,0.1,0.7c0.8,0.8,0.6,1.7,0.1,2.5c-0.4,0.7-0.8,1.3-1.4,1.9c-0.3,0.3-1.1,0.6-1.4,0.5
			c-0.5-0.2-1.2-0.8-1.3-1.3c-0.9-4.9,2.9-11.8,7.5-13.8c2.4-1,4.7-0.9,6.7,0.6c4,3,5.8,7.1,5.2,12.1c-0.4,2.7-2,4.7-4.1,6.2
			c-2.3,1.6-4.8,3-7.2,4.5c-1.9,1.1-3.7,2.2-5.6,3.3C363.4,819.9,363.4,820.1,363.5,820.3z"/>
	</g>
</g>
<g>
	<path class="st7" d="M859.7,554.8c0,14.4-10,23.2-25.7,23.2c-15.7,0-28.4-11.7-28.4-26.2c0-14.4,13-23.2,28.7-23.2
		C850,528.6,859.7,540.3,859.7,554.8z"/>
	<g>
		<path class="st5" d="M833.9,580.7c5.2-0.1,10-0.7,14.6-2.5c7.1-2.7,12-7.5,14.2-14.9c1.3-4.6,1.4-9.2,0.7-13.9
			c-0.8-5.7-2.7-10.9-6.6-15.3c-6.9-7.7-15.8-9.4-25.7-8.1c-1.3,0.2-1.9,1.6-1.3,3c0.5,1.2,1.3,1.6,2.6,1.8c2,0.2,4.1,0.4,6.1,0.7
			c5.4,1,10.2,3.1,13.6,7.7c3,4,4.5,8.7,5.1,13.6c0.6,4.9-0.2,9.5-3.3,13.5c-3.2,4.1-7.6,6.3-12.6,7.4c-9.9,2.2-19.3,0.3-28-4.6
			c-6.7-3.7-9.6-10.5-7.9-18c1.9-8.2,6.7-14.2,14.4-17.8c0.5-0.2,1.1-0.5,1.2-0.9c0.2-0.6,0.1-1.4-0.1-1.9c-0.4-0.8-1.2-0.6-1.9-0.3
			c-7,2.9-12.2,7.8-15.7,14.4c-2.4,4.4-3.6,9.2-2.7,14.3c1.1,6.1,4.6,10.7,9.4,14.3C817.2,578.6,825.5,580.5,833.9,580.7z"/>
		<path class="st5" d="M824.9,553.9c-0.6-2.2-1.1-4.4-0.8-6.7c0.3-2.9,1.4-4.2,4.3-4.6c2.2-0.3,4.5-0.3,6.7-0.4c1,0,1.6-0.4,1.7-1.4
			c0.1-1-0.5-1.7-1.5-1.7c-2.5,0.1-5,0-7.4,0.5c-5.1,1-7.6,4.2-7.2,9.3c0.2,2.8,1,5.7,1.6,8.5c0.4,2,1.8,2.4,3.4,1
			c1.5-1.4,3.1-2.8,5.2-3.4c2.3-0.7,4.1,0,5.2,2.2c1,2,1.3,4.1,0.9,6.2c-0.5,3.3-3.3,5.2-6.6,4.6c-0.7-0.1-1.4-0.4-2.1-0.6
			c-0.9-0.2-1.6,0.2-1.9,1.1c-0.3,0.8-0.3,1.6,0.6,2.1c4.1,2,9,1.6,11.8-2.5c2.5-3.8,2.3-7.9,0.7-12c-2.1-5.1-6.6-6.6-11.3-3.9
			C827,552.4,826,553.1,824.9,553.9z"/>
		<path d="M833.9,580.7c-8.4-0.2-16.7-2.1-23.9-7.5c-4.8-3.6-8.3-8.2-9.4-14.3c-0.9-5.1,0.3-9.8,2.7-14.3
			c3.6-6.6,8.7-11.5,15.7-14.4c0.7-0.3,1.5-0.5,1.9,0.3c0.3,0.5,0.3,1.3,0.1,1.9c-0.1,0.4-0.8,0.7-1.2,0.9
			c-7.7,3.6-12.5,9.6-14.4,17.8c-1.7,7.5,1.2,14.3,7.9,18c8.7,4.9,18.1,6.8,28,4.6c5-1.1,9.4-3.3,12.6-7.4c3.1-4,3.9-8.6,3.3-13.5
			c-0.6-4.9-2.1-9.6-5.1-13.6c-3.4-4.6-8.2-6.7-13.6-7.7c-2-0.4-4.1-0.5-6.1-0.7c-1.2-0.1-2.1-0.6-2.6-1.8c-0.6-1.4,0-2.8,1.3-3
			c9.8-1.3,18.7,0.4,25.7,8.1c3.9,4.3,5.8,9.6,6.6,15.3c0.6,4.7,0.6,9.3-0.7,13.9c-2.2,7.4-7.1,12.2-14.2,14.9
			C843.9,580,839.1,580.7,833.9,580.7z"/>
		<path d="M824.9,553.9c1.1-0.7,2.1-1.5,3.1-2c4.8-2.6,9.3-1.1,11.3,3.9c1.6,4.1,1.8,8.2-0.7,12c-2.7,4.1-7.7,4.5-11.8,2.5
			c-0.9-0.4-0.9-1.3-0.6-2.1c0.3-0.8,1-1.3,1.9-1.1c0.7,0.2,1.4,0.4,2.1,0.6c3.3,0.6,6-1.3,6.6-4.6c0.3-2.2,0-4.2-0.9-6.2
			c-1.1-2.2-2.9-2.9-5.2-2.2c-2,0.6-3.7,2-5.2,3.4c-1.5,1.4-2.9,1.1-3.4-1c-0.6-2.8-1.4-5.6-1.6-8.5c-0.3-5.1,2.2-8.3,7.2-9.3
			c2.4-0.5,4.9-0.4,7.4-0.5c1,0,1.6,0.7,1.5,1.7c-0.1,1-0.7,1.4-1.7,1.4c-2.2,0.1-4.5,0.1-6.7,0.4c-2.9,0.5-3.9,1.7-4.3,4.6
			C823.9,549.4,824.3,551.6,824.9,553.9z"/>
	</g>
</g>
<g>
	<path class="st8" d="M854,532.9c2.1-0.2,3.2-1.9,4.8-3.7c6.3-6.9,25.1-34.4,37.4-44.2"/>
	<path class="st9" d="M898.8,491.8c-1-4.3,1.5-7.8,1.4-11.9c-2.9,1.4-8.8,4-12.2,3.6"/>
</g>
<g>
	<g>
		<line class="st10" x1="68.3" y1="737" x2="68.3" y2="758.2"/>
		<g>
			<polygon points="63.3,738.5 68.3,729.9 73.3,738.5 			"/>
		</g>
	</g>
</g>
<g>
	<g>
		<line class="st10" x1="494.9" y1="1077.5" x2="473.7" y2="1077.5"/>
		<g>
			<polygon points="493.4,1072.5 502,1077.5 493.4,1082.5 			"/>
		</g>
	</g>
</g>
<g>
	<g>
		<path class="st0" d="M136.6,979.3c0.5,0,0.8,0.2,0.9,0.8l-0.2,1.8v0.6c0.5,4.1,0.8,7.4,0.9,9.7c0.2,2.1,0.4,3.2,0.7,3.2
			c0,0.4-0.4,0.7-1.1,0.8c-1,0-1.5-2-1.5-6.1l-0.8-7.8v-0.3C135.6,980.1,136,979.3,136.6,979.3z"/>
		<path class="st0" d="M147.6,979.4c0.3,0,0.6,0.3,0.9,1l-1.3,8.3v2.3c0,2.4,0.4,3.7,1.1,3.7c0.5,0.2,0.8,0.6,0.8,1
			c0,0.5-0.4,0.7-1.2,0.8c-0.9,0-1.6-0.8-2.1-2.4h-0.3c-0.7,1.6-1.6,2.4-2.7,2.4c-1.2,0-2-0.9-2.2-2.8c0-2.2,1.5-4.5,4.4-6.9
			c0.6,0,0.9-0.8,0.9-2.4C146.2,981,146.8,979.4,147.6,979.4z M142.3,993.4v0.8l0.5,0.5h0.2c0.6,0,1.4-1.9,2.2-5.8h-0.2
			C143.2,990.7,142.3,992.2,142.3,993.4z"/>
		<path class="st0" d="M152.8,985.1c0.8,0,2.1,1.4,4,4.2l0.1,0.5c0,0.6-1.4,1-4.1,1.3l-0.1,0.1v0.1c0.4,1.8,0.9,2.7,1.3,2.7h0.4
			c0.6,0,1.6-0.7,2.9-2.1h0.2c0.4,0,0.7,0.3,0.9,0.9c0,0.5-0.8,1.3-2.5,2.5c-0.4,0.3-1,0.5-1.6,0.6c-1.6,0-2.8-1.5-3.4-4.6
			c-0.9-0.1-1.4-0.5-1.4-1.1c0-0.4,0.3-0.7,1-0.9v0.1l0.3-0.1v-0.8C150.9,986.3,151.5,985.1,152.8,985.1z M153,987.3h-0.3l-0.1,1.1
			v0.9h0.1c1.1,0,1.7-0.2,1.7-0.4C153.9,988.2,153.4,987.6,153,987.3z"/>
		<path class="st0" d="M165.2,984.3c0.9,0,1.3,0.3,1.3,1l-0.3,0.6l-0.2,5.5c0,2.5,0.5,4,1.5,4.6l0.1,0.5c-0.1,0.6-0.3,0.9-0.8,0.9
			h-0.2c-1.5-1-2.2-2.6-2.2-4.7h-0.2c-0.8,2.2-1.8,3.4-2.9,3.4c-1.1-0.3-1.6-1.1-1.6-2.4c0-2.8,1.1-5.6,3.4-8.4
			C163.8,984.6,164.5,984.3,165.2,984.3z M161.6,992.5l-0.1,0.8v0.6h0.3c1.5-3.7,2.2-6,2.2-6.8h-0.1
			C162.7,988.3,161.9,990.1,161.6,992.5z"/>
		<path class="st0" d="M171.9,977.7c0.6,0.1,0.8,0.4,0.8,0.8l-0.2,1.3v0.4c0,0.9,0.1,1.8,0.3,2.8h0.1c2.3-0.7,3.8-1,4.3-1
			c0.6,0.2,0.9,0.4,0.9,0.9c0,0.7-0.7,1-2.1,1l-3.1,1.1c0,2.7,0.3,6.4,0.9,11c-0.1,0.5-0.4,0.8-0.9,0.8h-0.1c-0.7,0-1-0.9-1-2.7
			c-0.3-1.3-0.5-4.2-0.7-8.7h-0.5c-1.9-0.1-2.8-0.6-2.8-1.3c0-0.2,0.2-0.5,0.6-0.8h0.3l1.4,0.4h1l-0.3-3.8
			C170.8,978.4,171.1,977.7,171.9,977.7z"/>
		<path class="st0" d="M179.3,980.3c0.8,0.2,1.1,0.5,1.1,1c-0.2,0.6-0.5,0.8-1,0.8c-0.7-0.1-1.1-0.5-1.1-1.1
			C178.6,980.5,178.9,980.3,179.3,980.3z M180.5,984.5c0.3,0,0.6,0.3,0.8,0.9l-0.3,2.1v1.4c0,1.6,0.3,3.8,0.8,6.5
			c-0.2,0.4-0.5,0.6-1,0.6c-0.8,0-1.4-2.4-1.6-7.2v-1C179.2,985.5,179.6,984.5,180.5,984.5z"/>
		<path class="st0" d="M188.2,984.6c1.5,0,2.6,1.1,3.4,3.3l0.1,0.6c0,2.1-1,4.3-3,6.6c-0.8,0.7-1.6,1.1-2.4,1.1
			c-1.2,0-2.1-0.7-2.5-2.1c-0.2-0.6-0.3-1.2-0.3-1.7v-0.4c0-3.2,1.1-5.6,3.4-7.2C187.3,984.7,187.7,984.6,188.2,984.6z M185.2,992.4
			c0,1.4,0.3,2,1,2c1.5,0,2.7-1.9,3.6-5.6v-0.6c-0.3-1.2-1-1.9-1.9-1.9c-0.4,0-0.5,0.2-0.5,0.8c0,0.3-0.4,0.6-1.2,0.8
			C185.5,989.1,185.2,990.6,185.2,992.4z"/>
		<path class="st0" d="M196.9,985.8c1.7,0.1,2.5,1,2.5,2.5l0.1,0.4l-0.1,4.7c0,0.5,0.3,1.3,0.9,2.2v0.1c-0.2,0.6-0.5,0.9-0.9,0.9
			c-1.2-0.5-1.9-1.6-1.9-3.3v-0.4l-0.1-0.1l0.1-0.1v-0.1l0.1-4.1c0-0.6-0.3-0.9-0.8-0.9h-0.4c-1,0.4-1.5,2.6-1.5,6.6
			c0,1.4-0.4,2.1-1.1,2.1c-0.5,0-0.8-0.3-0.8-1v-3c0-3.9,0.3-5.8,1-5.8l0.3-0.1l0.6,0.1C195.7,986,196.3,985.8,196.9,985.8z"/>
	</g>
	<g>
		<path class="st0" d="M246.7,742.5c2.8,0,5.5,1.5,8.2,4.5c0.8,1.6,1.2,3.1,1.2,4.6c0,3.5-1.8,6-5.3,7.7c-1.1,0.5-2.4,0.8-3.7,0.8
			h-0.8c-0.7,0-1.1-0.3-1.1-0.9h-0.1c0-0.5,0.3-0.8,1-0.8h0.7v-0.2h0.1c-1.2-5.3-1.9-9.2-1.9-11.7h-0.1l-0.8,0.5
			c-0.5,0-0.8-0.3-0.9-1c0-1.1,0.6-2.1,1.9-2.9C245.6,742.7,246.1,742.5,246.7,742.5z M247,744.3h-0.2v1.4c0,3.3,0.6,7.4,1.9,12.4
			h0.1c3.7-1,5.5-3.2,5.5-6.5c0-3.6-2.1-5.9-6.2-7.1C247.9,744.4,247.5,744.3,247,744.3z"/>
		<path class="st0" d="M257.6,744.4c0.8,0.2,1.1,0.5,1.1,1c-0.2,0.6-0.5,0.8-1,0.8c-0.7-0.1-1.1-0.5-1.1-1.1
			C256.8,744.7,257.2,744.4,257.6,744.4z M258.7,748.6c0.3,0,0.6,0.3,0.8,0.9l-0.3,2.1v1.4c0,1.6,0.3,3.8,0.8,6.5
			c-0.2,0.4-0.5,0.6-1,0.6c-0.8,0-1.4-2.4-1.6-7.2v-1C257.5,749.7,257.9,748.6,258.7,748.6z"/>
		<path class="st0" d="M267.7,747.9c0.5,0,0.9,0.9,1.1,2.7c-0.2,0.5-0.5,0.8-1,0.8c-0.3-0.1-0.6-0.4-1-1.1l-0.5-0.2
			c-0.9,0-1.8,0.6-2.6,1.9v0.3c0,0.3,1.4,0.8,4.2,1.5c1.2,0.7,1.8,1.6,1.8,2.6c0,1.6-1.3,3-4,4.2l-1.1,0.2c-1.7-0.2-2.5-1-2.5-2.5
			V758c0-0.5,0.3-0.8,0.9-0.8c0.5,0,0.8,0.5,1,1.5l0.2,0.2h0.5c1.1,0,2.2-0.8,3.2-2.3v-0.4c0-0.6-1.3-1.2-3.9-1.7
			c-1.4-0.6-2.1-1.3-2.1-2.3c0-1.3,1.1-2.5,3.3-3.7C266.2,748.4,267,748.2,267.7,747.9z"/>
		<path class="st0" d="M273.9,749.9l1.2-0.2c0.5,0,0.8,0.3,0.8,0.9c0,0.5-0.7,0.9-2,1c-0.8,0.6-1.2,1.5-1.2,2.5v1
			c0.4,2.2,1.1,3.3,2,3.3h0.3c0.6,0,1.4-0.5,2.5-1.6h0.2c0.4,0,0.7,0.3,1,0.8c-0.3,0.9-1.2,1.6-2.7,2.3c-0.3,0.1-0.6,0.2-1,0.2
			c-2.1,0-3.4-1.6-4-4.9v-0.7C271,752.3,272,750.7,273.9,749.9z"/>
		<path class="st0" d="M285.1,748.7c1.5,0,2.6,1.1,3.4,3.3l0.1,0.6c0,2.1-1,4.3-3,6.6c-0.8,0.7-1.6,1.1-2.4,1.1
			c-1.2,0-2.1-0.7-2.5-2.1c-0.2-0.6-0.3-1.2-0.3-1.7v-0.4c0-3.2,1.1-5.6,3.4-7.2C284.2,748.8,284.6,748.7,285.1,748.7z M282.1,756.5
			c0,1.4,0.3,2,1,2c1.5,0,2.7-1.9,3.6-5.6v-0.6c-0.3-1.2-1-1.9-1.9-1.9c-0.4,0-0.5,0.2-0.5,0.8c0,0.3-0.4,0.6-1.2,0.8
			C282.4,753.3,282.1,754.8,282.1,756.5z"/>
		<path class="st0" d="M290.3,749.9c0.5,0,1,1.1,1.5,3.3c0.8,1.8,1.2,2.7,1.3,2.8c0.1,0,0.5-1,1.1-3s1.2-3,1.8-3
			c0.5,0.2,0.8,0.5,0.8,1c-1.7,4.3-2.5,7.1-2.5,8.5l-0.6,0.6h-0.6c-0.7-0.5-1.9-3.3-3.7-8.2l-0.3-1.1
			C289.5,750.2,289.8,749.9,290.3,749.9z"/>
		<path class="st0" d="M300.8,749.3c0.8,0,2.1,1.4,4,4.2l0.1,0.5c0,0.6-1.4,1-4.1,1.3l-0.1,0.1v0.1c0.4,1.8,0.9,2.7,1.3,2.7h0.4
			c0.6,0,1.6-0.7,2.9-2.1h0.2c0.4,0,0.7,0.3,0.9,0.9c0,0.5-0.8,1.3-2.5,2.5c-0.4,0.3-1,0.4-1.6,0.6c-1.6,0-2.8-1.5-3.4-4.6
			c-0.9-0.1-1.4-0.5-1.4-1.1c0-0.4,0.3-0.7,1-0.9v0.1l0.3-0.1v-0.8C298.9,750.4,299.5,749.3,300.8,749.3z M301,751.4h-0.3l-0.1,1.1
			v0.9h0.1c1.1,0,1.7-0.2,1.7-0.4C301.9,752.3,301.4,751.8,301,751.4z"/>
		<path class="st0" d="M311.5,748.2c1.3,0,2,0.9,2.2,2.6v0.3c0,1.9-1,3.7-3,5.3c1.2,1.1,3.2,1.7,6.1,1.7c0.4,0.1,0.7,0.4,0.7,0.9
			c0,0.5-0.4,0.8-1,0.8c-2,0-4-0.5-6.2-1.5v0.9c0,2.1-0.4,3.1-1.3,3.1c-0.6,0-0.9-1.2-0.9-3.6v-2.3l-0.1-0.8l0.2-1l-0.2-2.9v-0.1
			c0-0.5,0.3-0.9,0.8-1.1C309.6,749,310.5,748.2,311.5,748.2z M310,754.8c0.6,0,1.2-1,2-3.1v-1.3l-0.4-0.4h-0.3
			C310.5,750.6,310,752.2,310,754.8z"/>
		<path class="st0" d="M319.5,751.1c0.7,0,1.2,1.5,1.4,4.6c0.3,1.4,0.6,2.1,0.8,2.1h0.2c0.5-1.3,0.8-2.5,0.8-3.8l-0.2-2.1
			c0.2-0.5,0.5-0.8,0.9-0.8c0.7,0,1.1,1.3,1.1,3.9c0.4,2.7,0.7,5.2,0.7,7.6v1.4c0,4.3-1.2,7.2-3.7,8.7l-0.7,0.1
			c-1.1,0-2.2-1.1-3.2-3.2l-0.3-1.8v-0.1c0-1.3,0.4-2,1.1-2l0.8,0.5l-0.1,1.9c0,0.9,0.5,1.8,1.4,2.8h0.4c1.1,0,1.9-2.1,2.4-6.3
			l0.1-1.7c0-2-0.1-3.3-0.2-3.9c-0.8,0.7-1.4,1-1.9,1c-1,0-1.9-2.7-2.7-8.2l-0.1-0.1C318.5,751.5,318.8,751.2,319.5,751.1z"/>
	</g>
	<g>
		<path class="st0" d="M599.2,736.4c0.4,0,0.6,0.3,0.8,0.9c0,0.4-0.6,0.8-1.9,1.4c-1.1,0.7-2,2.3-2.9,4.9c-1,4.2-1.5,7.9-1.5,11.1
			c-0.3,0.3-0.7,0.5-1,0.5c-0.5,0-1-1-1.4-3c-3.1-7.6-4.6-11.9-4.6-12.7c0-0.4,0.3-0.7,1-0.8c0.5,0,1,1,1.5,3.1l2.9,7.4h0.1
			c0.1,0,0.3-1,0.5-3c0.8-3.2,1.5-5.3,2.2-6.5C596.7,737.5,598.1,736.4,599.2,736.4z"/>
		<path class="st0" d="M604.2,742.8c0.9,0,1.3,0.4,1.3,1l-0.3,0.6l-0.2,5.5c0,2.5,0.5,4,1.5,4.6l0.1,0.5c-0.1,0.6-0.3,0.9-0.8,0.9
			h-0.2c-1.5-1-2.2-2.6-2.2-4.7h-0.2c-0.8,2.2-1.8,3.4-2.9,3.4c-1.1-0.3-1.6-1.1-1.6-2.4c0-2.8,1.1-5.6,3.4-8.4
			C602.8,743.1,603.5,742.8,604.2,742.8z M600.5,750.9l-0.1,0.8v0.6h0.3c1.5-3.7,2.2-6,2.2-6.8h-0.1
			C601.7,746.8,600.9,748.6,600.5,750.9z"/>
		<path class="st0" d="M609,737.8c0.6,0.2,0.8,0.5,0.8,0.9l0.3,11.4v3.7c0,0.7-0.3,1-0.9,1h-0.4c-0.4-0.2-0.5-0.5-0.5-0.8v-3.5
			l-0.3-11.9C608.1,738.2,608.4,737.9,609,737.8z"/>
		<path class="st0" d="M612.7,738.7c0.8,0.2,1.1,0.5,1.1,1c-0.2,0.6-0.5,0.8-1,0.8c-0.7-0.1-1.1-0.5-1.1-1.1
			C611.9,739,612.3,738.7,612.7,738.7z M613.8,742.9c0.3,0,0.6,0.3,0.8,0.9l-0.3,2.1v1.4c0,1.6,0.3,3.8,0.8,6.5
			c-0.2,0.4-0.5,0.6-1,0.6c-0.8,0-1.4-2.4-1.6-7.2v-1C612.6,744,613,742.9,613.8,742.9z"/>
		<path class="st0" d="M623.8,737.9c0.3,0,0.6,0.3,0.9,1l-1.3,8.3v2.3c0,2.4,0.4,3.7,1.1,3.7c0.5,0.2,0.8,0.6,0.8,1
			c0,0.5-0.4,0.7-1.2,0.8c-0.9,0-1.6-0.8-2.1-2.4h-0.3c-0.7,1.6-1.6,2.4-2.7,2.4c-1.2,0-2-0.9-2.2-2.8c0-2.2,1.5-4.5,4.4-6.9
			c0.6,0,0.9-0.8,0.9-2.4C622.4,739.5,623,737.9,623.8,737.9z M618.5,751.9v0.8l0.5,0.5h0.2c0.6,0,1.4-1.9,2.2-5.8h-0.2
			C619.4,749.2,618.5,750.7,618.5,751.9z"/>
		<path class="st0" d="M631.9,742.8c0.9,0,1.3,0.4,1.3,1l-0.3,0.6l-0.2,5.5c0,2.5,0.5,4,1.5,4.6l0.1,0.5c-0.1,0.6-0.3,0.9-0.8,0.9
			h-0.2c-1.5-1-2.2-2.6-2.2-4.7h-0.2c-0.8,2.2-1.8,3.4-2.9,3.4c-1.1-0.3-1.6-1.1-1.6-2.4c0-2.8,1.1-5.6,3.4-8.4
			C630.6,743.1,631.3,742.8,631.9,742.8z M628.3,750.9l-0.1,0.8v0.6h0.3c1.5-3.7,2.2-6,2.2-6.8h-0.1
			C629.5,746.8,628.7,748.6,628.3,750.9z"/>
		<path class="st0" d="M638.6,736.1c0.6,0.1,0.8,0.4,0.8,0.8l-0.2,1.3v0.4c0,0.9,0.1,1.8,0.3,2.8h0.1c2.3-0.7,3.8-1,4.3-1
			c0.6,0.2,0.9,0.5,0.9,0.9c0,0.7-0.7,1-2.1,1l-3.1,1.1c0,2.7,0.3,6.4,0.9,11c-0.1,0.5-0.4,0.8-0.9,0.8h-0.1c-0.7,0-1-0.9-1-2.7
			c-0.3-1.3-0.5-4.2-0.7-8.7h-0.5c-1.9-0.1-2.8-0.6-2.8-1.3c0-0.2,0.2-0.5,0.6-0.8h0.3l1.4,0.4h1l-0.3-3.8
			C637.5,736.8,637.9,736.1,638.6,736.1z"/>
		<path class="st0" d="M646.1,738.7c0.8,0.2,1.1,0.5,1.1,1c-0.2,0.6-0.5,0.8-1,0.8c-0.7-0.1-1.1-0.5-1.1-1.1
			C645.4,739,645.7,738.7,646.1,738.7z M647.2,742.9c0.3,0,0.6,0.3,0.8,0.9l-0.3,2.1v1.4c0,1.6,0.3,3.8,0.8,6.5
			c-0.2,0.4-0.5,0.6-1,0.6c-0.8,0-1.4-2.4-1.6-7.2v-1C646,744,646.4,742.9,647.2,742.9z"/>
		<path class="st0" d="M654.9,743c1.5,0,2.6,1.1,3.4,3.3l0.1,0.6c0,2.1-1,4.3-3,6.6c-0.8,0.7-1.6,1.1-2.4,1.1
			c-1.2,0-2.1-0.7-2.5-2.1c-0.2-0.6-0.3-1.2-0.3-1.7v-0.4c0-3.2,1.1-5.6,3.4-7.2C654,743.1,654.5,743,654.9,743z M651.9,750.8
			c0,1.4,0.3,2,1,2c1.5,0,2.7-1.9,3.6-5.6v-0.6c-0.3-1.2-1-1.9-1.9-1.9c-0.4,0-0.5,0.2-0.5,0.8c0,0.3-0.4,0.6-1.2,0.8
			C652.3,747.6,651.9,749,651.9,750.8z"/>
		<path class="st0" d="M663.6,744.2c1.7,0.1,2.5,1,2.5,2.5l0.1,0.4l-0.1,4.7c0,0.5,0.3,1.3,0.9,2.2v0.1c-0.2,0.6-0.5,0.9-0.9,0.9
			c-1.2-0.5-1.9-1.6-1.9-3.3v-0.4l-0.1-0.1l0.1-0.1V751l0.1-4.1c0-0.6-0.3-0.9-0.8-0.9h-0.4c-1,0.4-1.5,2.6-1.5,6.6
			c0,1.4-0.4,2.1-1.1,2.1c-0.5,0-0.8-0.3-0.8-1v-3c0-3.9,0.3-5.8,1-5.8l0.3-0.1l0.6,0.1C662.5,744.4,663,744.2,663.6,744.2z"/>
	</g>
	<g>
		<path class="st0" d="M540.6,594.9c1.4,0,2.1,1,2.4,2.9c0,1.6-0.4,2.6-1.1,3.1h-0.2c-0.6,0-0.9-0.2-0.9-0.6l0.1-2.2v-1.1l-0.2-0.2
			h-0.3c-0.6,0-1.4,1.8-2.2,5.3l-0.2,2.2v0.7c0,2.1,0.9,3.3,2.8,3.7h1.3c2.1,0,4.6-1.3,7.6-4h0.1c0.5,0,0.8,0.3,0.9,1
			c-0.5,1.2-1,1.8-1.6,1.8c-2.9,2-5.4,3.1-7.7,3.1c-2.3,0-3.9-1.2-4.8-3.8l-0.3-2.1v-0.4c0-3.1,0.9-5.9,2.6-8.5
			C539.4,595.2,540,594.9,540.6,594.9z"/>
		<path class="st0" d="M556.6,599.2c1.5,0,2.6,1.1,3.4,3.3l0.1,0.6c0,2.1-1,4.3-3,6.6c-0.8,0.7-1.6,1.1-2.4,1.1
			c-1.2,0-2.1-0.7-2.5-2.1c-0.2-0.6-0.3-1.2-0.3-1.7v-0.4c0-3.2,1.1-5.6,3.4-7.2C555.7,599.3,556.1,599.2,556.6,599.2z M553.6,607
			c0,1.4,0.3,2,1,2c1.5,0,2.7-1.9,3.6-5.6v-0.6c-0.3-1.2-1-1.9-1.9-1.9c-0.4,0-0.5,0.2-0.5,0.8c0,0.3-0.4,0.6-1.2,0.8
			C553.9,603.7,553.6,605.2,553.6,607z"/>
		<path class="st0" d="M565.3,600.4c1.7,0.1,2.5,1,2.5,2.5l0.1,0.4l-0.1,4.7c0,0.5,0.3,1.3,0.9,2.2v0.1c-0.2,0.6-0.5,0.9-0.9,0.9
			c-1.2-0.5-1.9-1.6-1.9-3.3v-0.4l-0.1-0.1l0.1-0.1v-0.1l0.1-4.1c0-0.6-0.3-0.9-0.8-0.9H565c-1,0.4-1.5,2.6-1.5,6.6
			c0,1.4-0.4,2.1-1.1,2.1c-0.5,0-0.8-0.3-0.8-1v-3c0-3.9,0.3-5.8,1-5.8l0.3-0.1l0.6,0.1C564.1,600.6,564.7,600.4,565.3,600.4z"/>
		<path class="st0" d="M574.4,597c0.9,0,1.6,1,2,3v0.1c0,0.5-0.3,0.7-0.9,0.8c-0.5,0-0.8-0.6-1-1.9l-0.1-0.1h-0.4
			c-0.4,0.6-0.7,1.5-0.7,2.5l0.1,1.5c0.8,0,1.7-0.2,2.6-0.6c0.4,0,0.7,0.3,1,0.8c0,0.8-1.1,1.4-3.4,1.6l0.8,4.9c0,0.4-0.4,0.7-1,0.8
			c-0.6,0-0.9-1-0.9-2.9l-0.6-2.6l-2,0.3c-0.4,0-0.7-0.3-0.8-0.9c0-0.6,0.8-1,2.4-1.1l-0.1-1.9C571.7,598.5,572.7,597,574.4,597z"/>
		<path class="st0" d="M578.1,594.9c0.8,0.2,1.1,0.5,1.1,1c-0.2,0.6-0.5,0.8-1,0.8c-0.7-0.1-1.1-0.5-1.1-1.1
			C577.4,595.1,577.7,594.9,578.1,594.9z M579.3,599.1c0.3,0,0.6,0.3,0.8,0.9l-0.3,2.1v1.4c0,1.6,0.3,3.8,0.8,6.5
			c-0.2,0.4-0.5,0.6-1,0.6c-0.8,0-1.4-2.4-1.6-7.2v-1C578,600.1,578.4,599.1,579.3,599.1z"/>
		<path class="st0" d="M586.2,598.7c1.3,0,2,0.9,2.2,2.6v0.3c0,1.9-1,3.7-3,5.3c1.2,1.1,3.2,1.7,6.1,1.7c0.4,0.1,0.7,0.5,0.7,0.9
			c0,0.5-0.4,0.8-1,0.8c-2,0-4-0.5-6.2-1.5v0.9c0,2.1-0.4,3.1-1.3,3.1c-0.6,0-0.9-1.2-0.9-3.6v-2.3l-0.1-0.8l0.2-1l-0.2-2.9v-0.1
			c0-0.5,0.3-0.9,0.8-1.1C584.2,599.4,585.1,598.7,586.2,598.7z M584.7,605.2c0.6,0,1.2-1,2-3.1v-1.3l-0.4-0.4H586
			C585.1,601,584.7,602.6,584.7,605.2z"/>
		<path class="st0" d="M593.6,600c0.1-0.5,0.5-0.8,1-0.8s0.8,0.5,1,1.5h0.1l1.4-0.3c0.6,0,1.3,0.6,1.9,1.8h0.1
			c0.9-1.4,1.8-2.1,2.7-2.1c2,0.4,2.9,1.6,2.9,3.8l0.1,1l-0.3,6.1v0.6c0,0.5-0.3,0.8-0.9,0.9c-0.6,0-0.9-0.7-0.9-2.2l0.4-5.4
			c0-2-0.5-3-1.4-3c-0.5,0-1.2,1.3-2,3.9c-0.4,3-0.7,4.5-0.9,4.5c-0.3,0-0.5,0.1-0.5,0.2c-0.6-0.1-0.9-0.4-0.9-1l0.4-3.6
			c-0.1-2.5-0.3-3.8-0.8-3.8h-0.1c-0.5,0.4-0.8,1.1-0.8,2.2v1.6l-0.1,4.6c-0.1,0.5-0.4,0.8-0.9,0.8c-0.4,0-0.7-0.3-0.8-1l-0.1-3.5
			l0.2-2.9C594.1,602.4,593.9,601.1,593.6,600z"/>
		<path class="st0" d="M612,598.9c0.9,0,1.3,0.3,1.3,1l-0.3,0.6l-0.2,5.5c0,2.5,0.5,4,1.5,4.6l0.1,0.5c-0.1,0.6-0.3,0.9-0.8,0.9
			h-0.2c-1.5-1-2.2-2.6-2.2-4.7H611c-0.8,2.2-1.8,3.4-2.9,3.4c-1.1-0.3-1.6-1.1-1.6-2.4c0-2.8,1.1-5.6,3.4-8.4
			C610.6,599.2,611.4,598.9,612,598.9z M608.4,607.1l-0.1,0.8v0.6h0.3c1.5-3.7,2.2-6,2.2-6.8h-0.1
			C609.5,602.9,608.8,604.7,608.4,607.1z"/>
		<path class="st0" d="M618.7,592.3c0.6,0.1,0.8,0.4,0.8,0.8l-0.2,1.3v0.4c0,0.9,0.1,1.8,0.3,2.8h0.1c2.3-0.7,3.8-1,4.3-1
			c0.6,0.2,0.9,0.4,0.9,0.9c0,0.7-0.7,1-2.1,1l-3.1,1.1c0,2.7,0.3,6.4,0.9,11c-0.1,0.5-0.4,0.8-0.9,0.8h-0.1c-0.7,0-1-0.9-1-2.7
			c-0.3-1.3-0.5-4.2-0.7-8.7h-0.5c-1.9-0.1-2.8-0.6-2.8-1.3c0-0.2,0.2-0.5,0.6-0.8h0.3l1.4,0.4h1l-0.3-3.8
			C617.6,593,618,592.3,618.7,592.3z"/>
		<path class="st0" d="M626.2,594.9c0.8,0.2,1.1,0.5,1.1,1c-0.2,0.6-0.5,0.8-1,0.8c-0.7-0.1-1.1-0.5-1.1-1.1
			C625.4,595.1,625.8,594.9,626.2,594.9z M627.3,599.1c0.3,0,0.6,0.3,0.8,0.9l-0.3,2.1v1.4c0,1.6,0.3,3.8,0.8,6.5
			c-0.2,0.4-0.5,0.6-1,0.6c-0.8,0-1.4-2.4-1.6-7.2v-1C626.1,600.1,626.5,599.1,627.3,599.1z"/>
		<path class="st0" d="M635,599.2c1.5,0,2.6,1.1,3.4,3.3l0.1,0.6c0,2.1-1,4.3-3,6.6c-0.8,0.7-1.6,1.1-2.4,1.1
			c-1.2,0-2.1-0.7-2.5-2.1c-0.2-0.6-0.3-1.2-0.3-1.7v-0.4c0-3.2,1.1-5.6,3.4-7.2C634.1,599.3,634.5,599.2,635,599.2z M632,607
			c0,1.4,0.3,2,1,2c1.5,0,2.7-1.9,3.6-5.6v-0.6c-0.3-1.2-1-1.9-1.9-1.9c-0.4,0-0.5,0.2-0.5,0.8c0,0.3-0.4,0.6-1.2,0.8
			C632.4,603.7,632,605.2,632,607z"/>
		<path class="st0" d="M643.7,600.4c1.7,0.1,2.5,1,2.5,2.5l0.1,0.4l-0.1,4.7c0,0.5,0.3,1.3,0.9,2.2v0.1c-0.2,0.6-0.5,0.9-0.9,0.9
			c-1.2-0.5-1.9-1.6-1.9-3.3v-0.4l-0.1-0.1l0.1-0.1v-0.1l0.1-4.1c0-0.6-0.3-0.9-0.8-0.9h-0.4c-1,0.4-1.5,2.6-1.5,6.6
			c0,1.4-0.4,2.1-1.1,2.1c-0.5,0-0.8-0.3-0.8-1v-3c0-3.9,0.3-5.8,1-5.8l0.3-0.1l0.6,0.1C642.5,600.6,643.1,600.4,643.7,600.4z"/>
	</g>
	<g>
		<path d="M49.5,579v-6.2h1.6v14h-1.6v-6.3h-7.4v6.3h-1.6v-14h1.6v6.2H49.5z"/>
		<path d="M54.3,573.3h1.8v1.8h-1.8V573.3z M54.5,577.2H56v9.6h-1.5V577.2z"/>
		<path d="M67.1,577.2v9.4c0,2.9-1.5,4.3-4.3,4.3c-2.5,0-3.8-1-4.2-3h1.5c0.3,1.2,1.1,1.6,2.7,1.6c1.9,0,2.8-0.9,2.8-2.8v-1.6
			c-0.6,0.9-1.5,1.4-2.9,1.4c-2.8,0-4.2-1.8-4.2-4.7c0-2.9,1.3-4.7,4.2-4.7c1.4,0,2.4,0.6,3,1.5v-1.2H67.1z M65.6,581.7
			c0-2.1-0.8-3.3-2.8-3.3c-1.9,0-2.8,1.2-2.8,3.3c0,2.1,0.8,3.4,2.8,3.4C64.8,585.1,65.6,583.9,65.6,581.7z"/>
		<path d="M70.2,572.8h1.5v5.4c0.5-0.7,1.2-1.2,2.6-1.2c2.2,0,3.5,1.1,3.5,3.7v6.1h-1.5v-5.9c0-1.9-0.9-2.5-2.3-2.5
			c-1.5,0-2.3,0.6-2.3,2.5v5.9h-1.5V572.8z"/>
		<path d="M9.3,606.5H2.5c0.1,2.1,1,3.3,2.7,3.3c1.2,0,2-0.4,2.4-1.4h1.6c-0.5,1.8-1.8,2.7-3.9,2.7c-2.9,0-4.2-1.9-4.2-5
			c0-3,1.3-5,4.2-5c2.9,0,4.2,1.8,4.2,4.8C9.4,606.1,9.4,606.2,9.3,606.5z M7.8,605.2c-0.1-2-1-2.9-2.6-2.9c-1.6,0-2.5,1-2.7,2.9
			H7.8z"/>
		<path d="M13.8,608.3l-1.7,2.5h-1.7l3.2-4.9l-3.2-4.7h1.7l1.7,2.4c0.3,0.4,0.6,1,0.8,1.5h0c0.2-0.5,0.5-1,0.8-1.5l1.7-2.4h1.7
			l-3.3,4.7l3.3,4.9h-1.7l-1.6-2.5c-0.3-0.4-0.6-1-0.8-1.5h0C14.4,607.3,14.1,607.9,13.8,608.3z"/>
		<path d="M29.5,606c0,3.1-1.4,5-4.2,5c-1.3,0-2.3-0.5-2.9-1.4v5.1h-1.5v-13.6h1.4v1.3c0.6-1,1.6-1.5,3-1.5
			C28.2,601,29.5,602.9,29.5,606z M28,606c0-2.3-0.9-3.6-2.8-3.6c-1.9,0-2.8,1.3-2.8,3.6s0.9,3.7,2.8,3.7C27,609.7,28,608.4,28,606z
			"/>
		<path d="M39.8,606.5H33c0.1,2.1,1,3.3,2.7,3.3c1.2,0,2-0.4,2.4-1.4h1.6c-0.5,1.8-1.8,2.7-3.9,2.7c-2.9,0-4.2-1.9-4.2-5
			c0-3,1.3-5,4.2-5c2.9,0,4.2,1.8,4.2,4.8C39.9,606.1,39.9,606.2,39.8,606.5z M38.3,605.2c-0.1-2-1-2.9-2.6-2.9
			c-1.6,0-2.5,1-2.7,2.9H38.3z"/>
		<path d="M46.1,601c2.3,0,3.6,1.1,4,3h-1.5c-0.3-1.1-1.1-1.6-2.4-1.6c-1.9,0-2.7,1.3-2.7,3.6s0.9,3.7,2.7,3.7
			c1.3,0,2.1-0.5,2.4-1.6H50c-0.4,1.9-1.7,3-4,3c-2.8,0-4.3-1.9-4.3-5S43.2,601,46.1,601z"/>
		<path d="M57.4,601.2v1.3h-2.8v5.1c0,1.6,0.8,1.9,1.9,1.9c0.3,0,0.6,0,0.9-0.1v1.4c-0.3,0.1-0.8,0.1-1.2,0.1c-2,0-3.2-0.9-3.2-3.3
			v-5.1h-1.8v-1.3H53v-2.8h1.5v2.8H57.4z"/>
		<path d="M67.1,606.5h-6.9c0.1,2.1,1,3.3,2.7,3.3c1.2,0,2-0.4,2.4-1.4H67c-0.5,1.8-1.8,2.7-3.9,2.7c-2.9,0-4.2-1.9-4.2-5
			c0-3,1.3-5,4.2-5c2.9,0,4.2,1.8,4.2,4.8C67.2,606.1,67.2,606.2,67.1,606.5z M65.6,605.2c-0.1-2-1-2.9-2.6-2.9
			c-1.6,0-2.5,1-2.7,2.9H65.6z"/>
		<path d="M77.8,596.8v14h-1.5v-1.3c-0.6,1-1.6,1.5-3,1.5c-2.8,0-4.2-1.9-4.2-5s1.4-5,4.2-5c1.4,0,2.4,0.5,3,1.4v-5.6H77.8z
			 M76.3,606c0-2.3-0.9-3.6-2.8-3.6c-1.9,0-2.8,1.3-2.8,3.6s0.9,3.7,2.8,3.7C75.4,609.7,76.3,608.4,76.3,606z"/>
		<path d="M31.1,625.2v1.2c0.4-0.8,1.2-1.5,2.7-1.5c0.1,0,0.3,0,0.4,0v1.5c-0.3,0-0.5,0-0.7,0c-1.3,0-2.3,0.9-2.3,2.3v6.1h-1.5v-9.6
			H31.1z"/>
		<path d="M43.7,630.5h-6.9c0.1,2.1,1,3.3,2.7,3.3c1.2,0,2-0.4,2.4-1.4h1.6c-0.5,1.8-1.8,2.7-3.9,2.7c-2.9,0-4.2-1.9-4.2-5
			c0-3,1.3-5,4.2-5c2.9,0,4.2,1.8,4.2,4.8C43.7,630.1,43.7,630.2,43.7,630.5z M42.2,629.2c-0.1-2-1-2.9-2.6-2.9
			c-1.6,0-2.5,1-2.7,2.9H42.2z"/>
		<path d="M51.1,625.2v1.3h-2.8v5.1c0,1.6,0.8,1.9,1.9,1.9c0.3,0,0.6,0,0.9-0.1v1.4c-0.3,0.1-0.8,0.1-1.2,0.1c-2,0-3.2-0.9-3.2-3.3
			v-5.1h-1.8v-1.3h1.8v-2.8h1.5v2.8H51.1z"/>
		<path d="M53.1,631.3v-6.1h1.5v5.9c0,1.9,0.9,2.6,2.3,2.6s2.3-0.6,2.3-2.6v-5.9h1.5v9.6h-1.4v-1.1c-0.4,0.7-1.2,1.3-2.7,1.3
			C54.4,635.1,53.1,634,53.1,631.3z"/>
		<path d="M65.1,625.2v1.2c0.4-0.8,1.2-1.5,2.7-1.5c0.1,0,0.3,0,0.4,0v1.5c-0.3,0-0.5,0-0.7,0c-1.3,0-2.3,0.9-2.3,2.3v6.1h-1.5v-9.6
			H65.1z"/>
		<path d="M70.2,625.2h1.4v1.1c0.4-0.7,1.2-1.3,2.8-1.3c2.1,0,3.5,1.1,3.5,3.7v6.1h-1.5v-5.9c0-1.9-0.9-2.5-2.3-2.5
			c-1.5,0-2.3,0.6-2.3,2.5v5.9h-1.5V625.2z"/>
	</g>
	<g>
		<path d="M47.4,959v12.5h6.4v1.5h-8v-14H47.4z"/>
		<path d="M55.1,968.2c0-3.1,1.4-5,4.4-5c3,0,4.4,1.9,4.4,5s-1.4,5-4.4,5C56.5,973.2,55.1,971.3,55.1,968.2z M56.6,968.2
			c0,2.3,0.9,3.7,2.8,3.7c1.9,0,2.8-1.4,2.8-3.7c0-2.3-0.9-3.6-2.8-3.6C57.5,964.6,56.6,965.9,56.6,968.2z"/>
		<path d="M71.4,967.4l-1.7,5.6H68l-2.8-9.6h1.6l1.4,5.5c0.2,0.8,0.4,1.8,0.5,2.7h0c0.2-0.8,0.4-1.9,0.6-2.7l1.7-5.5h1.7l1.7,5.5
			c0.2,0.8,0.5,1.8,0.6,2.7h0c0.1-0.8,0.3-1.9,0.5-2.7l1.5-5.5h1.6L76,973h-1.7l-1.7-5.6c-0.2-0.7-0.5-1.7-0.6-2.5h0
			C71.8,965.7,71.6,966.7,71.4,967.4z"/>
		<path d="M9.3,992.6H2.5c0.1,2.1,1,3.3,2.7,3.3c1.2,0,2-0.4,2.4-1.4h1.6c-0.5,1.8-1.8,2.7-3.9,2.7c-2.9,0-4.2-1.9-4.2-5
			c0-3,1.3-5,4.2-5c2.9,0,4.2,1.8,4.2,4.8C9.4,992.2,9.4,992.4,9.3,992.6z M7.8,991.4c-0.1-2-1-2.9-2.6-2.9c-1.6,0-2.5,1-2.7,2.9
			H7.8z"/>
		<path d="M13.8,994.5l-1.7,2.5h-1.7l3.2-4.9l-3.2-4.7h1.7l1.7,2.4c0.3,0.4,0.6,1,0.8,1.5h0c0.2-0.5,0.5-1,0.8-1.5l1.7-2.4h1.7
			l-3.3,4.7l3.3,4.9h-1.7l-1.6-2.5c-0.3-0.4-0.6-1-0.8-1.5h0C14.4,993.5,14.1,994,13.8,994.5z"/>
		<path d="M29.5,992.2c0,3.1-1.4,5-4.2,5c-1.3,0-2.3-0.5-2.9-1.4v5.1h-1.5v-13.6h1.4v1.3c0.6-1,1.6-1.5,3-1.5
			C28.2,987.2,29.5,989.1,29.5,992.2z M28,992.2c0-2.3-0.9-3.6-2.8-3.6c-1.9,0-2.8,1.3-2.8,3.6s0.9,3.7,2.8,3.7
			C27,995.9,28,994.5,28,992.2z"/>
		<path d="M39.8,992.6H33c0.1,2.1,1,3.3,2.7,3.3c1.2,0,2-0.4,2.4-1.4h1.6c-0.5,1.8-1.8,2.7-3.9,2.7c-2.9,0-4.2-1.9-4.2-5
			c0-3,1.3-5,4.2-5c2.9,0,4.2,1.8,4.2,4.8C39.9,992.2,39.9,992.4,39.8,992.6z M38.3,991.4c-0.1-2-1-2.9-2.6-2.9
			c-1.6,0-2.5,1-2.7,2.9H38.3z"/>
		<path d="M46.1,987.2c2.3,0,3.6,1.1,4,3h-1.5c-0.3-1.1-1.1-1.6-2.4-1.6c-1.9,0-2.7,1.3-2.7,3.6s0.9,3.7,2.7,3.7
			c1.3,0,2.1-0.5,2.4-1.6H50c-0.4,1.9-1.7,3-4,3c-2.8,0-4.3-1.9-4.3-5S43.2,987.2,46.1,987.2z"/>
		<path d="M57.4,987.4v1.3h-2.8v5.1c0,1.6,0.8,1.9,1.9,1.9c0.3,0,0.6,0,0.9-0.1v1.4c-0.3,0.1-0.8,0.1-1.2,0.1c-2,0-3.2-0.9-3.2-3.3
			v-5.1h-1.8v-1.3H53v-2.8h1.5v2.8H57.4z"/>
		<path d="M67.1,992.6h-6.9c0.1,2.1,1,3.3,2.7,3.3c1.2,0,2-0.4,2.4-1.4H67c-0.5,1.8-1.8,2.7-3.9,2.7c-2.9,0-4.2-1.9-4.2-5
			c0-3,1.3-5,4.2-5c2.9,0,4.2,1.8,4.2,4.8C67.2,992.2,67.2,992.4,67.1,992.6z M65.6,991.4c-0.1-2-1-2.9-2.6-2.9
			c-1.6,0-2.5,1-2.7,2.9H65.6z"/>
		<path d="M77.8,983v14h-1.5v-1.3c-0.6,1-1.6,1.5-3,1.5c-2.8,0-4.2-1.9-4.2-5s1.4-5,4.2-5c1.4,0,2.4,0.5,3,1.4V983H77.8z
			 M76.3,992.2c0-2.3-0.9-3.6-2.8-3.6c-1.9,0-2.8,1.3-2.8,3.6s0.9,3.7,2.8,3.7C75.4,995.9,76.3,994.5,76.3,992.2z"/>
		<path d="M31.1,1011.4v1.2c0.4-0.8,1.2-1.5,2.7-1.5c0.1,0,0.3,0,0.4,0v1.5c-0.3,0-0.5,0-0.7,0c-1.3,0-2.3,0.9-2.3,2.3v6.1h-1.5
			v-9.6H31.1z"/>
		<path d="M43.7,1016.6h-6.9c0.1,2.1,1,3.3,2.7,3.3c1.2,0,2-0.4,2.4-1.4h1.6c-0.5,1.8-1.8,2.7-3.9,2.7c-2.9,0-4.2-1.9-4.2-5
			c0-3,1.3-5,4.2-5c2.9,0,4.2,1.8,4.2,4.8C43.7,1016.2,43.7,1016.4,43.7,1016.6z M42.2,1015.4c-0.1-2-1-2.9-2.6-2.9
			c-1.6,0-2.5,1-2.7,2.9H42.2z"/>
		<path d="M51.1,1011.4v1.3h-2.8v5.1c0,1.6,0.8,1.9,1.9,1.9c0.3,0,0.6,0,0.9-0.1v1.4c-0.3,0.1-0.8,0.1-1.2,0.1c-2,0-3.2-0.9-3.2-3.3
			v-5.1h-1.8v-1.3h1.8v-2.8h1.5v2.8H51.1z"/>
		<path d="M53.1,1017.5v-6.1h1.5v5.9c0,1.9,0.9,2.6,2.3,2.6s2.3-0.6,2.3-2.6v-5.9h1.5v9.6h-1.4v-1.1c-0.4,0.7-1.2,1.3-2.7,1.3
			C54.4,1021.2,53.1,1020.2,53.1,1017.5z"/>
		<path d="M65.1,1011.4v1.2c0.4-0.8,1.2-1.5,2.7-1.5c0.1,0,0.3,0,0.4,0v1.5c-0.3,0-0.5,0-0.7,0c-1.3,0-2.3,0.9-2.3,2.3v6.1h-1.5
			v-9.6H65.1z"/>
		<path d="M70.2,1011.4h1.4v1.1c0.4-0.7,1.2-1.3,2.8-1.3c2.1,0,3.5,1.1,3.5,3.7v6.1h-1.5v-5.9c0-1.9-0.9-2.5-2.3-2.5
			c-1.5,0-2.3,0.6-2.3,2.5v5.9h-1.5V1011.4z"/>
	</g>
	<g>
		<path d="M140,1076.6v-6.2h1.6v14H140v-6.3h-7.4v6.3H131v-14h1.6v6.2H140z"/>
		<path d="M144.8,1070.9h1.8v1.8h-1.8V1070.9z M145,1074.8h1.5v9.6H145V1074.8z"/>
		<path d="M157.6,1074.8v9.4c0,2.9-1.5,4.3-4.3,4.3c-2.5,0-3.8-1-4.2-3h1.5c0.3,1.2,1.1,1.6,2.7,1.6c1.9,0,2.8-0.9,2.8-2.8v-1.6
			c-0.6,0.9-1.5,1.4-2.9,1.4c-2.8,0-4.2-1.8-4.2-4.7c0-2.9,1.3-4.7,4.2-4.7c1.4,0,2.4,0.6,3,1.5v-1.2H157.6z M156.1,1079.3
			c0-2.1-0.8-3.3-2.8-3.3c-1.9,0-2.8,1.2-2.8,3.3c0,2.1,0.8,3.4,2.8,3.4C155.3,1082.7,156.1,1081.5,156.1,1079.3z"/>
		<path d="M160.7,1070.4h1.5v5.4c0.5-0.7,1.2-1.2,2.6-1.2c2.2,0,3.5,1.1,3.5,3.7v6.1h-1.5v-5.9c0-1.9-0.9-2.5-2.3-2.5
			c-1.5,0-2.3,0.6-2.3,2.5v5.9h-1.5V1070.4z"/>
		<path d="M175.9,1070.9h1.8v1.8h-1.8V1070.9z M176.1,1074.8h1.5v9.6h-1.5V1074.8z"/>
		<path d="M180.7,1074.8h1.4v1.1c0.4-0.7,1.2-1.3,2.8-1.3c2.1,0,3.5,1.1,3.5,3.7v6.1h-1.5v-5.9c0-1.9-0.9-2.5-2.3-2.5
			c-1.5,0-2.3,0.6-2.3,2.5v5.9h-1.5V1074.8z"/>
		<path d="M191.3,1074.8h1.4v1.1c0.4-0.7,1.2-1.3,2.8-1.3c2.1,0,3.5,1.1,3.5,3.7v6.1h-1.5v-5.9c0-1.9-0.9-2.5-2.3-2.5
			c-1.5,0-2.3,0.6-2.3,2.5v5.9h-1.5V1074.8z"/>
		<path d="M201.4,1079.6c0-3.1,1.4-5,4.4-5c3,0,4.4,1.9,4.4,5s-1.4,5-4.4,5C202.8,1084.7,201.4,1082.7,201.4,1079.6z M203,1079.6
			c0,2.3,0.9,3.7,2.8,3.7c1.9,0,2.8-1.4,2.8-3.7c0-2.3-0.9-3.6-2.8-3.6C203.9,1076,203,1077.3,203,1079.6z"/>
		<path d="M216.6,1080.4l2-5.6h1.6l-3.6,9.6H215l-3.6-9.6h1.6l2,5.6c0.3,0.8,0.6,1.8,0.7,2.6h0
			C216,1082.2,216.3,1081.2,216.6,1080.4z"/>
		<path d="M225.3,1074.6c2.5,0,3.6,1.1,3.6,2.9v6.9h-1.4v-1.3c-0.7,1-1.8,1.5-3.1,1.5c-2.1,0-3-1.2-3-2.8c0-1.6,0.9-2.6,2.9-2.9
			l2.2-0.4c0.8-0.1,1-0.4,1-1.1c0-0.9-0.6-1.5-2.1-1.5c-1.4,0-1.9,0.5-2,1.3h-1.5C221.9,1075.7,223,1074.6,225.3,1074.6z
			 M226.4,1079.7l-1.8,0.3c-1.1,0.2-1.7,0.8-1.7,1.6c0,1,0.6,1.6,1.9,1.6c1.5,0,2.7-0.8,2.7-2.5v-1.3
			C227.2,1079.6,226.8,1079.7,226.4,1079.7z"/>
		<path d="M236.8,1074.8v1.3H234v5.1c0,1.6,0.8,1.9,1.9,1.9c0.3,0,0.6,0,0.9-0.1v1.4c-0.3,0.1-0.8,0.1-1.2,0.1c-2,0-3.2-0.9-3.2-3.3
			v-5.1h-1.8v-1.3h1.8v-2.8h1.5v2.8H236.8z"/>
		<path d="M238.8,1070.9h1.8v1.8h-1.8V1070.9z M239,1074.8h1.5v9.6H239V1074.8z"/>
		<path d="M243,1079.6c0-3.1,1.4-5,4.4-5c3,0,4.4,1.9,4.4,5s-1.4,5-4.4,5C244.5,1084.7,243,1082.7,243,1079.6z M244.6,1079.6
			c0,2.3,0.9,3.7,2.8,3.7c1.9,0,2.8-1.4,2.8-3.7c0-2.3-0.9-3.6-2.8-3.6C245.5,1076,244.6,1077.3,244.6,1079.6z"/>
		<path d="M254.3,1074.8h1.4v1.1c0.4-0.7,1.2-1.3,2.8-1.3c2.1,0,3.5,1.1,3.5,3.7v6.1h-1.5v-5.9c0-1.9-0.9-2.5-2.3-2.5
			c-1.5,0-2.3,0.6-2.3,2.5v5.9h-1.5V1074.8z"/>
		<path d="M271.1,1074.8v1.2c0.4-0.8,1.2-1.5,2.7-1.5c0.1,0,0.3,0,0.4,0v1.5c-0.3,0-0.5,0-0.7,0c-1.3,0-2.3,0.9-2.3,2.3v6.1h-1.5
			v-9.6H271.1z"/>
		<path d="M276,1070.9h1.8v1.8H276V1070.9z M276.2,1074.8h1.5v9.6h-1.5V1074.8z"/>
		<path d="M287.4,1077.2h-1.5c-0.2-0.9-0.8-1.3-2-1.3c-1.2,0-1.9,0.5-1.9,1.4c0,0.7,0.4,1.2,1.4,1.4l1.4,0.2c2,0.3,2.8,1.2,2.8,2.8
			c0,2-1.5,3-3.8,3c-2.5,0-3.5-1.1-3.8-2.7h1.5c0.2,0.9,0.7,1.4,2.3,1.4c1.6,0,2.2-0.7,2.2-1.6c0-0.8-0.4-1.3-1.6-1.5l-1.4-0.2
			c-1.7-0.3-2.6-1.2-2.6-2.7c0-1.7,1.2-2.8,3.4-2.8C286,1074.6,287.2,1075.5,287.4,1077.2z"/>
		<path d="M292.5,1080.8l-0.9,1v2.7H290v-14h1.5v7.3c0,0.7,0,1.5,0,2.1h0c0.4-0.5,0.8-1,1.2-1.5l3.2-3.5h2l-3.7,4l3.7,5.6H296
			l-2.3-3.5c-0.2-0.3-0.4-0.6-0.6-1h0C292.9,1080.3,292.7,1080.6,292.5,1080.8z"/>
	</g>
	<g>
		<path d="M642.4,1070.4v12.5h6.4v1.5h-8v-14H642.4z"/>
		<path d="M650,1079.6c0-3.1,1.4-5,4.4-5c3,0,4.4,1.9,4.4,5s-1.4,5-4.4,5C651.5,1084.7,650,1082.7,650,1079.6z M651.6,1079.6
			c0,2.3,0.9,3.7,2.8,3.7c1.9,0,2.8-1.4,2.8-3.7c0-2.3-0.9-3.6-2.8-3.6C652.5,1076,651.6,1077.3,651.6,1079.6z"/>
		<path d="M666.3,1078.8l-1.7,5.6h-1.6l-2.8-9.6h1.6l1.4,5.5c0.2,0.8,0.4,1.8,0.5,2.7h0c0.2-0.8,0.4-1.9,0.6-2.7l1.7-5.5h1.7
			l1.7,5.5c0.2,0.8,0.5,1.8,0.6,2.7h0c0.1-0.8,0.3-1.9,0.5-2.7l1.5-5.5h1.6l-2.8,9.6h-1.7l-1.7-5.6c-0.2-0.7-0.5-1.7-0.6-2.5h0
			C666.8,1077.1,666.5,1078.1,666.3,1078.8z"/>
		<path d="M680.4,1070.9h1.8v1.8h-1.8V1070.9z M680.6,1074.8h1.5v9.6h-1.5V1074.8z"/>
		<path d="M685.2,1074.8h1.4v1.1c0.4-0.7,1.2-1.3,2.8-1.3c2.1,0,3.5,1.1,3.5,3.7v6.1h-1.5v-5.9c0-1.9-0.9-2.5-2.3-2.5
			c-1.5,0-2.3,0.6-2.3,2.5v5.9h-1.5V1074.8z"/>
		<path d="M695.8,1074.8h1.4v1.1c0.4-0.7,1.2-1.3,2.8-1.3c2.1,0,3.5,1.1,3.5,3.7v6.1H702v-5.9c0-1.9-0.9-2.5-2.3-2.5
			c-1.5,0-2.3,0.6-2.3,2.5v5.9h-1.5V1074.8z"/>
		<path d="M705.9,1079.6c0-3.1,1.4-5,4.4-5c3,0,4.4,1.9,4.4,5s-1.4,5-4.4,5C707.3,1084.7,705.9,1082.7,705.9,1079.6z M707.4,1079.6
			c0,2.3,0.9,3.7,2.8,3.7c1.9,0,2.8-1.4,2.8-3.7c0-2.3-0.9-3.6-2.8-3.6C708.3,1076,707.4,1077.3,707.4,1079.6z"/>
		<path d="M721,1080.4l2-5.6h1.6l-3.6,9.6h-1.6l-3.6-9.6h1.6l2,5.6c0.3,0.8,0.6,1.8,0.7,2.6h0C720.5,1082.2,720.8,1081.2,721,1080.4
			z"/>
		<path d="M729.8,1074.6c2.5,0,3.6,1.1,3.6,2.9v6.9h-1.4v-1.3c-0.7,1-1.8,1.5-3.1,1.5c-2.1,0-3-1.2-3-2.8c0-1.6,0.9-2.6,2.9-2.9
			l2.2-0.4c0.8-0.1,1-0.4,1-1.1c0-0.9-0.6-1.5-2.1-1.5c-1.4,0-1.9,0.5-2,1.3h-1.5C726.4,1075.7,727.4,1074.6,729.8,1074.6z
			 M730.8,1079.7l-1.8,0.3c-1.1,0.2-1.7,0.8-1.7,1.6c0,1,0.6,1.6,1.9,1.6c1.5,0,2.7-0.8,2.7-2.5v-1.3
			C731.6,1079.6,731.2,1079.7,730.8,1079.7z"/>
		<path d="M741.3,1074.8v1.3h-2.8v5.1c0,1.6,0.8,1.9,1.9,1.9c0.3,0,0.6,0,0.9-0.1v1.4c-0.3,0.1-0.8,0.1-1.2,0.1
			c-2,0-3.2-0.9-3.2-3.3v-5.1h-1.8v-1.3h1.8v-2.8h1.5v2.8H741.3z"/>
		<path d="M743.3,1070.9h1.8v1.8h-1.8V1070.9z M743.4,1074.8h1.5v9.6h-1.5V1074.8z"/>
		<path d="M747.5,1079.6c0-3.1,1.4-5,4.4-5c3,0,4.4,1.9,4.4,5s-1.4,5-4.4,5C748.9,1084.7,747.5,1082.7,747.5,1079.6z M749,1079.6
			c0,2.3,0.9,3.7,2.8,3.7c1.9,0,2.8-1.4,2.8-3.7c0-2.3-0.9-3.6-2.8-3.6C749.9,1076,749,1077.3,749,1079.6z"/>
		<path d="M758.7,1074.8h1.4v1.1c0.4-0.7,1.2-1.3,2.8-1.3c2.1,0,3.5,1.1,3.5,3.7v6.1h-1.5v-5.9c0-1.9-0.9-2.5-2.3-2.5
			c-1.5,0-2.3,0.6-2.3,2.5v5.9h-1.5V1074.8z"/>
		<path d="M775.6,1074.8v1.2c0.4-0.8,1.2-1.5,2.7-1.5c0.1,0,0.3,0,0.4,0v1.5c-0.3,0-0.5,0-0.7,0c-1.3,0-2.3,0.9-2.3,2.3v6.1h-1.5
			v-9.6H775.6z"/>
		<path d="M780.5,1070.9h1.8v1.8h-1.8V1070.9z M780.7,1074.8h1.5v9.6h-1.5V1074.8z"/>
		<path d="M791.9,1077.2h-1.5c-0.2-0.9-0.8-1.3-2-1.3c-1.2,0-1.9,0.5-1.9,1.4c0,0.7,0.4,1.2,1.4,1.4l1.4,0.2c2,0.3,2.8,1.2,2.8,2.8
			c0,2-1.5,3-3.8,3c-2.5,0-3.5-1.1-3.8-2.7h1.5c0.2,0.9,0.7,1.4,2.3,1.4c1.6,0,2.2-0.7,2.2-1.6c0-0.8-0.4-1.3-1.6-1.5l-1.4-0.2
			c-1.7-0.3-2.6-1.2-2.6-2.7c0-1.7,1.2-2.8,3.4-2.8C790.4,1074.6,791.6,1075.5,791.9,1077.2z"/>
		<path d="M796.9,1080.8l-0.9,1v2.7h-1.5v-14h1.5v7.3c0,0.7,0,1.5,0,2.1h0c0.4-0.5,0.8-1,1.2-1.5l3.2-3.5h2l-3.7,4l3.7,5.6h-1.9
			l-2.3-3.5c-0.2-0.3-0.4-0.6-0.6-1h0C797.4,1080.3,797.1,1080.6,796.9,1080.8z"/>
	</g>
	<g>
		<path d="M421.6,1072.6v-2.1h9.8v2.1h-3.7v11.9h-2.4v-11.9H421.6z"/>
		<path d="M442.5,1082.3v2.1h-8.9v-14h8.9v2.1h-6.5v3.7h6.1v2.1h-6.1v3.8H442.5z"/>
		<path d="M452.2,1073.9c-0.2-1.1-0.9-1.6-2.4-1.6c-1.7,0-2.4,0.8-2.4,1.9c0,1,0.4,1.5,1.8,1.7l1.8,0.3c2.6,0.4,3.9,1.7,3.9,4.2
			c0,2.8-1.9,4.3-5.3,4.3c-3.5,0-5-1.6-5.2-4.2h2.5c0.2,1.4,1,2,2.7,2c2,0,2.9-0.7,2.9-2c0-1-0.5-1.8-2.2-2l-1.8-0.3
			c-2.3-0.4-3.5-1.6-3.5-4c0-2.3,1.6-4.1,4.9-4.1c3,0,4.6,1.2,4.9,3.7H452.2z"/>
		<path d="M456,1072.6v-2.1h9.8v2.1h-3.7v11.9h-2.4v-11.9H456z"/>
	</g>
	<g>
		<path d="M67.3,822.6c4.3,0,7,1.9,7,6.1v5.2h-14v-5.2C60.3,824.5,63,822.6,67.3,822.6z M67.3,825.1c-3.3,0-4.9,1.3-4.9,3.7v2.8h9.7
			v-2.8C72.1,826.4,70.6,825.1,67.3,825.1z"/>
		<path d="M72.1,811.2h2.1v8.9h-14v-8.9h2.1v6.5h3.7v-6.1h2.1v6.1h3.8V811.2z"/>
		<path d="M63.7,801.6c-1.1,0.2-1.6,0.9-1.6,2.4c0,1.7,0.8,2.4,1.9,2.4c1,0,1.5-0.4,1.7-1.8l0.3-1.8c0.4-2.6,1.7-3.9,4.2-3.9
			c2.8,0,4.3,1.9,4.3,5.3c0,3.5-1.6,5-4.2,5.2V807c1.4-0.2,2-1,2-2.7c0-2-0.7-2.9-2-2.9c-1,0-1.8,0.5-2,2.2l-0.3,1.8
			c-0.4,2.3-1.6,3.5-4,3.5c-2.3,0-4.1-1.6-4.1-4.9c0-3,1.2-4.6,3.7-4.9V801.6z"/>
		<path d="M74.3,796.4h-14V794h14V796.4z"/>
		<path d="M62.2,785.2c0,2.6,1.9,3.8,5.1,3.8s5.1-1.2,5.1-4c0-1.5-0.5-2.5-1.2-3.2h-1.8v2.7h-2.1v-5.1h5c1.2,1.1,2.3,3.1,2.3,5.6
			c0,4.5-3,6.4-7.3,6.4c-4.3,0-7.3-1.9-7.3-6.3c0-3.5,1.5-5.3,4.2-5.8v2.5C62.7,782.4,62.2,783.5,62.2,785.2z"/>
		<path d="M60.3,767.9v-2.4h14v2.3l-7.5,5.1c-1,0.6-2.1,1.3-3.1,1.7v0c1.1-0.2,2.1-0.2,3.2-0.2h7.4v2.4h-14v-2.3l7.5-5.1
			c1-0.7,2.1-1.3,3.1-1.7v0c-1.1,0.2-2.1,0.2-3.2,0.2H60.3z"/>
	</g>
	<g>
		<path class="st0" d="M219,481.8c1.3,0,2,1,2.2,2.9v0.1c0,1-0.5,3.1-1.6,6.3l1.9-0.4c2.3,0,3.6,1.5,4,4.4v0.6
			c0,3.5-2.2,6.7-6.6,9.6c-1.4,0.6-2.5,0.8-3.1,0.8c-2.2,0-3.7-1.3-4.5-3.8c0.1-0.3,0.4-0.7,1-1.2c0.3-12.1,0.5-18.1,0.8-18.1
			c0.5-0.5,0.9-0.7,1.2-0.7c0.7,0.3,1.1,0.7,1.1,1.3h0.2C216.6,482.5,217.7,481.8,219,481.8z M216.6,497.2l-0.6,0.2l-1-0.1v0.1
			l-0.2,0.5v4.2l-0.1,1.5l0.9,0.2c2.3,0,4.5-1.7,6.7-5.1c0.6-1.5,0.9-2.8,0.9-3.8c0-1.2-0.6-1.8-1.8-1.8h-0.2
			C220,493.1,218.5,494.5,216.6,497.2z M215.1,494.7h0.2c2.2-4.1,3.3-7.3,3.5-9.6v-0.9h-0.4c-0.6,0-1.3,1.5-2.2,4.5
			C215.4,491.6,215.1,493.6,215.1,494.7z"/>
		<path class="st0" d="M228.7,494.2l0.7-0.4c0.6,0,1.1,0.4,1.4,1.2c-0.4,2-0.6,4-0.6,6.1c0,1,0.3,2.2,0.9,3.4h0.2
			c0.8,0,1.7-3.1,2.8-9.2c0.4-0.3,0.7-0.5,1.1-0.5c0.8,0,1.2,1.5,1.2,4.4c0.3,3.2,0.7,4.8,1.2,4.8l0.6-0.2c0.8,0.3,1.2,0.7,1.2,1.2
			c-0.5,1-1.1,1.5-2,1.5c-1,0-1.9-1-2.8-2.9c-1.1,2.2-2.1,3.4-3.2,3.4c-1.6,0-2.8-1.7-3.4-5.1l-0.1-1.3v-0.4
			C227.8,498.1,228.1,496.1,228.7,494.2z"/>
		<path class="st0" d="M248.2,490c0.7,0,1.2,1.2,1.5,3.6c-0.3,0.7-0.7,1-1.3,1c-0.4-0.1-0.9-0.6-1.3-1.5l-0.7-0.2
			c-1.3,0-2.4,0.8-3.4,2.5v0.4c0,0.4,1.9,1.1,5.6,2c1.6,0.9,2.4,2.1,2.4,3.4c0,2.2-1.8,4.1-5.3,5.6l-1.5,0.2
			c-2.2-0.2-3.4-1.4-3.4-3.4v-0.1c0-0.6,0.4-1,1.2-1.1c0.6,0,1.1,0.7,1.3,2l0.3,0.2h0.7c1.5,0,2.9-1,4.2-3.1V501
			c0-0.8-1.7-1.5-5.2-2.2c-1.8-0.7-2.8-1.8-2.8-3.1c0-1.7,1.5-3.4,4.4-4.9C246.2,490.6,247.3,490.3,248.2,490z"/>
		<path class="st0" d="M252.9,485.4c1,0.2,1.5,0.7,1.5,1.4c-0.3,0.7-0.7,1.1-1.3,1.1c-1-0.2-1.5-0.7-1.5-1.5
			C251.9,485.7,252.3,485.4,252.9,485.4z M254.4,491c0.4,0,0.8,0.4,1.1,1.2l-0.4,2.8v1.9c0,2.2,0.4,5.1,1.1,8.6
			c-0.3,0.5-0.7,0.8-1.4,0.8c-1.1,0-1.8-3.2-2.2-9.6v-1.4C252.7,492.4,253.3,491,254.4,491z"/>
		<path class="st0" d="M263.5,492.7c2.3,0.2,3.4,1.3,3.4,3.3l0.1,0.5l-0.1,6.2c0,0.7,0.4,1.7,1.2,2.9v0.1c-0.2,0.8-0.6,1.2-1.2,1.2
			c-1.7-0.7-2.5-2.2-2.5-4.4V502l-0.1-0.1l0.1-0.2v-0.1l0.1-5.5c0-0.8-0.3-1.2-1-1.2h-0.5c-1.3,0.5-2,3.5-2,8.8
			c0,1.8-0.5,2.8-1.4,2.8c-0.7,0-1.1-0.5-1.1-1.4v-4c0-5.2,0.5-7.8,1.4-7.8l0.4-0.1l0.8,0.1C261.9,493,262.7,492.7,263.5,492.7z"/>
		<path class="st0" d="M273,491.8c1.1,0,2.9,1.9,5.4,5.6l0.1,0.7c0,0.7-1.8,1.3-5.5,1.7l-0.1,0.1v0.2c0.6,2.4,1.1,3.6,1.8,3.6h0.5
			c0.9,0,2.1-0.9,3.9-2.8h0.2c0.5,0,0.9,0.4,1.2,1.2c0,0.6-1.1,1.7-3.4,3.3c-0.6,0.3-1.3,0.6-2.1,0.8c-2.2,0-3.7-2-4.5-6.1
			c-1.2-0.2-1.8-0.7-1.8-1.5c0-0.6,0.5-1,1.4-1.2v0.2l0.4-0.2v-1C270.4,493.4,271.3,491.8,273,491.8z M273.2,494.7h-0.4l-0.2,1.5
			v1.2h0.2c1.5-0.1,2.2-0.2,2.2-0.5C274.4,495.9,273.8,495.2,273.2,494.7z"/>
		<path class="st0" d="M290,490c0.7,0,1.2,1.2,1.5,3.6c-0.3,0.7-0.7,1-1.3,1c-0.4-0.1-0.9-0.6-1.3-1.5l-0.7-0.2
			c-1.3,0-2.4,0.8-3.4,2.5v0.4c0,0.4,1.9,1.1,5.6,2c1.6,0.9,2.4,2.1,2.4,3.4c0,2.2-1.8,4.1-5.3,5.6L286,507
			c-2.2-0.2-3.4-1.4-3.4-3.4v-0.1c0-0.6,0.4-1,1.2-1.1c0.6,0,1.1,0.7,1.3,2l0.3,0.2h0.7c1.5,0,2.9-1,4.2-3.1V501
			c0-0.8-1.7-1.5-5.2-2.2c-1.8-0.7-2.8-1.8-2.8-3.1c0-1.7,1.5-3.4,4.4-4.9C288.1,490.6,289.1,490.3,290,490z"/>
		<path class="st0" d="M302.3,490c0.7,0,1.2,1.2,1.5,3.6c-0.3,0.7-0.7,1-1.3,1c-0.4-0.1-0.9-0.6-1.3-1.5l-0.7-0.2
			c-1.3,0-2.4,0.8-3.4,2.5v0.4c0,0.4,1.9,1.1,5.6,2c1.6,0.9,2.4,2.1,2.4,3.4c0,2.2-1.8,4.1-5.3,5.6l-1.5,0.2
			c-2.2-0.2-3.4-1.4-3.4-3.4v-0.1c0-0.6,0.4-1,1.2-1.1c0.6,0,1.1,0.7,1.3,2l0.3,0.2h0.7c1.5,0,2.9-1,4.2-3.1V501
			c0-0.8-1.7-1.5-5.2-2.2c-1.8-0.7-2.8-1.8-2.8-3.1c0-1.7,1.5-3.4,4.4-4.9C300.3,490.6,301.4,490.3,302.3,490z"/>
		<path class="st0" d="M333.1,477h0.1c0.7,0.3,1,0.7,1,1.2l-1,7.6c0,2.8,0.8,8.5,2.5,17.2l2,5c0,0.3-0.3,0.7-0.8,1.2h-0.8
			c-0.5-0.2-1.3-1.8-2.4-4.9c-0.7-2.5-1.4-6.4-2.1-11.6h-0.2c-1.5,4.6-2.6,7-3.3,7.1l-0.6,0.2c-0.6,0-1.3-1.1-2.1-3.3h-0.3
			c-0.3,6.6-0.9,9.9-1.9,9.9h-0.1c-0.9,0-1.3-0.7-1.4-2c0.7-2.6,1-5.2,1-8l-1.1-10.6v-0.8c0-1,0.4-1.5,1.1-1.5c1,0,2,2,2.8,6.1
			c1.2,3.7,1.9,5.7,2.2,6c0.6-1,1.2-2.7,1.8-5.1c0.5-1.3,0.9-3.2,1.4-5.9l-0.2-0.1l0.2-0.6v-0.2C331.1,479.3,331.9,477,333.1,477z"
			/>
		<path class="st0" d="M345.4,491.1c2,0,3.5,1.5,4.5,4.4l0.2,0.8c0,2.9-1.3,5.8-4,8.8c-1.1,1-2.1,1.5-3.2,1.5
			c-1.6,0-2.7-0.9-3.4-2.8c-0.2-0.9-0.4-1.6-0.4-2.2v-0.5c0-4.2,1.5-7.4,4.6-9.6C344.2,491.3,344.8,491.1,345.4,491.1z M341.4,501.5
			c0,1.8,0.5,2.7,1.4,2.7c1.9,0,3.6-2.5,4.8-7.5V496c-0.5-1.7-1.3-2.5-2.5-2.5c-0.5,0-0.7,0.3-0.7,1c0,0.5-0.5,0.8-1.6,1.1
			C341.9,497.2,341.4,499.1,341.4,501.5z"/>
		<path class="st0" d="M361.2,484.2c0.5,0,0.9,0.4,1.2,1.3l-1.8,11.1v3.1c0,3.3,0.5,4.9,1.5,4.9c0.7,0.3,1,0.7,1,1.3
			c0,0.6-0.5,1-1.6,1.1c-1.2,0-2.1-1.1-2.8-3.2h-0.4c-1,2.2-2.2,3.2-3.6,3.2c-1.7,0-2.7-1.3-3-3.8c0-2.9,1.9-6,5.8-9.2
			c0.8,0,1.2-1.1,1.2-3.2C359.5,486.4,360.2,484.2,361.2,484.2z M354.2,502.9v1.1l0.6,0.6h0.2c0.9,0,1.9-2.6,3-7.7h-0.2
			C355.4,499.3,354.2,501.3,354.2,502.9z"/>
		<path class="st0" d="M368.2,491.8c1.1,0,2.9,1.9,5.4,5.6l0.1,0.7c0,0.7-1.8,1.3-5.5,1.7l-0.1,0.1v0.2c0.6,2.4,1.1,3.6,1.8,3.6h0.5
			c0.9,0,2.1-0.9,3.9-2.8h0.2c0.5,0,0.9,0.4,1.2,1.2c0,0.6-1.1,1.7-3.4,3.3c-0.6,0.3-1.3,0.6-2.1,0.8c-2.2,0-3.7-2-4.5-6.1
			c-1.2-0.2-1.8-0.7-1.8-1.5c0-0.6,0.5-1,1.4-1.2v0.2l0.4-0.2v-1C365.6,493.4,366.5,491.8,368.2,491.8z M368.5,494.7h-0.4l-0.2,1.5
			v1.2h0.2c1.5-0.1,2.2-0.2,2.2-0.5C369.7,495.9,369,495.2,368.5,494.7z"/>
		<path class="st0" d="M379.5,484.2c0.7,0.3,1.1,0.7,1.1,1.2l0.4,15.2v4.9c0,0.9-0.4,1.4-1.2,1.4h-0.5c-0.5-0.3-0.7-0.7-0.7-1.1
			v-4.6l-0.4-15.8C378.3,484.7,378.7,484.3,379.5,484.2z"/>
		<path class="st0" d="M406.4,479.9h0.6c4.3,0,7.1,1.6,8.4,4.7l0.1,1.3v0.4c0,3.1-1.9,6-5.6,8.6c-0.9,0.3-1.4,0.6-1.4,0.9
			c1.1,4.1,1.6,7.4,1.6,10v0.5c0,1.1-0.4,1.6-1.3,1.6c-0.7-0.1-1-0.4-1-1v-1c0-3.1-0.6-6.4-1.7-10c-2.2-0.2-3.4-0.8-3.6-1.8v-0.2
			c0-0.5,0.4-0.9,1.1-1.1l1.8,0.6v-0.1c-0.9-3.9-1.4-6.6-1.4-8c0-0.8,0.5-1.2,1.4-1.2c0.8,0,1.2,1.4,1.2,4.2l1.2,4.8
			c1.9-0.6,3.4-1.9,4.5-3.8c0.6-1.1,0.8-2,0.8-2.8V486c0-2.2-1.9-3.4-5.6-3.7h-1.6c-3.7,0.4-5.5,1.3-5.5,2.6v0.2
			c0,0.4,0.2,1,0.6,1.9c0,0.6-0.5,1-1.4,1.1c-1.1-0.5-1.6-1.5-1.6-3.1C398,482.1,400.8,480.4,406.4,479.9z"/>
		<path class="st0" d="M423.6,491.1c2,0,3.5,1.5,4.5,4.4l0.2,0.8c0,2.9-1.3,5.8-4,8.8c-1.1,1-2.1,1.5-3.2,1.5
			c-1.6,0-2.7-0.9-3.4-2.8c-0.2-0.9-0.4-1.6-0.4-2.2v-0.5c0-4.2,1.5-7.4,4.6-9.6C422.4,491.3,422.9,491.1,423.6,491.1z M419.6,501.5
			c0,1.8,0.5,2.7,1.4,2.7c1.9,0,3.6-2.5,4.8-7.5V496c-0.5-1.7-1.3-2.5-2.5-2.5c-0.5,0-0.7,0.3-0.7,1c0,0.5-0.5,0.8-1.6,1.1
			C420,497.2,419.6,499.1,419.6,501.5z"/>
		<path class="st0" d="M435.3,490.4c1.7,0,2.7,1.2,3,3.5v0.4c0,2.6-1.3,5-4,7.1c1.5,1.5,4.3,2.3,8.1,2.3c0.6,0.2,0.9,0.6,0.9,1.2
			c0,0.7-0.5,1.1-1.4,1.1c-2.6,0-5.4-0.7-8.2-2v1.2c0,2.7-0.6,4.1-1.8,4.1c-0.8,0-1.2-1.6-1.2-4.8v-3.1l-0.1-1.1l0.3-1.3l-0.3-3.8
			V495c0-0.7,0.4-1.2,1.1-1.5C432.7,491.5,433.9,490.4,435.3,490.4z M433.3,499.2c0.8,0,1.6-1.4,2.6-4.2v-1.7l-0.5-0.5H435
			C433.8,493.6,433.3,495.7,433.3,499.2z"/>
		<path class="st0" d="M449.3,481.9c0.7,0.2,1.1,0.5,1.1,1.1l-0.2,1.8v0.5c0,1.2,0.1,2.4,0.4,3.7h0.1c3.1-0.9,5-1.4,5.8-1.4
			c0.8,0.2,1.2,0.6,1.2,1.2c0,0.9-0.9,1.4-2.8,1.4l-4.2,1.5c0,3.6,0.4,8.5,1.2,14.7c-0.2,0.7-0.5,1.1-1.2,1.1h-0.1
			c-0.9,0-1.4-1.2-1.4-3.6c-0.3-1.8-0.6-5.7-0.9-11.6h-0.7c-2.5-0.2-3.8-0.7-3.8-1.8c0-0.3,0.3-0.7,0.8-1.1h0.4l1.8,0.5h1.3l-0.4-5
			C447.8,482.9,448.3,481.9,449.3,481.9z"/>
		<path class="st0" d="M465,488.2c1.3,0,2.1,1.3,2.6,4v0.2c0,0.6-0.4,1-1.2,1.1c-0.7,0-1.1-0.8-1.4-2.5l-0.2-0.1h-0.5
			c-0.6,0.9-0.9,2-0.9,3.4l0.1,2c1.1,0,2.2-0.3,3.5-0.8c0.5,0,1,0.4,1.4,1.1c0,1.1-1.5,1.8-4.5,2.2l1,6.5c0,0.6-0.5,0.9-1.4,1.1
			c-0.8,0-1.2-1.3-1.2-3.8l-0.8-3.4l-2.6,0.4c-0.6,0-0.9-0.4-1-1.2c0-0.8,1.1-1.3,3.2-1.5l-0.2-2.5
			C461.5,490.2,462.8,488.2,465,488.2z"/>
		<path class="st0" d="M476,491.1c2,0,3.5,1.5,4.5,4.4l0.2,0.8c0,2.9-1.3,5.8-4,8.8c-1.1,1-2.1,1.5-3.2,1.5c-1.6,0-2.7-0.9-3.4-2.8
			c-0.2-0.9-0.4-1.6-0.4-2.2v-0.5c0-4.2,1.5-7.4,4.6-9.6C474.8,491.3,475.3,491.1,476,491.1z M472,501.5c0,1.8,0.5,2.7,1.4,2.7
			c1.9,0,3.6-2.5,4.8-7.5V496c-0.5-1.7-1.3-2.5-2.5-2.5c-0.5,0-0.7,0.3-0.7,1c0,0.5-0.5,0.8-1.6,1.1
			C472.4,497.2,472,499.1,472,501.5z"/>
		<path class="st0" d="M484.7,484.2c0.7,0.3,1.1,0.7,1.1,1.2l0.4,15.2v4.9c0,0.9-0.4,1.4-1.2,1.4h-0.5c-0.5-0.3-0.7-0.7-0.7-1.1
			v-4.6l-0.4-15.8C483.4,484.7,483.8,484.3,484.7,484.2z"/>
		<path class="st0" d="M489.5,485.4c1,0.2,1.5,0.7,1.5,1.4c-0.3,0.7-0.7,1.1-1.3,1.1c-1-0.2-1.5-0.7-1.5-1.5
			C488.6,485.7,489,485.4,489.5,485.4z M491.1,491c0.4,0,0.8,0.4,1.1,1.2l-0.4,2.8v1.9c0,2.2,0.4,5.1,1.1,8.6
			c-0.3,0.5-0.7,0.8-1.4,0.8c-1.1,0-1.8-3.2-2.2-9.6v-1.4C489.4,492.4,489.9,491,491.1,491z"/>
		<path class="st0" d="M501.3,491.1c2,0,3.5,1.5,4.5,4.4l0.2,0.8c0,2.9-1.3,5.8-4,8.8c-1.1,1-2.1,1.5-3.2,1.5
			c-1.6,0-2.7-0.9-3.4-2.8c-0.2-0.9-0.4-1.6-0.4-2.2v-0.5c0-4.2,1.5-7.4,4.6-9.6C500.1,491.3,500.7,491.1,501.3,491.1z M497.3,501.5
			c0,1.8,0.5,2.7,1.4,2.7c1.9,0,3.6-2.5,4.8-7.5V496c-0.5-1.7-1.3-2.5-2.5-2.5c-0.5,0-0.7,0.3-0.7,1c0,0.5-0.5,0.8-1.6,1.1
			C497.8,497.2,497.3,499.1,497.3,501.5z"/>
		<path class="st0" d="M530.1,478.7c0.6,0,1,0.4,1.2,1.3c-3.4,4-5.2,9.2-5.2,15.5v0.2c0,6.2,1.7,10.2,5.2,11.9
			c1.2,0.3,1.8,0.8,1.8,1.5c0,0.4-0.4,0.8-1.2,1.1c-2.3-0.6-4.1-1.9-5.4-3.8c-1.8-2.8-2.7-6.2-2.7-10.1v-0.9
			c0-6.2,1.6-11.5,4.8-15.8C529.3,479.1,529.8,478.7,530.1,478.7z"/>
		<path class="st0" d="M546.3,483.1c0.5,0,0.8,0.4,1,1.2c0,0.5-0.8,1.1-2.5,2c-2.1,1.8-3.6,4.9-4.6,9.4v0.7c2.3-1.1,4-1.8,5-2.1
			c0.3,0,0.7,0.3,1.2,0.8v0.8c0,0.3-1.2,0.9-3.5,1.8c-1.8,1-2.6,1.5-2.6,1.6v0.4c0,1.5,1,2.8,2.9,3.9l1.4,0.2c0.9,0,2.2-0.5,3.9-1.6
			h0.5c0.6,0.3,0.8,0.7,0.8,1.2v0.2c-1.7,1.7-3.5,2.6-5.5,2.6c-2.9,0-4.9-1.9-6.2-5.8l-2.5,0.5c-1.2-0.2-1.8-0.6-1.8-1.2
			s0.4-1.1,1.1-1.3l0.9,0.2c1.4-0.4,2.1-0.7,2.1-0.9c0-4.5,1.7-8.7,5.2-12.6C544.5,483.8,545.7,483.1,546.3,483.1z"/>
		<path class="st0" d="M558.1,497c1.8-7.5,4.3-13.2,7.5-16.8l0.8-0.2c0.7,0.2,1,0.6,1,1.2v0.2c-3.4,4.2-5.9,10.6-7.5,19.1
			c1.4,2.2,2.8,3.3,4.2,3.3h1.2l1.8-0.4h0.2c0.4,0.2,0.6,0.5,0.6,1v0.2c0,0.8-1,1.4-3.1,1.6c-1.7,0-3.5-0.8-5.3-2.5h-0.2
			c-0.3,3-0.5,7-0.8,12c-0.5,0.4-0.8,0.6-1.2,0.6c-0.7-0.3-1.1-0.7-1.1-1.2c0-4.1,0.4-8.9,1.1-14.2c-1.8-2.9-3.7-7.7-5.8-14.5
			c0-0.3,0.3-0.6,0.8-1.1h0.6c0.5,0,1.9,3.6,4.4,10.8l0.6,0.8H558.1z"/>
		<path class="st0" d="M578,479.9h0.6c4.3,0,7.1,1.6,8.4,4.7l0.1,1.3v0.4c0,3.1-1.9,6-5.6,8.6c-0.9,0.3-1.4,0.6-1.4,0.9
			c1.1,4.1,1.6,7.4,1.6,10v0.5c0,1.1-0.4,1.6-1.3,1.6c-0.7-0.1-1-0.4-1-1v-1c0-3.1-0.6-6.4-1.7-10c-2.2-0.2-3.4-0.8-3.6-1.8v-0.2
			c0-0.5,0.4-0.9,1.1-1.1l1.8,0.6v-0.1c-0.9-3.9-1.4-6.6-1.4-8c0-0.8,0.5-1.2,1.4-1.2c0.8,0,1.2,1.4,1.2,4.2l1.2,4.8
			c1.9-0.6,3.4-1.9,4.5-3.8c0.6-1.1,0.8-2,0.8-2.8V486c0-2.2-1.9-3.4-5.6-3.7h-1.6c-3.7,0.4-5.5,1.3-5.5,2.6v0.2
			c0,0.4,0.2,1,0.6,1.9c0,0.6-0.5,1-1.4,1.1c-1.1-0.5-1.6-1.5-1.6-3.1C569.6,482.1,572.4,480.4,578,479.9z"/>
		<path class="st0" d="M590.7,485.8c0.6,0,1.1,1,1.2,3l0.2,2.2c0,1.6-0.3,5.9-0.9,12.7h0.2v0.1l0.2-0.1h0.3l4.7,0.4h0.3l2-0.6h0.3
			c0.4,0.3,0.7,0.6,0.9,1.1c0,1-1.1,1.6-3.4,1.9l-4.1-0.4h-0.8l-1.9,0.5c-0.7-0.3-1.1-0.7-1.1-1.3l0.8-13.7v-0.6l-0.2-4
			C589.4,486.3,589.8,485.9,590.7,485.8z"/>
		<path class="st0" d="M606.5,484.6l1-0.2h0.4c0.5,0,1.1,0.3,1.8,1c1.2,0,2.8,1.5,5,4.4c1.8,3.5,2.8,6.5,2.8,9.2
			c0,3.7-1.3,6.1-4,7.4l-2.5,0.5c-4,0-6.9-3-8.6-9c-0.4-1.6-0.6-3.1-0.6-4.6v-0.4C601.6,488.4,603.2,485.6,606.5,484.6z
			 M606.1,488.4l-0.9-0.4c-0.8,1-1.2,2.4-1.2,4.3v1.1c0,4.9,1.7,8.5,5,10.8l1.1,0.2h1.5c1.4,0,2.4-0.9,3-2.6l0.2-1.8v-1.2
			c0-4-1.6-7.6-4.8-10.8l-1.6-0.5h-0.1C607.8,487.6,607.1,487.8,606.1,488.4z"/>
		<path class="st0" d="M625.8,483.4h0.2c3.2,0.6,4.8,2.1,4.8,4.7v0.7c0,2.8-1.8,5.6-5.4,8.4v0.2c5.8,5.2,9.8,7.8,12,7.8
			c0.4,0.3,0.6,0.7,0.6,1.1c0,0.6-0.5,1-1.4,1.2c-2.2,0-6.3-2.7-12.4-8l-1.7-0.9h-0.1c0.7,3,1.1,5.3,1.1,6.9c0,0.7-0.4,1.2-1.3,1.5
			c-1.2,0-2-3-2.3-9c-0.9-2.8-1.3-5-1.3-6.6v-0.4c0-2.4,0.5-3.6,1.6-3.6l0.8,0.4h0.2C622.6,484.8,624.1,483.4,625.8,483.4z
			 M622.6,494.1l-0.1,1.5c2.5,0,4.5-2.1,6-6.2V488c0-1.2-0.8-1.9-2.4-2.1h-0.2C624.1,485.8,623.1,488.6,622.6,494.1z"/>
		<path class="st0" d="M651.8,483.1c0.5,0,0.8,0.4,1,1.2c0,0.5-0.8,1.1-2.5,2c-2.1,1.8-3.6,4.9-4.6,9.4v0.7c2.3-1.1,4-1.8,5-2.1
			c0.3,0,0.7,0.3,1.2,0.8v0.8c0,0.3-1.2,0.9-3.5,1.8c-1.8,1-2.6,1.5-2.6,1.6v0.4c0,1.5,1,2.8,2.9,3.9l1.4,0.2c0.9,0,2.2-0.5,3.9-1.6
			h0.5c0.6,0.3,0.8,0.7,0.8,1.2v0.2c-1.7,1.7-3.5,2.6-5.5,2.6c-2.9,0-4.9-1.9-6.2-5.8l-2.5,0.5c-1.2-0.2-1.8-0.6-1.8-1.2
			s0.4-1.1,1.1-1.3l0.9,0.2c1.4-0.4,2.1-0.7,2.1-0.9c0-4.5,1.7-8.7,5.2-12.6C650,483.8,651.2,483.1,651.8,483.1z"/>
		<path class="st0" d="M660.1,481c1.3,0.5,2.5,2.4,3.8,5.9c0.4,2.1,0.6,3.8,0.6,5.2v0.2c0,6-1.5,11.1-4.6,15.5l-0.6,0.2
			c-0.8-0.2-1.2-0.6-1.2-1.2c2.7-4.3,4.1-9.3,4.1-14.8c0-4-1.1-7.2-3.2-9.6v-0.6C659.3,481.3,659.7,481,660.1,481z"/>
	</g>
</g>
</svg>
