<?xml version="1.0" encoding="utf-8"?>
<!-- Generator: Adobe Illustrator 25.1.0, SVG Export Plug-In . SVG Version: 6.00 Build 0)  -->
<svg version="1.1" id="Layer_1" xmlns="http://www.w3.org/2000/svg" xmlns:xlink="http://www.w3.org/1999/xlink" x="0px" y="0px"
	 viewBox="0 0 1540 1090.3" style="enable-background:new 0 0 1540 1090.3;" xml:space="preserve">
<style type="text/css">
	.st0{fill:#010101;}
	.st1{fill:none;stroke:#808285;stroke-width:2;stroke-linecap:round;stroke-miterlimit:10;}
	.st2{fill:none;stroke:#808285;stroke-width:2;stroke-linecap:round;stroke-miterlimit:10;stroke-dasharray:12.1366,12.1366;}
	.st3{fill:none;stroke:#808285;stroke-width:2;stroke-linecap:round;stroke-miterlimit:10;stroke-dasharray:12;}
	.st4{fill:none;}
	.st5{fill:#F57F20;}
	.st6{fill:#FFFFFF;}
	.st7{fill:none;stroke:#F57F20;stroke-width:1.5;stroke-linecap:round;stroke-miterlimit:10;}
	.st8{fill:none;stroke:#F57F20;stroke-width:1.5;stroke-linecap:round;stroke-linejoin:round;stroke-miterlimit:10;}
	.st9{fill:none;stroke:#000000;stroke-miterlimit:10;}
</style>
<path class="st0" d="M1477.7,94.2c-70.1-1.4-294.2-2.9-364.3-4.3c-69.8-1.4-139.6-2.9-209.3-4.3c-39.5-0.8-79.1-1.6-118.6-2.4
	c-2,0-4.1,2-5.2,3.5c-0.4,0.4-2.8,4-0.9,4c9.1,0.2,18.3,0.4,27.4,0.6c-1.5,1.3-2.9,2.9-3,3.9c-8.1,95.4-10.1,191.3-6,286.9
	c2.1,47.8,5.4,95.7,10.9,143.2c1.8,15.8,5.4,35,21.5,42.4c9.2,4.2,19.8,3.9,29.7,4.3c12,0.4,23.9,0.8,35.9,1.3
	c96.9,3.4,193.9,6.8,290.8,10.2c23.5,0.8,201.2,2.5,224.7,2.3c8.7-0.1,17.4-1.4,24.7-6.5c6.7-4.7,11.3-11.6,13.7-19.4
	c2.7-8.9,2.8-18.5,3.3-27.7c0.7-12.3,1.4-24.6,2.2-36.9c1.4-24.3,2.8-48.6,4.3-72.9c5.7-97.2,11.4-194.3,17-291.5
	c0.7-12,1.4-24,2.1-35.9C1478.3,94.5,1478.1,94.3,1477.7,94.2z M1470.6,107c-0.2,4-0.5,8-0.7,12c-0.5,8.3-1,16.6-1.5,25
	c-3.8,64.2-7.5,128.4-11.3,192.7c-3.8,64.6-7.5,129.1-11.3,193.7c-0.4,7.3-0.7,14.7-1.4,22c-0.6,6.1-1.5,13.2-5,18.4
	c-7.3,11-181.9,7.4-193.1,7.1c-32.5-1.1-65.1-2.3-97.6-3.4c-63.7-2.2-127.5-4.5-191.2-6.7c-32.5-1.1-65.1-2.2-97.6-3.4
	c-12.7-0.5-25.7-1.7-33.9-12.7c-6.9-9.2-8.7-21.4-9.9-32.5c-14.4-125.9-16.6-253.8-8.6-380.2c1-15.9,2.2-31.8,3.5-47.6
	c118.3,2.4,236.6,4.9,355,7.3c31.9,0.7,217.8,1.3,249.7,2c15.9,0.3,31.9,0.7,47.8,1c1.1,0,5.1-0.5,6,0.1
	C1471.5,103.1,1470.7,105,1470.6,107z"/>
<g>
	<g>
		<path class="st1" d="M804.5,355.5c1.5-0.7,3.4-1.3,5.7-2"/>
		<path class="st2" d="M821.9,350.7c52.3-10.5,182.2-17.8,228.6-23c69.4-7.8,328.1,3.8,394.6,14.3"/>
		<path class="st1" d="M1451.1,343c2.4,0.5,4.3,0.9,5.8,1.4"/>
	</g>
</g>
<path class="st3" d="M1146.5,100.1c19.8,158.2,8.3,152.5,17.5,293.3c5,76.9-8.1,130.1-15.9,187"/>
<g>
	<path class="st4" d="M870.3,460.8c0.2,1.7,0.4,3.9,0.8,6.2c0.9,4.7,3.3,8.3,7.7,10.4c3.1,1.5,6.4,1.9,9.7,2
		c5.9,0.1,11.6-1,17.3-2.7c6.8-2,13.5-4.4,19.5-8.4c5.7-3.8,10-8.7,10.6-15.9c0.5-6.3-1.2-11.9-6.2-16.1c-3.8-3.1-8.2-4.8-12.9-5.9
		c-6.6-1.5-13.4-1.8-20.1-1c-0.5,0.1-1.1-0.1-1.6-0.2c-0.6-0.1-1.2-0.4-1.8-0.3c-3.8,0.7-7.3,2.2-10.3,4.7
		C874.4,440.4,870.8,449.6,870.3,460.8z"/>
	<path class="st5" d="M870.3,460.8c0.5-11.3,4.1-20.4,12.6-27.2c3-2.4,6.5-4,10.3-4.7c0.6-0.1,1.2,0.2,1.8,0.3
		c0.5,0.1,1.1,0.2,1.6,0.2c6.8-0.8,13.5-0.5,20.1,1c4.7,1.1,9.1,2.8,12.9,5.9c5.1,4.2,6.8,9.7,6.2,16.1c-0.6,7.2-4.9,12.1-10.6,15.9
		c-6,4-12.7,6.4-19.5,8.4c-5.6,1.6-11.4,2.8-17.3,2.7c-3.4,0-6.7-0.5-9.7-2c-4.4-2.1-6.8-5.7-7.7-10.4
		C870.7,464.7,870.5,462.5,870.3,460.8z M892,432.6c-5.3,1.8-9.4,5-12.4,9.5c-4.6,6.8-5.9,14.4-5.2,22.4c0.4,4.4,2.7,7.8,7.1,9.3
		c0.9,0.3,1.8,0.6,2.7,0.9c4.8,1.2,9.7,0.8,14.4-0.3c9.3-2.2,18-5.5,25.4-11.7c2.7-2.2,5.1-4.6,6.7-7.7c2.2-4.2,1.7-8.3-1.7-11.6
		c-1.7-1.6-3.7-3.1-5.8-4.2c-8.9-4.9-18.4-6-28.4-5.2C893.5,434.2,892.5,434,892,432.6z"/>
	<path class="st6" d="M892,432.6c0.6,1.4,1.5,1.6,2.8,1.5c9.9-0.8,19.5,0.3,28.4,5.2c2.1,1.1,4.1,2.6,5.8,4.2
		c3.4,3.3,3.9,7.3,1.7,11.6c-1.6,3.1-4,5.5-6.7,7.7c-7.4,6.1-16.2,9.5-25.4,11.7c-4.8,1.1-9.6,1.5-14.4,0.3
		c-0.9-0.2-1.8-0.6-2.7-0.9c-4.4-1.6-6.7-4.9-7.1-9.3c-0.7-8,0.6-15.6,5.2-22.4C882.6,437.6,886.7,434.4,892,432.6z M891.5,454.7
		c-0.1,0.1-0.2,0.2-0.3,0.3c-0.3-1.1-0.8-2.2-0.7-3.2c0.1-3.6,2.3-5.9,5.3-7.6c3.8-2.1,7.3-0.9,9,2.3c0.5,0.9,1.2,1.1,2.1,0.7
		c0.9-0.4,1.1-1.3,0.6-2.2c-1.3-2.4-3.2-4.2-6-4.7c-4.8-0.9-8.7,1-11.8,4.4c-4.2,4.5-3.5,10.9,1.4,14.6c3.8,2.8,8.2,3.4,12.7,2.9
		c1.6-0.2,3.2-0.8,4.5-1.7c2-1.3,2.2-3.5,1.7-5.6c-0.4-2-1.9-3-3.8-3.3c-0.9-0.1-1.8-0.2-2.7-0.2c-3.5,0.1-6.7,1.1-10,2.3
		C892.8,453.9,892.2,454.3,891.5,454.7z"/>
	<path class="st5" d="M891.5,454.7c0.7-0.4,1.3-0.8,2-1.1c3.2-1.1,6.5-2.1,10-2.3c0.9,0,1.8,0,2.7,0.2c1.9,0.3,3.4,1.3,3.8,3.3
		c0.4,2.1,0.3,4.3-1.7,5.6c-1.3,0.9-2.9,1.5-4.5,1.7c-4.5,0.5-8.9,0-12.7-2.9c-4.9-3.7-5.5-10.1-1.4-14.6c3.2-3.4,7-5.3,11.8-4.4
		c2.8,0.5,4.7,2.2,6,4.7c0.5,0.9,0.2,1.8-0.6,2.2c-0.9,0.4-1.6,0.2-2.1-0.7c-1.8-3.2-5.2-4.4-9-2.3c-3,1.6-5.2,3.9-5.3,7.6
		c0,1.1,0.5,2.2,0.7,3.2C891.3,454.9,891.4,454.8,891.5,454.7z M894.3,457.1c3.3,1.7,6.8,2.3,10.4,1.2c0.7-0.2,1.3-1.2,1.7-1.9
		c0.1-0.2-0.2-1-0.5-1.1c-0.8-0.3-1.6-0.5-2.4-0.5C900.3,454.7,897.3,455.9,894.3,457.1z"/>
	<path class="st6" d="M894.3,457.1c3-1.2,6-2.3,9.2-2.3c0.8,0,1.7,0.2,2.4,0.5c0.3,0.1,0.6,0.9,0.5,1.1c-0.5,0.7-1,1.7-1.7,1.9
		C901.1,459.4,897.6,458.8,894.3,457.1z"/>
</g>
<g>
	<path class="st4" d="M1290.7,212.2c0,0.1,0,0.2,0,0.3c4.1-0.5,8.2-0.8,12.2-1.5c11.3-1.9,18.4-8.8,20.4-19.6
		c1.4-8.1-1.1-18.5-10.5-24.5c-7.2-4.6-15.2-6.2-23.6-5.3c-2.2,0.2-4.5,0.9-6.6,1.5c-1.3,0.4-1.9,1.7-1.5,2.9
		c0.4,1.2,1.4,1.7,2.8,1.5c1.4-0.2,2.8-0.5,4.3-0.6c9.4-0.7,17.7,2,24.6,8.4c3.8,3.5,5.7,7.9,5.4,13c-0.5,7.7-4.4,13.3-11.4,16.6
		c-2.7,1.3-5.7,1.9-8.7,2.4c-6.8,1.1-13.6,0.5-20.1-1.7c-6.1-2.1-8.7-6.8-6.8-13c2.3-7.8,7.2-13.5,14-17.8c1.1-0.7,1.4-1.2,1-2.1
		c-0.5-0.9-1.4-1.2-2.4-0.6c-1.3,0.7-2.6,1.5-3.7,2.3c-5.9,4.4-10.4,9.8-12.3,17.1c-2.1,8.3,1.8,15.7,9.8,18.7
		C1281.7,211.9,1286.2,212.3,1290.7,212.2z"/>
	<path class="st4" d="M1293.3,188.7c-1.5,1.6-3.4,3-4.7,4.9c-2,2.6-1.4,5.6,1.3,7.6c3.3,2.4,7.1,3.3,11.2,2.6c3-0.5,4.7-2.7,4.4-5.8
		c-0.1-1.2-0.4-2.5-1-3.6c-1-1.8-2.2-3.5-3.4-5.1c-0.7-1-1.6-2-2.5-3c0.5-0.4,0.9-0.7,1.3-1.1c2.4-2.1,4.3-4.4,4.8-7.7
		c0.3-2.3-0.6-3.9-2.9-4.4c-3.1-0.7-6-0.2-8.8,1.2c-1.8,0.9-2.6,2.5-2.5,4.4c0.1,1.1,0.4,2.2,0.8,3.3c0.5,1.1,1.1,2.2,1.8,3.4
		c-0.5,0.2-1,0.3-1.5,0.4c-0.9,0.2-1.4,0.6-1.3,1.6c0.1,0.9,1,1.6,1.9,1.5C1292.6,188.8,1293,188.7,1293.3,188.7z"/>
	<path class="st5" d="M1290.7,212.2c-4.5,0-9-0.4-13.2-2c-8-3-11.9-10.4-9.8-18.7c1.8-7.3,6.3-12.7,12.3-17.1
		c1.2-0.9,2.5-1.6,3.7-2.3c1.1-0.6,2-0.3,2.4,0.6c0.4,0.9,0.1,1.4-1,2.1c-6.8,4.3-11.7,10-14,17.8c-1.8,6.2,0.7,10.9,6.8,13
		c6.5,2.2,13.3,2.8,20.1,1.7c2.9-0.5,6-1.1,8.7-2.4c6.9-3.2,10.9-8.9,11.4-16.6c0.3-5.1-1.6-9.6-5.4-13c-7-6.4-15.2-9.1-24.6-8.4
		c-1.4,0.1-2.8,0.4-4.3,0.6c-1.4,0.2-2.4-0.3-2.8-1.5c-0.4-1.2,0.1-2.5,1.5-2.9c2.2-0.6,4.4-1.3,6.6-1.5c8.4-0.9,16.4,0.7,23.6,5.3
		c9.4,6,12,16.4,10.5,24.5c-1.9,10.8-9.1,17.6-20.4,19.6c-4,0.7-8.2,1-12.2,1.5C1290.7,212.4,1290.7,212.3,1290.7,212.2z"/>
	<path class="st5" d="M1293.3,188.7c-0.2,0-0.7,0.2-1.1,0.2c-0.9,0.1-1.8-0.6-1.9-1.5c-0.1-1,0.4-1.4,1.3-1.6c0.5-0.1,1-0.3,1.5-0.4
		c-0.6-1.2-1.3-2.2-1.8-3.4c-0.4-1-0.7-2.2-0.8-3.3c-0.2-2,0.7-3.5,2.5-4.4c2.8-1.5,5.7-2,8.8-1.2c2.3,0.6,3.3,2.1,2.9,4.4
		c-0.4,3.3-2.4,5.6-4.8,7.7c-0.4,0.4-0.8,0.7-1.3,1.1c0.9,1,1.8,1.9,2.5,3c1.2,1.7,2.4,3.3,3.4,5.1c0.6,1.1,0.9,2.4,1,3.6
		c0.3,3-1.4,5.2-4.4,5.8c-4.1,0.7-7.8-0.2-11.2-2.6c-2.7-1.9-3.2-4.9-1.3-7.6C1289.9,191.7,1291.7,190.2,1293.3,188.7z
		 M1297.3,190.2c-1.9,1.7-3.6,3-5.1,4.6c-1.4,1.5-1.1,2.8,0.8,3.6c1.8,0.8,3.8,1.3,5.8,1.6c2.6,0.4,3.6-1,2.4-3.3
		C1300.1,194.5,1298.7,192.5,1297.3,190.2z M1296.3,183.7c2.3-1.4,4.2-3.5,4.8-5.3c0.3-0.8,0.1-1.3-0.6-1.6
		c-1.6-0.7-3.3-0.8-4.9-0.2c-1.2,0.4-1.7,1.4-1.3,2.6C1294.8,180.7,1295.6,182.2,1296.3,183.7z"/>
	<path class="st4" d="M1297.3,190.2c1.4,2.4,2.8,4.3,3.9,6.4c1.2,2.4,0.2,3.7-2.4,3.3c-2-0.3-4-0.8-5.8-1.6
		c-1.9-0.8-2.1-2.1-0.8-3.6C1293.6,193.2,1295.4,191.8,1297.3,190.2z"/>
	<path class="st4" d="M1296.3,183.7c-0.7-1.5-1.5-3-2.1-4.6c-0.4-1.2,0.2-2.1,1.3-2.6c1.7-0.6,3.3-0.5,4.9,0.2
		c0.7,0.3,0.9,0.8,0.6,1.6C1300.5,180.2,1298.7,182.3,1296.3,183.7z"/>
</g>
<g>
	<path class="st6" d="M1186.2,223.4c-10,11.3-30.6,14.1-40.8,5c-10.3-9-10.6-23-0.6-34.3s30.7-16.6,40.9-7.5
		S1196.2,212.1,1186.2,223.4z"/>
	<g>
		<path class="st4" d="M1159.8,234.8c4.7,0.1,9.3-0.5,13.9-1.5c6.7-1.5,12.8-4.2,17.5-9.4c5.8-6.2,8.4-13.5,6.8-22
			c-1-5.2-3.7-9.6-6.9-13.6c-9.5-12-22.4-12.9-34.9-5.2c-1.1,0.7-1.4,1.7-1,2.7c0.5,1.1,1.6,1.7,2.8,1.4c0.3-0.1,0.6-0.2,0.9-0.3
			c1.2-0.5,2.4-1,3.6-1.4c6.8-2.2,13.4-1.9,19.2,2.7c3.8,3,6.6,6.7,8.6,11.1c1,2.2,1.6,4.6,1.7,7c0.2,6.4-2.5,11.4-7.1,15.6
			c-4.6,4.1-10.1,6.3-16,7.3c-7.3,1.2-14.4,0.7-21.1-2.5c-6.9-3.3-9.9-9-8.4-16.5c1.7-8.5,6.2-15.4,12.7-21.1
			c0.3-0.2,0.6-0.4,0.8-0.7c0.5-0.8,0.5-1.5-0.1-2.2c-0.6-0.6-1.2-0.5-1.9,0c-0.2,0.2-0.4,0.3-0.6,0.5c-3.7,2.8-6.8,6.2-9.3,10.1
			c-4.1,6.5-6.2,13.4-4.7,21.1c1.5,7.8,5.9,13.1,13.7,15.5C1153.1,234.3,1156.4,234.7,1159.8,234.8z"/>
		<path class="st4" d="M1171.6,207.9c-0.2,0.9-0.4,2-0.7,3c-0.9,3.6-3.3,5.7-6.9,6.3c-1.7,0.3-3.4,0.4-5.1,0.6
			c-1.1,0.1-1.7,0.8-1.7,1.8c0,1,0.6,1.6,1.7,1.7c0.8,0.1,1.7,0,2.5,0c7.4-0.3,12-4,13.5-11.3c0.7-3.5,1-7.1,1.5-10.7
			c0-0.2,0-0.6-0.1-0.7c-0.9-1.2-1.6-2.6-2.7-3.5c-4.3-3.4-9-3.5-13.8-1.3c-4,1.8-6.3,5-6.2,9.6c0,3.8,1.8,6.6,4.8,7.6
			c2.3,0.8,4.7,0.6,6.9-0.2C1167.4,210,1169.4,208.9,1171.6,207.9z"/>
		<path class="st5" d="M1159.8,234.8c-3.4-0.1-6.7-0.5-9.9-1.5c-7.8-2.4-12.1-7.7-13.7-15.5c-1.5-7.7,0.6-14.6,4.7-21.1
			c2.5-3.9,5.7-7.2,9.3-10.1c0.2-0.2,0.4-0.3,0.6-0.5c0.6-0.5,1.3-0.6,1.9,0c0.6,0.7,0.7,1.5,0.1,2.2c-0.2,0.3-0.5,0.5-0.8,0.7
			c-6.5,5.6-11,12.5-12.7,21.1c-1.5,7.5,1.5,13.3,8.4,16.5c6.8,3.2,13.9,3.7,21.1,2.5c6-1,11.5-3.2,16-7.3c4.6-4.2,7.3-9.2,7.1-15.6
			c-0.1-2.5-0.7-4.8-1.7-7c-2-4.3-4.8-8.1-8.6-11.1c-5.9-4.6-12.4-4.9-19.2-2.7c-1.2,0.4-2.4,0.9-3.6,1.4c-0.3,0.1-0.6,0.3-0.9,0.3
			c-1.2,0.3-2.4-0.3-2.8-1.4c-0.4-1.1-0.1-2,1-2.7c12.5-7.7,25.3-6.8,34.9,5.2c3.2,4.1,5.9,8.5,6.9,13.6c1.6,8.5-1,15.7-6.8,22
			c-4.7,5.1-10.8,7.9-17.5,9.4C1169.1,234.3,1164.5,234.9,1159.8,234.8z"/>
		<path class="st5" d="M1171.6,207.9c-2.2,1-4.2,2.1-6.3,2.9c-2.2,0.9-4.6,1-6.9,0.2c-3-1-4.8-3.8-4.8-7.6c-0.1-4.6,2.3-7.7,6.2-9.6
			c4.8-2.2,9.5-2.1,13.8,1.3c1.1,0.9,1.8,2.3,2.7,3.5c0.1,0.2,0.1,0.5,0.1,0.7c-0.5,3.6-0.8,7.2-1.5,10.7c-1.5,7.3-6,11-13.5,11.3
			c-0.8,0-1.7,0-2.5,0c-1-0.1-1.6-0.7-1.7-1.7c0-1,0.6-1.7,1.7-1.8c1.7-0.2,3.4-0.3,5.1-0.6c3.6-0.7,6-2.7,6.9-6.3
			C1171.1,209.8,1171.3,208.8,1171.6,207.9z M1165.6,195.3c-3,0.2-5.7,1.7-7.7,4.3c-1.6,2-1.6,4.2-0.4,6.3c1.1,1.8,3.2,2.6,5.6,2.2
			c3.4-0.6,6.2-2.2,8.2-4.9c0.7-1,1.1-2.3,1.5-3.5c0.1-0.3-0.1-0.9-0.4-1.3C1170.8,196.4,1168.6,195.3,1165.6,195.3z"/>
		<path class="st4" d="M1165.6,195.3c3,0.1,5.2,1.1,6.9,3.1c0.3,0.3,0.5,0.9,0.4,1.3c-0.4,1.2-0.8,2.5-1.5,3.5
			c-2.1,2.7-4.9,4.3-8.2,4.9c-2.4,0.4-4.5-0.4-5.6-2.2c-1.3-2-1.2-4.2,0.4-6.3C1159.9,197,1162.5,195.4,1165.6,195.3z"/>
	</g>
</g>
<g>
	<path class="st4" d="M1194.1,370.1c-0.2,0.1-0.2,0.2-0.3,0.2c-5.9,2.4-9.8,6.9-12.2,12.7c-2.5,6.2-2.9,12.6,0.6,18.6
		c2.7,4.8,7,7.8,12,9.8c9.3,3.7,18.9,3.6,28.5,1.2c6.9-1.7,12.9-5,17.3-10.8c5-6.5,7.2-13.7,4.9-21.8c-2.3-8.3-8-13.8-15.9-16.7
		c-11.5-4.3-22.7-2.7-33.3,3.2C1194.4,367.4,1193.4,368.4,1194.1,370.1z"/>
	<path class="st5" d="M1194.1,370.1c-0.7-1.8,0.3-2.7,1.7-3.5c10.6-5.9,21.8-7.5,33.3-3.2c7.9,2.9,13.6,8.4,15.9,16.7
		c2.2,8,0,15.3-4.9,21.8c-4.4,5.8-10.4,9.1-17.3,10.8c-9.6,2.4-19.2,2.5-28.5-1.2c-5-2-9.3-5-12-9.8c-3.5-6-3.1-12.4-0.6-18.6
		c2.4-5.8,6.3-10.3,12.2-12.7C1193.9,370.3,1194,370.3,1194.1,370.1z M1210.1,408.8c4.6,0,9.2-0.5,13.6-2c6-2,10.7-5.5,13.5-11.4
		c4.5-9.4,2.1-21.3-9.5-25.9c-10.4-4.2-20.5-3.1-30.5,1.5c-0.2,0.1-0.4,0.4-0.5,0.6c-0.2,0.8-0.7,1.1-1.4,1.4c-2,1-4.1,1.9-5.7,3.4
		c-5.2,4.6-6.6,10.5-5.1,17.1c1.6,6.9,5.8,11.6,12.7,13.7C1201.5,408.5,1205.8,408.8,1210.1,408.8z"/>
	<path class="st4" d="M1210.1,408.8c-4.3,0-8.6-0.4-12.8-1.6c-6.9-2-11.1-6.8-12.7-13.7c-1.5-6.6-0.1-12.5,5.1-17.1
		c1.6-1.4,3.8-2.3,5.7-3.4c0.7-0.4,1.2-0.6,1.4-1.4c0-0.2,0.3-0.5,0.5-0.6c10-4.6,20.1-5.6,30.5-1.5c11.6,4.6,14,16.5,9.5,25.9
		c-2.8,5.8-7.5,9.4-13.5,11.4C1219.3,408.3,1214.7,408.8,1210.1,408.8z M1222.5,389.7c0.1-0.6,0.2-1.1,0.3-1.5
		c1-3.6,1.9-7.2,2.9-10.9c0.4-1.5,0-2.2-1.5-2.7c-2.8-1-5.7-1.2-8.6-0.8c-3.6,0.6-7.2,1.3-10.9,1.9c-1.3,0.2-2.7,0.3-4.1,0.4
		c-0.9,0.1-1.4,0.7-1.4,1.7c0.1,0.9,0.6,1.4,1.5,1.4c0.9,0,1.8,0,2.6-0.2c3.9-0.6,7.7-1.4,11.6-2c2.2-0.3,4.5-0.2,6.6,0.5
		c-1.1,4.2-2.1,8.4-3.2,12.5c-0.1,0.3-0.5,0.5-0.9,0.6c-3.7,0.7-7.4,0.8-11-0.3c-1-0.3-1.8,0.4-1.8,1.4c0,0.9,0.5,1.4,1.4,1.6
		c2.4,0.7,4.8,1,7.3,0.8c1.5-0.1,3-0.2,4.6-0.3c0,0.3,0,0.6,0,0.8c0.1,2.6,0.6,5,2.2,7.2c0.8,1.1,1.5,1.4,2.4,0.8
		c1-0.6,1-1.4,0.6-2.7c-0.6-1.7-1.1-3.4-1.2-5.2c-0.2-2-0.4-1.7,1.6-2c2.5-0.4,5-0.6,7.4-0.9c1.2-0.1,1.8-0.8,1.8-1.8
		c0-1-0.6-1.5-1.8-1.5c-1,0-1.9,0.1-2.9,0.2C1226.4,389.1,1224.6,389.4,1222.5,389.7z"/>
	<path class="st5" d="M1222.5,389.7c2-0.3,3.9-0.6,5.8-0.9c0.9-0.1,1.9-0.2,2.9-0.2c1.2,0,1.8,0.5,1.8,1.5c0.1,1.1-0.6,1.7-1.8,1.8
		c-2.5,0.3-5,0.5-7.4,0.9c-2,0.3-1.8,0-1.6,2c0.2,1.8,0.7,3.5,1.2,5.2c0.4,1.3,0.3,2.1-0.6,2.7c-0.9,0.5-1.6,0.3-2.4-0.8
		c-1.6-2.1-2-4.6-2.2-7.2c0-0.3,0-0.5,0-0.8c-1.6,0.1-3.1,0.3-4.6,0.3c-2.5,0.1-4.9-0.1-7.3-0.8c-0.8-0.2-1.4-0.7-1.4-1.6
		c0-1.1,0.8-1.8,1.8-1.4c3.7,1.1,7.3,1,11,0.3c0.3-0.1,0.8-0.3,0.9-0.6c1.1-4.1,2.1-8.2,3.2-12.5c-2.1-0.7-4.4-0.8-6.6-0.5
		c-3.9,0.6-7.8,1.3-11.6,2c-0.9,0.1-1.8,0.1-2.6,0.2c-0.9,0-1.5-0.4-1.5-1.4c-0.1-1,0.4-1.6,1.4-1.7c1.3-0.2,2.7-0.2,4.1-0.4
		c3.6-0.6,7.2-1.4,10.9-1.9c2.9-0.4,5.8-0.2,8.6,0.8c1.4,0.5,1.9,1.2,1.5,2.7c-0.9,3.6-1.9,7.2-2.9,10.9
		C1222.7,388.7,1222.7,389.2,1222.5,389.7z"/>
</g>
<g>
	<path class="st4" d="M900.3,312c1.8-0.2,5.1-0.5,8.4-1c4-0.6,7.9-1.8,11.2-4.2c8.3-5.9,11.3-14.2,10-23.9
		c-1.7-13.4-11.6-24-24.6-27.1c-4.7-1.1-8.9-0.4-12.5,2.9c-2.3,2.1-4.4,4.5-6.5,6.9c-0.8,0.9-0.6,2.2,0.2,2.9
		c0.9,0.8,1.9,0.7,2.9-0.2c1.3-1.2,2.5-2.5,3.8-3.7c1.8-1.6,3.7-3,6.1-3.6c4.4-1,8.5-0.1,12.2,2.2c7.4,4.4,11.6,11.2,13.5,19.4
		c1.8,7.8-0.4,14.6-7.1,19.2c-10.4,7.1-21.7,7.8-33.1,2.6c-6.1-2.8-9-8-8.9-14.8c0.1-6.4,1.7-12.4,4.4-18.2
		c2.3-4.7,5.2-8.9,9.8-11.8c0.8-0.5,1-1.3,0.6-2.1c-0.4-0.8-1.3-1-2.2-0.5c-2.4,1.4-4.5,3.2-6.3,5.3c-7.3,9.1-10.8,19.5-10,31.2
		c0.5,6.9,3.9,12,10.1,15.1C887.6,311.2,893.2,311.9,900.3,312z"/>
	<path class="st4" d="M892.4,283.8c0,1.2-0.1,2.5,0,3.7c0.3,2,0.5,4,1.3,5.8c2.2,5,8.2,5.7,11.1,1.1c3.6-5.6,5-11.8,3.5-18.5
		c-0.6-2.7-1.9-5.2-4.3-6.8c-2.7-1.8-5.6-1.3-7.6,1.2c-0.8,1-1.4,2.1-2,3.2C892.8,276.8,892.4,280.3,892.4,283.8z"/>
	<path class="st5" d="M900.3,312c-7.2-0.1-12.8-0.8-18-3.4c-6.2-3.1-9.6-8.2-10.1-15.1c-0.9-11.7,2.6-22.1,10-31.2
		c1.7-2.2,3.9-3.9,6.3-5.3c0.9-0.5,1.8-0.3,2.2,0.5c0.5,0.9,0.3,1.6-0.6,2.1c-4.5,2.9-7.5,7.1-9.8,11.8c-2.8,5.7-4.4,11.8-4.4,18.2
		c-0.1,6.8,2.8,12,8.9,14.8c11.4,5.2,22.7,4.5,33.1-2.6c6.7-4.5,8.9-11.3,7.1-19.2c-1.9-8.2-6.1-15-13.5-19.4
		c-3.8-2.2-7.8-3.2-12.2-2.2c-2.4,0.6-4.3,2-6.1,3.6c-1.3,1.2-2.5,2.4-3.8,3.7c-1,1-2,1-2.9,0.2c-0.8-0.8-1-2-0.2-2.9
		c2.1-2.3,4.2-4.8,6.5-6.9c3.6-3.2,7.9-4,12.5-2.9c13,3.1,22.9,13.8,24.6,27.1c1.3,9.8-1.8,18-10,23.9c-3.3,2.4-7.2,3.6-11.2,4.2
		C905.5,311.6,902.2,311.8,900.3,312z"/>
	<path class="st5" d="M898.4,285.5c0-3.5,0.4-7,2-10.2c0.6-1.1,1.2-2.2,2-3.2c2-2.5,4.9-3,7.6-1.2c2.5,1.6,3.7,4.1,4.3,6.8
		c1.5,6.6,0.1,12.8-3.5,18.5c-2.9,4.5-9,3.9-11.1-1.1c-0.8-1.8-1-3.9-1.3-5.8C898.3,287.9,898.4,286.7,898.4,285.5z M901.4,287.3
		c0,3.3,0.2,5,1,6.4c1.4,2.5,4,2.8,5.8,0.6c0.4-0.5,0.7-1,1-1.5c2-4.2,3-8.6,2.3-13.3c-0.4-2.2-1-4.4-3-5.8c-1.4-1-2.7-0.9-3.7,0.5
		c-0.7,0.9-1.2,2-1.7,3.1C901.6,280.6,901.6,284.1,901.4,287.3z"/>
	<path class="st4" d="M895.4,285.7c0.1-3.3,0.2-6.8,1.6-10c0.5-1.1,1-2.2,1.7-3.1c1-1.4,2.3-1.5,3.7-0.5c2,1.4,2.6,3.6,3,5.8
		c0.8,4.7-0.2,9.1-2.3,13.3c-0.3,0.5-0.6,1-1,1.5c-1.8,2.2-4.5,1.9-5.8-0.6C895.6,290.7,895.4,289,895.4,285.7z"/>
	<path class="st5" d="M890.2,283.8c-2.2,1.7-4.3,3.4-6.5,5.1c-0.6,0.5-1.3,0.6-1.8,0c-0.4-0.5-0.5-1.2-0.5-1.8c0-0.4,0.5-0.8,0.9-1
		c3.7-2.6,6.8-5.9,8.7-10c0.8-1.6,1.2-3.4,1.8-5.2c0.5-1.4,1.1-1.7,2.1-1.4c1,0.3,1.6,1.3,1.3,2.5c-0.5,2.1-1.3,4.1-1.6,6.1
		c-1.1,6.5-0.4,12.8,1.5,19.1c0.1,0.4,0.3,0.8,0.3,1.2c0.2,1-0.3,1.8-1.3,2.1c-0.9,0.3-1.6,0-2-0.9c-1.4-3.3-2.2-6.8-2.6-10.4
		C890.3,287.3,890.3,285.5,890.2,283.8z"/>
</g>
<g>
	<ellipse class="st6" cx="1160.7" cy="325.6" rx="24.5" ry="21.3"/>
	<g>
		<g>
			<path class="st4" d="M1158.7,348.9c6.7-0.1,14.2-1.9,21.1-6.4c4.7-3.1,8.3-7.2,9.2-13.1c0.8-5.1-0.6-9.8-3.2-14.2
				c-3.5-5.9-8.9-9.2-15.3-11c-7.9-2.2-15.8-2-23.7-0.6c-1.1,0.2-1.6,0.8-1.8,1.9c0,0.3-0.3,0.6-0.5,0.7c-3.4,1.3-5.6,3.9-7.1,7.1
				c-2.9,6.2-3.5,12.9-3.1,19.7c0.4,6.6,3.8,10.8,9.5,13.4C1148.1,348.3,1152.6,348.9,1158.7,348.9z"/>
			<path class="st5" d="M1158.7,348.9c-6.1,0-10.6-0.6-15-2.5c-5.8-2.5-9.2-6.8-9.5-13.4c-0.4-6.8,0.2-13.4,3.1-19.7
				c1.5-3.2,3.7-5.8,7.1-7.1c0.2-0.1,0.5-0.4,0.5-0.7c0.1-1.1,0.7-1.7,1.8-1.9c7.9-1.5,15.9-1.7,23.7,0.6c6.4,1.8,11.8,5.1,15.3,11
				c2.6,4.3,4,9.1,3.2,14.2c-0.9,5.9-4.4,10-9.2,13.1C1172.9,347,1165.4,348.8,1158.7,348.9z M1153.1,307.7c-1.8,0.4-4-0.1-6.3,0.8
				c-3.2,1.3-5.2,3.4-6.6,6.4c-1.8,3.9-2.6,8.1-2.6,12.4c0,2.4,0.1,4.8,0.7,7.1c1.3,5.1,5.1,7.8,9.9,9.1c6.7,1.8,13.4,1.4,20-0.7
				c4.8-1.5,9.1-3.9,12.5-7.7c4.8-5.3,4.9-11.3,0.5-16.8c-3.4-4.4-7.8-7.3-13.1-8.9C1163.4,307.8,1158.4,307.6,1153.1,307.7z"/>
			<path class="st4" d="M1153.1,307.7c5.4-0.1,10.3,0.2,15.1,1.6c5.2,1.6,9.6,4.6,13.1,8.9c4.4,5.6,4.2,11.6-0.5,16.8
				c-3.4,3.8-7.7,6.2-12.5,7.7c-6.6,2.1-13.3,2.6-20,0.7c-4.8-1.3-8.6-4-9.9-9.1c-0.6-2.3-0.7-4.7-0.7-7.1c0-4.3,0.8-8.5,2.6-12.4
				c1.4-3,3.4-5.2,6.6-6.4C1149,307.6,1151.3,308.1,1153.1,307.7z"/>
			<path class="st5" d="M1150.7,324.7c-1.9,1.6-3.9,3.1-5.9,4.7c-0.5,0.4-1.2,0.6-1.6,0c-0.3-0.4-0.5-1.1-0.4-1.7
				c0-0.3,0.5-0.7,0.8-0.9c3.3-2.4,6.1-5.4,7.8-9.2c0.7-1.5,1-3.2,1.6-4.7c0.4-1.3,1-1.6,1.9-1.3c0.9,0.3,1.4,1.2,1.2,2.3
				c-0.5,1.9-1.2,3.7-1.5,5.6c-1,5.9-0.3,11.8,1.3,17.5c0.1,0.4,0.2,0.7,0.3,1.1c0.2,0.9-0.2,1.6-1.1,1.9c-0.8,0.3-1.4,0-1.8-0.9
				c-1.3-3-2-6.2-2.3-9.5C1150.8,328,1150.8,326.3,1150.7,324.7z"/>
		</g>
		<path class="st5" d="M1163.4,324.7c-1.7,1.4-3.5,2.8-5.2,4.1c-0.5,0.4-1.1,0.5-1.4,0c-0.3-0.4-0.4-1-0.4-1.5
			c0-0.3,0.4-0.6,0.7-0.8c3-2.1,5.4-4.7,7-8.1c0.6-1.3,0.9-2.8,1.4-4.2c0.4-1.1,0.9-1.4,1.7-1.2c0.8,0.3,1.3,1.1,1,2
			c-0.4,1.6-1,3.3-1.3,4.9c-0.9,5.2-0.3,10.3,1.2,15.4c0.1,0.3,0.2,0.6,0.3,0.9c0.2,0.8-0.2,1.4-1,1.6c-0.7,0.2-1.3,0-1.6-0.8
			c-1.1-2.7-1.8-5.5-2.1-8.3C1163.5,327.6,1163.5,326.1,1163.4,324.7z"/>
	</g>
</g>
<g>
	<path class="st7" d="M1300.3,221.5c-2.2,5.4,2.4,9.1,11,17.4c22.6,21.9,6.9,70.7-65.7,145.2"/>
	<path class="st8" d="M1306.3,226.3c-3.4-2.7-3.6-7.1-6.3-10.3c-1.4,2.9-4.5,8.6-7.4,10.3"/>
</g>
<g>
	<path class="st7" d="M1176.2,169.6c21.5-34.6,91.1-39.3,114.6-7.2"/>
	<path class="st8" d="M1171.8,163.1c2.4,3.7,1.1,7.8,2.6,11.7c2.2-2.3,7-6.7,10.3-7.4"/>
</g>
<g>
	<path class="st8" d="M1202.5,420.7c-27.7,33.6-147.2,84.9-280.2,48.4 M1204.9,427.7c-1-4.3,1.7-7.7,1.6-11.9
		c-2.9,1.4-8.9,3.9-12.2,3.4"/>
</g>
<g>
	<path class="st8" d="M1057.5,168.4c-136.8-46.9-156.1-28.7-162.1,78"/>
	<path class="st8" d="M887.8,243.8c4.2,1.2,6,5.2,9.7,7.1c0.2-3.2,0.9-9.7,2.9-12.4"/>
</g>
<g>
	<path class="st7" d="M1134.8,353.2c-30.8,26.6-232.6,79.7-235.3-41.5"/>
	<path class="st8" d="M1137.1,360.6c-1.1-4.2,1.3-7.8,1-12c-2.8,1.5-8.7,4.3-12.1,4"/>
</g>
<g>
	<g>
		<path class="st4" d="M833.9,580.7c5.2-0.1,10-0.7,14.6-2.5c7.1-2.7,12-7.5,14.2-14.9c1.3-4.6,1.4-9.2,0.7-13.9
			c-0.8-5.7-2.7-10.9-6.6-15.3c-6.9-7.7-15.8-9.4-25.7-8.1c-1.3,0.2-1.9,1.6-1.3,3c0.5,1.2,1.3,1.6,2.6,1.8c2,0.2,4.1,0.4,6.1,0.7
			c5.4,1,10.2,3.1,13.6,7.7c3,4,4.5,8.7,5.1,13.6c0.6,4.9-0.2,9.5-3.3,13.5c-3.2,4.1-7.6,6.3-12.6,7.4c-9.9,2.2-19.3,0.3-28-4.6
			c-6.7-3.7-9.6-10.5-7.9-18c1.9-8.2,6.7-14.2,14.4-17.8c0.5-0.2,1.1-0.5,1.2-0.9c0.2-0.6,0.1-1.4-0.1-1.9c-0.4-0.8-1.2-0.6-1.9-0.3
			c-7,2.9-12.2,7.8-15.7,14.4c-2.4,4.4-3.6,9.2-2.7,14.3c1.1,6.1,4.6,10.7,9.4,14.3C817.2,578.6,825.5,580.5,833.9,580.7z"/>
	</g>
</g>
<g>
	<g>
		<line class="st9" x1="766" y1="280.4" x2="766" y2="301.6"/>
		<g>
			<polygon points="761,281.9 766,273.2 771,281.9 			"/>
		</g>
	</g>
</g>
<g>
	<g>
		<line class="st9" x1="1228.3" y1="614.4" x2="1207.1" y2="614.4"/>
		<g>
			<polygon points="1226.8,609.4 1235.4,614.4 1226.8,619.3 			"/>
		</g>
	</g>
</g>
<g>
	<g>
		<path class="st0" d="M950.5,442.9c0.5,0,0.8,0.8,0.9,2.2l0.1,1.6c0,1.2-0.2,4.4-0.7,9.5h0.2v0.1l0.1-0.1h0.2l3.5,0.3h0.2l1.5-0.5
			h0.2c0.3,0.2,0.5,0.5,0.7,0.8c0,0.8-0.8,1.2-2.5,1.4l-3.1-0.3h-0.6l-1.4,0.4c-0.5-0.2-0.8-0.5-0.8-1l0.6-10.3v-0.5l-0.2-3
			C949.6,443.3,949.9,443,950.5,442.9z"/>
		<path class="st0" d="M964.2,446.7c0.9,0,1.3,0.3,1.3,1l-0.3,0.6l-0.2,5.5c0,2.5,0.5,4,1.5,4.6l0.1,0.5c-0.1,0.6-0.3,0.9-0.8,0.9
			h-0.2c-1.5-1-2.2-2.6-2.2-4.7h-0.2c-0.8,2.2-1.8,3.4-2.9,3.4c-1.1-0.3-1.6-1.1-1.6-2.4c0-2.8,1.1-5.6,3.4-8.4
			C962.8,447,963.5,446.7,964.2,446.7z M960.5,454.8l-0.1,0.8v0.6h0.3c1.5-3.7,2.2-6,2.2-6.8h-0.1
			C961.7,450.7,960.9,452.5,960.5,454.8z"/>
		<path class="st0" d="M968.5,449.2l0.5-0.3c0.5,0,0.8,0.3,1,0.9c-0.3,1.5-0.5,3-0.5,4.6c0,0.8,0.2,1.6,0.7,2.5h0.2
			c0.6,0,1.3-2.3,2.1-6.9c0.3-0.2,0.5-0.4,0.8-0.4c0.6,0,0.9,1.1,0.9,3.3c0.3,2.4,0.5,3.6,0.9,3.6l0.4-0.2c0.6,0.2,0.9,0.5,0.9,0.9
			c-0.4,0.8-0.9,1.1-1.5,1.1c-0.7,0-1.4-0.7-2.1-2.2c-0.8,1.7-1.6,2.5-2.4,2.5c-1.2,0-2.1-1.3-2.5-3.8l-0.1-1v-0.3
			C967.8,452.2,968.1,450.7,968.5,449.2z"/>
		<path class="st0" d="M981,448.1c1.7,0.1,2.5,1,2.5,2.5l0.1,0.4l-0.1,4.7c0,0.5,0.3,1.3,0.9,2.2v0.1c-0.2,0.6-0.5,0.9-0.9,0.9
			c-1.2-0.5-1.9-1.6-1.9-3.3v-0.4l-0.1-0.1l0.1-0.1v-0.1l0.1-4.1c0-0.6-0.3-0.9-0.8-0.9h-0.4c-1,0.4-1.5,2.6-1.5,6.6
			c0,1.4-0.4,2.1-1,2.1c-0.5,0-0.8-0.3-0.8-1v-3c0-3.9,0.3-5.8,1-5.8l0.3-0.1l0.6,0.1C979.8,448.3,980.4,448.1,981,448.1z"/>
		<path class="st0" d="M988.5,448.1l1.2-0.2c0.5,0,0.8,0.3,0.8,0.9c0,0.5-0.7,0.9-2,1c-0.8,0.6-1.2,1.5-1.2,2.5v1
			c0.4,2.2,1.1,3.3,2,3.3h0.3c0.6,0,1.4-0.5,2.5-1.6h0.2c0.4,0,0.7,0.3,1,0.8c-0.3,0.9-1.2,1.6-2.7,2.3c-0.3,0.1-0.6,0.2-1,0.2
			c-2.1,0-3.4-1.6-4-4.9v-0.7C985.6,450.5,986.6,448.9,988.5,448.1z"/>
		<path class="st0" d="M996.1,441.7c0.6,0,0.8,0.7,0.8,2l0.4,5.2h0.1l1.5-0.6c1.7,0,2.7,1.7,3.1,5.2c0.1,1,0.2,2.4,0.2,4.3v2.4
			c0,0.8-0.3,1.1-0.8,1.1h-0.1c-0.5-0.1-0.8-0.4-0.8-0.9v-2.8c0-4.5-0.4-7-1.3-7.5h-0.2c-0.6,0-1,0.9-1.3,2.8v1.7
			c0,3-0.2,4.5-0.8,4.5l-0.6,0.1c-0.6,0-0.8-0.8-0.8-2.5c0.1-1.8,0.2-3.2,0.4-4.3l-0.6-9.9C995.2,442,995.5,441.7,996.1,441.7z"/>
	</g>
	<g>
		<path class="st0" d="M1252.3,415h0.3c0.6,0,0.9,0.3,1,1c0,0.6-0.8,0.9-2.4,0.9c-2.5,1-4.2,2.4-5.1,4.2l-0.2,0.9v0.2
			c0,0.9,0.6,1.3,1.8,1.3l3.3-0.2c2.2,0,3.7,1.1,4.5,3.2l0.2,1c0,2.1-1.7,4-5,5.7c-1,0.3-1.9,0.5-2.6,0.6c-2,0-3.5-1.1-4.3-3.5
			c-0.2-0.8-0.4-1.6-0.4-2.4c0-0.2,0.2-0.5,0.6-0.8h0.4c0.6,0,0.9,0.8,0.9,2.4c0.5,1.6,1.3,2.3,2.5,2.3h0.8c1.6,0,3.2-0.9,4.8-2.8
			c0.4-0.6,0.6-1.2,0.6-2c0-1-0.8-1.7-2.3-2.1h-0.1l-3.9,0.1c-2.2-0.3-3.3-1.2-3.3-2.7l-0.1-0.4c0-2.1,1.5-4.1,4.6-6
			C1250,415.4,1251.2,415,1252.3,415z"/>
		<path class="st0" d="M1258.1,423.7l0.5-0.3c0.5,0,0.8,0.3,1,0.9c-0.3,1.5-0.5,3-0.5,4.6c0,0.8,0.2,1.6,0.7,2.5h0.2
			c0.6,0,1.3-2.3,2.1-6.9c0.3-0.2,0.5-0.4,0.8-0.4c0.6,0,0.9,1.1,0.9,3.3c0.3,2.4,0.5,3.6,0.9,3.6l0.5-0.2c0.6,0.2,0.9,0.5,0.9,0.9
			c-0.4,0.8-0.9,1.1-1.5,1.1c-0.7,0-1.4-0.7-2.1-2.2c-0.8,1.7-1.6,2.5-2.4,2.5c-1.2,0-2.1-1.3-2.5-3.8l-0.1-1v-0.3
			C1257.4,426.7,1257.6,425.2,1258.1,423.7z"/>
		<path class="st0" d="M1272.7,420.6c0.5,0,0.9,0.9,1.1,2.7c-0.2,0.5-0.5,0.8-1,0.8c-0.3-0.1-0.6-0.4-1-1.1l-0.5-0.2
			c-0.9,0-1.8,0.6-2.6,1.9v0.3c0,0.3,1.4,0.8,4.2,1.5c1.2,0.7,1.8,1.5,1.8,2.5c0,1.6-1.3,3-4,4.2l-1.1,0.2c-1.7-0.2-2.5-1-2.5-2.5
			v-0.1c0-0.5,0.3-0.8,0.9-0.8c0.5,0,0.8,0.5,1,1.5l0.2,0.2h0.5c1.1,0,2.2-0.8,3.2-2.3v-0.4c0-0.6-1.3-1.2-3.9-1.7
			c-1.4-0.6-2.1-1.3-2.1-2.3c0-1.3,1.1-2.5,3.3-3.7C1271.2,421.1,1272,420.9,1272.7,420.6z"/>
		<path class="st0" d="M1279.4,414.5c0.6,0.1,0.8,0.4,0.8,0.8l-0.2,1.3v0.4c0,0.9,0.1,1.8,0.3,2.8h0.1c2.3-0.7,3.8-1,4.3-1
			c0.6,0.2,0.9,0.4,0.9,0.9c0,0.7-0.7,1-2.1,1l-3.1,1.1c0,2.7,0.3,6.4,0.9,11c-0.1,0.5-0.4,0.8-0.9,0.8h-0.1c-0.7,0-1-0.9-1-2.7
			c-0.3-1.3-0.5-4.2-0.7-8.7h-0.5c-1.9-0.1-2.8-0.6-2.8-1.3c0-0.2,0.2-0.5,0.6-0.8h0.3l1.4,0.4h1l-0.3-3.8
			C1278.3,415.3,1278.7,414.5,1279.4,414.5z"/>
		<path class="st0" d="M1292.1,421.2c0.9,0,1.3,0.3,1.3,1l-0.3,0.6l-0.2,5.5c0,2.5,0.5,4,1.5,4.6l0.1,0.5c-0.1,0.6-0.3,0.9-0.8,0.9
			h-0.2c-1.5-1-2.2-2.6-2.2-4.7h-0.2c-0.8,2.2-1.8,3.4-2.9,3.4c-1.1-0.3-1.6-1.1-1.6-2.4c0-2.8,1.1-5.6,3.4-8.4
			C1290.8,421.5,1291.5,421.2,1292.1,421.2z M1288.5,429.3l-0.1,0.8v0.6h0.3c1.5-3.7,2.2-6,2.2-6.8h-0.1
			C1289.7,425.2,1288.9,427,1288.5,429.3z"/>
		<path class="st0" d="M1295.6,417.1c0.8,0.2,1.1,0.5,1.1,1c-0.2,0.6-0.5,0.8-1,0.8c-0.7-0.1-1.1-0.5-1.1-1.1
			C1294.9,417.4,1295.2,417.1,1295.6,417.1z M1296.8,421.3c0.3,0,0.6,0.3,0.8,0.9l-0.3,2.1v1.4c0,1.6,0.3,3.8,0.8,6.5
			c-0.2,0.4-0.5,0.6-1,0.6c-0.8,0-1.4-2.4-1.6-7.2v-1C1295.5,422.4,1295.9,421.3,1296.8,421.3z"/>
		<path class="st0" d="M1303.6,422.6c1.7,0.1,2.5,1,2.5,2.5l0.1,0.4l-0.1,4.7c0,0.5,0.3,1.3,0.9,2.2v0.1c-0.2,0.6-0.5,0.9-0.9,0.9
			c-1.2-0.5-1.9-1.6-1.9-3.3v-0.4l-0.1-0.1l0.1-0.1v-0.1l0.1-4.1c0-0.6-0.2-0.9-0.8-0.9h-0.4c-1,0.4-1.5,2.6-1.5,6.6
			c0,1.4-0.4,2.1-1.1,2.1c-0.5,0-0.8-0.3-0.8-1v-3c0-3.9,0.3-5.8,1-5.8l0.3-0.1l0.6,0.1C1302.4,422.8,1303,422.6,1303.6,422.6z"/>
		<path class="st0" d="M1308.4,417.1c0.8,0.2,1.1,0.5,1.1,1c-0.2,0.6-0.5,0.8-1,0.8c-0.7-0.1-1.1-0.5-1.1-1.1
			C1307.6,417.4,1307.9,417.1,1308.4,417.1z M1309.5,421.3c0.3,0,0.6,0.3,0.8,0.9l-0.3,2.1v1.4c0,1.6,0.3,3.8,0.8,6.5
			c-0.2,0.4-0.5,0.6-1,0.6c-0.8,0-1.4-2.4-1.6-7.2v-1C1308.2,422.4,1308.7,421.3,1309.5,421.3z"/>
		<path class="st0" d="M1316.3,422.6c1.7,0.1,2.5,1,2.5,2.5l0.1,0.4l-0.1,4.7c0,0.5,0.3,1.3,0.9,2.2v0.1c-0.2,0.6-0.5,0.9-0.9,0.9
			c-1.2-0.5-1.9-1.6-1.9-3.3v-0.4l-0.1-0.1l0.1-0.1v-0.1l0.1-4.1c0-0.6-0.2-0.9-0.8-0.9h-0.4c-1,0.4-1.5,2.6-1.5,6.6
			c0,1.4-0.4,2.1-1.1,2.1c-0.5,0-0.8-0.3-0.8-1v-3c0-3.9,0.3-5.8,1-5.8l0.3-0.1l0.6,0.1C1315.1,422.8,1315.7,422.6,1316.3,422.6z"/>
		<path class="st0" d="M1325.6,421.2c0.9,0,1.4,0.4,1.4,1.3c0.1,0,0.2,0.2,0.2,0.5h0.1l-0.1,0.9l0.1,6.1l-0.2,4.8c1.8,0,3,1.3,3.6,4
			c0,0.5-0.4,0.9-1.1,0.9c-0.3,0-0.7-0.8-1.1-2.2c-0.4-0.6-0.9-0.9-1.4-0.9h-0.1c-0.6,4.3-1.2,6.4-1.7,6.4c-0.6,1.1-1.4,1.6-2.5,1.6
			c-1.6-0.4-2.4-1.2-2.4-2.4v-0.2c0-1.9,1.3-3.9,4-6.1l0.9-0.6l0.1-3.2v-0.8h-0.1c-0.7,0.9-1.3,1.3-2,1.3h-0.2
			c-1.4,0-2.2-1.1-2.4-3.2v-0.7c0-2.6,0.9-4.8,2.8-6.7C1324.2,421.5,1324.8,421.2,1325.6,421.2z M1322.1,441.9
			c0.1,0.5,0.4,0.8,0.8,0.8c1,0,1.7-1.7,2.1-5.1h-0.2C1323,439.1,1322.1,440.6,1322.1,441.9z M1322.6,428.3v1.4c0.1,0.7,0.2,1,0.5,1
			h0.3c0.6,0,1.2-2.1,2.1-6.2V423C1324.2,423,1323.2,424.8,1322.6,428.3z"/>
		<path class="st0" d="M1246.7,452.1c0.5,0,0.8,0.2,0.9,0.8l-0.2,1.8v0.6c0.5,4.1,0.8,7.4,0.9,9.7c0.2,2.1,0.4,3.2,0.7,3.2
			c0,0.4-0.3,0.7-1,0.8c-1,0-1.5-2-1.5-6.1l-0.8-7.8v-0.3C1245.7,453,1246,452.1,1246.7,452.1z"/>
		<path class="st0" d="M1254.5,458.6c1.7,0.1,2.5,1,2.5,2.5l0.1,0.4l-0.1,4.7c0,0.5,0.3,1.3,0.9,2.2v0.1c-0.2,0.6-0.5,0.9-0.9,0.9
			c-1.2-0.5-1.9-1.6-1.9-3.3v-0.4l-0.1-0.1l0.1-0.1v-0.1l0.1-4.1c0-0.6-0.2-0.9-0.8-0.9h-0.4c-1,0.4-1.5,2.6-1.5,6.6
			c0,1.4-0.4,2.1-1.1,2.1c-0.5,0-0.8-0.3-0.8-1v-3c0-3.9,0.3-5.8,1-5.8l0.3-0.1l0.6,0.1C1253.3,458.8,1253.9,458.6,1254.5,458.6z"/>
		<path class="st0" d="M1262.8,458.6c1.7,0.1,2.5,1,2.5,2.5l0.1,0.4l-0.1,4.7c0,0.5,0.3,1.3,0.9,2.2v0.1c-0.2,0.6-0.5,0.9-0.9,0.9
			c-1.2-0.5-1.9-1.6-1.9-3.3v-0.4l-0.1-0.1l0.1-0.1v-0.1l0.1-4.1c0-0.6-0.2-0.9-0.8-0.9h-0.4c-1,0.4-1.5,2.6-1.5,6.6
			c0,1.4-0.4,2.1-1.1,2.1c-0.5,0-0.8-0.3-0.8-1v-3c0-3.9,0.3-5.8,1-5.8l0.3-0.1l0.6,0.1C1261.6,458.8,1262.2,458.6,1262.8,458.6z"/>
		<path class="st0" d="M1272,457.4c1.5,0,2.6,1.1,3.4,3.3l0.1,0.6c0,2.1-1,4.3-3,6.6c-0.8,0.7-1.6,1.1-2.4,1.1c-1.2,0-2-0.7-2.5-2.1
			c-0.2-0.6-0.3-1.2-0.3-1.7v-0.4c0-3.2,1.1-5.6,3.4-7.2C1271.1,457.5,1271.5,457.4,1272,457.4z M1269,465.2c0,1.4,0.3,2,1,2
			c1.5,0,2.7-1.9,3.6-5.6v-0.6c-0.3-1.2-1-1.9-1.9-1.9c-0.4,0-0.5,0.2-0.5,0.8c0,0.3-0.4,0.6-1.2,0.8
			C1269.3,462,1269,463.5,1269,465.2z"/>
		<path class="st0" d="M1277.2,458.6c0.5,0,1,1.1,1.5,3.3c0.8,1.8,1.2,2.7,1.3,2.8c0.1,0,0.5-1,1.1-3c0.6-2,1.2-3,1.8-3
			c0.5,0.2,0.8,0.5,0.8,1c-1.7,4.3-2.5,7.1-2.5,8.5l-0.6,0.6h-0.6c-0.7-0.5-1.9-3.3-3.7-8.2l-0.3-1.1
			C1276.4,458.9,1276.7,458.6,1277.2,458.6z"/>
		<path class="st0" d="M1290.7,457.2c0.9,0,1.3,0.3,1.3,1l-0.3,0.6l-0.2,5.5c0,2.5,0.5,4,1.5,4.6l0.1,0.5c-0.1,0.6-0.3,0.9-0.8,0.9
			h-0.2c-1.5-1-2.2-2.6-2.2-4.7h-0.2c-0.8,2.2-1.8,3.4-2.9,3.4c-1.1-0.3-1.6-1.1-1.6-2.4c0-2.8,1.1-5.6,3.4-8.4
			C1289.3,457.5,1290,457.2,1290.7,457.2z M1287,465.3l-0.1,0.8v0.6h0.3c1.5-3.7,2.2-6,2.2-6.8h-0.1
			C1288.2,461.2,1287.4,463,1287,465.3z"/>
		<path class="st0" d="M1297.3,450.5c0.6,0.1,0.8,0.4,0.8,0.8l-0.2,1.3v0.4c0,0.9,0.1,1.8,0.3,2.8h0.1c2.3-0.7,3.8-1,4.3-1
			c0.6,0.2,0.9,0.4,0.9,0.9c0,0.7-0.7,1-2.1,1l-3.1,1.1c0,2.7,0.3,6.4,0.9,11c-0.1,0.5-0.4,0.8-0.9,0.8h-0.1c-0.7,0-1-0.9-1-2.7
			c-0.3-1.3-0.5-4.2-0.7-8.7h-0.5c-1.9-0.1-2.8-0.6-2.8-1.3c0-0.2,0.2-0.5,0.6-0.8h0.3l1.4,0.4h1l-0.3-3.8
			C1296.2,451.3,1296.6,450.5,1297.3,450.5z"/>
		<path class="st0" d="M1304.8,453.1c0.8,0.2,1.1,0.5,1.1,1c-0.2,0.6-0.5,0.8-1,0.8c-0.7-0.1-1.1-0.5-1.1-1.1
			C1304.1,453.4,1304.4,453.1,1304.8,453.1z M1306,457.3c0.3,0,0.6,0.3,0.8,0.9l-0.3,2.1v1.4c0,1.6,0.3,3.8,0.8,6.5
			c-0.2,0.4-0.5,0.6-1,0.6c-0.8,0-1.4-2.4-1.6-7.2v-1C1304.7,458.4,1305.1,457.3,1306,457.3z"/>
		<path class="st0" d="M1313.7,457.4c1.5,0,2.6,1.1,3.4,3.3l0.1,0.6c0,2.1-1,4.3-3,6.6c-0.8,0.7-1.6,1.1-2.4,1.1
			c-1.2,0-2-0.7-2.5-2.1c-0.2-0.6-0.3-1.2-0.3-1.7v-0.4c0-3.2,1.1-5.6,3.4-7.2C1312.7,457.5,1313.2,457.4,1313.7,457.4z
			 M1310.7,465.2c0,1.4,0.3,2,1,2c1.5,0,2.7-1.9,3.6-5.6v-0.6c-0.3-1.2-1-1.9-1.9-1.9c-0.4,0-0.5,0.2-0.5,0.8c0,0.3-0.4,0.6-1.2,0.8
			C1311,462,1310.7,463.5,1310.7,465.2z"/>
		<path class="st0" d="M1322.4,458.6c1.7,0.1,2.5,1,2.5,2.5l0.1,0.4l-0.1,4.7c0,0.5,0.3,1.3,0.9,2.2v0.1c-0.2,0.6-0.5,0.9-0.9,0.9
			c-1.2-0.5-1.9-1.6-1.9-3.3v-0.4l-0.1-0.1l0.1-0.1v-0.1l0.1-4.1c0-0.6-0.3-0.9-0.8-0.9h-0.4c-1,0.4-1.5,2.6-1.5,6.6
			c0,1.4-0.4,2.1-1,2.1c-0.5,0-0.8-0.3-0.8-1v-3c0-3.9,0.3-5.8,1-5.8l0.3-0.1l0.6,0.1C1321.2,458.8,1321.8,458.6,1322.4,458.6z"/>
	</g>
	<g>
		<path class="st0" d="M1338.6,205.6c0.4,0,0.6,0.3,0.8,0.9c0,0.4-0.6,0.9-1.9,1.5c-1.6,1.4-2.7,3.7-3.5,7v0.5
			c1.7-0.9,3-1.4,3.8-1.6c0.2,0,0.5,0.2,0.9,0.6v0.6c0,0.2-0.9,0.7-2.6,1.3c-1.3,0.7-2,1.1-2,1.2v0.3c0,1.1,0.7,2.1,2.2,2.9l1,0.2
			c0.7,0,1.6-0.4,2.9-1.2h0.4c0.4,0.2,0.6,0.5,0.6,0.9v0.2c-1.2,1.3-2.6,2-4.1,2c-2.1,0-3.7-1.4-4.7-4.3l-1.9,0.4
			c-0.9-0.1-1.4-0.4-1.4-0.9c0-0.5,0.3-0.8,0.8-1l0.7,0.1c1-0.3,1.6-0.5,1.6-0.7c0-3.4,1.3-6.5,3.9-9.5
			C1337.2,206.1,1338.1,205.6,1338.6,205.6z"/>
		<path class="st0" d="M1347.2,209.4c0.9,0,1.6,1,2,3v0.1c0,0.5-0.3,0.7-0.9,0.8c-0.5,0-0.8-0.6-1-1.9l-0.1-0.1h-0.4
			c-0.4,0.6-0.7,1.5-0.7,2.5l0.1,1.5c0.8,0,1.7-0.2,2.6-0.6c0.4,0,0.7,0.3,1,0.8c0,0.8-1.1,1.4-3.4,1.6l0.8,4.9c0,0.4-0.3,0.7-1,0.8
			c-0.6,0-0.9-1-0.9-2.9l-0.6-2.6l-2,0.3c-0.4,0-0.7-0.3-0.8-0.9c0-0.6,0.8-1,2.4-1.1l-0.1-1.9
			C1344.5,210.8,1345.5,209.4,1347.2,209.4z"/>
		<path class="st0" d="M1355.3,209.4c0.9,0,1.6,1,2,3v0.1c0,0.5-0.3,0.7-0.9,0.8c-0.5,0-0.8-0.6-1-1.9l-0.1-0.1h-0.4
			c-0.4,0.6-0.7,1.5-0.7,2.5l0.1,1.5c0.8,0,1.7-0.2,2.6-0.6c0.4,0,0.7,0.3,1,0.8c0,0.8-1.1,1.4-3.4,1.6l0.8,4.9c0,0.4-0.3,0.7-1,0.8
			c-0.6,0-0.9-1-0.9-2.9l-0.6-2.6l-2,0.3c-0.4,0-0.7-0.3-0.8-0.9c0-0.6,0.8-1,2.4-1.1l-0.1-1.9
			C1352.6,210.8,1353.6,209.4,1355.3,209.4z"/>
		<path class="st0" d="M1359,207.2c0.8,0.2,1.1,0.5,1.1,1c-0.2,0.6-0.5,0.8-1,0.8c-0.7-0.1-1.1-0.5-1.1-1.1
			C1358.3,207.5,1358.6,207.2,1359,207.2z M1360.2,211.4c0.3,0,0.6,0.3,0.8,0.9l-0.3,2.1v1.4c0,1.6,0.3,3.8,0.8,6.5
			c-0.2,0.4-0.5,0.6-1,0.6c-0.8,0-1.4-2.4-1.6-7.2v-1C1358.9,212.5,1359.3,211.4,1360.2,211.4z"/>
		<path class="st0" d="M1366.2,212.7l1.2-0.2c0.5,0,0.8,0.3,0.8,0.9c0,0.5-0.7,0.9-2,1c-0.8,0.6-1.2,1.5-1.2,2.5v1
			c0.4,2.2,1.1,3.3,2,3.3h0.3c0.6,0,1.4-0.5,2.5-1.6h0.2c0.4,0,0.7,0.3,1,0.8c-0.3,0.9-1.2,1.6-2.7,2.3c-0.3,0.1-0.6,0.2-1.1,0.2
			c-2.1,0-3.4-1.6-4-4.9v-0.7C1363.3,215.2,1364.2,213.6,1366.2,212.7z"/>
		<path class="st0" d="M1372.9,207.2c0.8,0.2,1.1,0.5,1.1,1c-0.2,0.6-0.5,0.8-1,0.8c-0.7-0.1-1.1-0.5-1.1-1.1
			C1372.2,207.5,1372.5,207.2,1372.9,207.2z M1374,211.4c0.3,0,0.6,0.3,0.8,0.9l-0.3,2.1v1.4c0,1.6,0.3,3.8,0.8,6.5
			c-0.2,0.4-0.5,0.6-1,0.6c-0.8,0-1.4-2.4-1.6-7.2v-1C1372.8,212.5,1373.2,211.4,1374,211.4z"/>
		<path class="st0" d="M1379.7,212.1c0.8,0,2.2,1.4,4.1,4.2l0.1,0.5c0,0.6-1.4,1-4.1,1.3l-0.1,0.1v0.1c0.4,1.8,0.9,2.7,1.3,2.7h0.4
			c0.6,0,1.6-0.7,2.9-2.1h0.2c0.4,0,0.7,0.3,0.9,0.9c0,0.5-0.8,1.3-2.5,2.5c-0.4,0.3-1,0.4-1.6,0.6c-1.6,0-2.8-1.5-3.4-4.6
			c-0.9-0.1-1.4-0.5-1.4-1.1c0-0.4,0.3-0.7,1-0.9v0.1l0.3-0.1v-0.8C1377.7,213.2,1378.4,212.1,1379.7,212.1z M1379.8,214.3h-0.3
			l-0.1,1.1v0.9h0.1c1.1,0,1.7-0.2,1.7-0.4C1380.7,215.2,1380.3,214.6,1379.8,214.3z"/>
		<path class="st0" d="M1390.3,212.8c1.7,0.1,2.5,1,2.5,2.5l0.1,0.4l-0.1,4.7c0,0.5,0.3,1.3,0.9,2.2v0.1c-0.2,0.6-0.5,0.9-0.9,0.9
			c-1.2-0.5-1.9-1.6-1.9-3.3v-0.4l-0.1-0.1l0.1-0.1v-0.1l0.1-4.1c0-0.6-0.3-0.9-0.8-0.9h-0.4c-1,0.4-1.5,2.6-1.5,6.6
			c0,1.4-0.4,2.1-1,2.1c-0.5,0-0.8-0.3-0.8-1v-3c0-3.9,0.3-5.8,1-5.8l0.3-0.1l0.6,0.1C1389.1,212.9,1389.7,212.8,1390.3,212.8z"/>
		<path class="st0" d="M1397.8,212.7l1.2-0.2c0.5,0,0.8,0.3,0.8,0.9c0,0.5-0.7,0.9-1.9,1c-0.8,0.6-1.2,1.5-1.2,2.5v1
			c0.4,2.2,1.1,3.3,2,3.3h0.3c0.6,0,1.4-0.5,2.5-1.6h0.2c0.4,0,0.7,0.3,1,0.8c-0.3,0.9-1.2,1.6-2.7,2.3c-0.3,0.1-0.6,0.2-1,0.2
			c-2.1,0-3.4-1.6-4-4.9v-0.7C1394.9,215.2,1395.9,213.6,1397.8,212.7z"/>
		<path class="st0" d="M1405.1,213.9c0.7,0,1.2,1.5,1.4,4.6c0.3,1.4,0.6,2.1,0.8,2.1h0.2c0.5-1.3,0.8-2.5,0.8-3.8l-0.2-2.1
			c0.2-0.5,0.5-0.8,0.9-0.8c0.7,0,1.1,1.3,1.1,3.9c0.4,2.7,0.7,5.2,0.7,7.6v1.4c0,4.3-1.2,7.2-3.7,8.7l-0.7,0.1
			c-1.1,0-2.2-1.1-3.2-3.2l-0.3-1.8v-0.1c0-1.3,0.4-2,1.1-2l0.8,0.5l-0.1,1.9c0,0.9,0.5,1.8,1.4,2.8h0.4c1.1,0,1.9-2.1,2.4-6.3
			l0.1-1.7c0-2-0.1-3.3-0.2-3.9c-0.8,0.7-1.4,1.1-1.9,1.1c-1,0-1.9-2.7-2.7-8.2l-0.1-0.1C1404.1,214.3,1404.4,214,1405.1,213.9z"/>
	</g>
	<g>
		<path class="st0" d="M1073.7,141.7L1073.7,141.7c0.6,0.3,0.8,0.6,0.8,0.9l-0.8,5.7c0,2.1,0.6,6.4,1.9,12.9l1.5,3.8
			c0,0.3-0.2,0.5-0.6,0.9h-0.6c-0.4-0.1-1-1.4-1.8-3.7c-0.5-1.9-1-4.8-1.6-8.7h-0.2c-1.2,3.4-2,5.2-2.5,5.3l-0.5,0.1
			c-0.4,0-0.9-0.8-1.6-2.5h-0.2c-0.2,4.9-0.7,7.4-1.4,7.4h-0.1c-0.6,0-1-0.5-1-1.5c0.5-1.9,0.8-3.9,0.8-6l-0.8-8v-0.6
			c0-0.8,0.3-1.1,0.8-1.1c0.8,0,1.5,1.5,2.1,4.6c0.9,2.8,1.4,4.3,1.6,4.5c0.5-0.7,0.9-2,1.4-3.8c0.4-0.9,0.7-2.4,1-4.4l-0.1-0.1
			l0.1-0.5v-0.2C1072.2,143.4,1072.8,141.7,1073.7,141.7z"/>
		<path class="st0" d="M1083.7,152c0.9,0,1.3,0.4,1.3,1.1l-0.3,0.6l-0.2,5.5c0,2.5,0.5,4,1.5,4.6l0.1,0.5c-0.1,0.6-0.3,0.9-0.8,0.9
			h-0.2c-1.5-1-2.2-2.6-2.2-4.7h-0.2c-0.8,2.2-1.8,3.4-2.9,3.4c-1.1-0.3-1.6-1.1-1.6-2.4c0-2.8,1.1-5.6,3.4-8.4
			C1082.4,152.3,1083.1,152,1083.7,152z M1080.1,160.2l-0.1,0.8v0.6h0.3c1.5-3.7,2.2-6,2.2-6.8h-0.1
			C1081.2,156,1080.5,157.8,1080.1,160.2z"/>
		<path class="st0" d="M1090.4,145.4c0.6,0.1,0.8,0.4,0.8,0.8l-0.2,1.3v0.4c0,0.9,0.1,1.8,0.3,2.8h0.1c2.3-0.7,3.8-1,4.3-1
			c0.6,0.2,0.9,0.4,0.9,0.9c0,0.7-0.7,1-2.1,1l-3.1,1.1c0,2.7,0.3,6.4,0.9,11c-0.1,0.5-0.4,0.8-0.9,0.8h-0.1c-0.7,0-1-0.9-1-2.7
			c-0.3-1.3-0.5-4.2-0.7-8.7h-0.5c-1.9-0.1-2.8-0.6-2.8-1.3c0-0.2,0.2-0.5,0.6-0.8h0.3l1.4,0.4h1l-0.3-3.8
			C1089.3,146.1,1089.7,145.4,1090.4,145.4z"/>
		<path class="st0" d="M1098.7,154.6l0.5-0.3c0.5,0,0.8,0.3,1,0.9c-0.3,1.5-0.5,3-0.5,4.6c0,0.8,0.2,1.6,0.7,2.5h0.2
			c0.6,0,1.3-2.3,2.1-6.9c0.3-0.2,0.5-0.4,0.8-0.4c0.6,0,0.9,1.1,0.9,3.3c0.3,2.4,0.5,3.6,0.9,3.6l0.5-0.2c0.6,0.2,0.9,0.5,0.9,0.9
			c-0.4,0.8-0.9,1.1-1.5,1.1c-0.7,0-1.4-0.7-2.1-2.2c-0.8,1.7-1.6,2.5-2.4,2.5c-1.2,0-2.1-1.3-2.5-3.8l-0.1-1v-0.3
			C1098.1,157.5,1098.3,156,1098.7,154.6z"/>
		<path class="st0" d="M1111.3,151.8c1.3,0,2,0.9,2.2,2.6v0.3c0,1.9-1,3.7-3,5.3c1.2,1.1,3.2,1.7,6.1,1.7c0.4,0.1,0.7,0.4,0.7,0.9
			c0,0.5-0.4,0.8-1,0.8c-2,0-4-0.5-6.2-1.5v0.9c0,2.1-0.4,3.1-1.3,3.1c-0.6,0-0.9-1.2-0.9-3.6V160l-0.1-0.8l0.2-1l-0.2-2.9v-0.1
			c0-0.5,0.3-0.9,0.8-1.1C1109.3,152.5,1110.3,151.8,1111.3,151.8z M1109.8,158.3c0.6,0,1.2-1,2-3.1v-1.3l-0.4-0.4h-0.3
			C1110.2,154.1,1109.8,155.7,1109.8,158.3z"/>
		<path class="st0" d="M1121,152.8c0.8,0,2.2,1.4,4,4.2l0.1,0.5c0,0.6-1.4,1-4.1,1.3l-0.1,0.1v0.1c0.4,1.8,0.9,2.7,1.3,2.7h0.4
			c0.6,0,1.6-0.7,2.9-2.1h0.2c0.4,0,0.7,0.3,0.9,0.9c0,0.5-0.8,1.3-2.5,2.5c-0.4,0.3-1,0.4-1.6,0.6c-1.6,0-2.8-1.5-3.4-4.6
			c-0.9-0.1-1.4-0.5-1.4-1.1c0-0.4,0.3-0.7,1-0.9v0.1l0.3-0.1v-0.8C1119,154,1119.7,152.8,1121,152.8z M1121.2,155h-0.3l-0.1,1.1
			v0.9h0.1c1.1,0,1.7-0.2,1.7-0.4C1122.1,155.9,1121.6,155.3,1121.2,155z"/>
		<path class="st0" d="M1066.2,181.3c0.9,0,1.5,0.7,1.7,2.2v0.1c0,0.7-0.4,2.3-1.2,4.7l1.4-0.3c1.7,0,2.7,1.1,3,3.3v0.5
			c0,2.6-1.7,5.1-5,7.2c-1.1,0.4-1.9,0.6-2.3,0.6c-1.6,0-2.7-0.9-3.4-2.8c0-0.2,0.3-0.5,0.8-0.9c0.2-9,0.4-13.6,0.6-13.6
			c0.3-0.3,0.7-0.5,0.9-0.5c0.5,0.2,0.8,0.5,0.8,1h0.1C1064.4,181.8,1065.3,181.3,1066.2,181.3z M1064.4,192.8l-0.5,0.2l-0.8-0.1
			v0.1l-0.1,0.4v3.1l-0.1,1.1l0.7,0.2c1.7,0,3.4-1.3,5-3.8c0.5-1.1,0.7-2.1,0.7-2.8c0-0.9-0.4-1.4-1.3-1.4h-0.1
			C1067,189.8,1065.8,190.8,1064.4,192.8z M1063.3,191h0.1c1.6-3.1,2.5-5.5,2.6-7.2v-0.7h-0.3c-0.4,0-1,1.1-1.7,3.4
			C1063.5,188.6,1063.3,190.1,1063.3,191z"/>
		<path class="st0" d="M1073.5,190.6l0.5-0.3c0.5,0,0.8,0.3,1,0.9c-0.3,1.5-0.5,3-0.5,4.6c0,0.8,0.2,1.6,0.7,2.5h0.2
			c0.6,0,1.3-2.3,2.1-6.9c0.3-0.2,0.5-0.4,0.8-0.4c0.6,0,0.9,1.1,0.9,3.3c0.3,2.4,0.5,3.6,0.9,3.6l0.4-0.2c0.6,0.2,0.9,0.5,0.9,0.9
			c-0.4,0.8-0.9,1.1-1.5,1.1c-0.7,0-1.4-0.7-2.1-2.2c-0.8,1.7-1.6,2.5-2.4,2.5c-1.2,0-2.1-1.3-2.5-3.8l-0.1-1v-0.3
			C1072.8,193.5,1073,192,1073.5,190.6z"/>
		<path class="st0" d="M1088.1,187.4c0.5,0,0.9,0.9,1.1,2.7c-0.2,0.5-0.5,0.8-1,0.8c-0.3-0.1-0.6-0.4-1-1.1l-0.5-0.2
			c-0.9,0-1.8,0.6-2.6,1.9v0.3c0,0.3,1.4,0.8,4.2,1.5c1.2,0.7,1.8,1.6,1.8,2.6c0,1.6-1.3,3-4,4.2l-1.1,0.2c-1.7-0.2-2.5-1-2.5-2.5
			v-0.1c0-0.5,0.3-0.8,0.9-0.8c0.5,0,0.8,0.5,1,1.5l0.2,0.2h0.5c1.1,0,2.2-0.8,3.2-2.3v-0.4c0-0.6-1.3-1.2-3.9-1.7
			c-1.4-0.6-2.1-1.3-2.1-2.3c0-1.3,1.1-2.5,3.3-3.7C1086.6,187.9,1087.4,187.7,1088.1,187.4z"/>
		<path class="st0" d="M1091.6,184c0.8,0.2,1.1,0.5,1.1,1c-0.2,0.6-0.5,0.8-1,0.8c-0.7-0.1-1.1-0.5-1.1-1.1
			C1090.9,184.2,1091.2,184,1091.6,184z M1092.8,188.2c0.3,0,0.6,0.3,0.8,0.9l-0.3,2.1v1.4c0,1.6,0.3,3.8,0.8,6.5
			c-0.2,0.4-0.5,0.6-1,0.6c-0.8,0-1.4-2.4-1.6-7.2v-1C1091.5,189.2,1091.9,188.2,1092.8,188.2z"/>
		<path class="st0" d="M1099.6,189.5c1.7,0.1,2.5,1,2.5,2.5l0.1,0.4l-0.1,4.7c0,0.5,0.3,1.3,0.9,2.2v0.1c-0.2,0.6-0.5,0.9-0.9,0.9
			c-1.2-0.5-1.9-1.6-1.9-3.3v-0.4l-0.1-0.1l0.1-0.1v-0.1l0.1-4.1c0-0.6-0.2-0.9-0.8-0.9h-0.4c-1,0.4-1.5,2.6-1.5,6.6
			c0,1.4-0.4,2.1-1.1,2.1c-0.5,0-0.8-0.3-0.8-1v-3c0-3.9,0.3-5.8,1-5.8l0.3-0.1l0.6,0.1C1098.4,189.7,1099,189.5,1099.6,189.5z"/>
		<path class="st0" d="M1106.7,188.8c0.8,0,2.2,1.4,4,4.2l0.1,0.5c0,0.6-1.4,1-4.1,1.3l-0.1,0.1v0.1c0.4,1.8,0.9,2.7,1.3,2.7h0.4
			c0.6,0,1.6-0.7,2.9-2.1h0.2c0.4,0,0.7,0.3,0.9,0.9c0,0.5-0.8,1.3-2.5,2.5c-0.4,0.3-1,0.4-1.6,0.6c-1.6,0-2.8-1.5-3.4-4.6
			c-0.9-0.1-1.4-0.5-1.4-1.1c0-0.4,0.3-0.7,1-0.9v0.1l0.3-0.1v-0.8C1104.7,190,1105.4,188.8,1106.7,188.8z M1106.9,191h-0.3
			l-0.1,1.1v0.9h0.1c1.1,0,1.7-0.2,1.7-0.4C1107.8,191.9,1107.3,191.3,1106.9,191z"/>
		<path class="st0" d="M1119.5,187.4c0.5,0,0.9,0.9,1.1,2.7c-0.2,0.5-0.5,0.8-1,0.8c-0.3-0.1-0.6-0.4-1-1.1l-0.5-0.2
			c-0.9,0-1.8,0.6-2.6,1.9v0.3c0,0.3,1.4,0.8,4.2,1.5c1.2,0.7,1.8,1.6,1.8,2.6c0,1.6-1.3,3-4,4.2l-1.1,0.2c-1.7-0.2-2.5-1-2.5-2.5
			v-0.1c0-0.5,0.3-0.8,0.9-0.8c0.5,0,0.8,0.5,1,1.5l0.2,0.2h0.5c1.1,0,2.2-0.8,3.2-2.3v-0.4c0-0.6-1.3-1.2-3.9-1.7
			c-1.4-0.6-2.1-1.3-2.1-2.3c0-1.3,1.1-2.5,3.3-3.7C1118,187.9,1118.8,187.7,1119.5,187.4z"/>
		<path class="st0" d="M1128.7,187.4c0.5,0,0.9,0.9,1.1,2.7c-0.2,0.5-0.5,0.8-1,0.8c-0.3-0.1-0.6-0.4-1-1.1l-0.5-0.2
			c-0.9,0-1.8,0.6-2.6,1.9v0.3c0,0.3,1.4,0.8,4.2,1.5c1.2,0.7,1.8,1.6,1.8,2.6c0,1.6-1.3,3-4,4.2l-1.1,0.2c-1.7-0.2-2.5-1-2.5-2.5
			v-0.1c0-0.5,0.3-0.8,0.9-0.8c0.5,0,0.8,0.5,1,1.5l0.2,0.2h0.5c1.1,0,2.2-0.8,3.2-2.3v-0.4c0-0.6-1.3-1.2-3.9-1.7
			c-1.4-0.6-2.1-1.3-2.1-2.3c0-1.3,1.1-2.5,3.3-3.7C1127.2,187.9,1128,187.7,1128.7,187.4z"/>
	</g>
	<g>
		<path class="st0" d="M922.2,203.3c2.8,0,5.5,1.5,8.2,4.5c0.8,1.6,1.2,3.1,1.2,4.6c0,3.5-1.8,6-5.3,7.7c-1.1,0.5-2.4,0.8-3.7,0.8
			h-0.8c-0.7,0-1.1-0.3-1.1-0.9h-0.1c0-0.5,0.3-0.8,1-0.8h0.7v-0.2h0.1c-1.2-5.3-1.9-9.2-1.9-11.7h-0.1l-0.8,0.5
			c-0.5,0-0.8-0.3-0.9-1c0-1.1,0.6-2.1,1.9-2.9C921.1,203.4,921.6,203.3,922.2,203.3z M922.5,205h-0.2v1.4c0,3.3,0.6,7.4,1.9,12.4
			h0.1c3.7-1,5.5-3.2,5.5-6.5c0-3.6-2.1-5.9-6.2-7.1C923.4,205.1,923,205,922.5,205z"/>
		<path class="st0" d="M935.4,210c0.8,0,2.1,1.4,4,4.2l0.1,0.5c0,0.6-1.4,1-4.1,1.3l-0.1,0.1v0.1c0.4,1.8,0.9,2.7,1.3,2.7h0.4
			c0.6,0,1.6-0.7,2.9-2.1h0.2c0.4,0,0.7,0.3,0.9,0.9c0,0.5-0.8,1.3-2.5,2.5c-0.4,0.3-1,0.4-1.6,0.6c-1.6,0-2.8-1.5-3.4-4.6
			c-0.9-0.1-1.4-0.5-1.4-1.1c0-0.4,0.3-0.7,1-0.9v0.1l0.3-0.1v-0.8C933.5,211.2,934.1,210,935.4,210z M935.6,212.2h-0.3l-0.1,1.1
			v0.9h0.1c1.1,0,1.7-0.2,1.7-0.4C936.5,213.1,936,212.5,935.6,212.2z"/>
		<path class="st0" d="M945.2,210.6l1.2-0.2c0.5,0,0.8,0.3,0.8,0.9c0,0.5-0.7,0.9-2,1c-0.8,0.6-1.2,1.5-1.2,2.5v1
			c0.4,2.2,1.1,3.3,2,3.3h0.3c0.6,0,1.4-0.5,2.5-1.6h0.2c0.4,0,0.7,0.3,1,0.8c-0.3,0.9-1.2,1.6-2.7,2.3c-0.3,0.1-0.6,0.2-1,0.2
			c-2.1,0-3.4-1.6-4-4.9v-0.7C942.3,213.1,943.3,211.5,945.2,210.6z"/>
		<path class="st0" d="M953.3,204.3c0.6,0.2,0.8,0.5,0.8,0.9l0.3,11.4v3.7c0,0.7-0.3,1-0.9,1h-0.4c-0.4-0.2-0.5-0.5-0.5-0.8V217
			l-0.3-11.9C952.4,204.6,952.7,204.3,953.3,204.3z"/>
		<path class="st0" d="M957,205.2c0.8,0.2,1.1,0.5,1.1,1c-0.2,0.6-0.5,0.8-1,0.8c-0.7-0.1-1.1-0.5-1.1-1.1
			C956.3,205.4,956.6,205.2,957,205.2z M958.1,209.4c0.3,0,0.6,0.3,0.8,0.9l-0.3,2.1v1.4c0,1.6,0.3,3.8,0.8,6.5
			c-0.2,0.4-0.5,0.6-1,0.6c-0.8,0-1.4-2.4-1.6-7.2v-1C956.9,210.4,957.3,209.4,958.1,209.4z"/>
		<path class="st0" d="M964.9,210.7c1.7,0.1,2.5,1,2.5,2.5l0.1,0.4l-0.1,4.7c0,0.5,0.3,1.3,0.9,2.2v0.1c-0.2,0.6-0.5,0.9-0.9,0.9
			c-1.2-0.5-1.9-1.6-1.9-3.3v-0.4l-0.1-0.1l0.1-0.1v-0.1l0.1-4.1c0-0.6-0.3-0.9-0.8-0.9h-0.4c-1,0.4-1.5,2.6-1.5,6.6
			c0,1.4-0.4,2.1-1.1,2.1c-0.5,0-0.8-0.3-0.8-1v-3c0-3.9,0.3-5.8,1-5.8l0.3-0.1l0.6,0.1C963.8,210.9,964.3,210.7,964.9,210.7z"/>
		<path class="st0" d="M969.7,205.2c0.8,0.2,1.1,0.5,1.1,1c-0.2,0.6-0.5,0.8-1,0.8c-0.7-0.1-1.1-0.5-1.1-1.1
			C969,205.4,969.3,205.2,969.7,205.2z M970.8,209.4c0.3,0,0.6,0.3,0.8,0.9l-0.3,2.1v1.4c0,1.6,0.3,3.8,0.8,6.5
			c-0.2,0.4-0.5,0.6-1,0.6c-0.8,0-1.4-2.4-1.6-7.2v-1C969.6,210.4,970,209.4,970.8,209.4z"/>
		<path class="st0" d="M977.7,210.7c1.7,0.1,2.5,1,2.5,2.5l0.1,0.4l-0.1,4.7c0,0.5,0.3,1.3,0.9,2.2v0.1c-0.2,0.6-0.5,0.9-0.9,0.9
			c-1.2-0.5-1.9-1.6-1.9-3.3v-0.4l-0.1-0.1l0.1-0.1v-0.1l0.1-4.1c0-0.6-0.3-0.9-0.8-0.9h-0.4c-1,0.4-1.5,2.6-1.5,6.6
			c0,1.4-0.4,2.1-1.1,2.1c-0.5,0-0.8-0.3-0.8-1v-3c0-3.9,0.3-5.8,1-5.8l0.3-0.1l0.6,0.1C976.5,210.9,977.1,210.7,977.7,210.7z"/>
		<path class="st0" d="M986.9,209.3c0.9,0,1.4,0.4,1.4,1.3c0.1,0,0.2,0.2,0.2,0.5h0.1l-0.1,0.9l0.1,6.1l-0.2,4.8c1.8,0,3,1.3,3.6,4
			c0,0.5-0.4,0.9-1.1,0.9c-0.3,0-0.7-0.8-1.1-2.2c-0.4-0.6-0.9-0.9-1.4-0.9h-0.1c-0.6,4.3-1.2,6.4-1.7,6.4c-0.6,1.1-1.4,1.6-2.5,1.6
			c-1.6-0.4-2.4-1.2-2.4-2.4v-0.2c0-1.9,1.3-3.9,4-6.1l0.9-0.6l0.1-3.2v-0.8h-0.1c-0.7,0.9-1.3,1.3-2,1.3h-0.2
			c-1.4,0-2.2-1.1-2.4-3.2v-0.7c0-2.6,0.9-4.8,2.8-6.7C985.5,209.5,986.2,209.3,986.9,209.3z M983.4,230c0.1,0.5,0.4,0.8,0.8,0.8
			c1,0,1.7-1.7,2.1-5.1h-0.2C984.3,227.2,983.4,228.6,983.4,230z M983.9,216.3v1.4c0.1,0.7,0.2,1,0.5,1h0.3c0.6,0,1.2-2.1,2.1-6.2
			V211C985.5,211,984.6,212.8,983.9,216.3z"/>
		<path class="st0" d="M924.5,238.5c0.9,0,1.5,0.7,1.7,2.2v0.1c0,0.7-0.4,2.3-1.2,4.7l1.4-0.3c1.7,0,2.7,1.1,3,3.3v0.5
			c0,2.6-1.7,5.1-5,7.2c-1.1,0.4-1.9,0.6-2.3,0.6c-1.6,0-2.7-0.9-3.4-2.8c0-0.2,0.3-0.5,0.8-0.9c0.2-9,0.4-13.6,0.6-13.6
			c0.3-0.3,0.6-0.5,0.9-0.5c0.5,0.2,0.8,0.5,0.8,1h0.1C922.7,239,923.6,238.5,924.5,238.5z M922.7,250l-0.5,0.2l-0.8-0.1v0.1
			l-0.1,0.4v3.1l-0.1,1.1l0.7,0.2c1.7,0,3.4-1.3,5-3.8c0.5-1.1,0.7-2.1,0.7-2.8c0-0.9-0.4-1.4-1.3-1.4h-0.1
			C925.3,247,924.1,248,922.7,250z M921.6,248.2h0.1c1.6-3.1,2.5-5.5,2.6-7.2v-0.7H924c-0.4,0-1,1.1-1.7,3.4
			C921.8,245.8,921.6,247.3,921.6,248.2z"/>
		<path class="st0" d="M931.8,247.8l0.5-0.3c0.5,0,0.8,0.3,1,0.9c-0.3,1.5-0.5,3-0.5,4.6c0,0.8,0.2,1.6,0.7,2.5h0.2
			c0.6,0,1.3-2.3,2.1-6.9c0.3-0.2,0.5-0.4,0.8-0.4c0.6,0,0.9,1.1,0.9,3.3c0.3,2.4,0.5,3.6,0.9,3.6l0.4-0.2c0.6,0.2,0.9,0.5,0.9,0.9
			c-0.4,0.8-0.9,1.1-1.5,1.1c-0.7,0-1.4-0.7-2.1-2.2c-0.8,1.7-1.6,2.5-2.4,2.5c-1.2,0-2.1-1.3-2.5-3.8l-0.1-1v-0.3
			C931.1,250.7,931.3,249.2,931.8,247.8z"/>
		<path class="st0" d="M946.4,244.6c0.5,0,0.9,0.9,1.1,2.7c-0.2,0.5-0.5,0.8-1,0.8c-0.3-0.1-0.6-0.4-1-1.1l-0.5-0.2
			c-0.9,0-1.8,0.6-2.6,1.9v0.3c0,0.3,1.4,0.8,4.2,1.5c1.2,0.7,1.8,1.6,1.8,2.6c0,1.6-1.3,3-4,4.2l-1.1,0.2c-1.7-0.2-2.5-1-2.5-2.5
			v-0.1c0-0.5,0.3-0.8,0.9-0.8c0.5,0,0.8,0.5,1,1.5l0.2,0.2h0.5c1.1,0,2.2-0.8,3.2-2.3v-0.4c0-0.6-1.3-1.2-3.9-1.7
			c-1.4-0.6-2.1-1.3-2.1-2.3c0-1.3,1.1-2.5,3.3-3.7C945,245.1,945.8,244.9,946.4,244.6z"/>
		<path class="st0" d="M950,241.2c0.8,0.2,1.1,0.5,1.1,1c-0.2,0.6-0.5,0.8-1,0.8c-0.7-0.1-1.1-0.5-1.1-1.1
			C949.2,241.4,949.5,241.2,950,241.2z M951.1,245.4c0.3,0,0.6,0.3,0.8,0.9l-0.3,2.1v1.4c0,1.6,0.3,3.8,0.8,6.5
			c-0.2,0.4-0.5,0.6-1,0.6c-0.8,0-1.4-2.4-1.6-7.2v-1C949.8,246.4,950.3,245.4,951.1,245.4z"/>
		<path class="st0" d="M957.9,246.7c1.7,0.1,2.5,1,2.5,2.5l0.1,0.4l-0.1,4.7c0,0.5,0.3,1.3,0.9,2.2v0.1c-0.2,0.6-0.5,0.9-0.9,0.9
			c-1.2-0.5-1.9-1.6-1.9-3.3v-0.4l-0.1-0.1l0.1-0.1v-0.1l0.1-4.1c0-0.6-0.3-0.9-0.8-0.9h-0.4c-1,0.4-1.5,2.6-1.5,6.6
			c0,1.4-0.4,2.1-1.1,2.1c-0.5,0-0.8-0.3-0.8-1v-3c0-3.9,0.3-5.8,1-5.8l0.3-0.1l0.6,0.1C956.7,246.9,957.3,246.7,957.9,246.7z"/>
		<path class="st0" d="M965,246c0.8,0,2.1,1.4,4,4.2l0.1,0.5c0,0.6-1.4,1-4.1,1.3l-0.1,0.1v0.1c0.4,1.8,0.9,2.7,1.3,2.7h0.4
			c0.6,0,1.6-0.7,2.9-2.1h0.2c0.4,0,0.7,0.3,0.9,0.9c0,0.5-0.8,1.3-2.5,2.5c-0.4,0.3-1,0.4-1.6,0.6c-1.6,0-2.8-1.5-3.4-4.6
			c-0.9-0.1-1.4-0.5-1.4-1.1c0-0.4,0.3-0.7,1-0.9v0.1l0.3-0.1v-0.8C963.1,247.2,963.7,246,965,246z M965.2,248.2h-0.3l-0.1,1.1v0.9
			h0.1c1.1,0,1.7-0.2,1.7-0.4C966.1,249.1,965.6,248.5,965.2,248.2z"/>
		<path class="st0" d="M977.8,244.6c0.5,0,0.9,0.9,1.1,2.7c-0.2,0.5-0.5,0.8-1,0.8c-0.3-0.1-0.6-0.4-1-1.1l-0.5-0.2
			c-0.9,0-1.8,0.6-2.6,1.9v0.3c0,0.3,1.4,0.8,4.2,1.5c1.2,0.7,1.8,1.6,1.8,2.6c0,1.6-1.3,3-4,4.2l-1.1,0.2c-1.7-0.2-2.5-1-2.5-2.5
			v-0.1c0-0.5,0.3-0.8,0.9-0.8c0.5,0,0.8,0.5,1,1.5l0.2,0.2h0.5c1.1,0,2.2-0.8,3.2-2.3v-0.4c0-0.6-1.3-1.2-3.9-1.7
			c-1.4-0.6-2.1-1.3-2.1-2.3c0-1.3,1.1-2.5,3.3-3.7C976.3,245.1,977.1,244.9,977.8,244.6z"/>
		<path class="st0" d="M987,244.6c0.5,0,0.9,0.9,1.1,2.7c-0.2,0.5-0.5,0.8-1,0.8c-0.3-0.1-0.6-0.4-1-1.1l-0.5-0.2
			c-0.9,0-1.8,0.6-2.6,1.9v0.3c0,0.3,1.4,0.8,4.2,1.5c1.2,0.7,1.8,1.6,1.8,2.6c0,1.6-1.3,3-4,4.2l-1.1,0.2c-1.7-0.2-2.5-1-2.5-2.5
			v-0.1c0-0.5,0.3-0.8,0.9-0.8c0.5,0,0.8,0.5,1,1.5l0.2,0.2h0.5c1.1,0,2.2-0.8,3.2-2.3v-0.4c0-0.6-1.3-1.2-3.9-1.7
			c-1.4-0.6-2.1-1.3-2.1-2.3c0-1.3,1.1-2.5,3.3-3.7C985.5,245.1,986.4,244.9,987,244.6z"/>
	</g>
	<g>
		<path class="st0" d="M1051.6,279.9h0.1c2.4,0.4,3.6,1.6,3.6,3.5v0.5c0,2.1-1.3,4.2-4,6.3v0.1c4.3,3.9,7.3,5.8,9,5.8
			c0.3,0.2,0.5,0.5,0.5,0.8c0,0.5-0.3,0.8-1,0.9c-1.7,0-4.8-2-9.3-6l-1.3-0.7h-0.1c0.6,2.2,0.8,4,0.8,5.2c0,0.5-0.3,0.9-1,1.1
			c-0.9,0-1.5-2.2-1.7-6.8c-0.6-2.1-1-3.7-1-5v-0.3c0-1.8,0.4-2.7,1.2-2.7l0.6,0.3h0.2C1049.2,280.9,1050.3,279.9,1051.6,279.9z
			 M1049.2,287.9l-0.1,1.1c1.9,0,3.4-1.5,4.5-4.6v-1.1c0-0.9-0.6-1.4-1.8-1.6h-0.2C1050.4,281.7,1049.6,283.8,1049.2,287.9z"/>
		<path class="st0" d="M1064.8,286.2c0.8,0,2.2,1.4,4,4.2l0.1,0.5c0,0.6-1.4,1-4.1,1.3l-0.1,0.1v0.1c0.4,1.8,0.9,2.7,1.3,2.7h0.4
			c0.6,0,1.6-0.7,2.9-2.1h0.2c0.4,0,0.7,0.3,0.9,0.9c0,0.5-0.8,1.3-2.5,2.5c-0.4,0.3-1,0.4-1.6,0.6c-1.6,0-2.8-1.5-3.4-4.6
			c-0.9-0.1-1.4-0.5-1.4-1.1c0-0.4,0.3-0.7,1-0.9v0.1l0.3-0.1v-0.8C1062.8,287.3,1063.5,286.2,1064.8,286.2z M1065,288.4h-0.3
			l-0.1,1.1v0.9h0.1c1.1,0,1.7-0.2,1.7-0.4C1065.9,289.3,1065.4,288.7,1065,288.4z"/>
		<path class="st0" d="M1075.4,286.9c1.7,0.1,2.5,1,2.5,2.5l0.1,0.4l-0.1,4.7c0,0.5,0.3,1.3,0.9,2.2v0.1c-0.2,0.6-0.5,0.9-0.9,0.9
			c-1.2-0.5-1.9-1.6-1.9-3.3v-0.4l-0.1-0.1l0.1-0.1v-0.1l0.1-4.1c0-0.6-0.3-0.9-0.8-0.9h-0.4c-1,0.4-1.5,2.6-1.5,6.6
			c0,1.4-0.4,2.1-1,2.1c-0.5,0-0.8-0.3-0.8-1v-3c0-3.9,0.3-5.8,1-5.8l0.3-0.1l0.6,0.1C1074.3,287,1074.8,286.9,1075.4,286.9z"/>
		<path class="st0" d="M1084.7,285.7c1.5,0,2.6,1.1,3.4,3.3l0.1,0.6c0,2.1-1,4.3-3,6.6c-0.8,0.7-1.6,1.1-2.4,1.1
			c-1.2,0-2-0.7-2.5-2.1c-0.2-0.6-0.3-1.2-0.3-1.7v-0.4c0-3.2,1.1-5.6,3.4-7.2C1083.7,285.8,1084.2,285.7,1084.7,285.7z
			 M1081.7,293.5c0,1.4,0.3,2,1,2c1.5,0,2.7-1.9,3.6-5.6v-0.6c-0.3-1.2-1-1.9-1.9-1.9c-0.4,0-0.5,0.2-0.5,0.8c0,0.3-0.4,0.6-1.2,0.8
			C1082,290.2,1081.7,291.7,1081.7,293.5z"/>
		<path class="st0" d="M1089.9,286.9c0.5,0,1,1.1,1.5,3.3c0.8,1.8,1.2,2.7,1.3,2.8c0.1,0,0.5-1,1.1-3c0.6-2,1.2-3,1.8-3
			c0.5,0.2,0.8,0.5,0.8,1c-1.7,4.3-2.5,7.1-2.5,8.5l-0.6,0.6h-0.6c-0.7-0.5-1.9-3.3-3.7-8.2l-0.3-1.1
			C1089,287.1,1089.4,286.9,1089.9,286.9z"/>
		<path class="st0" d="M1103.3,285.4c0.9,0,1.3,0.4,1.3,1.1l-0.3,0.6l-0.2,5.5c0,2.5,0.5,4,1.5,4.6l0.1,0.5
			c-0.1,0.6-0.3,0.9-0.8,0.9h-0.2c-1.5-1-2.2-2.6-2.2-4.7h-0.2c-0.8,2.2-1.8,3.4-2.9,3.4c-1.1-0.3-1.6-1.1-1.6-2.4
			c0-2.8,1.1-5.6,3.4-8.4C1101.9,285.7,1102.7,285.4,1103.3,285.4z M1099.7,293.5l-0.1,0.8v0.6h0.3c1.5-3.7,2.2-6,2.2-6.8h-0.1
			C1100.8,289.4,1100.1,291.2,1099.7,293.5z"/>
		<path class="st0" d="M1110,278.8c0.6,0.1,0.8,0.4,0.8,0.8l-0.2,1.3v0.4c0,0.9,0.1,1.8,0.3,2.8h0.1c2.3-0.7,3.8-1,4.3-1
			c0.6,0.2,0.9,0.4,0.9,0.9c0,0.7-0.7,1-2.1,1l-3.1,1.1c0,2.7,0.3,6.4,0.9,11c-0.1,0.5-0.4,0.8-0.9,0.8h-0.1c-0.7,0-1-0.9-1-2.7
			c-0.3-1.3-0.5-4.2-0.7-8.7h-0.5c-1.9-0.1-2.8-0.6-2.8-1.3c0-0.2,0.2-0.5,0.6-0.8h0.3l1.4,0.4h1l-0.3-3.8
			C1108.9,279.5,1109.3,278.8,1110,278.8z"/>
		<path class="st0" d="M1117.5,281.3c0.8,0.2,1.1,0.5,1.1,1c-0.2,0.6-0.5,0.8-1,0.8c-0.7-0.1-1.1-0.5-1.1-1.1
			C1116.7,281.6,1117.1,281.3,1117.5,281.3z M1118.6,285.5c0.3,0,0.6,0.3,0.8,0.9l-0.3,2.1v1.4c0,1.6,0.3,3.8,0.8,6.5
			c-0.2,0.4-0.5,0.6-1,0.6c-0.8,0-1.4-2.4-1.6-7.2v-1C1117.4,286.6,1117.8,285.5,1118.6,285.5z"/>
		<path class="st0" d="M1126.3,285.7c1.5,0,2.6,1.1,3.4,3.3l0.1,0.6c0,2.1-1,4.3-3,6.6c-0.8,0.7-1.6,1.1-2.4,1.1
			c-1.2,0-2-0.7-2.5-2.1c-0.2-0.6-0.3-1.2-0.3-1.7v-0.4c0-3.2,1.1-5.6,3.4-7.2C1125.4,285.8,1125.8,285.7,1126.3,285.7z
			 M1123.3,293.5c0,1.4,0.3,2,1,2c1.5,0,2.7-1.9,3.6-5.6v-0.6c-0.3-1.2-1-1.9-1.9-1.9c-0.4,0-0.5,0.2-0.5,0.8c0,0.3-0.4,0.6-1.2,0.8
			C1123.7,290.2,1123.3,291.7,1123.3,293.5z"/>
		<path class="st0" d="M1135,286.9c1.7,0.1,2.5,1,2.5,2.5l0.1,0.4l-0.1,4.7c0,0.5,0.3,1.3,0.9,2.2v0.1c-0.2,0.6-0.5,0.9-0.9,0.9
			c-1.2-0.5-1.9-1.6-1.9-3.3v-0.4l-0.1-0.1l0.1-0.1v-0.1l0.1-4.1c0-0.6-0.2-0.9-0.8-0.9h-0.4c-1,0.4-1.5,2.6-1.5,6.6
			c0,1.4-0.4,2.1-1.1,2.1c-0.5,0-0.8-0.3-0.8-1v-3c0-3.9,0.3-5.8,1-5.8l0.3-0.1l0.6,0.1C1133.9,287,1134.4,286.9,1135,286.9z"/>
	</g>
	<g>
		<path d="M1499.7,115.2V109h1.6v14h-1.6v-6.3h-7.4v6.3h-1.6v-14h1.6v6.2H1499.7z"/>
		<path d="M1504.5,109.5h1.8v1.8h-1.8V109.5z M1504.7,113.4h1.5v9.6h-1.5V113.4z"/>
		<path d="M1517.3,113.4v9.4c0,2.9-1.5,4.3-4.3,4.3c-2.5,0-3.8-1-4.2-3h1.5c0.3,1.2,1.1,1.6,2.7,1.6c1.9,0,2.8-0.9,2.8-2.8v-1.6
			c-0.6,0.9-1.5,1.4-2.9,1.4c-2.8,0-4.2-1.8-4.2-4.7c0-2.9,1.3-4.7,4.2-4.7c1.4,0,2.4,0.6,3,1.5v-1.2H1517.3z M1515.8,117.9
			c0-2.1-0.8-3.3-2.8-3.3c-1.9,0-2.8,1.2-2.8,3.3c0,2.1,0.8,3.4,2.8,3.4C1515,121.2,1515.8,120,1515.8,117.9z"/>
		<path d="M1520.4,109h1.5v5.4c0.5-0.7,1.2-1.2,2.6-1.2c2.2,0,3.5,1.1,3.5,3.7v6.1h-1.5v-5.9c0-1.9-0.9-2.5-2.3-2.5
			s-2.3,0.6-2.3,2.5v5.9h-1.5V109z"/>
		<path d="M1491.9,137.4v1.2c0.4-0.8,1.2-1.5,2.7-1.5c0.1,0,0.3,0,0.4,0v1.5c-0.3,0-0.5,0-0.7,0c-1.3,0-2.3,0.9-2.3,2.3v6.1h-1.5
			v-9.6H1491.9z"/>
		<path d="M1504.4,142.6h-6.9c0.1,2.1,1,3.3,2.7,3.3c1.2,0,2-0.4,2.4-1.4h1.6c-0.5,1.8-1.8,2.7-3.9,2.7c-2.9,0-4.2-1.9-4.2-5
			c0-3,1.3-5,4.2-5c2.9,0,4.2,1.8,4.2,4.8C1504.4,142.2,1504.4,142.4,1504.4,142.6z M1502.9,141.4c-0.1-2-1-2.9-2.6-2.9
			c-1.6,0-2.5,1-2.7,2.9H1502.9z"/>
		<path d="M1510.2,137.2c2.5,0,3.6,1.1,3.6,2.9v6.9h-1.4v-1.3c-0.7,1-1.8,1.5-3.1,1.5c-2.1,0-3-1.2-3-2.8c0-1.6,0.9-2.6,2.9-2.9
			l2.2-0.4c0.8-0.1,1-0.4,1-1.1c0-0.9-0.6-1.5-2.1-1.5c-1.4,0-1.9,0.5-2,1.3h-1.5C1506.9,138.3,1507.9,137.2,1510.2,137.2z
			 M1511.3,142.3l-1.8,0.3c-1.1,0.2-1.7,0.8-1.7,1.6c0,1,0.6,1.6,1.9,1.6c1.5,0,2.7-0.8,2.7-2.5v-1.3
			C1512.1,142.2,1511.7,142.2,1511.3,142.3z"/>
		<path d="M1516.8,133h1.5v14h-1.5V133z"/>
		<path d="M1491.9,161.4v1.2c0.4-0.8,1.2-1.5,2.7-1.5c0.1,0,0.3,0,0.4,0v1.5c-0.3,0-0.5,0-0.7,0c-1.3,0-2.3,0.9-2.3,2.3v6.1h-1.5
			v-9.6H1491.9z"/>
		<path d="M1504.4,166.6h-6.9c0.1,2.1,1,3.3,2.7,3.3c1.2,0,2-0.4,2.4-1.4h1.6c-0.5,1.8-1.8,2.7-3.9,2.7c-2.9,0-4.2-1.9-4.2-5
			c0-3,1.3-5,4.2-5c2.9,0,4.2,1.8,4.2,4.8C1504.4,166.2,1504.4,166.4,1504.4,166.6z M1502.9,165.4c-0.1-2-1-2.9-2.6-2.9
			c-1.6,0-2.5,1-2.7,2.9H1502.9z"/>
		<path d="M1511.8,161.4v1.3h-2.8v5.1c0,1.6,0.8,1.9,1.9,1.9c0.3,0,0.6,0,0.9-0.1v1.4c-0.3,0.1-0.8,0.1-1.2,0.1
			c-2,0-3.2-0.9-3.2-3.3v-5.1h-1.8v-1.3h1.8v-2.8h1.5v2.8H1511.8z"/>
		<path d="M1513.8,167.5v-6.1h1.5v5.9c0,1.9,0.9,2.6,2.3,2.6c1.4,0,2.3-0.6,2.3-2.6v-5.9h1.5v9.6h-1.4v-1.1
			c-0.4,0.7-1.2,1.3-2.7,1.3C1515.1,171.2,1513.8,170.2,1513.8,167.5z"/>
		<path d="M1525.8,161.4v1.2c0.4-0.8,1.2-1.5,2.7-1.5c0.1,0,0.3,0,0.4,0v1.5c-0.3,0-0.5,0-0.7,0c-1.3,0-2.3,0.9-2.3,2.3v6.1h-1.5
			v-9.6H1525.8z"/>
		<path d="M1530.9,161.4h1.4v1.1c0.4-0.7,1.2-1.3,2.8-1.3c2.1,0,3.5,1.1,3.5,3.7v6.1h-1.5v-5.9c0-1.9-0.9-2.5-2.3-2.5
			c-1.5,0-2.3,0.6-2.3,2.5v5.9h-1.5V161.4z"/>
	</g>
	<g>
		<path d="M1492.3,490.4v12.5h6.4v1.5h-8v-14H1492.3z"/>
		<path d="M1500,499.6c0-3.1,1.4-5,4.4-5c3,0,4.4,1.9,4.4,5s-1.4,5-4.4,5C1501.4,504.7,1500,502.7,1500,499.6z M1501.5,499.6
			c0,2.3,0.9,3.7,2.8,3.7c1.9,0,2.8-1.4,2.8-3.7c0-2.3-0.9-3.6-2.8-3.6C1502.4,496,1501.5,497.3,1501.5,499.6z"/>
		<path d="M1516.2,498.8l-1.7,5.6h-1.6l-2.8-9.6h1.6l1.4,5.5c0.2,0.8,0.4,1.8,0.5,2.7h0c0.2-0.8,0.4-1.9,0.6-2.7l1.7-5.5h1.7
			l1.7,5.5c0.2,0.8,0.5,1.8,0.6,2.7h0c0.1-0.8,0.3-1.9,0.5-2.7l1.5-5.5h1.6l-2.8,9.6h-1.7l-1.7-5.6c-0.2-0.7-0.5-1.7-0.6-2.5h0
			C1516.7,497.1,1516.5,498.1,1516.2,498.8z"/>
		<path d="M1491.9,518.8v1.2c0.4-0.8,1.2-1.5,2.7-1.5c0.1,0,0.3,0,0.4,0v1.5c-0.3,0-0.5,0-0.7,0c-1.3,0-2.3,0.9-2.3,2.3v6.1h-1.5
			v-9.6H1491.9z"/>
		<path d="M1504.4,524h-6.9c0.1,2.1,1,3.3,2.7,3.3c1.2,0,2-0.4,2.4-1.4h1.6c-0.5,1.8-1.8,2.7-3.9,2.7c-2.9,0-4.2-1.9-4.2-5
			c0-3,1.3-5,4.2-5s4.2,1.8,4.2,4.8C1504.4,523.6,1504.4,523.8,1504.4,524z M1502.9,522.8c-0.1-2-1-2.9-2.6-2.9
			c-1.6,0-2.5,1-2.7,2.9H1502.9z"/>
		<path d="M1510.2,518.6c2.5,0,3.6,1.1,3.6,2.9v6.9h-1.4v-1.3c-0.7,1-1.8,1.5-3.1,1.5c-2.1,0-3-1.2-3-2.8c0-1.6,0.9-2.6,2.9-2.9
			l2.2-0.4c0.8-0.1,1-0.4,1-1.1c0-0.9-0.6-1.5-2.1-1.5c-1.4,0-1.9,0.5-2,1.3h-1.5C1506.9,519.7,1507.9,518.6,1510.2,518.6z
			 M1511.3,523.7l-1.8,0.3c-1.1,0.2-1.7,0.8-1.7,1.6c0,1,0.6,1.6,1.9,1.6c1.5,0,2.7-0.8,2.7-2.5v-1.3
			C1512.1,523.6,1511.7,523.6,1511.3,523.7z"/>
		<path d="M1516.8,514.4h1.5v14h-1.5V514.4z"/>
		<path d="M1491.9,542.8v1.2c0.4-0.8,1.2-1.5,2.7-1.5c0.1,0,0.3,0,0.4,0v1.5c-0.3,0-0.5,0-0.7,0c-1.3,0-2.3,0.9-2.3,2.3v6.1h-1.5
			v-9.6H1491.9z"/>
		<path d="M1504.4,548h-6.9c0.1,2.1,1,3.3,2.7,3.3c1.2,0,2-0.4,2.4-1.4h1.6c-0.5,1.8-1.8,2.7-3.9,2.7c-2.9,0-4.2-1.9-4.2-5
			c0-3,1.3-5,4.2-5s4.2,1.8,4.2,4.8C1504.4,547.6,1504.4,547.8,1504.4,548z M1502.9,546.8c-0.1-2-1-2.9-2.6-2.9
			c-1.6,0-2.5,1-2.7,2.9H1502.9z"/>
		<path d="M1511.8,542.8v1.3h-2.8v5.1c0,1.6,0.8,1.9,1.9,1.9c0.3,0,0.6,0,0.9-0.1v1.4c-0.3,0.1-0.8,0.1-1.2,0.1
			c-2,0-3.2-0.9-3.2-3.3v-5.1h-1.8v-1.3h1.8V540h1.5v2.8H1511.8z"/>
		<path d="M1513.8,548.9v-6.1h1.5v5.9c0,1.9,0.9,2.6,2.3,2.6c1.4,0,2.3-0.6,2.3-2.6v-5.9h1.5v9.6h-1.4v-1.1
			c-0.4,0.7-1.2,1.3-2.7,1.3C1515.1,552.7,1513.8,551.6,1513.8,548.9z"/>
		<path d="M1525.8,542.8v1.2c0.4-0.8,1.2-1.5,2.7-1.5c0.1,0,0.3,0,0.4,0v1.5c-0.3,0-0.5,0-0.7,0c-1.3,0-2.3,0.9-2.3,2.3v6.1h-1.5
			v-9.6H1525.8z"/>
		<path d="M1530.9,542.8h1.4v1.1c0.4-0.7,1.2-1.3,2.8-1.3c2.1,0,3.5,1.1,3.5,3.7v6.1h-1.5v-5.9c0-1.9-0.9-2.5-2.3-2.5
			c-1.5,0-2.3,0.6-2.3,2.5v5.9h-1.5V542.8z"/>
	</g>
	<g>
		<path d="M885.8,600.8v-6.2h1.6v14h-1.6v-6.3h-7.4v6.3h-1.6v-14h1.6v6.2H885.8z"/>
		<path d="M890.6,595.1h1.8v1.8h-1.8V595.1z M890.8,599h1.5v9.6h-1.5V599z"/>
		<path d="M903.4,599v9.4c0,2.9-1.5,4.3-4.3,4.3c-2.5,0-3.8-1-4.2-3h1.5c0.3,1.2,1.1,1.6,2.7,1.6c1.9,0,2.8-0.9,2.8-2.8v-1.6
			c-0.6,0.9-1.5,1.4-2.9,1.4c-2.8,0-4.2-1.8-4.2-4.7c0-2.9,1.3-4.7,4.2-4.7c1.4,0,2.4,0.6,3,1.5V599H903.4z M901.9,603.5
			c0-2.1-0.8-3.3-2.8-3.3c-1.9,0-2.8,1.2-2.8,3.3c0,2.1,0.8,3.4,2.8,3.4C901.1,606.8,901.9,605.6,901.9,603.5z"/>
		<path d="M906.5,594.6h1.5v5.4c0.5-0.7,1.2-1.2,2.6-1.2c2.2,0,3.5,1.1,3.5,3.7v6.1h-1.5v-5.9c0-1.9-0.9-2.5-2.3-2.5
			c-1.5,0-2.3,0.6-2.3,2.5v5.9h-1.5V594.6z"/>
		<path d="M930,594.6v14h-1.5v-1.3c-0.6,1-1.6,1.5-3,1.5c-2.8,0-4.2-1.9-4.2-5s1.4-5,4.2-5c1.4,0,2.4,0.5,3,1.4v-5.6H930z
			 M928.5,603.8c0-2.3-0.9-3.6-2.8-3.6c-1.9,0-2.8,1.3-2.8,3.6s0.9,3.7,2.8,3.7C927.6,607.4,928.5,606.1,928.5,603.8z"/>
		<path d="M940.9,604.2H934c0.1,2.1,1,3.3,2.7,3.3c1.2,0,2-0.4,2.4-1.4h1.6c-0.5,1.8-1.8,2.7-3.9,2.7c-2.9,0-4.2-1.9-4.2-5
			c0-3,1.3-5,4.2-5c2.9,0,4.2,1.8,4.2,4.8C940.9,603.8,940.9,604,940.9,604.2z M939.4,602.9c-0.1-2-1-2.9-2.6-2.9
			c-1.6,0-2.5,1-2.7,2.9H939.4z"/>
		<path d="M946.7,598.7c2.5,0,3.6,1.1,3.6,2.9v6.9h-1.4v-1.3c-0.7,1-1.8,1.5-3.1,1.5c-2.1,0-3-1.2-3-2.8c0-1.6,0.9-2.6,2.9-2.9
			l2.2-0.4c0.8-0.1,1-0.4,1-1.1c0-0.9-0.6-1.5-2.1-1.5c-1.4,0-1.9,0.5-2,1.3h-1.5C943.3,599.9,944.4,598.7,946.7,598.7z
			 M947.8,603.9l-1.8,0.3c-1.1,0.2-1.7,0.8-1.7,1.6c0,1,0.6,1.6,1.9,1.6c1.5,0,2.7-0.8,2.7-2.5v-1.3
			C948.6,603.7,948.2,603.8,947.8,603.9z"/>
		<path d="M958.2,599v1.3h-2.8v5.1c0,1.6,0.8,1.9,1.9,1.9c0.3,0,0.6,0,0.9-0.1v1.4c-0.3,0.1-0.8,0.1-1.2,0.1c-2,0-3.2-0.9-3.2-3.3
			v-5.1h-1.8V599h1.8v-2.8h1.5v2.8H958.2z"/>
		<path d="M960.3,594.6h1.5v5.4c0.5-0.7,1.2-1.2,2.6-1.2c2.2,0,3.5,1.1,3.5,3.7v6.1h-1.5v-5.9c0-1.9-0.9-2.5-2.3-2.5
			c-1.5,0-2.3,0.6-2.3,2.5v5.9h-1.5V594.6z"/>
		<path d="M970,608.6l5.7-14h1.6l-5.7,14H970z"/>
		<path d="M884.7,618.6v14h-1.5v-1.3c-0.6,1-1.6,1.5-3,1.5c-2.8,0-4.2-1.9-4.2-5s1.4-5,4.2-5c1.4,0,2.4,0.5,3,1.4v-5.6H884.7z
			 M883.2,627.8c0-2.3-0.9-3.6-2.8-3.6c-1.9,0-2.8,1.3-2.8,3.6s0.9,3.7,2.8,3.7C882.3,631.4,883.2,630.1,883.2,627.8z"/>
		<path d="M887.6,619.1h1.8v1.8h-1.8V619.1z M887.8,623h1.5v9.6h-1.5V623z"/>
		<path d="M899,625.4h-1.5c-0.2-0.9-0.8-1.3-2-1.3c-1.2,0-1.9,0.5-1.9,1.4c0,0.7,0.4,1.2,1.4,1.4l1.4,0.2c2,0.3,2.8,1.2,2.8,2.8
			c0,2-1.5,3-3.8,3c-2.5,0-3.5-1.1-3.8-2.7h1.5c0.2,0.9,0.7,1.4,2.3,1.4c1.6,0,2.2-0.7,2.2-1.6c0-0.8-0.4-1.3-1.6-1.5l-1.4-0.2
			c-1.7-0.3-2.6-1.2-2.6-2.7c0-1.7,1.2-2.8,3.4-2.8C897.6,622.7,898.8,623.6,899,625.4z"/>
		<path d="M903,623v1.2c0.4-0.8,1.2-1.5,2.7-1.5c0.1,0,0.3,0,0.4,0v1.5c-0.3,0-0.5,0-0.7,0c-1.3,0-2.3,0.9-2.3,2.3v6.1h-1.5V623H903
			z"/>
		<path d="M908,629.1V623h1.5v5.9c0,1.9,0.9,2.6,2.3,2.6s2.3-0.6,2.3-2.6V623h1.5v9.6h-1.4v-1.1c-0.4,0.7-1.2,1.3-2.7,1.3
			C909.3,632.8,908,631.8,908,629.1z"/>
		<path d="M927.3,627.8c0,3.1-1.4,5-4.2,5c-1.3,0-2.3-0.5-2.9-1.4v5.1h-1.5V623h1.4v1.3c0.6-1,1.6-1.5,3-1.5
			C925.9,622.7,927.3,624.7,927.3,627.8z M925.7,627.8c0-2.3-0.9-3.6-2.8-3.6c-1.9,0-2.8,1.3-2.8,3.6s0.9,3.7,2.8,3.7
			C924.8,631.4,925.7,630.1,925.7,627.8z"/>
		<path d="M934.7,623v1.3h-2.8v5.1c0,1.6,0.8,1.9,1.9,1.9c0.3,0,0.6,0,0.9-0.1v1.4c-0.3,0.1-0.8,0.1-1.2,0.1c-2,0-3.2-0.9-3.2-3.3
			v-5.1h-1.8V623h1.8v-2.8h1.5v2.8H934.7z"/>
		<path d="M936.6,619.1h1.8v1.8h-1.8V619.1z M936.8,623h1.5v9.6h-1.5V623z"/>
		<path d="M940.9,627.8c0-3.1,1.4-5,4.4-5c3,0,4.4,1.9,4.4,5s-1.4,5-4.4,5C942.3,632.8,940.9,630.9,940.9,627.8z M942.4,627.8
			c0,2.3,0.9,3.7,2.8,3.7c1.9,0,2.8-1.4,2.8-3.7c0-2.3-0.9-3.6-2.8-3.6C943.3,624.1,942.4,625.5,942.4,627.8z"/>
		<path d="M952.1,623h1.4v1.1c0.4-0.7,1.2-1.3,2.8-1.3c2.1,0,3.5,1.1,3.5,3.7v6.1h-1.5v-5.9c0-1.9-0.9-2.5-2.3-2.5
			c-1.5,0-2.3,0.6-2.3,2.5v5.9h-1.5V623z"/>
		<path d="M968.9,623v1.2c0.4-0.8,1.2-1.5,2.7-1.5c0.1,0,0.3,0,0.4,0v1.5c-0.3,0-0.5,0-0.7,0c-1.3,0-2.3,0.9-2.3,2.3v6.1h-1.5V623
			H968.9z"/>
		<path d="M973.9,619.1h1.8v1.8h-1.8V619.1z M974,623h1.5v9.6H974V623z"/>
		<path d="M985.2,625.4h-1.5c-0.2-0.9-0.8-1.3-2-1.3c-1.2,0-1.9,0.5-1.9,1.4c0,0.7,0.4,1.2,1.4,1.4l1.4,0.2c2,0.3,2.8,1.2,2.8,2.8
			c0,2-1.5,3-3.8,3c-2.5,0-3.5-1.1-3.8-2.7h1.5c0.2,0.9,0.7,1.4,2.3,1.4c1.6,0,2.2-0.7,2.2-1.6c0-0.8-0.4-1.3-1.6-1.5l-1.4-0.2
			c-1.7-0.3-2.6-1.2-2.6-2.7c0-1.7,1.2-2.8,3.4-2.8C983.8,622.7,985,623.6,985.2,625.4z"/>
		<path d="M990.3,628.9l-0.9,1v2.7h-1.5v-14h1.5v7.3c0,0.7,0,1.5,0,2.1h0c0.4-0.5,0.8-1,1.2-1.5l3.2-3.5h2l-3.7,4l3.7,5.6h-1.9
			l-2.3-3.5c-0.2-0.3-0.4-0.6-0.6-1h0C990.8,628.4,990.5,628.7,990.3,628.9z"/>
	</g>
	<g>
		<path d="M1320.4,594.6v12.5h6.4v1.5h-8v-14H1320.4z"/>
		<path d="M1328.1,603.8c0-3.1,1.4-5,4.4-5c3,0,4.4,1.9,4.4,5s-1.4,5-4.4,5C1329.5,608.8,1328.1,606.9,1328.1,603.8z M1329.6,603.8
			c0,2.3,0.9,3.7,2.8,3.7c1.9,0,2.8-1.4,2.8-3.7c0-2.3-0.9-3.6-2.8-3.6C1330.5,600.1,1329.6,601.5,1329.6,603.8z"/>
		<path d="M1344.4,603l-1.7,5.6h-1.6l-2.8-9.6h1.6l1.4,5.5c0.2,0.8,0.4,1.8,0.5,2.7h0c0.2-0.8,0.4-1.9,0.6-2.7l1.7-5.5h1.7l1.7,5.5
			c0.2,0.8,0.5,1.8,0.6,2.7h0c0.1-0.8,0.3-1.9,0.5-2.7l1.5-5.5h1.6l-2.8,9.6h-1.7l-1.7-5.6c-0.2-0.7-0.5-1.7-0.6-2.5h0
			C1344.8,601.2,1344.6,602.3,1344.4,603z"/>
		<path d="M1361.9,594.6v14h-1.5v-1.3c-0.6,1-1.6,1.5-3,1.5c-2.8,0-4.2-1.9-4.2-5s1.4-5,4.2-5c1.4,0,2.4,0.5,3,1.4v-5.6H1361.9z
			 M1360.4,603.8c0-2.3-0.9-3.6-2.8-3.6c-1.9,0-2.8,1.3-2.8,3.6s0.9,3.7,2.8,3.7C1359.5,607.4,1360.4,606.1,1360.4,603.8z"/>
		<path d="M1372.7,604.2h-6.9c0.1,2.1,1,3.3,2.7,3.3c1.2,0,2-0.4,2.4-1.4h1.6c-0.5,1.8-1.8,2.7-3.9,2.7c-2.9,0-4.2-1.9-4.2-5
			c0-3,1.3-5,4.2-5s4.2,1.8,4.2,4.8C1372.7,603.8,1372.7,604,1372.7,604.2z M1371.2,602.9c-0.1-2-1-2.9-2.6-2.9
			c-1.6,0-2.5,1-2.7,2.9H1371.2z"/>
		<path d="M1378.5,598.7c2.5,0,3.6,1.1,3.6,2.9v6.9h-1.4v-1.3c-0.7,1-1.8,1.5-3.1,1.5c-2.1,0-3-1.2-3-2.8c0-1.6,0.9-2.6,2.9-2.9
			l2.2-0.4c0.8-0.1,1-0.4,1-1.1c0-0.9-0.6-1.5-2.1-1.5c-1.4,0-1.9,0.5-2,1.3h-1.5C1375.1,599.9,1376.2,598.7,1378.5,598.7z
			 M1379.6,603.9l-1.8,0.3c-1.1,0.2-1.7,0.8-1.7,1.6c0,1,0.6,1.6,1.9,1.6c1.5,0,2.7-0.8,2.7-2.5v-1.3
			C1380.4,603.7,1380,603.8,1379.6,603.9z"/>
		<path d="M1390.1,599v1.3h-2.8v5.1c0,1.6,0.8,1.9,1.9,1.9c0.3,0,0.6,0,0.9-0.1v1.4c-0.3,0.1-0.8,0.1-1.2,0.1c-2,0-3.2-0.9-3.2-3.3
			v-5.1h-1.8V599h1.8v-2.8h1.5v2.8H1390.1z"/>
		<path d="M1392.1,594.6h1.5v5.4c0.5-0.7,1.2-1.2,2.6-1.2c2.2,0,3.5,1.1,3.5,3.7v6.1h-1.5v-5.9c0-1.9-0.9-2.5-2.3-2.5
			c-1.5,0-2.3,0.6-2.3,2.5v5.9h-1.5V594.6z"/>
		<path d="M1401.8,608.6l5.7-14h1.6l-5.7,14H1401.8z"/>
		<path d="M1326.7,618.6v14h-1.5v-1.3c-0.6,1-1.6,1.5-3,1.5c-2.8,0-4.2-1.9-4.2-5s1.4-5,4.2-5c1.4,0,2.4,0.5,3,1.4v-5.6H1326.7z
			 M1325.2,627.8c0-2.3-0.9-3.6-2.8-3.6c-1.9,0-2.8,1.3-2.8,3.6s0.9,3.7,2.8,3.7C1324.3,631.4,1325.2,630.1,1325.2,627.8z"/>
		<path d="M1329.6,619.1h1.8v1.8h-1.8V619.1z M1329.8,623h1.5v9.6h-1.5V623z"/>
		<path d="M1341,625.4h-1.5c-0.2-0.9-0.8-1.3-2-1.3c-1.2,0-1.9,0.5-1.9,1.4c0,0.7,0.4,1.2,1.4,1.4l1.4,0.2c2,0.3,2.8,1.2,2.8,2.8
			c0,2-1.5,3-3.8,3c-2.5,0-3.5-1.1-3.8-2.7h1.5c0.2,0.9,0.7,1.4,2.3,1.4c1.6,0,2.2-0.7,2.2-1.6c0-0.8-0.4-1.3-1.6-1.5l-1.4-0.2
			c-1.7-0.3-2.6-1.2-2.6-2.7c0-1.7,1.2-2.8,3.4-2.8C1339.6,622.7,1340.8,623.6,1341,625.4z"/>
		<path d="M1345,623v1.2c0.4-0.8,1.2-1.5,2.7-1.5c0.1,0,0.3,0,0.4,0v1.5c-0.3,0-0.5,0-0.7,0c-1.3,0-2.3,0.9-2.3,2.3v6.1h-1.5V623
			H1345z"/>
		<path d="M1350,629.1V623h1.5v5.9c0,1.9,0.9,2.6,2.3,2.6c1.4,0,2.3-0.6,2.3-2.6V623h1.5v9.6h-1.4v-1.1c-0.4,0.7-1.2,1.3-2.7,1.3
			C1351.3,632.8,1350,631.8,1350,629.1z"/>
		<path d="M1369.3,627.8c0,3.1-1.4,5-4.2,5c-1.3,0-2.3-0.5-2.9-1.4v5.1h-1.5V623h1.4v1.3c0.6-1,1.6-1.5,3-1.5
			C1367.9,622.7,1369.3,624.7,1369.3,627.8z M1367.7,627.8c0-2.3-0.9-3.6-2.8-3.6c-1.9,0-2.8,1.3-2.8,3.6s0.9,3.7,2.8,3.7
			C1366.8,631.4,1367.7,630.1,1367.7,627.8z"/>
		<path d="M1376.7,623v1.3h-2.8v5.1c0,1.6,0.8,1.9,1.9,1.9c0.3,0,0.6,0,0.9-0.1v1.4c-0.3,0.1-0.8,0.1-1.2,0.1c-2,0-3.2-0.9-3.2-3.3
			v-5.1h-1.8V623h1.8v-2.8h1.5v2.8H1376.7z"/>
		<path d="M1378.6,619.1h1.8v1.8h-1.8V619.1z M1378.8,623h1.5v9.6h-1.5V623z"/>
		<path d="M1382.9,627.8c0-3.1,1.4-5,4.4-5c3,0,4.4,1.9,4.4,5s-1.4,5-4.4,5C1384.3,632.8,1382.9,630.9,1382.9,627.8z M1384.4,627.8
			c0,2.3,0.9,3.7,2.8,3.7c1.9,0,2.8-1.4,2.8-3.7c0-2.3-0.9-3.6-2.8-3.6C1385.3,624.1,1384.4,625.5,1384.4,627.8z"/>
		<path d="M1394.1,623h1.4v1.1c0.4-0.7,1.2-1.3,2.8-1.3c2.1,0,3.5,1.1,3.5,3.7v6.1h-1.5v-5.9c0-1.9-0.9-2.5-2.3-2.5
			c-1.5,0-2.3,0.6-2.3,2.5v5.9h-1.5V623z"/>
		<path d="M1410.9,623v1.2c0.4-0.8,1.2-1.5,2.7-1.5c0.1,0,0.3,0,0.4,0v1.5c-0.3,0-0.5,0-0.7,0c-1.3,0-2.3,0.9-2.3,2.3v6.1h-1.5V623
			H1410.9z"/>
		<path d="M1415.9,619.1h1.8v1.8h-1.8V619.1z M1416.1,623h1.5v9.6h-1.5V623z"/>
		<path d="M1427.2,625.4h-1.5c-0.2-0.9-0.8-1.3-2-1.3c-1.2,0-1.9,0.5-1.9,1.4c0,0.7,0.4,1.2,1.4,1.4l1.4,0.2c2,0.3,2.8,1.2,2.8,2.8
			c0,2-1.5,3-3.8,3c-2.5,0-3.5-1.1-3.8-2.7h1.5c0.2,0.9,0.7,1.4,2.3,1.4c1.6,0,2.2-0.7,2.2-1.6c0-0.8-0.4-1.3-1.6-1.5l-1.4-0.2
			c-1.7-0.3-2.6-1.2-2.6-2.7c0-1.7,1.2-2.8,3.4-2.8C1425.8,622.7,1427,623.6,1427.2,625.4z"/>
		<path d="M1432.3,628.9l-0.9,1v2.7h-1.5v-14h1.5v7.3c0,0.7,0,1.5,0,2.1h0c0.4-0.5,0.8-1,1.2-1.5l3.2-3.5h2l-3.7,4l3.7,5.6h-1.9
			l-2.3-3.5c-0.2-0.3-0.4-0.6-0.6-1h0C1432.8,628.4,1432.5,628.7,1432.3,628.9z"/>
	</g>
	<g>
		<path d="M1113.7,610.8c0,2.5-1.5,4.2-4.2,4.2h-3.1v5.6h-2.4v-14h5.5C1112.2,606.6,1113.7,608.1,1113.7,610.8z M1111.2,610.8
			c0-1.3-0.6-2.1-2-2.1h-2.8v4.1h2.8C1110.6,612.8,1111.2,612.1,1111.2,610.8z"/>
		<path d="M1126.1,620.6h-2.5l-0.2-1.9c-0.3-2.6-1.2-3.7-2.9-3.7h-2.2v5.6h-2.4v-14h5.6c2.9,0,4.4,1.6,4.4,4.1
			c0,1.7-0.7,2.9-2.2,3.4c1.1,0.7,1.9,2,2.2,4.3L1126.1,620.6z M1118.3,612.8h3c1.4,0,2.1-0.8,2.1-2c0-1.3-0.7-2.1-2.1-2.1h-3V612.8
			z"/>
		<path d="M1137.5,618.4v2.1h-8.9v-14h8.9v2.1h-6.5v3.7h6.1v2.1h-6.1v3.8H1137.5z"/>
		<path d="M1139.4,613.6c0-4.2,1.9-7.3,6.4-7.3c4.5,0,6.4,3.1,6.4,7.3c0,4.2-1.9,7.3-6.4,7.3
			C1141.3,620.9,1139.4,617.8,1139.4,613.6z M1149.6,613.6c0-3.1-1.3-5.1-3.9-5.1c-2.6,0-3.9,1.9-3.9,5.1c0,3.1,1.3,5.1,3.9,5.1
			C1148.4,618.7,1149.6,616.7,1149.6,613.6z"/>
		<path d="M1153.1,608.7v-2.1h9.8v2.1h-3.7v11.9h-2.4v-11.9H1153.1z"/>
		<path d="M1174.1,618.4v2.1h-8.9v-14h8.9v2.1h-6.5v3.7h6.1v2.1h-6.1v3.8H1174.1z"/>
		<path d="M1182.1,606.3c3.6,0,5.4,1.7,5.8,4.5h-2.5c-0.4-1.7-1.5-2.3-3.4-2.3c-2.5,0-3.6,1.9-3.6,5.1c0,3.2,1.2,5.1,3.6,5.1
			c1.8,0,2.9-0.6,3.4-2.3h2.5c-0.4,2.8-2.3,4.5-5.8,4.5c-4.4,0-6.1-3.1-6.1-7.3C1176,609.4,1177.7,606.3,1182.1,606.3z"/>
		<path d="M1189,608.7v-2.1h9.8v2.1h-3.7v11.9h-2.4v-11.9H1189z"/>
	</g>
	<g>
		<path d="M762,363.9c1.3,0,2.4,0.6,2.9,1.7c0.5-1.2,1.8-2,3.3-2c2.5,0,4,1.3,4,4.1v6h-14V368C758.2,365.2,759.7,363.9,762,363.9z
			 M762.2,366.4c-1.1,0-1.9,0.5-1.9,2v2.9h3.7v-2.9C764,366.9,763.3,366.4,762.2,366.4z M768.1,366c-1.2,0-2,0.6-2,2v3.2h3.9V368
			C770,366.6,769.3,366,768.1,366z"/>
		<path d="M765.2,361.5c-4.2,0-7.3-1.9-7.3-6.4c0-4.5,3.1-6.4,7.3-6.4c4.2,0,7.3,1.9,7.3,6.4C772.4,359.6,769.4,361.5,765.2,361.5z
			 M765.2,351.3c-3.1,0-5.1,1.3-5.1,3.9c0,2.6,1.9,3.9,5.1,3.9c3.1,0,5.1-1.3,5.1-3.9C770.2,352.5,768.3,351.3,765.2,351.3z"/>
		<path d="M765.2,346.9c-4.2,0-7.3-1.9-7.3-6.4c0-4.5,3.1-6.4,7.3-6.4c4.2,0,7.3,1.9,7.3,6.4C772.4,345,769.4,346.9,765.2,346.9z
			 M765.2,336.6c-3.1,0-5.1,1.3-5.1,3.9c0,2.6,1.9,3.9,5.1,3.9c3.1,0,5.1-1.3,5.1-3.9C770.2,337.9,768.3,336.6,765.2,336.6z"/>
		<path d="M761.6,324.6c-1.1,0.2-1.6,0.9-1.6,2.4c0,1.7,0.8,2.4,1.9,2.4c1,0,1.5-0.4,1.7-1.8l0.3-1.8c0.4-2.6,1.7-3.9,4.2-3.9
			c2.8,0,4.3,1.9,4.3,5.3c0,3.5-1.6,5-4.2,5.2V330c1.4-0.2,2-1,2-2.7c0-2-0.7-2.9-2-2.9c-1,0-1.8,0.5-2,2.2l-0.3,1.8
			c-0.4,2.3-1.6,3.5-4,3.5c-2.3,0-4.1-1.6-4.1-4.9c0-3,1.2-4.6,3.7-4.9V324.6z"/>
		<path d="M760.3,320.8h-2.1V311h2.1v3.7h11.9v2.4h-11.9V320.8z"/>
	</g>
	<g>
		<path class="st0" d="M939.1,7.6c1.3,0,2,1,2.2,2.9v0.1c0,1-0.5,3.1-1.6,6.3l1.9-0.4c2.3,0,3.6,1.5,4,4.4v0.6
			c0,3.5-2.2,6.7-6.6,9.6c-1.4,0.6-2.5,0.8-3.1,0.8c-2.2,0-3.7-1.3-4.5-3.8c0.1-0.3,0.4-0.7,1-1.2c0.3-12.1,0.5-18.1,0.8-18.1
			c0.5-0.5,0.9-0.7,1.2-0.7c0.7,0.3,1.1,0.7,1.1,1.3h0.2C936.7,8.3,937.8,7.6,939.1,7.6z M936.7,23l-0.6,0.2l-1-0.1v0.1l-0.2,0.5
			v4.2l-0.1,1.5l0.9,0.2c2.3,0,4.5-1.7,6.7-5.1c0.6-1.5,0.9-2.8,0.9-3.8c0-1.2-0.6-1.8-1.8-1.8h-0.2C940.1,18.9,938.6,20.3,936.7,23
			z M935.2,20.5h0.2c2.2-4.1,3.3-7.3,3.5-9.6V10h-0.4c-0.6,0-1.3,1.5-2.2,4.5C935.5,17.4,935.2,19.4,935.2,20.5z"/>
		<path class="st0" d="M948.8,20l0.7-0.4c0.6,0,1.1,0.4,1.4,1.2c-0.4,2-0.6,4-0.6,6.1c0,1,0.3,2.2,0.9,3.4h0.2
			c0.8,0,1.7-3.1,2.8-9.2c0.4-0.3,0.7-0.5,1.1-0.5c0.8,0,1.2,1.5,1.2,4.4c0.3,3.2,0.7,4.8,1.2,4.8l0.6-0.2c0.8,0.3,1.2,0.7,1.2,1.2
			c-0.5,1-1.1,1.5-2,1.5c-1,0-1.9-1-2.8-2.9c-1.1,2.2-2.1,3.4-3.2,3.4c-1.6,0-2.8-1.7-3.4-5.1l-0.1-1.3V26
			C947.9,23.9,948.2,21.9,948.8,20z"/>
		<path class="st0" d="M968.3,15.8c0.7,0,1.2,1.2,1.5,3.6c-0.3,0.7-0.7,1-1.3,1c-0.4-0.1-0.9-0.6-1.3-1.5l-0.7-0.2
			c-1.3,0-2.4,0.8-3.4,2.5v0.4c0,0.4,1.9,1.1,5.6,2c1.6,0.9,2.4,2.1,2.4,3.4c0,2.2-1.8,4.1-5.3,5.6l-1.5,0.2
			c-2.2-0.2-3.4-1.4-3.4-3.4v-0.1c0-0.6,0.4-1,1.2-1.1c0.6,0,1.1,0.7,1.3,2l0.3,0.2h0.7c1.5,0,2.9-1,4.2-3.1v-0.5
			c0-0.8-1.7-1.5-5.2-2.2c-1.8-0.7-2.8-1.8-2.8-3.1c0-1.7,1.5-3.4,4.4-4.9C966.3,16.4,967.4,16.1,968.3,15.8z"/>
		<path class="st0" d="M973,11.2c1,0.2,1.5,0.7,1.5,1.4c-0.3,0.7-0.7,1.1-1.3,1.1c-1-0.2-1.5-0.7-1.5-1.5
			C972,11.5,972.4,11.2,973,11.2z M974.5,16.8c0.4,0,0.8,0.4,1.1,1.2l-0.4,2.8v1.9c0,2.2,0.4,5.1,1.1,8.6c-0.3,0.5-0.7,0.8-1.4,0.8
			c-1.1,0-1.8-3.2-2.2-9.6V21C972.8,18.2,973.4,16.8,974.5,16.8z"/>
		<path class="st0" d="M983.6,18.5c2.3,0.2,3.4,1.3,3.4,3.3l0.1,0.5l-0.1,6.2c0,0.7,0.4,1.7,1.2,2.9v0.1c-0.2,0.8-0.6,1.2-1.2,1.2
			c-1.7-0.7-2.5-2.2-2.5-4.4v-0.5l-0.1-0.1l0.1-0.2v-0.1l0.1-5.5c0-0.8-0.3-1.2-1-1.2h-0.5c-1.3,0.5-2,3.5-2,8.8
			c0,1.8-0.5,2.8-1.4,2.8c-0.7,0-1.1-0.5-1.1-1.4v-4c0-5.2,0.5-7.8,1.4-7.8l0.4-0.1l0.8,0.1C982,18.8,982.8,18.5,983.6,18.5z"/>
		<path class="st0" d="M993.1,17.6c1.1,0,2.9,1.9,5.4,5.6l0.1,0.7c0,0.7-1.8,1.3-5.5,1.7l-0.1,0.1v0.2c0.6,2.4,1.1,3.6,1.8,3.6h0.5
			c0.9,0,2.1-0.9,3.9-2.8h0.2c0.5,0,0.9,0.4,1.2,1.2c0,0.6-1.1,1.7-3.4,3.3c-0.6,0.3-1.3,0.6-2.1,0.8c-2.2,0-3.7-2-4.5-6.1
			c-1.2-0.2-1.8-0.7-1.8-1.5c0-0.6,0.5-1,1.4-1.2v0.2l0.4-0.2v-1C990.5,19.2,991.4,17.6,993.1,17.6z M993.3,20.5H993l-0.2,1.5v1.2
			h0.2c1.5-0.1,2.2-0.2,2.2-0.5C994.5,21.7,993.9,21,993.3,20.5z"/>
		<path class="st0" d="M1010.1,15.8c0.7,0,1.2,1.2,1.5,3.6c-0.3,0.7-0.7,1-1.3,1c-0.4-0.1-0.9-0.6-1.3-1.5l-0.7-0.2
			c-1.3,0-2.4,0.8-3.4,2.5v0.4c0,0.4,1.9,1.1,5.6,2c1.6,0.9,2.4,2.1,2.4,3.4c0,2.2-1.8,4.1-5.3,5.6l-1.5,0.2
			c-2.2-0.2-3.4-1.4-3.4-3.4v-0.1c0-0.6,0.4-1,1.2-1.1c0.6,0,1.1,0.7,1.3,2l0.3,0.2h0.7c1.5,0,2.9-1,4.2-3.1v-0.5
			c0-0.8-1.7-1.5-5.2-2.2c-1.8-0.7-2.8-1.8-2.8-3.1c0-1.7,1.5-3.4,4.4-4.9C1008.2,16.4,1009.2,16.1,1010.1,15.8z"/>
		<path class="st0" d="M1022.4,15.8c0.7,0,1.2,1.2,1.5,3.6c-0.3,0.7-0.7,1-1.3,1c-0.4-0.1-0.9-0.6-1.3-1.5l-0.7-0.2
			c-1.3,0-2.4,0.8-3.4,2.5v0.4c0,0.4,1.9,1.1,5.6,2c1.6,0.9,2.4,2.1,2.4,3.4c0,2.2-1.8,4.1-5.3,5.6l-1.5,0.2
			c-2.2-0.2-3.4-1.4-3.4-3.4v-0.1c0-0.6,0.4-1,1.2-1.1c0.6,0,1.1,0.7,1.3,2l0.3,0.2h0.7c1.5,0,2.9-1,4.2-3.1v-0.5
			c0-0.8-1.7-1.5-5.2-2.2c-1.8-0.7-2.8-1.8-2.8-3.1c0-1.7,1.5-3.4,4.4-4.9C1020.4,16.4,1021.5,16.1,1022.4,15.8z"/>
		<path class="st0" d="M1053.2,2.8h0.1c0.7,0.3,1,0.7,1,1.2l-1,7.6c0,2.8,0.8,8.5,2.5,17.2l2,5c0,0.3-0.3,0.7-0.8,1.2h-0.8
			c-0.5-0.2-1.3-1.8-2.4-4.9c-0.7-2.5-1.4-6.4-2.1-11.6h-0.2c-1.5,4.6-2.6,7-3.3,7.1l-0.6,0.2c-0.6,0-1.3-1.1-2.1-3.3h-0.3
			c-0.3,6.6-0.9,9.9-1.9,9.9h-0.1c-0.9,0-1.3-0.7-1.4-2c0.7-2.6,1-5.2,1-8l-1.1-10.6V11c0-1,0.4-1.5,1.1-1.5c1,0,2,2,2.8,6.1
			c1.2,3.7,1.9,5.7,2.2,6c0.6-1,1.2-2.7,1.8-5.1c0.5-1.3,0.9-3.2,1.4-5.9l-0.2-0.1l0.2-0.6V9.6C1051.2,5.1,1052,2.8,1053.2,2.8z"/>
		<path class="st0" d="M1065.5,16.9c2,0,3.5,1.5,4.5,4.4l0.2,0.8c0,2.9-1.3,5.8-4,8.8c-1.1,1-2.1,1.5-3.2,1.5
			c-1.6,0-2.7-0.9-3.4-2.8c-0.2-0.9-0.4-1.6-0.4-2.2v-0.5c0-4.2,1.5-7.4,4.6-9.6C1064.3,17.1,1064.9,16.9,1065.5,16.9z M1061.5,27.3
			c0,1.8,0.5,2.7,1.4,2.7c1.9,0,3.6-2.5,4.8-7.5v-0.8c-0.5-1.7-1.3-2.5-2.5-2.5c-0.5,0-0.7,0.3-0.7,1c0,0.5-0.5,0.8-1.6,1.1
			C1062,23,1061.5,24.9,1061.5,27.3z"/>
		<path class="st0" d="M1081.3,10c0.5,0,0.9,0.4,1.2,1.3l-1.8,11.1v3.1c0,3.3,0.5,4.9,1.5,4.9c0.7,0.3,1,0.7,1,1.3
			c0,0.6-0.5,1-1.6,1.1c-1.2,0-2.1-1.1-2.8-3.2h-0.4c-1,2.2-2.2,3.2-3.6,3.2c-1.7,0-2.7-1.3-3-3.8c0-2.9,1.9-6,5.8-9.2
			c0.8,0,1.2-1.1,1.2-3.2C1079.5,12.2,1080.3,10,1081.3,10z M1074.3,28.7v1.1l0.6,0.6h0.2c0.9,0,1.9-2.6,3-7.7h-0.2
			C1075.5,25.1,1074.3,27.1,1074.3,28.7z"/>
		<path class="st0" d="M1088.3,17.6c1.1,0,2.9,1.9,5.4,5.6l0.1,0.7c0,0.7-1.8,1.3-5.5,1.7l-0.1,0.1v0.2c0.6,2.4,1.1,3.6,1.8,3.6h0.5
			c0.9,0,2.1-0.9,3.9-2.8h0.2c0.5,0,0.9,0.4,1.2,1.2c0,0.6-1.1,1.7-3.4,3.3c-0.6,0.3-1.3,0.6-2.1,0.8c-2.2,0-3.7-2-4.5-6.1
			c-1.2-0.2-1.8-0.7-1.8-1.5c0-0.6,0.5-1,1.4-1.2v0.2l0.4-0.2v-1C1085.7,19.2,1086.6,17.6,1088.3,17.6z M1088.6,20.5h-0.4L1088,22
			v1.2h0.2c1.5-0.1,2.2-0.2,2.2-0.5C1089.7,21.7,1089.1,21,1088.6,20.5z"/>
		<path class="st0" d="M1099.6,10c0.7,0.3,1.1,0.7,1.1,1.2l0.4,15.2v4.9c0,0.9-0.4,1.4-1.2,1.4h-0.5c-0.5-0.3-0.7-0.7-0.7-1.1V27
			l-0.4-15.8C1098.4,10.5,1098.8,10.1,1099.6,10z"/>
		<path class="st0" d="M1126.5,5.7h0.6c4.3,0,7.1,1.6,8.4,4.7l0.1,1.3v0.4c0,3.1-1.9,6-5.6,8.6c-0.9,0.3-1.4,0.6-1.4,0.9
			c1.1,4.1,1.6,7.4,1.6,10v0.5c0,1.1-0.4,1.6-1.3,1.6c-0.7-0.1-1-0.4-1-1v-1c0-3.1-0.6-6.4-1.7-10c-2.2-0.2-3.4-0.8-3.6-1.8v-0.2
			c0-0.5,0.4-0.9,1.1-1.1l1.8,0.6v-0.1c-0.9-3.9-1.4-6.6-1.4-8c0-0.8,0.5-1.2,1.4-1.2c0.8,0,1.2,1.4,1.2,4.2l1.2,4.8
			c1.9-0.6,3.4-1.9,4.5-3.8c0.6-1.1,0.8-2,0.8-2.8v-0.5c0-2.2-1.9-3.4-5.6-3.7h-1.6c-3.7,0.4-5.5,1.3-5.5,2.6V11
			c0,0.4,0.2,1,0.6,1.9c0,0.6-0.5,1-1.4,1.1c-1.1-0.5-1.6-1.5-1.6-3.1C1118.1,7.9,1120.9,6.2,1126.5,5.7z"/>
		<path class="st0" d="M1143.7,16.9c2,0,3.5,1.5,4.5,4.4l0.2,0.8c0,2.9-1.3,5.8-4,8.8c-1.1,1-2.1,1.5-3.2,1.5
			c-1.6,0-2.7-0.9-3.4-2.8c-0.2-0.9-0.4-1.6-0.4-2.2v-0.5c0-4.2,1.5-7.4,4.6-9.6C1142.5,17.1,1143,16.9,1143.7,16.9z M1139.7,27.3
			c0,1.8,0.5,2.7,1.4,2.7c1.9,0,3.6-2.5,4.8-7.5v-0.8c-0.5-1.7-1.3-2.5-2.5-2.5c-0.5,0-0.7,0.3-0.7,1c0,0.5-0.5,0.8-1.6,1.1
			C1140.1,23,1139.7,24.9,1139.7,27.3z"/>
		<path class="st0" d="M1155.4,16.2c1.7,0,2.7,1.2,3,3.5v0.4c0,2.6-1.3,5-4,7.1c1.5,1.5,4.3,2.3,8.1,2.3c0.6,0.2,0.9,0.6,0.9,1.2
			c0,0.7-0.5,1.1-1.4,1.1c-2.6,0-5.4-0.7-8.2-2V31c0,2.7-0.6,4.1-1.8,4.1c-0.8,0-1.2-1.6-1.2-4.8v-3.1l-0.1-1.1l0.3-1.3l-0.3-3.8
			v-0.2c0-0.7,0.4-1.2,1.1-1.5C1152.8,17.3,1154,16.2,1155.4,16.2z M1153.4,25c0.8,0,1.6-1.4,2.6-4.2v-1.7l-0.5-0.5h-0.4
			C1153.9,19.4,1153.4,21.5,1153.4,25z"/>
		<path class="st0" d="M1169.4,7.7c0.7,0.2,1.1,0.5,1.1,1.1l-0.2,1.8v0.5c0,1.2,0.1,2.4,0.4,3.7h0.1c3.1-0.9,5-1.4,5.8-1.4
			c0.8,0.2,1.2,0.6,1.2,1.2c0,0.9-0.9,1.4-2.8,1.4l-4.2,1.5c0,3.6,0.4,8.5,1.2,14.7c-0.2,0.7-0.5,1.1-1.2,1.1h-0.1
			c-0.9,0-1.4-1.2-1.4-3.6c-0.3-1.8-0.6-5.7-0.9-11.6h-0.7c-2.5-0.2-3.8-0.7-3.8-1.8c0-0.3,0.3-0.7,0.8-1.1h0.4l1.8,0.5h1.3l-0.4-5
			C1167.9,8.7,1168.4,7.7,1169.4,7.7z"/>
		<path class="st0" d="M1185.1,14c1.3,0,2.1,1.3,2.6,4v0.2c0,0.6-0.4,1-1.2,1.1c-0.7,0-1.1-0.8-1.4-2.5l-0.2-0.1h-0.5
			c-0.6,0.9-0.9,2-0.9,3.4l0.1,2c1.1,0,2.2-0.3,3.5-0.8c0.5,0,1,0.4,1.4,1.1c0,1.1-1.5,1.8-4.5,2.2l1,6.5c0,0.6-0.5,0.9-1.4,1.1
			c-0.8,0-1.2-1.3-1.2-3.8l-0.8-3.4l-2.6,0.4c-0.6,0-0.9-0.4-1-1.2c0-0.8,1.1-1.3,3.2-1.5l-0.2-2.5C1181.6,16,1182.9,14,1185.1,14z"
			/>
		<path class="st0" d="M1196.1,16.9c2,0,3.5,1.5,4.5,4.4l0.2,0.8c0,2.9-1.3,5.8-4,8.8c-1.1,1-2.1,1.5-3.2,1.5
			c-1.6,0-2.7-0.9-3.4-2.8c-0.2-0.9-0.4-1.6-0.4-2.2v-0.5c0-4.2,1.5-7.4,4.6-9.6C1194.9,17.1,1195.4,16.9,1196.1,16.9z M1192.1,27.3
			c0,1.8,0.5,2.7,1.4,2.7c1.9,0,3.6-2.5,4.8-7.5v-0.8c-0.5-1.7-1.3-2.5-2.5-2.5c-0.5,0-0.7,0.3-0.7,1c0,0.5-0.5,0.8-1.6,1.1
			C1192.5,23,1192.1,24.9,1192.1,27.3z"/>
		<path class="st0" d="M1204.8,10c0.7,0.3,1.1,0.7,1.1,1.2l0.4,15.2v4.9c0,0.9-0.4,1.4-1.2,1.4h-0.5c-0.5-0.3-0.7-0.7-0.7-1.1V27
			l-0.4-15.8C1203.5,10.5,1203.9,10.1,1204.8,10z"/>
		<path class="st0" d="M1209.6,11.2c1,0.2,1.5,0.7,1.5,1.4c-0.3,0.7-0.7,1.1-1.3,1.1c-1-0.2-1.5-0.7-1.5-1.5
			C1208.7,11.5,1209.1,11.2,1209.6,11.2z M1211.2,16.8c0.4,0,0.8,0.4,1.1,1.2l-0.4,2.8v1.9c0,2.2,0.4,5.1,1.1,8.6
			c-0.3,0.5-0.7,0.8-1.4,0.8c-1.1,0-1.8-3.2-2.2-9.6V21C1209.5,18.2,1210,16.8,1211.2,16.8z"/>
		<path class="st0" d="M1221.4,16.9c2,0,3.5,1.5,4.5,4.4l0.2,0.8c0,2.9-1.3,5.8-4,8.8c-1.1,1-2.1,1.5-3.2,1.5
			c-1.6,0-2.7-0.9-3.4-2.8c-0.2-0.9-0.4-1.6-0.4-2.2v-0.5c0-4.2,1.5-7.4,4.6-9.6C1220.2,17.1,1220.8,16.9,1221.4,16.9z M1217.4,27.3
			c0,1.8,0.5,2.7,1.4,2.7c1.9,0,3.6-2.5,4.8-7.5v-0.8c-0.5-1.7-1.3-2.5-2.5-2.5c-0.5,0-0.7,0.3-0.7,1c0,0.5-0.5,0.8-1.6,1.1
			C1217.9,23,1217.4,24.9,1217.4,27.3z"/>
		<path class="st0" d="M1250.2,4.5c0.6,0,1,0.4,1.2,1.3c-3.4,4-5.2,9.2-5.2,15.5v0.2c0,6.2,1.7,10.2,5.2,11.9
			c1.2,0.3,1.8,0.8,1.8,1.5c0,0.4-0.4,0.8-1.2,1.1c-2.3-0.6-4.1-1.9-5.4-3.8c-1.8-2.8-2.7-6.2-2.7-10.1v-0.9
			c0-6.2,1.6-11.5,4.8-15.8C1249.4,4.9,1249.9,4.5,1250.2,4.5z"/>
		<path class="st0" d="M1266.4,8.9c0.5,0,0.8,0.4,1,1.2c0,0.5-0.8,1.1-2.5,2c-2.1,1.8-3.6,4.9-4.6,9.4v0.7c2.3-1.1,4-1.8,5-2.1
			c0.3,0,0.7,0.3,1.2,0.8v0.8c0,0.3-1.2,0.9-3.5,1.8c-1.8,1-2.6,1.5-2.6,1.6v0.4c0,1.5,1,2.8,2.9,3.9l1.4,0.2c0.9,0,2.2-0.5,3.9-1.6
			h0.5c0.6,0.3,0.8,0.7,0.8,1.2v0.2c-1.7,1.7-3.5,2.6-5.5,2.6c-2.9,0-4.9-1.9-6.2-5.8l-2.5,0.5c-1.2-0.2-1.8-0.6-1.8-1.2
			c0-0.6,0.4-1.1,1.1-1.3l0.9,0.2c1.4-0.4,2.1-0.7,2.1-0.9c0-4.5,1.7-8.7,5.2-12.6C1264.6,9.6,1265.8,8.9,1266.4,8.9z"/>
		<path class="st0" d="M1278.2,22.8c1.8-7.5,4.3-13.2,7.5-16.8l0.8-0.2c0.7,0.2,1,0.6,1,1.2v0.2c-3.4,4.2-5.9,10.6-7.5,19.1
			c1.4,2.2,2.8,3.3,4.2,3.3h1.2l1.8-0.4h0.2c0.4,0.2,0.6,0.5,0.6,1v0.2c0,0.8-1,1.4-3.1,1.6c-1.7,0-3.5-0.8-5.3-2.5h-0.2
			c-0.3,3-0.5,7-0.8,12c-0.5,0.4-0.8,0.6-1.2,0.6c-0.7-0.3-1.1-0.7-1.1-1.2c0-4.1,0.4-8.9,1.1-14.2c-1.8-2.9-3.7-7.7-5.8-14.5
			c0-0.3,0.3-0.6,0.8-1.1h0.6c0.5,0,1.9,3.6,4.4,10.8l0.6,0.8H1278.2z"/>
		<path class="st0" d="M1298.1,5.7h0.6c4.3,0,7.1,1.6,8.4,4.7l0.1,1.3v0.4c0,3.1-1.9,6-5.6,8.6c-0.9,0.3-1.4,0.6-1.4,0.9
			c1.1,4.1,1.6,7.4,1.6,10v0.5c0,1.1-0.4,1.6-1.3,1.6c-0.7-0.1-1-0.4-1-1v-1c0-3.1-0.6-6.4-1.7-10c-2.2-0.2-3.4-0.8-3.6-1.8v-0.2
			c0-0.5,0.4-0.9,1.1-1.1l1.8,0.6v-0.1c-0.9-3.9-1.4-6.6-1.4-8c0-0.8,0.5-1.2,1.4-1.2c0.8,0,1.2,1.4,1.2,4.2l1.2,4.8
			c1.9-0.6,3.4-1.9,4.5-3.8c0.6-1.1,0.8-2,0.8-2.8v-0.5c0-2.2-1.9-3.4-5.6-3.7h-1.6c-3.7,0.4-5.5,1.3-5.5,2.6V11
			c0,0.4,0.2,1,0.6,1.9c0,0.6-0.5,1-1.4,1.1c-1.1-0.5-1.6-1.5-1.6-3.1C1289.7,7.9,1292.5,6.2,1298.1,5.7z"/>
		<path class="st0" d="M1310.8,11.6c0.6,0,1.1,1,1.2,3l0.2,2.2c0,1.6-0.3,5.9-0.9,12.7h0.2v0.1l0.2-0.1h0.3l4.7,0.4h0.3l2-0.6h0.3
			c0.4,0.3,0.7,0.6,0.9,1.1c0,1-1.1,1.6-3.4,1.9l-4.1-0.4h-0.8l-1.9,0.5c-0.7-0.3-1.1-0.7-1.1-1.3l0.8-13.7v-0.6l-0.2-4
			C1309.5,12.1,1309.9,11.7,1310.8,11.6z"/>
		<path class="st0" d="M1326.6,10.4l1-0.2h0.4c0.5,0,1.1,0.3,1.8,1c1.2,0,2.8,1.5,5,4.4c1.8,3.5,2.8,6.5,2.8,9.2
			c0,3.7-1.3,6.1-4,7.4l-2.5,0.5c-4,0-6.9-3-8.6-9c-0.4-1.6-0.6-3.1-0.6-4.6v-0.4C1321.7,14.2,1323.3,11.4,1326.6,10.4z
			 M1326.2,14.2l-0.9-0.4c-0.8,1-1.2,2.4-1.2,4.3v1.1c0,4.9,1.7,8.5,5,10.8l1.1,0.2h1.5c1.4,0,2.4-0.9,3-2.6l0.2-1.8v-1.2
			c0-4-1.6-7.6-4.8-10.8l-1.6-0.5h-0.1C1327.9,13.4,1327.2,13.6,1326.2,14.2z"/>
		<path class="st0" d="M1341,9.8c0.6,0,1.1,0.3,1.2,1l-0.2,2.4V14c0.7,5.5,1.1,9.8,1.2,12.9c0.3,2.9,0.6,4.3,0.9,4.3
			c0,0.6-0.5,0.9-1.4,1.1c-1.3,0-2-2.7-2-8.1l-1.1-10.4v-0.4C1339.6,11,1340,9.8,1341,9.8z"/>
		<path class="st0" d="M1354,6.8l12-0.8c0.3,0,0.7,0.3,1,1c0,1-1.2,1.5-3.5,1.5l-7,0.4l-0.2,0.1c0.7,4.3,1,12.6,1,24.8
			c-0.1,1.2-0.6,1.8-1.3,1.8c-0.7,0-1.1-0.5-1.2-1.6v-9.3c0-6.2-0.3-11.3-0.8-15.5c-4.8,0.5-7.2,1-7.2,1.6l-0.4,0.2
			c-0.8-0.2-1.2-0.7-1.2-1.3C1345.2,8.2,1348.1,7.2,1354,6.8z"/>
		<path class="st0" d="M1366.3,6.8c1.3,0.5,2.5,2.4,3.8,5.9c0.4,2.1,0.6,3.8,0.6,5.2v0.2c0,6-1.5,11.1-4.6,15.5l-0.6,0.2
			c-0.8-0.2-1.2-0.6-1.2-1.2c2.7-4.3,4.1-9.3,4.1-14.8c0-4-1.1-7.2-3.2-9.6V7.7C1365.4,7.1,1365.8,6.8,1366.3,6.8z"/>
	</g>
</g>
</svg>
