<?xml version="1.0" encoding="utf-8"?>
<!-- Generator: Adobe Illustrator 25.1.0, SVG Export Plug-In . SVG Version: 6.00 Build 0)  -->
<svg version="1.1" id="Layer_1" xmlns="http://www.w3.org/2000/svg" xmlns:xlink="http://www.w3.org/1999/xlink" x="0px" y="0px"
	 viewBox="0 0 1442.8 1659" style="enable-background:new 0 0 1442.8 1659;" xml:space="preserve">
<style type="text/css">
	.st0{display:none;}
	.st1{display:inline;fill:#666666;}
	.st2{display:inline;}
	.st3{opacity:0.25;fill:#F57F20;stroke:#F57F20;stroke-width:8;stroke-miterlimit:10;}
	.st4{fill:none;stroke:#F57F20;stroke-width:8;stroke-miterlimit:10;}
	.st5{fill:none;stroke:#005E73;stroke-width:8;stroke-miterlimit:10;}
	.st6{opacity:0.25;fill:#005E73;}
	.st7{fill:none;stroke:#00C1D5;stroke-width:8;stroke-miterlimit:10;}
	.st8{opacity:0.25;fill:#00C1D5;}
	.st9{fill:#F57F20;}
	.st10{fill:#00C1D5;}
	.st11{fill:#005E73;}
	.st12{fill:#666666;}
</style>
<g class="st0">
	<path class="st1" d="M61.9,182.5c-3.6,0-4.1,2.3-5.2,3.7c-10,12.9-19.9,25.9-29.7,38.9c-2.3,3-4.6,5.9-8.2,6.9
		c-5.5,1.6-10.6,0.8-14.8-3.4c-3.9-4-5.2-10.5-2.6-15.8c1.4-3,3.5-5.7,5.5-8.3c20.1-26.2,40.7-51.9,60-78.7c0.6-0.8,1.2-1.6,1.8-2.4
		c5.2-6.3,10.1-7.9,15.4-5.1s7.7,9.5,5.9,16.5c-2.2,8.5-2.3,8.9,6,10.6c16,3.3,32.1,5.9,48.1,9c4.9,0.9,9.8,2.1,14.5,3.5
		c6.1,1.8,8.5,4.8,8.1,9.7c-0.3,4.8-3.3,7.7-9.4,8.6c-23.6,3.5-47.1,4.5-69.8-5.3c-1.2-0.5-2.5-0.8-4-0.2c-1.4,3-0.7,6.4-0.7,9.6
		c0,463,0,925.9,0,1388.9c0,12.5-1.5,11.1,11.3,11.1c428.2,0,856.4,0,1284.6,0c3.2,0,6.4,0,9.6,0c0.1-0.5,0.3-1,0.4-1.6
		c-5.7-3.7-11.5-7.3-17.1-11.1c-5.2-3.5-10.5-7-15.4-11c-8.9-7.2-10.9-16.8-5.7-24.6c5.3-7.9,14.4-9.7,24.9-4.4
		c9.3,4.7,18,10.3,25,18c6.1,6.8,13.4,11.9,21.3,16.2c7.5,4.1,14.2,8.8,15.8,18.1c0.3,1.5,1.7,2.8,2.5,4.2
		c4.9,8.2,2.1,15.8-7.1,17.1c-5.1,0.7-6.9,2.4-8.7,7.1c-5.9,15.1-18.9,22.7-33.2,28.2c-7.2,2.8-14.8,3.6-22.5,4.1
		c-5.1,0.3-9.4-0.7-11.6-5.8c-1.9-4.4-0.4-8.5,4.9-12.8c6.7-5.4,13.8-10.5,21.5-14.6c2.2-1.2,4.9-1.9,7-5.9c-4.6,0-8.3,0-12.1,0
		c-186.6,0-373.2,0-559.8,0c-242.6,0-485.2,0-727.8,0c-5,0-10,0.1-15,0.1c-9.8-0.1-13.4-3.5-13.6-13c-0.1-2.7,0.1-5.3,0.1-8
		c0-463.3,0-926.6,0-1389.9C61.9,188.3,61.9,185.6,61.9,182.5z"/>
	<path class="st1" d="M1075.5,920.8c5.9-5.1,10.7-9.7,16-13.7c9.7-7.2,20.5-12.3,32.8-13.2c3.8-0.3,7.8-0.4,8.5,4.6
		c0.6,4.8-2.6,6.1-6.8,6.5c-17.1,1.5-27,13.7-38.7,25c5.4,3.6,10.2,4.2,15.2,4.5c2.3,0.1,4.7,0.1,7,0.4c2.9,0.4,5.1,1.8,5.5,4.9
		c0.4,3-1.2,5.3-3.9,6.2c-9.8,3.5-20,6.8-29.9,1.5c-5.6-3-8.3-1.5-11.4,2.8c-1.3,1.9-3,3.5-4.6,5.3c-1.9,2.1-4,3.8-6.9,2.1
		c-3.3-2-2.7-5-1.4-7.9c1.5-3.3,3-6.7,5-9.7c2-3.1,1.5-5.2-1-7.8c-4.8-5.1-8.8-10.8-11.5-17.4c-2.1-5.3-2.1-10.4,1.5-15.1
		c1.7-2.2,3.8-3.7,6.8-3.2s5.1,2.4,5.2,5.3C1063.4,910.8,1070.2,915,1075.5,920.8z"/>
	<path class="st1" d="M1016.5,1064.9c6.2,4.2,11.7,7.8,17.1,11.5c2.9,1.9,5.5,4.2,4.2,8.1s-4.7,4.1-8.2,4c-9.5-0.4-18.5-2.5-26-9.2
		c-5.8,4.9-8.8,11.3-12.6,17c-1.8,2.7-3.6,5.1-7.2,4c-4.3-1.3-3.8-5-3.4-8.3c1-7,2.8-13.8,6.8-19.6c2.7-3.9,2.8-6.7-0.2-10.4
		c-5-6.3-5.4-13.4-2.2-20.7c1.9-4.2,5-7,9.8-7.6c2.4-0.3,4.6,0,6.2,2.2c1.6,2.2,1.7,4.6-0.2,6.4c-5.8,5.5-1.3,8.5,2.4,12.2
		c13.6-9.3,28.6-14.5,44.1-18.6c1.9-0.5,3.9-1.2,5.8-1.1c2.6,0.1,4.2,1.8,4.8,4.4c0.5,2.2-0.5,4.1-2.4,5c-2.1,1-4.4,1.6-6.6,2.3
		C1037.1,1050.6,1026.2,1055.9,1016.5,1064.9z"/>
	<path class="st1" d="M889.4,912.7c-2.6,3.5-4.8,6.4-6.9,9.4c-1.8,2.5-4.3,3.4-6.9,1.7c-2.2-1.5-2.3-4.1-1.2-6.3
		c3.3-6.5,6.7-13,10.4-19.2c2.9-4.8,5.7-9.5,6.7-15.3c1.4-8.8,7.8-12.7,15.8-14.3c6.4-1.3,8.2-0.2,8.8,6.5c0.2,2.9,1.4,3.1,3.4,3.6
		c7.2,1.6,13.8,4.7,20.2,8.2c2.8,1.5,5.2,3.7,3.6,7.1c-1.7,3.7-5,3.9-8.4,2.3c-6.3-3-12.3-6.5-19.7-6.4c-9.4,0.1-11.4,2-10.4,11.2
		c1,8.9,2.6,17.7,6.9,25.8c2.6,4.8,5.9,7.9,11.7,7.5c1.3-0.1,2.7,0.1,4,0.1c1.9,0,3.3,1.3,3.7,2.8c0.6,2.1-0.5,3.7-2.3,5
		c-8.1,6.1-19.1,5.2-26.2-2.3c-5.1-5.4-7.9-12.2-10.2-19.2C891.7,918.4,891.6,915.7,889.4,912.7z"/>
	<path class="st1" d="M1212.4,1060.5c-3.3-2.9-6.8-5.6-9.8-8.6c-3.5-3.6-6.1-7.9-6.4-13.2c-0.2-3.5,0.5-6.6,3.9-8.5
		c3.5-1.9,6.4-0.8,9,1.8c4.5,4.5,10,7.7,14.9,11.7c3.5,2.9,6.1,2.3,9.7,0.1c7.6-4.7,15.6-8.9,23.5-13.2c3.1-1.7,6.5-3,8.7,0.9
		c2.4,4.2-0.3,6.7-3.8,8.7c-7.5,4.1-15.2,7.8-22,13.2c1.6,3.3,4.6,4.3,7,6.1c5,3.9,6.5,7.2,4.4,10.7c-2.5,4.1-6.1,4.5-10.4,3
		c-3.8-1.3-7.9-1.7-11.4-3.4c-4.5-2.2-7.3-0.9-10.4,2.4c-5.2,5.6-10.9,10.7-16.5,16c-2.2,2.1-4.4,4.8-7.6,2.3
		c-3.1-2.4-1.6-5.5-0.4-8.2c1.7-4,4.5-7.4,7.4-10.6C1205.2,1068.2,1208.4,1064.8,1212.4,1060.5z"/>
	<path class="st1" d="M1059.3,823c-4.6,3.8-8.1,8.6-11.4,13.6c-1.8,2.7-3.9,5.4-2.4,9.1c1.1,2.8-0.3,5.2-2.7,6.9
		c-3,2.1-5.7,0.8-8.3-0.8c-7.4-4.7-9.2-14.8-3.4-22.8c4-5.6,9.1-10.5,13.8-15.7c1.2-1.4,3.5-2.5,1.3-4.8c-2.5-2.5-2.9-5.4-0.7-8
		c2.5-3,6.4-5,9.8-3.4c5.9,2.7,10.9,1.5,16.8-0.2c7-1.9,14.5-0.8,21.7,1.3c3.4,1,5.3,2.9,4.5,6.5c-0.7,3.1-3.1,4.1-6.1,3.8
		c-4.3-0.4-8.6-1.1-12.9-0.2c-5.5,1.1-6.2,2.6-3.4,7.3c2.9,4.9,6.2,9.4,10.2,13.5c2.3,2.3,3.5,5,1.5,8c-1.7,2.5-4.5,2.5-7.2,2
		c-7.4-1.3-12.4-6-16.8-11.6C1062.2,825.7,1061.4,823.8,1059.3,823z"/>
	<path class="st1" d="M785.5,775.9c-4.5,7.3-8.7,14-12.9,20.7c-1.1,1.7-2.1,3.4-3.2,5c-1.5,2-3.4,3.5-5.9,2.2
		c-2.3-1.1-3.2-3.3-2.6-5.9c1.7-8.2,4.3-16,8.5-23.3c1.7-2.9,3.1-6,5.4-8.3c4.2-4.3,5-8.9,3.5-14.4c-0.7-2.5-0.5-5.3-0.6-7.9
		c-0.1-3.3,1-6.1,4.6-6.6c3.4-0.5,5.6,1.3,6.3,4.8c0.4,1.9,0.1,4.1,2.4,5.6c6.5-4.8,12.6-10.4,20.2-13.9c2.1-1,4.2-2.2,6.4-2.8
		c2.6-0.7,4.5,0.7,5.7,2.9c1.3,2.4,0.6,4.6-1.5,6.1c-1.6,1.2-3.5,1.9-5.2,2.9c-7.1,3.9-12.9,9.2-18.6,14.9
		c-4.1,4.2-3.8,7.7-0.9,12.2c3.8,5.9,8.2,11.3,12.7,16.6c1.3,1.5,2.9,2.8,4.1,4.4c1.2,1.6,1.9,3.5,0.5,5.5s-3.4,2.2-5.3,1.6
		c-6.3-1.7-11.2-5.7-15.2-10.7C791.1,783.9,788.6,780,785.5,775.9z"/>
	<path class="st1" d="M1164.4,844.7c-4.6,6.9-8.5,12.7-12.4,18.4c-1.6,2.3-3.5,4.3-6.6,2.7c-3-1.6-2.4-4.3-1.5-7
		c0.5-1.2,0.9-2.5,1.3-3.7c2.3-5.9,4.5-11.9,8.3-16.9c2.9-3.8,2.9-7,0.3-10.7c-0.9-1.3-1.5-2.9-2.3-4.4c-1.9-3.5-0.9-6.4,1.9-8.9
		c2.5-2.3,5.4-2.2,8.3-0.8c0.3,0.1,0.6,0.3,0.8,0.6c6.7,8.1,13.5,4.9,20.7,0.5c3.1-1.9,6.7-3,10.1-4.1c2.7-0.9,5.5-0.3,6.6,2.7
		c1.2,3.2,0.2,5.9-3,7.4c-5.4,2.5-11.2,4.3-16.7,8.9c3.4,3.4,6.8,6.8,10.2,10.1c1.9,1.8,4,3.5,6,5.3c2.7,2.5,3.7,5.6,1.9,9
		c-1.8,3.3-4.7,4.4-8.4,3.8C1180.5,856.1,1172,852.9,1164.4,844.7z"/>
	<path class="st1" d="M1158.8,932.7c-3.1-0.2-5.7-0.3-8.4-0.4c-3.8-0.1-6.5-1.5-6.7-5.7c-0.1-3.7,2.3-5.5,5.6-5.8
		c7.3-0.6,14.8-2.1,21.6,1.4c4.1,2.1,7.3,1.5,11.2-0.3c5.4-2.5,11.1-4.3,16.7-6.5c3.3-1.3,6-0.5,7.4,2.8c1.4,3.4-0.3,5.8-3.5,7.1
		c-4.6,1.9-9.2,3.7-13.8,5.5c0,3.7,3.1,4.3,5,5.9c3.1,2.6,6.8,4.8,4.4,9.7c-1.7,3.5-4.8,3.6-11.3,0.5c-2.7-1.3-5.4-2.5-8-4
		c-3.4-2-6-1.7-8.7,1.3c-5.6,6.1-11.5,12-17.2,18c-2.1,2.2-4.1,4.4-6.2,6.5s-4.3,4.7-7.7,2.5c-3.7-2.3-2.9-5.4-1.1-8.7
		c4.7-8.5,9.6-16.7,16.5-23.6C1156.1,937.5,1158.6,936.6,1158.8,932.7z"/>
	<path class="st1" d="M883.9,607.2c-0.7-1.9-2.2-1.9-3.3-2.4c-2.7-1.3-4.1-3.4-3.2-6.4c0.7-2.4,2.4-4.4,5-4.1
		c10.4,1.3,17-5.5,24.6-10.6c10.2-6.8,21.7-9.9,34-9.5c1.7,0,3.3,0.1,5,0.3c3.4,0.4,5.8,2.2,5.6,5.8s-3,4.9-6.4,4.6
		c-7.5-0.7-14.6,0.7-21.4,3.5c-6.1,2.6-11.8,5.9-16.4,11.3c3.6,4.3,7,8.3,10.4,12.4c1.3,1.5,2.5,3.1,3.7,4.7c1.4,2,2.2,4.3,0.1,6.3
		c-2.1,2.1-4.3,1-6.1-0.6c-3.6-3-7.1-6.1-10.6-9.1c-1.5-1.3-3.1-2.4-5.2-4c-6,6.6-9.6,14.3-13.9,21.6c-1.4,2.3-2.5,4.7-3.9,7
		s-3.1,4.6-6.4,3.2c-3-1.3-3.3-3.9-2.3-6.7c2.4-6.6,4.8-13.1,7.3-19.6C881.3,612.2,882.8,609.6,883.9,607.2z"/>
	<path class="st1" d="M950.9,726.8c-0.1-0.8-0.2-3.2-0.3-5.5c-0.5-6.5-1.8-12.7,6.1-16.8c3.6-1.9,5.1-7.5,7.9-11.3
		c7.3-9.9,17.5-11,28.6-8.8c3.4,0.7,5.4,2.7,4.9,6.3c-0.5,3.2-2.9,4.2-5.9,4c-2-0.1-4-0.2-6-0.4c-4.5-0.4-7.7,1.7-9.9,5.3
		c-5.9,9.4-10.3,19.8-11.5,30.5c-0.9,8.8,3.1,17.6,11.9,22.4c2.6,1.4,5.4,2.6,8,4c2,1.1,2.4,3.1,1.8,5.2c-0.5,1.8-2,2.7-3.8,2.7
		c-7.5,0.1-14.7-1.3-20.3-6.5c-3.5-3.2-5.4-8.1-10.7-9.6c-2.1-0.6-1.9-3.3-1.8-5.3C950.2,738.2,950.5,733.3,950.9,726.8z"/>
	<path class="st1" d="M1170.8,649.3c4.1,3.7,9.3,5.3,13.6,8c2,1.3,4.2,2.8,3.1,5.5c-1.2,2.9-3.5,3.6-6.5,2.5c-5.6-2-11.5-3.4-17-5.6
		c-3.4-1.4-5.6-0.7-7.7,1.9c-4.2,5.2-8.3,10.3-12.6,15.4c-1.7,2-3.6,4.3-6.7,2.3c-2.8-1.8-2.5-4.3-1.1-7c2.6-5,4.8-10.2,7.8-15
		c2.5-3.9,3.6-6.9-1.3-9.7c-1.7-1-3-2.6-4.4-4c-2.3-2.5-2.8-5.3-0.5-8s5.2-2.6,8.1-1.1c0.3,0.1,0.6,0.3,0.8,0.6
		c6.8,7.3,13.7,6.6,21.9,1.8c5.3-3.1,11.8-4.3,18.2-4.8c2.9-0.2,5.5,0.3,6.2,3.5c0.8,3.5-0.8,5.9-4.2,6.7
		C1182.4,643.8,1176.2,644.9,1170.8,649.3z"/>
	<path class="st1" d="M1065.8,719.6c4.7-2.6,9.2-5.2,13.7-7.7c2-1.1,4.1-2.3,6.3-3.1c2.8-1,5.3-0.5,6.7,2.4c1.5,2.9,0.4,5.3-2,6.9
		c-4.8,3-9.9,5.5-14.7,8.4c-2,1.2-3.6,2.9-5.4,4.5c2.4,4.8,6.8,7.4,10.2,10.9c1.8,1.9,2.7,3.9,1.1,6.2c-1.7,2.4-4,1.8-6.2,0.6
		c-4-2.3-8.1-4.6-12.3-7c-3,0.5-3.4,3.5-4.6,5.7c-2.1,3.7-3.8,7.7-5.8,11.6c-0.9,1.8-2.2,3.6-4.6,2.9c-2.7-0.7-3.4-2.8-2.9-5.5
		c1.2-5.9,2.6-11.8,5.4-17s4.2-10.2,2.6-16.1c-1.2-4.5-0.2-9.3,0.5-13.9c0.5-3.5,2.5-5.4,6-5.2c3.8,0.2,4.9,2.8,5,6.2
		C1065,713.1,1064.1,716.1,1065.8,719.6z"/>
	<path class="st1" d="M359.2,973.1c-6.9,9.6-11.5,19.2-16.6,28.5s-9.7,18.9-14.9,28.3c-2.9,5.3-7.6,5.8-10,1.6
		c-1.2-1.9-0.7-3.7,0-5.7c8.2-21.8,15-44.3,30.5-62.4c3-3.5,2.7-6.1,0.5-9.7c-9.3-15.5-14.2-32.9-21.2-49.5
		c-0.4-0.9-0.8-1.8-1.1-2.8c-1-3.4-1.2-6.8,2.5-8.6c4-1.9,7.2-0.4,9,3.5c3.3,6.9,6.6,13.8,9.6,20.9c4.4,10.4,8.7,20.8,13.2,31.9
		c8.5-6.6,17.2-11.1,26.5-14.7c1.8-0.7,3.7-1.5,5.6-2c2.5-0.6,4.7,0,5.8,2.6c1.2,2.9,0.3,5.3-2.3,6.8c-2.9,1.6-6,2.9-9,4.2
		c-6.1,2.7-11.7,6.1-16.4,11.1c-3.4,3.6-4.4,6.9-2,11.4c2.1,3.8,3.6,7.9,5.1,11.9c0.9,2.3,0.6,4.7-2,6c-2.4,1.2-4.6,0.6-6-1.8
		C363.9,981,361.9,977.5,359.2,973.1z"/>
	<path class="st1" d="M660.1,1100.9c5.4,9.3,10.6,17.4,14.3,26.3c3.2,7.8,3.1,12.2-0.4,14.6c-4.2,2.8-10.3,0.7-15.5-5.4
		c-4.6-5.4-7.1-11.9-10.2-18.2c-0.9-1.7-1.9-3.3-3.3-5.6c-5.6,4.5-10,9.4-14,14.6c-10.1,13.2-19.5,26.9-28.3,41
		c-0.7,1.1-1.3,2.3-2,3.4c-1.5,2.6-2.8,6.1-6.5,4.7c-4.5-1.6-2.6-5.6-1.8-8.6c1-3.8,2.3-7.7,4.1-11.2c9.4-18.8,21.2-36.1,36.5-50.7
		c1.4-1.3,3.3-2.3,3.8-4.9c-5-6.4-10.6-11.4-20-8.4c-2.7,0.9-5.5,0.4-6.6-2.7c-1.2-3.4,0.5-5.6,3.4-7.3c12.6-7.4,23.6-6.3,34.5,4.2
		c3.5,3.3,6.4,5.4,11,2.6c1.1-0.7,2.5-0.7,3.8-1c2.6-0.4,4.7,0.4,5.7,2.9c1.1,2.9,0.3,5.2-2.4,6.7
		C664.4,1099.1,662.6,1099.8,660.1,1100.9z"/>
	<path class="st1" d="M493.3,1067c-3.4,6.2-6.1,11.1-8.8,16c-1.1,2-2.3,4-3.4,6.1c-1.5,3-3.8,4.7-7.2,3.6c-3.1-1-3.5-3.7-3.4-6.5
		c0.2-7.1,2-13.8,5.1-20.1c2.2-4.5,4.8-8.7,7.4-13c4.1-6.8,3.4-13.1-2.4-18.3c-0.7-0.7-1.6-1.2-2.5-1.6c-3.6-1.7-6.6-3.8-4.3-8.3
		c2.2-4.3,6.2-3.1,9.7-2.3c4.3,1.1,8,3.6,10.6,7.1c2.9,3.9,5.3,4.7,9.6,1.6c9.8-7.1,20.7-5.7,31.6-3c3.4,0.8,5.5,2.7,4.9,6.3
		c-0.6,3.8-3.6,4.5-6.8,4c-8.1-1.1-15.8-1.1-22.5,4.9c-3.3,2.9-4.9,5.2-2.9,10.1c5.6,13.5,9.2,27.7,15.3,41c1.4,3,1.9,5.8-0.7,8.2
		c-3,2.7-6.1,1.7-9.2-0.1c-4.8-2.8-7.7-7.2-10.4-11.9C499,1083.9,496.9,1076.2,493.3,1067z"/>
	<path class="st1" d="M470,1246.4c-11.7,11.5-20.3,23.3-29,35.1c-2.2,3-3.8,8.5-8.7,6.2c-5.4-2.5-2.2-7.7-1.1-11.5
		c2.5-8.1,7-15.1,12.8-21.1c5.3-5.5,10.6-11.1,16.2-16.2c3.1-2.9,3.3-5.1,0.6-8.3c-2.8-3.3-5.2-6.8-10.4-6.6
		c-3.8,0.1-6.5-2.1-6.1-6.2s3.6-5.2,7.1-5.5c5.6-0.6,10.6,0.8,14.9,4.3c3.1,2.5,6,5.2,9.2,7.9c5.8-3.7,11.6-7.6,17.6-11.2
		c4.6-2.7,9.5-4.7,15-5.1c3.8-0.2,7,0.8,7.3,4.9c0.2,3.4-2.2,5.2-5.7,5.6c-9.8,1.1-16.7,7.7-24,13.4c-2.6,2-2.9,3.8-1.3,6.7
		c6.5,12.4,9.9,26.1,15.6,38.8c0.5,1.2,0.9,2.5,1.4,3.7c1.2,2.8,0.8,5.2-1.8,7c-2.6,1.7-5.1,1-7.2-1c-6.9-6.4-12.2-14-15.6-22.9
		C474.7,1258.8,472.6,1253.3,470,1246.4z"/>
	<path class="st1" d="M372.6,1177.6c3.3,3,6.9,2.4,10,3.3c3.2,1,8.3,0.2,8.1,5.5c-0.2,5.5-5.1,4.1-8.5,4.3c-4.7,0.1-9.3,0.2-14-0.2
		c-3.9-0.3-6.1,1.1-7.9,4.4c-3.9,7-7.5,14.1-10.3,21.6c-0.8,2.2-1.5,4.4-2.5,6.5c-1.2,2.7-3.3,4.2-6.4,3.5c-2.7-0.7-3.4-3.1-3.5-5.5
		c-0.1-8.7,0.7-17.3,4.3-25.4c1.2-2.7,2.5-5.4,4-8.5c-8.4-3.9-16.7-7.8-24.1-13.7c-9.1-7.3-12.5-16.9-13.9-27.7
		c-0.5-3.6,0.1-6.9,4.2-7.9c4.4-1.1,7.3,1.3,7.9,5.4c2.8,17.6,16.7,23.4,30.5,29.6c3.6,1.6,6,1.2,8.7-1.7c8.2-8.4,18-14.7,27.8-21.1
		c1.4-0.9,2.8-1.8,4.2-2.6c3.2-1.8,6.5-2.3,8.6,1.4c1.8,3.2-0.1,5.8-2.8,7.5C388.1,1162.1,379.8,1168.6,372.6,1177.6z"/>
	<path class="st1" d="M674.1,1232.2c8.5-12.7,18.4-20.8,30.7-25.7c7.4-3,10.6-2.8,12.5,0.7c1.8,3.5,0.2,5.4-7.8,9
		c-10.7,4.8-18.3,12.7-24.3,23.2c4.7,2.3,8.9,4.3,13,6.4c2.5,1.3,4.4,3.3,3.2,6.4c-1,2.8-3.3,4.2-6.3,3.8c-4.9-0.7-9.9-1.2-14.7-2.7
		c-3.6-1.1-5.5-0.2-7.4,2.7c-4,6.1-8.2,12.1-12.4,18.1c-1.1,1.6-2.2,3.3-3.5,4.8c-1.4,1.7-3.4,2.2-5.4,1.1s-2.4-3.3-1.5-5.2
		c1.9-4.2,4-8.4,6.1-12.5c2.8-5.6,8-11.3,7.8-16.8c-0.2-5-6.2-9.8-9.5-14.7c-3.1-4.7-6.2-9.4-11.6-12c-2.8-1.3-3.7-4-2.3-6.7
		c1.6-3.1,4.2-3.7,7.6-2.3c5.7,2.3,10.3,6.1,14.5,10.4C666.4,1223.7,669.7,1227.4,674.1,1232.2z"/>
	<path class="st1" d="M375.1,1337.2c-1.9,4-3.2,7.1-4.7,10c-1,1.9-3,2.9-5,2.3c-2-0.7-3.1-2.4-2.9-4.7c0.2-2,0.1-4.1,0.7-5.9
		c2.1-6.6,2.2-12.5-1.6-18.9c-3.2-5.5-2-11.7,3.1-16.3c4.5-4.1,9.6-6.7,15.1-2.6c3.2,2.4,4.7,0.7,6.7-1s4-3.6,6.2-5
		c2.7-1.8,5.6-2,8,0.8c2.5,3,1.3,5.7-1.1,7.9c-4.9,4.5-10.4,8.2-14.4,14c5.8,6.1,13.6,8.2,20.7,11.6c4.3,2.1,10.4,3,9.1,9.8
		c-1.1,6.2-6.8,5.2-11.2,6.1C393.3,1347.4,384.2,1343.8,375.1,1337.2z"/>
	<path class="st1" d="M478.8,881.3c-3.6,6.8-6.7,12.7-9.8,18.5c-1.1,2-2.2,4.2-3.8,5.8c-2.8,2.8-6.5,1.6-7.5-2.3
		c-0.9-3.7,0.2-7.3,0.9-10.9c1.2-5.9,2.9-11.7,5.9-16.8c3.7-6.1,2.7-10.9-1.8-15.9c-2-2.2-3.4-4.9-5-7.4c-1.7-2.6-1.4-5.3,1-7.1
		c2.7-2.1,5.7-1.9,8,0.9c2.3,2.8,4.4,5.8,6.6,8.6c3.6,0.4,4.3-2.9,6-4.6c6-6.1,12.9-10.4,21.4-11.8c2.3-0.4,4.6-0.4,6.9-0.1
		c2.5,0.3,4.4,1.7,4.5,4.4c0.2,3.1-1.5,5.7-4.5,5.6c-11.2-0.5-15.2,7.8-20.1,15.3c-2.6,3.9-2.7,6.9,1.1,10.2
		c5,4.3,9.7,9.1,14.5,13.7c1.4,1.4,3,2.6,4.4,4.1c1.6,1.7,3.2,3.6,1.1,6c-1.9,2.3-4.2,1.7-6.3,0.4c-4-2.4-7.9-4.9-11.7-7.6
		C486.8,887.5,483.2,884.6,478.8,881.3z"/>
	<path class="st1" d="M563.3,916.2c4.4-3.6,8.4-7,12.5-10.2c1-0.8,2.3-1.4,3.4-2c3.6-1.8,7.9-4,10.5,0.6c2.7,4.9-1.4,6.8-5.3,8.6
		c-6.9,3.2-11,9.3-14.9,15.6c-2,3.2-1.6,6.4-0.7,9.6c2.1,7.3,4.3,14.6,6.5,21.9c0.9,2.8,2.8,6-0.9,7.8c-3.5,1.7-5.3-1.6-7.2-3.8
		c-3.5-4-5-9.3-8.2-14.9c-5.4,12.4-10.5,23.9-15.5,35.5c-0.7,1.5-1.3,3.1-2,4.6c-1.4,3-2.5,6.8-7,5c-3.9-1.5-2.5-5-1.6-7.7
		c5.4-16.7,9.9-33.9,18.1-49.5c3.4-6.6,4-12.3,1.4-18.9c-1-2.5-1.7-5-2.2-7.6s0.6-4.6,3-5.7c3-1.3,5.3,0.1,6.7,2.6
		C561.3,910.3,562.1,913.1,563.3,916.2z"/>
	<path class="st1" d="M468.8,1336.2c4.7-3.8,9-7.4,13.4-10.9c1.5-1.2,3.3-2.3,5.1-3c2.7-1,5.2-0.6,7,2s1.6,5.2-0.4,7.3
		c-4.1,4.3-8.8,8.1-12.4,12.9c-3.6,4.7-5.8,9.1-2.1,15.3c3,5,4.6,11,6.6,16.6c0.9,2.6,1.3,5.5-2.1,6.7c-2.6,0.9-4.3-0.9-5.5-3.1
		c-2.6-4.6-5.2-9.1-8.6-15c-3.7,6.9-6.8,12.6-9.9,18.2c-1.3,2.3-2.5,4.7-3.9,7c-1.6,2.7-3.7,5-7.2,3.9c-3.8-1.3-4.8-4.3-3.8-8
		c2.7-10.3,4.8-21,10.8-29.8c5-7.4,3.9-13.2-1.1-19.5c-1.2-1.6-2.2-3.3-3.2-5c-1.6-2.7-1-5.2,1.5-7c2.4-1.7,5.2-1.6,7.2,0.7
		C463.4,1328.9,466.1,1332.6,468.8,1336.2z"/>
	<path class="st1" d="M560.3,1319.6c-6.6,9-12.2,16.5-17.7,24c-1.2,1.6-2.4,3.2-3.6,4.8c-1.5,2.1-3.5,3.3-6,1.9
		c-2.6-1.5-2.2-3.8-1-6c1.9-3.5,3.7-7.1,5.6-10.6c2.2-4.1,4.5-8.2,6.9-12.2c1.3-2.2,1.3-3.6-0.2-6.1c-3.4-5.7-2.1-8.8,4.4-9.7
		c5.7-0.8,9.7-3.6,13.6-7.3c6.9-6.6,15.1-9.3,24.7-8.2c3.4,0.4,5.9,1.7,5.8,5.4c-0.1,3.7-2.5,5.3-6,5c-6.2-0.5-10.8,2.5-15.6,7.3
		c8.9,7.7,13.9,17.6,16.2,28.9c0.8,4.1,3.1,9-2.4,11.4c-5.4,2.3-7.6-2.5-9.9-6C570.5,1335.1,565.8,1328,560.3,1319.6z"/>
	<path class="st1" d="M303.1,349.7c4-3.7,7.6-7.8,11.9-10.8c11.6-8,25.1-3.4,30,9.8c1.1,2.9,1.1,5.4-1.3,7.1
		c-2.8,1.9-5.4,1.2-7.8-1.7c-6.5-7.8-8.7-7.8-14.6,0.4c-2,2.8-7.2,5.6-3.7,10.1c3.3,4.3,6.6,9.7,13.7,7.9c1.9-0.5,3.9-0.9,5.9-1.1
		c2.9-0.4,5.4,0.5,6.7,3.2c1.4,2.8,0.2,5-1.8,7.2c-9.8,11-21.3,12.2-33.4,3.4c-1-0.7-2.1-1.4-3.1-2.2c-1.7,2.4-4,4.5,0.1,6.4
		c2.9,1.3,5.1,3.3,4.5,6.9c-0.7,3.9-4,5.1-7.2,6c-2.2,0.6-4.5,1.3-6.8,1.3c-8.4,0.2-13.6-5.7-12.5-14.2c0.9-6.7,3.3-13,6.7-18.7
		c2.8-4.7,3.1-8.6-1-12.5c-0.7-0.7-1.3-1.5-2-2.3c-2.4-2.9-2.9-6.1-0.3-9c2.6-3,5.8-2.8,9.1-1C298.5,347.3,300.8,348.5,303.1,349.7z
		"/>
	<path class="st1" d="M372.2,539.2C368,546,364,552.5,360,559c-1.2,2-2.5,3.9-3.8,5.8c-1.6,2.2-3.9,2.6-6.2,1.5
		c-2.1-1-2.4-3-2.2-5.1c0.9-7.4,3.5-14.2,7.1-20.6c1.3-2.3,2.8-4.6,4.5-6.6c2.5-2.9,2.1-5.1-0.8-7.4c-2.9-2.3-5.5-4.9-8.2-7.3
		c-3.2-2.8-5.9-5.9-2.9-10.2c2.9-4.2,6.9-3.1,10.7-1.2c4.5,2.2,9,4.3,13.2,6.9c3,1.9,5.2,1.6,8-0.4c4.6-3.3,9.5-6.2,14.3-9.1
		c2.8-1.7,6-2,8,1.1c2.2,3.5,0.5,6.2-2.8,8.2c-4.2,2.6-8.8,4.7-12.1,9c5.7,4.4,12.5,6.1,18.7,9c3.7,1.7,7.7,3.1,7.2,8.3
		c-0.5,5.1-4.4,7-8.7,8.5c-5.1,1.7-10,0.4-14.6-1.5C383.9,545.6,378.7,542.5,372.2,539.2z"/>
	<path class="st1" d="M444.5,467.6c6.9,1.5,11.8,0,16.7-0.8c3.4-0.6,7-0.8,8.6,3c1.9,4.3-1,6.9-4.3,8.8c-7.8,4.5-15.5,9.4-25.2,6.6
		c-3.2-0.9-5,0-6.3,2.9c-1.1,2.4-2.3,4.8-3.9,6.9c-1.7,2.2-3.9,3.6-6.9,2.3c-2.9-1.2-4.1-3.5-3.9-6.3c0.2-3.3,0.6-6.7,1.6-9.8
		c1.1-3.6,0.4-6.2-2.2-8.9c-8.9-9.4-7.7-19.8-2.7-30.5c1.5-3.3,3.6-6,7.6-4.3c3.9,1.6,3.8,5.1,2.5,8.5c-1.4,3.4-2.8,6.9-1.5,10.6
		c1.3,3.9,4.5,4.6,7.2,1.4c4.6-5.3,9.4-10.3,15.4-14.1c5.7-3.7,11.9-5.8,18.8-5.6c3.7,0.1,6.9,0.8,6.9,5.3c0,3.7-2.4,5.2-5.9,5.2
		C454.6,448.8,450.8,458.6,444.5,467.6z"/>
	<path class="st1" d="M418.8,375.5c6.8,0,12.7,0,18.5,0c3.8,0,7.7,0.2,8.8,4.7c1.2,5-2.2,7-6.3,8.6c-9.6,3.9-19.4,7.3-30,5.6
		c-5.2-0.8-8,1.1-10.3,5.4c-2,3.8-4.7,7.3-7.1,10.9c-1.6,2.4-3.7,4.3-6.6,3.1c-3.3-1.4-4.1-4.3-2.8-7.5c1.8-4.6,3.5-9.4,5.8-13.8
		c1.6-3.1,1.5-5.3-1-7.9c-3.3-3.5-4.5-8.1-5-12.8c-0.3-3,1.2-5.1,4.1-6c2.5-0.8,4.6,0.2,6.1,2.2c0.6,0.8,0.8,1.8,1.4,2.6
		c3.5,5,5,5.4,9.1,1c9.2-9.9,19.4-18.2,32.4-22.6c2.5-0.8,5.1-1.7,7.7-2.1s4.5,1.1,5.3,3.6s0.1,4.7-2.2,5.9c-2,1.1-4.3,1.6-6.5,2.4
		C431.6,362.1,424.5,367.1,418.8,375.5z"/>
	<path class="st1" d="M528.6,404.5c3-0.1,5,0.5,6.1,2.3c2.5,4.2,5,2.5,8,0.7c6.2-3.6,13-4.8,20.1-4.4c3.5,0.2,7,1.3,7,5.5
		c0,4-3,5.5-6.9,5.5c-4.4-0.1-8.7-0.1-11.9,3.6c-2.3,2.6-4.7,4.6-2.8,9.3c2.2,5.6-0.1,8.5-6.1,7.9c-4-0.3-5.3,1.5-7.2,3.8
		c-4,4.9-8.1,9.7-12.2,14.5c-2.6,3-5.7,5-9.5,2.3c-3.2-2.3-2.8-5.5-1.4-8.9c2.7-6.5,5.4-12.9,9.5-18.5c2.6-3.5,4-6.5,1.6-10.8
		c-1-1.8-0.9-4.6-0.6-6.8C523.1,406.7,525.6,404.7,528.6,404.5z"/>
	<path class="st1" d="M574.1,542.2c-5.2-2.1-8.4-4.3-12.7-2.7c-4.2,1.5-7.3-0.4-8.6-4.4c-1.4-4,0.8-7,4-9.3
		c6.1-4.3,14.1-3.9,21.5,0.9c4.6,3,7.7,7.8,13.9,8.8c3.7,0.6,4.1,6.7,0.3,8.6c-15.8,8.2-24.5,23-34.5,36.5c-0.6,0.8-1.1,1.7-1.8,2.4
		c-1.6,1.7-3.2,3.7-5.9,2.4c-2.8-1.3-3.5-3.6-2.5-6.6c3.7-12.3,8.5-23.8,19.5-31.5C569,546.1,570.8,544.6,574.1,542.2z"/>
	<path class="st1" d="M461.7,581.7c-4.4-4.6-8.3-7-12.3-9.3c-1.7-1-3.6-1.8-5.1-3c-2.8-2.1-3.3-5.1-1.5-7.9c1.6-2.4,4-3.2,6.9-2.1
		c6.1,2.2,11.2,5.9,15.7,10.3c3.1,3,5.7,4.3,9.2,0.8c0.9-0.9,2.1-1.6,3.4-2c2.3-0.8,4.6-0.8,6.2,1.6c1.5,2.2,1.5,4.5-0.3,6.4
		c-2.8,2.9-7.2,4.6-4.6,10.4c0.8,1.8-2.5,4.7-4.7,3.3c-5.5-3.3-7.8,0.8-10.5,3.9c-4.1,4.8-8.1,9.7-12.1,14.5
		c-1.3,1.5-2.4,3.2-3.8,4.6c-1.8,1.9-3.8,2.7-6.1,0.8c-1.9-1.6-1.4-3.4-0.5-5.4c3.8-8.2,8-16.1,14.2-22.7
		C457.5,584.5,459.6,583.3,461.7,581.7z"/>
</g>
<g class="st0">
	<g class="st2">
		<path class="st3" d="M592.1,1128.1c0,43-37.8,40.5-65.4,68.7c-27.6,28.2,16.2,84.4-25.8,84.4s-80.3,20.9-107.9-7.3
			c-27.6-28.2,1.9-109.3,1.9-152.3c0-43-22.8-71.7,4.7-99.9c27.6-28.2,39.3-98.4,81.3-98.4s75.3,92.7,102.8,120.9
			C611.3,1072.3,592.1,1085.1,592.1,1128.1z"/>
		<path class="st4" d="M592.1,1128.1c0,43-37.8,40.5-65.4,68.7c-27.6,28.2,16.2,84.4-25.8,84.4s-80.3,20.9-107.9-7.3
			c-27.6-28.2,1.9-109.3,1.9-152.3c0-43-22.8-71.7,4.7-99.9c27.6-28.2,39.3-98.4,81.3-98.4s75.3,92.7,102.8,120.9
			C611.3,1072.3,592.1,1085.1,592.1,1128.1z"/>
	</g>
	<g class="st2">
		<path class="st5" d="M1205.3,818.1c0,43-41.8,50.6-69.4,78.8c-27.6,28.2-40.8,77-82.9,77c-42.1,0-80.3,20.9-107.9-7.3
			s-61.9-119.5-61.9-162.5s41-61.5,68.5-89.7c27.6-28.2,59.2-52.1,101.3-52.1c42.1,0,55.3,46.3,82.9,74.5
			C1163.5,765,1205.3,775.1,1205.3,818.1z"/>
		<g>
			<path class="st6" d="M1205.3,818.1c0,43-41.8,50.6-69.4,78.8c-27.6,28.2-40.8,77-82.9,77c-42.1,0-80.3,20.9-107.9-7.3
				s-61.9-119.5-61.9-162.5s41-61.5,68.5-89.7c27.6-28.2,59.2-52.1,101.3-52.1c42.1,0,55.3,46.3,82.9,74.5
				C1163.5,765,1205.3,775.1,1205.3,818.1z"/>
		</g>
	</g>
	<g class="st2">
		<path class="st7" d="M531,485.2c0,43,2.5,57.9-25.1,86.1s2.6,59.3-39.5,59.3s-20.2-75.8-47.7-104
			c-27.6-28.2-99.2-104.1-99.2-147.1s61.8,7.5,89.4-20.7c27.6-28.2,21.1,8.7,63.2,8.7c42.1,0,49.8,17.6,77.4,45.8
			C577.1,441.5,531,442.2,531,485.2z"/>
		<path class="st8" d="M531,485.2c0,43,2.5,57.9-25.1,86.1s2.6,59.3-39.5,59.3s-20.2-75.8-47.7-104
			c-27.6-28.2-99.2-104.1-99.2-147.1s61.8,7.5,89.4-20.7c27.6-28.2,21.1,8.7,63.2,8.7c42.1,0,49.8,17.6,77.4,45.8
			C577.1,441.5,531,442.2,531,485.2z"/>
	</g>
</g>
<g class="st0">
	<g class="st2">
		<path class="st9" d="M454.2,1182.3c-7.4-6.7-7.3-8.8,0.5-13.3c8.3-4.8,16.9-9.4,25.4-13.9c2.6-1.4,5.4-2.6,8.3-3.3
			c2.8-0.7,5.3,0.3,6.9,2.7c1.8,2.7,0.9,5.3-1.2,7.2c-5.1,4.8-10.4,9.3-15.6,13.9c-2.2,2-5.4,3.2-6.2,6.3c-1.2,4.2-1.2,8.9-8.1,5.9
			c-1.2-0.5-4.3,2.7-6.3,4.3c-21.8,17.2-40.4,37.6-58.6,58.4c-18.6,21.3-37.3,42.6-58.1,61.8c-13,12-26.7,23-41.3,33
			c-4,2.7-11.2,3.7-8.7,11.8c0.5,1.5-1.9,1.4-3,0.8c-3.7-2-4.1-5.3-2-8.5c1.6-2.5,3.8-4.7,6.2-6.5c39.5-30.5,72.9-67,105.3-104.7
			C414.8,1218,433.1,1198.8,454.2,1182.3z"/>
		<path class="st9" d="M485,1148.8c-13.3,0.9-23.5-0.8-32.2-8c-4.4-3.6-5.5-6.7-3.4-12.1c6.3-16.1,19.2-25.3,36.9-25.2
			c9.3,0,18.6,0.5,27.9,1.6c13.8,1.6,18,11.6,9.5,22.5c-3,3.9-5.9,7.8-8.7,11.9c-4.7,6.7-12.7,8-20.3,9.3
			C490.7,1149.3,486.6,1148.8,485,1148.8z"/>
		<path class="st9" d="M220.3,1427.5c-22.2,14.7-31,14.7-38-0.1c-4.3,3.5-6.7,8.3-9.9,12.5c-7.7,10-15.4,20.1-24.2,29.2
			c-1.6,1.7-3.3,3.3-5.2,4.7c-1.3,1-3,1.5-4.7,0.5c-1.9-1.1-2.9-3-2.3-5.1c1.1-3.8,2.4-7.6,3.8-11.4c0.4-1.1,1.9-2.9,2.9-1.9
			c5.1,4.8,6.5-0.5,8.7-3c11.4-13.5,22.1-27.6,31.4-42.6c5.5-8.9,10.5-18.2,14.3-28c0.5-1.3,1-2.5,2.7-2.4c1.5,0,2.6,0.8,3.2,2
			c1.6,2.9,1.2,6-0.1,8.7c-2.4,5.1-4.8,10.3-7.9,15c-3.5,5.3-4.5,11.1-4.8,17.1c-0.3,6.1,2.5,8.5,8.5,7.9c8.6-0.9,20.8-12,22.9-20.9
			c1.9-8.2,5.1-15.8,9.8-22.8c1.3-1.9,2.7-3.9,4.4-5.4c3.6-3.2,7.1-1.9,7.9,2.7c0.5,3.3-0.2,6.6-1,9.9c-1.7,6.6-5,12.3-9,17.7
			c-1.2,1.6-2.7,3.1-3.5,4.8c-3.6,7.3-0.5,13.1,7.6,13.9c2,0.2,4,0.2,6,0.3c1.1,0.1,1.8,0.6,2.2,1.6c0.4,1.1-0.3,2-1.1,2.5
			C236.4,1440.3,225.4,1437.1,220.3,1427.5z"/>
		<path class="st9" d="M284.3,1420.9c-6-0.5-11.5-1-17-1.5c-1.7-0.2-3.5-0.6-3.5-2.7c0-1.9,1.6-2.9,3.3-3c6.3-0.5,12.6-1,18.9-1.2
			c4.3-0.1,6.6,2.7,7.5,6.6c0.9,4.1,0.1,7.9-2.3,11.4c-2,3-4,6.1-6.3,9c-4.7,5.8-6.4,11.9-4,19.4c2.5,8,0.4,12-7.5,14.7
			c-11.4,3.9-23.4,4.7-35.3,5.3c-2.1,0.1-4.2-0.4-4.4-2.9c-0.2-2.6,2.1-3.2,4-3.7c8-2,16.1-3.9,24.2-5.8c7.9-1.8,8-1.8,7-10.2
			c-1-8.4,1-15.7,6.5-22.2C278.6,1430.3,282.5,1426.9,284.3,1420.9z"/>
	</g>
	<g class="st2">
		<path class="st10" d="M422,438.8c0.5-2.3,1.1-4.5,1.4-6.8c2.7-16.7,14-27.3,30.9-28.8c9-0.8,18-0.9,27-0.4
			c7.8,0.4,15.1,3.2,18.4,10.1c3.5,7.4,0.2,15.1-4.4,21.4c-4.1,5.7-9.9,9.8-15.6,13.9c-5.6,4-12.3,1.6-18.4,2.5
			c-5.9,0.3-11.8-1.4-17.8-0.4c-4.2-0.5-8.3-1.5-12.3-3C427.2,445.4,424,442.8,422,438.8z"/>
		<path class="st10" d="M560.1,343.8c-2.8,2-5.5,3.9-8.2,5.8c-3.6,2.5-7.6,4.2-12,4.7c-10,1.3-15.8-3.5-16.7-13.7c-0.1-1,0-2-0.1-3
			s-0.3-1.9-0.5-3c-3.5,0.5-3.7,3.7-4.8,5.8c-4.9,9.1-10,18.1-16.4,26.2c-2.1,2.6-4.3,5.1-6.8,7.3c-1.9,1.8-4.2,3.5-7.2,2.3
			c-3.1-1.3-4.2-3.9-4.5-7.1c-0.7-7.4,2.3-12.9,9.3-16.6c2.7,3.6-1.9,6.9-0.3,11.2c4.4-2.1,6.3-6.4,8.5-9.9
			c10.2-16.4,20.3-32.9,24.1-52.3c0.4-1.8,0.1-4.6,3-4.3c2.4,0.2,3.1,2.7,2.8,4.6c-0.6,4.1-0.3,7,4.7,7.8c2,0.3,2.9,2.7,3.3,4.7
			c0.6,3-2.1,2.6-3.7,3.5c-2,1-1.9,3.3-2.4,5.2c-1.5,5.5-1.4,11.2-1.1,16.9c0.3,5.5,3,7.5,8.6,6.6c9.7-1.5,15.3-8.4,15.1-18.4
			c-0.1-7.3-0.4-14.7,2.2-21.7c0.9-2.5,1.8-5,3-7.4c1.7-3.1,4.3-5.6,8-4.9c4.2,0.8,5.5,4.2,5.6,8.3c0.1,8.8-1.5,17.2-4.5,25.4
			c-3.7,10.2-2.6,12.1,8.2,13.1c1,0.1,2,0.1,3,0.2s1.9,0.4,2.2,1.6c0.5,1.5-0.4,2.7-1.4,3.4c-4.8,2.9-9.8,4.3-15.1,1.4
			C563.9,346.4,562.1,345.1,560.1,343.8z"/>
		<path class="st10" d="M622.8,339.6c-5.7-0.9-9.5-1.1-13.1,1.5c-1.2,0.9-2.5,1-3.5-0.2c-1.2-1.5-1-3.1-0.1-4.6
			c1.4-2.4,3.7-4,6.4-4.5c3.6-0.7,7.2-1,10.9-1.2c3.8-0.2,7.6,0.2,9.3,4.2c1.8,4.3,1.1,8.7-2.4,11.9c-4.4,4-9.2,7.6-13.8,11.3
			c1.4,2.4,3.9,2.5,5.9,3.4c3.3,1.5,6.8,2.9,9.8,4.8c2.7,1.7,6.9,3.7,5.2,7.3c-1.9,3.9-5.9,1-8.9,0.3c-5.8-1.4-11.5-3.1-17.3-4.5
			c-2.9-0.7-5.8-1.6-8.2-3.4c-4.4-3.2-4.8-7-0.8-10.8c2.6-2.5,5.8-4.4,8.7-6.6C614.5,345.9,618.8,344,622.8,339.6z"/>
	</g>
	<g class="st2">
		<path class="st11" d="M1091.9,836.2c3.8,3.9,9.3,3,13.9,4.6c6,2.1,7.3,5.1,3.7,10.2c-2.9,4.1-6.2,7.9-10.8,10.1
			c-21.8,10.1-44.2,18-68.7,17.7c-3.6-0.1-7.2-0.8-10.8-1.4c-2.8-0.5-5.7-1.9-5.8-4.7c-0.1-5.6-4.3-5.9-7.9-7.4
			c-9.5-4-10.9-10.1-4.3-17.6c2.5-2.9,6.6-4.5,7-9.2c0.1-0.8,1.9-1.9,3.1-2.1c4.5-0.8,7.6-3.6,10.8-6.6c4.6-4.3,6.4-3.6,8.4,2.8
			c0.7,2.2,1,2.1,3.9-0.4c6.9,0.3,13.9,0.1,20.8-0.2c8.5,3,17.2,2.8,26,2.1C1084.9,833.9,1088.6,833.9,1091.9,836.2z"/>
		<path class="st11" d="M1119.1,822.3c6.4,2.8,12.4,2.4,18.2,2.7c2,0.1,4,0.2,6,0.4c1.5,0.2,2.6,1.3,2.5,2.6c0,1.3-1.1,2.5-2.6,2.6
			c-9.6,0.5-19.1,3.4-28.8,1.2c-3.9-0.9-7.8-1.6-11.7-2.5c-6.2-1.5-7.8-5.5-4.5-11.1c2.4-4.1,6.1-7,9.8-9.8
			c16.5-12.5,34.4-22.8,51.9-33.6c16.4-10.1,33.2-19.6,48.8-31c21.3-15.7,46.2-23.3,71.2-30.2c6.7-1.8,13.9-1.3,20.7,0.8
			c2.3,0.7,4.5,2.2,3.9,5c-0.6,3.3-2.9,2.4-5.4,2c-8.3-1.4-16.5-0.4-24.6,2c-26,7.9-50.3,18.6-72,35.5c-12,9.3-25.8,16.4-38.8,24.5
			c-3.3,2.1-6.8,3.6-7.9,8.3c-0.8,3.6-4.6,5.5-7.5,7.8C1139,807,1129.4,814.4,1119.1,822.3z"/>
		<path class="st11" d="M1347.1,723.2c12.1-3.7,20.2-9.9,24-20.8c1.9-5.3,3.7-10.7,6.3-15.7c1-1.9,2.5-3.4,4.8-2.6
			c2.7,0.9,3.2,3,2.4,5.6c-1.8,6-4.5,11.8-5.6,18.1c-2.1,12.2-2.3,12.2,9.2,15.3c-4.5,10.2-11.5,10.2-20.2-0.3
			c-9.1,5.2-18,13.7-29.4,4.2c-5.4,6.8-10.5,13.3-15.7,19.8c-1.5,1.8-3,3.6-4.6,5.3c-2,2.2-4.5,3.2-7,1.1c-2.5-2.1-1.8-4.9-0.2-7.2
			c1.5-2.2,3.3-4.2,5-6.2c8.8-10.5,17.1-21.3,23.6-33.4c1.3-2.3,2.6-4.7,3-7.3c0.4-2.2-3-5,0.9-6.7s8.3-2.7,12.5-2
			c3,0.5,2.3,2.6,0.3,5.1C1350.3,703.1,1348.1,712.3,1347.1,723.2z"/>
		<path class="st11" d="M1414.9,721.5c-0.3,1.1-0.8,3.3-1.3,5.6c-1.7,7.4-4.4,14.6-4.3,22.4c0,2.6-1.4,4.6-4.2,4.6
			c-3.2,0.1-5-2-5.2-4.9c-0.3-4.7,0.6-9.3,2.2-13.7c2.1-5.9,4.5-11.7,6.7-17.6c0.7-1.8,0.4-4.5,3.2-4.1c2.3,0.3,2.9,2.4,3,4.5
			C1414.9,718.9,1414.9,719.6,1414.9,721.5z"/>
	</g>
	<g class="st2">
		<path class="st12" d="M455.1,111.8c18.9,0.5,34.2-2.9,49.7-4.7c1.3-0.2,2.6-0.6,3.9-0.8c2.3-0.4,4.3,0.4,4.6,2.6
			c0.2,1.6-1.4,2.8-3.3,3.2c-10.3,2.4-20.6,5.4-31,7.2c-12.8,2.2-25.8,2.8-38.8,1c-2.3-0.3-4.7-0.5-6.9-1.2
			c-13.9-4-18.5-13.1-13.5-26.7c3.9-10.7,11.4-18.8,19.8-25.9c8.7-7.3,19.2-11.9,29.1-17.3c1.6-0.9,3.2-1.2,4.2,0.6
			c1,1.9-0.5,3-2,3.8c-5.5,3.1-11,6.2-16.5,9.3c-11.1,6.2-18.7,15.7-25.2,26.4c-1,1.7-1.8,3.6-2.4,5.5c-2.9,9.1-0.7,12.7,8.4,15.5
			C443,112.5,450.7,111.5,455.1,111.8z"/>
		<path class="st12" d="M712.4,36.4c-4.7,7.1-5.3,14.8-8.3,23.2c8.2,0.2,15.6,0.3,23,0.6c3.1,0.1,8.2-1.3,8.4,2.9
			c0.3,4.8-4.9,3-7.8,3.3c-6.9,0.7-13.9,1.1-20.9,1.2c-3.9,0-5.7,1.5-7,5.3c-3.7,11-7.8,21.9-12,32.7c-1,2.5-1.8,6.9-5.6,5.6
			c-3.5-1.2-2-5.2-1.3-7.9c1.9-7.4,4.2-14.7,6.4-22c1.2-4.1,3.3-8,3.6-13c-10.1-1.5-20.7,0.2-30.5-3.5c0.8-3.5,3.1-3,4.9-3.2
			c8-0.6,15.9-1.3,23.9-1.5c3.9-0.1,6.1-1.2,7.3-5.1c1.4-4.8,3.3-9.4,5.4-13.9C703.5,37.4,706,34.2,712.4,36.4z"/>
		<path class="st12" d="M850,76.4c3.7-2.2,4.6-7.1,8.5-9.3c1.5-0.8,2.9-1.9,4.5-0.4c1.8,1.7,0.3,3-0.7,4.1
			c-4.7,5.5-5.6,12.6-7.7,19.1c-0.9,2.8-1.5,5.8-2.6,8.5c-1.1,2.9-2.9,5.6-6.6,3.8c-3-1.5-2.9-3.9-1.7-6.7c2-4.6,3.6-9.2,5.5-13.8
			c0.7-1.8,1.9-3.5,1.3-5.6C850.3,76.1,850,76.4,850,76.4z"/>
		<path class="st12" d="M874.8,45c0.6-5.8,1.5-11,4.5-15.6c1-1.5,2.2-2.7,4-1.9c1.4,0.6,1.5,2.1,1.2,3.4c-1.4,6.1-2.8,12.3-4.2,18.4
			c-0.3,1.4-1.1,2.5-2.6,2.6s-2.3-1.1-2.6-2.5C874.9,47.8,874.9,46.2,874.8,45z"/>
		<path class="st12" d="M995.8,42.3c-7.1-1.6-13.9-0.6-19.5,4.8c-3.4,3.3-6.2,7-8.3,11.2c-1,2.1-1.9,4.3-4.9,4.3
			c-6.7-0.1-13.5,0.3-20.5-1c8.1-12.5,15.5-23.8,22.8-35.3c1.6-2.5,2.9-5.2,4-8c0.7-1.7,0-3.3-1.4-4.4s-2.9-1.6-4.6-0.6
			c-1.4,0.9-3,1.6-4.2,2.7c-10.8,9.5-21.1,19.4-29.3,31.2c-3,4.4-5.6,9.3-4.5,14.9c0.7,3.4-1.1,5-3,6.7
			c-7.5,6.7-15.6,12.6-24.8,16.5c-4,1.7-8.3,3.8-12.9,1.2c1.7-5.9,6-9.2,9.8-12.9c0.9-0.8,2-2.3,3.3-1.4c6.2,4.1,8.9-2,12.5-4.5
			c2.3-1.6,4.8-4.1,2.8-7.6c-1.9-3.2-5.2-2.9-8-2c-13.4,4.3-22.9,13.3-28.4,26.1c-2.8,6.4,0.7,10.8,7.9,11.8
			c6.1,0.8,11.9-0.3,17.5-2.8c10.7-4.9,20.1-11.6,28.7-19.6c1.9-1.8,3.4-4.1,6.5-4c8.6,0.1,17.1,0,26.5,0
			c-1.1,6.6-1.6,13.5-1.5,20.4c0.1,3.6,0,6.5-4.9,6.3c-2.3-0.1-3.6,2.1-2.2,4.2c2.2,3.6,5.7,5.7,10,5.4c4.2-0.3,6.6-3,7.3-7
			c0.4-2.3,0.4-4.6,0.5-7c0.3-5.7,0.7-11.3,0.8-17c0.1-5.3,1.4-9.1,7.7-9.4c2.6-0.1,5.1-1.3,7.6-2.3c4.4-1.7,8.5-3.7,11.3-7.8
			C1004.4,49.5,1002.6,43.8,995.8,42.3z M993,55.3c-3.8,3.8-8.5,5.6-15.2,6.6c3.3-6.8,6.8-10.8,13.1-11.4c1.3-0.1,2.6,0,3.3,1.4
			C994.9,53.4,993.9,54.4,993,55.3z"/>
		<g>
			<path class="st12" d="M842.8,63.9c-1.1,6-3.5,10.8-10.3,11.9c0.1-6-3.4-8-8.8-8.3c-6.1-0.4-11.9,0.3-17.5,2.9
				c-7.8,3.6-15,8.1-22.6,14.7c-0.1-6.7,0.3-11.5,2.1-16.3c1.3-3.4,2.2-7,3.2-10.5c1.1-3.8,0.5-7.4-2.7-9.9
				c-3.2-2.5-6.9-2.1-10.4-0.5c-4.2,2.1-7.6,5.3-11.1,8.4c-11.9,10.4-19.9,24.3-32.3,34.5c-5.8,4.7-8.4,13.4-12.3,20.3
				c-1.2,2-2.2,4.3,0.1,6.3c2.6,2.3,4.9,1,7-1c5.1-4.8,9.7-10.1,13.8-15.7c8.6-11.8,17.8-23.3,28-33.7c2.6-2.7,4.9-5.9,9.7-7.1
				c-0.4,2.3-0.7,3.9-1,5.5c-1.8,8.2-3.6,16.4,4.2,22.8c0.6,0.5,0.5,1.8,0.7,2.8c0.8,5.4,4.6,6.8,9.3,7.3c10.2,1,19.8-0.9,29.2-4.7
				c10.6-4.3,20-10.5,29-17.2C849.9,71.1,850.5,65.6,842.8,63.9z M813.1,86.5c-6.1,0.6-11.9,3.7-18.5,1.7
				c8.5-6.8,16.9-13.6,28.7-12.3C818,77.6,820,85.8,813.1,86.5z"/>
			<path class="st12" d="M850.3,76.1c-0.1,0.1-0.2,0.1-0.3,0.2v0.1L850.3,76.1z"/>
		</g>
		<path class="st12" d="M572.7,106.3c-7.9,2.9-15.9,4.4-24.4,3.5c-14.1-1.4-15.9-7.1-13.4-19.6c0.9-4.5,3.3-6.7,8.4-6
			c6.9,0.9,14,0.7,20.9-0.4c7.5-1.2,14.1-4.1,17.8-11.3c4.1-8,1.3-13.5-7.6-15.3c-14.1-2.8-26.2,0.6-36.4,11c-3.1,3.2-5,8-10.5,8.3
			c-0.6,0-1.8,1.8-1.6,2.1c3.5,6.1-1.3,11.4-1.3,17.2c0,10,3.6,16.5,11.9,19.9c14.6,5.9,35.1,1.3,47.3-11.1
			C579,102.2,575.9,105.1,572.7,106.3z M569.5,66c1.2,0.1,2.8-0.2,3.3,1.5c0.5,1.9-0.6,3.1-2,4.1c-3.3,2.3-7.1,3.5-11.1,3.9
			c-4.6,0.5-9.2,0.5-15.5,0.8C551.9,66.8,560.2,65.1,569.5,66z"/>
		<path class="st12" d="M651.9,66c0.7-3,0.6-6-2.1-8.2c-2.8-2.3-5.9-1.5-8.4,0.2c-11,7.2-20.8,15.9-28.1,27.1c0,0,0,0.1,0,0h-0.1
			c-4.3,1.3-6,5.7-9.5,7.5c2.5-6.3,3-7.5,6.7-7.5c0.6-0.4,1.3-0.6,2.2-0.3c-0.8-0.2-1.4-0.1-2,0.3c0.7,0,1.5,0,2.5,0h0.1l0,0
			c-0.7-3.4-2-7.3-6.3-4.4c-8.4,5.7-14.9,13.4-18.4,23c-1.8,5,2.1,8.4,7.3,7c4.6-1.3,8.2-4.5,11.5-7.7c8.6-8.3,17-16.9,25.5-25.3
			c1.4-1.4,2.7-3.2,5.3-3.8c-0.2,4.4-2.2,7.1-3.4,10.1c-1.9,5-4.1,9.8-5.7,14.9c-1.5,4.8-2.5,9.8-0.9,14.7c1.4,4.3,5.1,5.1,8.9,4.1
			c3.1-0.8,7.4-1.4,7-5.6s-5.5-0.2-7.6-3.4c0.6-7.1,4.1-13.5,6.9-20.2C646.7,81,650.1,73.8,651.9,66z"/>
	</g>
</g>
<g>
	<path class="st10" d="M637.6,306.9c-10.8-7.1-11.1-11.4-2-16.1c9.9-5,20.5-7.7,31.8-6.9c6.8,0.5,10.2,3.8,10.9,10.6
		c0.6,6.2-0.9,11.9-3.7,17.3c-4.8,9.1-9.8,18.2-14.3,27.4c-1.5,3.1-4.8,7-2.1,9.9c2.5,2.7,7,1,10.5,0.1c16.4-4.5,32.6-9.1,49-13.5
		c3.8-1,9.5-4.5,11.2,1.1c1.4,4.7-5.1,5.1-8.5,6.4c-15.2,5.8-30.4,11.9-46.1,16.2c-6.1,1.7-12.2,3.3-18.7,1.7
		c-7.4-1.8-10.1-5.2-9.6-12.7c0.4-6.9,3.7-12.7,6.9-18.5c4-7.3,8.4-14.4,12.3-21.7c2.4-4.4,5.6-9.6,2.4-14c-2.9-4-8.8-1.8-13.2-1.5
		c-4.6,0.4-9.1,1.8-13.6,3.1C634.2,298.1,634.3,298.2,637.6,306.9z"/>
	<path class="st9" d="M782.5,1365.6c2.3,0.9,4.3,1.4,6,2.5c4.5,2.8,5.4,6.7,2,10.9c-2.2,2.8-5.1,5.4-8.1,7.4
		c-15,9.9-30.7,18.7-47.1,26.2c-2.1,1-4.4,1.7-6.6,2c-2.8,0.4-5.7-0.2-6.6-3.2c-1.1-3.5,1.8-4.3,4.3-5.5
		c14.1-6.7,27.9-14.1,41.3-22.2c2.8-1.7,5.5-3.6,9-5.8c-2.8-2.8-6.7-4-6.9-8.2c-0.2-4.4,1.8-7.6,4.3-10.9c3.4-4.5,7.1-8.9,10-13.7
		c4.8-8,2.4-12.7-6.8-13.3c-11.2-0.7-22.6-1.7-33.6,2.1c-0.9,0.3-2,0.5-2.9,0.5c-3.1-0.1-7.4,1.5-8.2-3.2c-0.6-3.9,2.8-5.7,6-6.9
		c1.9-0.7,3.8-1.3,5.8-1.5c11.9-1.2,23.9-1,35.9-0.9c11.8,0.2,19,11.7,14.8,23.6C792.5,1352.8,786.7,1358.1,782.5,1365.6z"/>
	<path class="st11" d="M1293.5,601.8c17.1-4.5,33.1-9,49.5-11.6c0.8-0.1,1.8,0.5,4.4,1.4c-8.1,5.2-16.5,5.7-24,8.1
		c-7.9,2.5-16,4.5-24.1,6.6c-7.8,2.1-15.5,4.9-25.5,5.2c3.7-6.4,9.7-4.2,13.2-8.2c-3.4-4.6-2.9-10.3-2-16.1
		c3.4-21.7,5.8-43.6,5.3-65.6c-0.1-3.2-0.3-6.3-1.4-9.9c-10.3,14.1-22.8,26.1-32.9,40c-1.7,2.3-2.2,4.8-2.4,7.5
		c-0.1,1.4-0.7,2.7-2.2,3c-1.9,0.4-3.1-0.9-3.9-2.4c-1.9-3.5-1.9-7.1-0.1-10.5c1.6-2.9,3.3-5.9,5.3-8.4c12-14.7,24.1-29.4,36.2-44
		c2.1-2.5,4.7-4.7,7.1-7c1-1,2.4-1.2,3.6-0.3c1.2,0.9,1.4,2.2,0.8,3.5c-0.8,1.5-1.5,3-2.6,4.2c-4.4,4.8-5.2,10-3.8,16.5
		c4.5,20.7,3.5,41.7,1.3,62.6c-0.6,5.9-2.7,11.7,0.1,17.6C1296.7,596.5,1294.3,598.5,1293.5,601.8z"/>
	<path class="st9" d="M774.3,1008.9c-3.5-4.2-7-8.2-11.8-11.1c-0.1,14.7-0.3,29.3-0.3,44c0,41.4-3.6,82.5-9.3,123.5
		c-1.4,9.9-1.9,19.9-3.4,29.8c-3.9,26.2-13,50.7-24.8,74.5c-13,26-31.5,47.7-50.5,69.2c-5.8,6.5-12.6,11.9-20.6,15.6
		c-3.9,1.8-7.8,3.8-11.4,6.2c-25.9,17.7-54.6,30.6-81.3,46.9c-7.7,4.7-15.4,7.7-24.4,4.2c-2.1-0.8-4.6-0.9-6.9-0.9
		c-26.4,0.8-52.5-4-78.8-2.9c-31.1,1.3-55.5-13.8-79.1-31.2c-5.6-4.2-9.9-9.9-13.7-15.8c-7.3-11.6-16-22.1-24.3-33
		c-18.4-24.3-32.8-50.9-45.7-78.4c-19-40.3-28.7-82.9-33.2-126.9c-5-48.7-4-97.3,5.9-145.2c7.4-35.9,19.5-70.6,29.4-105.8
		c10.6-37.6,26.8-72.3,49.6-104.1c15.5-21.7,29.7-44.3,46.3-65.2c11.1-13.9,25-22.7,43.3-23.8c0.1,3.4-2.7,4.4-4.2,6.3
		c-2.7,3.4-5.5,6.7-8.1,10.2c-1.2,1.6-1.9,3.9,0.1,5.3c1.5,1,3.2,0.2,4.6-0.9c9.7-7.7,19.5-15.2,28.9-23.1
		c6.4-5.4,13.9-7.7,21.8-9.2c4.7-0.9,8.4,0.1,11,4.6c6.6,11.3,16,19.4,27.8,25c8.7,4.2,15,10.9,18.2,20.3c2.1,6,5.5,11.3,9.5,16.3
		c7.3,9.2,16.4,14,28.5,13.8c11.3-0.2,22.6,0.7,34,1c7.3,0.2,12.7,3.4,16.5,9.6c0.5,0.9,1.2,1.6,1.6,2.5c8,15.6,20.5,26,36.9,31.7
		c10.1,3.5,16.8,10.7,21.3,20c5.2,10.8,9.9,21.8,14.8,32.7c1.9,4.2,4,8.4,6.1,12.6l0,0c-0.1-10.2-0.1-20.4-0.2-30.6
		c-2.9-2.9-3.8-7-5.4-10.6c-7.4-17.7-18.7-31.3-37.6-37.6c-9.8-3.3-17.3-9.7-22.4-18.9c-1.6-2.9-3.6-5.6-5.4-8.4
		c-6.2-9.8-15-14.7-26.6-15c-11.7-0.3-23.3-0.8-35-0.9c-6.8-0.1-12.2-2.6-16.6-7.7c-3.3-3.8-6.5-7.7-8.1-12.5
		c-4.8-15-15.3-24.6-29.2-31.1c-7.2-3.3-12.7-8.5-16.9-15.1c-1.8-2.8-3.7-5.5-5.8-8.1c-6.2-7.7-14.7-10-24.1-6.7
		c-5.4,1.9-10,5.2-14.4,8.8c-4,3.3-8.3,5.3-13.5,5.8c-4.3,0.4-8.5,1.5-12.8,2c-18.4,2.5-33.2,11.2-44.7,25.7
		c-4.3,5.5-8.9,10.8-12.9,16.6c-15.6,22.4-31.2,44.9-46.6,67.4c-15,21.9-25.8,45.8-33.9,71c-9.4,29.5-17.7,59.3-26.5,89
		c-11.5,38.6-16.6,78-17.7,118.2c-1,35.1,2.3,69.9,8.1,104.4c10.7,63.4,38.3,119.5,75.6,171.2c8,11.1,16.8,21.5,24.2,33
		c7.9,12.3,18.5,21.8,31.2,29c5.5,3.1,11.2,5.9,16.7,9.1c16,9.3,33.2,13.5,51.6,12.9c26-0.8,51.8,3.7,77.8,2.8
		c2.9-0.1,6.1,0.2,8.9,1.2c10.5,4,19.3,0.5,28.3-4.9c27.3-16.5,56.8-29.5,83.1-47.8c3-2.1,6.3-3.8,9.6-5.3
		c10.2-4.6,18.6-11.5,26.1-19.8c20.9-23,40-47.2,53.6-75.4c9.6-19.9,18-40.3,21.4-62.1c4.7-29.9,8.5-60,11.5-90.2
		c3.3-33.5,4.7-67.1,4.1-100.8C773.9,1013.5,774.2,1011.2,774.3,1008.9z"/>
	<path class="st11" d="M1324.3,895.3c-7-27.6-9.1-55.8-10.3-84.1c-0.6-14.9-5.4-28-16.4-38.5c-7.9-7.4-11.7-16.8-13.6-27.2
		c-2.6-14.4-5-28.9-8-43.2c-4.2-19.5-12.5-36.5-30-47.7c-4.2-2.7-7.9-6.1-11.9-9.1c-10.3-7.6-17-17.7-21-29.7
		c-2.4-7.3-4.6-14.6-6.8-21.9c-3.7-12.6-10.3-23.1-21.8-30c-9-5.4-14.7-12.7-17.4-23.2c-4.3-16.3-15.9-24.8-32.5-26.5
		c-8.6-0.9-17.2-1.9-25.8-2.8c-12.3-1.3-23.9-5.8-35.8-8.7c-24.7-5.9-49.6-3.7-74.5-1.7c-33.3,2.6-66.5,4.3-99.2-4.5
		c-4.5-1.2-9.1-1.8-13.7-2.8c-13.4-3-25.7-0.4-37.4,6.6c-6.4,3.8-8.6,7-7.1,10.5c1.5,3.4,7.8,4.5,13.6,2.5c1.9-0.7,3.7-1.3,4-3.8
		c0.5-3.9,3.7-4.6,6.6-4.9c10.9-1.4,21.7-0.7,33.1,3.8c-10.5,7.7-21.1,13.1-32.1,17.3c-25.5,9.8-46,26.3-64.1,46.4
		c-30.9,34.4-56.5,72.5-78.6,112.9c-16.3,29.9-26.6,61.6-25,96.4c0.7,14.9-0.3,45-0.3,45s-3,20.8-2.5,27.7
		c0.8,11.6,6.8,30.4,13.9,44.4c8.9,17.4,17.6,35,25,53.1c6.7,16.6,13.4,33.3,26.2,46.5c4.7,3.3,8.1,8.3,13.6,10.5
		c16.4,14.1,32.5,28.5,47,44.7c10.2,11.4,20.4,22.9,32.5,32.5c18.1,14.3,34.7,30.1,50.2,47.1c9.3,10.2,20.1,18.3,32.5,24.6
		c7.1,3.6,13.9,7.8,20.8,11.9c16.3,9.9,33.7,17.4,51.2,24.7c4.9,2.1,10.2,3.6,15.5,3.6c25.3,0.4,50.6,2,75.7-2.7
		c15.4-2.9,31.1-3.9,46.7-2c12,1.5,23.1,0.2,33.8-5.6c5.9-3.2,11.9-6.1,18.8-6c10.3,0.3,18.6-4.2,25.8-11.1
		c8.2-7.8,16.4-15.7,24.7-23.3c20.8-19,36.1-41.7,46.2-68c6.8-17.7,14.9-35.1,16.4-54.3c2.3-29.9,6.1-59.5,11.3-89.1
		C1325.7,922.6,1327.7,908.9,1324.3,895.3z M1311.2,943.2c-4.5,24.9-8.2,49.9-9.3,75.3c-0.2,5.3-0.8,10.7-2.3,15.8
		c-11.3,39.1-25.6,76.5-57.2,104.5c-9.2,8.2-17.9,16.9-26.8,25.4c-4.5,4.3-9.6,6.8-16.1,6.5c-9.4-0.4-17.3,4.3-25.4,8.2
		c-5.5,2.7-11.1,4.6-17.3,4c-26.7-2.5-53.1,1.2-79.6,4.1c-18.2,2-36.6,1.6-54.9-0.2c-3.7-0.4-7.3-1.3-10.6-2.7
		c-16.5-7.1-33.2-13.9-48.6-23.3c-1.4-0.9-2.8-1.9-4.3-2.6c-26-11.8-47-29.8-65.5-51.2c-7.4-8.6-16.4-15.6-25.3-22.7
		c-8.1-6.5-16.2-12.9-23.1-20.6c-20.2-22.7-42.2-43.5-64.8-63.8c-2.5-2.2-20.5-17.4-28.5-50.1c-12.7-22.2-17.1-31.2-26.2-47.2
		c-4-7-15-41.1-16.9-48.7c-0.2-3.7-0.6-7.3-0.6-11c-0.1-21.7,0.8-43.4-0.3-65c-1.4-27.2,5.4-52.3,17-76.2
		c23.8-48.8,53.7-93.5,91-133.1c13.8-14.7,29.7-26.6,48.3-34.9c13.1-5.8,25.9-12.3,37.7-20.5c3.9-2.7,7.8-3.4,12.2-2.3
		c23.6,6,47.6,3.6,71.4,2.4c21.9-1.1,43.8-3.7,65.8-2.7c10.5,0.5,20.4,3.1,30.2,6.2c14.1,4.5,28.6,6.2,43.2,7.5
		c2.7,0.2,5.3,0.4,8,0.7c12.9,1.6,21.5,8.1,24.5,21.3c2.5,11.4,9.1,19.8,19.2,25.5c10.4,5.9,16.6,15.1,19.7,26.5
		c1.8,6.7,3.9,13.4,6.1,20.1c5,15.3,13.5,28.2,26.8,37.5c2.7,1.9,5.2,4.2,8,5.9c17.7,10.6,25.7,27.3,29.2,46.7
		c2.1,11.8,4.1,23.6,6,35.4c2.3,14.2,6.9,27.2,17.9,37c11.3,10,13.2,23.6,13.6,37.4c0.9,27,3.9,53.7,10,80.1
		C1316.9,913.3,1313.9,928.5,1311.2,943.2z"/>
	<path class="st10" d="M653.1,487.6c-0.3-4.3-1.4-8.6-2.9-12.6c-5.7-14.3-9.9-29-14.4-43.6c-3-9.6-7.1-18.8-13.7-26.4
		c-10.3-11.8-17.3-25.2-21.4-40.2c-2-7.1-4.9-14-10-19.4c-8.6-9.1-14.9-19.2-18.8-31.3c-4.1-12.5-13.7-19.2-27.2-19.6
		c-10.3-0.3-20.6-1.1-30.9-0.1c-4.5,0.4-7.3-0.8-9.9-4.7c-4.7-7.1-11.7-11.7-19.4-15.2c-10.5-4.6-21.5-6.8-32.8-8
		c-31.5-3.3-63.3,0-94.7-3.7c-7.3,0-14.9-1.3-21.9,0.2c-34.9,7.6-64.8,22.3-84.5,54.6c-20.7,33.9-31.8,70.1-33.5,109.4
		c-1.3,28.7,5.9,56.1,12.5,83.6c4.6,19.3,14.3,35.7,28.5,49.5c10,9.8,19.6,20,28.5,30.7c9.3,11.3,20.6,19.7,34.2,25.3
		c15.1,6.2,30.1,12.6,44.1,21.1c2.9,1.7,5.9,2.9,9.3,3.4c10.6,1.4,21.1,1.6,31.8,0.6c16.9-1.5,33.7-3.5,50.8-1.2
		c15.3,2.1,30.5,1.3,45.2-4.6c10.4-4.2,21.2-4.1,32.4-1.8c17.3,3.5,33.6,1.7,47.7-10.8c20.5-18.1,40.4-36.4,55.6-59.7
		C652.9,539.7,654.9,514.2,653.1,487.6z M472.2,281.7c1.3-1.2,3.1-0.5,4.7,0.2c7.1,2.9,14.1,5.9,19.6,14.2
		c-13.6,2.6-26.2,5.2-40.8,4.7C459.9,292.1,466.4,287.2,472.2,281.7z M641.4,517.9c-1.3,27.2-17.3,47.1-34,66.1
		c-9.4,10.7-20.8,19.7-31.2,29.5c-11.1,10.5-24.5,13.7-38.8,9.7c-14.6-4.1-28.4-2.1-42,2.8c-12.3,4.5-24.5,4.8-37.3,3.1
		c-14.9-2-29.9-1.3-44.9,0.1c-4.6,0.4-9.3,0.9-13.9,1.3c-14.6,1.1-28-1.2-41-9.2c-11.3-6.9-24-11.5-36.1-16.9
		c-9.9-4.4-18.4-10.6-25.4-19c-11.3-13.6-23.8-26.1-36-38.9c-8.2-8.6-14.6-18.4-17.8-29.8c-8.4-30.5-16.3-61.1-14.7-93.3
		c1.7-34.6,11.3-66.8,29.4-96.3c8-13.1,16.3-25.9,29.9-34.3c24.8-15.4,51.4-23.5,80.8-20c16.3,2,32.6,1.9,48.9,1.7
		c12.7-0.1,25.3,1.1,37.9,2c2,0.1,4,0,6.3,2.6c-3.2,2.5-6.1,4.8-8.9,7c-2.6,2.1-4.9,4.5-6.5,7.5c-5,9.7-0.1,18.5,10.7,19
		c10.4,0.5,20.5-1.9,30.7-3.2c3.9-0.5,7.8-1.5,11.8-0.8c2.1,3-0.8,5-1.5,7.3c-0.4,1.5-0.1,2.7,1.1,3.4c1.4,0.9,2.7,0.1,3.5-0.9
		c1.5-1.8,3.5-3.5,4-5.6c1.5-6.2,6.1-7.2,11.3-7.7c10.4-1,20.6,0.6,30.9,1.5c6.1,0.5,10.5,5.1,12.1,10.7c4,14.2,11.7,25.9,21.8,36.4
		c4.2,4.4,6,10.4,7.5,16.2c4.1,15,11.1,28.5,21.3,40.3c7.4,8.5,11.7,18.5,14.7,29.2c3.6,12.8,7.7,25.5,12.6,37.9
		C644,490.6,642.1,504.3,641.4,517.9z"/>
	<path class="st9" d="M708.7,853.8c4.5,7.9,10.2,14.6,17.4,20.3c8.3,6.6,13.6,15.5,17.7,25.1c7.5,17.4,15,34.9,22.4,52.4
		c5.5,13.1,8.5,26.6,7.5,40.9c-5.7-4-10.4-9-12.6-15.8c-6.8-17.6-15-34.7-22-52.2c-6.1-15.2-13.1-29.8-22.9-43
		C711.8,872.7,709.4,863.5,708.7,853.8z"/>
	<g>
		<path class="st12" d="M515.2,41.4c1.6-3.9,3.2-7.8,4.9-11.9c-3-2.5-6-1.5-8.4-0.2c-27.5,14.7-50.6,33.5-58.1,65.8
			c-3.3,14.1,1,19.7,15.6,21.2c9.5,0.9,18.6-0.9,27.3-4.3c10.6-4.1,20.4-9.8,29.9-15.9c1.9-1.3,3.9-2.6,5.9-3.6
			c1.1-0.5,2.6-0.9,3.7,0.3c1.1,1.2,0.7,2.5,0.1,3.7c-0.3,0.6-0.7,1.1-1.2,1.6c-19.5,19.3-41.7,31.9-70.3,28.6
			c-4-0.5-7.8-1.6-11.4-3.5c-8.2-4.4-11.8-11.3-11.4-20.5c0.8-17.7,8.2-32.9,19-46.3c11.2-13.8,25.3-24.5,41.1-32.7
			c5.4-2.8,11.2-4.4,17.3-3.3c5.8,1.1,7.9,4.6,5.8,10c-1.8,4.7-3.9,9.5-7.8,12.8C516.7,42.5,515.9,42,515.2,41.4z"/>
		<path class="st12" d="M550.5,109.2c1.9-19.1,6.8-39.4,13-59.4c3.3-10.4,7.3-20.7,11-30.9c0.7-1.8,1.7-4.1,4.2-3.1
			c2.4,1,1.7,3.3,1.1,5.2c-5.5,17.8-10.9,35.6-14.6,53.8c-2.4,11.7-5,23.4-5.3,35.4c-0.2,8.2,0.9,8.9,8.4,5.6c2.3-1,4.9-3.9,6.9-0.8
			c1.7,2.7-1.5,4.8-3.2,6.6c-4.5,4.8-10.3,6.1-15.3,3.8C551.9,123.3,550.3,119.5,550.5,109.2z"/>
		<path class="st12" d="M930.4,96.6c5.9,0.2,12.9,1.8,16.3-4.3c3.2-5.9-1.3-11.3-4.3-16.4c-2.3-4-5.2-7.7-6.6-12.2
			c-1.7-5.6-0.6-10.3,3-12.4c3.7-2.2,10.3-0.7,13.6,3c1.2,1.3,2.1,2.7,1.2,4.4c-0.7,1.3-1.9,1.8-3.3,1.4c-5.8-1.6-4.7,1.1-2.7,4.3
			c2.3,3.7,4.7,7.2,6.7,11c4.1,7.9,6.9,16.4,0.7,24.2c-6.3,7.9-15.1,8.9-24.4,6.4c-2.9-0.8-5.6-1.9-8.4-3c-1.7-0.7-2.6-2.1-2.3-3.9
			c0.3-2,1.8-2.6,3.6-2.6C925.8,96.5,928.1,96.6,930.4,96.6z"/>
		<path class="st12" d="M616.4,70c-4.8,7.1-5.3,13-4.9,18.9c0.2,2.9-0.1,6.4,3.5,7.5c3.3,1,6.7,0.3,9.2-2.3
			c6.2-6.5,11.8-13.5,15.4-21.8c1-2.4,2-4.9,3.3-7.2c0.8-1.5,2.2-2.5,4.1-2.2c2.2,0.4,3.4,1.9,3.4,4.2c0,3-0.1,6-0.5,8.9
			c-0.7,5.1,2,7.3,6.6,7.8c1.6,0.2,3.3,0.1,5,0.3c2.4,0.3,6.3-1.1,6.2,2.8c-0.1,3-3.8,3.1-6.4,3.5c-7,1-13.9,1.4-19.2-5
			c-3.4,4.2-6.2,7.8-9.2,11.3c-2.4,2.8-5,5.3-8.5,6.7c-10.8,4.4-19.8-1.9-19.2-13.5c0.2-3.9,1-7.9,2.1-11.7
			C608,75,609.5,71.4,616.4,70z"/>
		<path class="st12" d="M679,97.5c5.7,3,10.8,6,17.2,3.4c6.2-2.6,7.9-5.5,6.9-12.3c-0.7-4.6-3.3-7.9-6-11.3
			c-3.1-3.9-6.6-7.6-8.3-12.3c-3-8.1,1-13.4,9.4-12.6c6.3,0.6,12.4,2.2,15.7,9.5c-6,1.5-10.8-5-16.6-1c1.5,5.2,5.6,8.8,8.7,12.9
			c4,5.2,5.9,11,6.3,17.5c1,14.8-18.8,22.2-28.2,16.9C680.3,106.2,677,103.4,679,97.5z"/>
		<path class="st12" d="M757.9,65.5c-3.8-2.6-8.2,0.2-11-3.3c0.5-2.9,2.9-2,4.5-2.1c8.1-0.7,8.2-0.6,10-8.9c1.2-5.5,2.1-11.1,3-16.7
			c0.3-1.5,1.2-2.8,2.4-2.8c1.9,0,2.9,1.5,2.7,3.4c-0.6,7.6-1.3,15.2-3.1,23.2c8.7,1.4,16.9,0,25.2,0.1c3,0,6-0.3,9-0.1
			c2.7,0.2,4.2,1.9,4,4.7c-0.2,2.3-1.7,3.6-3.9,3.7c-2,0.1-4,0-6-0.1c-8-0.5-16-1-23.9-1.6c-3.1-0.2-5.8-0.5-6.7,3.8
			c-2.3,11.4-5.3,22.7-7.6,34.1c-0.6,3.1-1.8,6.7,0.5,9.7c2,2.6,1.4,4.3-1.3,5.4c-3.5,1.4-6.1-0.1-6.9-3.5
			c-1.1-4.2-0.5-8.7,0.4-12.9c1.8-8.5,3.9-16.9,5.9-25.3C755.8,72.8,756.9,69.3,757.9,65.5z"/>
		<path class="st12" d="M905.7,50c-4.9-2.5-8.3,0.6-11.5,3.6c-2.2,2-4.1,4.4-6.1,6.6c-3.7,4.2-7.3,8.5-11.3,13
			c-2.4-10-3.4-10.5-10.8-5.3c-4.9,3.4-9.5,7.3-14.2,11c-7.2,5.6-15,9.8-23.8,12.3c-4.3,1.2-8.5,1.3-12.8-0.1
			c-2.3-0.7-3.3-2.3-2.3-4.6c1.4-3.2,1.8-7.3,7.3-6.2c6.3,1.3,11.7-1.8,16.9-4.8c7.6-4.5,11.2-11.6,8.5-16
			c-2.6-4.2-11.1-4.8-18.5-1.2c-8.6,4.3-15,11-20.1,18.9c-1.8,2.8-3,5.9-3.4,9.3c-0.8,7.9,2,12.1,9.7,13.6c7,1.3,13.9,0.5,20.5-2.5
			c8.5-4,16.1-9.3,23.3-15.3c4.5-3.8,8.6-8.3,15.3-12.1c-3.6,9.6-7.7,17.4-12.2,25c-1.2,1.9-3,4-0.7,6.2c2.7,2.6,4.9,0.8,6.8-1.2
			c5.6-6.2,11.2-12.4,16.7-18.6c5.7-6.4,11.3-12.9,17.1-19.5c2.3,2.4,1.5,6.4,5.2,5.9c2.9-0.4,2.9-3.2,3.5-5.5
			C910.5,56.1,909.5,51.9,905.7,50z M835.5,64.9c-3.3,5.9-3.3,5.9-14,9.4C825.9,68.8,829.8,65.7,835.5,64.9z"/>
	</g>
</g>
</svg>
