<?xml version="1.0" encoding="utf-8"?>
<!-- Generator: Adobe Illustrator 25.1.0, SVG Export Plug-In . SVG Version: 6.00 Build 0)  -->
<svg version="1.1" id="Layer_1" xmlns="http://www.w3.org/2000/svg" xmlns:xlink="http://www.w3.org/1999/xlink" x="0px" y="0px"
	 viewBox="0 0 4839.7 2809.3" style="enable-background:new 0 0 4839.7 2809.3;" xml:space="preserve">
<style type="text/css">
	.st0{fill:none;}
	.st1{fill:#015F74;}
	.st2{fill:#F57F20;}
	.st3{fill:#090909;}
	.st4{fill:#0A0B0B;}
	.st5{fill:#010101;}
	.st6{fill:none;stroke:#015F74;stroke-width:3;stroke-miterlimit:10;}
	.st7{fill:none;stroke:#F57F20;stroke-width:3;stroke-miterlimit:10;}
</style>
<g>
	<g id="BMvyUc_1_">
		<g>
			<path class="st0" d="M4436.9,2504.9c190,1,351.6-154.1,350.9-353.3c-0.7-198.1-162.7-352.9-354.5-350.7
				c-189.9,2.1-348.5,159.2-346.7,356.9C4088.4,2348.2,4246.2,2505.5,4436.9,2504.9z M3413.8,2748.7c7.1-0.3,20.9-0.9,34.8-1.7
				c68.1-3.7,134.4-15.9,197.3-43.2c43.4-18.8,83.3-42.6,112.7-80.9c19.1-24.9,29.6-52.7,26.2-84.6c-3.9-37.6-24.2-66.2-51.3-90.3
				c-48.1-42.6-106.2-65.4-167.5-80.3c-65.9-16-133-20.9-200.9-16.5c-69.8,4.5-137.5,17.6-201.5,46.7
				c-34.3,15.5-66.1,34.9-92.1,62.8c-25.5,27.3-41.3,58.3-38.5,96.8c2.4,33.7,19.2,60.5,42.1,83.8c32.3,32.8,72.2,54,114.7,70.1
				C3259.6,2737.6,3332.6,2747.6,3413.8,2748.7z"/>
			<path class="st1" d="M4436.9,2504.9c-190.7,0.6-348.6-156.7-350.3-347.1c-1.8-197.7,156.8-354.8,346.7-356.9
				c191.9-2.1,353.8,152.6,354.5,350.7C4788.5,2350.9,4626.9,2505.9,4436.9,2504.9z M4437,1805.2
				c-189.1-0.5-345.2,155.4-346.1,344.9c-0.9,192.8,152.2,348.1,341.2,350.7c194.4,2.6,347.1-153.6,351.1-339.5
				C4787.6,1962.2,4627.3,1804.5,4437,1805.2z"/>
			<path class="st2" d="M3413.8,2748.7c-81.2-1-154.1-11.1-224-37.4c-42.5-16.1-82.4-37.2-114.7-70.1c-22.9-23.3-39.7-50-42.1-83.8
				c-2.8-38.4,13.1-69.5,38.5-96.8c26-27.8,57.8-47.2,92.1-62.8c64-29,131.7-42.1,201.5-46.7c67.9-4.4,135,0.5,200.9,16.5
				c61.3,14.8,119.4,37.6,167.5,80.3c27.2,24.1,47.4,52.7,51.3,90.3c3.3,31.9-7.1,59.7-26.2,84.6c-29.4,38.3-69.3,62.1-112.7,80.9
				c-62.9,27.3-129.2,39.5-197.3,43.2C3434.7,2747.7,3420.8,2748.3,3413.8,2748.7z M3413.3,2354.6c-70.2-1.1-143.1,8.3-213.5,33.7
				c-48.5,17.5-93.7,40.5-128.6,79.6c-25,28.1-39.6,60.5-32.5,99.3c5.6,30.4,22.3,54.7,44.4,75.4c43.1,40.2,95.8,62.7,151.5,78.3
				c72.8,20.4,147.2,25.8,222.5,20.8c64.9-4.3,127.8-16.9,187.8-42.7c37.7-16.2,72.5-36.9,100.3-67.5c47.4-52.2,47-113.7-0.7-165.8
				c-27.8-30.4-62.3-51.1-99.7-66.9C3572.4,2368.2,3496.2,2354.9,3413.3,2354.6z"/>
			<path class="st0" d="M2984.2,1749.4c0,3.2,0.3,5.1,0,6.9c-11.9,56.7,9.6,102.5,47.6,142.2c40.8,42.7,91.6,69.4,146.3,89.6
				c45.8,16.9,92.9,28.7,141.4,34.6c5,0.6,9.5,0.9,8.7,8.3c-9.5,89-44.8,164.4-120.6,215.5c-93.3,63-211.2,44.5-285.8-42.9
				c-55.2-64.7-77.1-140.4-71.8-224.4c4.1-64.6,25.7-122.7,66.8-173.1c16.8-20.6,36.3-38.4,59.1-52.4
				C2978.1,1752.3,2980.7,1751.2,2984.2,1749.4z M2937.3,2061.4c-7.7-0.1-14.3,6.1-14.5,13.8c-0.3,7.8,6.7,14.9,14.6,14.8
				c7.7-0.2,13.9-6.6,14-14.3C2951.4,2068.1,2944.9,2061.5,2937.3,2061.4z M3033.3,2167.3c7.8-0.3,13.6-6.6,13.4-14.7
				c-0.2-8.1-6.4-14.1-14.2-13.9c-7.8,0.2-13.6,6.6-13.4,14.7C3019.2,2161.4,3025.6,2167.6,3033.3,2167.3z"/>
			<path class="st0" d="M3093.6,1720.7c63,0.4,118.3,28.9,162.5,79.4c52.5,59.9,73.7,131.2,73.2,209.9c0,7.6-2.8,9.5-9.9,8.4
				c-56.6-8.4-112-21.8-164.8-44.3c-36.1-15.4-70.2-34.3-100.1-59.9c-31.2-26.7-56.1-57.8-65.6-99c-4.7-20.5-4-40.9,0.4-61.4
				c1.4-6.4,4.5-10.4,10.8-13.4C3028.2,1727.2,3057.6,1720.9,3093.6,1720.7z M3089.2,1847c-0.1-8.1-6-13.8-14.2-13.6
				c-8.2,0.2-13.8,6-13.6,14.2c0.3,8.1,6.3,13.9,14.2,13.8C3083.5,1861.3,3089.3,1855.1,3089.2,1847z"/>
			<path class="st0" d="M4437,1805.2c190.2-0.7,350.6,157,346.2,356.1c-4,185.9-156.7,342.1-351.1,339.5
				c-189-2.6-342-157.9-341.2-350.7C4091.8,1960.5,4248,1804.7,4437,1805.2z M4645.3,2177.7c2.5-1.4,5.9-2.5,8-4.7
				c33.1-36,52.7-78,53.4-127.3c0.9-68-29.1-121.6-82.5-161.6c-92.2-69.2-224.2-67-314.7,4.3c-45.5,35.9-73.5,82.7-76.7,141.1
				c-4.1,75.6,29.5,134.1,90.8,175.6c72.5,49,151.8,55.5,234.4,29.6c11.2-3.5,21.6-9.4,32.4-14.1c-0.4-1-0.8-1.9-1.2-2.9
				c-4.2,1.4-8.5,2.5-12.4,4.3c-94.8,42.9-212.1,24.3-282.9-47.7c-40.9-41.6-61.3-91.3-55.8-150c5.4-57.5,34.4-102.4,79.7-136.2
				c59.9-44.6,127.9-58.4,200.9-44.9c61.6,11.4,113.6,40.7,149.6,93.3c41.8,61,45.8,125.5,11.6,191.1
				C4670.4,2145.3,4657,2160.9,4645.3,2177.7z M4320.5,1991.2c0.2-7.4-5.4-13.5-12.9-14c-8.6-0.5-15.2,5.3-15.3,13.5
				c-0.1,7.7,6.2,14,13.9,14.2C4314.1,2005.1,4320.2,1999.2,4320.5,1991.2z M4496.4,2085.8c-8-0.1-14.2,5.9-14.3,13.7
				c-0.1,7.9,6,14,13.9,14c8.1,0,14.1-5.8,14.2-13.7C4510.3,2091.7,4504.5,2085.9,4496.4,2085.8z M4259.6,2353.7
				c0-7.7-6.4-14.1-14.2-14c-7.5,0.1-13.3,5.9-13.5,13.5c-0.2,8.2,5.4,14.2,13.6,14.3C4253.5,2367.6,4259.5,2361.7,4259.6,2353.7z"
				/>
			<path class="st0" d="M3413.3,2354.6c82.9,0.2,159.1,13.5,231.7,44.2c37.4,15.8,71.9,36.5,99.7,66.9
				c47.7,52.1,48.1,113.6,0.7,165.8c-27.8,30.6-62.6,51.3-100.3,67.5c-60,25.8-122.9,38.4-187.8,42.7c-75.3,5-149.7-0.4-222.5-20.8
				c-55.7-15.6-108.4-38.1-151.5-78.3c-22.2-20.7-38.9-44.9-44.4-75.4c-7.1-38.8,7.4-71.2,32.5-99.3c34.9-39.1,80.1-62.2,128.6-79.6
				C3270.2,2362.9,3343.1,2353.5,3413.3,2354.6z M3476.5,2622.8c0.1-7.8-6-13.8-14.1-13.9c-8.1-0.1-14.2,5.8-14.3,13.7
				c-0.1,7.6,6.3,13.9,14.1,14C3470.1,2636.7,3476.5,2630.5,3476.5,2622.8z M3200.1,2638.2c-7.8-0.7-14.7,4.9-15.5,12.6
				c-0.8,7.8,4.9,14.4,12.8,15.1c8.1,0.6,14.7-4.7,15.5-12.4C3213.7,2646,3207.8,2638.9,3200.1,2638.2z M3447.5,2446.8
				c8,0.1,14-5.9,14-14c0-7.6-5.6-13.4-13.3-13.7c-8.2-0.3-14.3,5.3-14.5,13.4C3433.5,2440.6,3439.5,2446.7,3447.5,2446.8z"/>
			<path d="M3428.9,1656.2c7.4-0.2,14.2,6.2,14.6,13.8c0.4,7.4-6,14.4-13.5,14.8c-7.8,0.5-15.2-6.5-15.2-14.2
				C3414.8,1663.1,3421.3,1656.4,3428.9,1656.2z"/>
			<path d="M3627.7,1759c-0.1,7.8-6.3,13.8-14.3,13.7c-7.7-0.1-14.2-6.5-14.2-14c0-7.5,6.6-13.8,14.4-13.7
				C3621.3,1745,3627.8,1751.4,3627.7,1759z"/>
			<path d="M2937.3,2061.4c7.6,0.1,14.1,6.7,14,14.2c-0.1,7.7-6.3,14.1-14,14.3c-7.8,0.2-14.9-6.9-14.6-14.8
				C2923.1,2067.5,2929.6,2061.3,2937.3,2061.4z"/>
			<path d="M3033.3,2167.3c-7.7,0.2-14-6-14.2-13.9c-0.2-8.1,5.7-14.4,13.4-14.7c7.8-0.2,14,5.8,14.2,13.9
				C3046.9,2160.7,3041.1,2167.1,3033.3,2167.3z"/>
			<path d="M3089.2,1847c0.1,8.1-5.7,14.2-13.6,14.4c-7.9,0.1-13.9-5.7-14.2-13.8c-0.3-8.1,5.4-14,13.6-14.2
				C3083.2,1833.3,3089.1,1839,3089.2,1847z"/>
			<path class="st2" d="M4645.3,2177.7c11.7-16.8,25.1-32.4,34.3-50.1c34.3-65.7,30.2-130.1-11.6-191.1c-36-52.6-88-81.8-149.6-93.3
				c-72.9-13.5-141,0.2-200.9,44.9c-45.3,33.8-74.3,78.6-79.7,136.2c-5.5,58.7,14.9,108.4,55.8,150c70.9,72,188.1,90.6,282.9,47.7
				c4-1.8,8.3-2.9,12.4-4.3c0.4,1,0.8,1.9,1.2,2.9c-10.8,4.8-21.2,10.6-32.4,14.1c-82.6,25.9-161.9,19.4-234.4-29.6
				c-61.3-41.5-94.9-100-90.8-175.6c3.2-58.4,31.1-105.2,76.7-141.1c90.5-71.3,222.5-73.5,314.7-4.3c53.4,40,83.4,93.6,82.5,161.6
				c-0.6,49.3-20.3,91.3-53.4,127.3C4651.2,2175.3,4647.8,2176.3,4645.3,2177.7z"/>
			<path d="M4320.5,1991.2c-0.3,8-6.4,13.9-14.3,13.8c-7.8-0.1-14-6.5-13.9-14.2c0.1-8.3,6.7-14.1,15.3-13.5
				C4315.1,1977.6,4320.7,1983.7,4320.5,1991.2z"/>
			<path d="M4496.4,2085.8c8.1,0.1,13.9,5.9,13.8,13.9c0,7.9-6.1,13.7-14.2,13.7c-7.9,0-14-6.1-13.9-14
				C4482.2,2091.7,4488.4,2085.7,4496.4,2085.8z"/>
			<path d="M4259.6,2353.7c0,8-6.1,13.9-14.2,13.8c-8.2-0.1-13.8-6.1-13.6-14.3c0.2-7.6,6-13.4,13.5-13.5
				C4253.2,2339.6,4259.6,2346,4259.6,2353.7z"/>
			<path d="M3476.5,2622.8c-0.1,7.7-6.4,13.8-14.3,13.8c-7.8-0.1-14.2-6.4-14.1-14c0.1-7.8,6.3-13.7,14.3-13.7
				C3470.6,2609,3476.6,2615,3476.5,2622.8z"/>
			<path d="M3200.1,2638.2c7.6,0.7,13.6,7.7,12.8,15.2c-0.8,7.7-7.4,13.1-15.5,12.4c-7.9-0.6-13.6-7.3-12.8-15.1
				C3185.4,2643.2,3192.3,2637.5,3200.1,2638.2z"/>
			<path d="M3447.5,2446.8c-8-0.1-13.9-6.3-13.8-14.2c0.2-8.1,6.2-13.7,14.5-13.4c7.6,0.3,13.2,6.1,13.3,13.7
				C3461.4,2440.9,3455.5,2446.9,3447.5,2446.8z"/>
		</g>
	</g>
	<path d="M4666,2728.4c-15.2-16.5-29.7,1.9-42.4,4.3c-345.1,29.6-851.5,29.6-1268,55.8c-186.6,11.7-356.1-9.8-548.9,2.9
		c-51.3,11.5-61.3-16-61.1-63.5c1.5-367.4,1.1-734.8,0.9-1102.2c0-22.2,3.4-45.2-9.3-73.5c-16.9,22.4-5.2,42.1-5.2,60.1
		c-0.2,367.5,0,734.9,0.1,1102.4c0,10.8,0.1,21.6,0.7,32.4c3.4,61.4,4.2,69.6,65.7,57.4c232.4-2.6,380.3,1.6,576.2-4.5
		c313.2-9.7,438.3-10.9,878-26.1c135.4-4.7,258.5-8.4,389-34.7C4649.7,2737.7,4656.8,2732.6,4666,2728.4z"/>
	<path class="st3" d="M2731.8,1508.5c6-0.3,10.3,3.1,14.4,6.7c14.4,12.7,22.4,30.2,34,45c1.9,2.4,2.4,5.4-0.3,7.9
		c-3,2.8-5.7,0.6-7.8-1.2c-5.8-5-9.2-11.9-13.3-18.2c-5.7-8.8-11.2-17.7-18.9-25.1c-6.5-6.2-11.4-6.9-16.9,1.7
		c-8.5,13.4-18,26.3-27.2,39.2c-2.4,3.4-5.3,6.5-8.3,9.3c-1.6,1.5-3.9,1.2-5.7-0.5c-1.9-1.7-1.8-3.6-0.4-5.5
		c13-18.5,26-37,39.1-55.4C2723.2,1508.7,2727.6,1508.6,2731.8,1508.5z"/>
	<path class="st4" d="M4643.7,2798c9.6-42.7,52.9-46,81.8-69.1c-25.3-14.1-49.6-27.1-73.3-41.1c-10.2-6-19.3-13.7-28.6-21
		c-4.1-3.2-5.1-8.5-2.2-12.5c3.3-4.5,8.7-3.3,12,0.3c26.9,29.4,64,42.4,97.1,61.8c13.4,7.9,13.4,19,0.6,28.4
		c-11.1,8.1-23.3,14.7-35.5,21.1C4677.7,2775.5,4661,2786.7,4643.7,2798z"/>
	<g>
		<path class="st2" d="M3823.4,1595.8c2.3,0,3.9,2.5,4.8,7.4v0.3c0,1.1-0.8,1.8-2.3,2c-1.2,0-2.1-1.5-2.5-4.6l-0.3-0.2h-0.9
			c-1.1,1.6-1.6,3.6-1.6,6.2l0.2,3.7c2,0,4.1-0.5,6.4-1.5c0.9,0,1.8,0.7,2.6,2c0,2-2.7,3.3-8.2,4l1.8,12c0,1-0.9,1.7-2.6,2
			c-1.5,0-2.3-2.4-2.3-7.1l-1.4-6.3l-4.8,0.7c-1,0-1.6-0.8-1.8-2.3c0-1.5,2-2.4,6-2.8l-0.3-4.6
			C3817,1599.4,3819.4,1595.8,3823.4,1595.8z"/>
		<path class="st2" d="M3843.5,1601.2c3.6,0,6.4,2.7,8.2,8.1l0.3,1.5c0,5.3-2.5,10.6-7.4,16.1c-2,1.8-4,2.7-6,2.7
			c-2.9,0-5-1.7-6.3-5.1c-0.4-1.6-0.7-2.9-0.7-4.1v-0.9c0-7.8,2.8-13.6,8.5-17.7C3841.3,1601.4,3842.4,1601.2,3843.5,1601.2z
			 M3836.2,1620.3c0,3.3,0.9,5,2.6,5c3.6,0,6.6-4.6,8.9-13.8v-1.4c-0.8-3-2.4-4.6-4.6-4.6c-0.9,0-1.3,0.6-1.3,1.8c0,0.8-1,1.5-2.9,2
			C3837,1612.3,3836.2,1615.9,3836.2,1620.3z"/>
		<path class="st2" d="M3867.1,1601.2c3.6,0,6.4,2.7,8.2,8.1l0.3,1.5c0,5.3-2.5,10.6-7.4,16.1c-2,1.8-4,2.7-6,2.7
			c-2.9,0-5-1.7-6.3-5.1c-0.4-1.6-0.7-2.9-0.7-4.1v-0.9c0-7.8,2.8-13.6,8.5-17.7C3864.8,1601.4,3865.9,1601.2,3867.1,1601.2z
			 M3859.7,1620.3c0,3.3,0.9,5,2.6,5c3.6,0,6.6-4.6,8.9-13.8v-1.4c-0.8-3-2.4-4.6-4.6-4.6c-0.9,0-1.3,0.6-1.3,1.8c0,0.8-1,1.5-2.9,2
			C3860.6,1612.3,3859.7,1615.9,3859.7,1620.3z"/>
		<path class="st2" d="M3896.2,1588.5c0.8,0,1.6,0.8,2.3,2.4l-3.2,20.5v5.7c0,6,0.9,9,2.8,9c1.2,0.6,1.8,1.4,1.8,2.4
			c0,1.1-1,1.8-2.9,2c-2.2,0-3.9-2-5.1-6h-0.7c-1.8,4-4,6-6.6,6c-3,0-4.9-2.3-5.5-6.9c0-5.3,3.6-11,10.7-17c1.4,0,2.1-2,2.1-6
			C3892.9,1592.5,3894.4,1588.5,3896.2,1588.5z M3883.3,1622.9v2l1.2,1.2h0.4c1.6,0,3.4-4.7,5.5-14.2h-0.4
			C3885.5,1616.3,3883.3,1620,3883.3,1622.9z"/>
	</g>
	<g>
		<path class="st2" d="M4513.7,2171.3c1.4,0,2.1,1.7,2.1,5l0.9,12.7h0.3l3.7-1.4c4.1,0,6.6,4.2,7.5,12.7c0.3,2.4,0.5,5.9,0.5,10.6v6
			c0,1.9-0.7,2.8-2.1,2.8h-0.3c-1.3-0.2-2-0.9-2-2.1v-6.9c0-11.1-1.1-17.2-3.2-18.4h-0.4c-1.5,0-2.6,2.3-3.2,6.8v4.1
			c0,7.4-0.6,11-1.8,11l-1.4,0.1c-1.4,0-2.1-2-2.1-6.1c0.1-4.3,0.4-7.9,0.9-10.6l-1.5-24.2C4511.4,2172,4512.2,2171.4,4513.7,2171.3
			z"/>
		<path class="st2" d="M4543.9,2184.2c3.6,0,6.4,2.7,8.2,8.1l0.3,1.5c0,5.3-2.5,10.6-7.4,16.1c-2,1.8-4,2.7-6,2.7
			c-2.9,0-5-1.7-6.3-5.1c-0.4-1.6-0.7-2.9-0.7-4.1v-0.9c0-7.8,2.8-13.6,8.5-17.7C4541.6,2184.4,4542.7,2184.2,4543.9,2184.2z
			 M4536.5,2203.3c0,3.3,0.9,5,2.6,5c3.6,0,6.6-4.6,8.9-13.8v-1.4c-0.8-3-2.4-4.6-4.6-4.6c-0.9,0-1.3,0.6-1.3,1.8c0,0.8-1,1.5-2.9,2
			C4537.4,2195.3,4536.5,2199,4536.5,2203.3z"/>
		<path class="st2" d="M4564.4,2167.3c1.4,0.3,2.1,1,2.1,2.1l-0.4,3.2v1c0,2.2,0.2,4.4,0.7,6.8h0.1c5.7-1.7,9.2-2.6,10.6-2.6
			c1.4,0.4,2.1,1.1,2.1,2.1c0,1.7-1.7,2.5-5.1,2.5l-7.7,2.7c0,6.6,0.7,15.6,2.1,27c-0.3,1.3-1,2-2.1,2h-0.1c-1.7,0-2.6-2.2-2.6-6.6
			c-0.6-3.3-1.2-10.4-1.6-21.4h-1.3c-4.6-0.3-6.9-1.4-6.9-3.2c0-0.5,0.5-1.2,1.5-2h0.7l3.4,0.9h2.4l-0.7-9.2
			C4561.6,2169,4562.6,2167.3,4564.4,2167.3z"/>
		<path class="st2" d="M4626.9,2171.5c0.8,0,1.6,0.8,2.3,2.4l-3.2,20.5v5.7c0,6,0.9,9,2.8,9c1.2,0.6,1.8,1.4,1.8,2.4
			c0,1.1-1,1.8-2.9,2c-2.2,0-3.9-2-5.1-6h-0.7c-1.8,4-4,6-6.6,6c-3,0-4.9-2.3-5.5-6.9c0-5.3,3.6-11,10.7-17c1.4,0,2.1-2,2.1-6
			C4623.6,2175.5,4625,2171.5,4626.9,2171.5z M4614,2205.9v2l1.2,1.2h0.4c1.6,0,3.4-4.7,5.5-14.2h-0.4
			C4616.2,2199.3,4614,2203,4614,2205.9z"/>
		<path class="st2" d="M4642.8,2182.9c3.1,0,4.9,2.2,5.5,6.5v0.7c0,4.8-2.5,9.1-7.4,13.1c2.8,2.8,7.8,4.2,14.9,4.2
			c1.1,0.3,1.6,1.1,1.6,2.3c0,1.3-0.9,2-2.6,2c-4.8,0-9.9-1.2-15.2-3.7v2.1c0,5.1-1.1,7.6-3.2,7.6c-1.5,0-2.3-2.9-2.3-8.8v-5.7
			l-0.2-2.1l0.5-2.4l-0.5-7.1v-0.3c0-1.3,0.7-2.2,2.1-2.7C4638.1,2184.9,4640.3,2182.9,4642.8,2182.9z M4639.2,2199.1
			c1.4,0,3-2.6,4.8-7.7v-3.2l-0.9-1h-0.7C4640.2,2188.8,4639.2,2192.7,4639.2,2199.1z"/>
		<path class="st2" d="M4660.9,2173.6c1.9,0.4,2.8,1.2,2.8,2.5c-0.5,1.4-1.3,2.1-2.4,2.1c-1.8-0.3-2.7-1.3-2.7-2.7
			C4659.1,2174.2,4659.8,2173.6,4660.9,2173.6z M4663.7,2183.9c0.8,0,1.4,0.7,2,2.1l-0.7,5.2v3.5c0,4,0.7,9.3,2.1,15.8
			c-0.5,0.9-1.3,1.4-2.5,1.4c-2,0-3.3-5.9-4-17.7v-2.6C4660.6,2186.5,4661.6,2183.9,4663.7,2183.9z"/>
		<path class="st2" d="M4680.4,2187.1c4.2,0.3,6.3,2.4,6.3,6.1l0.1,1l-0.1,11.5c0,1.3,0.8,3.1,2.3,5.4v0.1c-0.4,1.4-1.1,2.1-2.1,2.1
			c-3-1.3-4.6-4-4.6-8.1v-1l-0.2-0.1l0.2-0.3v-0.1l0.2-10.2c0-1.4-0.6-2.1-1.8-2.1h-0.9c-2.5,1-3.7,6.4-3.7,16.1
			c0,3.4-0.9,5.1-2.6,5.1c-1.3,0-2-0.8-2.1-2.5v-7.4c0-9.5,0.8-14.3,2.5-14.3l0.7-0.2l1.5,0.2
			C4677.5,2187.6,4678.9,2187.1,4680.4,2187.1z"/>
		<path class="st2" d="M4695,2173h0.4c0.6,0,1.3,0.5,1.8,1.6l-0.3,5v2.8l0.3,12.9l0.2,0.7h0.2c2.1-2,3.9-5.4,5.5-10.4l1.6-0.5
			c1.4,0.2,2.1,0.8,2.1,1.8c0,3.2-2.3,7.5-6.8,12.9v0.5c6,7,10,10.5,11.9,10.5h0.4l1.8-1.1h0.7c1,0,1.8,0.7,2.3,2.1
			c0,1.6-1.7,2.6-5.2,3.2c-3.5,0-8-3.5-13.6-10.6h-0.7l0.2,4v3.8c-0.3,1.5-1.1,2.3-2.3,2.3c-1.4-0.3-2.1-1.1-2.1-2.3v-0.4l-0.3-8.5
			c-0.5,0-0.9-0.8-1.1-2.3l1-1.8l-0.4-16.6v-3.2C4692.7,2175.2,4693.4,2173,4695,2173z"/>
		<path class="st2" d="M4734,2182.1c1.3,0,2.2,2.2,2.7,6.7c-0.5,1.2-1.3,1.8-2.4,1.8c-0.8-0.1-1.6-1.1-2.4-2.7l-1.3-0.4
			c-2.3,0-4.4,1.5-6.3,4.6v0.7c0,0.7,3.5,2,10.4,3.7c2.9,1.7,4.3,3.8,4.3,6.3c0,4-3.2,7.5-9.7,10.3l-2.7,0.4
			c-4.1-0.4-6.2-2.5-6.2-6.2v-0.2c0-1.2,0.8-1.9,2.3-2.1c1.2,0,2,1.2,2.4,3.7l0.6,0.4h1.3c2.8,0,5.4-1.9,7.8-5.7v-1
			c0-1.5-3.2-2.8-9.6-4.1c-3.4-1.4-5.1-3.3-5.1-5.7c0-3.2,2.7-6.2,8-9C4730.4,2183.2,4732.3,2182.8,4734,2182.1z"/>
	</g>
	<g>
		<path class="st1" d="M4726.2,2372.8c0.8,0,1.6,0.8,2.3,2.4l-3.2,20.5v5.7c0,6,0.9,9,2.8,9c1.2,0.6,1.8,1.4,1.8,2.4
			c0,1.1-1,1.8-2.9,2c-2.2,0-3.9-2-5.1-6h-0.7c-1.8,4-4,6-6.6,6c-3,0-4.9-2.3-5.5-6.9c0-5.3,3.6-11,10.7-17c1.4,0,2.1-2,2.1-6
			C4722.9,2376.8,4724.4,2372.8,4726.2,2372.8z M4713.3,2407.2v2l1.2,1.2h0.4c1.6,0,3.4-4.7,5.5-14.2h-0.4
			C4715.5,2400.6,4713.3,2404.3,4713.3,2407.2z"/>
		<path class="st1" d="M4742.2,2384.2c3.1,0,4.9,2.2,5.5,6.5v0.7c0,4.8-2.5,9.1-7.4,13.1c2.8,2.8,7.8,4.2,14.9,4.2
			c1.1,0.3,1.6,1.1,1.6,2.3c0,1.3-0.9,2-2.6,2c-4.8,0-9.9-1.2-15.2-3.7v2.1c0,5.1-1.1,7.6-3.2,7.6c-1.5,0-2.3-2.9-2.3-8.8v-5.7
			l-0.2-2.1l0.5-2.4l-0.5-7.1v-0.3c0-1.3,0.7-2.2,2.1-2.7C4737.4,2386.2,4739.6,2384.2,4742.2,2384.2z M4738.5,2400.4
			c1.4,0,3-2.6,4.8-7.7v-3.2l-0.9-1h-0.7C4739.6,2390.1,4738.5,2394,4738.5,2400.4z"/>
		<path class="st1" d="M4760.2,2374.9c1.9,0.4,2.8,1.2,2.8,2.5c-0.5,1.4-1.3,2.1-2.4,2.1c-1.8-0.3-2.7-1.3-2.7-2.7
			C4758.4,2375.5,4759.2,2374.9,4760.2,2374.9z M4763,2385.2c0.8,0,1.4,0.7,2,2.1l-0.7,5.2v3.5c0,4,0.7,9.3,2.1,15.8
			c-0.5,0.9-1.3,1.4-2.5,1.4c-2,0-3.3-5.9-4-17.7v-2.6C4759.9,2387.8,4760.9,2385.2,4763,2385.2z"/>
		<path class="st1" d="M4779.7,2388.4c4.2,0.3,6.3,2.4,6.3,6.1l0.1,1l-0.1,11.5c0,1.3,0.8,3.1,2.3,5.4v0.1c-0.4,1.4-1.1,2.1-2.1,2.1
			c-3-1.3-4.6-4-4.6-8.1v-1l-0.2-0.1l0.2-0.3v-0.1l0.2-10.2c0-1.4-0.6-2.1-1.8-2.1h-0.9c-2.5,1-3.7,6.4-3.7,16.1
			c0,3.4-0.9,5.1-2.6,5.1c-1.3,0-2-0.8-2.1-2.5v-7.4c0-9.5,0.8-14.3,2.5-14.3l0.7-0.2l1.5,0.2
			C4776.8,2388.9,4778.2,2388.4,4779.7,2388.4z"/>
		<path class="st1" d="M4794.3,2374.3h0.4c0.6,0,1.3,0.5,1.8,1.6l-0.3,5v2.8l0.3,12.9l0.2,0.7h0.2c2.1-2,3.9-5.4,5.5-10.4l1.6-0.5
			c1.4,0.2,2.1,0.8,2.1,1.8c0,3.2-2.3,7.5-6.8,12.9v0.5c6,7,10,10.5,11.9,10.5h0.4l1.8-1.1h0.7c1,0,1.8,0.7,2.3,2.1
			c0,1.6-1.7,2.6-5.2,3.2c-3.5,0-8-3.5-13.6-10.6h-0.7l0.2,4v3.8c-0.3,1.5-1.1,2.3-2.3,2.3c-1.4-0.3-2.1-1.1-2.1-2.3v-0.4l-0.3-8.5
			c-0.5,0-0.9-0.8-1.1-2.3l1-1.8l-0.4-16.6v-3.2C4792,2376.5,4792.8,2374.3,4794.3,2374.3z"/>
		<path class="st1" d="M4833.3,2383.4c1.3,0,2.2,2.2,2.7,6.7c-0.5,1.2-1.3,1.8-2.4,1.8c-0.8-0.1-1.6-1.1-2.4-2.7l-1.3-0.4
			c-2.3,0-4.4,1.5-6.3,4.6v0.7c0,0.7,3.5,2,10.4,3.7c2.9,1.7,4.3,3.8,4.3,6.3c0,4-3.2,7.5-9.7,10.3l-2.7,0.4
			c-4.1-0.4-6.2-2.5-6.2-6.2v-0.2c0-1.2,0.8-1.9,2.3-2.1c1.2,0,2,1.2,2.4,3.7l0.6,0.4h1.3c2.8,0,5.4-1.9,7.8-5.7v-1
			c0-1.5-3.2-2.8-9.6-4.1c-3.4-1.4-5.1-3.3-5.1-5.7c0-3.2,2.7-6.2,8-9C4829.7,2384.5,4831.7,2384.1,4833.3,2383.4z"/>
	</g>
	<g>
		<path class="st2" d="M3775.8,2632.6c0.3-1.2,1.1-1.8,2.4-1.8s2,1.2,2.4,3.7h0.3l3.4-0.7c1.6,0,3.1,1.5,4.6,4.4h0.3
			c2.2-3.4,4.4-5.1,6.6-5.1c4.8,0.9,7.2,4,7.2,9.4l0.1,2.6l-0.7,14.9v1.4c0,1.2-0.8,1.9-2.3,2.1c-1.5,0-2.3-1.8-2.3-5.4l0.9-13.3
			c0-4.9-1.2-7.4-3.5-7.4c-1.3,0-2.9,3.2-4.8,9.6c-0.9,7.4-1.7,11-2.3,11c-0.8,0-1.3,0.2-1.3,0.5c-1.5-0.2-2.3-1-2.3-2.4l1-8.9
			c-0.1-6.1-0.8-9.2-1.8-9.2h-0.2c-1.2,0.9-1.8,2.8-1.8,5.5v3.9l-0.3,11.3c-0.3,1.2-1.1,1.8-2.3,1.8c-1,0-1.7-0.9-2-2.6l-0.3-8.7
			l0.4-7.1C3777.1,2638.5,3776.6,2635.3,3775.8,2632.6z"/>
		<path class="st2" d="M3813.8,2631.9c2,0,5.3,3.5,9.9,10.3l0.1,1.3c0,1.4-3.4,2.4-10.1,3.2l-0.2,0.2v0.3c1,4.4,2.1,6.6,3.2,6.6h0.9
			c1.6,0,4-1.7,7.1-5.1h0.4c1,0,1.7,0.7,2.3,2.1c0,1.2-2.1,3.2-6.2,6.1c-1.1,0.6-2.4,1.1-3.9,1.4c-4,0-6.7-3.7-8.3-11.2
			c-2.3-0.3-3.4-1.3-3.4-2.8c0-1.1,0.8-1.8,2.5-2.1v0.3l0.7-0.3v-1.8C3809,2634.7,3810.6,2631.9,3813.8,2631.9z M3814.2,2637.2h-0.7
			l-0.3,2.7v2.3h0.3c2.7-0.1,4.1-0.4,4.1-0.9C3816.4,2639.4,3815.3,2638,3814.2,2637.2z"/>
		<path class="st2" d="M3844.1,2629.9c2.2,0,3.2,0.9,3.2,2.6l-0.7,1.4l-0.4,13.5c0,6.1,1.2,9.9,3.7,11.3l0.1,1.1
			c-0.1,1.4-0.8,2.1-2,2.1h-0.4c-3.7-2.5-5.5-6.3-5.5-11.5h-0.5c-2,5.5-4.3,8.2-7.1,8.2c-2.6-0.7-3.9-2.7-3.9-5.8
			c0-6.9,2.8-13.8,8.3-20.7C3840.8,2630.7,3842.5,2629.9,3844.1,2629.9z M3835.2,2649.9l-0.3,2.1v1.4h0.7c3.7-9.2,5.5-14.8,5.5-16.8
			h-0.3C3838,2639.8,3836.2,2644.2,3835.2,2649.9z"/>
		<path class="st2" d="M3861.4,2633.5c4.2,0.3,6.3,2.4,6.3,6.1l0.1,1l-0.1,11.5c0,1.3,0.8,3.1,2.3,5.4v0.1c-0.4,1.4-1.1,2.1-2.1,2.1
			c-3-1.3-4.6-4-4.6-8.1v-1l-0.2-0.1l0.2-0.3v-0.1l0.2-10.2c0-1.4-0.6-2.1-1.8-2.1h-0.9c-2.5,1-3.7,6.4-3.7,16.1
			c0,3.4-0.9,5.1-2.6,5.1c-1.3,0-2-0.8-2.1-2.5v-7.4c0-9.5,0.8-14.3,2.5-14.3l0.7-0.2l1.5,0.2
			C3858.6,2634,3860,2633.5,3861.4,2633.5z"/>
		<path class="st2" d="M3887,2628.5c1.3,0,2.2,2.2,2.7,6.7c-0.5,1.2-1.3,1.8-2.4,1.8c-0.8-0.1-1.6-1.1-2.4-2.7l-1.3-0.4
			c-2.3,0-4.4,1.5-6.3,4.6v0.7c0,0.7,3.5,2,10.4,3.7c2.9,1.7,4.3,3.8,4.3,6.3c0,4-3.2,7.5-9.7,10.3l-2.7,0.4
			c-4.1-0.4-6.2-2.5-6.2-6.2v-0.2c0-1.2,0.8-1.9,2.3-2.1c1.2,0,2,1.2,2.4,3.7l0.6,0.4h1.3c2.8,0,5.4-1.9,7.8-5.7v-1
			c0-1.5-3.2-2.8-9.6-4.1c-3.4-1.4-5.1-3.3-5.1-5.7c0-3.2,2.7-6.2,8-9C3883.4,2629.6,3885.4,2629.1,3887,2628.5z"/>
		<path class="st2" d="M3934.4,2630.6c3.6,0,6.4,2.7,8.2,8.1l0.3,1.5c0,5.3-2.5,10.6-7.4,16.1c-2,1.8-4,2.7-6,2.7
			c-2.9,0-5-1.7-6.3-5.1c-0.4-1.6-0.7-2.9-0.7-4.1v-0.9c0-7.8,2.8-13.6,8.5-17.7C3932.1,2630.8,3933.2,2630.6,3934.4,2630.6z
			 M3927,2649.7c0,3.3,0.9,5,2.6,5c3.6,0,6.6-4.6,8.9-13.8v-1.4c-0.8-3-2.4-4.6-4.6-4.6c-0.9,0-1.3,0.6-1.3,1.8c0,0.8-1,1.5-2.9,2
			C3927.9,2641.7,3927,2645.3,3927,2649.7z"/>
		<path class="st2" d="M3957.6,2625.2c2.3,0,3.9,2.5,4.8,7.4v0.3c0,1.1-0.8,1.8-2.3,2c-1.2,0-2.1-1.5-2.5-4.6l-0.3-0.2h-0.9
			c-1.1,1.6-1.6,3.6-1.6,6.2l0.2,3.7c2,0,4.1-0.5,6.4-1.5c0.9,0,1.8,0.7,2.6,2c0,2-2.7,3.3-8.2,4l1.8,12c0,1-0.9,1.7-2.6,2
			c-1.5,0-2.3-2.4-2.3-7.1l-1.4-6.3l-4.8,0.7c-1,0-1.6-0.8-1.8-2.3c0-1.5,2-2.4,6-2.8l-0.3-4.6
			C3951.2,2628.8,3953.6,2625.2,3957.6,2625.2z"/>
		<path class="st2" d="M4002.5,2613.6c1.4,0.3,2.1,1,2.1,2.1l-0.4,3.2v1c0,2.2,0.2,4.4,0.7,6.8h0.1c5.7-1.7,9.2-2.6,10.6-2.6
			c1.4,0.4,2.1,1.1,2.1,2.1c0,1.7-1.7,2.5-5.1,2.5l-7.7,2.7c0,6.6,0.7,15.6,2.1,27c-0.3,1.3-1,2-2.1,2h-0.1c-1.7,0-2.6-2.2-2.6-6.6
			c-0.6-3.3-1.2-10.4-1.6-21.4h-1.3c-4.6-0.3-6.9-1.4-6.9-3.2c0-0.5,0.5-1.2,1.5-2h0.7l3.4,0.9h2.4l-0.7-9.2
			C3999.7,2615.4,4000.7,2613.6,4002.5,2613.6z"/>
		<path class="st2" d="M4029.6,2629.3c3.1,0,4.9,2.2,5.5,6.5v0.7c0,4.8-2.5,9.1-7.4,13.1c2.8,2.8,7.8,4.2,14.9,4.2
			c1.1,0.3,1.6,1.1,1.6,2.3c0,1.3-0.9,2-2.6,2c-4.8,0-9.9-1.2-15.2-3.7v2.1c0,5.1-1.1,7.6-3.2,7.6c-1.5,0-2.3-2.9-2.3-8.8v-5.7
			l-0.2-2.1l0.5-2.4l-0.5-7.1v-0.3c0-1.3,0.7-2.2,2.1-2.7C4024.9,2631.2,4027.1,2629.3,4029.6,2629.3z M4026,2645.4
			c1.4,0,3-2.6,4.8-7.7v-3.2l-0.9-1h-0.7C4027,2635.1,4026,2639.1,4026,2645.4z"/>
		<path class="st2" d="M4060.6,2629.9c2.2,0,3.2,0.9,3.2,2.6l-0.7,1.4l-0.4,13.5c0,6.1,1.2,9.9,3.7,11.3l0.1,1.1
			c-0.1,1.4-0.8,2.1-2,2.1h-0.4c-3.7-2.5-5.5-6.3-5.5-11.5h-0.5c-2,5.5-4.3,8.2-7.1,8.2c-2.6-0.7-3.9-2.7-3.9-5.8
			c0-6.9,2.8-13.8,8.3-20.7C4057.2,2630.7,4058.9,2629.9,4060.6,2629.9z M4051.6,2649.9l-0.3,2.1v1.4h0.7c3.7-9.2,5.5-14.8,5.5-16.8
			h-0.3C4054.5,2639.8,4052.6,2644.2,4051.6,2649.9z"/>
		<path class="st2" d="M4077.9,2633.5c4.2,0.3,6.3,2.4,6.3,6.1l0.1,1l-0.1,11.5c0,1.3,0.8,3.1,2.3,5.4v0.1c-0.4,1.4-1.1,2.1-2.1,2.1
			c-3-1.3-4.6-4-4.6-8.1v-1l-0.2-0.1l0.2-0.3v-0.1l0.2-10.2c0-1.4-0.6-2.1-1.8-2.1h-0.9c-2.5,1-3.7,6.4-3.7,16.1
			c0,3.4-0.9,5.1-2.6,5.1c-1.3,0-2-0.8-2.1-2.5v-7.4c0-9.5,0.8-14.3,2.5-14.3l0.7-0.2l1.5,0.2
			C4075,2634,4076.4,2633.5,4077.9,2633.5z"/>
		<path class="st2" d="M4103.5,2628.5c1.3,0,2.2,2.2,2.7,6.7c-0.5,1.2-1.3,1.8-2.4,1.8c-0.8-0.1-1.6-1.1-2.4-2.7l-1.3-0.4
			c-2.3,0-4.4,1.5-6.3,4.6v0.7c0,0.7,3.5,2,10.4,3.7c2.9,1.7,4.3,3.8,4.3,6.3c0,4-3.2,7.5-9.7,10.3l-2.7,0.4
			c-4.1-0.4-6.2-2.5-6.2-6.2v-0.2c0-1.2,0.8-1.9,2.3-2.1c1.2,0,2,1.2,2.4,3.7l0.6,0.4h1.3c2.8,0,5.4-1.9,7.8-5.7v-1
			c0-1.5-3.2-2.8-9.6-4.1c-3.4-1.4-5.1-3.3-5.1-5.7c0-3.2,2.7-6.2,8-9C4099.9,2629.6,4101.8,2629.1,4103.5,2628.5z"/>
		<path class="st2" d="M4120.3,2636.5c5.2,0,8.3,3.3,9.2,9.8c0,5.8-2.7,9.9-8.1,12.4c-0.6,0.3-1.4,0.4-2.4,0.4h-0.5l-1.6-0.1v0.1
			l0.3,19.7c-0.3,1.5-1.1,2.3-2.4,2.3c-1.4-0.4-2.1-1.2-2.1-2.1l-0.7-40c0-1.3,0.8-1.9,2.3-2l1.5,0.7
			C4117.3,2636.8,4118.8,2636.5,4120.3,2636.5z M4116.6,2644.3l-0.2,2.3l0.2,7.8l2.1,0.5c3.3,0,5.4-2.4,6.4-7.2v-1.1
			c-0.3-3.9-1.7-5.8-4.1-5.8h-1.1C4117.7,2640.7,4116.6,2641.9,4116.6,2644.3z"/>
		<path class="st2" d="M4144.8,2630.6c3.6,0,6.4,2.7,8.2,8.1l0.3,1.5c0,5.3-2.5,10.6-7.4,16.1c-2,1.8-4,2.7-6,2.7
			c-2.9,0-5-1.7-6.3-5.1c-0.4-1.6-0.7-2.9-0.7-4.1v-0.9c0-7.8,2.8-13.6,8.5-17.7C4142.5,2630.8,4143.6,2630.6,4144.8,2630.6z
			 M4137.4,2649.7c0,3.3,0.9,5,2.6,5c3.6,0,6.6-4.6,8.9-13.8v-1.4c-0.8-3-2.4-4.6-4.6-4.6c-0.9,0-1.3,0.6-1.3,1.8c0,0.8-1,1.5-2.9,2
			C4138.3,2641.7,4137.4,2645.3,4137.4,2649.7z"/>
		<path class="st2" d="M4166.3,2629.3c3.1,0,4.9,2.2,5.5,6.5v0.7c0,4.8-2.5,9.1-7.4,13.1c2.8,2.8,7.8,4.2,14.9,4.2
			c1.1,0.3,1.6,1.1,1.6,2.3c0,1.3-0.9,2-2.6,2c-4.8,0-9.9-1.2-15.2-3.7v2.1c0,5.1-1.1,7.6-3.2,7.6c-1.5,0-2.3-2.9-2.3-8.8v-5.7
			l-0.2-2.1l0.5-2.4l-0.5-7.1v-0.3c0-1.3,0.7-2.2,2.1-2.7C4161.5,2631.2,4163.7,2629.3,4166.3,2629.3z M4162.6,2645.4
			c1.4,0,3-2.6,4.8-7.7v-3.2l-0.9-1h-0.7C4163.7,2635.1,4162.6,2639.1,4162.6,2645.4z"/>
		<path class="st2" d="M4192.1,2613.6c1.4,0.3,2.1,1,2.1,2.1l-0.4,3.2v1c0,2.2,0.2,4.4,0.7,6.8h0.1c5.7-1.7,9.2-2.6,10.6-2.6
			c1.4,0.4,2.1,1.1,2.1,2.1c0,1.7-1.7,2.5-5.1,2.5l-7.7,2.7c0,6.6,0.7,15.6,2.1,27c-0.3,1.3-1,2-2.1,2h-0.1c-1.7,0-2.6-2.2-2.6-6.6
			c-0.6-3.3-1.2-10.4-1.6-21.4h-1.3c-4.6-0.3-6.9-1.4-6.9-3.2c0-0.5,0.5-1.2,1.5-2h0.7l3.4,0.9h2.4l-0.7-9.2
			C4189.4,2615.4,4190.3,2613.6,4192.1,2613.6z"/>
		<path class="st2" d="M4223.3,2629.9c2.2,0,3.2,0.9,3.2,2.6l-0.7,1.4l-0.4,13.5c0,6.1,1.2,9.9,3.7,11.3l0.1,1.1
			c-0.1,1.4-0.8,2.1-2,2.1h-0.4c-3.7-2.5-5.5-6.3-5.5-11.5h-0.5c-2,5.5-4.3,8.2-7.1,8.2c-2.6-0.7-3.9-2.7-3.9-5.8
			c0-6.9,2.8-13.8,8.3-20.7C4219.9,2630.7,4221.7,2629.9,4223.3,2629.9z M4214.4,2649.9l-0.3,2.1v1.4h0.7c3.7-9.2,5.5-14.8,5.5-16.8
			h-0.3C4217.2,2639.8,4215.3,2644.2,4214.4,2649.9z"/>
		<path class="st2" d="M4239.7,2613.6c1.4,0.3,2.1,1,2.1,2.1l-0.4,3.2v1c0,2.2,0.2,4.4,0.7,6.8h0.1c5.7-1.7,9.2-2.6,10.6-2.6
			c1.4,0.4,2.1,1.1,2.1,2.1c0,1.7-1.7,2.5-5.1,2.5l-7.7,2.7c0,6.6,0.7,15.6,2.1,27c-0.3,1.3-1,2-2.1,2h-0.1c-1.7,0-2.6-2.2-2.6-6.6
			c-0.6-3.3-1.2-10.4-1.6-21.4h-1.3c-4.6-0.3-6.9-1.4-6.9-3.2c0-0.5,0.5-1.2,1.5-2h0.7l3.4,0.9h2.4l-0.7-9.2
			C4237,2615.4,4237.9,2613.6,4239.7,2613.6z"/>
		<path class="st2" d="M4258,2620c1.9,0.4,2.8,1.2,2.8,2.5c-0.5,1.4-1.3,2.1-2.4,2.1c-1.8-0.3-2.7-1.3-2.7-2.7
			C4256.3,2620.6,4257,2620,4258,2620z M4260.8,2630.3c0.8,0,1.4,0.7,2,2.1l-0.7,5.2v3.5c0,4,0.7,9.3,2.1,15.8
			c-0.5,0.9-1.3,1.4-2.5,1.4c-2,0-3.3-5.9-4-17.7v-2.6C4257.8,2632.9,4258.8,2630.3,4260.8,2630.3z"/>
		<path class="st2" d="M4279.8,2630.6c3.6,0,6.4,2.7,8.2,8.1l0.3,1.5c0,5.3-2.5,10.6-7.4,16.1c-2,1.8-4,2.7-6,2.7
			c-2.9,0-5-1.7-6.3-5.1c-0.4-1.6-0.7-2.9-0.7-4.1v-0.9c0-7.8,2.8-13.6,8.5-17.7C4277.5,2630.8,4278.6,2630.6,4279.8,2630.6z
			 M4272.4,2649.7c0,3.3,0.9,5,2.6,5c3.6,0,6.6-4.6,8.9-13.8v-1.4c-0.8-3-2.4-4.6-4.6-4.6c-0.9,0-1.3,0.6-1.3,1.8c0,0.8-1,1.5-2.9,2
			C4273.3,2641.7,4272.4,2645.3,4272.4,2649.7z"/>
		<path class="st2" d="M4301.1,2633.5c4.2,0.3,6.3,2.4,6.3,6.1l0.1,1l-0.1,11.5c0,1.3,0.8,3.1,2.3,5.4v0.1c-0.4,1.4-1.1,2.1-2.1,2.1
			c-3-1.3-4.6-4-4.6-8.1v-1l-0.2-0.1l0.2-0.3v-0.1l0.2-10.2c0-1.4-0.6-2.1-1.8-2.1h-0.9c-2.5,1-3.7,6.4-3.7,16.1
			c0,3.4-0.9,5.1-2.6,5.1c-1.3,0-2-0.8-2.1-2.5v-7.4c0-9.5,0.8-14.3,2.5-14.3l0.7-0.2l1.5,0.2
			C4298.2,2634,4299.6,2633.5,4301.1,2633.5z"/>
	</g>
	<g>
		<path class="st1" d="M2843.2,2285.1c2.2,0,3.2,0.9,3.2,2.6l-0.7,1.4l-0.4,13.5c0,6.1,1.2,9.9,3.7,11.3l0.1,1.1
			c-0.1,1.4-0.8,2.1-2,2.1h-0.4c-3.7-2.5-5.5-6.3-5.5-11.5h-0.5c-2,5.5-4.3,8.2-7.1,8.2c-2.6-0.7-3.9-2.7-3.9-5.8
			c0-6.9,2.8-13.8,8.3-20.7C2839.8,2285.8,2841.6,2285.1,2843.2,2285.1z M2834.3,2305.1l-0.3,2.1v1.4h0.7c3.7-9.2,5.5-14.8,5.5-16.8
			h-0.3C2837.1,2294.9,2835.2,2299.4,2834.3,2305.1z"/>
		<path class="st1" d="M2860.5,2288.7c4.2,0.3,6.3,2.4,6.3,6.1l0.1,1l-0.1,11.5c0,1.3,0.8,3.1,2.3,5.4v0.1c-0.4,1.4-1.1,2.1-2.1,2.1
			c-3-1.3-4.6-4-4.6-8.1v-1l-0.2-0.1l0.2-0.3v-0.1l0.2-10.2c0-1.4-0.6-2.1-1.8-2.1h-0.9c-2.5,1-3.7,6.4-3.7,16.1
			c0,3.4-0.9,5.1-2.6,5.1c-1.3,0-2-0.8-2.1-2.5v-7.4c0-9.5,0.8-14.3,2.5-14.3l0.7-0.2l1.5,0.2
			C2857.6,2289.1,2859,2288.7,2860.5,2288.7z"/>
		<path class="st1" d="M2872.2,2275.1c1.9,0.4,2.8,1.2,2.8,2.5c-0.5,1.4-1.3,2.1-2.4,2.1c-1.8-0.3-2.7-1.3-2.7-2.7
			C2870.4,2275.7,2871.1,2275.1,2872.2,2275.1z M2875,2285.4c0.8,0,1.4,0.7,2,2.1l-0.7,5.2v3.5c0,4,0.7,9.3,2.1,15.8
			c-0.5,0.9-1.3,1.4-2.5,1.4c-2,0-3.3-5.9-4-17.7v-2.6C2871.9,2288,2872.9,2285.4,2875,2285.4z"/>
		<path class="st1" d="M2883.3,2287.7c0.3-1.2,1.1-1.8,2.4-1.8c1.2,0,2,1.2,2.4,3.7h0.3l3.4-0.7c1.6,0,3.1,1.5,4.6,4.4h0.3
			c2.2-3.4,4.4-5.1,6.6-5.1c4.8,0.9,7.2,4,7.2,9.4l0.1,2.6l-0.7,14.9v1.4c0,1.2-0.8,1.9-2.3,2.1c-1.5,0-2.3-1.8-2.3-5.4l0.9-13.3
			c0-4.9-1.2-7.4-3.5-7.4c-1.3,0-2.9,3.2-4.8,9.6c-0.9,7.4-1.7,11-2.3,11c-0.8,0-1.3,0.2-1.3,0.5c-1.5-0.2-2.3-1-2.3-2.4l1-8.9
			c-0.1-6.1-0.8-9.2-1.8-9.2h-0.2c-1.2,0.9-1.8,2.8-1.8,5.5v3.9l-0.3,11.3c-0.3,1.2-1.1,1.8-2.3,1.8c-1,0-1.7-0.9-2-2.6l-0.3-8.7
			l0.4-7.1C2884.5,2293.7,2884,2290.5,2883.3,2287.7z"/>
		<path class="st1" d="M2928.4,2285.1c2.2,0,3.2,0.9,3.2,2.6l-0.7,1.4l-0.4,13.5c0,6.1,1.2,9.9,3.7,11.3l0.1,1.1
			c-0.1,1.4-0.8,2.1-2,2.1h-0.4c-3.7-2.5-5.5-6.3-5.5-11.5h-0.5c-2,5.5-4.3,8.2-7.1,8.2c-2.6-0.7-3.9-2.7-3.9-5.8
			c0-6.9,2.8-13.8,8.3-20.7C2925.1,2285.8,2926.8,2285.1,2928.4,2285.1z M2919.5,2305.1l-0.3,2.1v1.4h0.7c3.7-9.2,5.5-14.8,5.5-16.8
			h-0.3C2922.3,2294.9,2920.4,2299.4,2919.5,2305.1z"/>
		<path class="st1" d="M2940.3,2272.9c1.4,0.5,2.1,1.3,2.1,2.3l0.7,28v9.1c0,1.7-0.7,2.5-2.1,2.5h-1c-0.9-0.6-1.3-1.3-1.3-2.1v-8.5
			l-0.7-29.2C2938.1,2273.8,2938.8,2273.1,2940.3,2272.9z"/>
		<path class="st1" d="M2963.2,2283.7c1.3,0,2.2,2.2,2.7,6.7c-0.5,1.2-1.3,1.8-2.4,1.8c-0.8-0.1-1.6-1.1-2.4-2.7l-1.3-0.4
			c-2.3,0-4.4,1.5-6.3,4.6v0.7c0,0.7,3.5,2,10.4,3.7c2.9,1.7,4.3,3.8,4.3,6.3c0,4-3.2,7.5-9.7,10.3l-2.7,0.4
			c-4.1-0.4-6.2-2.5-6.2-6.2v-0.2c0-1.2,0.8-1.9,2.3-2.1c1.2,0,2,1.2,2.4,3.7l0.6,0.4h1.3c2.8,0,5.4-1.9,7.8-5.7v-1
			c0-1.5-3.2-2.8-9.6-4.1c-3.4-1.4-5.1-3.3-5.1-5.7c0-3.2,2.7-6.2,8-9C2959.6,2284.8,2961.6,2284.3,2963.2,2283.7z"/>
	</g>
	<g>
		<path class="st5" d="M3124.8,2136.7c2.6,0,4.2,5,4.9,15l0.4,2.3c2.3-4.6,4.1-6.9,5.5-6.9c0-0.2,0.5-0.3,1.5-0.4h0.3
			c3.2,0,5.3,2.5,6.2,7.6v0.2c0,4.3-2.2,9.1-6.5,14.3c-1.8,2-3.8,2.9-6,2.9c-2.5-0.5-3.7-1.8-3.7-3.7l-3.7-26.4l-1.1-2.7
			C3122.8,2138,3123.4,2137.3,3124.8,2136.7z M3132.4,2166.6h0.2c2.6-1,4.8-4.5,6.7-10.5v-2.8c-0.4-1.5-1-2.3-1.7-2.3h-0.6
			C3134.9,2152.3,3133.4,2157.5,3132.4,2166.6z"/>
		<path class="st5" d="M3154,2145.3c2,0,5.3,3.5,9.9,10.3l0.1,1.3c0,1.4-3.4,2.4-10.1,3.2l-0.2,0.2v0.3c1,4.4,2.1,6.6,3.2,6.6h0.9
			c1.6,0,4-1.7,7.1-5.1h0.4c1,0,1.7,0.7,2.3,2.1c0,1.2-2.1,3.2-6.2,6.1c-1.1,0.6-2.4,1.1-3.9,1.4c-4,0-6.7-3.7-8.3-11.2
			c-2.3-0.3-3.4-1.3-3.4-2.8c0-1.1,0.8-1.8,2.5-2.1v0.3l0.7-0.3v-1.8C3149.2,2148.1,3150.8,2145.3,3154,2145.3z M3154.4,2150.6h-0.7
			l-0.3,2.7v2.3h0.3c2.7-0.1,4.1-0.4,4.1-0.9C3156.6,2152.8,3155.5,2151.4,3154.4,2150.6z"/>
		<path class="st5" d="M3184.3,2143.3c2.2,0,3.2,0.9,3.2,2.6l-0.7,1.4l-0.4,13.5c0,6.1,1.2,9.9,3.7,11.3l0.1,1.1
			c-0.1,1.4-0.8,2.1-2,2.1h-0.4c-3.7-2.5-5.5-6.3-5.5-11.5h-0.5c-2,5.5-4.3,8.2-7.1,8.2c-2.6-0.7-3.9-2.7-3.9-5.8
			c0-6.9,2.8-13.8,8.3-20.7C3181,2144,3182.7,2143.3,3184.3,2143.3z M3175.4,2163.3l-0.3,2.1v1.4h0.7c3.7-9.2,5.5-14.8,5.5-16.8
			h-0.3C3178.2,2153.2,3176.3,2157.6,3175.4,2163.3z"/>
		<path class="st5" d="M3201.8,2142.7c3.1,0,4.9,2.2,5.5,6.5v0.7c0,4.8-2.5,9.1-7.4,13.1c2.8,2.8,7.8,4.2,14.9,4.2
			c1.1,0.3,1.6,1.1,1.6,2.3c0,1.3-0.9,2-2.6,2c-4.8,0-9.9-1.2-15.2-3.7v2.1c0,5.1-1.1,7.6-3.2,7.6c-1.5,0-2.3-2.9-2.3-8.8v-5.7
			l-0.2-2.1l0.5-2.4l-0.5-7.1v-0.3c0-1.3,0.7-2.2,2.1-2.7C3197,2144.6,3199.2,2142.7,3201.8,2142.7z M3198.1,2158.8
			c1.4,0,3-2.6,4.8-7.7v-3.2l-0.9-1h-0.7C3199.2,2148.5,3198.1,2152.4,3198.1,2158.8z"/>
	</g>
	<g>
		<path class="st5" d="M3002.8,2062.8c3.4,2.3,5.1,5.7,5.1,10.5c0,6.4-2.1,10.7-6.4,13l-2.8,0.4c-1.7,0-3.4-0.8-5.3-2.4h-0.5
			c-1.5,2-2.9,2.9-4.3,2.9c-3.5,0-5.5-3.3-6-9.9v-4c0.3-6.2,1.6-9.3,3.9-9.3c1.2,0,1.9,0.8,2.1,2.3c-1.1,2-1.7,4.7-1.7,8.2v1.4
			c0.2,4.4,0.7,6.6,1.4,6.6c0.7,0,1.5-1.3,2.3-3.8l-0.1-5.1c0-3.4,0.8-5.1,2.4-5.1c1.9,0,2.8,1.8,2.8,5.5h0.3l-0.7,4.6
			c0.8,2.5,2,3.7,3.5,3.7h0.4c2.2,0,3.6-2.3,4.2-6.9v-4.1c0-1.6-0.9-3.5-2.8-5.8l-0.3-0.7C3000.2,2063.9,3001,2063.2,3002.8,2062.8z
			"/>
		<path class="st5" d="M3023.1,2058.2c3.6,0,6.4,2.7,8.2,8.1l0.3,1.5c0,5.3-2.5,10.6-7.4,16.1c-2,1.8-4,2.7-6,2.7
			c-2.9,0-5-1.7-6.3-5.1c-0.4-1.6-0.7-2.9-0.7-4.1v-0.9c0-7.8,2.8-13.6,8.5-17.7C3020.9,2058.4,3022,2058.2,3023.1,2058.2z
			 M3015.8,2077.3c0,3.3,0.9,5,2.6,5c3.6,0,6.6-4.6,8.9-13.8v-1.4c-0.8-3-2.4-4.6-4.6-4.6c-0.9,0-1.3,0.6-1.3,1.8c0,0.8-1,1.5-2.9,2
			C3016.6,2069.3,3015.8,2072.9,3015.8,2077.3z"/>
		<path class="st5" d="M3039.1,2045.4c1.4,0.5,2.1,1.3,2.1,2.3l0.7,28v9.1c0,1.7-0.7,2.5-2.1,2.5h-1c-0.9-0.6-1.3-1.3-1.3-2.1v-8.5
			l-0.7-29.2C3036.8,2046.3,3037.6,2045.5,3039.1,2045.4z"/>
		<path class="st5" d="M3058.7,2052.8c2.3,0,3.9,2.5,4.8,7.4v0.3c0,1.1-0.8,1.8-2.3,2c-1.2,0-2.1-1.5-2.5-4.6l-0.3-0.2h-0.9
			c-1.1,1.6-1.6,3.6-1.6,6.2l0.2,3.7c2,0,4.1-0.5,6.4-1.5c0.9,0,1.8,0.7,2.6,2c0,2-2.7,3.3-8.2,4l1.8,12c0,1-0.9,1.7-2.6,2
			c-1.5,0-2.3-2.4-2.3-7.1l-1.4-6.3l-4.8,0.7c-1,0-1.6-0.8-1.8-2.3c0-1.5,2-2.4,6-2.8l-0.3-4.6
			C3052.3,2056.4,3054.7,2052.8,3058.7,2052.8z"/>
	</g>
	<g>
		<path class="st5" d="M3129.9,1827c2.3,0,3.9,2.5,4.8,7.4v0.3c0,1.1-0.8,1.8-2.3,2c-1.2,0-2.1-1.5-2.5-4.6l-0.3-0.2h-0.9
			c-1.1,1.6-1.6,3.6-1.6,6.2l0.2,3.7c2,0,4.1-0.5,6.4-1.5c0.9,0,1.8,0.7,2.6,2c0,2-2.7,3.3-8.2,4l1.8,12c0,1-0.9,1.7-2.6,2
			c-1.5,0-2.3-2.4-2.3-7.1l-1.4-6.3l-4.8,0.7c-1,0-1.6-0.8-1.8-2.3c0-1.5,2-2.4,6-2.8l-0.3-4.6
			C3123.5,1830.6,3125.9,1827,3129.9,1827z"/>
		<path class="st5" d="M3139.2,1821.7c1.9,0.4,2.8,1.2,2.8,2.5c-0.5,1.4-1.3,2.1-2.4,2.1c-1.8-0.3-2.7-1.3-2.7-2.7
			C3137.4,1822.4,3138.1,1821.7,3139.2,1821.7z M3142,1832.1c0.8,0,1.4,0.7,2,2.1l-0.7,5.2v3.5c0,4,0.7,9.3,2.1,15.8
			c-0.5,0.9-1.3,1.4-2.5,1.4c-2,0-3.3-5.9-4-17.7v-2.6C3138.9,1834.7,3139.9,1832.1,3142,1832.1z"/>
		<path class="st5" d="M3163.9,1830.3c1.3,0,2.2,2.2,2.7,6.7c-0.5,1.2-1.3,1.8-2.4,1.8c-0.8-0.1-1.6-1.1-2.4-2.7l-1.3-0.4
			c-2.3,0-4.4,1.5-6.3,4.6v0.7c0,0.7,3.5,2,10.4,3.7c2.9,1.7,4.3,3.8,4.3,6.3c0,4-3.2,7.5-9.7,10.3l-2.7,0.4
			c-4.1-0.4-6.2-2.5-6.2-6.2v-0.2c0-1.2,0.8-1.9,2.3-2.1c1.2,0,2,1.2,2.4,3.7l0.6,0.4h1.3c2.8,0,5.4-1.9,7.8-5.7v-1
			c0-1.5-3.2-2.8-9.6-4.1c-3.4-1.4-5.1-3.3-5.1-5.7c0-3.2,2.7-6.2,8-9C3160.3,1831.4,3162.3,1830.9,3163.9,1830.3z"/>
		<path class="st5" d="M3174.8,1819.5c1.4,0,2.1,1.7,2.1,5l0.9,12.7h0.3l3.7-1.4c4.1,0,6.6,4.2,7.5,12.7c0.3,2.4,0.5,5.9,0.5,10.6v6
			c0,1.9-0.7,2.8-2.1,2.8h-0.3c-1.3-0.2-2-0.9-2-2.1v-6.9c0-11.1-1.1-17.2-3.2-18.4h-0.4c-1.5,0-2.6,2.3-3.2,6.8v4.1
			c0,7.4-0.6,11-1.8,11l-1.4,0.1c-1.4,0-2.1-2-2.1-6.1c0.1-4.3,0.4-7.9,0.9-10.6l-1.5-24.2
			C3172.5,1820.2,3173.3,1819.5,3174.8,1819.5z"/>
	</g>
	<g>
		<path class="st5" d="M3487.5,1651.7c1.3,0,2.2,2.2,2.7,6.7c-0.5,1.2-1.3,1.8-2.4,1.8c-0.8-0.1-1.6-1.1-2.4-2.7l-1.3-0.4
			c-2.3,0-4.4,1.5-6.3,4.6v0.7c0,0.7,3.5,2,10.4,3.7c2.9,1.7,4.3,3.8,4.3,6.3c0,4-3.2,7.5-9.7,10.3l-2.7,0.4
			c-4.1-0.4-6.2-2.5-6.2-6.2v-0.2c0-1.2,0.8-1.9,2.3-2.1c1.2,0,2,1.2,2.4,3.7l0.6,0.4h1.3c2.8,0,5.4-1.9,7.8-5.7v-1
			c0-1.5-3.2-2.8-9.6-4.1c-3.4-1.4-5.1-3.3-5.1-5.7c0-3.2,2.7-6.2,8-9C3483.9,1652.8,3485.9,1652.4,3487.5,1651.7z"/>
		<path class="st5" d="M3509,1653.1c2.2,0,3.2,0.9,3.2,2.6l-0.7,1.4l-0.4,13.5c0,6.1,1.2,9.9,3.7,11.3l0.1,1.1
			c-0.1,1.4-0.8,2.1-2,2.1h-0.4c-3.7-2.5-5.5-6.3-5.5-11.5h-0.5c-2,5.5-4.3,8.2-7.1,8.2c-2.6-0.7-3.9-2.7-3.9-5.8
			c0-6.9,2.8-13.8,8.3-20.7C3505.7,1653.9,3507.4,1653.1,3509,1653.1z M3500.1,1673.2l-0.3,2.1v1.4h0.7c3.7-9.2,5.5-14.8,5.5-16.8
			h-0.3C3503,1663,3501.1,1667.5,3500.1,1673.2z"/>
		<path class="st5" d="M3521,1641c1.4,0.5,2.1,1.3,2.1,2.3l0.7,28v9.1c0,1.7-0.7,2.5-2.1,2.5h-1c-0.9-0.6-1.3-1.3-1.3-2.1v-8.5
			l-0.7-29.2C3518.7,1641.9,3519.4,1641.2,3521,1641z"/>
		<path class="st5" d="M3542.8,1653.1c2.2,0,3.2,0.9,3.2,2.6l-0.7,1.4l-0.4,13.5c0,6.1,1.2,9.9,3.7,11.3l0.1,1.1
			c-0.1,1.4-0.8,2.1-2,2.1h-0.4c-3.7-2.5-5.5-6.3-5.5-11.5h-0.5c-2,5.5-4.3,8.2-7.1,8.2c-2.6-0.7-3.9-2.7-3.9-5.8
			c0-6.9,2.8-13.8,8.3-20.7C3539.5,1653.9,3541.2,1653.1,3542.8,1653.1z M3533.9,1673.2l-0.3,2.1v1.4h0.7c3.7-9.2,5.5-14.8,5.5-16.8
			h-0.3C3536.7,1663,3534.9,1667.5,3533.9,1673.2z"/>
		<path class="st5" d="M3567.9,1641.1c0.8,0,1.6,0.8,2.3,2.4l-3.2,20.5v5.7c0,6,0.9,9,2.8,9c1.2,0.6,1.8,1.4,1.8,2.4
			c0,1.1-1,1.8-2.9,2c-2.2,0-3.9-2-5.1-6h-0.7c-1.8,4-4,6-6.6,6c-3,0-4.9-2.3-5.5-6.9c0-5.3,3.6-11,10.7-17c1.4,0,2.1-2,2.1-6
			C3564.6,1645.1,3566,1641.1,3567.9,1641.1z M3555,1675.5v2l1.2,1.2h0.4c1.6,0,3.4-4.7,5.5-14.2h-0.4
			C3557.2,1668.9,3555,1672.6,3555,1675.5z"/>
	</g>
	<g>
		<path class="st5" d="M3669.6,1742.8c1.3,0,2.2,2.2,2.7,6.7c-0.5,1.2-1.3,1.8-2.4,1.8c-0.8-0.1-1.6-1.1-2.4-2.7l-1.3-0.4
			c-2.3,0-4.4,1.5-6.3,4.6v0.7c0,0.7,3.5,2,10.4,3.7c2.9,1.7,4.3,3.8,4.3,6.3c0,4-3.2,7.5-9.7,10.3l-2.7,0.4
			c-4.1-0.4-6.2-2.5-6.2-6.2v-0.2c0-1.2,0.8-1.9,2.3-2.1c1.2,0,2,1.2,2.4,3.7l0.6,0.4h1.3c2.8,0,5.4-1.9,7.8-5.7v-1
			c0-1.5-3.2-2.8-9.6-4.1c-3.4-1.4-5.1-3.3-5.1-5.7c0-3.2,2.7-6.2,8-9C3666,1743.9,3667.9,1743.4,3669.6,1742.8z"/>
		<path class="st5" d="M3686,1727.9c1.4,0.3,2.1,1,2.1,2.1l-0.4,3.2v1c0,2.2,0.2,4.4,0.7,6.8h0.1c5.7-1.7,9.2-2.6,10.6-2.6
			c1.4,0.4,2.1,1.1,2.1,2.1c0,1.7-1.7,2.5-5.1,2.5l-7.7,2.7c0,6.6,0.7,15.6,2.1,27c-0.3,1.3-1,2-2.1,2h-0.1c-1.7,0-2.6-2.2-2.6-6.6
			c-0.6-3.3-1.2-10.4-1.6-21.4h-1.3c-4.6-0.3-6.9-1.4-6.9-3.2c0-0.5,0.5-1.2,1.5-2h0.7l3.4,0.9h2.4l-0.7-9.2
			C3683.3,1729.7,3684.2,1727.9,3686,1727.9z"/>
		<path class="st5" d="M3710.1,1746.1c2,0,5.3,3.5,9.9,10.3l0.1,1.3c0,1.4-3.4,2.4-10.1,3.2l-0.2,0.2v0.3c1,4.4,2.1,6.6,3.2,6.6h0.9
			c1.6,0,4-1.7,7.1-5.1h0.4c1,0,1.7,0.7,2.3,2.1c0,1.2-2.1,3.2-6.2,6.1c-1.1,0.6-2.4,1.1-3.9,1.4c-4,0-6.7-3.7-8.3-11.2
			c-2.3-0.3-3.4-1.3-3.4-2.8c0-1.1,0.8-1.8,2.5-2.1v0.3l0.7-0.3v-1.8C3705.3,1749,3706.9,1746.1,3710.1,1746.1z M3710.6,1751.4h-0.7
			l-0.3,2.7v2.3h0.3c2.7-0.1,4.1-0.4,4.1-0.9C3712.7,1753.7,3711.6,1752.3,3710.6,1751.4z"/>
		<path class="st5" d="M3747.5,1749.5c3.4,2.3,5.1,5.7,5.1,10.5c0,6.4-2.1,10.7-6.4,13l-2.8,0.4c-1.7,0-3.4-0.8-5.3-2.4h-0.5
			c-1.5,2-2.9,2.9-4.3,2.9c-3.5,0-5.5-3.3-6-9.9v-4c0.3-6.2,1.6-9.3,3.9-9.3c1.2,0,1.9,0.8,2.1,2.3c-1.1,2-1.7,4.7-1.7,8.2v1.4
			c0.2,4.4,0.7,6.6,1.4,6.6s1.5-1.3,2.3-3.8l-0.1-5.1c0-3.4,0.8-5.1,2.4-5.1c1.9,0,2.8,1.8,2.8,5.5h0.3l-0.7,4.6
			c0.8,2.5,2,3.7,3.5,3.7h0.4c2.2,0,3.6-2.3,4.2-6.9v-4.1c0-1.6-0.9-3.5-2.8-5.8l-0.3-0.7
			C3744.9,1750.6,3745.8,1749.9,3747.5,1749.5z"/>
	</g>
	<g>
		<path class="st5" d="M4362.5,1978.7l3-0.4c1.2,0,1.9,0.8,2.1,2.3c0,1.3-1.6,2.2-4.8,2.6c-2,1.6-3,3.6-3,6v2.4c1,5.4,2.7,8.1,5,8.1
			h0.7c1.4,0,3.4-1.3,6.2-3.9h0.4c1,0,1.8,0.7,2.4,2.1c-0.7,2.1-2.9,4-6.6,5.7c-0.7,0.3-1.5,0.4-2.6,0.4c-5.1,0-8.3-4-9.9-11.9v-1.6
			C4355.4,1984.7,4357.8,1980.8,4362.5,1978.7z"/>
		<path class="st5" d="M4389.9,1975.9c3.6,0,6.4,2.7,8.2,8.1l0.3,1.5c0,5.3-2.5,10.6-7.4,16.1c-2,1.8-4,2.7-6,2.7
			c-2.9,0-5-1.7-6.3-5.1c-0.4-1.6-0.7-2.9-0.7-4.1v-0.9c0-7.8,2.8-13.6,8.5-17.7C4387.7,1976.1,4388.8,1975.9,4389.9,1975.9z
			 M4382.6,1995c0,3.3,0.9,5,2.6,5c3.6,0,6.6-4.6,8.9-13.8v-1.4c-0.8-3-2.4-4.6-4.6-4.6c-0.9,0-1.3,0.6-1.3,1.8c0,0.8-1,1.5-2.9,2
			C4383.4,1987,4382.6,1990.7,4382.6,1995z"/>
		<path class="st5" d="M4413.2,1970.5c2.3,0,3.9,2.5,4.8,7.4v0.3c0,1.1-0.8,1.8-2.3,2c-1.2,0-2.1-1.5-2.5-4.6l-0.3-0.2h-0.9
			c-1.1,1.6-1.6,3.6-1.6,6.2l0.2,3.7c2,0,4.1-0.5,6.4-1.5c0.9,0,1.8,0.7,2.6,2c0,2-2.7,3.3-8.2,4l1.8,12c0,1-0.9,1.7-2.6,2
			c-1.5,0-2.3-2.4-2.3-7.1l-1.4-6.3l-4.8,0.7c-1,0-1.6-0.8-1.8-2.3c0-1.5,2-2.4,6-2.8l-0.3-4.6
			C4406.8,1974.1,4409.2,1970.5,4413.2,1970.5z"/>
		<path class="st5" d="M4433.1,1970.5c2.3,0,3.9,2.5,4.8,7.4v0.3c0,1.1-0.8,1.8-2.3,2c-1.2,0-2.1-1.5-2.5-4.6l-0.3-0.2h-0.9
			c-1.1,1.6-1.6,3.6-1.6,6.2l0.2,3.7c2,0,4.1-0.5,6.4-1.5c0.9,0,1.8,0.7,2.6,2c0,2-2.7,3.3-8.2,4l1.8,12c0,1-0.9,1.7-2.6,2
			c-1.5,0-2.3-2.4-2.3-7.1l-1.4-6.3l-4.8,0.7c-1,0-1.6-0.8-1.8-2.3c0-1.5,2-2.4,6-2.8l-0.3-4.6
			C4426.6,1974.1,4429,1970.5,4433.1,1970.5z"/>
		<path class="st5" d="M4448.1,1977.2c2,0,5.3,3.5,9.9,10.3l0.1,1.3c0,1.4-3.4,2.4-10.1,3.2l-0.2,0.2v0.3c1,4.4,2.1,6.6,3.2,6.6h0.9
			c1.6,0,4-1.7,7.1-5.1h0.4c1,0,1.7,0.7,2.3,2.1c0,1.2-2.1,3.2-6.2,6.1c-1.1,0.6-2.4,1.1-3.9,1.4c-4,0-6.7-3.7-8.3-11.2
			c-2.3-0.3-3.4-1.3-3.4-2.8c0-1.1,0.8-1.8,2.5-2.1v0.3l0.7-0.3v-1.8C4443.3,1980,4444.9,1977.2,4448.1,1977.2z M4448.5,1982.5h-0.7
			l-0.3,2.7v2.3h0.3c2.7-0.1,4.1-0.4,4.1-0.9C4450.7,1984.7,4449.6,1983.3,4448.5,1982.5z"/>
		<path class="st5" d="M4471.3,1977.2c2,0,5.3,3.5,9.9,10.3l0.1,1.3c0,1.4-3.4,2.4-10.1,3.2l-0.2,0.2v0.3c1,4.4,2.1,6.6,3.2,6.6h0.9
			c1.6,0,4-1.7,7.1-5.1h0.4c1,0,1.7,0.7,2.3,2.1c0,1.2-2.1,3.2-6.2,6.1c-1.1,0.6-2.4,1.1-3.9,1.4c-4,0-6.7-3.7-8.3-11.2
			c-2.3-0.3-3.4-1.3-3.4-2.8c0-1.1,0.8-1.8,2.5-2.1v0.3l0.7-0.3v-1.8C4466.5,1980,4468.1,1977.2,4471.3,1977.2z M4471.7,1982.5h-0.7
			l-0.3,2.7v2.3h0.3c2.7-0.1,4.1-0.4,4.1-0.9C4473.9,1984.7,4472.7,1983.3,4471.7,1982.5z"/>
	</g>
	<g>
		<path class="st5" d="M4561,2062.2c1.4,0.3,2.1,1,2.1,2.1l-0.4,3.2v1c0,2.2,0.2,4.4,0.7,6.8h0.1c5.7-1.7,9.2-2.6,10.6-2.6
			c1.4,0.4,2.1,1.1,2.1,2.1c0,1.7-1.7,2.5-5.1,2.5l-7.7,2.7c0,6.6,0.7,15.6,2.1,27c-0.3,1.3-1,2-2.1,2h-0.1c-1.7,0-2.6-2.2-2.6-6.6
			c-0.6-3.3-1.2-10.4-1.6-21.4h-1.3c-4.6-0.3-6.9-1.4-6.9-3.2c0-0.5,0.5-1.2,1.5-2h0.7l3.4,0.9h2.4l-0.7-9.2
			C4558.2,2064,4559.2,2062.2,4561,2062.2z"/>
		<path class="st5" d="M4585,2080.5c2,0,5.3,3.5,9.9,10.3l0.1,1.3c0,1.4-3.4,2.4-10.1,3.2l-0.2,0.2v0.3c1,4.4,2.1,6.6,3.2,6.6h0.9
			c1.6,0,4-1.7,7.1-5.1h0.4c1,0,1.7,0.7,2.3,2.1c0,1.2-2.1,3.2-6.2,6.1c-1.1,0.6-2.4,1.1-3.9,1.4c-4,0-6.7-3.7-8.3-11.2
			c-2.3-0.3-3.4-1.3-3.4-2.8c0-1.1,0.8-1.8,2.5-2.1v0.3l0.7-0.3v-1.8C4580.3,2083.3,4581.9,2080.5,4585,2080.5z M4585.5,2085.8h-0.7
			l-0.3,2.7v2.3h0.3c2.7-0.1,4.1-0.4,4.1-0.9C4587.7,2088,4586.5,2086.6,4585.5,2085.8z"/>
		<path class="st5" d="M4615.4,2078.5c2.2,0,3.2,0.9,3.2,2.6l-0.7,1.4l-0.4,13.5c0,6.1,1.2,9.9,3.7,11.3l0.1,1.1
			c-0.1,1.4-0.8,2.1-2,2.1h-0.4c-3.7-2.5-5.5-6.3-5.5-11.5h-0.5c-2,5.5-4.3,8.2-7.1,8.2c-2.6-0.7-3.9-2.7-3.9-5.8
			c0-6.9,2.8-13.8,8.3-20.7C4612,2079.3,4613.8,2078.5,4615.4,2078.5z M4606.5,2098.5l-0.3,2.1v1.4h0.7c3.7-9.2,5.5-14.8,5.5-16.8
			h-0.3C4609.3,2088.4,4607.4,2092.8,4606.5,2098.5z"/>
	</g>
	<g>
		<path class="st5" d="M4288.2,2330.7c1.4,0.5,2.1,1.3,2.1,2.3l0.7,28v9.1c0,1.7-0.7,2.5-2.1,2.5h-1c-0.9-0.6-1.3-1.3-1.3-2.1v-8.5
			l-0.7-29.2C4285.9,2331.6,4286.7,2330.9,4288.2,2330.7z"/>
		<path class="st5" d="M4303,2344.8c2,0,5.3,3.5,9.9,10.3l0.1,1.3c0,1.4-3.4,2.4-10.1,3.2l-0.2,0.2v0.3c1,4.4,2.1,6.6,3.2,6.6h0.9
			c1.6,0,4-1.7,7.1-5.1h0.4c1,0,1.7,0.7,2.3,2.1c0,1.2-2.1,3.2-6.2,6.1c-1.1,0.6-2.4,1.1-3.9,1.4c-4,0-6.7-3.7-8.3-11.2
			c-2.3-0.3-3.4-1.3-3.4-2.8c0-1.1,0.8-1.8,2.5-2.1v0.3l0.7-0.3v-1.8C4298.2,2347.6,4299.8,2344.8,4303,2344.8z M4303.4,2350.1h-0.7
			l-0.3,2.7v2.3h0.3c2.7-0.1,4.1-0.4,4.1-0.9C4305.6,2352.3,4304.4,2350.9,4303.4,2350.1z"/>
		<path class="st5" d="M4320.7,2345.5c0.3-1.2,1.1-1.8,2.4-1.8s2,1.2,2.4,3.7h0.3l3.4-0.7c1.6,0,3.1,1.5,4.6,4.4h0.3
			c2.2-3.4,4.4-5.1,6.6-5.1c4.8,0.9,7.2,4,7.2,9.4l0.1,2.6l-0.7,14.9v1.4c0,1.2-0.8,1.9-2.3,2.1c-1.5,0-2.3-1.8-2.3-5.4l0.9-13.3
			c0-4.9-1.2-7.4-3.5-7.4c-1.3,0-2.9,3.2-4.8,9.6c-0.9,7.4-1.7,11-2.3,11c-0.8,0-1.3,0.2-1.3,0.5c-1.5-0.2-2.3-1-2.3-2.4l1-8.9
			c-0.1-6.1-0.8-9.2-1.8-9.2h-0.2c-1.2,0.9-1.8,2.8-1.8,5.5v3.9l-0.3,11.3c-0.3,1.2-1.1,1.8-2.3,1.8c-1,0-1.7-0.9-2-2.6l-0.3-8.7
			l0.4-7.1C4321.9,2351.4,4321.4,2348.2,4320.7,2345.5z"/>
		<path class="st5" d="M4363.8,2343.5c3.6,0,6.4,2.7,8.2,8.1l0.3,1.5c0,5.3-2.5,10.6-7.4,16.1c-2,1.8-4,2.7-6,2.7
			c-2.9,0-5-1.7-6.3-5.1c-0.4-1.6-0.7-2.9-0.7-4.1v-0.9c0-7.8,2.8-13.6,8.5-17.7C4361.6,2343.7,4362.6,2343.5,4363.8,2343.5z
			 M4356.5,2362.6c0,3.3,0.9,5,2.6,5c3.6,0,6.6-4.6,8.9-13.8v-1.4c-0.8-3-2.4-4.6-4.6-4.6c-0.9,0-1.3,0.6-1.3,1.8c0,0.8-1,1.5-2.9,2
			C4357.3,2354.6,4356.5,2358.3,4356.5,2362.6z"/>
		<path class="st5" d="M4385.2,2346.4c4.2,0.3,6.3,2.4,6.3,6.1l0.1,1l-0.1,11.5c0,1.3,0.8,3.1,2.3,5.4v0.1c-0.4,1.4-1.1,2.1-2.1,2.1
			c-3-1.3-4.6-4-4.6-8.1v-1l-0.2-0.1l0.2-0.3v-0.1l0.2-10.2c0-1.4-0.6-2.1-1.8-2.1h-0.9c-2.5,1-3.7,6.4-3.7,16.1
			c0,3.4-0.9,5.1-2.6,5.1c-1.3,0-2-0.8-2.1-2.5v-7.4c0-9.5,0.8-14.3,2.5-14.3l0.7-0.2l1.5,0.2
			C4382.3,2346.9,4383.7,2346.4,4385.2,2346.4z"/>
		<path class="st5" d="M4409.8,2342.8c2.2,0,3.2,0.9,3.2,2.6l-0.7,1.4l-0.4,13.5c0,6.1,1.2,9.9,3.7,11.3l0.1,1.1
			c-0.1,1.4-0.8,2.1-2,2.1h-0.4c-3.7-2.5-5.5-6.3-5.5-11.5h-0.5c-2,5.5-4.3,8.2-7.1,8.2c-2.6-0.7-3.9-2.7-3.9-5.8
			c0-6.9,2.8-13.8,8.3-20.7C4406.4,2343.6,4408.1,2342.8,4409.8,2342.8z M4400.9,2362.8l-0.3,2.1v1.4h0.7c3.7-9.2,5.5-14.8,5.5-16.8
			h-0.3C4403.7,2352.7,4401.8,2357.2,4400.9,2362.8z"/>
		<path class="st5" d="M4434.8,2330.8c0.8,0,1.6,0.8,2.3,2.4l-3.2,20.5v5.7c0,6,0.9,9,2.8,9c1.2,0.6,1.8,1.4,1.8,2.4
			c0,1.1-1,1.8-2.9,2c-2.2,0-3.9-2-5.1-6h-0.7c-1.8,4-4,6-6.6,6c-3,0-4.9-2.3-5.5-6.9c0-5.3,3.6-11,10.7-17c1.4,0,2.1-2,2.1-6
			C4431.5,2334.8,4433,2330.8,4434.8,2330.8z M4421.9,2365.2v2l1.2,1.2h0.4c1.6,0,3.4-4.7,5.5-14.2h-0.4
			C4424.1,2358.6,4421.9,2362.3,4421.9,2365.2z"/>
		<path class="st5" d="M4447.7,2344.8c2,0,5.3,3.5,9.9,10.3l0.1,1.3c0,1.4-3.4,2.4-10.1,3.2l-0.2,0.2v0.3c1,4.4,2.1,6.6,3.2,6.6h0.9
			c1.6,0,4-1.7,7.1-5.1h0.4c1,0,1.7,0.7,2.3,2.1c0,1.2-2.1,3.2-6.2,6.1c-1.1,0.6-2.4,1.1-3.9,1.4c-4,0-6.7-3.7-8.3-11.2
			c-2.3-0.3-3.4-1.3-3.4-2.8c0-1.1,0.8-1.8,2.5-2.1v0.3l0.7-0.3v-1.8C4442.9,2347.6,4444.5,2344.8,4447.7,2344.8z M4448.1,2350.1
			h-0.7l-0.3,2.7v2.3h0.3c2.7-0.1,4.1-0.4,4.1-0.9C4450.3,2352.3,4449.1,2350.9,4448.1,2350.1z"/>
	</g>
	<g>
		<path class="st5" d="M3515.6,2421.9c1.3,0,2.2,2.2,2.7,6.7c-0.5,1.2-1.3,1.8-2.4,1.8c-0.8-0.1-1.6-1.1-2.4-2.7l-1.3-0.4
			c-2.3,0-4.4,1.5-6.3,4.6v0.7c0,0.7,3.5,2,10.4,3.7c2.9,1.7,4.3,3.8,4.3,6.3c0,4-3.2,7.5-9.7,10.3l-2.7,0.4
			c-4.1-0.4-6.2-2.5-6.2-6.2v-0.2c0-1.2,0.8-1.9,2.3-2.1c1.2,0,2,1.2,2.4,3.7l0.6,0.4h1.3c2.8,0,5.4-1.9,7.8-5.7v-1
			c0-1.5-3.2-2.8-9.6-4.1c-3.4-1.4-5.1-3.3-5.1-5.7c0-3.2,2.7-6.2,8-9C3512,2423.1,3514,2422.6,3515.6,2421.9z"/>
		<path class="st5" d="M3526.5,2411.1c1.4,0,2.1,1.7,2.1,5l0.9,12.7h0.3l3.7-1.4c4.1,0,6.6,4.2,7.5,12.7c0.3,2.4,0.5,5.9,0.5,10.6v6
			c0,1.9-0.7,2.8-2.1,2.8h-0.3c-1.3-0.2-2-0.9-2-2.1v-6.9c0-11.1-1.1-17.2-3.2-18.4h-0.4c-1.5,0-2.6,2.3-3.2,6.8v4.1
			c0,7.4-0.6,11-1.8,11l-1.4,0.1c-1.4,0-2.1-2-2.1-6.1c0.1-4.3,0.4-7.9,0.9-10.6l-1.5-24.2C3524.2,2411.8,3525,2411.2,3526.5,2411.1
			z"/>
		<path class="st5" d="M3545.8,2413.4c1.9,0.4,2.8,1.2,2.8,2.5c-0.5,1.4-1.3,2.1-2.4,2.1c-1.8-0.3-2.7-1.3-2.7-2.7
			C3544,2414,3544.8,2413.4,3545.8,2413.4z M3548.6,2423.7c0.8,0,1.4,0.7,2,2.1l-0.7,5.2v3.5c0,4,0.7,9.3,2.1,15.8
			c-0.5,0.9-1.3,1.4-2.5,1.4c-2,0-3.3-5.9-4-17.7v-2.6C3545.5,2426.3,3546.5,2423.7,3548.6,2423.7z"/>
		<path class="st5" d="M3564.8,2429.9c5.2,0,8.3,3.3,9.2,9.8c0,5.8-2.7,9.9-8.1,12.4c-0.6,0.3-1.4,0.4-2.4,0.4h-0.5l-1.6-0.1v0.1
			l0.3,19.7c-0.3,1.5-1.1,2.3-2.4,2.3c-1.4-0.4-2.1-1.2-2.1-2.1l-0.7-40c0-1.3,0.8-1.9,2.3-2l1.5,0.7
			C3561.8,2430.3,3563.2,2429.9,3564.8,2429.9z M3561.1,2437.7l-0.2,2.3l0.2,7.8l2.1,0.5c3.3,0,5.4-2.4,6.4-7.2v-1.1
			c-0.3-3.9-1.7-5.8-4.1-5.8h-1.1C3562.2,2434.2,3561.1,2435.3,3561.1,2437.7z"/>
	</g>
	<g>
		<path class="st5" d="M3248.6,2618.1c2.6,0,4.2,5,4.9,15l0.4,2.3c2.3-4.6,4.1-6.9,5.5-6.9c0-0.2,0.5-0.3,1.5-0.4h0.3
			c3.2,0,5.3,2.5,6.2,7.6v0.2c0,4.3-2.2,9.1-6.5,14.3c-1.8,2-3.8,2.9-6,2.9c-2.5-0.5-3.7-1.8-3.7-3.7l-3.7-26.4l-1.1-2.7
			C3246.6,2619.4,3247.3,2618.6,3248.6,2618.1z M3256.2,2648h0.2c2.6-1,4.8-4.5,6.7-10.5v-2.8c-0.4-1.5-1-2.3-1.7-2.3h-0.6
			C3258.7,2633.7,3257.2,2638.9,3256.2,2648z"/>
		<path class="st5" d="M3272.1,2614.7c1.9,0.4,2.8,1.2,2.8,2.5c-0.5,1.4-1.3,2.1-2.4,2.1c-1.8-0.3-2.7-1.3-2.7-2.7
			C3270.3,2615.3,3271,2614.7,3272.1,2614.7z M3274.9,2625c0.8,0,1.4,0.7,2,2.1l-0.7,5.2v3.5c0,4,0.7,9.3,2.1,15.8
			c-0.5,0.9-1.3,1.4-2.5,1.4c-2,0-3.3-5.9-4-17.7v-2.6C3271.8,2627.6,3272.8,2625,3274.9,2625z"/>
		<path class="st5" d="M3285.8,2614.1h0.4c0.6,0,1.3,0.5,1.8,1.6l-0.3,5v2.8l0.3,12.9l0.2,0.7h0.2c2.1-2,3.9-5.4,5.5-10.4l1.6-0.5
			c1.4,0.2,2.1,0.8,2.1,1.8c0,3.2-2.3,7.5-6.8,12.9v0.5c6,7,10,10.5,11.9,10.5h0.4l1.8-1.1h0.7c1,0,1.8,0.7,2.3,2.1
			c0,1.6-1.7,2.6-5.2,3.2c-3.5,0-8-3.5-13.6-10.6h-0.7l0.2,4v3.8c-0.3,1.5-1.1,2.3-2.3,2.3c-1.4-0.3-2.1-1.1-2.1-2.3v-0.4l-0.3-8.5
			c-0.5,0-0.9-0.8-1.1-2.3l1-1.8l-0.4-16.6v-3.2C3283.5,2616.3,3284.2,2614.1,3285.8,2614.1z"/>
		<path class="st5" d="M3316.6,2626.6c2,0,5.3,3.5,9.9,10.3l0.1,1.3c0,1.4-3.4,2.4-10.1,3.2l-0.2,0.2v0.3c1,4.4,2.1,6.6,3.2,6.6h0.9
			c1.6,0,4-1.7,7.1-5.1h0.4c1,0,1.7,0.7,2.3,2.1c0,1.2-2.1,3.2-6.2,6.1c-1.1,0.6-2.4,1.1-3.9,1.4c-4,0-6.7-3.7-8.3-11.2
			c-2.3-0.3-3.4-1.3-3.4-2.8c0-1.1,0.8-1.8,2.5-2.1v0.3l0.7-0.3v-1.8C3311.8,2629.5,3313.4,2626.6,3316.6,2626.6z M3317,2631.9h-0.7
			l-0.3,2.7v2.3h0.3c2.7-0.1,4.1-0.4,4.1-0.9C3319.2,2634.2,3318.1,2632.8,3317,2631.9z"/>
	</g>
	<g>
		<path class="st5" d="M3522.5,2600.5c1.3,0,2.2,2.2,2.7,6.7c-0.5,1.2-1.3,1.8-2.4,1.8c-0.8-0.1-1.6-1.1-2.4-2.7l-1.3-0.4
			c-2.3,0-4.4,1.5-6.3,4.6v0.7c0,0.7,3.5,2,10.4,3.7c2.9,1.7,4.3,3.8,4.3,6.3c0,4-3.2,7.5-9.7,10.3l-2.7,0.4
			c-4.1-0.4-6.2-2.5-6.2-6.2v-0.2c0-1.2,0.8-1.9,2.3-2.1c1.2,0,2,1.2,2.4,3.7l0.6,0.4h1.3c2.8,0,5.4-1.9,7.8-5.7v-1
			c0-1.5-3.2-2.8-9.6-4.1c-3.4-1.4-5.1-3.3-5.1-5.7c0-3.2,2.7-6.2,8-9C3518.9,2601.6,3520.9,2601.1,3522.5,2600.5z"/>
		<path class="st5" d="M3539,2585.6c1.4,0.3,2.1,1,2.1,2.1l-0.4,3.2v1c0,2.2,0.2,4.4,0.7,6.8h0.1c5.7-1.7,9.2-2.6,10.6-2.6
			c1.4,0.4,2.1,1.1,2.1,2.1c0,1.7-1.7,2.5-5.1,2.5l-7.7,2.7c0,6.6,0.7,15.6,2.1,27c-0.3,1.3-1,2-2.1,2h-0.1c-1.7,0-2.6-2.2-2.6-6.6
			c-0.6-3.3-1.2-10.4-1.6-21.4h-1.3c-4.6-0.3-6.9-1.4-6.9-3.2c0-0.5,0.5-1.2,1.5-2h0.7l3.4,0.9h2.4l-0.7-9.2
			C3536.3,2587.4,3537.2,2585.6,3539,2585.6z"/>
		<path class="st5" d="M3563.1,2603.9c2,0,5.3,3.5,9.9,10.3l0.1,1.3c0,1.4-3.4,2.4-10.1,3.2l-0.2,0.2v0.3c1,4.4,2.1,6.6,3.2,6.6h0.9
			c1.6,0,4-1.7,7.1-5.1h0.4c1,0,1.7,0.7,2.3,2.1c0,1.2-2.1,3.2-6.2,6.1c-1.1,0.6-2.4,1.1-3.9,1.4c-4,0-6.7-3.7-8.3-11.2
			c-2.3-0.3-3.4-1.3-3.4-2.8c0-1.1,0.8-1.8,2.5-2.1v0.3l0.7-0.3v-1.8C3558.3,2606.7,3559.9,2603.9,3563.1,2603.9z M3563.5,2609.2
			h-0.7l-0.3,2.7v2.3h0.3c2.7-0.1,4.1-0.4,4.1-0.9C3565.7,2611.4,3564.6,2610,3563.5,2609.2z"/>
		<path class="st5" d="M3600.5,2607.2c3.4,2.3,5.1,5.7,5.1,10.5c0,6.4-2.1,10.7-6.4,13l-2.8,0.4c-1.7,0-3.4-0.8-5.3-2.4h-0.5
			c-1.5,2-2.9,2.9-4.3,2.9c-3.5,0-5.5-3.3-6-9.9v-4c0.3-6.2,1.6-9.3,3.9-9.3c1.2,0,1.9,0.8,2.1,2.3c-1.1,2-1.7,4.7-1.7,8.2v1.4
			c0.2,4.4,0.7,6.6,1.4,6.6s1.5-1.3,2.3-3.8l-0.1-5.1c0-3.4,0.8-5.1,2.4-5.1c1.9,0,2.8,1.8,2.8,5.5h0.3l-0.7,4.6
			c0.8,2.5,2,3.7,3.5,3.7h0.4c2.2,0,3.6-2.3,4.2-6.9v-4.1c0-1.6-0.9-3.5-2.8-5.8l-0.3-0.7
			C3597.9,2608.3,3598.8,2607.6,3600.5,2607.2z"/>
	</g>
	<ellipse class="st6" cx="3089" cy="2002.9" rx="242.3" ry="283.5"/>
	<ellipse class="st7" cx="3430" cy="1785.6" rx="440.9" ry="239.5"/>
</g>
</svg>
