<?xml version="1.0" encoding="utf-8"?>
<!-- Generator: Adobe Illustrator 25.1.0, SVG Export Plug-In . SVG Version: 6.00 Build 0)  -->
<svg version="1.1" id="Layer_1" xmlns="http://www.w3.org/2000/svg" xmlns:xlink="http://www.w3.org/1999/xlink" x="0px" y="0px"
	 viewBox="0 0 4476.4 2718.6" style="enable-background:new 0 0 4476.4 2718.6;" xml:space="preserve">
<style type="text/css">
	.st0{fill:none;}
	.st1{fill:#FFFFFF;}
	.st2{fill:#010101;}
	.st3{font-family:'JustMeAgainDownHere';}
	.st4{font-size:68.7405px;}
	.st5{fill:none;stroke:#010101;stroke-width:1.5;stroke-linecap:round;stroke-miterlimit:10;}
	.st6{fill:none;stroke:#010101;stroke-width:1.5;stroke-linecap:round;stroke-linejoin:round;stroke-miterlimit:10;}
	.st7{fill:#030303;}
	.st8{fill:#020202;}
	.st9{fill:#2D51A3;}
	.st10{fill:#8E4399;}
	.st11{fill:#08753D;}
	.st12{fill:#070707;}
	.st13{fill:#090909;}
	.st14{fill:#EE3D27;}
	.st15{fill:#13763F;}
	.st16{fill:#90459A;}
	.st17{fill:#0F1010;}
	.st18{fill:#3053A5;}
	.st19{fill:#177740;}
	.st20{fill:#3255A5;}
	.st21{fill:#191919;}
	.st22{fill:#2E51A4;}
	.st23{fill:#91469B;}
	.st24{fill:#934A9D;}
	.st25{fill:#0F763E;}
	.st26{fill:#9853A1;}
	.st27{fill:#EE432B;}
	.st28{fill:#9851A0;}
	.st29{fill:#2E52A4;}
	.st30{fill:#2F52A4;}
	.st31{fill:#0E0E0E;}
	.st32{fill:#040404;}
	.st33{fill:#060606;}
	.st34{fill:#8F439A;}
	.st35{fill:#0A0B0B;}
	.st36{fill:#EE3D28;}
	.st37{fill:#167740;}
	.st38{fill:#8F449A;}
	.st39{fill:#0D0D0D;}
	.st40{fill:#0F0F0F;}
	.st41{fill:#197841;}
	.st42{fill:#92489C;}
	.st43{fill:#EE402A;}
	.st44{fill:#101111;}
	.st45{fill:#101010;}
	.st46{fill:#181919;}
	.st47{fill:#207943;}
	.st48{fill:#297D48;}
	.st49{fill:#141414;}
	.st50{fill:#247B45;}
	.st51{fill:#161616;}
	.st52{fill:#EE462F;}
	.st53{fill:#3C8452;}
	.st54{fill:#2B7D48;}
	.st55{fill:#267B45;}
	.st56{fill:#EF4932;}
	.st57{fill:#EF4730;}
	.st58{fill:#91479B;}
	.st59{fill:#EF4735;}
	.st60{fill:#151616;}
	.st61{fill:#F0553F;}
	.st62{fill:#0B0B0B;}
	.st63{fill:#0B0C0C;}
	.st64{fill:#1A7841;}
	.st65{fill:#015F74;}
	.st66{fill:#F57F20;}
	.st67{fill:none;stroke:#015F74;stroke-width:3;stroke-miterlimit:10;}
	.st68{fill:none;stroke:#F57F20;stroke-width:3;stroke-miterlimit:10;}
</style>
<g id="vGqCsH_1_">
	<g>
		<path class="st0" d="M1259.2,368.1c1,0.3,1.8,0.5,2.5,0.8c29.9,10.4,59.9,20.7,89.8,31.1c26.2,9.1,52.3,18.2,78.4,27.3
			c31.8,11,63.6,22.1,95.4,33.1c5.5,1.9,7.8,0.8,9.6-4.7c4.3-12.8,8.5-25.7,12.8-38.5c11.7-34.3,24.4-68.2,37.9-101.8
			c13-32.4,26.9-64.4,41.5-96.1c14.4-31.3,29.7-62.1,45.6-92.6c4.3-8.2,8.5-16.3,12.7-24.5c1.7-3.3,0.6-6.4-2.6-7.6
			c-20.4-7.9-40.7-15.9-61.1-23.7c-35.4-13.5-71-26.3-107.1-37.6c-31-9.7-62.2-18.7-93.4-27.9c-3.6-1.1-5.3-0.3-7,3.1
			c-2.9,5.8-5.7,11.7-8.6,17.6c-13.9,28.5-27.7,56.9-41.7,85.4c-13.6,27.7-27.2,55.4-40.8,83c-16,32.6-31.9,65.1-48,97.7
			c-7.1,14.4-14.4,28.7-21.5,43.2c-2.7,5.5-4.9,11.2-7.4,16.7c-0.5,1-1,2.1-1.7,3c-2.4,3.2-1.2,7.6,2.6,8.9c2.3,0.8,4.6,1.7,7,2.5
			c-0.8,2.6-1.5,5-2.3,7.4c-0.3,0.9-0.3,2-0.9,2.6c-0.9,1.2-0.5,1.9,0.5,2.5c1.4,0.8,2.9,1.5,4.4,2.3c1.4,0.6,3.4,0.9,3.9,1.9
			c0.5,1-0.5,2.8-0.9,4.2c-0.6,2.2,0.6,4.9,2.6,5.6c27.6,9.7,55.2,19.6,82.9,29c39,13.3,78.2,26.1,117.3,39.2
			c27.5,9.3,55,18.7,82.5,28.1c5.3,1.8,10.6,3.9,15.9,5.6c4.2,1.3,8.7,0.8,9.1-4.8c0.2-2.4,1-4.8,1.7-7.2
			c6.1-21.6,12.2-43.2,18.4-64.8c8.1-28,16.1-56,24.7-83.8c6.8-22,14.3-43.8,21.8-65.5c8.6-24.6,17.4-49.2,26.5-73.7
			c8.3-22.5,17.1-44.8,25.6-67.2c0.3-0.7-0.1-1.6-0.1-2.4c-0.6,0.5-1.3,0.9-1.9,1.4c-0.4,0.4-0.5,0.9-0.8,1.4
			c-5.3,11.9-10.9,23.7-15.7,35.9c-12.8,32.3-25.3,64.7-37.6,97.3c-13,34.5-24.8,69.5-36,104.6c-11.3,35.6-21.8,71.4-30.6,107.6
			c-1,4.3-2.3,8.6-3.4,13c-100.4-30.9-198.9-66.4-299.3-96c0.6-2.2,1.2-4.3,1.7-6.4c5.8,2,11.3,4,16.9,5.9
			c29.2,10,58.5,20,87.8,29.9c31.9,10.9,63.7,21.7,95.6,32.6c21.2,7.2,42.4,14.3,63.6,21.5c7.9,2.7,15.7,5.3,23.6,7.9
			c3.5,1.1,5.9-1,5.2-4.6c-0.2-1.2-1.1-2.3-1.8-3.7c3.5-0.3,4.7-2.8,5.6-5.9c1.6-6,3.3-11.9,5.1-17.8c7.3-24.2,14.6-48.4,22.1-72.5
			c10.9-34.8,22.7-69.2,35.4-103.3c6.8-18.5,13.8-36.9,21-55.3c8-20.1,16.3-40.1,24.6-60.1c6.9-16.8,14-33.4,21-50.2
			c0.4-1,1.6-2.3,0.1-3.1c-1.7-0.8-2,1.1-2.4,2.1c-7.9,16.4-16.2,32.6-23.6,49.2c-12,26.7-23.8,53.5-35,80.5
			c-17.6,42.8-33.9,86.1-48.3,130c-10.7,32.6-20.5,65.4-30.7,98.1c-0.7,2.3-1.3,4.6,0.7,7c-98.3-32.1-196.2-64-294.2-95.9
			C1257.5,374,1258.3,371.2,1259.2,368.1z M1374.6,49.5c0.2-0.2,0.7-0.5,0.9-0.9c0.5-0.7,0.8-1.6,1.3-2.4c7.7-14.3,15.4-28.7,23-43
			c0.5-0.9,1.8-1.9,0.6-3.3c-0.8,0.8-1.7,1.4-2.2,2.3c-6.2,11-12.2,22.1-18.3,33.1c-2.1,3.8-4.3,7.7-6.4,11.5
			C1372.6,48.4,1373,49.5,1374.6,49.5z M1603.4,433.8c-0.3-0.1-0.6-0.2-0.8-0.2c-0.3,0.6-0.6,1.1-0.8,1.7
			c-4.7,15.4-9.4,30.8-14,46.3c-0.2,0.6-0.4,1.2-0.3,1.8c0,0.6,0.4,1.2,0.6,1.8c0.6-0.4,1.4-0.7,1.6-1.3c0.6-1.2,0.9-2.6,1.2-3.9
			c4.1-14.5,8.1-29.1,12.1-43.6C1603.2,435.6,1603.3,434.7,1603.4,433.8z M1611.8,454.7c-0.3-0.3-0.6-1.1-1.1-1.2
			c-0.5-0.1-1.2,0.5-1.5,1c-0.4,0.7-0.5,1.6-0.6,2.4c-1.1,4.9-2.3,9.7-3.3,14.6c-0.2,0.8,0.5,1.7,0.7,2.5c0.6-0.6,1.5-1.2,1.8-1.9
			c0.6-1.6,0.8-3.3,1.2-5C1609.9,463.1,1610.8,459.1,1611.8,454.7z M1366.6,30.7c0.2,0.3,0.3,1.1,0.5,1.1c0.4,0,1.1-0.2,1.3-0.6
			c0.6-0.9,1.1-1.9,1.4-2.9c1.1-3.1,2.1-6.2,3.2-9.4c0.8-2.3,1.7-4.7,2.4-7c0.1-0.5-0.2-1.1-0.3-1.6c-0.5,0.3-1.1,0.6-1.5,0.9
			c-0.2,0.1-0.2,0.5-0.3,0.7c-1.8,4.7-3.5,9.4-5.2,14.1C1367.5,27.5,1367.1,29.1,1366.6,30.7z"/>
		<path d="M1259.2,368.1c-0.9,3.1-1.7,5.8-2.5,8.7c98,31.9,195.9,63.8,294.2,95.9c-2-2.4-1.4-4.7-0.7-7c10.2-32.7,20-65.6,30.7-98.1
			c14.4-44,30.6-87.3,48.3-130c11.2-27.1,23-53.8,35-80.5c7.4-16.6,15.7-32.8,23.6-49.2c0.5-1,0.8-2.9,2.4-2.1
			c1.5,0.7,0.3,2.1-0.1,3.1c-7,16.7-14.1,33.4-21,50.2c-8.3,20-16.6,40-24.6,60.1c-7.3,18.3-14.2,36.8-21,55.3
			c-12.6,34.1-24.5,68.6-35.4,103.3c-7.5,24.1-14.8,48.3-22.1,72.5c-1.8,5.9-3.5,11.9-5.1,17.8c-0.8,3.1-2,5.6-5.6,5.9
			c0.7,1.3,1.5,2.4,1.8,3.7c0.7,3.6-1.7,5.8-5.2,4.6c-7.9-2.6-15.8-5.3-23.6-7.9c-21.2-7.2-42.4-14.3-63.6-21.5
			c-31.9-10.8-63.7-21.7-95.6-32.6c-29.3-10-58.5-19.9-87.8-29.9c-5.6-1.9-11.1-3.9-16.9-5.9c-0.6,2.2-1.1,4.2-1.7,6.4
			c100.3,29.7,198.9,65.2,299.3,96c1.2-4.4,2.4-8.7,3.4-13c8.8-36.3,19.3-72.1,30.6-107.6c11.2-35.2,23-70.1,36-104.6
			c12.2-32.5,24.8-64.9,37.6-97.3c4.8-12.1,10.4-23.9,15.7-35.9c0.2-0.5,0.4-1.1,0.8-1.4c0.5-0.6,1.2-1,1.9-1.4
			c0,0.8,0.4,1.7,0.1,2.4c-8.5,22.4-17.3,44.7-25.6,67.2c-9.1,24.5-17.9,49-26.5,73.7c-7.6,21.7-15,43.5-21.8,65.5
			c-8.6,27.8-16.6,55.8-24.7,83.8c-6.3,21.6-12.3,43.2-18.4,64.8c-0.7,2.4-1.5,4.8-1.7,7.2c-0.4,5.6-4.9,6.1-9.1,4.8
			c-5.4-1.6-10.6-3.8-15.9-5.6c-27.5-9.4-55-18.8-82.5-28.1c-39.1-13.1-78.2-26-117.3-39.2c-27.7-9.4-55.3-19.3-82.9-29
			c-2-0.7-3.2-3.3-2.6-5.6c0.4-1.4,1.4-3.2,0.9-4.2c-0.5-1-2.6-1.3-3.9-1.9c-1.5-0.7-3-1.4-4.4-2.3c-1-0.6-1.4-1.3-0.5-2.5
			c0.5-0.7,0.6-1.7,0.9-2.6c0.7-2.4,1.5-4.8,2.3-7.4c-2.4-0.9-4.7-1.7-7-2.5c-3.8-1.4-5-5.7-2.6-8.9c0.7-0.9,1.2-2,1.7-3
			c2.5-5.6,4.8-11.3,7.4-16.7c7.1-14.4,14.4-28.7,21.5-43.2c16-32.5,32-65.1,48-97.7c13.6-27.7,27.3-55.3,40.8-83
			c13.9-28.4,27.8-56.9,41.7-85.4c2.9-5.9,5.7-11.7,8.6-17.6c1.7-3.4,3.4-4.2,7-3.1c31.1,9.3,62.4,18.2,93.4,27.9
			c36.1,11.3,71.8,24.1,107.1,37.6c20.4,7.8,40.8,15.8,61.1,23.7c3.2,1.3,4.3,4.3,2.6,7.6c-4.2,8.2-8.5,16.3-12.7,24.5
			c-15.9,30.5-31.2,61.4-45.6,92.6c-14.6,31.7-28.5,63.7-41.5,96.1c-13.5,33.6-26.2,67.5-37.9,101.8c-4.4,12.8-8.6,25.7-12.8,38.5
			c-1.8,5.5-4.1,6.7-9.6,4.7c-31.8-11-63.6-22.1-95.4-33.1c-26.2-9.1-52.3-18.2-78.4-27.3c-29.9-10.4-59.8-20.7-89.8-31.1
			C1261,368.6,1260.2,368.4,1259.2,368.1z M1673.9,101.7c-0.6-0.3-1-0.5-1.4-0.7c-29.4-12.5-59.2-24-89.3-34.8
			c-38.7-13.9-77.6-26.8-117-38.5c-14.2-4.2-28.5-8.2-42.7-12.4c-1.3-0.4-2-0.2-2.6,1c-9.8,19.4-19.7,38.7-29.5,58.1
			c-12.8,25.4-25.5,50.8-38.3,76.3c-14.9,29.7-29.9,59.3-44.8,88.9c-13.4,26.6-26.7,53.3-40.1,79.9c-2.8,5.5-5.8,10.8-8.6,16.3
			c-1.7,3.4-3.2,6.9-4.8,10.2c-1.1,2.3-2.5,4.5-3.8,7.1c91.7,32,183.2,63.9,274.9,95.9C1565,328.9,1614,213.1,1673.9,101.7z"/>
		<path d="M1374.6,49.5c-1.6,0-2-1.1-1.2-2.6c2.1-3.8,4.3-7.7,6.4-11.5c6.1-11,12.2-22.1,18.3-33.1c0.5-0.9,1.5-1.5,2.2-2.3
			c1.3,1.3-0.1,2.3-0.6,3.3c-7.6,14.4-15.3,28.7-23,43c-0.4,0.8-0.8,1.6-1.3,2.4C1375.2,49,1374.8,49.3,1374.6,49.5z"/>
		<path d="M1603.4,433.8c-0.1,0.9-0.2,1.8-0.4,2.6c-4,14.5-8.1,29.1-12.1,43.6c-0.4,1.3-0.7,2.7-1.2,3.9c-0.3,0.6-1.1,0.9-1.6,1.3
			c-0.2-0.6-0.5-1.2-0.6-1.8c0-0.6,0.2-1.2,0.3-1.8c4.7-15.4,9.3-30.9,14-46.3c0.2-0.6,0.5-1.2,0.8-1.7
			C1602.9,433.7,1603.2,433.7,1603.4,433.8z"/>
		<path d="M1611.8,454.7c-1,4.4-1.9,8.4-2.8,12.4c-0.4,1.7-0.6,3.4-1.2,5c-0.3,0.8-1.2,1.3-1.8,1.9c-0.3-0.8-0.9-1.8-0.7-2.5
			c1-4.9,2.2-9.8,3.3-14.6c0.2-0.8,0.3-1.7,0.6-2.4c0.3-0.5,1-1,1.5-1C1611.2,453.6,1611.5,454.4,1611.8,454.7z"/>
		<path d="M1366.6,30.7c0.5-1.7,0.9-3.2,1.4-4.7c1.7-4.7,3.5-9.4,5.2-14.1c0.1-0.3,0.1-0.6,0.3-0.7c0.5-0.4,1-0.6,1.5-0.9
			c0.1,0.5,0.5,1.1,0.3,1.6c-0.7,2.4-1.6,4.7-2.4,7c-1.1,3.1-2.1,6.3-3.2,9.4c-0.4,1-0.9,2-1.4,2.9c-0.2,0.4-0.9,0.6-1.3,0.6
			C1366.9,31.8,1366.8,31.1,1366.6,30.7z"/>
		<path class="st0" d="M1673.9,101.7C1614,213.1,1565,328.9,1525.7,449.1c-91.7-32-183.2-63.9-274.9-95.9c1.4-2.5,2.7-4.8,3.8-7.1
			c1.7-3.4,3.1-6.9,4.8-10.2c2.8-5.5,5.8-10.8,8.6-16.3c13.4-26.6,26.7-53.3,40.1-79.9c14.9-29.7,29.8-59.3,44.8-88.9
			c12.8-25.4,25.5-50.9,38.3-76.3c9.8-19.4,19.7-38.7,29.5-58.1c0.6-1.3,1.3-1.4,2.6-1c14.2,4.1,28.5,8.2,42.7,12.4
			c39.4,11.7,78.4,24.6,117,38.5c30.1,10.8,59.9,22.3,89.3,34.8C1672.8,101.2,1673.3,101.5,1673.9,101.7z M1608.8,161.9
			c0-1.9-1.2-2.6-2.8-3.1c-8.7-2.8-17.4-5.6-26.1-8.4c-48.7-15.9-97.4-31.9-146.6-46.2c-3.4-1-6.8-2-10.3-3c-0.5-0.1-1,0.3-1.6,0.4
			c0.3,0.5,0.5,1.1,0.9,1.5c0.2,0.3,0.7,0.3,1.1,0.5c13.9,4.9,27.8,10,41.8,14.6c38.9,12.9,77.9,25.6,116.9,38.3
			c7.6,2.5,15.2,4.9,22.7,7.4C1607.4,164.8,1608.7,164,1608.8,161.9z M1589.1,198.6c0-2-1.3-2.6-3-3.1
			c-34.1-9.2-68.3-18.5-102.4-27.6c-25.3-6.7-50.7-13.1-76-19.7c-3.1-0.8-6.3-1.6-9.4-2.3c-0.4-0.1-0.9,0.2-1.4,0.4
			c0.3,0.4,0.6,0.8,1,1.1c0.3,0.2,0.6,0.2,1,0.3c15.9,4.7,31.8,9.6,47.8,14.1c40.5,11.6,81.1,23.1,121.7,34.6
			c5.7,1.6,11.4,3.2,17.1,4.7C1587.8,201.9,1589.1,200.8,1589.1,198.6z M1556.2,258.2c2.1-0.1,3-0.9,3.3-2.3c0.3-1.5-0.7-2.3-2-2.7
			c-4.5-1.4-9-2.9-13.6-4.2c-20.4-6-40.7-12-61.1-17.8c-28.9-8.2-57.9-16.2-86.9-24.4c-0.4-0.1-0.8-0.3-1.2-0.2
			c-0.5,0.1-1.1,0.4-1.2,0.8c-0.1,0.4,0.1,1.1,0.4,1.4c0.4,0.4,1.1,0.5,1.7,0.7c17.7,5.5,35.4,11.2,53.1,16.6
			c32.6,10,65.3,19.8,98,29.7C1550,256.7,1553.4,257.5,1556.2,258.2z M1527,311.2c0.8-0.7,1.9-1.2,2.1-1.9c0.2-0.8-0.3-2.3-1-2.7
			c-2.3-1.3-4.7-2.6-7.2-3.4c-11.6-3.8-23.3-7.5-34.9-11.3c-34.3-11.1-68.6-22.3-102.9-33.4c-0.6-0.2-1.2-0.4-1.8-0.4
			c-0.3,0-0.9,0.3-0.9,0.6c-0.1,0.4,0.1,0.9,0.3,1.2c0.3,0.3,0.8,0.4,1.3,0.6c17.8,6.4,35.7,12.9,53.5,19.2
			c27,9.6,54,19.1,81.1,28.5C1519.9,309.4,1523.3,310.2,1527,311.2z M1576,99.4c0.5-0.7,1.5-1.4,1.8-2.3c0.6-1.8-0.5-3.2-2.7-3.9
			c-8.2-2.6-16.4-5.2-24.6-7.7c-18.4-5.6-36.8-11.6-55.6-15.8c-0.7-0.1-1.5,0.3-2.2,0.5c0.5,0.5,0.9,1.3,1.5,1.6
			c5.7,2.3,11.3,4.7,17.1,6.6c20.8,6.9,41.7,13.7,62.6,20.5C1574.4,99,1574.9,99.1,1576,99.4z M1505.7,354.8
			c0.5-0.5,1.4-0.9,1.5-1.5c0.1-0.8-0.2-1.8-0.8-2.5c-0.4-0.5-1.3-0.7-2-0.9c-16.9-5.7-33.9-11.3-50.8-16.9
			c-0.8-0.3-1.8,0.1-2.8,0.2c0.7,0.6,1.2,1.6,2,1.9c15.4,5.9,30.9,11.8,46.4,17.6C1501.3,353.4,1503.4,354,1505.7,354.8z"/>
		<path d="M1608.8,161.9c0,2.1-1.4,2.8-3.8,2.1c-7.6-2.4-15.2-4.9-22.7-7.4c-39-12.8-77.9-25.5-116.9-38.3
			c-14-4.6-27.9-9.7-41.8-14.6c-0.4-0.1-0.9-0.2-1.1-0.5c-0.4-0.4-0.6-1-0.9-1.5c0.5-0.2,1.1-0.6,1.6-0.4c3.4,0.9,6.9,2,10.3,3
			c49.2,14.3,97.9,30.3,146.6,46.2c8.7,2.8,17.4,5.6,26.1,8.4C1607.6,159.3,1608.8,160.1,1608.8,161.9z"/>
		<path d="M1589.1,198.6c0.1,2.3-1.3,3.3-3.7,2.6c-5.7-1.5-11.4-3.1-17.1-4.7c-40.6-11.5-81.1-23-121.7-34.6
			c-16-4.6-31.9-9.4-47.8-14.1c-0.3-0.1-0.7-0.1-1-0.3c-0.4-0.3-0.7-0.7-1-1.1c0.5-0.1,1-0.5,1.4-0.4c3.1,0.7,6.3,1.5,9.4,2.3
			c25.3,6.5,50.7,13,76,19.7c34.2,9.1,68.3,18.4,102.4,27.6C1587.7,195.9,1589.1,196.6,1589.1,198.6z"/>
		<path d="M1556.2,258.2c-2.8-0.7-6.2-1.5-9.4-2.5c-32.7-9.9-65.3-19.7-98-29.7c-17.7-5.4-35.4-11-53.1-16.6
			c-0.6-0.2-1.3-0.3-1.7-0.7c-0.3-0.3-0.5-1-0.4-1.4c0.1-0.4,0.8-0.7,1.2-0.8c0.4-0.1,0.8,0.1,1.2,0.2c29,8.1,57.9,16.1,86.9,24.4
			c20.4,5.8,40.7,11.9,61.1,17.8c4.5,1.3,9.1,2.8,13.6,4.2c1.3,0.4,2.3,1.2,2,2.7C1559.2,257.3,1558.2,258.1,1556.2,258.2z"/>
		<path d="M1527,311.2c-3.7-1-7.1-1.8-10.4-3c-27-9.5-54.1-19-81.1-28.5c-17.9-6.3-35.7-12.8-53.5-19.2c-0.5-0.2-1-0.3-1.3-0.6
			c-0.3-0.3-0.4-0.8-0.3-1.2c0.1-0.3,0.6-0.6,0.9-0.6c0.6,0,1.2,0.2,1.8,0.4c34.3,11.1,68.6,22.3,102.9,33.4
			c11.6,3.8,23.3,7.4,34.9,11.3c2.5,0.8,4.9,2.1,7.2,3.4c0.7,0.4,1.1,1.9,1,2.7C1528.9,310,1527.8,310.6,1527,311.2z"/>
		<path d="M1576,99.4c-1.1-0.3-1.6-0.4-2.1-0.5c-20.9-6.8-41.8-13.6-62.6-20.5c-5.8-1.9-11.4-4.3-17.1-6.6c-0.6-0.2-1-1-1.5-1.6
			c0.7-0.2,1.6-0.7,2.2-0.5c18.9,4.2,37.2,10.1,55.6,15.8c8.2,2.5,16.4,5.1,24.6,7.7c2.2,0.7,3.2,2.1,2.7,3.9
			C1577.5,98,1576.5,98.7,1576,99.4z"/>
		<path d="M1505.7,354.8c-2.4-0.8-4.4-1.4-6.4-2.2c-15.5-5.8-31-11.7-46.4-17.6c-0.8-0.3-1.4-1.3-2-1.9c0.9-0.1,1.9-0.4,2.8-0.2
			c16.9,5.6,33.9,11.3,50.8,16.9c0.7,0.2,1.6,0.4,2,0.9c0.5,0.7,0.8,1.7,0.8,2.5C1507.2,353.9,1506.2,354.3,1505.7,354.8z"/>
	</g>
</g>
<g>
	<path d="M2466.4,409.1c54.9-1.1,109.8-2.6,164.8-3.2c48.4-0.5,96.7,0.5,145.1,0.1c44-0.4,88-1.3,132-3c45.5-1.7,91-4.7,136.6-6.9
		c28.1-1.3,56.3-1.8,84.4-3.3c25.3-1.3,50.6-3.8,75.9-4.9c8.4-0.4,10.2-5.2,10.5-11.1c0.8-19.4,1.6-38.8,1.2-58.2
		c-0.6-30.1-2.1-60.2-3.2-90.3c0-1.3,0.5-2.6,2.5-3.9c8.3,53,9,106.3,6.6,160.8c5.1,0,11.3,0,17.4,0c0.2,1.3,0.4,2.7,0.6,4
		c-6.8,1-13.5,2.6-20.4,3c-57,3.3-113.9,7-170.9,9.2c-85.2,3.3-170.3,6.4-255.5,7.9c-72.9,1.3-145.8-0.2-218.8,0.4
		c-30.5,0.3-60.9,2.9-91.4,4.3c-5.9,0.3-11.7,0-17.6,0C2466.1,412.5,2466.2,410.8,2466.4,409.1z"/>
	<path d="M3064.3,237.3c-154.6,6.9-309.2,8.4-463.9,7.7c-39.6-0.2-79.2,1-118.9,1.7c-3,0.1-5.9,1.7-10.6,3.1c-0.3-0.4-2.1-3-5.7-8
		c39.1-0.7,75.8-1.8,112.5-2c118.2-0.8,236.4,0.1,354.5-2.6c74-1.7,148-8.6,221.9-13.1c18-1.1,35.9-2.1,53.9-3.1
		c0.2,1.4,0.4,2.8,0.6,4.2c-6.8,1-13.6,2.5-20.4,3c-38.8,2.7-77.5,5.2-116.3,7.9c-2.7,0.2-5.4,1-8.1,1.5L3064.3,237.3z"/>
	<path d="M2520.1,347.7c-9.9-0.6-18.3-4.1-23.5-10c-4.1-4.6-6.1-10.4-5.7-16.8c0.7-10.9,10-19.7,20.8-19.7c1.7,0,3.4,0.2,5,0.6
		c0.9,0.2,1.7,0.4,2.6,0.7c5.4,1.3,10.9,2.7,15.7,5.6c6.6,4,10.4,9.9,10.5,16.3c0.1,6.5-3.6,12.7-10.2,17c-3.1,2-6.6,3.3-10,4.5
		c-1.5,0.6-3.1,1.1-4.5,1.7l-0.3,0.1L2520.1,347.7z M2511.3,307c-6.2,0-12.6,6-13.2,12.4c-0.5,5.7,0.8,10.6,4,14.1
		c3.6,4,9.4,6.1,16.8,6.1c0.3,0,0.7,0,1,0c0.3,0,0.7,0,1,0c0.4,0,0.7,0,1.1,0c7.1-0.5,14.7-6.6,16.3-13c1.8-7.1-2.7-10.2-9.1-13.7
		c-4.5-2.5-10.1-4.4-16-5.6C2512.6,307.1,2511.9,307,2511.3,307z"/>
	<path d="M2520.2,346.3c-17.2-1-28.7-11.2-27.8-25.3c0.7-12,12.4-20.8,24.1-17.8c6.1,1.6,12.6,2.9,17.9,6.1
		c13.1,7.9,13,22.5,0.2,30.9C2530.2,342.9,2525,344.2,2520.2,346.3z M2518.9,341c1.1,0,2.1,0.1,3.2,0c7.8-0.6,15.8-7.1,17.6-14.1
		c2.2-8.6-4.1-12.2-9.8-15.3c-5-2.7-10.8-4.6-16.4-5.8c-7.5-1.5-16,5.7-16.7,13.4C2495.4,332.5,2504,341,2518.9,341z"/>
	<path d="M2954.1,345.9c-13,0-21.8-6.7-23-17.4c-0.8-6.9,1.1-13.4,5.2-18.5c4.3-5.4,10.9-8.8,18.5-9.6c0.2,0,0.6-0.2,1-0.4
		c0.3-0.1,0.5-0.3,0.8-0.4l1-0.4l0.1,0.1c1.6-0.5,3.2-0.7,4.9-0.7c8,0,15.4,5.7,18.5,14.2c2.5,6.8,1.7,14.3-2.2,20.5
		c-4.3,6.9-11.6,11.4-20,12.3C2957.2,345.8,2955.6,345.9,2954.1,345.9z M2956.6,306.5c-10.4,0-18.3,7.5-18.7,17.9
		c-0.2,4.2,1,7.7,3.4,10.3c2.6,2.8,6.7,4.4,11.7,4.5c0.2,0,0.5,0,0.7,0c11.8,0,21.2-7.5,21.4-17.1c0.2-9.1-4.8-15.8-14-18.6
		c0,0.1,1.4,1.8,1.4,1.8l-2,0.6c-0.4,0.1-0.7,0.2-0.9,0.3c-0.5,0.2-0.9,0.3-1.5,0.3l-0.2,0C2957.5,306.5,2957.1,306.5,2956.6,306.5z
		"/>
	<path d="M2957,301c8.8-3.6,19,1.9,22.7,12.2c5.1,14.2-5.1,29.2-21.1,31c-14.6,1.7-24.9-4.6-26.1-15.9c-1.5-13.8,8-25.1,22.5-26.6
		c0.8-0.1,1.5-0.6,2.2-0.9c0.9,1.2,1.9,2.3,3,3.7c-1.1,0.3-1.6,0.6-2,0.6c-11.8-0.8-21.1,7.5-21.6,19.2c-0.4,9.7,5.9,16,16.4,16.3
		c12.8,0.4,23.4-7.9,23.6-18.5C2976.7,310.9,2969.5,303.1,2957,301z"/>
	<path d="M2648.7,353.2c-5.8,0-11-2-14.7-5.5c-6.5-6.2-7.2-21.3-1.5-30.9c4.3-7.3,9.3-10.7,15.5-10.7c1.7,0,3.5,0.2,5.4,0.7l3.3-0.5
		c1-0.2,1.9-0.2,2.9-0.2c6.2,0,10.6,3.5,13.2,10.4c4.2,11.1,0.1,25.7-8.9,32C2659.4,351.5,2654,353.2,2648.7,353.2z M2654.6,309.9
		c-13.9,3.1-20.5,11.9-19.3,25.6c0.6,6.3,5,10,12.4,10.6c0.5,0,1,0,1.4,0c8.1,0,14.8-4.9,16.7-12.1c2.8-11.1,0.4-17.9-8.9-24.6
		L2654.6,309.9z"/>
	<path d="M2654.3,308.5c-14.7,3.3-21.7,13.1-20.4,27.1c0.6,7,5.6,11.3,13.7,11.8c9.4,0.6,17.4-4.7,19.6-13.1
		c3.1-12,0.2-19.4-10.2-26.7c7-1.1,11.8,2,14.5,9.3c4,10.4,0.1,24.4-8.4,30.3c-9,6.3-21.3,6-28.1-0.6c-5.9-5.7-6.6-20.2-1.3-29.2
		C2638.9,308.6,2645,305.6,2654.3,308.5z"/>
	<path d="M2450.7,246.7c0.6,7.3,1.2,11.2,1.3,15.2c0.1,44.3,0.1,88.6,0.4,132.9c0,3.5,3.8,7.1,3.5,10.4c-0.4,4.6-3.1,9-5.2,14.7
		C2443.8,411.3,2444.2,263.8,2450.7,246.7z"/>
	<path d="M2611,250.5c8.3,17.6,4.6,142.3-4.3,153.7C2608.2,351.2,2609.6,300.8,2611,250.5z"/>
	<path d="M2758.5,402.8c3.3-50.8,6.6-101.6,10-153.7c1.3,2.4,4.1,5.3,4.1,8.1c-0.3,21.3-0.8,42.7-2,64c-1.4,24.4-3.8,48.8-5.8,73.3
		c-0.2,3-1,6-1.5,8.9C2761.7,403.2,2760.1,403,2758.5,402.8z"/>
	<path d="M3064.1,237.6c1.4,3.9,4.1,7.9,4,11.8c-1.2,45.1-2.9,90.3-4.5,135.4c0,1.3-1.2,2.6-3.6,7.3c-1.6-5.9-3.1-8.7-2.9-11.4
		c2-47.1,4.1-94.1,6.3-141.2c0-0.7,0.7-1.4,1-2.1C3064.3,237.3,3064.1,237.6,3064.1,237.6z"/>
	<path d="M2558.9,348.4l-0.5-4.4l16.9-1.5v-27.9l-10.5,5.7l-2.4-4.2l18.1-12.9l0.5,1.9c3.1,10.9,2.2,21.2,1.3,31.3
		c-0.2,2-0.3,4-0.5,6l17.3,0.8l-0.2,5.2H2558.9z"/>
	<path d="M2576.8,312.3c-4.1,2.2-7.7,4.2-11.4,6.2c-0.4-0.6-0.7-1.3-1.1-1.9c4.8-3.4,9.5-6.8,15.4-11c3.7,13.2,1.5,25.4,0.6,38.2
		c5.9,0.3,11.6,0.5,17.3,0.8c0,0.8,0,1.6-0.1,2.4c-12.5,0-24.9,0-37.4,0c-0.1-0.6-0.1-1.1-0.2-1.7c5.4-0.5,10.7-1,16.8-1.5
		C2576.8,333.4,2576.8,323,2576.8,312.3z"/>
	<path d="M2926.5,246.2c-2.4,50.7-4.8,101.5-7.2,152.2c-2.1-0.1-4.3-0.2-6.4-0.3c2.7-50.8,5.5-101.6,8.2-152.3
		C2922.8,245.9,2924.7,246.1,2926.5,246.2z"/>
	<path class="st0" d="M2518.9,341c-14.8,0-23.4-8.5-22.2-21.8c0.7-7.7,9.2-15,16.7-13.4c5.6,1.1,11.4,3,16.4,5.8
		c5.7,3.1,12,6.7,9.8,15.3c-1.8,7-9.8,13.5-17.6,14.1C2521,341.1,2519.9,341,2518.9,341z"/>
	<path d="M3005.9,330.3c1.3-0.7,2.6-1.7,4-2.2c6.4-2.3,12.9-4.2,19.8-4.5c1.8-0.1,3.6,0,5.4,0.3c3.8,0.6,6.7,2.6,7.5,6.5
		c0.9,4.3,0.5,8.6-3.5,11.2c-2.6,1.7-5.9,3-9,3.4c-9,1.1-17.7,0-25.2-5.7c-9.7-7.3-11-20.2-2.7-29.1c6.3-6.8,14-10.6,23.5-8.8
		c5.5,1,9.3,4.5,11.9,9.3c1,1.8,0.5,3.6-1.2,4.4c-1.8,0.8-3.3,0.5-4.2-1.3c-3.5-6.3-10.4-8.7-18-4.5c-5.9,3.2-10.3,7.8-10.5,15
		c-0.1,2.1,1,4.3,1.5,6.4C3005.5,330.7,3005.7,330.5,3005.9,330.3z M3011.4,335c6.6,3.4,13.5,4.6,20.7,2.5c1.4-0.4,2.5-2.4,3.5-3.8
		c0.3-0.4-0.4-2-1-2.2c-1.5-0.6-3.2-1-4.8-1C3023.3,330.4,3017.4,332.7,3011.4,335z"/>
	<path d="M2720.8,330.2c-3.8,1.8-7.4,3.7-11.1,5.1c-3.9,1.5-8.1,1.8-12.2,0.4c-5.3-1.8-8.4-6.7-8.5-13.3c-0.1-8,4-13.6,11-16.8
		c8.4-3.9,16.8-3.8,24.3,2.3c2,1.6,3.3,4,4.8,6.1c0.2,0.3,0.3,0.9,0.2,1.3c-0.8,6.3-1.4,12.6-2.6,18.8
		c-2.6,12.8-10.6,19.3-23.7,19.8c-1.5,0.1-3,0.1-4.5,0c-1.8-0.1-2.9-1.3-2.9-3c-0.1-1.8,1-3,2.9-3.2c3-0.3,6.1-0.5,9-1.1
		c6.3-1.2,10.5-4.8,12-11.1C2720,333.6,2720.4,331.8,2720.8,330.2z M2710.2,308c-5.3,0.3-10,3-13.6,7.6c-2.8,3.6-2.9,7.5-0.7,11
		c1.9,3.1,5.6,4.5,9.9,3.8c5.9-1,10.8-3.9,14.5-8.6c1.3-1.7,2-4,2.7-6.1c0.2-0.6-0.2-1.7-0.6-2.2
		C2719.4,309.9,2715.5,308.1,2710.2,308z"/>
	<g>
		<path class="st0" d="M2886.4,331.5c0.2-0.9,0.3-1.7,0.5-2.4c1.5-5.7,3-11.4,4.5-17c0.6-2.3-0.1-3.4-2.3-4.2
			c-4.4-1.6-8.9-1.9-13.5-1.2c-5.7,0.9-11.3,2.1-17,3c-2.1,0.4-4.2,0.4-6.4,0.7c-1.5,0.2-2.3,1.1-2.2,2.6c0.1,1.5,1,2.2,2.4,2.1
			c1.4,0,2.8-0.1,4.1-0.3c6.1-1,12.1-2.2,18.2-3.1c3.5-0.5,7.1-0.4,10.4,0.8c-1.7,6.7-3.3,13.1-5,19.6c-0.1,0.4-0.8,0.8-1.4,0.9
			c-5.8,1-11.6,1.3-17.3-0.5c-1.6-0.5-2.8,0.6-2.9,2.3c0,1.5,0.8,2.2,2.1,2.6c3.7,1.1,7.6,1.5,11.5,1.3c2.4-0.1,4.8-0.4,7.3-0.5
			c0,0.5,0,0.9,0,1.3c0.2,4,0.9,7.9,3.4,11.2c1.3,1.7,2.4,2.1,3.8,1.3c1.5-0.9,1.6-2.2,1-4.2c-0.9-2.7-1.7-5.4-1.9-8.2
			c-0.3-3.1-0.6-2.6,2.6-3.1c3.9-0.6,7.8-1,11.7-1.5c1.9-0.2,2.9-1.2,2.8-2.8c-0.1-1.5-1-2.3-2.8-2.3c-1.5,0-3,0.1-4.5,0.3
			C2892.5,330.5,2889.6,331,2886.4,331.5z"/>
		<path d="M2886.4,331.5c3.2-0.5,6.1-1,9.1-1.4c1.5-0.2,3-0.3,4.5-0.3c1.8,0,2.8,0.8,2.8,2.3c0.1,1.7-0.9,2.6-2.8,2.8
			c-3.9,0.5-7.8,0.9-11.7,1.5c-3.2,0.5-2.9,0-2.6,3.1c0.3,2.8,1.1,5.5,1.9,8.2c0.6,2,0.5,3.3-1,4.2c-1.4,0.8-2.5,0.4-3.8-1.3
			c-2.5-3.3-3.2-7.2-3.4-11.2c0-0.4,0-0.8,0-1.3c-2.5,0.2-4.9,0.4-7.3,0.5c-3.9,0.2-7.7-0.2-11.5-1.3c-1.3-0.4-2.1-1.1-2.1-2.6
			c0-1.7,1.2-2.8,2.9-2.3c5.7,1.7,11.5,1.5,17.3,0.5c0.5-0.1,1.2-0.5,1.4-0.9c1.7-6.5,3.3-12.9,5-19.6c-3.3-1.2-6.9-1.3-10.4-0.8
			c-6.1,0.9-12.2,2.1-18.2,3.1c-1.4,0.2-2.8,0.2-4.1,0.3c-1.4,0-2.3-0.7-2.4-2.1c-0.1-1.5,0.7-2.4,2.2-2.6c2.1-0.3,4.3-0.3,6.4-0.7
			c5.7-1,11.3-2.1,17-3c4.6-0.7,9.1-0.4,13.5,1.2c2.3,0.8,2.9,1.9,2.3,4.2c-1.5,5.7-3,11.4-4.5,17
			C2886.7,329.8,2886.6,330.6,2886.4,331.5z"/>
	</g>
	<path d="M2818.5,354.3c-9.9-0.6-18.3-4.1-23.5-10c-4.1-4.6-6.1-10.4-5.7-16.8c0.7-10.9,10-19.7,20.8-19.7c1.7,0,3.4,0.2,5,0.6
		c0.9,0.2,1.7,0.4,2.6,0.7c5.4,1.3,10.9,2.7,15.7,5.6c6.6,4,10.4,9.9,10.5,16.3c0.1,6.5-3.6,12.7-10.2,17c-3.1,2-6.6,3.3-10,4.5
		c-1.5,0.6-3.1,1.1-4.5,1.7l-0.3,0.1L2818.5,354.3z M2809.7,313.6c-6.2,0-12.6,6-13.2,12.4c-0.5,5.7,0.8,10.6,4,14.1
		c3.6,4,9.4,6.1,16.8,6.1c0.3,0,0.7,0,1,0c0.3,0,0.7,0,1,0c0.4,0,0.7,0,1.1,0c7.1-0.5,14.7-6.6,16.3-13c1.8-7.1-2.7-10.2-9.1-13.7
		c-4.5-2.5-10.1-4.4-16-5.6C2810.9,313.7,2810.3,313.6,2809.7,313.6z"/>
	<path d="M2818.6,352.8c-17.2-1-28.7-11.2-27.8-25.3c0.7-12,12.4-20.8,24.1-17.8c6.1,1.6,12.6,2.9,17.9,6.1
		c13.1,7.9,13,22.5,0.2,30.9C2828.6,349.5,2823.4,350.8,2818.6,352.8z M2817.2,347.6c1.1,0,2.1,0.1,3.2,0
		c7.8-0.6,15.8-7.1,17.6-14.1c2.2-8.6-4.1-12.2-9.8-15.3c-5-2.7-10.8-4.6-16.4-5.8c-7.5-1.5-16,5.7-16.7,13.4
		C2793.8,339.1,2802.4,347.6,2817.2,347.6z"/>
	<circle cx="2543.6" cy="346.5" r="4.9"/>
	<circle cx="2679" cy="349.5" r="4.9"/>
	<circle cx="2845.3" cy="351.3" r="4.9"/>
	<circle cx="2982.6" cy="343.9" r="4.9"/>
	<circle cx="3131.4" cy="331.1" r="4.9"/>
</g>
<g id="_x34_u7J0V_1_">
	<g>
		<path class="st1" d="M2215.7,307.8c4.6,10.7,17.4,9,21.8,2.2c3.7-5.7,2.4-13.4-3.1-17.4c-5.9-4.3-13.6-3.1-18.3,2.7
			c-1,1.3-2.5,2.8-3.9,2.9c-7.1,0.6-14.3,0.7-21.4,1.1c-29.9,1.5-59.9,3-89.8,4.5c-19.3,0.9-38.5,1.9-58.3,2.8c0-4.5,0-8.8,0-13.6
			c10.5-0.6,20.9-1.6,31.4-1.6c27.3,0,54.6,0.4,82,0.8c4.3,0.1,7.6-1,10.4-4.5c10.8-13.7,21.9-27.3,32.7-41c1.6-2.1,2.8-3.3,5.9-3.1
			c6.1,0.5,10.8-3.9,11.7-10c0.9-6-5.9-13.6-11.3-12.5c-6.4,1.3-11.3,8.4-10.5,15c0.2,1.6,0,3.7-0.9,4.8
			c-10.3,13.5-20.8,26.8-31.1,40.3c-1.9,2.5-3.8,3.6-7,3.6c-33,0.3-66,0.7-98.9,1.2c-4.9,0.1-9.8,0.8-15.2,1.3c0-5.9,0-11.2,0-16.8
			c1.3-0.1,2.1-0.2,2.9-0.3c17-0.3,34-0.4,51-0.9c2.5-0.1,5.7-1.3,7.3-3.1c4.8-5.5,9.1-11.4,13.5-17.3c1.9-2.6,3.8-4.3,7.5-4.6
			c8.6-0.6,14.3-8.5,12.4-15.9c-1.7-6.6-9.1-11.4-15.2-10.1c-9.2,2-14,7.8-10.7,16.3c2.7,6.7-0.2,10.5-3,15.1c-2,3.3-3.8,6.7-6,9.8
			c-1,1.3-2.9,2.7-4.5,2.8c-11,0.7-22,1.2-32.9,1.5c-7.6,0.2-15.1,0-23.8,0c-0.3-24.3-0.7-49-1-73.8c0-3.5,0.2-7-0.3-10.4
			c-1.7-13.2-11.8-22.4-24.5-22.7c-13-0.3-22.9,8.1-25.3,21.5c-0.2,0.9-0.4,1.9-0.6,3.1c-15.3-3.4-28.8-0.7-39.4,11
			c-10.7,11.8-13.2,25.3-6.4,40.2c-20,8.6-25.2,25-23.9,45.1c-10.7-3.4-19.5-0.5-26.7,7c-8.9,9.2-12.9,20.5-12.8,33.2
			c0.1,12.9,7.8,24.7,18.5,28.3c4,1.4,8.4,1.5,12.8,2.3c-2.8,8.9-0.5,17,5.2,24.1c5.8,7.2,14,9.5,23,9.9
			c-13.4,31.2,10.7,65.5,40.5,54.8c0.2,0.3,0.4,0.5,0.5,0.8c4.7,15.4,14.3,23.3,29.2,24.2c14.6,0.8,27.5-7.2,32.7-21.4
			c2.4-6.5,4.2-13.6,4.2-20.4c0.1-21.1-0.8-42.3-1.2-63.4c-0.1-2.9,0-5.8,0-8.8c16.6,0,32.3-0.1,47.9,0.1c1.6,0,3.8,1.1,4.8,2.3
			c4.2,5.2,8.2,10.5,11.8,16.1c1.3,1.9,2.1,4.7,1.9,7c-0.5,9.2,9,16.5,17.6,13.2c6.9-2.7,10.4-10.4,7.7-17.2
			c-2.9-7.4-10.9-10.1-19.1-6.6c-5.6-5.9-11.7-11.5-16.6-17.9c-3.2-4.2-6.7-4.6-11.1-4.4c-14.9,1-29.8,1.8-45.2,2.7
			c0-3.2,0-6.7,0-10.2c3.1,0,6.1,0.1,9.1,0c25.5-0.7,51-1.4,76.4-1.9c1.7,0,3.7,0.5,4.9,1.6c9.9,7.8,19.8,15.8,29.5,23.9
			c1.4,1.1,2.5,3.4,2.6,5.2c0.3,6.4,4,11.7,9.7,12.9c5.6,1.2,10.9-1.4,13.8-6.7c3.1-5.8,1.9-12-3-16.2c-4.8-4.2-9.3-4.2-15-0.2
			c-10.6-7.5-21.2-15-31.8-22.6c-0.8-0.6-1.9-1.2-2.1-2c-1.1-3.6-3.9-3.6-6.8-3.4c-18.5,0.9-36.9,1.7-55.4,2.6
			c-10.6,0.5-21.2,0.9-32.5,1.4c-0.3-4.7-0.5-9.3-0.8-14.1C2100.7,311.9,2157.9,309.8,2215.7,307.8z"/>
		<path d="M2215.7,307.8c-57.7,2-115,4.1-172.9,6.1c0.3,4.9,0.5,9.4,0.8,14.1c11.3-0.5,21.9-0.9,32.5-1.4
			c18.5-0.8,36.9-1.7,55.4-2.6c3-0.1,5.7-0.2,6.8,3.4c0.2,0.8,1.4,1.4,2.1,2c10.6,7.5,21.2,15,31.8,22.6c5.7-4,10.2-4,15,0.2
			c5,4.3,6.1,10.5,3,16.2c-2.8,5.3-8.2,7.9-13.8,6.7c-5.7-1.2-9.4-6.5-9.7-12.9c-0.1-1.8-1.2-4-2.6-5.2c-9.7-8.1-19.6-16-29.5-23.9
			c-1.3-1-3.3-1.6-4.9-1.6c-25.5,0.6-51,1.3-76.4,1.9c-3,0.1-6,0-9.1,0c0,3.5,0,7,0,10.2c15.4-0.9,30.3-1.7,45.2-2.7
			c4.5-0.3,7.9,0.1,11.1,4.4c4.9,6.4,11,12,16.6,17.9c8.2-3.5,16.1-0.7,19.1,6.6c2.7,6.7-0.8,14.5-7.7,17.2
			c-8.6,3.3-18.1-4-17.6-13.2c0.1-2.3-0.7-5.1-1.9-7c-3.7-5.6-7.7-10.9-11.8-16.1c-1-1.3-3.2-2.3-4.8-2.3
			c-15.6-0.2-31.3-0.1-47.9-0.1c0,3-0.1,5.9,0,8.8c0.5,21.1,1.3,42.3,1.2,63.4c0,6.8-1.9,13.9-4.2,20.4
			c-5.2,14.2-18.1,22.2-32.7,21.4c-15-0.8-24.6-8.8-29.2-24.2c-0.1-0.3-0.3-0.6-0.5-0.8c-29.8,10.7-53.9-23.6-40.5-54.8
			c-9-0.4-17.2-2.6-23-9.9c-5.7-7.2-8-15.2-5.2-24.1c-4.4-0.8-8.8-0.9-12.8-2.3c-10.7-3.6-18.4-15.5-18.5-28.3
			c-0.1-12.7,3.9-24,12.8-33.2c7.2-7.5,16-10.4,26.7-7c-1.3-20.1,3.9-36.4,23.9-45.1c-6.8-14.9-4.3-28.4,6.4-40.2
			c10.6-11.7,24.2-14.5,39.4-11c0.3-1.2,0.5-2.1,0.6-3.1c2.5-13.4,12.3-21.8,25.3-21.5c12.7,0.3,22.8,9.5,24.5,22.7
			c0.5,3.4,0.2,7,0.3,10.4c0.3,24.8,0.7,49.5,1,73.8c8.6,0,16.2,0.2,23.8,0c11-0.3,22-0.8,32.9-1.5c1.6-0.1,3.5-1.5,4.5-2.8
			c2.3-3.1,4.1-6.5,6-9.8c2.8-4.7,5.7-8.4,3-15.1c-3.4-8.5,1.4-14.3,10.7-16.3c6.2-1.3,13.5,3.5,15.2,10.1c2,7.4-3.8,15.3-12.4,15.9
			c-3.7,0.3-5.6,2-7.5,4.6c-4.3,5.9-8.6,11.8-13.5,17.3c-1.6,1.8-4.8,3-7.3,3.1c-17,0.5-34,0.7-51,0.9c-0.8,0-1.6,0.1-2.9,0.3
			c0,5.6,0,11,0,16.8c5.4-0.5,10.3-1.2,15.2-1.3c33-0.5,66-0.9,98.9-1.2c3.2,0,5.1-1.1,7-3.6c10.3-13.5,20.8-26.8,31.1-40.3
			c0.9-1.2,1.1-3.3,0.9-4.8c-0.8-6.6,4.1-13.7,10.5-15c5.4-1.1,12.2,6.4,11.3,12.5c-1,6.1-5.6,10.5-11.7,10c-3.1-0.2-4.3,1-5.9,3.1
			c-10.8,13.7-21.9,27.3-32.7,41c-2.8,3.5-6.1,4.6-10.4,4.5c-27.3-0.4-54.6-0.8-82-0.8c-10.4,0-20.9,1-31.4,1.6c0,4.8,0,9,0,13.6
			c19.7-0.9,39-1.8,58.3-2.8c29.9-1.5,59.9-3,89.8-4.5c7.1-0.4,14.3-0.5,21.4-1.1c1.4-0.1,2.9-1.7,3.9-2.9c4.7-5.8,12.4-7,18.3-2.7
			c5.5,4,6.8,11.7,3.1,17.4C2233.1,316.8,2220.3,318.5,2215.7,307.8z M2035.3,192.6c0.3-0.1,0.6-0.1,0.9-0.2c-1.1-6-1.4-12.2-3.3-18
			c-2.8-8.6-12.5-14.1-20.9-13c-9.4,1.2-16.8,8.2-17.9,17.5c-0.7,6,0.3,11.8,5.8,15.5c5,3.4,9.4,2,13.1-2.5c0.5-0.5,3-0.4,3.3,0.2
			c0.6,1.1,0.9,3,0.3,4c-2.3,3.8-5.8,5.8-10.4,5.9c-6.9,0.1-13.4-4.8-16.4-11.9c-0.6-1.5-2-3.2-3.4-3.6c-20.5-6-40.3,7.8-42.3,29.1
			c-1.2,12.9,9.4,22.1,20.2,21.6c2.3-0.1,4.4-1.5,6.7-1.7c1.8-0.2,3.6,0.5,5.5,0.9c-0.9,1.8-1.3,4.3-2.7,5.1
			c-2.5,1.4-5.8,2.7-8.4,2.3c-5.6-1-11-3.2-16.6-4.7c-2.2-0.6-4.9-1.4-6.7-0.7c-8.9,3.8-13.9,11-16.1,20.3
			c-2.3,9.9-0.4,19.5,1.8,29.1c0.6,2.6,0.7,5.6-2.6,5.8c-1.4,0.1-4.1-2.5-4.3-4c-0.5-6.3-4.8-7.4-9.4-6.7c-4.3,0.7-9,2-12.3,4.6
			c-9.9,7.9-14,19.1-13,31.5c1.4,17.7,14,25.1,30.2,18.5c1.7-0.7,4-0.1,6-0.1c-0.9,2.2-1.2,5.7-2.7,6.4c-6.1,2.6-5.2,7.3-4.7,12
			c1,8.8,4.9,15.6,13.6,18.7c7.5,2.7,14.5,2.5,20.3-4.4c1.8-2.1,4.9-6.2,8.2-2.7c3.4,3.7-1.1,5.7-3.4,7.9c-16,15.3-16.2,38.2-0.3,52
			c5,4.3,10.6,6.8,17.4,5.8c4.7-0.6,8-2.1,9-7.8c0.8-4.6,3.1-9.2,5.8-13c5.7-7.9,13.9-11.2,23.6-10.1c1.6,0.2,2.9,2.4,4.4,3.6
			c-1.4,1.4-2.7,2.9-4.2,4.1c-0.5,0.4-1.6,0.1-2.4,0.2c-15.8,1.2-24.9,18.5-16.9,32.2c9.2,15.7,32.1,16,41.4,0.3
			c5.9-9.9,7.4-21,7.3-32.3c-0.1-24.7-0.5-49.3-1.1-74c-0.2-8.6-1.6-17.1-1.8-25.7c-0.2-7.2,1-14.5,0.9-21.7
			C2036.5,256.9,2035.9,224.7,2035.3,192.6z M2131,231c-0.1-4.2-4.5-8.3-9.1-8.3c-2.8,0-6.1,4.7-6.2,8.9c0,1.7,6.1,7.1,8,7.2
			C2127.2,238.9,2131.1,234.7,2131,231z M2225.6,310.4c4.8,0.1,8.1-2.8,8.2-6.8c0.1-3.6-2.9-6.7-6.4-6.7c-3.6,0-8.1,4.2-7.8,7.6
			C2220,308.2,2222.5,310.1,2225.6,310.4z M2116.8,374.7c-0.1,3.6,3.2,7.3,6.8,7.3c3.2,0.1,6.6-3.4,6.8-6.9c0.2-3.3-3.1-6.8-6.5-6.9
			C2120.4,368.1,2117,371.2,2116.8,374.7z M2180.5,356.8c-4.4,0.3-7.4,1.8-8,6c-0.4,3.1,3,6.4,6.3,6.4c3.5,0,6.5-3.2,6.3-6.9
			C2185,359,2183.4,357,2180.5,356.8z M2211.1,235.7c0-3.9-4.1-8.7-7.5-7.9c-1.9,0.5-4.7,4.3-4.2,5.8c0.7,2.4,3.4,5.2,5.9,6
			C2207.8,240.5,2210.8,238.8,2211.1,235.7z"/>
		<path class="st1" d="M2035.3,192.6c0.5,32.1,1.2,64.3,1.6,96.4c0.1,7.2-1.1,14.5-0.9,21.7c0.2,8.6,1.6,17.1,1.8,25.7
			c0.6,24.6,0.9,49.3,1.1,74c0.1,11.2-1.4,22.3-7.3,32.3c-9.3,15.6-32.2,15.4-41.4-0.3c-8-13.7,1.1-31,16.9-32.2
			c0.8-0.1,1.9,0.3,2.4-0.2c1.5-1.2,2.8-2.7,4.2-4.1c-1.5-1.3-2.8-3.5-4.4-3.6c-9.7-1.1-17.9,2.1-23.6,10.1c-2.7,3.8-5,8.5-5.8,13
			c-1,5.7-4.4,7.1-9,7.8c-6.8,0.9-12.4-1.5-17.4-5.8c-15.8-13.7-15.7-36.7,0.3-52c2.2-2.1,6.8-4.2,3.4-7.9c-3.3-3.5-6.4,0.5-8.2,2.7
			c-5.8,6.9-12.8,7.1-20.3,4.4c-8.6-3.1-12.6-10-13.6-18.7c-0.5-4.7-1.4-9.4,4.7-12c1.5-0.6,1.8-4.2,2.7-6.4c-2,0-4.3-0.6-6,0.1
			c-16.2,6.6-28.9-0.8-30.2-18.5c-1-12.4,3.1-23.6,13-31.5c3.3-2.6,8-3.9,12.3-4.6c4.6-0.8,8.9,0.3,9.4,6.7c0.1,1.5,2.9,4.1,4.3,4
			c3.3-0.2,3.2-3.3,2.6-5.8c-2.2-9.6-4.1-19.3-1.8-29.1c2.2-9.3,7.2-16.5,16.1-20.3c1.8-0.8,4.6,0.1,6.7,0.7
			c5.6,1.5,11,3.7,16.6,4.7c2.6,0.5,5.9-0.9,8.4-2.3c1.4-0.8,1.9-3.3,2.7-5.1c-1.8-0.3-3.7-1-5.5-0.9c-2.3,0.2-4.5,1.6-6.7,1.7
			c-10.8,0.5-21.4-8.7-20.2-21.6c2-21.3,21.8-35.1,42.3-29.1c1.4,0.4,2.7,2.2,3.4,3.6c2.9,7.1,9.5,12,16.4,11.9
			c4.5-0.1,8.1-2.1,10.4-5.9c0.6-1,0.3-2.9-0.3-4c-0.3-0.6-2.9-0.8-3.3-0.2c-3.8,4.5-8.1,5.9-13.1,2.5c-5.5-3.7-6.5-9.5-5.8-15.5
			c1.1-9.3,8.5-16.3,17.9-17.5c8.4-1.1,18.1,4.4,20.9,13c1.9,5.7,2.3,12,3.3,18C2035.9,192.5,2035.6,192.5,2035.3,192.6z
			 M1986.2,263.6c-0.5-0.4-0.9-0.8-1.4-1.2c-9.1,5.1-16.4,11.9-18.8,22.7c-2.5,11.3,3.3,24.1,12.3,27.3c2.2,0.8,6.4,0.6,7.4-0.8
			c2.3-3.2-1.7-4.2-3.7-5.5c-7.7-5-11-12.7-9.2-21.4c1.5-6.9,5.2-12.5,10.1-17.4C1984.1,266.2,1985.1,264.9,1986.2,263.6z
			 M1987.9,363.6c0-0.8,0-1.7,0-2.5c-0.7-10.7-10.5-21-21.2-21.8c-1.5-0.1-3.2,0.8-4.8,1.3c1.2,1.1,2.3,2.3,3.5,3.4
			c0.2,0.2,0.6,0.2,0.9,0.3c17.6,6.3,21.2,22.8,8,35.8c-1.3,1.3-1.7,3.4-2.5,5.2c2.1-0.3,4.6,0.1,6.2-1
			C1985.4,379.4,1987.4,371.8,1987.9,363.6z M2020,271.4c-3.6,4.3-6.4,10-10.9,12.5c-4.6,2.5-11,1.8-16.6,2.5
			c5.7,4.6,14.4,4.3,21-0.8C2019.5,280.8,2021.7,275.4,2020,271.4z"/>
		<path class="st1" d="M2131,231c0.1,3.7-3.8,7.8-7.2,7.7c-2-0.1-8.1-5.5-8-7.2c0-4.2,3.4-9,6.2-8.9
			C2126.5,222.8,2130.9,226.8,2131,231z"/>
		<path class="st1" d="M2225.6,310.4c-3.1-0.3-5.6-2.1-6-6c-0.3-3.3,4.2-7.6,7.8-7.6c3.5,0,6.5,3.1,6.4,6.7
			C2233.8,307.5,2230.5,310.5,2225.6,310.4z"/>
		<path class="st1" d="M2116.8,374.7c0.1-3.5,3.5-6.6,7-6.5c3.4,0.1,6.7,3.7,6.5,6.9c-0.2,3.5-3.6,6.9-6.8,6.9
			C2120.1,381.9,2116.7,378.3,2116.8,374.7z"/>
		<path class="st1" d="M2180.5,356.8c2.9,0.2,4.5,2.2,4.6,5.4c0.2,3.8-2.8,7-6.3,6.9c-3.3,0-6.7-3.3-6.3-6.4
			C2173.1,358.7,2176.1,357.1,2180.5,356.8z"/>
		<path class="st1" d="M2211.1,235.7c-0.3,3-3.3,4.7-5.8,3.9c-2.5-0.8-5.2-3.5-5.9-6c-0.4-1.5,2.3-5.4,4.2-5.8
			C2206.9,227,2211.1,231.8,2211.1,235.7z"/>
		<path d="M1986.2,263.6c-1.1,1.3-2.1,2.6-3.3,3.8c-4.9,4.9-8.6,10.5-10.1,17.4c-1.8,8.7,1.5,16.3,9.2,21.4c2,1.3,6,2.3,3.7,5.5
			c-1,1.4-5.2,1.6-7.4,0.8c-9-3.2-14.7-16.1-12.3-27.3c2.4-10.8,9.7-17.6,18.8-22.7C1985.3,262.8,1985.8,263.2,1986.2,263.6z"/>
		<path d="M1987.9,363.6c-0.6,8.2-2.5,15.8-9.8,20.7c-1.6,1.1-4.1,0.7-6.2,1c0.8-1.7,1.2-3.9,2.5-5.2c13.3-13,9.6-29.5-8-35.8
			c-0.3-0.1-0.7-0.1-0.9-0.3c-1.2-1.1-2.3-2.3-3.5-3.4c1.6-0.5,3.2-1.4,4.8-1.3c10.7,0.8,20.5,11.1,21.2,21.8
			C1988,361.9,1987.9,362.7,1987.9,363.6z"/>
		<path d="M2020,271.4c1.8,4-0.5,9.4-6.6,14.2c-6.6,5.1-15.3,5.5-21,0.8c5.6-0.7,12,0,16.6-2.5
			C2013.6,281.4,2016.4,275.7,2020,271.4z"/>
	</g>
</g>
<text transform="matrix(1 0 0 1 1376.4951 648.9366)"><tspan x="0" y="0" class="st2 st3 st4">Words /</tspan><tspan x="-29.1" y="82.5" class="st2 st3 st4">Nounphrases</tspan></text>
<text transform="matrix(1 0 0 1 2024.869 648.9365)"><tspan x="0" y="0" class="st2 st3 st4">Embedding</tspan><tspan x="44" y="82.5" class="st2 st3 st4">Model</tspan></text>
<text transform="matrix(1 0 0 1 2745.1145 648.9365)"><tspan x="0" y="0" class="st2 st3 st4">Text as</tspan><tspan x="9.7" y="82.5" class="st2 st3 st4">Vector</tspan></text>
<g>
	<path class="st5" d="M1736.7,331.3c-0.5,0-1.1,0-1.6,0c-0.4,0-0.8,0-1.2,0c-2.2,0-4.4,0.1-6-3l1-2.1c1.3,2.3,2.9,2.3,5,2.2
		c0.4,0,0.8,0,1.2,0c7.6,0.2,15.4-1,23-2.2c2.9-0.5,5.8-0.9,8.7-1.3c3.6-0.5,7.3-1.1,10.8-1.7c14.3-2.3,29.1-4.8,43.1-0.1l-0.2,2.8
		c-13.9-4.6-28.6-2.2-42.8,0.1c-3.6,0.6-7.3,1.2-10.9,1.7c-2.9,0.4-5.8,0.8-8.7,1.3C1751.1,330.1,1743.8,331.3,1736.7,331.3z"/>
	<path class="st5" d="M1728.3,327.2c1.7,3.1,4,2.5,6.7,2.6c10.6,0.3,21.2-2.1,31.7-3.5c17.6-2.3,36.3-7.6,53.8-1.7"/>
	<path class="st6" d="M1817.4,339.8l-1.2-1.6c1.7-4.8,4.1-7.2,6.4-9.5c1.4-1.4,2.8-2.7,4-4.6c-3.4-2.8-9.3-8.5-11.4-14.6l1.2-1.6
		c2.2,6.3,9.6,12.7,11.9,14.4l1,0.8l-0.8,1.5c-1.6,2.9-3.4,4.8-5.2,6.5C1821,333.4,1818.9,335.5,1817.4,339.8z"/>
	<path class="st6" d="M1816.8,339c2.9-8,7.7-8.9,11.2-15.3c-3.4-2.7-10-8.7-12.2-15"/>
</g>
<g>
	<path class="st5" d="M2304,320.5c-0.5,0-1.1,0-1.6,0c-0.4,0-0.8,0-1.2,0c-2.2,0-4.4,0.1-6-3l1-2.1c1.3,2.3,2.9,2.3,5,2.2
		c0.4,0,0.8,0,1.2,0c7.6,0.2,15.4-1,23-2.2c2.9-0.5,5.8-0.9,8.7-1.3c3.6-0.5,7.3-1.1,10.8-1.7c14.3-2.3,29.1-4.8,43.1-0.1l-0.2,2.8
		c-13.9-4.6-28.6-2.2-42.8,0.1c-3.6,0.6-7.3,1.2-10.9,1.7c-2.9,0.4-5.8,0.8-8.7,1.3C2318.4,319.3,2311.1,320.5,2304,320.5z"/>
	<path class="st5" d="M2295.6,316.4c1.7,3.1,4,2.5,6.7,2.6c10.6,0.3,21.2-2.1,31.7-3.5c17.6-2.3,36.3-7.6,53.8-1.7"/>
	<path class="st6" d="M2384.6,329l-1.2-1.6c1.7-4.8,4.1-7.2,6.4-9.5c1.4-1.4,2.8-2.7,4-4.6c-3.4-2.8-9.3-8.5-11.4-14.6l1.2-1.6
		c2.2,6.3,9.6,12.7,11.9,14.4l1,0.8l-0.8,1.5c-1.6,2.9-3.4,4.8-5.2,6.5C2388.3,322.6,2386.2,324.7,2384.6,329z"/>
	<path class="st6" d="M2384.1,328.2c2.9-8,7.7-8.9,11.2-15.3c-3.4-2.7-10-8.7-12.2-15"/>
</g>
<circle cx="3110.1" cy="333.1" r="4.9"/>
<circle cx="3147.7" cy="332.5" r="4.9"/>
<g>
	<g id="DKz0iX.tif">
		<g>
			<path class="st7" d="M596.8,1851c-63.3-1.1-126.6-0.7-189.8-3.9c-42.5-2.1-84.8-7.1-127.1-11.2c-34.3-3.3-68.7-3.9-103.1-3.6
				c-43.8,0.3-87.3-4.6-131.1-5.4c-2.5,0-5.5,0.3-7.1-2.4c-0.9-1.5,0.1-2.7,1.3-3.7c2.6-2.3,4.8-2.7,7.4,0.2
				c0.7,0.8,2.7,0.6,4.1,0.5c28.6-1.4,57,3.4,85.6,3.8c20.4,0.3,40.8,1.3,61.2,0.9c48.5-1,96.6,4.9,144.7,9.4
				c37.8,3.5,75.6,6.6,113.5,6.6c61.8,0,123.7,3.3,185.5,1.5c52.7-1.6,105.4-3.9,158.1-8.1c34.3-2.8,68.4-6.6,102.7-9.4
				c1.7-0.1,3.4-0.5,5.1-0.9c3-0.7,6.8-2.7,7.6,2.3c0.6,4.1-2.8,5.3-6.2,5.7c-18.3,1.8-36.5,3.7-54.8,5.2c-48.8,4-97.6,8-146.5,9.9
				C670.9,1849.9,633.9,1852,596.8,1851z"/>
			<path class="st8" d="M44.6,1173.5c-8.4,19.6-5.7,40.6-6.3,60.9c-1.5,54.7-0.7,109.5-2.4,164.2c-3,98.1,0.2,196.3-2,294.4
				c-0.9,40.7-5.7,81.3-4.8,122.2c0,1.7-0.2,3.5-0.8,5.1c-0.9,2.6-1.1,6.4-5.2,5.7c-3.5-0.6-2.9-4-2.8-6.5
				c0.6-22.7,0.4-45.5,2.4-68.1c3.3-37.8,3.9-75.6,4.3-113.4c0.7-70.5-0.6-141,0.8-211.5c1.6-78.3,1.2-156.7,7-234.8
				c0.5-6.5-2-16.9,10-18.1L44.6,1173.5z"/>
			<path class="st9" d="M597.9,1555.3c0.6,5.2-3.9,6.1-7,7.6c-14.2,6.6-28.5,13.1-43,19.1c-71.2,29.4-139.7,64.8-209.9,96.2
				c-35.5,15.9-72.3,29.1-107.6,45.4c-34.3,15.9-70.1,28.5-103.2,46.6c-27.6,15.1-56.3,27.8-83.6,43.3c-1.4,0.8-2.8,2.3-4.7,1.1
				c-1.7-2.5,0.7-2.9,2-3.7c12-7.7,25.2-13.3,37.7-20.1c79.8-43.3,164.1-76.8,247.2-113c60.2-26.2,118.9-55.7,178.5-83.2
				c23.5-10.8,47.6-20.3,71.3-30.4c6.7-2.8,13.1-6.1,18.8-10.8C596.4,1552.4,597.3,1553.6,597.9,1555.3z"/>
			<path class="st10" d="M321.2,1369.4c-8.3,2.8-14.5,5.1-20.7,6.9c-2.7,0.8-7.4,1.3-7.6-1.8c-0.3-5.2,4.2-1.2,6.4-1.9
				c9.1-3.1,18.2-6,27-9.8c7.8-3.4,10.5-0.9,10.4,7c-0.1,8.7,0.2,17.5,0.3,26.2c0,1.8,1.3,4.7-1.8,4.7c-2.3,0.1-3-2.3-3-4.5
				c0-8.7,0-17.5-0.1-26.2c0-1,0.4-2.4-1.8-3.3c-9.9,14.6-20.1,29.2-31.1,43.1c-39.7,50-73.4,104.1-106.9,158.2
				c-41.7,67.3-85.2,133.4-130.1,198.6c-8.3,12.1-15.5,25-23.8,38.4c-3.1-4.8-0.1-7,1.3-9.4c25-43.4,54.9-83.6,81.8-125.8
				c31.6-49.5,63.5-98.9,93.7-149.3c24.5-40.7,52.6-78.9,81.5-116.5C305,1393.4,313.2,1382.8,321.2,1369.4z"/>
			<path class="st11" d="M431.2,1812.3c-3.1-7.9-10.1-12.4-9.5-21.8c8.1,7.7,12.6,16.8,19.9,23.7c2.2,2.1-1.3,7.7-5,9.8
				c-5.1,2.8-10.4,5.1-15.7,7.6c-1.4,0.6-3,2.8-4.3,0.3c-0.9-1.8,0.4-3.5,1.9-4.4c5-2.7,10.2-5.2,15.1-9.1c-3-0.1-5.9-0.4-8.9-0.4
				c-108.7,0-217.5,0-326.2,0.2c-11.5,0-23.2-2.3-34.7,0.7c-2,0.5-3.7-0.7-4-2.4c-0.3-2.1,1.8-2.8,3.5-3.1c2.3-0.3,4.6-0.6,6.9-0.5
				c74.6,2.5,149.2-1.7,223.8-0.6C339.5,1812.9,384.9,1812.3,431.2,1812.3z"/>
			<path class="st12" d="M1026.3,1437.2c2.1-8.1,2.2-14.8,2.8-21.5c0.3-3.3,0.4-7.5,4.7-8.5c3.7-0.8,5.7,2.2,7.7,4.7
				c5.1,6.4,10.1,12.8,15.2,19.1c1.2,1.5,2.3,3.9,4.6,3.5c2.5-0.5,2.1-3.1,2.5-5c1.8-9.7,3.4-19.4,5.5-29.1c0.8-3.6,2-7.5,6.9-7.9
				c2.9-0.2,5.2,0.8,6.4,3.5c0.4,1,0.7,2.5,0.2,3.3c-1.2,1.8-1.6-0.5-2.4-0.8c-4.6-1.9-3.2,2.6-3.5,3.9c-2.3,10.2-3.7,20.6-6.4,30.7
				c-3.1,11.6-9.3,12.9-18,4.3c-3.1-3.1-5.7-6.6-8.4-10c-2.5-3.1-4.9-6.4-7.9-10.4c-2.6,6.5-1.6,12.6-2.5,18.4
				c-0.5,3.5-0.3,8.1-4.8,9.5c-4.7,1.4-7.8-1.8-10.2-5.1c-9.1-12.3-14.5-26.3-18.1-41.1c-0.7-2.9-2-7.5,2-8.2c4.1-0.7,3.1,3.8,4,6.8
				C1010.9,1411.2,1017,1424.2,1026.3,1437.2z"/>
			<path class="st12" d="M1045.8,1541.4c7.7-13.6,9.4-28.5,10.8-43.5c0.1-1.2,0.1-2.3,0.2-3.5c0.2-2.8-0.4-6.9,3.4-6.7
				c3.3,0.2,3.3,4.3,3.4,7.1c0.6,10.2,0,20.3-2.8,30.2c-1.9,6.7-4.4,13.1-7.3,19.5c-1.6,3.4-2.5,7.2-7.3,7.6c-5.2,0.4-7-3.5-9-7
				c-6-10.6-11.8-21.2-17.4-32c-2-3.9-6.4-6.4-6.3-11.6c0-2.5-2-5.6,1.4-6.7c3-1,4.5,2,5.8,4.2c6.8,11.8,13.5,23.7,20.2,35.5
				C1042.3,1536.7,1042.9,1539.7,1045.8,1541.4z"/>
			<path class="st13" d="M44.9,1173.8c-4-8.6-5-8.9-10-1.3c-7.9,11.8-15.4,23.9-23.1,35.9c-0.5,0.7-0.9,1.5-1.5,2.2
				c-2.2,2.9-4.6,7.9-8.6,4.8c-4-3.1,0.1-9.6,1.9-10.5c8.5-4,10.5-12.5,15.3-19c5.1-7,9.5-14.6,14.8-21.5c4.2-5.5,9.7-5.9,13.9-0.3
				c11.6,15.2,22.7,30.8,32.4,47.3c0.4,0.6,0,1.6,0,3.5c-6.6-1.7-10.5-6.3-14-10.9c-7.4-9.9-14.3-20.2-21.4-30.4
				C44.6,1173.5,44.9,1173.8,44.9,1173.8z"/>
			<path class="st12" d="M1140.9,1418.7c5-4.7,10-3.6,14.8,0.2c0.7,0.6,1.2,2.1,0.9,3c-0.4,1.5-1.8,1-2.8,0.6
				c-3.2-1.3-6-1.9-8.5,1.4c-3.3,4.3-4,13.4-0.5,15c6.2,2.8,9.8-1.1,12.6-5.9c2.9-5.1,4.7-10.2,3.1-16.5c-1.5-5.8-1.9-12.1-0.6-18.2
				c0.5-2.2,1.6-3.9,4.1-3.6c1.8,0.2,3.3,1.6,3.2,3.5c-0.1,16.8,7.8,31.9,10.6,49.8c-6.6-4.3-7.8-11-12.6-15.6
				c-1.4,2.4-2.6,4.9-4.2,7.1c-4.9,7-12.1,9.4-18.9,6.4c-6.3-2.8-8.6-9.2-6.1-18c0.7-2.5,2-4.8,3-7.2
				C1139.2,1419.6,1139.8,1419,1140.9,1418.7z"/>
			<path class="st13" d="M945.2,1834.1c0.2,4.1-2.1,7.1-4.6,10c-8.8,10-20.9,15.5-31.1,23.5c-1.7,1.3-3.8,1.7-5.5-0.2
				c-1.9-2.1-0.4-3.9,0.8-5.4c3.4-4,8.2-6.4,12.6-9.2c6.1-4,12.2-7.8,17.3-13c4.3-4.5,4.7-7.9-1.2-11.7
				c-9.3-5.9-18.2-12.4-27.1-18.8c-2.3-1.7-4.5-3.7-6.5-5.8c-1.1-1.1-0.8-2.7,0.3-3.9c1.2-1.3,2.5-1.3,3.8-0.3
				c12.8,9,25.6,18,38.3,27C945.1,1828.1,945.2,1831.2,945.2,1834.1z"/>
			<path class="st14" d="M293.3,1548.8c-4.5,5.2-5,10.3-6.4,14.9c-0.7,2.4-1.7,4.7-4.3,4.7c-3.1,0-4.4-2.4-4.9-5.1
				c-0.7-3.9-1.4-7.9-2.2-12.5c-6.9,8.4-4,18.3-6,27.1c-0.5,2.3,1.1,6.4-2.4,6.5c-4.2,0.1-3.3-4.1-3.1-6.7c0.5-9,0.5-18.1,5.2-26.2
				c1.9-3.2,3-7.8,7.6-7.3c5.1,0.5,4.3,5.3,5,8.9c0.3,1.4,0.8,2.7,1.5,5.1c2.6-5.4,4.7-9.9,7-14.3c1.1-2,2.4-4.3,5.3-3.5
				c2.7,0.7,3.1,3,3.5,5.4c1.4,9.5,1.4,19.1,1.3,28.7c0,2.9-1,5.8-4,5.6c-2.5-0.1-3-3-3-5.5C293.4,1566.5,293.3,1558.4,293.3,1548.8
				z"/>
			<path class="st15" d="M503.9,1781.8c-3.4,6.3-3.9,14.4-13.2,11.9c-6.4-1.7-17.1-15.4-16.4-21.1c0.2-1.3,1-3,2.1-3.5
				c2.3-1,2.6,1.3,3.4,2.8c1.4,2.5,2.6,5.2,4.3,7.5c7.6,10.2,9.6,10,14.4-1.3c2.4-5.7,5.5-5.4,9-1.4c4.7,5.2,9.8,8.9,17.3,8.3
				c5.5-0.4,8.2-3.8,10.3-8.1c0.4-0.9,0.5-2.5,0-3.3c-0.8-1.2-6.4,2.2-3.1-3.1c1.7-2.6,4.2-4.2,7.4-3.1c3,1,3.4,3.7,3.5,6.4
				c0.2,8.3-7.7,16.9-16,17.8C517.7,1792.6,510.4,1789.3,503.9,1781.8z"/>
			<path class="st16" d="M356.2,1281.7c4-5.9,7.9-11.8,11.9-17.7c1.5-2.2,3.1-4.3,5.6-5.4c2-0.9,4.2-1,5.2,1.4
				c0.7,1.8,1.4,4.4-1.5,4.9c-3.1,0.5-4,3-5.7,4.9c-5.6,6.1-7,12-0.3,18.4c3.8,3.6,4,9.5,8.7,13.5c-6.3-0.7-6.3-0.7-17.8-15.7
				c-3.3,3-5.1,6.8-6.3,11c-0.5,1.7-1.7,3.1-3.9,2.8c-2.3-0.3-2.3-2.1-2.6-3.9c-1.2-10.1-2.2-20.2-1.2-30.4c0.2-2.2-0.2-5.3,2.9-5.4
				c3.1-0.1,3.2,3,3.3,5.2c0.2,5.4,0.1,10.8,0.1,16.1C355.2,1281.6,355.7,1281.7,356.2,1281.7z"/>
			<path class="st17" d="M1120.7,1526.8c-6.1-3.1-11.1-6.9-14.8-0.1c-2.7,5.1-3.9,10.6,1.1,15.1c5,4.4,11.2,3.4,18.7-3.3
				c-1.4,7.3-2.9,13.1-11.3,13.4c-9.8,0.3-17.8-5.2-18.9-13.2c-1.1-8.5,5-20.3,11.9-21.2C1112.9,1516.8,1118.5,1517.9,1120.7,1526.8
				z"/>
			<path class="st18" d="M775,1507.9c-0.6-0.6-1.2-1.1-1.9-1.7c1.1-1.3,3.3-2.6,3.2-3.8c-0.4-10.9,6.9-14,15.5-15.1
				c7-0.9,14.7,5.7,17.5,14.5c1.1,3.4,3.4,8.9,0.1,10.3c-4,1.7-5.6-3.8-7.2-7c-2-4-4-7.8-8.3-9.8c-6.6-3.1-12-0.2-11.7,6.7
				C782.7,1508.5,779.6,1508.7,775,1507.9z"/>
			<path class="st19" d="M612.4,1779.7c-0.2,2.2,0.6,5.3-2.4,5.7c-2.4,0.3-2.6-2.4-3.5-4.3c-4.2-8.9-6.1-9.1-12.3-1.8
				c-3.5,4.1-5.9,0.9-8.5-1.4c-5.4-4.7-8.2-3.8-10.1,3.1c-0.6,2.3-0.5,5.2-3.9,3.8c-2.6-1-4-3.2-2.9-6.4c2.6-7.3,11.1-11.3,17.5-7.1
				c3.4,2.2,4.8,2.2,7.6-0.6c3.3-3.3,8.1-3.7,12.2-1.7C610.2,1771,612.6,1774.8,612.4,1779.7z"/>
			<path class="st14" d="M251.5,1622.4c0.5-8.5,4.6-13.1,10.9-12.3c5,0.6,9,2.3,8.5,8.6c-0.6,7.4-6.3,14.3-11.9,13.6
				C252.8,1631.5,250.8,1627.6,251.5,1622.4z"/>
			<path class="st20" d="M597.9,1555.3c-1.2-0.6-2.4-1.2-3.6-1.9c-5.4-2.4-10.6-5-16.9-2.9c-3.1,1-6.1-1.9-6.1-4.6
				c0-3.6,3.6-2.7,6.1-2.2c5.4,1,10.8,2,16.1,3.5c13.6,3.7,15.3,6.2,13.2,20.3c-0.8,5.3-2,10.6-3.2,16.5c-5-3.1-3.8-7.3-3-11
				c1-4.9,1.3-9.8,1.1-14.7C601.6,1556,601.7,1553.1,597.9,1555.3z"/>
			<path class="st21" d="M1140.9,1418.7c-0.6,0.6-1.3,1.3-1.9,1.9c-3.6-2.6-7.5-2.2-11.6-1.7c-6.9,0.9-8.8,4.5-7,10.7
				c0.3,1.1,1,2.3,0.9,3.3c-0.4,2.6,0.5,6.4-3.5,6.8c-3.1,0.3-4.5-2.3-5-5c-1.3-6.9-2.3-13.9,3.7-19.2
				C1122.7,1410.2,1130.1,1411.4,1140.9,1418.7z"/>
			<path class="st22" d="M618.1,1547.6c-4.3-0.4-8.3-1.2-8.2-7.3c0.1-7,4.8-11.3,13.2-11.6c4.5-0.2,7,1.5,6.9,6.5
				C629.8,1542.2,625,1547.6,618.1,1547.6z"/>
			<path class="st23" d="M351.3,1345.8c-0.1,6.9-7.1,13.8-12.5,13.5c-3.5-0.2-6.3-1.4-6.4-5.5c-0.1-4.5,7.6-13.7,11.6-13.6
				C348.2,1340.5,351.2,1342.3,351.3,1345.8z"/>
			<path class="st24" d="M422.4,1298.2c-2.4-3.7-2-8-3.5-11.7c-1-2.5-0.4-7.3-5.2-6.3c-3.8,0.8-6.8,2.9-7.1,7.6
				c-0.2,2.7,2.7,7.6-2.3,7.4c-3.7-0.2-3.3-5.5-3.6-8.8c-0.3-3.6,10.4-12.4,15-12.4c6.3,0.1,8.1,5.2,8.9,10
				C425.6,1288.6,425.9,1293.7,422.4,1298.2z"/>
			<path class="st25" d="M458.6,1813.3c-1.5,3.6,1.3,11.1-6,11.5c-7.2,0.3-7.1-6.2-6.9-11.5c0.2-4.5-0.1-10,6.6-10
				C458.3,1803.4,458.9,1807.8,458.6,1813.3z"/>
			<path class="st26" d="M396.8,1290.6c-0.4,2.6-0.5,6.6-2.9,5.4c-5.1-2.7-3.9-8.9-5.3-13.7c-0.6-2.2,0.7-5.8,3.2-4.7
				C397.6,1280,394,1286.9,396.8,1290.6z"/>
			<path class="st27" d="M237.6,1642c-4.4-1.3-8.8-2.7-13.2-4.1c-1.5-0.5-3-0.8-3.8,0.8c-0.8,1.6,0.6,2.5,1.8,3.5
				c3,2.5,7.8,1.9,10.1,5.8h0c-1.2,0.7-2.7,1.2-3.7,2.2c-18.6,19.9-40.2,36.3-61.5,52.9c-37.1,29-72,60.6-110.5,87.9
				c-1.6,1.1-5.1,3.6-3.7,5.9c1.9,3.3,4.5,0.4,6.5-1.1c1.9-1.4,3.7-2.8,5.5-4.3c56.2-47.5,116.5-90.1,170.8-139.9c0,0,0,0,0,0
				c0,0,0,0,0,0c0.6,0.7,1.3,1.4,1.9,2.1c0,0,0,0,0,0c-1.9,3.2-3.7,6.5-5.7,9.6c-2.1,3.4-4.7,6.6-5.4,10.7c-0.3,1.7-0.2,3.6,2.1,4
				c2.1,0.4,5.2-0.1,5.1-2c-0.8-8.9,6.8-13.5,9.6-20.5C246.6,1647.9,245.2,1644.2,237.6,1642z"/>
			<path class="st28" d="M389.7,1263.6c0.3-0.3,0.8-0.9,1.3-1.4c0.7,0.8,1.8,1.5,2.1,2.4c0.3,1.1-0.3,2.3-1.8,2
				C389.9,1266.3,389.7,1265.2,389.7,1263.6z"/>
			<g>
				<path d="M1232.6,1535.9c-6.2-7.4-16.2-9.9-22.8-17.2c-2.4-2.7-7.8,1.2-10.7,0.1c-12.5-4.8-18.3,1.4-22,12.2
					c-2.8-2.2-4-5.8-7.9-5c-0.7-5.5-4.5-6.9-9.1-5.5c-7.4,2.2-15.7,1.9-21.5,7.8c-2.3-5.3-4.8-10.2-4.6-15.7
					c0.1-1.9-0.9-3.6-2.8-3.8c-1.5-0.2-2.8,1.2-2.8,2.8c-0.3,9.2,0.6,18.8-11.2,22.7c2.7,2.4,4,1.8,5.2,0.9
					c6.1-4.4,9.4-2.4,11.9,4.3c1.6,4.3,3.1,9.6,9.1,10.8c-1.7-18.7-1.7-18.7,5.4-19.5c-2.3,8.2-1.3,15.3,7.3,18.9
					c8.4,3.6,14.1,0.8,20.9-9.5c0.8,1.9,1.6,3.7,2.3,5.6c0.8,2.3,1.6,4.9,4.6,4.1c2.9-0.7,2.9-3.6,2.2-5.8c-1.2-3.8-0.6-7.5,0-11.2
					c1.4-8.5,9-11.5,15.8-6.3c4,3.1,8.9,4.1,13.3,6.2c3.3,1.6,7.8,1.8,9.6,6.3c-5.6,1-10.8,2-16.7,3.1c8.2,5,16.7,5.5,22.7,1.9
					C1234.1,1541.9,1234.9,1538.7,1232.6,1535.9z M1169.8,1536.2c-1.2,3.2-1.1,7.2-6.2,6.9c-3.3-0.2-6.9-0.7-7.4-4.5
					c-0.6-4-0.3-8.5,4.4-10.3c2.7-1.1,5.6-1.4,8.4-1.9c0-0.1,0-0.2,0.1-0.3c0,0,0.2,0.2,0.2,0.2c-0.1,0-0.2,0-0.3,0.1
					C1168.3,1529.6,1171.2,1532.7,1169.8,1536.2z"/>
			</g>
			<path class="st29" d="M773.1,1506.3c-3.6-0.6-7.4-0.6-10.9-2.6c1.2-1.9,2.6-3.5,3.3-5.3c1.3-3.5,1.8-7.3-2.6-8.8
				c-4.2-1.5-8.9-2-11.1,3.4c-0.9,2.4-1.5,5.1-1.3,7.6c0.5,5.6-2.7,6.3-7,6c-3.9-0.3-8.9,0.8-8.8-5.5c0-3-1.5-6.6,2.1-8.7
				c0.8-0.5,2.8-0.3,3.2,0.3c2.6,3.7-2.5,5-2.7,8.3c5.5,0.2,7.9-2.6,8.4-7.7c0.3-3.5-1.2-5.6-4.6-6.2c-4.7-0.8-8.9-0.1-10.6,5.1
				c-1.1,3.3-1.6,6.7-2.5,10.9c-3-4-3.2-7.4-3.5-10.9c-0.2-2.7,1.3-7.1-2.4-7.5c-4.6-0.5-2.8,4.8-4.2,7.3c-1,2-0.9,4.6-1.7,6.7
				c-1.1,2.7-0.7,7.6-4.9,6.9c-3.2-0.5-2.5-4.7-2.6-7.6c0-2.3,0.1-4.7,0-7c-0.1-1.4-0.1-3.1-1.9-3.4c-1.8-0.3-2.7,1.1-2.9,2.5
				c-0.8,5.4-1.8,11.1,0.2,16.3c2.4,6.2,9.6,7.6,12.8,2c2.4-4.2,4.2-2.1,7.2-1.9c6.9,0.4,11.1,8.5,18.3,6.4
				c9.5-2.7,19.3-1.4,28.8-3.2c1.3-0.2,2.5-1.2,3.8-1.9C775.2,1506.4,775,1505.4,773.1,1506.3z M758.7,1499.1
				c-1.5-0.2-1.3-1.5-1.3-2.4c-0.1-1.1,0.2-2.3,1.6-2.5c1.2-0.2,2.2,0.2,2.1,1.7C760.9,1497.4,760.2,1498.5,758.7,1499.1z"/>
			<path class="st30" d="M691.7,1481.6c-6.6-4.6-11.6-2.5-13.1,5.4c-1.4,7.3-1,14.4,4.3,20.6c-12.1,1.2-18.3-2.4-20.1-11
				c-2.5-11.9,2.4-23.7,11.3-26.7c3.1-1,7.3-2.5,9.5,0.9c0.9,1.4-0.1,4.1,3,3.4c0.9-0.2,1.6-1.6,2.1-2.7c1.1-2.3-0.1-4-1.9-5.1
				c-5.1-3.1-10.4-3.3-15.8-0.8c-11.6,5.4-15.1,15.3-14.9,27.3c0.1,11.3,7.9,20.1,18.5,22c6.8,1.2,12.1-3.7,18.6-3.2
				c-0.9-4.5,2.6-7.6,3.7-11.5C698.8,1492.9,698.5,1486.4,691.7,1481.6z M688.5,1504.2c-5.7-5.1-4.9-11.1-4.7-16.8
				c0.2-5.3,3.2-4,5.6-1.7C695.5,1491.8,692.4,1497.7,688.5,1504.2z"/>
			<path class="st19" d="M677.6,1777.5c-4.5-15-14.4-15.3-28-6.7c-3.2,2-4.1,4.7-9.4,1.8c-3.7-2-9.6-3.5-14.8-4.2
				c-5.9-0.4-7.3,4-8.6,8.2c-1.2,3.9-2.6,8.2,1.5,11.2c4.1,3,8.3,1.8,11.9-1.4c1.5-1.3,3.1-2.8,4.1-4.4c1.8-2.9,3-4.2,6.2-1
				c2.7,2.7,5.9,2.8,9-0.6c9.4-10.4,12.9-10.2,21.8,0.8c1.5,1.8,2.9,4.3,5.6,2.7C679.4,1782.2,678.3,1779.8,677.6,1777.5z
				 M631.5,1776.3c-1.1,3-3.7,5-6.8,6.1c-2.8-0.4-2-2.5-1.9-4c0.1-3.3,1.6-5.6,5.4-4.8C629.7,1774,632.4,1773.9,631.5,1776.3z"/>
			<path class="st16" d="M461.4,1315.3c-2.2-11.4-7.7-21.8-8.7-33.6c-0.4-5.2-5.7-9.3-12.3-7.7c-5.2,1.3-9.7,9.9-8.4,15.8
				c1.5,6.6,7,6.1,11.1,4.6c4.6-1.7,5.5,0,6.5,3.5c0.9,3.3,2.3,6.6,3.3,9.9c1.2,4.1,4.1,9,0.9,12.4c-3.7,3.9-9.6,3.5-14.8,2.1
				c-1-0.3-1.8-1.5-4.1,0.2c3.5,9.5,10.6,7,17.3,5.7C459,1326.8,462.9,1323.1,461.4,1315.3z M439.3,1289.7c-2.8-0.8-2.3-3.1-1.7-4.9
				c0.7-2.4,1.5-5,4.6-5.5c0.2,2.9,2.7,4.6,3.8,6.8C444.1,1288.9,442.2,1290.5,439.3,1289.7z"/>
			<path d="M1081.3,1543.9c2.8-4,7.3-6.2,9.2-10.7c2.5-6.1,3-11.8-2.7-16.5c-4.5-3.7-9.4-4.8-14.4-1.2c-6.4,4.6-8.8,20.4-4.3,27.3
				c5.7,8.8,15.6,11.1,25.1,5.8C1090.4,1546.1,1085.4,1547.4,1081.3,1543.9z M1077.6,1538.9c-5.5-0.3-2.6-5.2-3.6-7.9
				c0.2-2.1,0.1-4.2,0.7-6.1c0.7-2.4,1.6-5,5-4.9c3.4,0.1,5.3,2.3,6.4,5C1087.3,1528,1080.8,1539.1,1077.6,1538.9z"/>
			<path class="st14" d="M347.2,1555.9c-6.8-0.9-12.5,2.4-16.2,8.5c-0.7,1.2-1.3,3.2-3,2.2c-1.8-1-2.6-3-2.8-5.2
				c-0.5-5.2-4.2-7.5-8.7-8.1c-4.7-0.6-5.9,3.9-7.9,7c-1.6,2.6-1.5,5.6-1.5,8.5c0,3.1-0.5,6.5,3.5,8c4.1,1.5,6.9-0.3,8.5-3.7
				c1.6-3.4,2.7-3.8,6.2-1.7c4.6,2.7,12.4-1.3,14.3-6.4c0.7-1.9,1.1-4.1,3.5-4.6c2.9-0.5,3.9,1.9,5.2,3.8c2.3,3.5,3,8.1,7.5,11.5
				C356.3,1565.5,352.8,1556.6,347.2,1555.9z M319.7,1562.5c-1.1,3.7-1.9,8.4-6.1,9.6c-2.5,0.7-1.7-2.8-2.1-4.7
				c0.8-3.7,1-8.3,5.3-9.7C319,1557,320.3,1560.3,319.7,1562.5z"/>
			<path class="st31" d="M1090.7,1413.6c-5.3-0.4-9.1,5.9-9.2,15.4c-0.1,8.9,6.3,15.9,14.8,16c7,0.1,9.9-3.9,10-14.1
				C1106.3,1423,1098.3,1414.1,1090.7,1413.6z M1096.1,1437.8c-6.1-0.3-7.6-5.3-7.1-10.7c0.2-2.6,0.1-7.7,3-6.6
				c3.4,1.3,10.6,2.1,7.1,11.5C1098.6,1432.6,1101.3,1438.1,1096.1,1437.8z"/>
			<path class="st15" d="M559.5,1769.6c-6.8-0.5-13.5,6.9-13.8,15c-0.2,6.4,3.3,8.9,9.1,9c6.1,0.1,10.1-5.2,10.2-13.5
				C565.1,1773.9,563,1769.8,559.5,1769.6z M558.8,1779.1c-0.9,2.6,0.3,7.1-4.3,7.8c-2.5,0.4-3.1-2.2-2.9-4.3c0.2-3.3,1-6.4,4.8-7.2
				C558.6,1775,559.3,1776.6,558.8,1779.1z"/>
		</g>
	</g>
	<g id="NYeUZ6_1_">
		<g>
			<path class="st32" d="M13.3,2684.9c1.5-2.6,4-2.3,6.4-2.5c27-1.9,54-1.9,81-2.5c166.9-3.6,333.8-4.8,500.7-5.6
				c51.6-0.2,103.3-2.1,154.9,1.1c35.4,2.2,70.7,3.6,106.2,3.2c33.9-0.3,67.8-2,101.6-5.3c2.5-0.2,5,0.4,7.4-2
				c2.9-3,6.3-1.9,7.7,1.9c1.4,3.9-1.7,5.4-4.8,5.9c-5.9,1.1-11.8,2.4-17.7,2.7c-63.3,3.8-126.5,5.7-189.8,1
				c-59.9-4.4-120-2.7-180.1-1.6c-17.1,0.3-34.2,0.6-51.3,0.7c-98.8,0.3-197.6-0.4-296.3,1.2c-63.9,1.1-127.9,1.2-191.8,2.8
				c-8.4,0.2-16.7,1.2-25.1,1.5C19.1,2687.6,15.5,2688.2,13.3,2684.9z"/>
			<path class="st7" d="M36.2,2030.3c3.7,3,2.9,6.9,2.9,10.3c-0.4,38.4,2.3,76.8-1.4,115.1c-3.4,35.5-8.3,70.8-11.7,106.3
				c-3.9,41.8-8.1,83.5-11.9,125.3c-4.8,52.2-1.4,104.4-3.7,156.5c-1.8,40.8-0.6,81.6-1.8,122.4c-0.1,4.4,2,11.8-4,11.9
				c-6.2,0.1-4.2-7.4-4.2-11.7c-0.4-68.4,3.8-136.8,3-205.2c-0.6-50.8,5.6-101.1,10.4-151.5c3.9-41.2,7.6-82.4,13.6-123.3
				c7.1-48.4,3.6-97,6.6-145.5c0.2-3,0.3-6,0.6-8.9C34.5,2031.6,35.2,2031.3,36.2,2030.3z"/>
			<path class="st33" d="M1042.6,2236.7c5.7-19.1,10.5-36.7,18.8-53c4.9-9.5,8.1-10.8,17.8-7c-5.3,1.3-7.2,4.8-9,8.7
				c-7.4,15.7-12.9,32-18.2,48.5c-3.9,12.4-10.7,14.1-19,4.1c-13.8-16.4-20.5-36.2-24-57.1c-0.4-2.6-1.3-7,3-7.2
				c4.2-0.2,2.8,4.1,3.5,6.8C1020.8,2200.3,1028.4,2218.9,1042.6,2236.7z"/>
			<path class="st34" d="M406.2,2169.1c1.9,8.1,5.3,10.7,11.5,8.8c6.3-1.9,8.2-6,7.5-12.3c-1.3-11.5-6.5-21.6-10.9-32.9
				c-2.4,3.1-3.9,5.5-6,7.4c-5.5,5-15.4,3.1-17-3.8c-2.2-9.9-1.1-19.7,5.4-28.2c2.4-3.1,5.7-3.5,8.9-2.1c4,1.7,2,5.2,1.3,7.8
				c-0.6,2.5-2,4.9-4.2,0.5c-0.7-1.4-1.6-1.1-2.6,1c-2.5,5-2.5,10.4-2.4,15.8c0,2.1,0.5,4.3,3,5c2.7,0.7,4.5-0.6,6-2.8
				c2.6-3.6,2.4-8,3.3-12c0.4-1.8,0.6-3.8,2.8-4c1.6-0.2,2.9,0.9,3.4,2.4c5.8,15.6,14.9,29.9,16.7,47.1
				c1.4,13.3-11.2,21.2-23.5,17.8C403.3,2183,402.8,2177.3,406.2,2169.1z"/>
			<path class="st33" d="M1046.4,2346.7c0.6,3.1-1,5.1-3.3,6.7c-10.1,6.6-21.2,7.1-31.7,2.4c-9.6-4.3-13.8-13-14-24.1
				c-0.3-23.1,19.1-38.3,34.5-43.1c4.2-1.3,8.3-0.6,12.3,0.7c2.4,0.8,4.6,1.9,4.2,4.9c-0.3,2.7-1.4,5.2-3.5,7
				c-1.7,1.4-3.4-0.1-3-1.3c3-8.3-4-4.8-6.2-4.7c-17.1,1.3-33.1,24.8-28.4,41.3c2.7,9.8,18,16.6,31,13.7c2.9-0.6,5.5-2.1,8.3-3.2
				L1046.4,2346.7z"/>
			<path class="st35" d="M67.9,2053.9c-19.4-4.4-20.9-24-31.4-37.1c-6.4,11.5-12.3,22.5-18.6,33.3c-2.7,4.6-6.2,8.8-9.5,13
				c-1.4,1.8-3.9,2.3-5.7,1c-2.1-1.5-1.5-3.9,0.1-5.5c13.3-12.2,19.2-29,28-44.1c3.6-6.1,8.6-6.1,12.9-0.3c3.7,5,6.7,10.6,9.6,16.1
				C57.7,2038.5,62.8,2046.1,67.9,2053.9z"/>
			<path class="st36" d="M290.3,2323.8c-7-13-2.3-25.8-6.6-37.2c-4.9,3.4-2,12.4-8.3,13.6c-7.2,1.4-6.1-7.6-10.7-10.9
				c-3.7,3.2-3.8,7.6-3.8,12c0,7.2,0.1,14.4,0,21.6c0,2-0.5,4.4-3.4,4.5c-2.3,0-3.1-2-3.1-3.7c-0.5-11.1-0.9-22.2,1-33.2
				c0.8-4.5,5.8-5.4,9.5-6.7c3.6-1.2,5.3,1.8,6.7,4.5c1,1.8,1.8,3.8,2.8,5.8c3.5-2.9,3.1-7.7,5.6-10.9c1.6-2,3.1-3.7,5.9-3.2
				c2.5,0.4,3.4,2.4,3.8,4.5C292.2,2296.9,296.2,2309.2,290.3,2323.8z"/>
			<path class="st13" d="M1149.6,2349.4c-1.2-5.8,2-8.8,3-12.3c0.8-2.7,2.2-6.4-1.6-7.6c-3.2-1-5.7,1.5-6.8,4.5
				c-2.3,5.8-1.6,11.8-0.6,17.7c1.2,7.3,2.9,14.6,4.2,21.9c0.5,2.5-0.3,5-2.9,5.8c-2.9,0.8-4.9-1.7-5.3-3.7
				c-2.6-13.9-7.9-27.7-2.6-42.1c0.3-0.8,0.4-1.8,0.7-2.6c2.9-6.2,7.6-9.9,14.5-10.4c4.1-0.3,7.1,1.8,8.1,5.7
				c1.6,6.2,1.7,12.5-3.9,17.2C1154.3,2345.1,1152.4,2346.8,1149.6,2349.4z"/>
			<path class="st37" d="M366.6,2452.2c-0.4,0.4-0.6,0.5-0.7,0.7c-2.4,4.4-0.6,11.9-7.9,12.6c-7.8,0.8-11.4-5.3-15.1-10.8
				c-0.5-0.7-1-1.5-1.3-2.3c-1.9-4.8-7.8-11.9-3.3-14.2c5.4-2.7,4.3,7,7.7,10.2c1.5,1.4,2.3,3.5,3.5,5.2c2.2,2.9,4.4,6.8,8.3,6
				c3.2-0.7,2.4-5,3-7.8c0.6-2.6,0.7-5.7,3.9-6.5c3-0.8,4.9,1.4,6.8,3.5c2.2,2.5,4.4,4.9,6.6,7.4c3.7,4,8.7,7.4,13.3,4
				c4.6-3.3,4-9.6,2.2-14.9c-0.5-1.4-3.5-2.2-1-4c1.6-1.1,3.6-0.5,4.8,1.1c4.8,6.2,3.7,13,1.2,19.5c-2.4,6.2-7.8,6.8-13.5,5.4
				C376.4,2465.3,372,2458.1,366.6,2452.2z"/>
			<path class="st38" d="M311.6,2107.6c3.7-3,7.4-6,11.2-8.9c1.3-1,3.3-2.1,4.7-0.1c1,1.4,0,2.7-0.9,4c-3.7,5.5-12.4,9-8.1,18
				c2.9,6.1,4,13,9.2,18.2c-7.9,0.1-7.9,0.1-15.1-14.2c-3.1,2.4-3.4,6.1-4.2,9.5c-0.5,2.1-0.5,4.4-3.4,4.1c-2.4-0.2-2.4-2.3-2.4-4.1
				c0-13.2,0.1-26.3,0.2-39.5c0-2.1,0.2-4.7,3-4.5c3,0.2,2.2,3,2.3,5c0.2,3.6,0.2,7.2,0.3,10.8
				C310,2105.3,307.3,2112.8,311.6,2107.6z"/>
			<path class="st31" d="M1259.8,2326c13.1-8.2,24.1-2.6,24.9,11.7c0.1,2.3,0.6,5.1-2.4,6.1c-2.7,0.8-4.5-0.8-5.7-3.1
				c-1-1.8-1.8-3.8-3-5.5c-1.6-2.1-1.6-6.8-5.8-5.3c-3.3,1.2-6.3,3.5-6.5,7.7c-0.1,1.8,0,3.6-0.3,5.4c-0.4,1.7-1.1,3.7-3.2,3.8
				c-2.2,0.2-3.1-1.9-3.4-3.5c-2.3-13.5-4.5-27.1-6.7-40.6c-0.2-1.4,0.2-2.5,1.6-2.7c1.9-0.3,2.4,1.2,2.9,2.6
				C1254.6,2310.3,1257.1,2317.9,1259.8,2326z"/>
			<path class="st39" d="M978.6,2718.6c-2-8.3,0.7-13,4.5-17.2c19.4-21.4,11.2-32-6.8-43.7c-3.5-2.3-6.9-4.6-10.3-7.1
				c-1.7-1.3-3.1-3.3-1.4-5.3c1.4-1.7,3.2-0.7,4.8,0.3c7.8,4.9,16,9.3,22.6,15.9c10.2,10.3,11.7,22.8,3.6,34.7
				C990.8,2703.3,985.2,2709.9,978.6,2718.6z"/>
			<path class="st40" d="M1103.5,2335.9c0.8-1.5,1.6-3,2.4-4.5c5-8.4,10.8-8.9,16.9-1.5c3.8,4.6,5.4,8.2,8,18.9
				c-7.2-0.2-8.8-6.3-12-10.6c-1.7-2.3-2.4-6.3-5.9-5.9c-2.9,0.3-3.4,3.9-4.5,6.2c-1.5,3.1-1.3,8-5.7,8.1c-4.8,0.1-5.2-5-7.1-8.3
				c-1.3-2.2-1.5-5.9-5-5.3c-4,0.7-1.8,4.3-2.3,6.7c-0.6,2.6,2.1,6.8-2.5,7.2c-4.1,0.3-3.8-4.2-4.2-6.8c-1-5.5-0.7-10.9,5.8-13.4
				c6.4-2.5,10.3,0.6,13.3,5.8C1101.3,2333.9,1101.7,2335.4,1103.5,2335.9z"/>
			<path class="st41" d="M540.5,2401.7c0.9-5.6,1.8-10.1,5-13.9c2.9-3.4,5.7-7,8.8-10.2c13.8-13.9,13.7-14.8-2.6-24.4
				c-5.6-3.3-11.2-6.9-16.7-10.4c-1.4-0.9-2.3-2.4-1.5-3.8c0.8-1.4,2.6-1.3,4-0.4c9.6,5.4,19.6,10.3,28.6,16.6
				c5.8,4,4.8,10.7,0.6,15.9c-5.6,7-11.5,13.7-17.6,20.2C546.4,2394.4,546.8,2400.1,540.5,2401.7z"/>
			<path class="st42" d="M383,2135c-5.3-3-5.3-7.7-6.3-11.8c-0.9-3.6-1.7-7.3-6.8-6.4c-4.4,0.7-7.1,2.9-7.1,7.7c0,0.3,0,0.6,0,0.9
				c-0.9,3.6,2.7,9.7-1.9,10.3c-5.6,0.8-5.1-6.2-6.5-10.1c-2.1-5.6-4.9-11.5-0.8-17.7c4.6,2.2,2.2,6.3,3.9,9.6
				c6.2-4.6,12.6-11.8,20.8-6C386.2,2117.1,384.6,2125.9,383,2135z"/>
			<path class="st43" d="M96.1,2390.8c2.5,10.3-4.3,19.5-3.9,30.7c4.7-2.4,1.8-12.1,8.9-8.1c6.3,3.6,0.8,8.8-0.8,13.8
				c10,1.8,19.4,0.4,30.4-3.3c-4.7,6.6-10.1,7.5-15.5,7.8c-7.4,0.4-14.9-0.1-22.3,0.3c-4.3,0.2-3.8-2.5-4.3-5.1
				C86.2,2413.9,92.4,2402.6,96.1,2390.8z"/>
			<path class="st44" d="M1347,2347.4c-6.5-3.3-7.6-9.3-10-14.2c-1.6-3.3-2.7-6.6-7.4-5.9c-4.2,0.6-5.1,3.4-5.4,7
				c-0.2,2.7-0.7,6.2-4.2,5.6c-4.1-0.7-3.4-4.7-2.7-7.4c1.8-7,5.9-12.3,13.7-13.4c7.2-1,10.9,3.7,13.9,9.1
				C1348.1,2333.9,1349.6,2340.1,1347,2347.4z"/>
			<path class="st29" d="M597.9,2364.1c-4.7-0.2-9.2-0.6-8.8-7.2c0.3-4.8,8.2-15.1,12-14.8c5.6,0.3,8.5,3.4,8.4,9.3
				C609.3,2359.3,605.2,2364.1,597.9,2364.1z"/>
			<path class="st45" d="M1211.7,2337.3c-3.7-2.7-8.2-4.5-11.2-8.4c-2.1-2.7-2.1-6.1,0.4-8c2.9-2.3,5.3,0.4,6.1,3
				c2,6,8,6.5,12.1,9.5c2.7,1.9,6.2,3.5,5.5,7.3c-0.6,3.4-4.6,3.3-7.1,4.6c-0.3,0.1-0.6,0.2-0.9,0.2c-4.8,0.7-11.3,5.1-13.8-0.3
				C1200.9,2340.7,1209.6,2341.1,1211.7,2337.3z"/>
			<path class="st46" d="M1241.6,2202.5c-8.2,1.4-15.9,0.8-22.4,5.3c-7.7,5.3-1.3,13.4-3.4,19.8c-4.1,0-5.8-2.9-8.1-4.5
				c-2.4-1.7-5.3-4,0.2-5.8c0.7-0.2,0.9-2,1.1-3C1212.2,2198.7,1227.2,2192.9,1241.6,2202.5z"/>
			<path class="st47" d="M333.3,2453.8c-3.9,3-7.5,3.8-11,4.1c-7.2,0.5-12.5,2.5-11.5,12.1c-2.3-8.4-6.5-12.9-15.1-11.2
				c-1.5,0.3-3.3-0.7-3.3-2.3c0-2.1,1.9-3,3.7-2.8c6.4,0.4,11.5-0.2,11.3-8.7c-0.1-2.7,2.6-3,4.8-2.2c2.3,0.8,1.9,2.1,1,4.2
				c-2.5,5.8,0.6,6.6,5.6,6C323.3,2452.4,328,2450.6,333.3,2453.8z"/>
			<path class="st38" d="M297.3,2176.6c-0.2,6.6-3.6,11.5-10,11.4c-3.7-0.1-9.7,1.2-11.7-3.6c-1.6-3.6,9.7-15.6,14-15.5
				C294.4,2169,297.4,2171.3,297.3,2176.6z"/>
			<path class="st48" d="M183.3,2409c-7.6,7.4-46.8,13.8-57.5,9.8C145,2415.2,164.3,2412.5,183.3,2409z"/>
			<path class="st44" d="M1191.3,2208.6c-2.7,2.1-0.3,3,0.8,4.7c3,4.7,2.7,9.9-1.4,13.4c-3.6,3-13-1.1-14-5.8
				c-1.3-5.6-1.1-10.9,6.9-11.1c1.7-0.1,3.4-1,5.1-1.5l0,0v0c1.8-8.2-5.1-6.2-7.6-5c-8.5,4-18.4,4.7-26,10.7
				c-0.6,0.9-0.5,1.7,0.3,2.4c4.7-1.4,9.2-3.9,14.4-3.8c-0.8,12.3,3.4,19.3,12.6,21.3c6,1.3,12.1,2.3,15.6-4.7
				C1201.6,2221.6,1198.9,2213.7,1191.3,2208.6z"/>
			<path class="st49" d="M1155,2214c0.1,0.8,0.2,1.6,0.3,2.4c0.9,5.1,1.9,10.3,2.8,15.4c-10.5-10.9-16.2-23.6-15.6-38.7
				c0.1-1.8,0.8-4.3,2.7-3.9c3.3,0.7,4.6,4,4.1,7C1148.2,2203.3,1149.7,2209.2,1155,2214z"/>
			<path class="st50" d="M423.4,2378c-18.3,1.1-34.2,3.6-49.7,8C383,2375.5,409.8,2370.9,423.4,2378z"/>
			<path class="st51" d="M1244.2,2340.4c-0.5,2.2,0.3,5.9-3.1,6.3c-3,0.4-4.1-2.9-5.1-5.3c-2.2-5.1-1.6-11.2-5.5-15.8
				c-1.5-1.8,0.4-3.1,1.9-4.1c2.3-1.5,4.1-0.4,5.4,1.3C1241.7,2327.9,1243.4,2333.9,1244.2,2340.4z"/>
			<path class="st52" d="M272.2,2196.8c-4.6,15.5-17.5,25-27,37C250.2,2218.7,264.2,2209.9,272.2,2196.8z"/>
			<path class="st53" d="M256.9,2403.2c-13.6,1.8-26.9,6.6-41,4c-0.1-0.9-0.2-1.8-0.3-2.7c13.6-1.6,27.2-3.1,40.8-4.7
				C256.6,2401,256.8,2402.1,256.9,2403.2z"/>
			<path class="st54" d="M495,2368c-5,4-11.1,2-16.3,3.4c-5.7,1.5-11.6,2.3-17.4,3.7c-1.7,0.4-3.5,1.9-4.3-0.7c-0.6-2,1.2-3,2.9-3.9
				C467.5,2366.5,485.4,2365.1,495,2368z"/>
			<path class="st55" d="M510.7,2369.4c7.4-8.7,30.8-12.7,38.8-6.8C536.4,2364.9,524.2,2367.1,510.7,2369.4z"/>
			<path class="st54" d="M337,2389.5c-14,4.3-28,8.3-42.8,6.6C308.3,2392.8,322.1,2387.8,337,2389.5z"/>
			<path class="st43" d="M244.6,2308.8c-8,1-15.2,3.1-22.7,2.7c-2-0.1-4.6,0.2-4.6-2.8c0-2,1.9-2.7,3.9-3c5-0.7,10-1.7,15-2.5
				C240,2302.8,243.4,2303.2,244.6,2308.8z"/>
			<path class="st13" d="M1313.4,2324c-5.8-0.5-4.6,4.3-5.2,7.3c-0.9,4-1.6,7.6-7,7c-5.2-0.7-4.5-5-3.3-7.4c1.5-2.9-1.1-11,7.2-7.5
				c3.9,1.6,2.6-3.1,4.5-3.9v0c-2.5-6.5-7.1-6.8-12-3.4c-5.2,3.6-7.3,9.1-7.7,15.5c-0.3,5.2-0.9,10.3,4.6,13.4
				c4.7,2.6,9.6,3.4,14.4,0.6C1315.6,2341.7,1317,2334.7,1313.4,2324z"/>
			<path class="st56" d="M120.5,2390.5c3.8-14.4,15.9-21.8,24.6-32.1C140,2371.5,128.2,2379.4,120.5,2390.5z"/>
			<path class="st57" d="M162.5,2339.5c3.3-14,14.8-22,23.5-32.1C180.8,2319.9,170.2,2328.6,162.5,2339.5z"/>
			<path class="st58" d="M346.3,2127.5c-0.5,2.2,1.3,6.2-1.9,6.6c-4,0.5-3.4-3.8-4-6.5c-0.3-1.4-0.9-2.9-0.8-4.3
				c0.1-3.4-3.8-8.8,1.6-9.6c4.1-0.6,4.2,5.4,4.8,9.1C346.1,2124.3,346.1,2125.8,346.3,2127.5z"/>
			<path class="st59" d="M227.2,2259.4c-5.8,6.7-11.6,13.4-17.3,20.3c-1.1,1.3-1.4,3.9-3.6,2.6c-2.1-1.2-0.8-3.1,0.5-4.5
				c6-6.9,12-13.9,18-20.8C226.9,2256.5,227.7,2257.3,227.2,2259.4z"/>
			<path class="st33" d="M1274.1,2310.3c-2.1-0.9-3.4-1.1-3.5-1.6c-0.9-3.4-5.8-4.8-4.7-9c0.2-0.6,2.5-1.4,3-1
				C1272.4,2301.2,1274.1,2304.7,1274.1,2310.3z"/>
			<path class="st38" d="M341.1,2103.9c-3.8-2.3-7.3-2.5-7.5-6.6c0-0.5,1.3-1.6,1.8-1.5C338.8,2096.6,340.4,2098.9,341.1,2103.9z"/>
			<path class="st33" d="M1223.8,2300.4c1.6,0.7,3,1.8,2.8,3.8c-0.2,1.4-1.6,1.9-2.6,1.7c-1.8-0.4-3.1-1.7-2.8-3.8
				C1221.4,2300.8,1222.4,2300.4,1223.8,2300.4z"/>
			<path class="st60" d="M1143,2227.1c-2.6-1.9-3.5,1.4-4.2,3.5c0,0,0,0,0,0c0,0,0,0,0,0c-7,3.3-13,1.6-17.3-4.4
				c-4.1-5.8-2.9-12.2,0.7-17.6c4.3-6.4,8.6-2,12.7,1c1,0.7,2.2,1.2,3.2,0c1-1.1,0.4-2.4-0.5-3.1c-5.1-3.7-10.5-7.4-17.1-3.9
				c-8.1,4.3-10.9,19.3-5.4,26.9c6.3,8.9,16.3,9.8,25.3,2.3C1142.6,2231,1144.8,2228.5,1143,2227.1z"/>
			<path class="st61" d="M227.2,2259.4c-0.8-0.8-1.5-1.6-2.3-2.4c1.4-1.7,2.6-5.3,5-3.2C231.7,2255.5,228.7,2257.7,227.2,2259.4z"/>
			<path class="st29" d="M766.7,2308.5c-3.3-3.9-7.2-4.8-12.1-3c-6.3,2.4-11.9,7.1-14.8,11.9c-3.6,6-6.7,5.2-11.4,3.8
				c5.8-12.4,4.5-15.9-5.5-16.1c-8.7-0.2-8.4,5.8-8.6,11.6c-0.1,1.6,2.3,3.4,0.1,4.6c-1.1,0.6-3.1,0.4-4.3-0.1
				c-3.2-1.4-0.3-3.5-0.2-5.3c0.2-4,2.3-8.5-2.3-11.4c-2.2-1.4-4.7-1.6-6.7,0c-3.7,3-3.4,7.4-3.3,11.6c0,0.9,0.3,1.8,0.7,2.6
				c2.5,5.3-0.8,5.5-4.5,5.4c-9.1-0.3-10.9-7.1-12.4-14c-0.5-2.2-0.9-4.4-3.6-4.3c-2.6,0.1-3.4,2.4-3.6,4.4
				c-0.4,4.2-0.2,8.4-0.4,12.6c-0.2,2.5-0.1,6.1-3.1,6.6c-3.1,0.5-4.4-2.8-5.2-5.3c-1.6-4.8-2.5-9.9-2.4-15c0-1.8-1.1-3.5-3.4-3.2
				c-2,0.3-1.8,2.2-1.9,3.6c-0.1,5.1-0.2,10.2,1.7,15.1c2,5.1,3.7,10.5,10.7,10.2c7.6-0.4,5.9-6.9,7.1-11.5c0.2-0.7,0.5-1.4,1.2-3.1
				c3.7,8.1,10.4,11.3,17.3,9c7-2.3,13.6-1.8,20.6-2c3.5-0.1,6.7-1,10.3,0.3c6.5,2.4,12.9-1.6,19.4-1.7c2.9-0.1,0.7-6,2.5-8.8
				c2-3.1,4.3-5.7,8.4-6c4.3-0.2,5.2,3.3,7,6c3.2,5.1,3.4,12,9.9,16.5C774.7,2323.4,772.5,2315.5,766.7,2308.5z M704,2317.6
				c-1.4-4.3-2.2-6.9,0.8-10C707.2,2310.9,706.7,2313.4,704,2317.6z M727.8,2312.4c-0.6,2.7-2.2,5.3-5.1,5.4
				c-2.3,0.1-2.1-2.4-2.2-4.1c-0.3-3,1-4.5,3.9-4.2C726.5,2309.5,728.4,2309.9,727.8,2312.4z"/>
			<path class="st25" d="M525.6,2441.2c-6-2.5-21.2,1.7-22.9,7.3c-1.4,4.7-3.6,5.5-7.6,5.2c-4.7-0.3-6.7-2.6-7.1-7.4
				c-0.3-3.8-3.2-6.4-6.9-7.4c-6.4-1.8-10,3.1-15,5.5c-3.5,1.7-9.9-4.1-14.7,1.1c-0.4,0.4-0.8,0.9-1.1,1.4c-1.8,3-2.9,1.8-4.3-0.4
				c-2.2-3.6-5.4-4.8-9.2-2.4c-3.5,2.2-7.5,4.3-6.5,9.6c0.3,1.8-1.4,4.7,1.7,5.2c3,0.5,2.9-2.4,3.3-4.3c0.7-2.6,0.6-6,3.9-6.3
				c3.4-0.3,3.5,3.5,4.9,5.6c0.5,0.7,0.5,1.7,0.9,2.5c0.8,1.7,2,3.2,4.1,2.8c1.6-0.3,2.1-1.9,2.4-3.4c0.6-3.1,0-7.3,4.5-7.7
				c4.6-0.5,5.8,3.6,7,6.9c2.5,6.7,8.4,9.3,13.6,6.7c6.9-3.5,13-3.9,19.6-1.2c5-2.4,12.2,0,13.9-7.1c1.1-4.2,3.1-6.1,7.1-6.8
				c4.3-0.7,6.9,1.5,8.7,4.8c1.8,3.4,3.2,7,4.8,10.6c0.5,1.1,1.1,2.2,2.5,2.2c1.6,0,1.6-1.3,1.9-2.4
				C537.3,2454.8,532.2,2444,525.6,2441.2z M475.7,2456.8c-3.8-0.2-6-1.4-5.3-5c0.8-4.3,2.4-8.1,7.9-8c3.3,0.1,4.7,1.5,4.5,5
				C482.7,2454.2,479.9,2456.3,475.7,2456.8z"/>
			<path class="st30" d="M647.4,2323.6c2.3-4.1,1.8-8.9,0.7-13.2c-1.1-4.4-4.4-7.1-9.2-7.1c-5.1,0-5.9,3.6-6.9,7.7
				c-1.6,6.3,0.9,12,2.3,18c-15,0.7-19.4-4.4-16.8-18.1c1.2-6.5,4.3-11.8,8.7-16.5c7.2-7.7,12.4-7.3,18.6,2c2.5-5.5,0.4-8.9-3-11
				c-4.2-2.6-9.1-2.8-13.6,0.1c-10.7,7-16.4,16.7-17.8,29.6c-1.8,16.5,11.8,23.1,22.1,20.9c5.1-1.1,9.5-0.1,16.1,1.7
				C644,2332.1,645,2328,647.4,2323.6z M640.9,2324c-4.4-3.1-3.1-7.5-3.5-11.4c-0.2-1.9-0.7-4.6,2.4-4.6c2.3,0,3.6,2.1,3.8,4.3
				C644,2316.4,644,2320.5,640.9,2324z"/>
			<path class="st14" d="M350.5,2297.1c-5.5-3.3-21.1,1.2-25.6,7.2c-1.7,2.4-3.1,5.8-6.8,4.2c-3.5-1.5-3.3-4.6-2-7.6
				c0.9-2.3,2.3-4.6-0.4-6.4c-2.5-1.7-5.3-1.1-7.7,0.1c-6.4,3.3-9.1,9.2-10.3,16c-0.6,3.3-0.8,6.7,3.2,8.5c3.5,1.5,7.1,0.8,8.8-2.1
				c2.3-4,5.1-1.9,8-2.5c6.1-1.2,14.6,2.1,17.2-7.8c0.9-3.3,4.3-4.6,8-4.7c4-0.1,6.1,2,7.3,5.4c1.7,4.7,3.5,9.4,5.4,14.6
				C360.3,2312.3,358,2301.6,350.5,2297.1z M305,2314.9c-3.4-6.6-0.2-10.5,4.6-15.7C310.9,2306.1,309.2,2310.5,305,2314.9z"/>
			<g>
				<path class="st62" d="M1046.7,2347c0-0.1,0-0.1,0-0.2c-0.1,0-0.2-0.1-0.3-0.1C1046.4,2346.7,1046.7,2347,1046.7,2347z"/>
				<path class="st62" d="M1075,2332.4c-2.7-10.8-11.2-6.9-17.5-6.7c-7.7,0.2-9.5,6.9-10.5,13.3c-0.4,2.6-0.3,5.2-0.3,7.8
					c1.5,0.4,1.8,1.9,2.7,3c5.1,6.2,11.7,8.4,19,5.2C1074.3,2352.4,1077,2340.6,1075,2332.4z M1067.7,2337.2c-1,3.4,1,9.4-5.3,9.4
					c-4.2,0-7.2-2.6-6.6-7.6c0.5-3.8,0.5-8.2,6.1-7.6C1065.1,2331.7,1069.1,2332.6,1067.7,2337.2z"/>
			</g>
			<path class="st63" d="M1180.3,2323.8c-9-0.5-13.8,4.4-14.1,14.5c-0.3,8.3,5.3,14,13.8,14.3c7.7,0.3,11.2-3.7,11.7-13.4
				C1192.2,2330.6,1187.5,2324.3,1180.3,2323.8z M1180.5,2343.4c-4.5-0.2-6.3-2.8-5.8-7.1c0.3-2.4-1.3-5.9,3.3-5.8
				c4.7,0,5.9,3.1,6,7.2C1183.3,2339.9,1185,2343.6,1180.5,2343.4z"/>
			<path class="st60" d="M1102.4,2228.4c-2.3,0.1-4.6,0.2-6.9,0.3c0.3,0.2,0.7,0.4,1,0.6c-0.4-0.1-0.8-0.2-1-0.6
				c-2.1-0.7-5.3,0.2-5.2-3.6c0,0,0,0,0,0c2.9-2.7,4.9-6,6.6-9.5c3-5.6,6.1-11.3,1-17.2c-3.6-4.2-8.8-4.3-13.1-2.1
				c-8,4-10.5,11.6-10.7,20.1c-0.2,7.7,4.7,12.5,10.9,14.7c4.8,1.6,10.5,0.5,15.8,0.6c1.4,0.3,3,0.5,3.5-1.3
				C1104.7,2229,1103.7,2228.4,1102.4,2228.4z M1081.7,2219.6c-0.8-1.7-0.7-4.1-0.5-6.1c0.5-6.1,1.6-13,9.2-12.6
				c8.6,0.5,4.4,7.9,4.9,12.6c-4.5,1.5-6.9,4.5-7.3,9.3C1084,2225.6,1082.8,2222,1081.7,2219.6z"/>
			<path class="st64" d="M415.9,2440.7c-6.4,0-11.3,6.1-11.6,14.2c-0.3,7.3,4,10.3,10.5,10.4c9.1,0.1,8.9-6.9,9.4-12.1
				C424.1,2443.1,422.5,2440.8,415.9,2440.7z M414.5,2459.1c-3.9,0.4-4.2-2.3-4-5.3c0.2-3.8,1.1-7.6,5.3-8.3c3.9-0.6,2.2,3.2,3,5
				C417.3,2453.5,420.2,2458.5,414.5,2459.1z"/>
		</g>
	</g>
</g>
<g>
	<g id="BMvyUc_1_">
		<g>
			<path class="st0" d="M4100.2,2273.8c177.4,0.9,328.3-143.9,327.7-329.9c-0.6-185-151.9-329.5-331.1-327.5
				c-177.3,2-325.4,148.7-323.7,333.3C3774.7,2127.4,3922.1,2274.3,4100.2,2273.8z M3144.8,2501.4c6.6-0.3,19.5-0.9,32.5-1.6
				c63.6-3.4,125.5-14.9,184.3-40.3c40.5-17.6,77.8-39.8,105.2-75.5c17.9-23.3,27.6-49.2,24.5-79c-3.7-35.1-22.6-61.8-47.9-84.3
				c-44.9-39.8-99.2-61.1-156.4-74.9c-61.6-14.9-124.2-19.5-187.6-15.4c-65.2,4.2-128.4,16.5-188.2,43.6c-32,14.5-61.8,32.6-86,58.6
				c-23.8,25.5-38.6,54.5-36,90.4c2.3,31.5,17.9,56.5,39.3,78.2c30.2,30.7,67.4,50.4,107.1,65.4
				C3000.9,2491.1,3069,2500.4,3144.8,2501.4z"/>
			<path class="st65" d="M4100.2,2273.8c-178.1,0.6-325.5-146.4-327.1-324.1c-1.7-184.6,146.4-331.3,323.7-333.3
				c179.2-2,330.4,142.5,331.1,327.5C4428.5,2129.9,4277.7,2274.7,4100.2,2273.8z M4100.3,1620.4
				c-176.6-0.5-322.4,145.1-323.2,322.1c-0.8,180,142.1,325.1,318.6,327.5c181.6,2.5,324.1-143.4,327.9-317
				C4427.7,1767,4278,1619.7,4100.3,1620.4z"/>
			<path class="st66" d="M3144.8,2501.4c-75.8-1-143.9-10.3-209.2-35c-39.7-15-76.9-34.8-107.1-65.4c-21.4-21.8-37.1-46.7-39.3-78.2
				c-2.6-35.9,12.2-64.9,36-90.4c24.3-26,54-44.1,86-58.6c59.8-27.1,123-39.4,188.2-43.6c63.4-4.1,126,0.5,187.6,15.4
				c57.2,13.9,111.5,35.1,156.4,74.9c25.4,22.5,44.3,49.2,47.9,84.3c3.1,29.8-6.6,55.7-24.5,79c-27.4,35.8-64.7,58-105.2,75.5
				c-58.8,25.5-120.7,36.9-184.3,40.3C3164.3,2500.5,3151.4,2501.1,3144.8,2501.4z M3144.4,2133.4c-65.6-1.1-133.6,7.8-199.4,31.4
				c-45.3,16.3-87.5,37.8-120.1,74.4c-23.4,26.2-36.9,56.5-30.3,92.7c5.2,28.4,20.8,51.1,41.5,70.4c40.3,37.6,89.4,58.5,141.5,73.1
				c68,19.1,137.5,24.1,207.8,19.4c60.6-4,119.3-15.8,175.4-39.8c35.2-15.1,67.7-34.4,93.7-63.1c44.3-48.7,43.9-106.2-0.7-154.9
				c-25.9-28.4-58.2-47.7-93.1-62.4C3292.9,2146.1,3221.8,2133.6,3144.4,2133.4z"/>
			<path class="st0" d="M2743.7,1568.3c0,3,0.3,4.8,0,6.4c-11.1,52.9,9,95.7,44.4,132.8c38.1,39.9,85.6,64.8,136.7,83.7
				c42.8,15.8,86.8,26.8,132.1,32.3c4.6,0.6,8.8,0.8,8.1,7.8c-8.9,83.2-41.9,153.5-112.6,201.3c-87.1,58.8-197.2,41.5-266.9-40.1
				c-51.6-60.4-72-131.1-67.1-209.5c3.8-60.3,24-114.6,62.4-161.7c15.7-19.2,33.9-35.8,55.2-48.9
				C2738,1571,2740.4,1569.9,2743.7,1568.3z M2699.9,1859.6c-7.2-0.1-13.3,5.7-13.6,12.9c-0.3,7.3,6.3,13.9,13.6,13.8
				c7.2-0.2,13-6.1,13.1-13.4C2713.1,1865.8,2707,1859.7,2699.9,1859.6z M2789.5,1958.5c7.3-0.2,12.7-6.2,12.5-13.7
				c-0.2-7.5-5.9-13.2-13.2-13c-7.3,0.2-12.7,6.1-12.6,13.7C2776.4,1953,2782.3,1958.8,2789.5,1958.5z"/>
			<path class="st0" d="M2845.9,1541.4c58.8,0.4,110.4,27,151.8,74.1c49,56,68.9,122.5,68.4,196c0,7.1-2.6,8.8-9.2,7.9
				c-52.9-7.9-104.6-20.3-153.9-41.4c-33.7-14.4-65.6-32-93.5-56c-29.1-25-52.4-54-61.3-92.5c-4.4-19.1-3.8-38.2,0.3-57.3
				c1.3-6,4.2-9.7,10.1-12.5C2784.8,1547.5,2812.2,1541.6,2845.9,1541.4z M2841.7,1659.4c-0.1-7.5-5.6-12.8-13.2-12.7
				c-7.7,0.1-12.9,5.6-12.7,13.2c0.2,7.5,5.9,13,13.3,12.9C2836.4,1672.7,2841.8,1667,2841.7,1659.4z"/>
			<path class="st0" d="M4100.3,1620.4c177.7-0.6,327.4,146.6,323.3,332.5c-3.8,173.6-146.3,319.5-327.9,317
				c-176.5-2.4-319.4-147.5-318.6-327.5C3778,1765.4,3923.8,1619.9,4100.3,1620.4z M4294.9,1968.2c2.3-1.3,5.5-2.3,7.4-4.4
				c30.9-33.6,49.2-72.8,49.8-118.9c0.8-63.5-27.2-113.5-77-150.9c-86.1-64.6-209.3-62.6-293.9,4.1c-42.5,33.5-68.6,77.2-71.6,131.8
				c-3.9,70.6,27.5,125.2,84.8,163.9c67.7,45.8,141.8,51.8,218.9,27.6c10.4-3.3,20.2-8.8,30.2-13.2c-0.4-0.9-0.8-1.8-1.2-2.7
				c-3.9,1.3-7.9,2.4-11.6,4c-88.5,40-198,22.7-264.2-44.6c-38.2-38.8-57.3-85.2-52.1-140.1c5-53.7,32.1-95.6,74.4-127.1
				c55.9-41.7,119.5-54.5,187.6-41.9c57.6,10.7,106.1,38,139.7,87.1c39,57,42.8,117.2,10.8,178.5
				C4318.3,1938,4305.8,1952.5,4294.9,1968.2z M3991.5,1794c0.2-6.9-5-12.6-12.1-13c-8-0.5-14.2,4.9-14.3,12.7
				c-0.1,7.2,5.8,13.1,13,13.2C3985.6,1807,3991.3,1801.5,3991.5,1794z M4155.8,1882.4c-7.4-0.1-13.2,5.5-13.3,12.7
				c-0.1,7.4,5.6,13,13,13.1c7.5,0,13.2-5.4,13.2-12.8C4168.7,1887.9,4163.4,1882.5,4155.8,1882.4z M3934.6,2132.6
				c0-7.2-6-13.1-13.2-13c-7,0.1-12.4,5.5-12.7,12.6c-0.2,7.7,5.1,13.2,12.7,13.3C3928.9,2145.6,3934.6,2140.1,3934.6,2132.6z"/>
			<path class="st0" d="M3144.4,2133.4c77.4,0.2,148.5,12.6,216.3,41.3c34.9,14.7,67.1,34.1,93.1,62.4
				c44.5,48.7,44.9,106.1,0.7,154.9c-26,28.6-58.5,47.9-93.7,63.1c-56,24.1-114.8,35.8-175.4,39.8c-70.3,4.6-139.8-0.3-207.8-19.4
				c-52-14.6-101.2-35.5-141.5-73.1c-20.7-19.3-36.3-42-41.5-70.4c-6.6-36.2,6.9-66.5,30.3-92.7c32.6-36.5,74.8-58.1,120.1-74.4
				C3010.8,2141.2,3078.8,2132.3,3144.4,2133.4z M3203.4,2383.9c0.1-7.3-5.6-12.9-13.2-13c-7.5-0.1-13.3,5.4-13.4,12.8
				c-0.1,7.1,5.9,13,13.2,13.1C3197.4,2396.8,3203.4,2391.1,3203.4,2383.9z M2945.3,2398.2c-7.3-0.6-13.8,4.6-14.5,11.7
				c-0.7,7.3,4.6,13.5,12,14.1c7.5,0.6,13.8-4.4,14.5-11.6C2958,2405.5,2952.4,2398.9,2945.3,2398.2z M3176.3,2219.5
				c7.5,0.1,13-5.5,13-13c0-7.1-5.2-12.5-12.4-12.8c-7.7-0.3-13.3,4.9-13.5,12.5C3163.3,2213.7,3168.8,2219.4,3176.3,2219.5z"/>
			<path d="M3158.9,1481.2c6.9-0.2,13.3,5.8,13.6,12.9c0.3,6.9-5.6,13.4-12.6,13.8c-7.3,0.4-14.2-6.1-14.2-13.3
				C3145.8,1487.7,3151.9,1481.4,3158.9,1481.2z"/>
			<path d="M3344.6,1577.2c-0.1,7.3-5.9,12.9-13.4,12.8c-7.2-0.1-13.2-6-13.2-13.1c0-7,6.2-12.9,13.5-12.8
				C3338.6,1564.2,3344.6,1570.1,3344.6,1577.2z"/>
			<path d="M2699.9,1859.6c7.1,0.1,13.2,6.2,13.1,13.3c-0.1,7.2-5.9,13.2-13.1,13.4c-7.3,0.2-13.9-6.5-13.6-13.8
				C2686.6,1865.3,2692.7,1859.5,2699.9,1859.6z"/>
			<path d="M2789.5,1958.5c-7.2,0.2-13.1-5.6-13.3-13c-0.1-7.5,5.3-13.5,12.6-13.7c7.3-0.2,13.1,5.5,13.2,13
				C2802.2,1952.4,2796.8,1958.3,2789.5,1958.5z"/>
			<path d="M2841.7,1659.4c0.1,7.5-5.3,13.3-12.7,13.4c-7.4,0.1-13-5.3-13.3-12.9c-0.2-7.6,5-13.1,12.7-13.2
				C2836.1,1646.6,2841.6,1651.9,2841.7,1659.4z"/>
			<path class="st66" d="M4294.9,1968.2c10.9-15.7,23.4-30.3,32.1-46.8c32-61.3,28.2-121.5-10.8-178.5
				c-33.6-49.1-82.1-76.4-139.7-87.1c-68.1-12.6-131.7,0.2-187.6,41.9c-42.3,31.6-69.4,73.4-74.4,127.1
				c-5.1,54.9,13.9,101.2,52.1,140.1c66.2,67.2,175.7,84.6,264.2,44.6c3.7-1.7,7.7-2.7,11.6-4c0.4,0.9,0.8,1.8,1.2,2.7
				c-10.1,4.5-19.8,9.9-30.2,13.2c-77.1,24.2-151.2,18.1-218.9-27.6c-57.3-38.7-88.6-93.4-84.8-163.9c3-54.5,29.1-98.3,71.6-131.8
				c84.5-66.6,207.7-68.6,293.9-4.1c49.8,37.4,77.9,87.4,77,150.9c-0.6,46-18.9,85.3-49.8,118.9
				C4300.3,1966,4297.2,1966.9,4294.9,1968.2z"/>
			<path d="M3991.5,1794c-0.3,7.5-5.9,13-13.3,12.9c-7.3-0.1-13.1-6.1-13-13.2c0.1-7.7,6.2-13.2,14.3-12.7
				C3986.5,1781.4,3991.8,1787.1,3991.5,1794z"/>
			<path d="M4155.8,1882.4c7.6,0.1,12.9,5.5,12.9,13c0,7.4-5.7,12.8-13.2,12.8c-7.4,0-13.1-5.7-13-13.1
				C4142.5,1887.9,4148.3,1882.3,4155.8,1882.4z"/>
			<path d="M3934.6,2132.6c0,7.5-5.7,13-13.2,12.9c-7.6-0.1-12.9-5.7-12.7-13.3c0.2-7.1,5.6-12.5,12.7-12.6
				C3928.6,2119.4,3934.6,2125.3,3934.6,2132.6z"/>
			<path d="M3203.4,2383.9c-0.1,7.2-6,12.9-13.3,12.9c-7.3,0-13.3-6-13.2-13.1c0.1-7.3,5.8-12.8,13.4-12.8
				C3197.8,2371,3203.5,2376.5,3203.4,2383.9z"/>
			<path d="M2945.3,2398.2c7.1,0.6,12.7,7.2,12,14.2c-0.7,7.2-7,12.2-14.5,11.6c-7.4-0.6-12.7-6.8-12-14.1
				C2931.6,2402.9,2938,2397.6,2945.3,2398.2z"/>
			<path d="M3176.3,2219.5c-7.4-0.1-13-5.8-12.9-13.3c0.2-7.6,5.8-12.8,13.5-12.5c7.1,0.3,12.4,5.7,12.4,12.8
				C3189.3,2214,3183.7,2219.6,3176.3,2219.5z"/>
		</g>
	</g>
	<path d="M4314.1,2482.5c-14.2-15.4-27.7,1.7-39.6,4.1c-322.2,27.6-795.2,27.6-1184.1,52.1c-174.3,10.9-332.5-9.2-512.6,2.7
		c-47.9,10.7-57.2-14.9-57-59.3c1.4-343.1,1-686.2,0.9-1029.2c0-20.7,3.2-42.3-8.7-68.7c-15.8,21-4.8,39.3-4.8,56.1
		c-0.1,343.1,0,686.3,0.1,1029.4c0,10.1,0.1,20.2,0.7,30.3c3.1,57.3,4,65,61.4,53.6c217-2.4,355.2,1.5,538.1-4.2
		c292.5-9.1,409.3-10.2,819.9-24.3c126.4-4.4,241.4-7.9,363.2-32.4C4298.9,2491.1,4305.6,2486.4,4314.1,2482.5z"/>
	<path class="st13" d="M2508,1343.3c5.6-0.3,9.6,2.9,13.5,6.3c13.5,11.8,20.9,28.2,31.8,42c1.8,2.3,2.2,5.1-0.3,7.4
		c-2.8,2.6-5.3,0.5-7.3-1.1c-5.4-4.7-8.6-11.1-12.4-17c-5.3-8.2-10.5-16.5-17.6-23.4c-6-5.8-10.7-6.4-15.8,1.6
		c-8,12.5-16.8,24.5-25.4,36.6c-2.3,3.2-5,6-7.8,8.7c-1.5,1.4-3.6,1.1-5.3-0.4c-1.7-1.6-1.7-3.3-0.4-5.2
		c12.2-17.3,24.3-34.5,36.5-51.7C2500,1343.5,2504.1,1343.4,2508,1343.3z"/>
	<path class="st35" d="M4293.4,2547.5c9-39.8,49.4-43,76.4-64.6c-23.7-13.2-46.3-25.3-68.5-38.3c-9.5-5.6-18-12.8-26.7-19.7
		c-3.8-3-4.7-7.9-2-11.6c3.1-4.2,8.1-3.1,11.2,0.3c25.1,27.4,59.7,39.6,90.7,57.7c12.5,7.3,12.5,17.8,0.6,26.5
		c-10.3,7.6-21.8,13.7-33.1,19.7C4325.1,2526.4,4309.5,2536.9,4293.4,2547.5z"/>
	<text transform="matrix(1 0 0 1 3515.2812 1455.7495)" class="st66 st3 st4">food</text>
	<text transform="matrix(1 0 0 1 4167.7705 2000.1866)" class="st66 st3 st4">hot drinks</text>
	<text transform="matrix(1 0 0 1 4352.9067 2188.1694)" class="st65 st3 st4">drinks</text>
	<text transform="matrix(1 0 0 1 3480.4958 2417.0176)" class="st66 st3 st4">means of transportation</text>
	<text transform="matrix(1 0 0 1 2597.821 2094.9951)" class="st65 st3 st4">animals</text>
	<text transform="matrix(1 0 0 1 2873.0813 1962.5907)" class="st2 st3 st4">bear</text>
	<text transform="matrix(1 0 0 1 2740.24 1882.4938)" class="st2 st3 st4">wolf</text>
	<text transform="matrix(1 0 0 1 2867.6836 1671.6262)" class="st2 st3 st4">fish</text>
	<text transform="matrix(1 0 0 1 3198.5134 1504.8944)" class="st2 st3 st4">salad</text>
	<text transform="matrix(1 0 0 1 3368.5493 1589.8953)" class="st2 st3 st4">stew</text>
	<text transform="matrix(1 0 0 1 4022.4028 1805.6658)" class="st2 st3 st4">coffee</text>
	<text transform="matrix(1 0 0 1 4206.6655 1902.1091)" class="st2 st3 st4">tea</text>
	<text transform="matrix(1 0 0 1 3956.1685 2148.938)" class="st2 st3 st4">lemonade</text>
	<text transform="matrix(1 0 0 1 3224.8079 2224.1309)" class="st2 st3 st4">ship</text>
	<text transform="matrix(1 0 0 1 2988.7043 2412.1133)" class="st2 st3 st4">bike</text>
	<text transform="matrix(1 0 0 1 3231.2405 2390.8633)" class="st2 st3 st4">stew</text>
	<ellipse class="st67" cx="2841.6" cy="1804.9" rx="226.2" ry="264.8"/>
	<ellipse class="st68" cx="3160" cy="1602.1" rx="411.7" ry="223.7"/>
</g>
</svg>
